0
SECTION
2
HEADER
9
$INSUNITS
70
4
9
$ACADVER
1
AC1014
9
$HANDSEED
5
FFFF
0
ENDSEC
0
SECTION
2
TABLES
0
TABLE
2
VPORT
5
8
100
AcDbSymbolTable
0
ENDTAB
0
TABLE
2
LTYPE
5
5
100
AcDbSymbolTable
0
LTYPE
5
14
100
AcDbSymbolTableRecord
100
AcDbLinetypeTableRecord
2
BYBLOCK
70
0
0
LTYPE
5
15
100
AcDbSymbolTableRecord
100
AcDbLinetypeTableRecord
2
BYLAYER
70
0
0
LTYPE
5
16
100
AcDbSymbolTableRecord
100
AcDbLinetypeTableRecord
2
DASHED
70
0
3
Dashed __ __ __ __ __ __ __ __ __ __ __ __ __ _
72
65
73
2
40
0.75
49
0.5
74
0
49
-0.25
74
0
0
ENDTAB
0
TABLE
2
LAYER
5
2
100
AcDbSymbolTable
70
2
0
LAYER
5
50
100
AcDbSymbolTableRecord
100
AcDbLayerTableRecord
2
0
70
0
62
7
6
CONTINUOUS
0
ENDTAB
0
TABLE
2
STYLE
5
3
100
AcDbSymbolTable
70
1
0
STYLE
5
11
100
AcDbSymbolTableRecord
100
AcDbTextStyleTableRecord
2
STANDARD
70
0
0
ENDTAB
0
TABLE
2
VIEW
5
6
100
AcDbSymbolTable
70
0
0
ENDTAB
0
TABLE
2
UCS
5
7
100
AcDbSymbolTable
70
0
0
ENDTAB
0
TABLE
2
APPID
5
9
100
AcDbSymbolTable
70
2
0
APPID
5
12
100
AcDbSymbolTableRecord
100
AcDbRegAppTableRecord
2
ACAD
70
0
0
ENDTAB
0
TABLE
2
DIMSTYLE
5
A
100
AcDbSymbolTable
70
1
0
ENDTAB
0
TABLE
2
BLOCK_RECORD
5
1
100
AcDbSymbolTable
70
1
0
BLOCK_RECORD
5
1F
100
AcDbSymbolTableRecord
100
AcDbBlockTableRecord
2
*MODEL_SPACE
0
BLOCK_RECORD
5
1B
100
AcDbSymbolTableRecord
100
AcDbBlockTableRecord
2
*PAPER_SPACE
0
ENDTAB
0
ENDSEC
0
SECTION
2
BLOCKS
0
BLOCK
5
20
100
AcDbEntity
100
AcDbBlockBegin
2
*MODEL_SPACE
0
ENDBLK
5
21
100
AcDbEntity
100
AcDbBlockEnd
0
BLOCK
5
1C
100
AcDbEntity
100
AcDbBlockBegin
2
*PAPER_SPACE
0
ENDBLK
5
1D
100
AcDbEntity
100
AcDbBlockEnd
0
ENDSEC
0
SECTION
2
ENTITIES
0
LWPOLYLINE
5
100
100
AcDbEntity
8
0
100
AcDbPolyline
90
8
70
1
43
0.0
10
308.39384999999999
20
-16.083893920163401
10
306.89377506214146
20
-16.083893920163405
10
292.89377506214134
20
-16.083893920163391
42
-0.41421356237309503
10
291.3937750621414
20
-14.583893920163405
10
291.3937750621414
20
-7.5843939201633992
42
-0.41421356237309531
10
292.89377506214134
20
-6.0843939201633983
10
306.89377506214146
20
-6.0843939201633983
10
308.39384999999999
20
-6.0843939201634081
0
LWPOLYLINE
5
101
100
AcDbEntity
8
0
100
AcDbPolyline
90
8
70
1
43
0.0
10
283.0812750621414
20
-16.083893920163405
10
269.08127506214146
20
-16.083893920163391
42
-0.41421356237309503
10
267.58127506214146
20
-14.583893920163405
10
267.58127506214146
20
-7.5843939201633992
42
-0.41421356237309531
10
269.08127506214146
20
-6.0843939201633983
10
283.0812750621414
20
-6.0843939201634134
42
-0.41421356237309531
10
284.5812750621414
20
-7.5843939201634001
10
284.5812750621414
20
-14.583893920163401
42
-0.41421356237309548
0
LWPOLYLINE
5
102
100
AcDbEntity
8
0
100
AcDbPolyline
90
8
70
1
43
0.0
10
225.93127506214137
20
-16.083893920163405
10
211.9312750621414
20
-16.083893920163398
42
-0.41421356237309548
10
210.43127506214142
20
-14.583893920163408
10
210.43127506214142
20
-7.5843939201633992
42
-0.41421356237309481
10
211.9312750621414
20
-6.0843939201634001
10
225.93127506214137
20
-6.0843939201634161
42
-0.41421356237309481
10
227.43127506214137
20
-7.5843939201634001
10
227.43127506214137
20
-14.583893920163412
42
-0.41421356237309503
0
LWPOLYLINE
5
103
100
AcDbEntity
8
0
100
AcDbPolyline
90
8
70
1
43
0.0
10
229.48127506214144
20
-14.583893920163405
10
229.48127506214144
20
-7.5843939201633948
42
-0.41421356237309503
10
230.98127506214141
20
-6.084393920163393
10
244.98127506214138
20
-6.0843939201634099
42
-0.41421356237309503
10
246.48127506214138
20
-7.5843939201633956
10
246.48127506214138
20
-14.583893920163401
42
-0.41421356237309548
10
244.98127506214138
20
-16.083893920163405
10
230.98127506214141
20
-16.083893920163391
42
-0.41421356237309503
0
LWPOLYLINE
5
104
100
AcDbEntity
8
0
100
AcDbPolyline
90
8
70
1
43
0.0
10
265.53127506214139
20
-7.5843939201634001
10
265.53127506214139
20
-14.583893920163401
42
-0.41421356237309548
10
264.03127506214139
20
-16.083893920163405
10
250.03127506214133
20
-16.083893920163391
42
-0.41421356237309503
10
248.53127506214136
20
-14.583893920163405
10
248.53127506214136
20
-7.5843939201633992
42
-0.41421356237309481
10
250.03127506214133
20
-6.0843939201634001
10
264.03127506214139
20
-6.0843939201634134
42
-0.41421356237309531
0
LWPOLYLINE
5
105
100
AcDbEntity
8
0
100
AcDbPolyline
90
8
70
1
43
0.0
10
310.44385
20
-14.583893920163398
42
0.41421356237309592
10
311.94385
20
-16.083893920163405
10
325.94385
20
-16.083893920163405
42
0.41421356237309503
10
327.44385
20
-14.583893920163401
10
327.44385
20
-7.5843939201634045
42
0.41421356237309548
10
325.94385
20
-6.0843939201633992
10
311.94385000000005
20
-6.0843939201634045
42
0.41421356237309481
10
310.44385
20
-7.5843939201634036
0
LWPOLYLINE
5
106
100
AcDbEntity
8
0
100
AcDbPolyline
90
8
70
1
43
0.0
10
329.49385000000001
20
-14.583893920163401
42
0.41421356237309592
10
330.99384999999995
20
-16.083893920163408
10
344.99384999999995
20
-16.083893920163408
42
0.41421356237309503
10
346.49384999999995
20
-14.583893920163407
10
346.49384999999995
20
-7.5843939201634045
42
0.41421356237309548
10
344.99384999999995
20
-6.0843939201633992
10
330.99384999999995
20
-6.0843939201634019
42
0.41421356237309503
10
329.49385000000001
20
-7.5843939201634036
0
LWPOLYLINE
5
107
100
AcDbEntity
8
0
100
AcDbPolyline
90
8
70
1
43
0.0
10
282.41184999999996
20
-98.98409392016346
10
243.41185000000002
20
-98.984093920163446
42
-0.41421356237309159
10
241.91185000000002
20
-97.484093920163474
10
241.91184999999996
20
-90.484393920163456
42
-0.41421356237309853
10
243.41184999999999
20
-88.984393920163427
10
282.41184999999996
20
-88.984393920163441
42
-0.41421356237309503
10
283.91184999999996
20
-90.484393920163427
10
283.91185000000002
20
-97.484093920163446
42
-0.41421356237309503
0
LWPOLYLINE
5
108
100
AcDbEntity
8
0
100
AcDbPolyline
90
8
70
1
43
0.0
10
209.26185000000032
20
-118.03402392016338
42
0.41421356237310197
10
210.76185000000032
20
-116.53402392016338
10
210.76185000000032
20
-109.53429392016344
42
0.41421356237309853
10
209.26185000000032
20
-108.03429392016344
10
195.26284999999999
20
-108.03429392016342
42
0.41421356237309853
10
193.76285000000001
20
-109.53429392016345
10
193.76284999999999
20
-116.53402392016338
42
0.41421356237309503
10
195.26284999999999
20
-118.03402392016338
0
LWPOLYLINE
5
109
100
AcDbEntity
8
0
100
AcDbPolyline
90
8
70
1
43
0.0
10
215.19377293316433
20
-116.53402392016338
10
215.19377293316433
20
-109.53429392016344
42
-0.41421356237309853
10
216.6937729331643
20
-108.03429392016342
10
233.07485000000028
20
-108.03429392016342
42
-0.41421356237311241
10
234.57485000000031
20
-109.53429392016344
10
234.57485000000034
20
-116.53402392016339
42
-0.41421356237311935
10
233.07485000000031
20
-118.03402392016338
10
216.6937729331643
20
-118.03402392016335
42
-0.41421356237309159
0
LWPOLYLINE
5
110
100
AcDbEntity
8
0
100
AcDbPolyline
90
8
70
1
43
0.0
10
262.8187729331645
20
-116.53402392016338
10
262.8187729331645
20
-109.53429392016344
42
-0.41421356237309853
10
264.3187729331645
20
-108.03429392016342
10
280.69984999999997
20
-108.03429392016344
42
-0.41421356237309503
10
282.19984999999997
20
-109.53429392016344
10
282.19985000000003
20
-116.53402392016335
42
-0.41421356237309853
10
280.69984999999997
20
-118.03402392016338
10
264.3187729331645
20
-118.03402392016335
42
-0.41421356237309159
0
LWPOLYLINE
5
111
100
AcDbEntity
8
0
100
AcDbPolyline
90
8
70
1
43
0.0
10
239.0062729331643
20
-116.53402392016338
10
239.0062729331643
20
-109.53429392016344
42
-0.41421356237311241
10
240.50627293316427
20
-108.03429392016342
10
256.88684811434962
20
-108.03429392016342
42
-0.41421356237309853
10
258.38684811434962
20
-109.53429392016344
10
258.38684811434962
20
-116.53402392016339
42
-0.41421356237309853
10
256.88684811434962
20
-118.03402392016338
10
240.50627293316433
20
-118.03402392016335
42
-0.41421356237309159
0
LWPOLYLINE
5
112
100
AcDbEntity
8
0
100
AcDbPolyline
90
8
70
1
43
0.0
10
50.887850000000292
20
-116.53402392016339
10
50.887850000000299
20
-109.53429392016346
42
-0.41421356237309681
10
52.387850000000292
20
-108.03429392016344
10
68.887149999999991
20
-108.03429392016344
42
-0.41421356237309503
10
70.387149999999991
20
-109.53429392016345
10
70.387149999999991
20
-116.53402392016335
42
-0.41421356237309853
10
68.887149999999991
20
-118.03402392016338
10
52.387850000000292
20
-118.03402392016338
42
-0.41421356237309159
0
LWPOLYLINE
5
113
100
AcDbEntity
8
0
100
AcDbPolyline
90
8
70
1
43
0.0
10
27.073850000000299
20
-116.53402392016339
10
27.073850000000288
20
-109.53429392016346
42
-0.41421356237310197
10
28.573850000000274
20
-108.03429392016344
10
44.956272933164492
20
-108.03429392016344
42
-0.41421356237309337
10
46.456272933164499
20
-109.53429392016345
10
46.456272933164485
20
-116.53402392016339
42
-0.41421356237308982
10
44.95627293316447
20
-118.03402392016339
10
28.573850000000299
20
-118.03402392016338
42
-0.41421356237309159
0
LWPOLYLINE
5
114
100
AcDbEntity
8
0
100
AcDbPolyline
90
8
70
1
43
0.0
10
21.143772933164492
20
-118.03402392016339
42
0.41421356237309076
10
22.643772933164506
20
-116.53402392016339
10
22.643772933164502
20
-109.53429392016345
42
0.41421356237309503
10
21.143772933164495
20
-108.03429392016342
10
4.7627599999999859
20
-108.03429392016342
42
0.41421356237309936
10
3.2627599999999637
20
-109.53429392016345
10
3.262759999999977
20
-116.53402392016338
42
0.41421356237309681
10
4.7627599999999859
20
-118.03402392016338
0
LWPOLYLINE
5
115
100
AcDbEntity
8
0
100
AcDbPolyline
90
8
70
1
43
0.0
10
2.024749999999985
20
-84.933943920163472
10
2.0247499999999672
20
-71.434293920163427
42
-0.41421356237309237
10
3.5247499999999659
20
-69.934293920163427
10
23.524749999999983
20
-69.934293920163412
42
-0.4142135623730942
10
25.024749999999976
20
-71.434293920163427
10
25.024749999999983
20
-84.933943920163429
42
-0.41421356237309764
10
23.524749999999983
20
-86.433943920163458
10
3.5247499999999836
20
-86.433943920163472
42
-0.41421356237309431
0
LWPOLYLINE
5
116
100
AcDbEntity
8
0
100
AcDbPolyline
90
8
70
1
43
0.0
10
35.719049999999974
20
-69.934293920163441
10
49.718349999999987
20
-69.934293920163412
42
-0.41421356237309503
10
51.218349999999987
20
-71.434293920163427
10
51.218349999999987
20
-78.433943920163443
42
-0.41421356237309681
10
49.718349999999987
20
-79.933943920163458
10
35.719049999999974
20
-79.933943920163443
42
-0.4142135623730942
10
34.219049999999982
20
-78.433943920163458
10
34.219049999999982
20
-71.434293920163427
42
-0.41421356237309503
0
CIRCLE
5
117
100
AcDbEntity
8
0
100
AcDbCircle
10
20.262499009663642
20
-27.458893982155452
30
-1.2212453270876722e-14
40
3.1250000000000004
210
6.0482982987943196e-31
220
-4.3021142204224806e-16
230
1
0
CIRCLE
5
118
100
AcDbEntity
8
0
100
AcDbCircle
10
327.66249800966352
20
-27.458891498254339
30
-1.2212453270876722e-14
40
3.1250000000000004
210
6.0482982987943196e-31
220
-4.3021142204224806e-16
230
1
0
LWPOLYLINE
5
119
100
AcDbEntity
8
0
100
AcDbPolyline
90
8
70
1
43
0.0
10
0.88149999999998729
20
-14.583893920163398
10
0.88149999999997397
20
-7.5843939201633992
42
-0.41421356237309503
10
2.3814999999999742
20
-6.0843939201633992
10
16.381049999999977
20
-6.0843939201633992
42
-0.41421356237309631
10
17.881049999999977
20
-7.5843939201634045
10
17.881049999999977
20
-14.583893920163401
42
-0.41421356237309503
10
16.381049999999977
20
-16.083893920163401
10
2.3814999999999742
20
-16.083893920163391
42
-0.41421356237309559
0
LWPOLYLINE
5
120
100
AcDbEntity
8
0
100
AcDbPolyline
90
8
70
1
43
0.0
10
96.130149999999972
20
-14.583893920163398
10
96.130149999999986
20
-7.5843939201633992
42
-0.41421356237309481
10
97.630149999999986
20
-6.0843939201634001
10
111.63084999999998
20
-6.0843939201633965
42
-0.41421356237309592
10
113.13085
20
-7.5843939201634045
10
113.13085
20
-14.583893920163401
42
-0.41421356237309503
10
111.63084999999998
20
-16.083893920163405
10
97.630149999999986
20
-16.083893920163423
42
-0.41421356237309592
0
LWPOLYLINE
5
121
100
AcDbEntity
8
0
100
AcDbPolyline
90
8
70
1
43
0.0
10
38.981549999999991
20
-14.583893920163398
10
38.981549999999984
20
-7.5843939201633992
42
-0.41421356237309481
10
40.481549999999984
20
-6.0843939201634001
10
54.480849999999975
20
-6.0843939201633965
42
-0.41421356237309592
10
55.980849999999982
20
-7.5843939201634045
10
55.980849999999982
20
-14.583893920163401
42
-0.41421356237309503
10
54.480849999999982
20
-16.083893920163405
10
40.481549999999999
20
-16.083893920163398
42
-0.41421356237309592
0
LWPOLYLINE
5
122
100
AcDbEntity
8
0
100
AcDbPolyline
90
8
70
1
43
0.0
10
77.081549999999979
20
-14.583893920163398
10
77.081549999999979
20
-7.5843939201633992
42
-0.41421356237309481
10
78.581549999999979
20
-6.0843939201634001
10
92.58084999999997
20
-6.0843939201633965
42
-0.41421356237309592
10
94.080849999999984
20
-7.5843939201634045
10
94.080849999999984
20
-14.583893920163401
42
-0.41421356237309503
10
92.58084999999997
20
-16.083893920163405
10
78.581549999999993
20
-16.083893920163405
42
-0.41421356237309592
0
LWPOLYLINE
5
123
100
AcDbEntity
8
0
100
AcDbPolyline
90
8
70
1
43
0.0
10
58.031549999999974
20
-14.583893920163398
10
58.031549999999982
20
-7.5843939201633992
42
-0.41421356237309481
10
59.531549999999989
20
-6.0843939201634001
10
73.530849999999958
20
-6.0843939201633965
42
-0.41421356237309592
10
75.030849999999973
20
-7.5843939201634045
10
75.030849999999987
20
-14.583893920163401
42
-0.41421356237309503
10
73.530849999999987
20
-16.083893920163405
10
59.531549999999996
20
-16.083893920163415
42
-0.41421356237309592
0
LWPOLYLINE
5
124
100
AcDbEntity
8
0
100
AcDbPolyline
90
8
70
1
43
0.0
10
0.88149999999998896
20
-40.333943920163406
10
0.88149999999997952
20
-33.334293920163411
42
-0.41421356237309342
10
2.3814999999999746
20
-31.834293920163418
10
16.381049999999977
20
-31.834293920163418
42
-0.41421356237309503
10
17.881049999999977
20
-33.334293920163418
10
17.881049999999981
20
-40.333943920163406
42
-0.41421356237309503
10
16.381049999999977
20
-41.833943920163406
10
2.3814999999999746
20
-41.833943920163392
42
-0.41421356237309453
0
LWPOLYLINE
5
125
100
AcDbEntity
8
0
100
AcDbPolyline
90
8
70
1
43
0.0
10
77.081549999999979
20
-40.333943920163414
10
77.081549999999979
20
-33.334293920163425
42
-0.41421356237309592
10
78.581549999999979
20
-31.834293920163418
10
92.58084999999997
20
-31.834293920163415
42
-0.41421356237309503
10
94.080849999999984
20
-33.334293920163418
10
94.080849999999984
20
-40.333943920163406
42
-0.41421356237309503
10
92.58084999999997
20
-41.833943920163406
10
78.581549999999979
20
-41.833943920163406
42
-0.41421356237309337
0
LWPOLYLINE
5
126
100
AcDbEntity
8
0
100
AcDbPolyline
90
8
70
1
43
0.0
10
153.28184999999996
20
-40.333943920163414
10
153.28185000000002
20
-33.334293920163425
42
-0.41421356237309592
10
154.78185000000002
20
-31.834293920163418
10
168.78084999999999
20
-31.834293920163432
42
-0.41421356237309503
10
170.28084999999999
20
-33.334293920163418
10
170.28084999999999
20
-40.333943920163406
42
-0.41421356237309503
10
168.78084999999999
20
-41.833943920163406
10
154.78184999999999
20
-41.833943920163428
42
-0.41421356237309337
0
LWPOLYLINE
5
127
100
AcDbEntity
8
0
100
AcDbPolyline
90
8
70
1
43
0.0
10
229.48185000000001
20
-40.333943920163414
10
229.48184999999998
20
-33.334293920163425
42
-0.41421356237309592
10
230.98184999999998
20
-31.834293920163418
10
244.98085
20
-31.834293920163432
42
-0.41421356237309503
10
246.48084999999998
20
-33.334293920163418
10
246.48085000000003
20
-40.333943920163406
42
-0.41421356237309503
10
244.98085
20
-41.833943920163406
10
230.98184999999998
20
-41.833943920163357
42
-0.41421356237309337
0
LWPOLYLINE
5
128
100
AcDbEntity
8
0
100
AcDbPolyline
90
8
70
1
43
0.0
10
96.130149999999972
20
-40.333943920163414
10
96.130149999999986
20
-33.334293920163425
42
-0.41421356237309592
10
97.630149999999986
20
-31.834293920163418
10
111.63084999999998
20
-31.834293920163415
42
-0.41421356237309503
10
113.13085
20
-33.334293920163418
10
113.13085
20
-40.333943920163406
42
-0.41421356237309503
10
111.63084999999998
20
-41.833943920163406
10
97.630149999999986
20
-41.833943920163428
42
-0.41421356237309337
0
LWPOLYLINE
5
129
100
AcDbEntity
8
0
100
AcDbPolyline
90
8
70
1
43
0.0
10
19.93154999999998
20
-40.333943920163414
10
19.931549999999977
20
-33.334293920163425
42
-0.4142135623730942
10
21.431549999999966
20
-31.834293920163418
10
35.430849999999978
20
-31.834293920163418
42
-0.41421356237309592
10
36.930849999999978
20
-33.334293920163418
10
36.930849999999985
20
-40.333943920163406
42
-0.41421356237309592
10
35.430849999999978
20
-41.833943920163406
10
21.431549999999973
20
-41.833943920163399
42
-0.41421356237309337
0
LWPOLYLINE
5
130
100
AcDbEntity
8
0
100
AcDbPolyline
90
8
70
1
43
0.0
10
58.031549999999974
20
-40.333943920163414
10
58.031549999999982
20
-33.334293920163425
42
-0.41421356237309592
10
59.531549999999989
20
-31.834293920163418
10
73.530849999999973
20
-31.834293920163415
42
-0.41421356237309503
10
75.030849999999973
20
-33.334293920163418
10
75.030849999999987
20
-40.333943920163406
42
-0.41421356237309503
10
73.530849999999987
20
-41.833943920163406
10
59.531549999999989
20
-41.833943920163421
42
-0.41421356237309337
0
LWPOLYLINE
5
131
100
AcDbEntity
8
0
100
AcDbPolyline
90
8
70
1
43
0.0
10
134.23184999999995
20
-40.333943920163414
10
134.23184999999998
20
-33.334293920163425
42
-0.41421356237309592
10
135.73184999999998
20
-31.834293920163418
10
149.73084999999998
20
-31.834293920163415
42
-0.41421356237309503
10
151.23084999999998
20
-33.334293920163418
10
151.23084999999998
20
-40.333943920163406
42
-0.41421356237309503
10
149.73084999999998
20
-41.833943920163406
10
135.73184999999998
20
-41.833943920163428
42
-0.41421356237309337
0
LWPOLYLINE
5
132
100
AcDbEntity
8
0
100
AcDbPolyline
90
8
70
1
43
0.0
10
210.43185
20
-40.333943920163414
10
210.43184999999997
20
-33.334293920163425
42
-0.41421356237309592
10
211.93184999999997
20
-31.834293920163418
10
225.93084999999999
20
-31.834293920163432
42
-0.41421356237309503
10
227.43084999999996
20
-33.334293920163418
10
227.43085000000002
20
-40.333943920163406
42
-0.41421356237309503
10
225.93084999999999
20
-41.833943920163406
10
211.93184999999997
20
-41.833943920163357
42
-0.41421356237309337
0
LWPOLYLINE
5
133
100
AcDbEntity
8
0
100
AcDbPolyline
90
8
70
1
43
0.0
10
329.49385000000001
20
-40.333943920163414
10
329.49385000000001
20
-33.334293920163425
42
-0.41421356237309503
10
330.99384999999995
20
-31.834293920163425
10
344.99384999999995
20
-31.834293920163439
42
-0.41421356237309503
10
346.49384999999995
20
-33.334293920163425
10
346.49384999999995
20
-40.333943920163414
42
-0.41421356237309503
10
344.99384999999995
20
-41.833943920163421
10
330.99384999999995
20
-41.833943920163399
42
-0.41421356237309503
0
LWPOLYLINE
5
134
100
AcDbEntity
8
0
100
AcDbPolyline
90
8
70
1
43
0.0
10
310.44385
20
-40.333943920163414
10
310.44385000000005
20
-33.334293920163425
42
-0.41421356237309592
10
311.94385000000005
20
-31.834293920163425
10
325.94385
20
-31.834293920163432
42
-0.41421356237309503
10
327.44385
20
-33.334293920163418
10
327.44385
20
-40.333943920163406
42
-0.41421356237309503
10
325.94385
20
-41.833943920163406
10
311.94385
20
-41.833943920163435
42
-0.41421356237309503
0
LWPOLYLINE
5
135
100
AcDbEntity
8
0
100
AcDbPolyline
90
8
70
1
43
0.0
10
191.38184999999999
20
-40.333943920163414
10
191.38184999999999
20
-33.334293920163425
42
-0.41421356237309592
10
192.88184999999999
20
-31.834293920163418
10
206.88085000000001
20
-31.834293920163432
42
-0.41421356237309503
10
208.38085000000001
20
-33.334293920163418
10
208.38085000000001
20
-40.333943920163406
42
-0.41421356237309503
10
206.88085000000001
20
-41.833943920163406
10
192.88184999999999
20
-41.833943920163392
42
-0.41421356237309337
0
LWPOLYLINE
5
136
100
AcDbEntity
8
0
100
AcDbPolyline
90
8
70
1
43
0.0
10
115.17984999999996
20
-40.333943920163414
10
115.17984999999997
20
-33.334293920163425
42
-0.41421356237309592
10
116.67984999999999
20
-31.834293920163418
10
130.68084999999996
20
-31.834293920163415
42
-0.41421356237309503
10
132.18084999999996
20
-33.334293920163418
10
132.18084999999996
20
-40.333943920163406
42
-0.41421356237309503
10
130.68084999999996
20
-41.833943920163406
10
116.67984999999999
20
-41.833943920163428
42
-0.41421356237309337
0
LWPOLYLINE
5
137
100
AcDbEntity
8
0
100
AcDbPolyline
90
8
70
1
43
0.0
10
38.981549999999991
20
-40.333943920163414
10
38.981549999999984
20
-33.334293920163425
42
-0.41421356237309592
10
40.481549999999984
20
-31.834293920163418
10
54.480849999999982
20
-31.834293920163415
42
-0.41421356237309503
10
55.980849999999982
20
-33.334293920163418
10
55.980849999999982
20
-40.333943920163406
42
-0.41421356237309503
10
54.480849999999982
20
-41.833943920163406
10
40.481549999999984
20
-41.833943920163399
42
-0.41421356237309337
0
LWPOLYLINE
5
138
100
AcDbEntity
8
0
100
AcDbPolyline
90
8
70
1
43
0.0
10
255.67385000000007
20
-78.433943920163458
10
255.67385000000002
20
-71.434293920163427
42
-0.41421356237309503
10
257.17385000000002
20
-69.934293920163427
10
271.17484999999999
20
-69.934293920163441
42
-0.41421356237309503
10
272.67484999999999
20
-71.434293920163427
10
272.67484999999999
20
-78.433943920163443
42
-0.41421356237309681
10
271.17484999999999
20
-79.933943920163458
10
257.17385000000002
20
-79.933943920163401
42
-0.41421356237309503
0
LWPOLYLINE
5
139
100
AcDbEntity
8
0
100
AcDbPolyline
90
8
70
1
43
0.0
10
167.56885000000005
20
-78.433943920163458
10
167.56885000000005
20
-71.434293920163427
42
-0.41421356237309503
10
169.06885000000003
20
-69.934293920163427
10
183.06885
20
-69.934293920163441
42
-0.41421356237309503
10
184.56885
20
-71.434293920163427
10
184.56885
20
-78.433943920163443
42
-0.41421356237309681
10
183.06885
20
-79.933943920163458
10
169.06885
20
-79.933943920163401
42
-0.41421356237309503
0
LWPOLYLINE
5
140
100
AcDbEntity
8
0
100
AcDbPolyline
90
8
70
1
43
0.0
10
91.369049999999987
20
-78.433943920163458
10
91.369049999999987
20
-71.434293920163427
42
-0.41421356237309503
10
92.869049999999987
20
-69.934293920163427
10
106.86885000000001
20
-69.934293920163412
42
-0.41421356237309503
10
108.36885000000001
20
-71.434293920163427
10
108.36885000000001
20
-78.433943920163443
42
-0.41421356237309681
10
106.86885000000001
20
-79.933943920163458
10
92.869049999999987
20
-79.933943920163458
42
-0.41421356237309503
0
LWPOLYLINE
5
141
100
AcDbEntity
8
0
100
AcDbPolyline
90
8
70
1
43
0.0
10
67.556549999999987
20
-59.383943920163446
10
67.556549999999987
20
-52.384293920163429
42
-0.41421356237309503
10
69.056549999999987
20
-50.884293920163429
10
83.055849999999964
20
-50.884293920163429
42
-0.41421356237309503
10
84.555849999999978
20
-52.384293920163429
10
84.555849999999978
20
-59.383943920163446
42
-0.41421356237309503
10
83.055849999999964
20
-60.883943920163446
10
69.056549999999987
20
-60.88394392016346
42
-0.41421356237309503
0
LWPOLYLINE
5
142
100
AcDbEntity
8
0
100
AcDbPolyline
90
8
70
1
43
0.0
10
143.75684999999999
20
-59.383943920163446
10
143.75684999999999
20
-52.384293920163429
42
-0.41421356237309503
10
145.25684999999999
20
-50.884293920163429
10
159.25584999999995
20
-50.884293920163429
42
-0.41421356237309503
10
160.75584999999995
20
-52.384293920163429
10
160.75584999999995
20
-59.383943920163446
42
-0.41421356237309503
10
159.25584999999995
20
-60.883943920163446
10
145.25684999999999
20
-60.883943920163468
42
-0.41421356237309503
0
LWPOLYLINE
5
143
100
AcDbEntity
8
0
100
AcDbPolyline
90
8
70
1
43
0.0
10
219.95685000000003
20
-59.383943920163446
10
219.95684999999995
20
-52.384293920163429
42
-0.41421356237309503
10
221.45684999999997
20
-50.884293920163429
10
235.45585
20
-50.884293920163444
42
-0.41421356237309503
10
236.95584999999997
20
-52.384293920163429
10
236.95585
20
-59.383943920163446
42
-0.41421356237309503
10
235.45585
20
-60.883943920163446
10
221.45684999999997
20
-60.883943920163397
42
-0.41421356237309503
0
LWPOLYLINE
5
144
100
AcDbEntity
8
0
100
AcDbPolyline
90
8
70
1
43
0.0
10
310.44385
20
-59.383943920163446
10
310.44385000000005
20
-52.384293920163429
42
-0.41421356237309503
10
311.94385000000005
20
-50.884293920163429
10
325.94385
20
-50.884293920163444
42
-0.41421356237309503
10
327.44385
20
-52.384293920163429
10
327.44385
20
-59.383943920163446
42
-0.41421356237309503
10
325.94385
20
-60.883943920163446
10
311.94385
20
-60.883943920163468
42
-0.41421356237309503
0
LWPOLYLINE
5
145
100
AcDbEntity
8
0
100
AcDbPolyline
90
8
70
1
43
0.0
10
291.39384999999999
20
-59.383943920163446
10
291.39384999999999
20
-52.384293920163429
42
-0.41421356237309503
10
292.89384999999999
20
-50.884293920163429
10
306.89384999999999
20
-50.884293920163444
42
-0.41421356237309503
10
308.39384999999999
20
-52.384293920163429
10
308.39384999999999
20
-59.383943920163446
42
-0.41421356237309503
10
306.89384999999999
20
-60.883943920163446
10
292.89384999999999
20
-60.883943920163468
42
-0.41421356237309503
0
LWPOLYLINE
5
146
100
AcDbEntity
8
0
100
AcDbPolyline
90
8
70
1
43
0.0
10
200.90685000000002
20
-59.383943920163446
10
200.90685000000002
20
-52.384293920163429
42
-0.41421356237309503
10
202.40684999999999
20
-50.884293920163429
10
216.40584999999999
20
-50.884293920163444
42
-0.41421356237309503
10
217.90584999999996
20
-52.384293920163429
10
217.90584999999993
20
-59.383943920163446
42
-0.41421356237309503
10
216.40584999999993
20
-60.883943920163446
10
202.40684999999999
20
-60.883943920163432
42
-0.41421356237309503
0
LWPOLYLINE
5
147
100
AcDbEntity
8
0
100
AcDbPolyline
90
8
70
1
43
0.0
10
124.70684999999996
20
-59.383943920163446
10
124.70684999999997
20
-52.384293920163429
42
-0.41421356237309503
10
126.20684999999997
20
-50.884293920163429
10
140.20584999999997
20
-50.884293920163429
42
-0.41421356237309503
10
141.70584999999997
20
-52.384293920163429
10
141.70584999999997
20
-59.383943920163446
42
-0.41421356237309503
10
140.20584999999997
20
-60.883943920163446
10
126.20684999999997
20
-60.883943920163468
42
-0.41421356237309503
0
LWPOLYLINE
5
148
100
AcDbEntity
8
0
100
AcDbPolyline
90
8
70
1
43
0.0
10
48.506549999999997
20
-59.383943920163446
10
48.50654999999999
20
-52.384293920163429
42
-0.41421356237309503
10
50.00654999999999
20
-50.884293920163429
10
64.005849999999981
20
-50.884293920163429
42
-0.41421356237309503
10
65.505849999999995
20
-52.384293920163429
10
65.505849999999995
20
-59.383943920163446
42
-0.41421356237309503
10
64.005849999999981
20
-60.883943920163446
10
50.00654999999999
20
-60.883943920163439
42
-0.41421356237309503
0
LWPOLYLINE
5
149
100
AcDbEntity
8
0
100
AcDbPolyline
90
8
70
1
43
0.0
10
110.41885000000001
20
-78.433943920163458
10
110.41884999999999
20
-71.434293920163427
42
-0.41421356237309503
10
111.91884999999999
20
-69.934293920163427
10
125.91884999999999
20
-69.934293920163412
42
-0.41421356237309503
10
127.41884999999999
20
-71.434293920163427
10
127.41884999999999
20
-78.433943920163443
42
-0.41421356237309681
10
125.91884999999999
20
-79.933943920163458
10
111.91884999999999
20
-79.933943920163443
42
-0.41421356237309503
0
LWPOLYLINE
5
150
100
AcDbEntity
8
0
100
AcDbPolyline
90
8
70
1
43
0.0
10
186.61884999999998
20
-78.433943920163458
10
186.61884999999998
20
-71.434293920163427
42
-0.41421356237309503
10
188.11884999999995
20
-69.934293920163427
10
202.11884999999998
20
-69.934293920163441
42
-0.41421356237309503
10
203.61884999999998
20
-71.434293920163427
10
203.61884999999995
20
-78.433943920163443
42
-0.41421356237309681
10
202.11884999999995
20
-79.933943920163458
10
188.11884999999995
20
-79.933943920163443
42
-0.41421356237309503
0
LWPOLYLINE
5
151
100
AcDbEntity
8
0
100
AcDbPolyline
90
8
70
1
43
0.0
10
224.71885
20
-78.433943920163458
10
224.71885
20
-71.434293920163427
42
-0.41421356237309503
10
226.21884999999997
20
-69.934293920163427
10
240.21884999999997
20
-69.934293920163441
42
-0.41421356237309503
10
241.71884999999997
20
-71.434293920163427
10
241.71884999999997
20
-78.433943920163443
42
-0.41421356237309681
10
240.21884999999997
20
-79.933943920163458
10
226.21884999999997
20
-79.933943920163443
42
-0.41421356237309503
0
LWPOLYLINE
5
152
100
AcDbEntity
8
0
100
AcDbPolyline
90
8
70
1
43
0.0
10
148.51884999999996
20
-78.433943920163458
10
148.51884999999999
20
-71.434293920163427
42
-0.41421356237309681
10
150.01884999999999
20
-69.934293920163412
10
164.01884999999999
20
-69.934293920163441
42
-0.41421356237309503
10
165.51884999999999
20
-71.434293920163427
10
165.51884999999999
20
-78.433943920163443
42
-0.41421356237309681
10
164.01884999999999
20
-79.933943920163458
10
150.01884999999999
20
-79.933943920163472
42
-0.41421356237309503
0
LWPOLYLINE
5
153
100
AcDbEntity
8
0
100
AcDbPolyline
90
8
70
1
43
0.0
10
72.319049999999976
20
-78.433943920163458
10
72.319049999999976
20
-71.434293920163427
42
-0.41421356237309503
10
73.819049999999976
20
-69.934293920163427
10
87.818349999999981
20
-69.934293920163412
42
-0.41421356237309503
10
89.318349999999981
20
-71.434293920163427
10
89.318349999999981
20
-78.433943920163443
42
-0.41421356237309681
10
87.818349999999981
20
-79.933943920163458
10
73.819049999999976
20
-79.933943920163458
42
-0.41421356237309503
0
LWPOLYLINE
5
154
100
AcDbEntity
8
0
100
AcDbPolyline
90
8
70
1
43
0.0
10
5.644009999999966
20
-59.383943920163446
10
5.6440099999999749
20
-52.384293920163429
42
-0.41421356237309354
10
7.1440099999999704
20
-50.884293920163429
10
21.14354999999998
20
-50.884293920163429
42
-0.41421356237309503
10
22.64354999999998
20
-52.384293920163429
10
22.643549999999983
20
-59.383943920163446
42
-0.41421356237309503
10
21.14354999999998
20
-60.883943920163446
10
7.1440099999999696
20
-60.88394392016346
42
-0.41421356237309354
0
LWPOLYLINE
5
155
100
AcDbEntity
8
0
100
AcDbPolyline
90
8
70
1
43
0.0
10
86.606549999999984
20
-59.383943920163446
10
86.606549999999984
20
-52.384293920163429
42
-0.41421356237309503
10
88.106549999999984
20
-50.884293920163429
10
102.10584999999998
20
-50.884293920163429
42
-0.41421356237309503
10
103.60584999999999
20
-52.384293920163429
10
103.60584999999999
20
-59.383943920163446
42
-0.41421356237309503
10
102.10584999999998
20
-60.883943920163446
10
88.106549999999984
20
-60.883943920163446
42
-0.41421356237309503
0
LWPOLYLINE
5
156
100
AcDbEntity
8
0
100
AcDbPolyline
90
8
70
1
43
0.0
10
162.80685
20
-59.383943920163446
10
162.80685
20
-52.384293920163429
42
-0.41421356237309503
10
164.30684999999997
20
-50.884293920163429
10
178.30584999999999
20
-50.884293920163444
42
-0.41421356237309503
10
179.80584999999996
20
-52.384293920163429
10
179.80584999999996
20
-59.383943920163446
42
-0.41421356237309503
10
178.30584999999999
20
-60.883943920163446
10
164.30684999999997
20
-60.883943920163432
42
-0.41421356237309503
0
LWPOLYLINE
5
157
100
AcDbEntity
8
0
100
AcDbPolyline
90
8
70
1
43
0.0
10
239.00685000000004
20
-59.383943920163446
10
239.00684999999996
20
-52.384293920163429
42
-0.41421356237309503
10
240.50684999999999
20
-50.884293920163429
10
254.50585000000001
20
-50.884293920163444
42
-0.41421356237309503
10
256.00585000000001
20
-52.384293920163429
10
256.00585000000001
20
-59.383943920163446
42
-0.41421356237309503
10
254.50585000000001
20
-60.883943920163446
10
240.50684999999999
20
-60.883943920163397
42
-0.41421356237309503
0
LWPOLYLINE
5
158
100
AcDbEntity
8
0
100
AcDbPolyline
90
8
70
1
43
0.0
10
329.49385000000001
20
-59.383943920163446
10
329.49385000000001
20
-52.384293920163429
42
-0.41421356237309503
10
330.99384999999995
20
-50.884293920163429
10
344.99384999999995
20
-50.884293920163444
42
-0.41421356237309503
10
346.49384999999995
20
-52.384293920163429
10
346.49384999999995
20
-59.383943920163446
42
-0.41421356237309503
10
344.99384999999995
20
-60.883943920163446
10
330.99384999999995
20
-60.883943920163432
42
-0.41421356237309503
0
LWPOLYLINE
5
159
100
AcDbEntity
8
0
100
AcDbPolyline
90
8
70
1
43
0.0
10
262.81885
20
-59.383943920163446
10
262.81885
20
-52.384293920163429
42
-0.41421356237309503
10
264.31885
20
-50.884293920163429
10
278.31885
20
-50.884293920163444
42
-0.41421356237309503
10
279.81885
20
-52.384293920163429
10
279.81885
20
-59.383943920163446
42
-0.41421356237309503
10
278.31885
20
-60.883943920163446
10
264.31885
20
-60.883943920163432
42
-0.41421356237309503
0
LWPOLYLINE
5
160
100
AcDbEntity
8
0
100
AcDbPolyline
90
8
70
1
43
0.0
10
181.85685000000001
20
-59.383943920163446
10
181.85685000000001
20
-52.384293920163429
42
-0.41421356237309503
10
183.35684999999998
20
-50.884293920163429
10
197.35585
20
-50.884293920163444
42
-0.41421356237309503
10
198.85584999999998
20
-52.384293920163429
10
198.85584999999998
20
-59.383943920163446
42
-0.41421356237309503
10
197.35585
20
-60.883943920163446
10
183.35684999999998
20
-60.883943920163432
42
-0.41421356237309503
0
LWPOLYLINE
5
161
100
AcDbEntity
8
0
100
AcDbPolyline
90
8
70
1
43
0.0
10
105.65684999999995
20
-59.383943920163446
10
105.65684999999996
20
-52.384293920163429
42
-0.41421356237309503
10
107.15684999999996
20
-50.884293920163429
10
121.15584999999997
20
-50.884293920163429
42
-0.41421356237309503
10
122.65584999999999
20
-52.384293920163429
10
122.65584999999999
20
-59.383943920163446
42
-0.41421356237309503
10
121.15584999999997
20
-60.883943920163446
10
107.15684999999996
20
-60.883943920163468
42
-0.41421356237309503
0
LWPOLYLINE
5
162
100
AcDbEntity
8
0
100
AcDbPolyline
90
8
70
1
43
0.0
10
29.456549999999986
20
-59.383943920163446
10
29.456549999999979
20
-52.384293920163429
42
-0.41421356237309503
10
30.956549999999979
20
-50.884293920163429
10
44.955849999999984
20
-50.884293920163429
42
-0.41421356237309503
10
46.455849999999984
20
-52.384293920163429
10
46.455849999999984
20
-59.383943920163446
42
-0.41421356237309503
10
44.955849999999984
20
-60.883943920163446
10
30.956549999999979
20
-60.883943920163439
42
-0.41421356237309503
0
LWPOLYLINE
5
163
100
AcDbEntity
8
0
100
AcDbPolyline
90
8
70
1
43
0.0
10
53.269049999999972
20
-78.433943920163458
10
53.269049999999979
20
-71.434293920163427
42
-0.41421356237309503
10
54.769049999999986
20
-69.934293920163427
10
68.768349999999984
20
-69.934293920163412
42
-0.41421356237309503
10
70.268349999999998
20
-71.434293920163427
10
70.268349999999984
20
-78.433943920163443
42
-0.41421356237309681
10
68.768349999999984
20
-79.933943920163458
10
54.769049999999986
20
-79.933943920163472
42
-0.41421356237309503
0
LWPOLYLINE
5
164
100
AcDbEntity
8
0
100
AcDbPolyline
90
8
70
1
43
0.0
10
129.46884999999995
20
-78.433943920163458
10
129.46884999999997
20
-71.434293920163427
42
-0.41421356237309503
10
130.96884999999997
20
-69.934293920163427
10
144.96884999999997
20
-69.934293920163412
42
-0.41421356237309503
10
146.46884999999997
20
-71.434293920163427
10
146.46884999999997
20
-78.433943920163443
42
-0.41421356237309681
10
144.96884999999997
20
-79.933943920163458
10
130.96884999999997
20
-79.933943920163472
42
-0.41421356237309503
0
LWPOLYLINE
5
165
100
AcDbEntity
8
0
100
AcDbPolyline
90
8
70
1
43
0.0
10
205.66885000000008
20
-78.433943920163458
10
205.66884999999999
20
-71.434293920163427
42
-0.41421356237309503
10
207.16885000000002
20
-69.934293920163427
10
221.16884999999999
20
-69.934293920163441
42
-0.41421356237309503
10
222.66884999999999
20
-71.434293920163427
10
222.66885000000002
20
-78.433943920163443
42
-0.41421356237309681
10
221.16884999999999
20
-79.933943920163458
10
207.16885000000002
20
-79.933943920163401
42
-0.41421356237309503
0
LWPOLYLINE
5
166
100
AcDbEntity
8
0
100
AcDbPolyline
90
8
70
1
43
0.0
10
43.744049999999966
20
-97.484093920163431
10
43.744049999999973
20
-90.484393920163427
42
-0.41421356237309503
10
45.24404999999998
20
-88.984393920163427
10
59.243349999999985
20
-88.984393920163441
42
-0.41421356237309503
10
60.743349999999985
20
-90.484393920163456
10
60.743349999999978
20
-97.484093920163446
42
-0.41421356237309503
10
59.243349999999978
20
-98.98409392016346
10
45.24404999999998
20
-98.984093920163446
42
-0.41421356237309503
0
LWPOLYLINE
5
167
100
AcDbEntity
8
0
100
AcDbPolyline
90
8
70
1
43
0.0
10
177.09384999999997
20
-97.484093920163431
10
177.09384999999997
20
-90.484393920163427
42
-0.41421356237309503
10
178.59384999999997
20
-88.984393920163427
10
192.59384999999997
20
-88.984393920163456
42
-0.41421356237309503
10
194.09384999999997
20
-90.484393920163456
10
194.09384999999992
20
-97.484093920163446
42
-0.41421356237309503
10
192.59384999999995
20
-98.98409392016346
10
178.59384999999997
20
-98.984093920163417
42
-0.41421356237309503
0
LWPOLYLINE
5
168
100
AcDbEntity
8
0
100
AcDbPolyline
90
8
70
1
43
0.0
10
158.04384999999996
20
-97.484093920163431
10
158.04384999999999
20
-90.484393920163427
42
-0.41421356237309853
10
159.54385000000002
20
-88.984393920163427
10
173.54385000000002
20
-88.984393920163456
42
-0.41421356237309503
10
175.04384999999999
20
-90.484393920163456
10
175.04384999999999
20
-97.484093920163446
42
-0.41421356237309503
10
173.54385000000002
20
-98.98409392016346
10
159.54384999999999
20
-98.98409392016346
42
-0.41421356237309503
0
LWPOLYLINE
5
169
100
AcDbEntity
8
0
100
AcDbPolyline
90
8
70
1
43
0.0
10
100.89385
20
-97.484093920163431
10
100.89384999999999
20
-90.484393920163427
42
-0.41421356237309503
10
102.39384999999999
20
-88.984393920163427
10
116.39384999999999
20
-88.984393920163441
42
-0.41421356237309503
10
117.89384999999999
20
-90.484393920163456
10
117.89384999999999
20
-97.484093920163446
42
-0.41421356237309503
10
116.39384999999999
20
-98.98409392016346
10
102.39384999999999
20
-98.984093920163417
42
-0.41421356237309503
0
LWPOLYLINE
5
170
100
AcDbEntity
8
0
100
AcDbPolyline
90
8
70
1
43
0.0
10
62.794049999999977
20
-97.484093920163431
10
62.794049999999984
20
-90.484393920163427
42
-0.41421356237309503
10
64.294049999999999
20
-88.984393920163427
10
78.293349999999975
20
-88.984393920163441
42
-0.41421356237309503
10
79.793349999999975
20
-90.484393920163456
10
79.79334999999999
20
-97.484093920163446
42
-0.41421356237309503
10
78.29334999999999
20
-98.98409392016346
10
64.294049999999999
20
-98.984093920163446
42
-0.41421356237309503
0
LWPOLYLINE
5
171
100
AcDbEntity
8
0
100
AcDbPolyline
90
8
70
1
43
0.0
10
119.94384999999997
20
-97.484093920163431
10
119.94384999999996
20
-90.484393920163427
42
-0.41421356237309503
10
121.44384999999997
20
-88.984393920163427
10
135.44385
20
-88.984393920163441
42
-0.41421356237309503
10
136.94385
20
-90.484393920163456
10
136.94385000000003
20
-97.484093920163446
42
-0.41421356237309503
10
135.44385000000003
20
-98.98409392016346
10
121.44384999999998
20
-98.984093920163446
42
-0.41421356237309503
0
LWPOLYLINE
5
172
100
AcDbEntity
8
0
100
AcDbPolyline
90
8
70
1
43
0.0
10
196.14385000000004
20
-97.484093920163431
10
196.14384999999999
20
-90.484393920163427
42
-0.41421356237309503
10
197.64385000000001
20
-88.984393920163427
10
211.64384999999999
20
-88.984393920163456
42
-0.41421356237309503
10
213.14384999999999
20
-90.484393920163456
10
213.14385000000001
20
-97.484093920163446
42
-0.41421356237309503
10
211.64384999999999
20
-98.98409392016346
10
197.64385000000001
20
-98.984093920163389
42
-0.41421356237309503
0
LWPOLYLINE
5
173
100
AcDbEntity
8
0
100
AcDbPolyline
90
8
70
1
43
0.0
10
215.19385000000005
20
-97.484093920163431
10
215.19385
20
-90.484393920163427
42
-0.41421356237309503
10
216.69385000000003
20
-88.984393920163427
10
230.69385
20
-88.984393920163456
42
-0.41421356237309503
10
232.19385
20
-90.484393920163456
10
232.19385000000003
20
-97.484093920163446
42
-0.41421356237309503
10
230.69385
20
-98.98409392016346
10
216.69385000000003
20
-98.984093920163389
42
-0.41421356237309503
0
LWPOLYLINE
5
174
100
AcDbEntity
8
0
100
AcDbPolyline
90
8
70
1
43
0.0
10
310.44385
20
-97.484093920163431
10
310.44385000000005
20
-90.484393920163427
42
-0.41421356237309503
10
311.94385000000005
20
-88.984393920163427
10
325.94385
20
-88.984393920163456
42
-0.41421356237309503
10
327.44385
20
-90.484393920163456
10
327.44385
20
-97.484093920163446
42
-0.41421356237309503
10
325.94385
20
-98.98409392016346
10
311.94385
20
-98.98409392016346
42
-0.41421356237309503
0
LWPOLYLINE
5
175
100
AcDbEntity
8
0
100
AcDbPolyline
90
8
70
1
43
0.0
10
138.99384999999995
20
-97.484093920163431
10
138.99384999999998
20
-90.484393920163427
42
-0.41421356237309503
10
140.49384999999998
20
-88.984393920163427
10
154.49384999999998
20
-88.984393920163441
42
-0.41421356237309503
10
155.99384999999998
20
-90.484393920163456
10
155.99384999999998
20
-97.484093920163446
42
-0.41421356237309503
10
154.49384999999998
20
-98.98409392016346
10
140.49384999999998
20
-98.98409392016346
42
-0.41421356237309503
0
LWPOLYLINE
5
176
100
AcDbEntity
8
0
100
AcDbPolyline
90
8
70
1
43
0.0
10
81.844049999999982
20
-97.484093920163431
10
81.844049999999982
20
-90.484393920163427
42
-0.41421356237309503
10
83.344049999999982
20
-88.984393920163427
10
97.343349999999987
20
-88.984393920163441
42
-0.41421356237309503
10
98.843349999999987
20
-90.484393920163456
10
98.843349999999987
20
-97.484093920163446
42
-0.41421356237309503
10
97.343349999999987
20
-98.98409392016346
10
83.344049999999982
20
-98.984093920163446
42
-0.41421356237309503
0
LWPOLYLINE
5
177
100
AcDbEntity
8
0
100
AcDbPolyline
90
8
70
1
43
0.0
10
292.89384999999999
20
-31.834293920163411
10
306.89384999999999
20
-31.834293920163432
42
-0.41421356237309503
10
308.39384999999999
20
-33.334293920163418
10
308.39384999999999
20
-40.333943920163406
42
-0.41421356237309503
10
306.89384999999999
20
-41.833943920163406
10
292.89384999999999
20
-41.833943920163392
42
-0.41421356237309503
10
291.39384999999999
20
-40.333943920163406
10
291.39384999999999
20
-33.334293920163425
42
-0.41421356237309592
0
LWPOLYLINE
5
178
100
AcDbEntity
8
0
100
AcDbPolyline
90
8
70
1
43
0.0
10
308.39384999999999
20
-109.53429392016345
42
0.41421356237309503
10
306.89384999999999
20
-108.03429392016344
10
292.89384999999999
20
-108.03429392016342
42
0.41421356237309853
10
291.39384999999999
20
-109.53429392016345
10
291.39384999999999
20
-116.53402392016343
42
0.41421356237309503
10
292.89384999999999
20
-118.03402392016345
10
306.89384999999999
20
-118.03402392016345
42
0.41421356237309853
10
308.39384999999999
20
-116.53402392016343
0
LWPOLYLINE
5
179
100
AcDbEntity
8
0
100
AcDbPolyline
90
8
70
1
43
0.0
10
327.44385
20
-109.53429392016345
42
0.41421356237309503
10
325.94385
20
-108.03429392016344
10
311.94385000000005
20
-108.03429392016342
42
0.41421356237309853
10
310.44385
20
-109.53429392016345
10
310.44385
20
-116.53402392016343
42
0.41421356237309503
10
311.94385
20
-118.03402392016345
10
325.94385
20
-118.03402392016345
42
0.41421356237309853
10
327.44385
20
-116.53402392016343
0
LWPOLYLINE
5
180
100
AcDbEntity
8
0
100
AcDbPolyline
90
8
70
1
43
0.0
10
346.49384999999995
20
-109.53429392016345
42
0.41421356237309503
10
344.99384999999995
20
-108.03429392016344
10
330.99384999999995
20
-108.03429392016344
42
0.41421356237309853
10
329.49385000000001
20
-109.53429392016346
10
329.49385000000001
20
-116.53402392016345
42
0.41421356237309503
10
330.99384999999995
20
-118.03402392016345
10
344.99384999999995
20
-118.03402392016345
42
0.41421356237309853
10
346.49384999999995
20
-116.53402392016343
0
LWPOLYLINE
5
181
100
AcDbEntity
8
0
100
AcDbPolyline
90
8
70
1
43
0.0
10
14.287749999999981
20
-88.984393920163427
10
28.287249999999986
20
-88.984393920163441
42
-0.41421356237309503
10
29.787249999999986
20
-90.484393920163456
10
29.78724999999999
20
-97.484093920163446
42
-0.41421356237309503
10
28.287249999999986
20
-98.98409392016346
10
14.287749999999981
20
-98.984093920163446
42
-0.41421356237309592
10
12.787749999999976
20
-97.484093920163431
10
12.787749999999974
20
-90.484393920163427
42
-0.41421356237309592
0
LWPOLYLINE
5
182
100
AcDbEntity
8
0
100
AcDbPolyline
90
8
70
1
43
0.0
10
122.32385000000001
20
-116.53402392016338
10
122.32384999999999
20
-109.53429392016346
42
-0.41421356237309853
10
123.82384999999999
20
-108.03429392016344
10
149.82485
20
-108.03429392016344
42
-0.41421356237309503
10
151.32485
20
-109.53429392016345
10
151.32485
20
-116.53402392016335
42
-0.41421356237309853
10
149.82485
20
-118.03402392016338
10
123.82384999999999
20
-118.03402392016336
42
-0.41421356237309503
0
LWPOLYLINE
5
183
100
AcDbEntity
8
0
100
AcDbPolyline
90
8
70
1
43
0.0
10
250.55685000000005
20
-31.834293920163439
10
283.05585000000002
20
-31.834293920163464
42
-0.41421356237309681
10
284.55584999999996
20
-33.334293920163461
10
284.55584999999996
20
-40.333943920163442
42
-0.41421356237309503
10
283.05585000000002
20
-41.833943920163449
10
250.55685
20
-41.833943920163428
42
-0.41421356237309337
10
249.05685000000003
20
-40.333943920163449
10
249.05685000000003
20
-33.334293920163447
42
-0.41421356237309503
0
LWPOLYLINE
5
184
100
AcDbEntity
8
0
100
AcDbPolyline
90
8
70
1
43
0.0
10
173.83184999999997
20
-31.834293920163415
10
187.83085
20
-31.834293920163432
42
-0.41421356237309503
10
189.33085
20
-33.334293920163418
10
189.33085
20
-40.333943920163406
42
-0.41421356237309503
10
187.83085
20
-41.833943920163406
10
173.83184999999997
20
-41.833943920163392
42
-0.41421356237309503
10
172.33184999999997
20
-40.333943920163406
10
172.33184999999997
20
-33.334293920163425
42
-0.41421356237309592
0
LWPOLYLINE
5
185
100
AcDbEntity
8
0
100
AcDbPolyline
90
25
70
1
43
0.0
10
0.34193379169398275
20
-0.47489514456838439
42
0.41421356002019488
10
-1.1580661962560981
20
-1.9748951445683436
10
-1.1580661962571563
20
-121.73170114734491
42
0.41421356236518619
10
0.841933803688794
20
-123.73170114734494
10
347.32084781257748
20
-123.73170115670895
42
0.4142135623809895
10
348.82084781261801
20
-122.23170115670899
10
348.82084781261904
20
-1.9748923408556252
42
0.41421356237306961
10
347.32084880374373
20
-0.47489333198032113
10
227.47725000000017
20
-0.47489331992846379
10
188.14874999196678
20
-0.47489363586503797
42
0.41421356002017795
10
187.14875000000006
20
-1.4748936358650369
10
187.14875000000006
20
-5.0843939201633983
42
0.41421356237310608
10
188.14875000000006
20
-6.0843939201633788
10
197.35585
20
-6.0843939201634161
42
-0.4142135623730957
10
198.85584999999998
20
-7.5843939201634045
10
198.85584999999998
20
-14.583893920163401
42
-0.41421356237309503
10
197.35585
20
-16.083893920163405
10
188.14875000000006
20
-16.083893920163401
42
0.4142135623731048
10
187.14875000000004
20
-17.083893920163394
10
187.14875000000006
20
-27.386084648918576
42
-0.41421356237309503
10
185.14875000000006
20
-29.386084648918576
10
118.64875000000004
20
-29.386084648918583
42
-0.41421356237309503
10
116.64875000000004
20
-27.38608464891859
10
116.64875000000004
20
-1.4748942182773028
42
0.41421356472598375
10
115.64874999196677
20
-0.47489421827729611
0
ENDSEC
0
SECTION
2
OBJECTS
0
DICTIONARY
5
C
100
AcDbDictionary
3
ACAD_GROUP
350
D
3
ACAD_MLINESTYLE
350
17
0
DICTIONARY
5
D
100
AcDbDictionary
0
DICTIONARY
5
1A
330
C
100
AcDbDictionary
0
DICTIONARY
5
17
100
AcDbDictionary
0
ENDSEC
0
EOF
