0
SECTION
2
HEADER
9
$INSUNITS
70
4
9
$ACADVER
1
AC1014
9
$HANDSEED
5
FFFF
0
ENDSEC
0
SECTION
2
TABLES
0
TABLE
2
VPORT
5
8
100
AcDbSymbolTable
0
ENDTAB
0
TABLE
2
LTYPE
5
5
100
AcDbSymbolTable
0
LTYPE
5
14
100
AcDbSymbolTableRecord
100
AcDbLinetypeTableRecord
2
BYBLOCK
70
0
0
LTYPE
5
15
100
AcDbSymbolTableRecord
100
AcDbLinetypeTableRecord
2
BYLAYER
70
0
0
LTYPE
5
16
100
AcDbSymbolTableRecord
100
AcDbLinetypeTableRecord
2
DASHED
70
0
3
Dashed __ __ __ __ __ __ __ __ __ __ __ __ __ _
72
65
73
2
40
0.75
49
0.5
74
0
49
-0.25
74
0
0
ENDTAB
0
TABLE
2
LAYER
5
2
100
AcDbSymbolTable
70
2
0
LAYER
5
50
100
AcDbSymbolTableRecord
100
AcDbLayerTableRecord
2
0
70
0
62
7
6
CONTINUOUS
0
ENDTAB
0
TABLE
2
STYLE
5
3
100
AcDbSymbolTable
70
1
0
STYLE
5
11
100
AcDbSymbolTableRecord
100
AcDbTextStyleTableRecord
2
STANDARD
70
0
0
ENDTAB
0
TABLE
2
VIEW
5
6
100
AcDbSymbolTable
70
0
0
ENDTAB
0
TABLE
2
UCS
5
7
100
AcDbSymbolTable
70
0
0
ENDTAB
0
TABLE
2
APPID
5
9
100
AcDbSymbolTable
70
2
0
APPID
5
12
100
AcDbSymbolTableRecord
100
AcDbRegAppTableRecord
2
ACAD
70
0
0
ENDTAB
0
TABLE
2
DIMSTYLE
5
A
100
AcDbSymbolTable
70
1
0
ENDTAB
0
TABLE
2
BLOCK_RECORD
5
1
100
AcDbSymbolTable
70
1
0
BLOCK_RECORD
5
1F
100
AcDbSymbolTableRecord
100
AcDbBlockTableRecord
2
*MODEL_SPACE
0
BLOCK_RECORD
5
1B
100
AcDbSymbolTableRecord
100
AcDbBlockTableRecord
2
*PAPER_SPACE
0
ENDTAB
0
ENDSEC
0
SECTION
2
BLOCKS
0
BLOCK
5
20
100
AcDbEntity
100
AcDbBlockBegin
2
*MODEL_SPACE
0
ENDBLK
5
21
100
AcDbEntity
100
AcDbBlockEnd
0
BLOCK
5
1C
100
AcDbEntity
100
AcDbBlockBegin
2
*PAPER_SPACE
0
ENDBLK
5
1D
100
AcDbEntity
100
AcDbBlockEnd
0
ENDSEC
0
SECTION
2
ENTITIES
0
LWPOLYLINE
5
100
100
AcDbEntity
8
0
100
AcDbPolyline
90
82
70
1
43
0.0
10
77.788231416835544
20
-107.28399629779165
10
88.582331416835416
20
-107.28399449655194
42
-0.41421356237310025
10
89.582331583708026
20
-108.2839943296793
10
89.582334328428828
20
-124.73199432967905
42
0.41421356237310025
10
90.582334495301424
20
-125.73199416280644
10
175.78833449530021
20
-125.7319799442582
42
0.41421356237310542
10
176.7883343284276
20
-124.73197977738559
10
176.78833158370682
20
-108.28397977738587
42
-0.41421356237309503
10
177.78833141683418
20
-107.28397961051326
10
183.78833042883412
20
-107.28397860925618
42
-0.41421355882029665
10
184.78833158369804
20
-108.28397744230493
10
184.78833405308768
20
-123.08197844240469
42
0.41421356237310025
10
185.78833421996029
20
-124.08197827553207
10
194.21433421996022
20
-124.0819768694634
42
0.4142135623789534
10
195.21433405308656
20
-123.08197670259077
10
195.21433158370655
20
-108.28397670259102
42
-0.41421356237309503
10
196.21433141683389
20
-107.28397653571841
10
202.76333141683384
20
-107.28397544286963
42
-0.41421356237308982
10
203.76333158370645
20
-108.28397527599699
10
203.76333162542463
20
-108.53397527599698
42
0.41421356237310025
10
204.76333179229724
20
-109.53397510912436
10
208.76333179229715
20
-109.53397444163387
42
-0.4142135623730846
10
209.26333187573348
20
-110.03397435819757
10
209.2633340450775
20
-123.03397435819741
42
-0.4142135623730846
10
208.7633341285138
20
-123.53397444163369
10
204.26333412851386
20
-123.53397519256046
42
0.41421356237309503
10
203.76333421195014
20
-124.03397527599677
10
203.76333441186358
20
-125.23197527599677
42
0.41421356237307422
10
204.26333449529983
20
-125.73197519256043
10
211.6243339523898
20
-125.73197424680737
42
-0.26935266419239312
10
212.49296557950171
20
-126.23651481925589
10
214.87433127643158
20
-130.41298042187572
42
0.5116273015140036
10
219.53434095738362
20
-130.41297731437109
10
221.9167030650529
20
-126.23651357827333
42
-0.26935266420410792
10
222.78533449529959
20
-125.73197210166286
10
298.36933395229823
20
-125.73141877144218
42
-0.26935266419240872
10
299.23796557941023
20
-126.23595934389066
10
301.61933127642038
20
-130.41296594641051
42
0.51162735241166091
10
306.27933527640295
20
-130.41295816887171
10
308.66170306505171
20
-126.23649910290817
42
-0.26935266420411252
10
309.5303344952984
20
-125.73195762629767
10
345.32233449529792
20
-125.73195165367592
42
0.41421356237310542
10
347.3223341615527
20
-123.7319513199307
10
347.32231384362501
20
-1.9748413199324588
42
0.41421356237310153
10
345.32231350987979
20
0.025158346322294856
10
309.53031355732043
20
0.025151787621594812
42
-0.26935266418138321
10
308.6616814256875
20
0.52969322866734636
10
306.27931872874916
20
4.7061548311156374
42
0.51162783703384362
10
301.61931272875631
20
4.7061510534934587
10
299.23794580871584
20
0.52969149225355139
42
-0.26935266418361198
10
298.36931350988067
20
0.025149511159296145
10
222.7853135098822
20
0.025133898260134152
42
-0.26918240125332799
10
221.91731325055358
20
0.5296769620402304
10
219.53431272875082
20
4.7061373557494504
42
0.51162771872386847
10
214.87431272875762
20
4.7061365781354247
10
212.49294580871702
20
0.52967701688838242
42
-0.26935266418361675
10
211.62431350988183
20
0.025135035794111721
10
136.04131355732281
20
0.025122837058927511
42
-0.26918320848699445
10
135.17331325220889
20
0.52966417927874931
10
132.79031872875152
20
4.7061258805521389
42
0.5116273015130105
10
128.13031021300964
20
4.7061299324851618
10
125.74794580871826
20
0.52966254152320591
42
-0.26935266418361925
10
124.87931350988305
20
0.025120560428927158
10
49.296413557327021
20
0.025108361709599014
42
-0.2693526641819291
10
48.427781425692594
20
0.52964980275623896
10
46.045618728752743
20
4.7061114052370154
42
0.51162730151256253
10
41.385610213018495
20
4.7061154571695649
10
39.003445808722226
20
0.52964806624101501
42
-0.26935266418429088
10
38.134813509884246
20
0.025106085147175994
10
2.1792435098852359
20
0.025097085140110553
42
0.41421312303311547
10
0.17924484363207926
20
-1.9748992486049337
10
0.17926916155745098
20
-123.73200924860255
42
0.41421356237309731
10
2.1792644953018292
20
-125.73200391485813
10
38.134833952400214
20
-125.73200319745428
42
-0.26935266419133153
10
39.003465579510163
20
-126.23654376989934
10
41.385631276434012
20
-130.41300937238915
42
0.51162730151438462
10
46.045640957389381
20
-130.41300626488268
10
48.427803065060601
20
-126.23654252882318
42
-0.26935266420316339
10
49.296434495302009
20
-125.7320010522097
10
75.788234495301637
20
-125.73199663153665
42
0.41421356237309503
10
76.788234328429013
20
-124.73199646466405
10
76.788231583708182
20
-108.28399646466426
42
-0.41421356237308982
0
CIRCLE
5
101
100
AcDbEntity
8
0
100
AcDbCircle
10
43.715634995919942
20
-128.73200198357532
30
-1.429412144204889e-13
40
1.0999999999999999
210
9.7026434161739132e-25
220
-1.0963452368173575e-15
230
1
0
LWPOLYLINE
5
102
100
AcDbEntity
8
0
100
AcDbPolyline
90
8
70
1
43
0.0
10
20.645134128349522
20
-123.5330058334101
42
0.41421356237310025
10
21.14513404491321
20
-123.0330057499738
10
21.145131875736052
20
-110.03400574997397
42
0.41421356237308982
10
20.64513179229975
20
-109.53400583341029
10
5.2640917922999648
20
-109.53400840008469
42
0.41421356237309892
10
4.7640918757362805
20
-110.03400848352099
10
4.7640940449134304
20
-123.0330084835208
42
0.41421356237309243
10
5.2640941283497344
20
-123.53300840008447
0
CIRCLE
5
103
100
AcDbEntity
8
0
100
AcDbCircle
10
24.87043296040801
20
-116.53400512832332
30
-1.2739809207573671e-13
40
1.0999999999999999
210
9.7026434161739132e-25
220
-1.0963452368173575e-15
230
1
0
LWPOLYLINE
5
104
100
AcDbEntity
8
0
100
AcDbPolyline
90
8
70
1
43
0.0
10
29.075231792299633
20
-109.53400442665745
42
0.41421356237310025
10
28.575231875735945
20
-110.03400451009375
10
28.575234044913103
20
-123.03300451009356
42
0.41421356237308982
10
29.075234128349404
20
-123.53300442665721
10
44.457634128349184
20
-123.53300185975587
42
0.41421356237310025
10
44.957634044912865
20
-123.03300177631957
10
44.957631875735714
20
-110.03400177631977
42
0.41421356237309503
10
44.457631792299409
20
-109.53400185975609
0
LWPOLYLINE
5
105
100
AcDbEntity
8
0
100
AcDbPolyline
90
8
70
1
43
0.0
10
68.770131875735387
20
-110.03399780266555
42
0.4142135623730846
10
68.270131792299097
20
-109.53399788610187
10
52.889231792299299
20
-109.53400045275293
42
0.41421356237308982
10
52.389231875735618
20
-110.03400053618921
10
52.389234044912754
20
-123.03300053618905
42
0.41421356237309503
10
52.889234128349059
20
-123.53300045275273
10
68.270134128348843
20
-123.5329978861017
42
0.41421356237310025
10
68.770134044912538
20
-123.03299780266539
0
LWPOLYLINE
5
106
100
AcDbEntity
8
0
100
AcDbPolyline
90
32
70
1
43
0.0
10
36.563631450377535
20
-107.48500317704854
42
0.41421356237310025
10
37.063631366941223
20
-106.98500309361224
10
37.063631032862268
20
-104.98300309361228
42
-0.41421356237309503
10
37.563630949425921
20
-104.48300301017599
10
40.12713094942589
20
-104.48300258230502
42
0.41421354379955849
10
40.627130865989578
20
-103.98300253056175
10
40.627128696695607
20
-90.983302498861917
42
0.41421358118093599
10
40.127128581159312
20
-90.483302582398224
10
37.56362861325934
20
-90.483303010176172
42
-0.41421356237308721
10
37.063628529823049
20
-89.983303093612506
10
37.063628196261369
20
-87.984403093612528
42
0.41421356237308982
10
36.563628112825072
20
-87.484403177048847
10
30.064128112825163
20
-87.484404261637422
42
0.41421356237308982
10
29.564128196261471
20
-87.984404345073713
10
29.564128530006716
20
-89.984404345073656
42
-0.41421356237310025
10
29.064128613443017
20
-90.484404428510004
10
13.513628613443229
20
-90.484407023462623
42
-0.41421356237308721
10
13.013628530006937
20
-89.984407106898942
10
13.013628196261697
20
-87.984407106898956
42
0.41421356237308982
10
12.513628112825398
20
-87.484407190335304
10
6.0139781128254928
20
-87.484408274948905
42
0.41421356237308854
10
5.5139781962618084
20
-87.984408358385195
10
5.51397852982348
20
-89.983308358385145
42
-0.41421356237310025
10
5.0139786132597974
20
-90.483308441821464
10
4.7510886132597934
20
-90.483308485690628
42
0.41421356237309925
10
4.2510886966961126
20
-90.983308569126933
10
4.2510908659900757
20
-103.98300856912675
42
0.41421356237308982
10
4.7510909494263753
20
-104.48300848569045
10
5.0139809494263821
20
-104.48300844182127
42
-0.41421356237310802
10
5.5139810328626782
20
-104.98300835838498
10
5.5139813669416613
20
-106.98500835838493
42
0.41421356237308982
10
6.0139814503779609
20
-107.48500827494863
0
LWPOLYLINE
5
107
100
AcDbEntity
8
0
100
AcDbPolyline
90
8
70
1
43
0.0
10
59.244728696878909
20
-90.984399392194263
42
0.4142135623730846
10
58.744728613442625
20
-90.484399475630596
10
45.745428613442797
20
-90.484401644857797
42
0.41421356237310025
10
45.245428696879117
20
-90.984401728294102
10
45.245430866156383
20
-103.98400172829396
42
0.41421356237309503
10
45.745430949592688
20
-104.48400164485763
10
58.744730949592501
20
-104.48399947563041
42
0.41421356237310025
10
59.244730866156189
20
-103.98399939219411
0
LWPOLYLINE
5
108
100
AcDbEntity
8
0
100
AcDbPolyline
90
8
70
1
43
0.0
10
64.295430866156124
20
-103.9839985493706
42
0.4142135623730846
10
64.795430949592415
20
-104.48399846593426
10
77.794730949592235
20
-104.48399629670705
42
0.41421356237308982
10
78.29473086615593
20
-103.98399621327076
10
78.294728696878636
20
-90.984396213270898
42
0.41421356237309503
10
77.794728613442331
20
-90.484396296707231
10
64.795428613442539
20
-90.484398465934447
42
0.41421356237308982
10
64.295428696878844
20
-90.984398549370724
0
LWPOLYLINE
5
109
100
AcDbEntity
8
0
100
AcDbPolyline
90
8
70
1
43
0.0
10
124.3253317922983
20
-109.53398853202395
42
0.41421356237309503
10
123.82533187573463
20
-110.03398861546026
10
123.82533404507865
20
-123.03398861546009
42
0.41421356237309503
10
124.32533412851495
20
-123.53398853202376
10
149.23233412851465
20
-123.53398437572748
42
0.41421356237309503
10
149.73233404507829
20
-123.03398429229118
10
149.7323318757343
20
-110.03398429229135
42
0.4142135623730846
10
149.232331792298
20
-109.5339843757277
0
CIRCLE
5
110
100
AcDbEntity
8
0
100
AcDbCircle
10
171.45033271643823
20
-115.0719806681518
30
-1.2628786905111156e-13
40
1.0999999999999999
210
9.7026434161739132e-25
220
-1.0963452368173575e-15
230
1
0
LWPOLYLINE
5
111
100
AcDbEntity
8
0
100
AcDbPolyline
90
8
70
1
43
0.0
10
97.344728696878377
20
-90.984393034347534
42
0.41421356237309503
10
96.844728613442072
20
-90.484393117783867
10
83.84542861344228
20
-90.484395287011083
42
0.41421356237309503
10
83.345428696878585
20
-90.984395370447388
10
83.34543086615588
20
-103.98399537044723
42
0.4142135623730846
10
83.845430949592156
20
-104.4839952870109
10
96.844730949591991
20
-104.48399311778371
42
0.41421356237309503
10
97.344730866155658
20
-103.98399303434741
0
LWPOLYLINE
5
112
100
AcDbEntity
8
0
100
AcDbPolyline
90
8
70
1
43
0.0
10
115.89533094959171
20
-104.48398993876019
42
0.41421356237309503
10
116.39533086615538
20
-103.98398985532388
10
116.39532869687811
20
-90.984389855324054
42
0.41421356237309503
10
115.89532861344181
20
-90.484389938760387
10
102.89532861344199
20
-90.484392108104416
42
0.4142135623730846
10
102.39532869687829
20
-90.984392191540707
10
102.39533086615559
20
-103.98399219154057
42
0.4142135623730846
10
102.89533094959188
20
-104.48399210810423
0
LWPOLYLINE
5
113
100
AcDbEntity
8
0
100
AcDbPolyline
90
8
70
1
43
0.0
10
121.44533086615533
20
-103.98398901261722
42
0.41421356237309503
10
121.94533094959164
20
-104.4839889291809
10
134.94533094959144
20
-104.48398675983684
42
0.4142135623730846
10
135.44533086615513
20
-103.98398667640055
10
135.44532869687782
20
-90.984386676400689
42
0.4142135623730846
10
134.94532861344155
20
-90.484386759837022
10
121.94532861344173
20
-90.484388929181051
42
0.41421356237309503
10
121.44532869687805
20
-90.984389012617356
0
LWPOLYLINE
5
114
100
AcDbEntity
8
0
100
AcDbPolyline
90
8
70
1
43
0.0
10
154.49532869687761
20
-90.984383497477324
42
0.41421356237309503
10
153.9953286134413
20
-90.484383580913658
10
140.99532861344147
20
-90.484385750257687
42
0.4142135623730846
10
140.49532869687781
20
-90.984385833693977
10
140.49533086615506
20
-103.98398583369384
42
0.4142135623730846
10
140.99533094959133
20
-104.4839857502575
10
153.99533094959119
20
-104.4839835809135
42
0.41421356237309503
10
154.49533086615489
20
-103.9839834974772
0
LWPOLYLINE
5
115
100
AcDbEntity
8
0
100
AcDbPolyline
90
8
70
1
43
0.0
10
160.04532861344126
20
-90.484382571334336
42
0.41421356237309503
10
159.54532869687756
20
-90.984382654770627
10
159.54533086615481
20
-103.98398265477049
42
0.4142135623730846
10
160.04533094959112
20
-104.48398257133414
10
173.04533094959095
20
-104.48398040199012
42
0.41421356237310542
10
173.54533086615459
20
-103.98398031855382
10
173.54532869687739
20
-90.984380318553974
42
0.4142135623730846
10
173.04532861344109
20
-90.484380401990293
0
LWPOLYLINE
5
116
100
AcDbEntity
8
0
100
AcDbPolyline
90
8
70
1
43
0.0
10
23.526125517939363
20
-71.934305352650796
42
0.41421356237309764
10
23.026125434503058
20
-71.434305436087115
10
5.2638454345033043
20
-71.434308400125289
42
0.4142135623730937
10
4.7638455179396155
20
-71.93430848356158
10
4.7638476871167743
20
-84.933308483561433
42
0.41421356237308982
10
5.263847770553074
20
-85.433308400125085
10
23.026127770552826
20
-85.433305436086926
42
0.41421356237310025
10
23.526127687116517
20
-84.933305352650621
0
LWPOLYLINE
5
117
100
AcDbEntity
8
0
100
AcDbPolyline
90
8
70
1
43
0.0
10
36.220425434502886
20
-71.434303234319728
42
0.41421356237309503
10
35.720425517939198
20
-71.934303317756033
10
35.720427687166413
20
-84.933603317755882
42
0.41421356237308982
10
36.220427770602711
20
-85.433603234319548
10
49.219727770602539
20
-85.433601065092347
42
0.41421356237310025
10
49.71972768716622
20
-84.933600981656042
10
49.719725517939004
20
-71.934300981656207
42
0.41421356237310025
10
49.219725434502699
20
-71.434301065092527
0
LWPOLYLINE
5
118
100
AcDbEntity
8
0
100
AcDbPolyline
90
8
70
1
43
0.0
10
68.769725517938724
20
-71.934297802732843
42
0.41421356237309503
10
68.269725434502433
20
-71.434297886169162
10
55.270425434502613
20
-71.434300055396363
42
0.41421356237310025
10
54.770425517938932
20
-71.934300138832668
10
54.770427687166134
20
-84.933600138832503
42
0.41421356237309503
10
55.270427770602438
20
-85.433600055396184
10
68.269727770602245
20
-85.433597886168982
42
0.41421356237308982
10
68.769727687165954
20
-84.933597802732692
0
LWPOLYLINE
5
119
100
AcDbEntity
8
0
100
AcDbPolyline
90
8
70
1
43
0.0
10
87.81972551793848
20
-71.934294623809492
42
0.41421356237310025
10
87.319725434502175
20
-71.434294707245812
10
74.320425434502354
20
-71.434296876473013
42
0.41421356237310025
10
73.820425517938673
20
-71.934296959909318
10
73.820427687165875
20
-84.933596959909167
42
0.41421356237309503
10
74.32042777060218
20
-85.433596876472834
10
87.319727770602
20
-85.433594707245618
42
0.4142135623730846
10
87.819727687165695
20
-84.933594623809341
0
LWPOLYLINE
5
120
100
AcDbEntity
8
0
100
AcDbPolyline
90
8
70
1
43
0.0
10
106.87032551793821
20
-71.934291444786012
42
0.41421356237310025
10
106.37032543450191
20
-71.434291528222332
10
93.370425434502081
20
-71.434293697549663
42
0.41421356237310542
10
92.870425517938401
20
-71.934293780985982
10
92.870427687165602
20
-84.933593780985802
42
0.41421356237309503
10
93.370427770601907
20
-85.433593697549469
10
106.37032777060173
20
-85.433591528222166
42
0.41421356237309503
10
106.87032768716543
20
-84.933591444785861
0
LWPOLYLINE
5
121
100
AcDbEntity
8
0
100
AcDbPolyline
90
8
70
1
43
0.0
10
125.42032777060145
20
-85.433588349298788
42
0.41421356237309503
10
125.92032768716513
20
-84.933588265862483
10
125.92032551793793
20
-71.934288265862648
42
0.41421356237310025
10
125.42032543450162
20
-71.434288349298981
10
112.42032543450181
20
-71.434290518642996
42
0.41421356237308982
10
111.92032551793814
20
-71.934290602079301
10
111.92032768716533
20
-84.93359060207915
42
0.41421356237309503
10
112.42032777060163
20
-85.433590518642802
0
LWPOLYLINE
5
122
100
AcDbEntity
8
0
100
AcDbPolyline
90
8
70
1
43
0.0
10
144.47032777060122
20
-85.433585170375437
42
0.41421356237309503
10
144.97032768716488
20
-84.933585086939132
10
144.97032551793768
20
-71.934285086939298
42
0.41421356237308982
10
144.47032543450138
20
-71.434285170375617
10
131.47032543450158
20
-71.434287339719631
42
0.41421356237308982
10
130.97032551793788
20
-71.934287423155922
10
130.97032768716508
20
-84.933587423155799
42
0.41421356237309503
10
131.47032777060139
20
-85.433587339719452
0
LWPOLYLINE
5
123
100
AcDbEntity
8
0
100
AcDbPolyline
90
8
70
1
43
0.0
10
164.02032551793738
20
-71.934281908015933
42
0.41421356237308982
10
163.52032543450107
20
-71.434281991452252
10
150.52032543450127
20
-71.434284160796281
42
0.41421356237308982
10
150.02032551793761
20
-71.934284244232586
10
150.02032768716481
20
-84.933584244232421
42
0.41421356237310542
10
150.52032777060111
20
-85.433584160796102
10
163.52032777060089
20
-85.433581991452058
42
0.41421356237309503
10
164.02032768716458
20
-84.933581908015782
0
CIRCLE
5
124
100
AcDbEntity
8
0
100
AcDbCircle
10
217.20433499591752
20
-128.73197303306188
30
-1.4072076837123859e-13
40
1.0999999999999999
210
9.7026434161739132e-25
220
-1.0963452368173575e-15
230
1
0
LWPOLYLINE
5
125
100
AcDbEntity
8
0
100
AcDbPolyline
90
8
70
1
43
0.0
10
233.07633187573313
20
-110.03397038445993
42
0.4142135623730846
10
232.57633179229683
20
-109.53397046789625
10
217.19533179229703
20
-109.53397303456399
42
0.41421356237309503
10
216.69533187573333
20
-110.03397311800028
10
216.69533404491048
20
-123.03297311800011
42
0.4142135623730846
10
217.19533412834679
20
-123.53297303456378
10
232.57633412834656
20
-123.53297046789605
42
0.41421356237309503
10
233.07633404491028
20
-123.03297038445976
0
LWPOLYLINE
5
126
100
AcDbEntity
8
0
100
AcDbPolyline
90
8
70
1
43
0.0
10
241.00733179229672
20
-109.53396906099323
42
0.41421356237309503
10
240.507331875733
20
-110.03396914442952
10
240.50733404491015
20
-123.03296914442936
42
0.4142135623730846
10
241.00733412834646
20
-123.53296906099303
10
256.38833412834623
20
-123.53296649432529
42
0.41421356237309503
10
256.88833404490998
20
-123.032966410889
10
256.88833187573277
20
-110.03396641088918
42
0.4142135623730846
10
256.38833179229653
20
-109.5339664943255
0
LWPOLYLINE
5
127
100
AcDbEntity
8
0
100
AcDbPolyline
90
8
70
1
43
0.0
10
192.09533094959068
20
-104.48397722306677
42
0.41421356237309503
10
192.59533086615437
20
-103.98397713963048
10
192.59532869687712
20
-90.984377139630624
42
0.4142135623730846
10
192.09532861344081
20
-90.484377223066943
10
179.09532861344098
20
-90.484379392410972
42
0.41421356237309503
10
178.59532869687726
20
-90.984379475847263
10
178.59533086615454
20
-103.98397947584712
42
0.4142135623730846
10
179.09533094959085
20
-104.48397939241079
0
LWPOLYLINE
5
128
100
AcDbEntity
8
0
100
AcDbPolyline
90
8
70
1
43
0.0
10
211.1453309495904
20
-104.48397404414339
42
0.41421356237309503
10
211.6453308661541
20
-103.98397396070712
10
211.64532869687685
20
-90.984373960707245
42
0.4142135623730846
10
211.14532861344054
20
-90.484374044143593
10
198.14532861344071
20
-90.484376213487607
42
0.41421356237310542
10
197.64532869687699
20
-90.984376296923912
10
197.64533086615427
20
-103.98397629692376
42
0.4142135623730846
10
198.14533094959057
20
-104.48397621348745
0
LWPOLYLINE
5
129
100
AcDbEntity
8
0
100
AcDbPolyline
90
8
70
1
43
0.0
10
216.69533086615399
20
-103.98397311800041
42
0.4142135623730846
10
217.1953309495903
20
-104.48397303456409
10
230.19533094959016
20
-104.48397086522006
42
0.41421356237310542
10
230.69533086615382
20
-103.98397078178375
10
230.6953286968766
20
-90.984370781783909
42
0.4142135623730846
10
230.1953286134403
20
-90.484370865220228
10
217.19532861344044
20
-90.484373034564243
42
0.41421356237310542
10
216.69532869687671
20
-90.984373118000548
0
LWPOLYLINE
5
130
100
AcDbEntity
8
0
100
AcDbPolyline
90
8
70
1
43
0.0
10
264.32033404490988
20
-123.03296517069171
42
0.4142135623730846
10
264.82033412834619
20
-123.53296508725538
10
280.20133412834593
20
-123.53296252058766
42
0.41421356237310542
10
280.70133404490957
20
-123.03296243715135
10
280.70133187573248
20
-110.03396243715153
42
0.4142135623730846
10
280.20133179229617
20
-109.53396252058786
10
264.82033179229643
20
-109.53396508725559
42
0.41421356237309503
10
264.32033187573273
20
-110.03396517069189
0
LWPOLYLINE
5
131
100
AcDbEntity
8
0
100
AcDbPolyline
90
8
70
1
43
0.0
10
306.39533412851245
20
-123.53395814952633
42
0.41421356237309503
10
306.89533404507614
20
-123.03395806609004
10
306.8953318757321
20
-110.03395806609019
42
0.41421356237306384
10
306.39533179229585
20
-109.53395814952651
10
293.39533179229596
20
-109.53396031887056
42
0.4142135623730846
10
292.89533187573221
20
-110.03396040230683
10
292.89533404507631
20
-123.03396040230668
42
0.41421356237310542
10
293.39533412851262
20
-123.53396031887036
0
CIRCLE
5
132
100
AcDbEntity
8
0
100
AcDbCircle
10
303.94933499591627
20
-128.73195855769669
30
-1.429412144204889e-13
40
1.0999999999999999
210
9.7026434161739132e-25
220
-1.0963452368173575e-15
230
1
0
LWPOLYLINE
5
133
100
AcDbEntity
8
0
100
AcDbPolyline
90
8
70
1
43
0.0
10
325.44533412851223
20
-123.53395497060296
42
0.41421356237309503
10
325.94533404507587
20
-123.03395488716663
10
325.94533187573182
20
-110.03395488716683
42
0.41421356237306384
10
325.44533179229563
20
-109.53395497060316
10
312.44533179229575
20
-109.53395713994718
42
0.41421356237310542
10
311.94533187573205
20
-110.03395722338348
10
311.94533404507609
20
-123.03395722338331
42
0.41421356237310542
10
312.44533412851246
20
-123.53395713994698
0
LWPOLYLINE
5
134
100
AcDbEntity
8
0
100
AcDbPolyline
90
8
70
1
43
0.0
10
344.99533187573149
20
-110.03395170824348
42
0.41421356237310542
10
344.49533179229519
20
-109.53395179167981
10
331.49533179229542
20
-109.53395396102383
42
0.41421356237306384
10
330.99533187573172
20
-110.0339540444601
10
330.99533404507582
20
-123.03395404445995
42
0.41421356237310542
10
331.49533412851213
20
-123.53395396102363
10
344.4953341285119
20
-123.53395179167961
42
0.4142135623730846
10
344.99533404507559
20
-123.03395170824331
0
LWPOLYLINE
5
135
100
AcDbEntity
8
0
100
AcDbPolyline
90
30
70
1
43
0.0
10
275.18832836313072
20
-88.984363357120571
42
0.4142135623730846
10
274.68832827969442
20
-88.484363440556905
10
268.18932827969445
20
-88.484364525062063
42
0.4142135623730846
10
267.68932836313081
20
-88.984364608498339
10
267.68932853000342
20
-89.984364608498339
42
-0.41421356237307422
10
267.18932861343978
20
-90.48436469193463
10
251.63932861343994
20
-90.48436728680386
42
-0.4142135623730846
10
251.13932853000361
20
-89.984367370240165
10
251.13932836313103
20
-88.98436737024015
42
0.41421356237310542
10
250.63932827969469
20
-88.484367453676469
10
244.13932827969484
20
-88.484368538348491
42
0.41421356237311585
10
243.63932836313111
20
-88.984368621784824
10
243.63932753991546
20
-89.995669317484925
42
-0.37086441618346594
10
243.2141636143854
20
-90.490035692730686
42
0.37086441620107458
10
242.78899955053225
20
-90.984403906981413
10
242.78933086614569
20
-103.98396876362632
42
0.37086441619977872
10
243.21449511226172
20
-104.47833656940145
42
-0.37086441618566807
10
243.63965935834656
20
-104.97270437522977
10
243.63933136693834
20
-106.98496862178453
42
0.4142135623730846
10
244.13933145037464
20
-107.48496853834821
10
274.68833145037428
20
-107.48496344055661
42
0.41421356237309503
10
275.18833136693797
20
-106.98496335712034
10
275.1883310330258
20
-104.98396335712037
42
-0.41421356237309503
10
275.6883309495895
20
-104.48396327368407
10
282.58233094958945
20
-104.48396212325326
42
0.41421356237893259
10
283.08233086615314
20
-103.98396203982796
10
283.08232869686668
20
-90.984361039828116
42
0.41421355884665934
10
282.58232761943952
20
-90.484362123264617
10
275.68832861343964
20
-90.484363273684238
42
-0.4142135623730846
10
275.18832853000333
20
-89.984363357120586
0
LWPOLYLINE
5
136
100
AcDbEntity
8
0
100
AcDbPolyline
90
8
70
1
43
0.0
10
325.44533094958888
20
-104.48395497060325
42
0.41421356237309503
10
325.94533086615252
20
-103.98395488716693
10
325.94532869687526
20
-90.9843548871671
42
0.41421356237310542
10
325.44532861343896
20
-90.48435497060342
10
312.44532861343919
20
-90.484357139947463
42
0.41421356237310542
10
311.94532869687544
20
-90.984357223383768
10
311.94533086615274
20
-103.98395722338363
42
0.41421356237310542
10
312.44533094958905
20
-104.48395713994728
0
CIRCLE
5
137
100
AcDbEntity
8
0
100
AcDbCircle
10
337.99632978136356
20
-97.483252876185105
30
-1.074140776324839e-13
40
1.0999999999999999
210
9.7026434161739132e-25
220
-1.0963452368173575e-15
230
1
0
LWPOLYLINE
5
138
100
AcDbEntity
8
0
100
AcDbPolyline
90
8
70
1
43
0.0
10
169.07032768716454
20
-84.93358106530907
42
0.4142135623730846
10
169.57032777060084
20
-85.433580981872751
10
182.57032777060067
20
-85.433578812528722
42
0.41421356237309503
10
183.07032768716437
20
-84.933578729092432
10
183.07032551793719
20
-71.934278729092568
42
0.41421356237308982
10
182.57032543450089
20
-71.434278812528888
10
169.57032543450106
20
-71.434280981872917
42
0.41421356237310025
10
169.07032551793733
20
-71.934281065309222
0
LWPOLYLINE
5
139
100
AcDbEntity
8
0
100
AcDbPolyline
90
8
70
1
43
0.0
10
201.6203277706004
20
-85.433575633605358
42
0.41421356237309503
10
202.12032768716412
20
-84.933575550169067
10
202.12032551793692
20
-71.934275550169218
42
0.41421356237308982
10
201.62032543450061
20
-71.434275633605537
10
188.62032543450078
20
-71.434277802949566
42
0.41421356237309503
10
188.12032551793709
20
-71.934277886385857
10
188.12032768716426
20
-84.933577886385706
42
0.41421356237310542
10
188.62032777060062
20
-85.433577802949387
0
LWPOLYLINE
5
140
100
AcDbEntity
8
0
100
AcDbPolyline
90
8
70
1
43
0.0
10
220.67032777060012
20
-85.433572454681993
42
0.41421356237309503
10
221.17032768716385
20
-84.933572371245702
10
221.17032551793665
20
-71.934272371245854
42
0.41421356237308982
10
220.67032543450034
20
-71.434272454682187
10
207.67032543450051
20
-71.434274624026202
42
0.41421356237310542
10
207.17032551793679
20
-71.934274707462507
10
207.17032768716399
20
-84.933574707462341
42
0.41421356237310542
10
207.67032777060035
20
-85.433574624026022
0
LWPOLYLINE
5
141
100
AcDbEntity
8
0
100
AcDbPolyline
90
8
70
1
43
0.0
10
226.72032543450027
20
-71.434271445102837
42
0.41421356237309503
10
226.22032551793654
20
-71.934271528539128
10
226.22032768716377
20
-84.933571528538977
42
0.41421356237310542
10
226.72032777060011
20
-85.433571445102658
10
239.72032777059985
20
-85.433569275758643
42
0.41421356237310542
10
240.22032768716358
20
-84.933569192322338
10
240.22032551793637
20
-71.934269192322503
42
0.41421356237308982
10
239.72032543450007
20
-71.434269275758822
0
CIRCLE
5
142
100
AcDbEntity
8
0
100
AcDbCircle
10
296.99632593354852
20
-74.424859717962718
30
-8.1878948066105295e-14
40
1.0999999999999999
210
9.7026434161739132e-25
220
-1.0963452368173575e-15
230
1
0
LWPOLYLINE
5
143
100
AcDbEntity
8
0
100
AcDbPolyline
90
48
70
1
43
0.0
10
283.95132233885522
20
-52.883361894806377
42
0.41421358117682056
10
283.45132222332592
20
-52.383361978249702
10
264.82032225542622
20
-52.383365087256394
42
0.41421356237309503
10
264.32032233886252
20
-52.883365170692684
10
264.32032535092316
20
-70.933365202292464
42
-0.41421354386804854
10
263.82032543434957
20
-71.433365254128759
10
256.73832543434958
20
-71.433366435920618
42
-0.41421356237307944
10
256.23832535091333
20
-70.933366519356966
10
256.23832402049851
20
-68.953366519257131
42
0.41421358117689461
10
255.73832490496937
20
-68.453367602793293
10
248.73832493706936
20
-68.453367770901622
42
0.41421356237309503
10
248.23832502050564
20
-68.953367854337898
10
248.23832535100348
20
-70.933367885937884
42
-0.41421354379781034
10
247.73832543434975
20
-71.433367937774179
10
245.72032543434977
20
-71.433368274523133
42
0.41421356237310025
10
245.22032551778611
20
-71.933368357959438
10
245.22032765375556
20
-84.73336835795925
42
0.41421356237310542
10
245.72032773719189
20
-85.233368274522959
10
247.73832770509188
20
-85.233367937673961
42
-0.41421358117683615
10
248.23832782062817
20
-85.733367854237684
10
248.23832797081351
20
-86.633367854337678
42
0.4142135623730846
10
248.73832805424982
20
-87.133367770901344
10
255.67632805424975
20
-87.133366613046107
42
0.41421354379778957
10
256.17632797081347
20
-86.633366561302836
10
256.17632785400258
20
-85.933366529702852
42
-0.41421356237309503
10
256.67632777056633
20
-85.433366446266547
10
271.67632773846606
20
-85.433363943077296
42
-0.41421358117686735
10
272.17632785400235
20
-85.933363859640963
10
272.17632797081319
20
-86.633363859740967
42
0.4142135623730846
10
272.67632805424955
20
-87.13336377630462
10
280.20132805424942
20
-87.133362520495169
42
0.41421354379782077
10
280.70132797081305
20
-86.633362468751884
10
280.70132772267351
20
-85.146362437151879
42
-0.41421356237307422
10
281.20132763923715
20
-84.646362353715588
10
283.45132763923709
20
-84.646361978159234
42
0.41421354379784159
10
283.95132755580084
20
-84.146361926415921
10
283.95132645443459
20
-77.546361894716028
42
0.41421358117684137
10
283.45132633890523
20
-77.046361978252335
10
281.25132637100529
20
-77.04636234537206
42
-0.41421356237309503
10
280.75132628756899
20
-76.546362428808379
10
280.75132394917608
20
-62.533362428798576
42
0.41421358117684137
10
280.25132383364672
20
-62.033362512244928
10
278.9513238657467
20
-62.033362729179331
42
-0.41421356237308982
10
278.4513237823104
20
-61.533362812615628
10
278.45132371556139
20
-61.13336281261563
42
-0.41421356237307422
10
278.95132363212502
20
-60.633362729179332
10
283.45132363212497
20
-60.633361978249582
42
0.41421354385055664
10
283.95132354868866
20
-60.133361926416249
0
LWPOLYLINE
5
144
100
AcDbEntity
8
0
100
AcDbPolyline
90
8
70
1
43
0.0
10
20.644924591679562
20
-66.383605833444278
42
0.41421356237309503
10
21.14492450824325
20
-65.883605750007987
10
21.144922339016041
20
-52.88430575000816
42
0.41421356237310025
10
20.644922255579733
20
-52.384305833444472
10
7.645332255579909
20
-52.384308002720076
42
0.4142135623730937
10
7.1453323390162238
20
-52.884308086156373
10
7.1453345082434403
20
-65.883608086156215
42
0.41421356237309503
10
7.6453345916797399
20
-66.38360800271991
0
LWPOLYLINE
5
145
100
AcDbEntity
8
0
100
AcDbPolyline
90
8
70
1
43
0.0
10
31.457922255579586
20
-52.384304029050853
42
0.41421356237309503
10
30.957922339015902
20
-52.88430411248715
10
30.957924508243106
20
-65.883604112486978
42
0.41421356237310025
10
31.457924591679415
20
-66.383604029050673
10
44.457224591679221
20
-66.383601859823457
42
0.41421356237309503
10
44.957224508242902
20
-65.883601776387167
10
44.957222339015708
20
-52.884301776387318
42
0.41421356237310025
10
44.457222255579403
20
-52.384301859823637
0
LWPOLYLINE
5
146
100
AcDbEntity
8
0
100
AcDbPolyline
90
8
70
1
43
0.0
10
64.007222339015456
20
-52.884298597463953
42
0.41421356237309503
10
63.507222255579158
20
-52.384298680900272
10
50.507922255579338
20
-52.384300850127488
42
0.41421356237310542
10
50.007922339015636
20
-52.884300933563807
10
50.007924508242851
20
-65.883600933563628
42
0.41421356237310025
10
50.507924591679156
20
-66.383600850127308
10
63.507224591678984
20
-66.383598680900093
42
0.41421356237309503
10
64.007224508242643
20
-65.883598597463802
0
LWPOLYLINE
5
147
100
AcDbEntity
8
0
100
AcDbPolyline
90
8
70
1
43
0.0
10
69.557922255579058
20
-52.384297671204138
42
0.41421356237309503
10
69.057922339015377
20
-52.884297754640428
10
69.057924508242593
20
-65.883597754640263
42
0.41421356237308982
10
69.557924591678884
20
-66.383597671203944
10
82.557224591678718
20
-66.383595501976743
42
0.4142135623730846
10
83.057224508242399
20
-65.883595418540452
10
83.057222339015183
20
-52.88429541854061
42
0.41421356237310025
10
82.557222255578878
20
-52.384295501976922
0
LWPOLYLINE
5
148
100
AcDbEntity
8
0
100
AcDbPolyline
90
8
70
1
43
0.0
10
2.382821329320151
20
-46.833608880888974
42
0.41421356237309798
10
2.8828214127564555
20
-47.333608797452655
10
15.882421412756276
20
-47.333606628175382
42
0.4142135623730937
10
16.382421329319957
20
-46.833606544739084
10
16.382419160092745
20
-33.83430654473927
42
0.41421356237309503
10
15.882419076656443
20
-33.334306628175582
10
2.8828190766566246
20
-33.334308797452856
42
0.41421356237309404
10
2.3828191600929394
20
-33.834308880889161
0
LWPOLYLINE
5
149
100
AcDbEntity
8
0
100
AcDbPolyline
90
8
70
1
43
0.0
10
21.432921329319878
20
-46.833605701948919
42
0.41421356237309764
10
21.932921412756183
20
-47.3336056185126
10
34.932221412756007
20
-47.333603449285391
42
0.41421356237309503
10
35.432221329319688
20
-46.8336033658491
10
35.43221916009248
20
-33.83430336584928
42
0.41421356237309503
10
34.932219076656182
20
-33.334303449285592
10
21.932919076656351
20
-33.334305618512808
42
0.41421356237310025
10
21.432919160092666
20
-33.834305701949113
0
LWPOLYLINE
5
150
100
AcDbEntity
8
0
100
AcDbPolyline
90
8
70
1
43
0.0
10
54.482219160092207
20
-33.834300186925923
42
0.41421356237309503
10
53.982219076655909
20
-33.334300270362235
10
40.982919076656088
20
-33.334302439589443
42
0.41421356237309764
10
40.482919160092408
20
-33.834302523025748
10
40.482921329319623
20
-46.833602523025561
42
0.41421356237308982
10
40.982921412755914
20
-47.333602439589264
10
53.982221412755742
20
-47.333600270362041
42
0.41421356237309503
10
54.482221329319422
20
-46.833600186925743
0
LWPOLYLINE
5
151
100
AcDbEntity
8
0
100
AcDbPolyline
90
8
70
1
43
0.0
10
59.53292132931935
20
-46.833599344102197
42
0.41421356237309503
10
60.032921412755648
20
-47.333599260665878
10
73.032221412755462
20
-47.333597091438676
42
0.41421356237308982
10
73.532221329319171
20
-46.833597008002386
10
73.532219160091927
20
-33.834297008002565
42
0.41421356237308982
10
73.03221907665565
20
-33.33429709143887
10
60.032919076655816
20
-33.334299260666086
42
0.41421356237309764
10
59.532919160092149
20
-33.834299344102391
0
LWPOLYLINE
5
152
100
AcDbEntity
8
0
100
AcDbPolyline
90
8
70
1
43
0.0
10
78.582921329319092
20
-46.833596165178847
42
0.41421356237309503
10
79.082921412755397
20
-47.333596081742535
10
92.082221412755203
20
-47.333593912515319
42
0.41421356237308982
10
92.582221329318898
20
-46.833593829079021
10
92.582219160091654
20
-33.834293829079208
42
0.41421356237308982
10
92.082219076655377
20
-33.334293912515513
10
79.082919076655557
20
-33.334296081742728
42
0.41421356237310025
10
78.582919160091876
20
-33.83429616517904
0
LWPOLYLINE
5
153
100
AcDbEntity
8
0
100
AcDbPolyline
90
8
70
1
43
0.0
10
88.10792450824232
20
-65.883594575716913
42
0.41421356237310025
10
88.607924591678625
20
-66.383594492280594
10
101.60732459167846
20
-66.383592323036694
42
0.4142135623730846
10
102.10732450824212
20
-65.883592239600404
10
102.10732233901493
20
-52.884292239600569
42
0.41421356237310025
10
101.60732225557862
20
-52.384292323036881
10
88.607922255578785
20
-52.384294492280773
42
0.41421356237310025
10
88.10792233901509
20
-52.884294575717085
0
LWPOLYLINE
5
154
100
AcDbEntity
8
0
100
AcDbPolyline
90
8
70
1
43
0.0
10
120.65732459167818
20
-66.38358914411333
42
0.41421356237309503
10
121.15732450824184
20
-65.883589060677025
10
121.15732233901463
20
-52.884289060677204
42
0.41421356237310025
10
120.65732225557832
20
-52.384289144113517
10
107.65832225557851
20
-52.384291313290674
42
0.4142135623730846
10
107.15832233901483
20
-52.884291396726965
10
107.15832450824206
20
-65.883591396726814
42
0.41421356237308982
10
107.65832459167834
20
-66.383591313290495
0
LWPOLYLINE
5
155
100
AcDbEntity
8
0
100
AcDbPolyline
90
8
70
1
43
0.0
10
126.70832225557825
20
-52.38428813436731
42
0.41421356237309503
10
126.20832233901459
20
-52.884288217803615
10
126.2083245082418
20
-65.88358821780345
42
0.41421356237308982
10
126.70832459167809
20
-66.38358813436713
10
139.70732459167795
20
-66.38358596518998
42
0.41421356237308982
10
140.20732450824156
20
-65.883585881753689
10
140.20732233901438
20
-52.88428588175384
42
0.41421356237308982
10
139.70732225557811
20
-52.384285965190152
0
LWPOLYLINE
5
156
100
AcDbEntity
8
0
100
AcDbPolyline
90
8
70
1
43
0.0
10
159.25732233901411
20
-52.884282702830482
42
0.41421356237310025
10
158.7573222555778
20
-52.384282786266795
10
145.75832225557798
20
-52.38428495544396
42
0.4142135623730846
10
145.25832233901428
20
-52.884285038880243
10
145.25832450824151
20
-65.883585038880085
42
0.41421356237311063
10
145.75832459167785
20
-66.38358495544378
10
158.75732459167767
20
-66.383582786266615
42
0.41421356237308982
10
159.25732450824131
20
-65.883582702830324
0
LWPOLYLINE
5
157
100
AcDbEntity
8
0
100
AcDbPolyline
90
8
70
1
43
0.0
10
177.80732459167737
20
-66.383579607343265
42
0.41421356237309503
10
178.30732450824109
20
-65.883579523906974
10
178.30732233901387
20
-52.884279523907118
42
0.41421356237308982
10
177.80732225557756
20
-52.384279607343444
10
164.80832225557774
20
-52.384281776520595
42
0.41421356237310025
10
164.30832233901407
20
-52.884281859956886
10
164.30832450824124
20
-65.883581859956735
42
0.41421356237311063
10
164.80832459167758
20
-66.383581776520401
0
LWPOLYLINE
5
158
100
AcDbEntity
8
0
100
AcDbPolyline
90
8
70
1
43
0.0
10
111.13232141275496
20
-47.333590733575271
42
0.41421356237309503
10
111.63232132931864
20
-46.833590650138966
10
111.63231916009141
20
-33.83429065013916
42
0.41421356237308982
10
111.13231907665514
20
-33.334290733575472
10
98.131519076655294
20
-33.334292903052997
42
0.41421356237309243
10
97.631519160091614
20
-33.834292986489302
10
97.631521329318844
20
-46.833592986489101
42
0.41421356237310025
10
98.131521412755149
20
-47.333592903052811
0
LWPOLYLINE
5
159
100
AcDbEntity
8
0
100
AcDbPolyline
90
8
70
1
43
0.0
10
117.18131907665502
20
-33.334289724163007
42
0.41421356237309503
10
116.68131916009133
20
-33.834289807599319
10
116.68132132931856
20
-46.833589807599125
42
0.41421356237310025
10
117.18132141275487
20
-47.333589724162827
10
130.18232141275467
20
-47.333587554651906
42
0.41421356237309503
10
130.68232132931837
20
-46.833587471215601
10
130.68231916009114
20
-33.834287471215795
42
0.41421356237308982
10
130.18231907665486
20
-33.334287554652107
0
LWPOLYLINE
5
160
100
AcDbEntity
8
0
100
AcDbPolyline
90
8
70
1
43
0.0
10
149.73231916009092
20
-33.834284292292438
42
0.41421356237310025
10
149.23231907665462
20
-33.334284375728757
10
136.23331907665479
20
-33.334286544905908
42
0.41421356237308982
10
135.7333191600911
20
-33.834286628342205
10
135.73332132931833
20
-46.833586628342019
42
0.41421356237308982
10
136.23332141275461
20
-47.333586544905728
10
149.23232141275446
20
-47.333584375728542
42
0.41421356237308982
10
149.73232132931813
20
-46.833584292292244
0
LWPOLYLINE
5
161
100
AcDbEntity
8
0
100
AcDbPolyline
90
8
70
1
43
0.0
10
168.78231916009065
20
-33.83428111336908
42
0.41421356237308982
10
168.28231907665435
20
-33.334281196805392
10
155.28331907665449
20
-33.33428336598255
42
0.41421356237308982
10
154.78331916009083
20
-33.834283449418848
10
154.78332132931803
20
-46.833583449418661
42
0.41421356237308982
10
155.2833214127543
20
-47.333583365982363
10
168.28232141275413
20
-47.333581196805198
42
0.41421356237310542
10
168.78232132931785
20
-46.833581113368894
0
CIRCLE
5
162
100
AcDbEntity
8
0
100
AcDbCircle
10
9.3037980931260087
20
-27.440407725967194
30
-3.0531133177191805e-14
40
1.0999999999999999
210
9.7026434161739132e-25
220
-1.0963452368173575e-15
230
1
0
LWPOLYLINE
5
163
100
AcDbEntity
8
0
100
AcDbPolyline
90
4
70
1
43
0.0
10
22.753798588737503
20
-30.410405481530461
42
0.99999999999999989
10
22.75379760418906
20
-24.510405481530544
10
17.753797604189131
20
-24.510406315893626
42
0.99999999999999989
10
17.753798588737574
20
-30.410406315893539
0
LWPOLYLINE
5
164
100
AcDbEntity
8
0
100
AcDbPolyline
90
8
70
1
43
0.0
10
15.882417115753007
20
-21.583406628175744
42
0.4142135623730937
10
16.382417032316692
20
-21.083406544739447
10
16.382414863137875
20
-8.0843965447396258
42
0.4142135623730937
10
15.882414779701573
20
-7.584396628175945
10
2.8828147797017483
20
-7.5843987974532157
42
0.41421356237309992
10
2.382814863138063
20
-8.0843988808895251
10
2.3828170323168822
20
-21.083408880889337
42
0.41421356237309503
10
2.8828171157531823
20
-21.583408797453025
0
LWPOLYLINE
5
165
100
AcDbEntity
8
0
100
AcDbPolyline
90
8
70
1
43
0.0
10
40.482917032316351
20
-21.083402523025924
42
0.41421356237309503
10
40.982917115752649
20
-21.583402439589609
10
53.982217115752469
20
-21.583400270362397
42
0.41421356237309243
10
54.482217032316157
20
-21.083400186926102
10
54.48221486313733
20
-8.084390186926278
42
0.41421356237308854
10
53.982214779701039
20
-7.5843902703625972
10
40.982914779701211
20
-7.584392439589811
42
0.4142135623730957
10
40.482914863137523
20
-8.0843925230261107
0
LWPOLYLINE
5
166
100
AcDbEntity
8
0
100
AcDbPolyline
90
8
70
1
43
0.0
10
73.532214863137057
20
-8.0843870080029205
42
0.4142135623730937
10
73.032214779700752
20
-7.5843870914392362
10
60.032914779700938
20
-7.5843892606664518
42
0.41421356237309503
10
59.532914863137272
20
-8.0843893441027515
10
59.532917032316078
20
-21.083399344102563
42
0.41421356237310025
10
60.032917115752383
20
-21.583399260666248
10
73.032217115752204
20
-21.583397091439039
42
0.41421356237309243
10
73.532217032315899
20
-21.083397008002741
0
LWPOLYLINE
5
167
100
AcDbEntity
8
0
100
AcDbPolyline
90
8
70
1
43
0.0
10
92.582214863136784
20
-8.0843838290795613
42
0.41421356237309892
10
92.082214779700479
20
-7.584383912515877
10
79.082914779700687
20
-7.5843860817430926
42
0.41421356237309698
10
78.582914863137006
20
-8.0843861651793958
10
78.582917032315834
20
-21.083396165179206
42
0.41421356237310025
10
79.082917115752139
20
-21.58339608174289
10
92.082217115751931
20
-21.583393912515682
42
0.41421356237308982
10
92.582217032315626
20
-21.083393829079384
0
CIRCLE
5
168
100
AcDbEntity
8
0
100
AcDbCircle
10
43.71561300926615
20
3.025108016422843
30
3.3306690738754696e-15
40
1.0999999999999999
210
9.7026434161739132e-25
220
-1.0963452368173575e-15
230
1
0
LWPOLYLINE
5
169
100
AcDbEntity
8
0
100
AcDbPolyline
90
4
70
1
43
0.0
10
30.263567845903939
20
-25.958904228355543
10
166.96456784590208
20
-25.958881416701885
42
-0.99999999999999989
10
166.96456834651994
20
-28.958881416701846
10
30.263568346521797
20
-28.958904228355497
42
-0.99999999999999989
0
LWPOLYLINE
5
170
100
AcDbEntity
8
0
100
AcDbPolyline
90
8
70
1
43
0.0
10
97.631517032315571
20
-21.083392986489471
42
0.41421356237310025
10
98.131517115751876
20
-21.583392903053159
10
111.13231711575169
20
-21.583390733575634
42
0.41421356237309243
10
111.63231703231537
20
-21.083390650139329
10
111.63231486313654
20
-8.084380650139515
42
0.41421356237308854
10
111.13231477970025
20
-7.5843807335758351
10
98.13151477970041
20
-7.5843829030533563
42
0.41421356237309115
10
97.631514863136729
20
-8.0843829864896577
0
CIRCLE
5
171
100
AcDbEntity
8
0
100
AcDbCircle
10
118.92031594734289
20
-14.581589433971791
30
-1.609823385706477e-14
40
1.0999999999999999
210
9.7026434161739132e-25
220
-1.0963452368173575e-15
230
1
0
LWPOLYLINE
5
172
100
AcDbEntity
8
0
100
AcDbPolyline
90
8
70
1
43
0.0
10
139.70731711575132
20
-21.583385965190594
42
0.41421356237309503
10
140.20731703231499
20
-21.083385881754285
10
140.20731486313616
20
-8.0843758817544771
42
0.41421356237308854
10
139.70731477969989
20
-7.5843759651907972
10
126.7083147797
20
-7.5843781343679471
42
0.41421356237308982
10
126.20831486313634
20
-8.0843782178042467
10
126.20831703231516
20
-21.083388217804067
42
0.41421356237310025
10
126.70831711575147
20
-21.583388134367748
0
LWPOLYLINE
5
173
100
AcDbEntity
8
0
100
AcDbPolyline
90
8
70
1
43
0.0
10
158.75731711575105
20
-21.583382786267236
42
0.41421356237309503
10
159.25731703231472
20
-21.083382702830924
10
159.25731486313589
20
-8.0843727028311179
42
0.41421356237308854
10
158.75731477969961
20
-7.584372786267437
10
145.75831477969976
20
-7.5843749554445896
42
0.41421356237309115
10
145.25831486313606
20
-8.084375038880891
10
145.25831703231492
20
-21.083385038880706
42
0.41421356237308982
10
145.7583171157512
20
-21.583384955444387
0
LWPOLYLINE
5
174
100
AcDbEntity
8
0
100
AcDbPolyline
90
8
70
1
43
0.0
10
177.80731711575075
20
-21.583379607343879
42
0.41421356237309503
10
178.30731703231447
20
-21.083379523907588
10
178.30731486313564
20
-8.0843695239077586
42
0.41421356237308854
10
177.80731477969934
20
-7.5843696073440796
10
164.80831477969951
20
-7.5843717765212295
42
0.41421356237310153
10
164.30831486313582
20
-8.0843718599575318
10
164.30831703231462
20
-21.083381859957342
42
0.41421356237308982
10
164.80831711575092
20
-21.583381776521033
0
CIRCLE
5
175
100
AcDbEntity
8
0
100
AcDbCircle
10
130.46031300926495
20
3.0251224917379655
30
3.0531133177191805e-15
40
1.0999999999999999
210
9.7026434161739132e-25
220
-1.0963452368173575e-15
230
1
0
LWPOLYLINE
5
176
100
AcDbEntity
8
0
100
AcDbPolyline
90
8
70
1
43
0.0
10
183.85832225557746
20
-52.38427859759723
42
0.41421356237309503
10
183.35832233901374
20
-52.884278681033514
10
183.35832450824097
20
-65.88357868103337
42
0.41421356237311063
10
183.8583245916773
20
-66.383578597597051
10
196.8573245916771
20
-66.3835764284199
42
0.41421356237309503
10
197.35732450824082
20
-65.883576344983609
10
197.35732233901359
20
-52.884276344983768
42
0.41421356237308982
10
196.85732225557729
20
-52.38427642842008
0
LWPOLYLINE
5
177
100
AcDbEntity
8
0
100
AcDbPolyline
90
8
70
1
43
0.0
10
216.40732233901332
20
-52.884273166060403
42
0.41421356237308982
10
215.90732225557701
20
-52.384273249496722
10
202.90832225557722
20
-52.384275418673873
42
0.41421356237310025
10
202.40832233901352
20
-52.884275502110171
10
202.40832450824072
20
-65.88357550211002
42
0.41421356237311063
10
202.90832459167706
20
-66.383575418673701
10
215.90732459167683
20
-66.383573249496536
42
0.41421356237310025
10
216.40732450824055
20
-65.883573166060245
0
LWPOLYLINE
5
178
100
AcDbEntity
8
0
100
AcDbPolyline
90
8
70
1
43
0.0
10
221.95832225557695
20
-52.384272239750516
42
0.41421356237309503
10
221.45832233901325
20
-52.884272323186806
10
221.45832450824045
20
-65.883572323186655
42
0.41421356237311063
10
221.95832459167679
20
-66.383572239750336
10
234.95732459167658
20
-66.383570070573171
42
0.41421356237309503
10
235.4573245082403
20
-65.883569987136894
10
235.45732233901307
20
-52.884269987137039
42
0.41421356237308982
10
234.95732225557677
20
-52.384270070573358
0
LWPOLYLINE
5
179
100
AcDbEntity
8
0
100
AcDbPolyline
90
8
70
1
43
0.0
10
254.50732233901277
20
-52.884266808213681
42
0.41421356237308982
10
254.00732225557647
20
-52.38426689165
10
241.0083222555767
20
-52.384269060827158
42
0.41421356237309503
10
240.50832233901301
20
-52.884269144263449
10
240.50832450824021
20
-65.883569144263291
42
0.41421356237311063
10
241.00832459167657
20
-66.383569060826972
10
254.00732459167628
20
-66.383566891649821
42
0.41421356237310542
10
254.50732450824
20
-65.883566808213516
0
CIRCLE
5
180
100
AcDbEntity
8
0
100
AcDbCircle
10
258.50732242360129
20
-59.383766140723289
30
-6.411537967210279e-14
40
1.2999999999999994
210
-2.3384581085946476e-24
220
-1.0963452368173583e-15
230
1
0
LWPOLYLINE
5
181
100
AcDbEntity
8
0
100
AcDbPolyline
90
8
70
1
43
0.0
10
187.83231916009041
20
-33.834277934445723
42
0.41421356237308982
10
187.3323190766541
20
-33.334278017882035
10
174.33331907665428
20
-33.334280187059186
42
0.41421356237311063
10
173.83331916009058
20
-33.834280270495505
10
173.83332132931776
20
-46.833580270495304
42
0.41421356237308982
10
174.33332141275406
20
-47.333580187058999
10
187.33232141275391
20
-47.333578017881834
42
0.41421356237310025
10
187.83232132931761
20
-46.833577934445536
0
LWPOLYLINE
5
182
100
AcDbEntity
8
0
100
AcDbPolyline
90
8
70
1
43
0.0
10
192.88332132931754
20
-46.833577091571939
42
0.41421356237308982
10
193.38332141275384
20
-47.333577008135627
10
206.38232141275367
20
-47.333574838958477
42
0.41421356237310542
10
206.88232132931734
20
-46.833574755522172
10
206.88231916009016
20
-33.834274755522365
42
0.41421356237311063
10
206.38231907665383
20
-33.334274838958677
10
193.38331907665403
20
-33.334277008135828
42
0.41421356237310802
10
192.88331916009037
20
-33.83427709157214
0
LWPOLYLINE
5
183
100
AcDbEntity
8
0
100
AcDbPolyline
90
8
70
1
43
0.0
10
211.93332132931727
20
-46.833573912648589
42
0.41421356237308982
10
212.43332141275357
20
-47.33357382921227
10
225.43232141275337
20
-47.333571660035112
42
0.41421356237310542
10
225.93232132931706
20
-46.833571576598807
10
225.93231916008986
20
-33.834271576599001
42
0.41421356237311063
10
225.43231907665353
20
-33.33427166003532
10
212.43331907665376
20
-33.334273829212471
42
0.41421356237310281
10
211.93331916009004
20
-33.834273912648776
0
LWPOLYLINE
5
184
100
AcDbEntity
8
0
100
AcDbPolyline
90
8
70
1
43
0.0
10
244.48232141275312
20
-47.333568481111747
42
0.41421356237309503
10
244.98232132931685
20
-46.833568397675464
10
244.98231916008962
20
-33.834268397675643
42
0.41421356237311063
10
244.48231907665328
20
-33.334268481111955
10
231.48331907665349
20
-33.334270650289113
42
0.41421356237310542
10
230.98331916008976
20
-33.834270733725418
10
230.98332132931699
20
-46.833570733725224
42
0.41421356237308982
10
231.4833214127533
20
-47.333570650288934
0
LWPOLYLINE
5
185
100
AcDbEntity
8
0
100
AcDbPolyline
90
7
70
1
43
0.0
10
306.89532233901213
20
-52.884258066091007
42
0.41421356237308982
10
306.39532225557582
20
-52.384258149527327
10
292.89532225557599
20
-52.384260402307646
10
292.89532450823947
20
-65.883560402307481
42
0.41421356237311063
10
293.39532459167583
20
-66.383560318871162
10
306.3953245916756
20
-66.383558149527147
42
0.41421356237309503
10
306.8953245082393
20
-65.883558066090856
0
LWPOLYLINE
5
186
100
AcDbEntity
8
0
100
AcDbPolyline
90
8
70
1
43
0.0
10
312.44532225557577
20
-52.384257139947991
42
0.41421356237309503
10
311.94532233901208
20
-52.884257223384274
10
311.94532450823931
20
-65.88355722338413
42
0.41421356237311063
10
312.44532459167561
20
-66.383557139947811
10
325.44532459167544
20
-66.383554970603768
42
0.41421356237307422
10
325.94532450823908
20
-65.883554887167492
10
325.94532233901185
20
-52.88425488716765
42
0.414213562373069
10
325.4453222555756
20
-52.384254970603969
0
LWPOLYLINE
5
187
100
AcDbEntity
8
0
100
AcDbPolyline
90
8
70
1
43
0.0
10
331.49532225557545
20
-52.384253961024633
42
0.41421356237309503
10
330.99532233901181
20
-52.884254044460953
10
330.99532450823904
20
-65.883554044460766
42
0.41421356237311063
10
331.49532459167528
20
-66.383553961024447
10
344.49532459167506
20
-66.383551791680432
42
0.4142135623730846
10
344.99532450823881
20
-65.883551708244127
10
344.99532233901152
20
-52.884251708244285
42
0.414213562373069
10
344.49532225557527
20
-52.384251791680612
0
LWPOLYLINE
5
188
100
AcDbEntity
8
0
100
AcDbPolyline
90
22
70
1
43
0.0
10
250.78332183010139
20
-49.834567429647343
42
0.41421356237308982
10
251.28332191353769
20
-50.334567346211031
10
282.73232191353725
20
-50.334562098234088
42
0.41421356237310025
10
283.23232183010094
20
-49.83456201479779
10
283.23231882634383
20
-31.834262014798064
42
0.41421356237308982
10
282.73231874290752
20
-31.334262098234376
10
275.33331874290764
20
-31.33426333292487
42
0.41421356237310542
10
274.83331882634394
20
-31.834263416361178
10
274.83331899321655
20
-32.834263416361161
42
-0.41421356237309503
10
274.33331907665286
20
-33.334263499797451
10
258.7823190766531
20
-33.334266094833538
42
-0.41421356237308721
10
258.28231899321679
20
-32.834266178269843
10
258.28231882634418
20
-31.834266178269868
42
0.41421356237308982
10
257.78231874290788
20
-31.334266261706176
10
251.28331874290794
20
-31.33426734621132
42
0.41421356237310281
10
250.78331882634421
20
-31.834267429647625
10
250.78289554702724
20
-34.211323342638281
42
-0.38533660309948892
10
250.33260730603192
20
-34.708844504853921
42
0.3853366025641784
10
249.88231897055542
20
-35.206367561749857
10
249.88232133013139
20
-46.83846758000962
42
0.38533660310344048
10
250.33260943755838
20
-47.335990086748502
42
-0.38533660309708978
10
250.78289754498019
20
-47.833512593498149
0
LWPOLYLINE
5
189
100
AcDbEntity
8
0
100
AcDbPolyline
90
8
70
1
43
0.0
10
292.89532132931612
20
-46.833560402307739
42
0.41421356237308982
10
293.39532141275242
20
-47.33356031887142
10
306.39532141275225
20
-47.333558149527391
42
0.41421356237310025
10
306.89532132931595
20
-46.833558066091101
10
306.89531916008877
20
-33.834258066091294
42
0.414213562373069
10
306.39531907665247
20
-33.334258149527606
10
293.39531907665264
20
-33.334260318871628
42
0.41421356237310542
10
292.89531916008889
20
-33.83426040230794
0
LWPOLYLINE
5
190
100
AcDbEntity
8
0
100
AcDbPolyline
90
8
70
1
43
0.0
10
325.9453191600885
20
-33.83425488716793
42
0.41421356237311063
10
325.44531907665214
20
-33.334254970604242
10
312.44531907665242
20
-33.334257139948271
42
0.41421356237310281
10
311.94531916008867
20
-33.834257223384576
10
311.9453213293159
20
-46.833557223384389
42
0.41421356237311063
10
312.44532141275226
20
-47.333557139948077
10
325.44532141275204
20
-47.333554970604048
42
0.4142135623730846
10
325.94532132931568
20
-46.833554887167743
0
LWPOLYLINE
5
191
100
AcDbEntity
8
0
100
AcDbPolyline
90
8
70
1
43
0.0
10
344.49532141275171
20
-47.333551791680684
42
0.41421356237309503
10
344.99532132931535
20
-46.833551708244357
10
344.99531916008812
20
-33.83425170824458
42
0.414213562373069
10
344.49531907665187
20
-33.334251791680884
10
331.49531907665209
20
-33.334253961024906
42
0.4142135623730846
10
330.99531916008834
20
-33.834254044461218
10
330.99532132931563
20
-46.833554044461025
42
0.41421356237311063
10
331.49532141275193
20
-47.333553961024712
0
LWPOLYLINE
5
192
100
AcDbEntity
8
0
100
AcDbPolyline
90
8
70
1
43
0.0
10
183.35831703231435
20
-21.083378681033984
42
0.41421356237308982
10
183.85831711575065
20
-21.583378597597672
10
196.85731711575048
20
-21.583376428420522
42
0.41421356237310281
10
197.3573170323142
20
-21.083376344984217
10
197.35731486313537
20
-8.0843663449843994
42
0.41421356237308854
10
196.85731477969907
20
-7.5843664284207186
10
183.85831477969924
20
-7.5843685975978703
42
0.41421356237310086
10
183.3583148631356
20
-8.0843686810341708
0
CIRCLE
5
193
100
AcDbEntity
8
0
100
AcDbCircle
10
204.64531594754192
20
-14.582775128816671
30
-1.6237011735142914e-14
40
1.0999999999999999
210
9.7026434161739132e-25
220
-1.0963452368173575e-15
230
1
0
LWPOLYLINE
5
194
100
AcDbEntity
8
0
100
AcDbPolyline
90
4
70
1
43
0.0
10
180.96381784590181
20
-25.958879080610409
10
317.66481784590002
20
-25.958856268956744
42
-0.99999999999999989
10
317.6648183465179
20
-28.958856268956708
10
180.96381834651967
20
-28.958879080610362
42
-0.99999999999999989
0
LWPOLYLINE
5
195
100
AcDbEntity
8
0
100
AcDbPolyline
90
8
70
1
43
0.0
10
225.93231486313496
20
-8.0843615765993597
42
0.41421356237308854
10
225.43231477969866
20
-7.5843616600356771
10
212.43331477969886
20
-7.5843638292128315
42
0.41421356237310153
10
211.93331486313514
20
-8.0843639126491329
10
211.93331703231397
20
-21.083373912648945
42
0.41421356237308982
10
212.43331711575027
20
-21.583373829212636
10
225.43231711575007
20
-21.583371660035482
42
0.41421356237310542
10
225.93231703231379
20
-21.083371576599173
0
LWPOLYLINE
5
196
100
AcDbEntity
8
0
100
AcDbPolyline
90
8
70
1
43
0.0
10
244.98231486313472
20
-8.0843583976760023
42
0.41421356237308854
10
244.48231477969841
20
-7.5843584811123188
10
231.48331477969859
20
-7.5843606502894714
42
0.41421356237310153
10
230.98331486313486
20
-8.0843607337257737
10
230.98331703231369
20
-21.083370733725587
42
0.41421356237308982
10
231.48331711575
20
-21.583370650289275
10
244.48231711574982
20
-21.583368481112121
42
0.41421356237310281
10
244.98231703231352
20
-21.083368397675816
0
LWPOLYLINE
5
197
100
AcDbEntity
8
0
100
AcDbPolyline
90
8
70
1
43
0.0
10
264.03231486313445
20
-8.0843552187526431
42
0.41421356237308854
10
263.53231477969814
20
-7.5843553021889596
10
250.53331477969832
20
-7.584357471366113
42
0.41421356237310025
10
250.03331486313459
20
-8.0843575548024127
10
250.03331703231342
20
-21.08336755480223
42
0.41421356237308982
10
250.53331711574972
20
-21.583367471365914
10
263.53231711574955
20
-21.58336530218876
42
0.41421356237310281
10
264.03231703231324
20
-21.083365218752455
0
CIRCLE
5
198
100
AcDbEntity
8
0
100
AcDbCircle
10
217.20431300926376
20
3.0251369669362789
30
3.1918911957973251e-15
40
1.0999999999999999
210
9.7026434161739132e-25
220
-1.0963452368173575e-15
230
1
0
LWPOLYLINE
5
199
100
AcDbEntity
8
0
100
AcDbPolyline
90
8
70
1
43
0.0
10
269.08331703231318
20
-21.083364375878869
42
0.41421356237308982
10
269.58331711574948
20
-21.583364292442553
10
282.58231711574933
20
-21.583362123265402
42
0.41421356237310281
10
283.08231703231303
20
-21.083362039829098
10
283.08231486313423
20
-8.0843520398292839
42
0.41421356237308854
10
282.58231477969792
20
-7.584352123265603
10
269.58331477969807
20
-7.5843542924427556
42
0.41421356237309892
10
269.08331486313438
20
-8.0843543758790517
0
LWPOLYLINE
5
200
100
AcDbEntity
8
0
100
AcDbPolyline
90
8
70
1
43
0.0
10
292.89531703231285
20
-21.083360402308102
42
0.41421356237308982
10
293.39531711574915
20
-21.58336031887179
10
306.39531711574898
20
-21.583358149527768
42
0.41421356237310281
10
306.89531703231262
20
-21.083358066091463
10
306.89531486313393
20
-8.0843480660916516
42
0.41421356237310936
10
306.39531477969757
20
-7.5843481495279708
10
293.3953147796978
20
-7.584350318871989
42
0.4142135623731022
10
292.89531486313405
20
-8.0843504023082922
0
LWPOLYLINE
5
201
100
AcDbEntity
8
0
100
AcDbPolyline
90
4
70
1
43
0.0
10
330.16431858848301
20
-30.408854183132409
42
0.99999999999999989
10
330.16431760393453
20
-24.508854183132488
10
325.16431760393459
20
-24.50885501749557
42
0.99999999999999989
10
325.16431858848307
20
-30.408855017495494
0
CIRCLE
5
202
100
AcDbEntity
8
0
100
AcDbCircle
10
337.99631809617529
20
-27.458652876186108
30
-3.0531133177191805e-14
40
1.0999999999999999
210
9.7026434161739132e-25
220
-1.0963452368173575e-15
230
1
0
LWPOLYLINE
5
203
100
AcDbEntity
8
0
100
AcDbPolyline
90
8
70
1
43
0.0
10
325.44531711574876
20
-21.583354970604415
42
0.41421356237309503
10
325.9453170323124
20
-21.083354887168085
10
325.94531486313366
20
-8.0843448871682924
42
0.41421356237310936
10
325.44531477969736
20
-7.5843449706046115
10
312.44531477969758
20
-7.5843471399486297
42
0.41421356237310153
10
311.94531486313383
20
-8.0843472233849312
10
311.94531703231263
20
-21.083357223384741
42
0.41421356237311063
10
312.44531711574899
20
-21.583357139948433
0
LWPOLYLINE
5
204
100
AcDbEntity
8
0
100
AcDbPolyline
90
8
70
1
43
0.0
10
330.99531703231236
20
-21.083354044461387
42
0.41421356237311063
10
331.49531711574866
20
-21.583353961025075
10
344.49531711574843
20
-21.58335179168105
42
0.41421356237308204
10
344.99531703231213
20
-21.083351708244745
10
344.99531486313333
20
-8.0843417082449331
42
0.41421356237310936
10
344.49531477969697
20
-7.5843417916812514
10
331.49531477969725
20
-7.5843439610252705
42
0.41421356237308266
10
330.99531486313356
20
-8.0843440444615755
0
CIRCLE
5
205
100
AcDbEntity
8
0
100
AcDbCircle
10
303.94931300926248
20
3.0251514423014632
30
3.3306690738754696e-15
40
1.0999999999999999
210
9.7026434161739132e-25
220
-1.0963452368173575e-15
230
1
0
ENDSEC
0
SECTION
2
OBJECTS
0
DICTIONARY
5
C
100
AcDbDictionary
3
ACAD_GROUP
350
D
3
ACAD_MLINESTYLE
350
17
0
DICTIONARY
5
D
100
AcDbDictionary
0
DICTIONARY
5
1A
330
C
100
AcDbDictionary
0
DICTIONARY
5
17
100
AcDbDictionary
0
ENDSEC
0
EOF
