0
SECTION
2
HEADER
9
$INSUNITS
70
4
9
$ACADVER
1
AC1014
9
$HANDSEED
5
FFFF
0
ENDSEC
0
SECTION
2
TABLES
0
TABLE
2
VPORT
5
8
100
AcDbSymbolTable
0
ENDTAB
0
TABLE
2
LTYPE
5
5
100
AcDbSymbolTable
0
LTYPE
5
14
100
AcDbSymbolTableRecord
100
AcDbLinetypeTableRecord
2
BYBLOCK
70
0
0
LTYPE
5
15
100
AcDbSymbolTableRecord
100
AcDbLinetypeTableRecord
2
BYLAYER
70
0
0
LTYPE
5
16
100
AcDbSymbolTableRecord
100
AcDbLinetypeTableRecord
2
DASHED
70
0
3
Dashed __ __ __ __ __ __ __ __ __ __ __ __ __ _
72
65
73
2
40
0.75
49
0.5
74
0
49
-0.25
74
0
0
ENDTAB
0
TABLE
2
LAYER
5
2
100
AcDbSymbolTable
70
2
0
LAYER
5
50
100
AcDbSymbolTableRecord
100
AcDbLayerTableRecord
2
0
70
0
62
7
6
CONTINUOUS
0
ENDTAB
0
TABLE
2
STYLE
5
3
100
AcDbSymbolTable
70
1
0
STYLE
5
11
100
AcDbSymbolTableRecord
100
AcDbTextStyleTableRecord
2
STANDARD
70
0
0
ENDTAB
0
TABLE
2
VIEW
5
6
100
AcDbSymbolTable
70
0
0
ENDTAB
0
TABLE
2
UCS
5
7
100
AcDbSymbolTable
70
0
0
ENDTAB
0
TABLE
2
APPID
5
9
100
AcDbSymbolTable
70
2
0
APPID
5
12
100
AcDbSymbolTableRecord
100
AcDbRegAppTableRecord
2
ACAD
70
0
0
ENDTAB
0
TABLE
2
DIMSTYLE
5
A
100
AcDbSymbolTable
70
1
0
ENDTAB
0
TABLE
2
BLOCK_RECORD
5
1
100
AcDbSymbolTable
70
1
0
BLOCK_RECORD
5
1F
100
AcDbSymbolTableRecord
100
AcDbBlockTableRecord
2
*MODEL_SPACE
0
BLOCK_RECORD
5
1B
100
AcDbSymbolTableRecord
100
AcDbBlockTableRecord
2
*PAPER_SPACE
0
ENDTAB
0
ENDSEC
0
SECTION
2
BLOCKS
0
BLOCK
5
20
100
AcDbEntity
100
AcDbBlockBegin
2
*MODEL_SPACE
0
ENDBLK
5
21
100
AcDbEntity
100
AcDbBlockEnd
0
BLOCK
5
1C
100
AcDbEntity
100
AcDbBlockBegin
2
*PAPER_SPACE
0
ENDBLK
5
1D
100
AcDbEntity
100
AcDbBlockEnd
0
ENDSEC
0
SECTION
2
ENTITIES
0
CIRCLE
5
100
100
AcDbEntity
8
0
100
AcDbCircle
10
-118.91884999999989
20
-14.584393913029203
30
8.8817841970012523e-15
40
3.2000000000000028
210
0
220
5.4123372450476381e-16
230
1
0
CIRCLE
5
101
100
AcDbEntity
8
0
100
AcDbCircle
10
-337.99384999999995
20
-97.483993913029323
30
5.3290705182007514e-14
40
3.2000000000000028
210
0
220
5.4123372450476381e-16
230
1
0
CIRCLE
5
102
100
AcDbEntity
8
0
100
AcDbCircle
10
-204.64384669637695
20
-14.582243562406202
30
7.7715611723760958e-15
40
3.2000000000000028
210
0
220
5.4123372450476381e-16
230
1
0
CIRCLE
5
103
100
AcDbEntity
8
0
100
AcDbCircle
10
-9.3022173310705352
20
-27.458893921198108
30
1.5543122344752192e-14
40
3.2000000000000006
210
-0
220
5.4123372450476381e-16
230
1
0
CIRCLE
5
104
100
AcDbEntity
8
0
100
AcDbCircle
10
-296.9938499999999
20
-74.423892970516036
30
3.8857805861880479e-14
40
3.2000000000000028
210
0
220
5.4123372450476381e-16
230
1
0
CIRCLE
5
105
100
AcDbEntity
8
0
100
AcDbCircle
10
-337.99384821340777
20
-27.458842407504683
30
1.5543122344752192e-14
40
3.2000000000000028
210
0
220
5.4123372450476381e-16
230
1
0
CIRCLE
5
106
100
AcDbEntity
8
0
100
AcDbCircle
10
-171.44884999999994
20
-115.05918241302922
30
6.2172489379008766e-14
40
3.2000000000000028
210
0
220
5.4123372450476381e-16
230
1
0
LWPOLYLINE
5
107
100
AcDbEntity
8
0
100
AcDbPolyline
90
56
70
1
43
0.0
10
-283.69984999995944
20
-123.73170114565825
42
0.41421356236518331
10
-282.19984999999997
20
-122.23170114565825
10
-282.19985000000003
20
-109.53429391302917
42
-0.41421356237309503
10
-280.69984999999997
20
-108.03429391302916
10
-195.26285000000001
20
-108.03429391302916
42
-0.41421356237309853
10
-193.76284999999999
20
-109.53429391302917
10
-193.76284999999999
20
-122.23170114318707
42
0.41421356238101026
10
-192.26284999995949
20
-123.73170114318705
10
-152.82484999995944
20
-123.73170114212121
42
0.41421356236517287
10
-151.32484999999997
20
-122.23170114212121
10
-151.32485
20
-109.53429391302919
42
-0.41421356237309853
10
-149.82485
20
-108.03429391302916
10
-123.82384999999999
20
-108.03429391302916
42
-0.41421356237309853
10
-122.32384999999999
20
-109.53429391302919
10
-122.32384999999996
20
-122.23170114125631
42
0.41421356238102763
10
-120.82384999995944
20
-123.73170114125634
10
-71.887149999959448
20
-123.73170113993376
42
0.41421356236517809
10
-70.387149999999977
20
-122.23170113993373
10
-70.387149999999991
20
-109.53429391302919
42
-0.41421356237309853
10
-68.887149999999991
20
-108.03429391302916
10
-4.7627599999999859
20
-108.03429391302915
42
-0.41421356237309936
10
-3.2627599999999815
20
-109.53429391302917
10
-3.2627599999999624
20
-122.23170113803857
42
0.41421356238101092
10
-1.7627599999594068
20
-123.73170113803857
10
-0.34193380370229676
20
-123.73170113800016
42
0.41421356236517765
10
1.158066196257159
20
-122.23170113800015
10
1.158066196256097
20
-1.9748951513978774
42
0.41421356320276803
10
-0.34193379183219053
20
-0.47489513523714605
10
-225.97724998808843
20
-0.47489332264713274
42
0.41421356469900472
10
-227.47725000000014
20
-1.9748933226471461
10
-227.47725000000017
20
-4.5843939130291753
42
0.41421356237308965
10
-225.97725000000011
20
-6.0843939130291336
10
-211.93184999999997
20
-6.0843939130291611
42
-0.4142135623730942
10
-210.43184999999997
20
-7.5843939130291425
10
-210.43184999999997
20
-14.583893913029144
42
-0.41421356237309503
10
-211.93184999999997
20
-16.083893913029144
10
-225.97724999999994
20
-16.083893913029147
42
0.41421356237311546
10
-227.47724999999991
20
-17.583893913029168
10
-227.47724999999974
20
-26.958893285939467
42
-0.4142135647397831
10
-229.47725001616047
20
-28.958893285939503
10
-301.47725001616095
20
-28.958892704153961
42
-0.4142135600064063
10
-303.4772500000002
20
-26.958892704153968
10
-303.47725000000014
20
-17.583893913029151
42
0.41421356237311324
10
-304.97725000000014
20
-16.083893913029144
10
-306.89384999999999
20
-16.083893913029133
42
-0.41421356237309548
10
-308.39384999999999
20
-14.583893913029144
10
-308.39384999999999
20
-7.5843939130291504
42
-0.41421356237309548
10
-306.89384999999999
20
-6.0843939130291478
10
-304.97725000000014
20
-6.0843939130291513
42
0.41421356237312068
10
-303.47725000000014
20
-4.5843939130291478
10
-303.47725000000014
20
-1.9748933226489935
42
0.41421356237309437
10
-304.97725000000008
20
-0.47489332264901096
10
-347.32084880374373
20
-0.4748933226490834
42
0.41421356237309731
10
-348.82084781261904
20
-1.9748923315243632
10
-348.82084781261813
20
-122.23170114737771
42
0.41421356238099294
10
-347.32084781257748
20
-123.73170114737772
0
LWPOLYLINE
5
108
100
AcDbEntity
8
0
100
AcDbPolyline
90
8
70
1
43
0.0
10
-306.89384999999999
20
-108.03429391302916
10
-292.89385000000004
20
-108.03429391302916
42
-0.41421356237309853
10
-291.39384999999999
20
-109.53429391302917
10
-291.39384999999999
20
-116.53402391302917
42
-0.41421356237308815
10
-292.89384999999999
20
-118.03402391302913
10
-306.89384999999993
20
-118.03402391302913
42
-0.41421356237309159
10
-308.39384999999999
20
-116.53402391302917
10
-308.39384999999999
20
-109.53429391302917
42
-0.41421356237309503
0
LWPOLYLINE
5
109
100
AcDbEntity
8
0
100
AcDbPolyline
90
8
70
1
43
0.0
10
-310.44385000000005
20
-109.53429391302917
42
0.41421356237309853
10
-311.94385000000005
20
-108.03429391302915
10
-325.94385
20
-108.03429391302916
42
0.41421356237309503
10
-327.44385
20
-109.53429391302917
10
-327.44385
20
-116.53402391302917
42
0.41421356237309159
10
-325.94385
20
-118.03402391302917
10
-311.94385
20
-118.03402391302913
42
0.41421356237308815
10
-310.44385
20
-116.53402391302917
0
LWPOLYLINE
5
110
100
AcDbEntity
8
0
100
AcDbPolyline
90
8
70
1
43
0.0
10
-329.49385000000001
20
-109.53429391302919
42
0.41421356237309853
10
-330.99384999999995
20
-108.03429391302916
10
-344.99384999999995
20
-108.03429391302916
42
0.41421356237309503
10
-346.49384999999995
20
-109.53429391302917
10
-346.49384999999995
20
-116.53402391302917
42
0.41421356237309159
10
-344.99384999999995
20
-118.03402391302917
10
-330.99384999999995
20
-118.03402391302916
42
0.41421356237308815
10
-329.49385000000001
20
-116.53402391302919
0
LWPOLYLINE
5
111
100
AcDbEntity
8
0
100
AcDbPolyline
90
8
70
1
43
0.0
10
-306.89384999999999
20
-31.834293913029153
10
-292.89384999999999
20
-31.834293913029171
42
-0.41421356237309592
10
-291.39384999999999
20
-33.334293913029157
10
-291.39384999999999
20
-40.333943913029145
42
-0.41421356237309503
10
-292.89384999999999
20
-41.833943913029152
10
-306.89384999999999
20
-41.833943913029131
42
-0.41421356237309503
10
-308.39384999999999
20
-40.333943913029145
10
-308.39384999999999
20
-33.334293913029157
42
-0.41421356237309592
0
LWPOLYLINE
5
112
100
AcDbEntity
8
0
100
AcDbPolyline
90
8
70
1
43
0.0
10
-58.031549999999996
20
-7.5843939130291425
10
-58.031549999999982
20
-14.583893913029144
42
-0.41421356237309503
10
-59.531549999999989
20
-16.083893913029144
10
-73.530849999999987
20
-16.083893913029147
42
-0.41421356237309548
10
-75.030849999999987
20
-14.583893913029142
10
-75.030849999999973
20
-7.5843939130291416
42
-0.4142135623730942
10
-73.530849999999973
20
-6.084393913029146
10
-59.531549999999989
20
-6.0843939130291513
42
-0.41421356237309437
0
LWPOLYLINE
5
113
100
AcDbEntity
8
0
100
AcDbPolyline
90
8
70
1
43
0.0
10
-143.75685000000001
20
-7.5843939130291425
10
-143.75684999999999
20
-14.583893913029144
42
-0.41421356237309503
10
-145.25684999999999
20
-16.083893913029144
10
-159.25584999999995
20
-16.083893913029147
42
-0.41421356237309548
10
-160.75584999999995
20
-14.583893913029142
10
-160.75584999999995
20
-7.5843939130291416
42
-0.4142135623730942
10
-159.25584999999995
20
-6.084393913029146
10
-145.25684999999999
20
-6.0843939130291602
42
-0.41421356237309437
0
LWPOLYLINE
5
114
100
AcDbEntity
8
0
100
AcDbPolyline
90
8
70
1
43
0.0
10
-310.44385
20
-7.5843939130291469
10
-310.44385
20
-14.583893913029144
42
-0.41421356237309503
10
-311.94385
20
-16.083893913029144
10
-325.94385
20
-16.083893913029129
42
-0.41421356237309548
10
-327.44385
20
-14.583893913029142
10
-327.44385
20
-7.584393913029146
42
-0.41421356237309465
10
-325.94385
20
-6.0843939130291469
10
-311.94385000000005
20
-6.0843939130291291
42
-0.41421356237309437
0
LWPOLYLINE
5
115
100
AcDbEntity
8
0
100
AcDbPolyline
90
8
70
1
43
0.0
10
-329.49385000000001
20
-7.5843939130291469
10
-329.49385000000001
20
-14.583893913029149
42
-0.41421356237309503
10
-330.99384999999995
20
-16.083893913029147
10
-344.99384999999995
20
-16.083893913029137
42
-0.41421356237309548
10
-346.49384999999995
20
-14.583893913029147
10
-346.49384999999995
20
-7.584393913029146
42
-0.41421356237309465
10
-344.99384999999995
20
-6.0843939130291478
10
-330.99384999999995
20
-6.0843939130291638
42
-0.41421356237309465
0
LWPOLYLINE
5
116
100
AcDbEntity
8
0
100
AcDbPolyline
90
7
70
1
43
0.0
10
-162.80685
20
-6.0843939130291469
10
-162.80685
20
-14.583893913029147
42
-0.41421356237309465
10
-164.30684999999997
20
-16.083893913029144
10
-178.30584999999999
20
-16.083893913029129
42
-0.41421356237309548
10
-179.80584999999996
20
-14.583893913029142
10
-179.80584999999996
20
-7.5843939130291416
42
-0.4142135623730942
10
-178.30584999999999
20
-6.084393913029146
0
LWPOLYLINE
5
117
100
AcDbEntity
8
0
100
AcDbPolyline
90
8
70
1
43
0.0
10
-77.081549999999979
20
-7.5843939130291425
10
-77.081549999999979
20
-14.583893913029144
42
-0.41421356237309503
10
-78.581549999999979
20
-16.083893913029144
10
-92.58084999999997
20
-16.083893913029147
42
-0.41421356237309548
10
-94.080849999999984
20
-14.583893913029142
10
-94.080849999999984
20
-7.5843939130291416
42
-0.4142135623730942
10
-92.58084999999997
20
-6.084393913029146
10
-78.581549999999979
20
-6.0843939130291425
42
-0.41421356237309437
0
LWPOLYLINE
5
118
100
AcDbEntity
8
0
100
AcDbPolyline
90
8
70
1
43
0.0
10
-38.981549999999991
20
-7.5843939130291425
10
-38.981549999999984
20
-14.583893913029144
42
-0.41421356237309503
10
-40.481549999999984
20
-16.083893913029144
10
-54.480849999999982
20
-16.083893913029147
42
-0.41421356237309548
10
-55.980849999999982
20
-14.583893913029142
10
-55.980849999999982
20
-7.5843939130291416
42
-0.4142135623730942
10
-54.480849999999982
20
-6.084393913029146
10
-40.481549999999984
20
-6.0843939130291513
42
-0.41421356237309437
0
LWPOLYLINE
5
119
100
AcDbEntity
8
0
100
AcDbPolyline
90
8
70
1
43
0.0
10
-124.70685
20
-7.5843939130291425
10
-124.70684999999997
20
-14.583893913029144
42
-0.41421356237309503
10
-126.20684999999997
20
-16.083893913029144
10
-140.20584999999997
20
-16.083893913029147
42
-0.41421356237309465
10
-141.70584999999997
20
-14.583893913029147
10
-141.70584999999997
20
-7.5843939130291416
42
-0.4142135623730942
10
-140.20584999999997
20
-6.084393913029146
10
-126.20684999999997
20
-6.0843939130291602
42
-0.41421356237309437
0
LWPOLYLINE
5
120
100
AcDbEntity
8
0
100
AcDbPolyline
90
8
70
1
43
0.0
10
-181.85685000000001
20
-7.5843939130291425
10
-181.85685000000001
20
-14.583893913029144
42
-0.41421356237309503
10
-183.35684999999998
20
-16.083893913029144
10
-197.35585
20
-16.083893913029129
42
-0.41421356237309548
10
-198.85584999999998
20
-14.583893913029142
10
-198.85584999999998
20
-7.5843939130291416
42
-0.41421356237309398
10
-197.35585
20
-6.0843939130291469
10
-183.35684999999998
20
-6.0843939130291611
42
-0.4142135623730942
0
LWPOLYLINE
5
121
100
AcDbEntity
8
0
100
AcDbPolyline
90
8
70
1
43
0.0
10
-96.130150000000015
20
-7.5843939130291425
10
-96.130149999999986
20
-14.583893913029144
42
-0.41421356237309503
10
-97.630149999999986
20
-16.083893913029144
10
-111.63084999999998
20
-16.083893913029147
42
-0.41421356237309548
10
-113.13085
20
-14.583893913029142
10
-113.13085
20
-7.5843939130291416
42
-0.4142135623730942
10
-111.63084999999998
20
-6.084393913029146
10
-97.630149999999986
20
-6.0843939130291602
42
-0.41421356237309437
0
LWPOLYLINE
5
122
100
AcDbEntity
8
0
100
AcDbPolyline
90
8
70
1
43
0.0
10
-0.88149999999998685
20
-7.5843939130291425
10
-0.88149999999997641
20
-14.583893913029144
42
-0.41421356237309481
10
-2.3814999999999746
20
-16.083893913029144
10
-16.381049999999977
20
-16.083893913029144
42
-0.41421356237309465
10
-17.881049999999977
20
-14.583893913029147
10
-17.881049999999977
20
-7.5843939130291371
42
-0.4142135623730937
10
-16.381049999999977
20
-6.0843939130291433
10
-2.3814999999999746
20
-6.0843939130291584
42
-0.41421356237309465
0
CIRCLE
5
123
100
AcDbEntity
8
0
100
AcDbCircle
10
-327.66249800966352
20
-27.458891488923086
30
1.5543122344752192e-14
40
3.125
210
-2.6459635746693611e-35
220
5.5511151231257827e-16
230
1
0
CIRCLE
5
124
100
AcDbEntity
8
0
100
AcDbCircle
10
-173.96249900966356
20
-27.458893730873633
30
1.5543122344752192e-14
40
3.125
210
-2.6459635746693611e-35
220
5.5511151231257827e-16
230
1
0
CIRCLE
5
125
100
AcDbEntity
8
0
100
AcDbCircle
10
-20.262499009663642
20
-27.4588939728242
30
1.4432899320127035e-14
40
3.125
210
-2.6459635746693611e-35
220
5.5511151231257827e-16
230
1
0
LWPOLYLINE
5
126
100
AcDbEntity
8
0
100
AcDbPolyline
90
8
70
1
43
0.0
10
-0.88149999999998951
20
-33.334293913029157
10
-0.88149999999997342
20
-40.333943913029145
42
-0.41421356237309465
10
-2.3814999999999746
20
-41.833943913029152
10
-16.381049999999977
20
-41.833943913029152
42
-0.41421356237309503
10
-17.881049999999977
20
-40.333943913029145
10
-17.881049999999977
20
-33.334293913029157
42
-0.41421356237309592
10
-16.381049999999977
20
-31.834293913029157
10
-2.3814999999999742
20
-31.834293913029164
42
-0.41421356237309503
0
LWPOLYLINE
5
127
100
AcDbEntity
8
0
100
AcDbPolyline
90
8
70
1
43
0.0
10
-77.081549999999979
20
-33.334293913029157
10
-77.081549999999979
20
-40.333943913029145
42
-0.41421356237309503
10
-78.581549999999979
20
-41.833943913029152
10
-92.58084999999997
20
-41.833943913029152
42
-0.41421356237309503
10
-94.080849999999984
20
-40.333943913029145
10
-94.080849999999984
20
-33.334293913029157
42
-0.41421356237309592
10
-92.58084999999997
20
-31.834293913029157
10
-78.581549999999979
20
-31.834293913029153
42
-0.41421356237309592
0
LWPOLYLINE
5
128
100
AcDbEntity
8
0
100
AcDbPolyline
90
8
70
1
43
0.0
10
-153.28185000000002
20
-33.334293913029157
10
-153.28184999999999
20
-40.333943913029145
42
-0.41421356237309503
10
-154.78184999999999
20
-41.833943913029152
10
-168.78084999999999
20
-41.833943913029131
42
-0.41421356237309503
10
-170.28084999999999
20
-40.333943913029145
10
-170.28084999999999
20
-33.334293913029157
42
-0.41421356237309592
10
-168.78084999999999
20
-31.834293913029157
10
-154.78185000000002
20
-31.834293913029153
42
-0.41421356237309592
0
LWPOLYLINE
5
129
100
AcDbEntity
8
0
100
AcDbPolyline
90
8
70
1
43
0.0
10
-229.48184999999998
20
-33.334293913029157
10
-229.48184999999995
20
-40.333943913029145
42
-0.41421356237309503
10
-230.98184999999998
20
-41.833943913029152
10
-244.98085
20
-41.833943913029131
42
-0.41421356237309503
10
-246.48084999999998
20
-40.333943913029145
10
-246.48084999999998
20
-33.334293913029157
42
-0.41421356237309592
10
-244.98085
20
-31.834293913029157
10
-230.98184999999998
20
-31.834293913029171
42
-0.41421356237309592
0
LWPOLYLINE
5
130
100
AcDbEntity
8
0
100
AcDbPolyline
90
8
70
1
43
0.0
10
-258.05685
20
-33.334293913029157
10
-258.05684999999994
20
-40.333943913029159
42
-0.41421356237309503
10
-259.55685
20
-41.833943913029159
10
-273.55585000000002
20
-41.833943913029145
42
-0.41421356237309503
10
-275.05585000000002
20
-40.333943913029159
10
-275.05585000000002
20
-33.334293913029157
42
-0.41421356237309592
10
-273.55585000000002
20
-31.834293913029157
10
-259.55685
20
-31.834293913029171
42
-0.41421356237309592
0
LWPOLYLINE
5
131
100
AcDbEntity
8
0
100
AcDbPolyline
90
8
70
1
43
0.0
10
-172.33184999999997
20
-33.334293913029157
10
-172.33184999999997
20
-40.333943913029145
42
-0.41421356237309503
10
-173.83184999999997
20
-41.833943913029152
10
-187.83085
20
-41.833943913029131
42
-0.41421356237309503
10
-189.33085
20
-40.333943913029145
10
-189.33085
20
-33.334293913029157
42
-0.41421356237309592
10
-187.83085
20
-31.834293913029157
10
-173.83184999999997
20
-31.834293913029171
42
-0.41421356237309592
0
LWPOLYLINE
5
132
100
AcDbEntity
8
0
100
AcDbPolyline
90
8
70
1
43
0.0
10
-96.130150000000015
20
-33.334293913029157
10
-96.130149999999986
20
-40.333943913029145
42
-0.41421356237309503
10
-97.630149999999986
20
-41.833943913029152
10
-111.63084999999998
20
-41.833943913029152
42
-0.41421356237309503
10
-113.13085
20
-40.333943913029145
10
-113.13085
20
-33.334293913029157
42
-0.41421356237309592
10
-111.63084999999998
20
-31.834293913029157
10
-97.630149999999986
20
-31.834293913029171
42
-0.41421356237309592
0
LWPOLYLINE
5
133
100
AcDbEntity
8
0
100
AcDbPolyline
90
8
70
1
43
0.0
10
-19.93154999999998
20
-33.334293913029157
10
-19.931549999999973
20
-40.333943913029145
42
-0.41421356237309503
10
-21.431549999999973
20
-41.833943913029152
10
-35.430849999999978
20
-41.833943913029152
42
-0.41421356237309592
10
-36.930849999999978
20
-40.333943913029145
10
-36.930849999999978
20
-33.334293913029157
42
-0.41421356237309681
10
-35.430849999999978
20
-31.834293913029157
10
-21.431549999999966
20
-31.83429391302916
42
-0.4142135623730942
0
LWPOLYLINE
5
134
100
AcDbEntity
8
0
100
AcDbPolyline
90
8
70
1
43
0.0
10
-58.031549999999996
20
-33.334293913029157
10
-58.031549999999982
20
-40.333943913029145
42
-0.41421356237309503
10
-59.531549999999989
20
-41.833943913029152
10
-73.530849999999987
20
-41.833943913029152
42
-0.41421356237309503
10
-75.030849999999987
20
-40.333943913029145
10
-75.030849999999973
20
-33.334293913029157
42
-0.41421356237309592
10
-73.530849999999973
20
-31.834293913029157
10
-59.531549999999989
20
-31.83429391302916
42
-0.41421356237309592
0
LWPOLYLINE
5
135
100
AcDbEntity
8
0
100
AcDbPolyline
90
8
70
1
43
0.0
10
-134.23185000000001
20
-33.334293913029157
10
-134.23184999999998
20
-40.333943913029145
42
-0.41421356237309503
10
-135.73184999999998
20
-41.833943913029152
10
-149.73084999999998
20
-41.833943913029152
42
-0.41421356237309503
10
-151.23084999999998
20
-40.333943913029145
10
-151.23084999999998
20
-33.334293913029157
42
-0.41421356237309592
10
-149.73084999999998
20
-31.834293913029157
10
-135.73184999999998
20
-31.834293913029171
42
-0.41421356237309592
0
LWPOLYLINE
5
136
100
AcDbEntity
8
0
100
AcDbPolyline
90
8
70
1
43
0.0
10
-210.43184999999997
20
-33.334293913029157
10
-210.43184999999994
20
-40.333943913029145
42
-0.41421356237309503
10
-211.93184999999997
20
-41.833943913029152
10
-225.93084999999999
20
-41.833943913029131
42
-0.41421356237309503
10
-227.43084999999996
20
-40.333943913029145
10
-227.43084999999996
20
-33.334293913029157
42
-0.41421356237309592
10
-225.93084999999999
20
-31.834293913029157
10
-211.93184999999997
20
-31.834293913029171
42
-0.41421356237309592
0
LWPOLYLINE
5
137
100
AcDbEntity
8
0
100
AcDbPolyline
90
8
70
1
43
0.0
10
-329.49385000000001
20
-33.334293913029157
10
-329.49385000000001
20
-40.333943913029159
42
-0.41421356237309337
10
-330.99384999999995
20
-41.833943913029152
10
-344.99384999999995
20
-41.833943913029145
42
-0.41421356237309503
10
-346.49384999999995
20
-40.333943913029159
10
-346.49384999999995
20
-33.334293913029171
42
-0.41421356237309592
10
-344.99384999999995
20
-31.834293913029164
10
-330.99384999999995
20
-31.834293913029175
42
-0.41421356237309503
0
LWPOLYLINE
5
138
100
AcDbEntity
8
0
100
AcDbPolyline
90
8
70
1
43
0.0
10
-310.44385
20
-33.334293913029157
10
-310.44385
20
-40.333943913029159
42
-0.41421356237309337
10
-311.94385
20
-41.833943913029152
10
-325.94385
20
-41.833943913029131
42
-0.41421356237309503
10
-327.44385
20
-40.333943913029145
10
-327.44385
20
-33.334293913029157
42
-0.41421356237309592
10
-325.94385
20
-31.834293913029157
10
-311.94385000000005
20
-31.834293913029139
42
-0.41421356237309503
0
LWPOLYLINE
5
139
100
AcDbEntity
8
0
100
AcDbPolyline
90
8
70
1
43
0.0
10
-191.38184999999999
20
-33.334293913029157
10
-191.38184999999999
20
-40.333943913029145
42
-0.41421356237309503
10
-192.88184999999999
20
-41.833943913029152
10
-206.88085000000001
20
-41.833943913029131
42
-0.41421356237309503
10
-208.38085000000001
20
-40.333943913029145
10
-208.38085000000001
20
-33.334293913029157
42
-0.41421356237309592
10
-206.88085000000001
20
-31.834293913029157
10
-192.88184999999999
20
-31.834293913029171
42
-0.41421356237309592
0
LWPOLYLINE
5
140
100
AcDbEntity
8
0
100
AcDbPolyline
90
8
70
1
43
0.0
10
-115.17984999999999
20
-33.334293913029157
10
-115.17984999999997
20
-40.333943913029145
42
-0.41421356237309503
10
-116.67984999999999
20
-41.833943913029152
10
-130.68084999999996
20
-41.833943913029152
42
-0.41421356237309503
10
-132.18084999999996
20
-40.333943913029145
10
-132.18084999999996
20
-33.334293913029157
42
-0.41421356237309592
10
-130.68084999999996
20
-31.834293913029157
10
-116.67984999999999
20
-31.834293913029171
42
-0.41421356237309592
0
LWPOLYLINE
5
141
100
AcDbEntity
8
0
100
AcDbPolyline
90
8
70
1
43
0.0
10
-38.981549999999991
20
-33.334293913029157
10
-38.981549999999984
20
-40.333943913029145
42
-0.41421356237309503
10
-40.481549999999984
20
-41.833943913029152
10
-54.480849999999982
20
-41.833943913029152
42
-0.41421356237309503
10
-55.980849999999982
20
-40.333943913029145
10
-55.980849999999975
20
-33.334293913029157
42
-0.41421356237309592
10
-54.480849999999982
20
-31.834293913029157
10
-40.481549999999999
20
-31.83429391302916
42
-0.41421356237309592
0
LWPOLYLINE
5
142
100
AcDbEntity
8
0
100
AcDbPolyline
90
8
70
1
43
0.0
10
-255.67385000000004
20
-71.43429391302918
10
-255.67385000000002
20
-78.433943913029196
42
-0.41421356237309337
10
-257.17385000000002
20
-79.933943913029196
10
-271.17484999999999
20
-79.933943913029168
42
-0.41421356237309503
10
-272.67484999999999
20
-78.433943913029196
10
-272.67484999999999
20
-71.434293913029151
42
-0.41421356237309337
10
-271.17484999999999
20
-69.934293913029165
10
-257.17385000000002
20
-69.934293913029194
42
-0.41421356237309503
0
LWPOLYLINE
5
143
100
AcDbEntity
8
0
100
AcDbPolyline
90
8
70
1
43
0.0
10
-167.56885
20
-71.43429391302918
10
-167.56884999999997
20
-78.433943913029196
42
-0.41421356237309337
10
-169.06885
20
-79.933943913029196
10
-183.06885
20
-79.933943913029168
42
-0.41421356237309503
10
-184.56885
20
-78.433943913029196
10
-184.56885
20
-71.434293913029151
42
-0.41421356237309337
10
-183.06885
20
-69.934293913029165
10
-169.06885000000003
20
-69.934293913029151
42
-0.41421356237309503
0
LWPOLYLINE
5
144
100
AcDbEntity
8
0
100
AcDbPolyline
90
8
70
1
43
0.0
10
-91.369049999999987
20
-71.43429391302918
10
-91.369049999999987
20
-78.433943913029196
42
-0.41421356237309337
10
-92.869049999999987
20
-79.933943913029196
10
-106.86885000000001
20
-79.933943913029196
42
-0.41421356237309503
10
-108.36885000000001
20
-78.433943913029196
10
-108.36885000000001
20
-71.434293913029151
42
-0.41421356237309337
10
-106.86885000000001
20
-69.934293913029165
10
-92.869049999999987
20
-69.934293913029165
42
-0.41421356237309503
0
LWPOLYLINE
5
145
100
AcDbEntity
8
0
100
AcDbPolyline
90
8
70
1
43
0.0
10
-8.0238799999999681
20
-71.43429391302918
10
-8.0238799999999735
20
-78.433943913029196
42
-0.41421356237309243
10
-9.5238799999999735
20
-79.933943913029196
10
-23.524749999999983
20
-79.933943913029196
42
-0.4142135623730942
10
-25.024749999999976
20
-78.433943913029196
10
-25.024749999999983
20
-71.434293913029165
42
-0.41421356237309243
10
-23.524749999999983
20
-69.934293913029165
10
-9.5238799999999735
20
-69.934293913029165
42
-0.4142135623730942
0
LWPOLYLINE
5
146
100
AcDbEntity
8
0
100
AcDbPolyline
90
8
70
1
43
0.0
10
-67.556550000000001
20
-52.384293913029161
10
-67.556549999999987
20
-59.383943913029178
42
-0.41421356237309681
10
-69.056549999999987
20
-60.883943913029192
10
-83.055849999999964
20
-60.883943913029192
42
-0.41421356237309503
10
-84.555849999999978
20
-59.383943913029185
10
-84.555849999999978
20
-52.384293913029168
42
-0.41421356237309681
10
-83.055849999999964
20
-50.884293913029161
10
-69.056549999999987
20
-50.884293913029168
42
-0.41421356237309503
0
LWPOLYLINE
5
147
100
AcDbEntity
8
0
100
AcDbPolyline
90
8
70
1
43
0.0
10
-143.75685000000001
20
-52.384293913029161
10
-143.75684999999999
20
-59.383943913029178
42
-0.41421356237309681
10
-145.25684999999999
20
-60.883943913029192
10
-159.25584999999995
20
-60.883943913029192
42
-0.41421356237309503
10
-160.75584999999995
20
-59.383943913029185
10
-160.75584999999995
20
-52.384293913029168
42
-0.41421356237309681
10
-159.25584999999995
20
-50.884293913029161
10
-145.25684999999999
20
-50.884293913029175
42
-0.41421356237309503
0
LWPOLYLINE
5
148
100
AcDbEntity
8
0
100
AcDbPolyline
90
8
70
1
43
0.0
10
-219.95684999999997
20
-52.384293913029161
10
-219.95684999999995
20
-59.383943913029178
42
-0.41421356237309681
10
-221.45684999999997
20
-60.883943913029192
10
-235.45585
20
-60.883943913029171
42
-0.41421356237309503
10
-236.95584999999997
20
-59.383943913029185
10
-236.95585
20
-52.384293913029168
42
-0.41421356237309681
10
-235.45585
20
-50.884293913029161
10
-221.45684999999997
20
-50.884293913029175
42
-0.41421356237309503
0
LWPOLYLINE
5
149
100
AcDbEntity
8
0
100
AcDbPolyline
90
8
70
1
43
0.0
10
-310.44385
20
-52.384293913029161
10
-310.44385
20
-59.383943913029178
42
-0.41421356237309681
10
-311.94385
20
-60.883943913029192
10
-325.94385
20
-60.883943913029171
42
-0.41421356237309503
10
-327.44385
20
-59.383943913029185
10
-327.44385
20
-52.384293913029168
42
-0.41421356237309681
10
-325.94385
20
-50.884293913029161
10
-311.94385000000005
20
-50.88429391302914
42
-0.41421356237309503
0
LWPOLYLINE
5
150
100
AcDbEntity
8
0
100
AcDbPolyline
90
8
70
1
43
0.0
10
-291.39384999999999
20
-52.384293913029161
10
-291.39384999999999
20
-59.383943913029178
42
-0.41421356237309681
10
-292.89384999999999
20
-60.883943913029192
10
-306.89384999999999
20
-60.883943913029171
42
-0.41421356237309503
10
-308.39384999999999
20
-59.383943913029185
10
-308.39384999999999
20
-52.384293913029168
42
-0.41421356237309681
10
-306.89384999999999
20
-50.884293913029161
10
-292.89384999999999
20
-50.884293913029175
42
-0.41421356237309503
0
LWPOLYLINE
5
151
100
AcDbEntity
8
0
100
AcDbPolyline
90
8
70
1
43
0.0
10
-200.90685000000002
20
-52.384293913029161
10
-200.90685000000002
20
-59.383943913029178
42
-0.41421356237309681
10
-202.40684999999999
20
-60.883943913029192
10
-216.40584999999993
20
-60.883943913029171
42
-0.41421356237309503
10
-217.90584999999993
20
-59.383943913029185
10
-217.90584999999999
20
-52.384293913029168
42
-0.41421356237309681
10
-216.40584999999999
20
-50.884293913029161
10
-202.40684999999999
20
-50.884293913029175
42
-0.41421356237309503
0
LWPOLYLINE
5
152
100
AcDbEntity
8
0
100
AcDbPolyline
90
8
70
1
43
0.0
10
-124.70685
20
-52.384293913029161
10
-124.70684999999997
20
-59.383943913029178
42
-0.41421356237309681
10
-126.20684999999997
20
-60.883943913029192
10
-140.20584999999997
20
-60.883943913029192
42
-0.41421356237309503
10
-141.70584999999997
20
-59.383943913029185
10
-141.70584999999997
20
-52.384293913029168
42
-0.41421356237309681
10
-140.20584999999997
20
-50.884293913029161
10
-126.20684999999997
20
-50.884293913029175
42
-0.41421356237309503
0
LWPOLYLINE
5
153
100
AcDbEntity
8
0
100
AcDbPolyline
90
8
70
1
43
0.0
10
-48.506549999999997
20
-52.384293913029161
10
-48.50654999999999
20
-59.383943913029178
42
-0.41421356237309681
10
-50.00654999999999
20
-60.883943913029192
10
-64.005849999999981
20
-60.883943913029192
42
-0.41421356237309503
10
-65.505849999999995
20
-59.383943913029185
10
-65.505849999999995
20
-52.384293913029168
42
-0.41421356237309681
10
-64.005849999999981
20
-50.884293913029161
10
-50.00654999999999
20
-50.884293913029168
42
-0.41421356237309503
0
LWPOLYLINE
5
154
100
AcDbEntity
8
0
100
AcDbPolyline
90
8
70
1
43
0.0
10
-34.219049999999989
20
-71.43429391302918
10
-34.219049999999974
20
-78.433943913029196
42
-0.41421356237309243
10
-35.719049999999974
20
-79.933943913029196
10
-49.718349999999987
20
-79.933943913029196
42
-0.41421356237309503
10
-51.218349999999987
20
-78.433943913029196
10
-51.218349999999987
20
-71.434293913029151
42
-0.41421356237309337
10
-49.718349999999987
20
-69.934293913029165
10
-35.719049999999974
20
-69.934293913029194
42
-0.41421356237309503
0
LWPOLYLINE
5
155
100
AcDbEntity
8
0
100
AcDbPolyline
90
8
70
1
43
0.0
10
-110.41884999999996
20
-71.43429391302918
10
-110.41884999999999
20
-78.433943913029196
42
-0.41421356237309337
10
-111.91884999999999
20
-79.933943913029196
10
-125.91884999999999
20
-79.933943913029196
42
-0.41421356237309503
10
-127.41884999999999
20
-78.433943913029196
10
-127.41884999999999
20
-71.434293913029151
42
-0.41421356237309337
10
-125.91884999999999
20
-69.934293913029165
10
-111.91884999999999
20
-69.934293913029151
42
-0.41421356237309503
0
LWPOLYLINE
5
156
100
AcDbEntity
8
0
100
AcDbPolyline
90
8
70
1
43
0.0
10
-186.61884999999998
20
-71.43429391302918
10
-186.61884999999998
20
-78.433943913029196
42
-0.41421356237309337
10
-188.11884999999995
20
-79.933943913029196
10
-202.11884999999995
20
-79.933943913029168
42
-0.41421356237309503
10
-203.61884999999995
20
-78.433943913029196
10
-203.61885000000001
20
-71.434293913029151
42
-0.41421356237309337
10
-202.11884999999998
20
-69.934293913029165
10
-188.11884999999995
20
-69.934293913029194
42
-0.41421356237309503
0
LWPOLYLINE
5
157
100
AcDbEntity
8
0
100
AcDbPolyline
90
8
70
1
43
0.0
10
-224.71885
20
-71.43429391302918
10
-224.71885
20
-78.433943913029196
42
-0.41421356237309337
10
-226.21884999999997
20
-79.933943913029196
10
-240.21884999999997
20
-79.933943913029168
42
-0.41421356237309503
10
-241.71884999999997
20
-78.433943913029196
10
-241.71884999999997
20
-71.434293913029151
42
-0.41421356237309337
10
-240.21884999999997
20
-69.934293913029165
10
-226.21884999999997
20
-69.934293913029194
42
-0.41421356237309503
0
LWPOLYLINE
5
158
100
AcDbEntity
8
0
100
AcDbPolyline
90
8
70
1
43
0.0
10
-148.51884999999999
20
-71.434293913029165
10
-148.51884999999999
20
-78.433943913029196
42
-0.41421356237309337
10
-150.01884999999999
20
-79.933943913029196
10
-164.01884999999999
20
-79.933943913029168
42
-0.41421356237309503
10
-165.51884999999999
20
-78.433943913029196
10
-165.51884999999999
20
-71.434293913029151
42
-0.41421356237309337
10
-164.01884999999999
20
-69.934293913029165
10
-150.01884999999999
20
-69.93429391302918
42
-0.41421356237309503
0
LWPOLYLINE
5
159
100
AcDbEntity
8
0
100
AcDbPolyline
90
8
70
1
43
0.0
10
-72.319049999999976
20
-71.43429391302918
10
-72.319049999999976
20
-78.433943913029196
42
-0.41421356237309337
10
-73.819049999999976
20
-79.933943913029196
10
-87.818349999999981
20
-79.933943913029196
42
-0.41421356237309503
10
-89.318349999999981
20
-78.433943913029196
10
-89.318349999999981
20
-71.434293913029151
42
-0.41421356237309337
10
-87.818349999999981
20
-69.934293913029165
10
-73.819049999999976
20
-69.934293913029165
42
-0.41421356237309503
0
LWPOLYLINE
5
160
100
AcDbEntity
8
0
100
AcDbPolyline
90
8
70
1
43
0.0
10
-5.644009999999966
20
-52.384293913029161
10
-5.644009999999974
20
-59.383943913029178
42
-0.41421356237309531
10
-7.1440099999999696
20
-60.883943913029192
10
-21.14354999999998
20
-60.883943913029185
42
-0.41421356237309503
10
-22.64354999999998
20
-59.383943913029185
10
-22.643549999999983
20
-52.384293913029168
42
-0.41421356237309681
10
-21.14354999999998
20
-50.884293913029161
10
-7.1440099999999873
20
-50.884293913029154
42
-0.41421356237309681
0
LWPOLYLINE
5
161
100
AcDbEntity
8
0
100
AcDbPolyline
90
8
70
1
43
0.0
10
-86.606549999999984
20
-52.384293913029161
10
-86.606549999999984
20
-59.383943913029178
42
-0.41421356237309681
10
-88.106549999999984
20
-60.883943913029192
10
-102.10584999999998
20
-60.883943913029192
42
-0.41421356237309503
10
-103.60584999999999
20
-59.383943913029185
10
-103.60584999999999
20
-52.384293913029168
42
-0.41421356237309681
10
-102.10584999999998
20
-50.884293913029161
10
-88.106549999999984
20
-50.884293913029161
42
-0.41421356237309503
0
LWPOLYLINE
5
162
100
AcDbEntity
8
0
100
AcDbPolyline
90
8
70
1
43
0.0
10
-162.80685
20
-52.384293913029161
10
-162.80685
20
-59.383943913029178
42
-0.41421356237309681
10
-164.30684999999997
20
-60.883943913029192
10
-178.30584999999999
20
-60.883943913029171
42
-0.41421356237309503
10
-179.80584999999996
20
-59.383943913029185
10
-179.80584999999996
20
-52.384293913029168
42
-0.41421356237309681
10
-178.30584999999999
20
-50.884293913029161
10
-164.30684999999997
20
-50.884293913029175
42
-0.41421356237309503
0
LWPOLYLINE
5
163
100
AcDbEntity
8
0
100
AcDbPolyline
90
8
70
1
43
0.0
10
-239.00684999999999
20
-52.384293913029161
10
-239.00684999999996
20
-59.383943913029178
42
-0.41421356237309681
10
-240.50684999999999
20
-60.883943913029192
10
-254.50585000000001
20
-60.883943913029171
42
-0.41421356237309503
10
-256.00585000000001
20
-59.383943913029185
10
-256.00585000000001
20
-52.384293913029168
42
-0.41421356237309681
10
-254.50585000000001
20
-50.884293913029161
10
-240.50684999999999
20
-50.884293913029175
42
-0.41421356237309503
0
LWPOLYLINE
5
164
100
AcDbEntity
8
0
100
AcDbPolyline
90
8
70
1
43
0.0
10
-329.49385000000001
20
-52.384293913029161
10
-329.49385000000001
20
-59.383943913029178
42
-0.41421356237309681
10
-330.99384999999995
20
-60.883943913029192
10
-344.99384999999995
20
-60.883943913029171
42
-0.41421356237309503
10
-346.49384999999995
20
-59.383943913029185
10
-346.49384999999995
20
-52.384293913029168
42
-0.41421356237309681
10
-344.99384999999995
20
-50.884293913029161
10
-330.99384999999995
20
-50.884293913029175
42
-0.41421356237309503
0
LWPOLYLINE
5
165
100
AcDbEntity
8
0
100
AcDbPolyline
90
8
70
1
43
0.0
10
-262.81885
20
-52.384293913029161
10
-262.81885
20
-59.383943913029178
42
-0.41421356237309681
10
-264.31885
20
-60.883943913029192
10
-278.31885
20
-60.883943913029171
42
-0.41421356237309503
10
-279.81885
20
-59.383943913029185
10
-279.81885
20
-52.384293913029168
42
-0.41421356237309681
10
-278.31885
20
-50.884293913029161
10
-264.31885
20
-50.884293913029175
42
-0.41421356237309503
0
LWPOLYLINE
5
166
100
AcDbEntity
8
0
100
AcDbPolyline
90
8
70
1
43
0.0
10
-181.85685000000001
20
-52.384293913029161
10
-181.85685000000001
20
-59.383943913029178
42
-0.41421356237309681
10
-183.35684999999998
20
-60.883943913029192
10
-197.35585
20
-60.883943913029171
42
-0.41421356237309503
10
-198.85584999999998
20
-59.383943913029185
10
-198.85584999999998
20
-52.384293913029168
42
-0.41421356237309681
10
-197.35585
20
-50.884293913029161
10
-183.35684999999998
20
-50.884293913029175
42
-0.41421356237309503
0
LWPOLYLINE
5
167
100
AcDbEntity
8
0
100
AcDbPolyline
90
8
70
1
43
0.0
10
-105.65684999999999
20
-52.384293913029161
10
-105.65684999999996
20
-59.383943913029178
42
-0.41421356237309681
10
-107.15684999999996
20
-60.883943913029192
10
-121.15584999999997
20
-60.883943913029192
42
-0.41421356237309503
10
-122.65584999999999
20
-59.383943913029185
10
-122.65584999999999
20
-52.384293913029168
42
-0.41421356237309681
10
-121.15584999999997
20
-50.884293913029161
10
-107.15684999999996
20
-50.884293913029175
42
-0.41421356237309503
0
LWPOLYLINE
5
168
100
AcDbEntity
8
0
100
AcDbPolyline
90
8
70
1
43
0.0
10
-29.456549999999986
20
-52.384293913029161
10
-29.456549999999979
20
-59.383943913029178
42
-0.41421356237309681
10
-30.956549999999979
20
-60.883943913029192
10
-44.955849999999984
20
-60.883943913029192
42
-0.41421356237309503
10
-46.455849999999984
20
-59.383943913029185
10
-46.455849999999984
20
-52.384293913029168
42
-0.41421356237309681
10
-44.955849999999984
20
-50.884293913029161
10
-30.956549999999979
20
-50.884293913029168
42
-0.41421356237309503
0
LWPOLYLINE
5
169
100
AcDbEntity
8
0
100
AcDbPolyline
90
8
70
1
43
0.0
10
-53.269049999999993
20
-71.43429391302918
10
-53.269049999999979
20
-78.433943913029196
42
-0.41421356237309337
10
-54.769049999999986
20
-79.933943913029196
10
-68.768349999999984
20
-79.933943913029196
42
-0.41421356237309503
10
-70.268349999999984
20
-78.433943913029196
10
-70.268349999999998
20
-71.434293913029151
42
-0.41421356237309337
10
-68.768349999999984
20
-69.934293913029165
10
-54.769049999999986
20
-69.93429391302918
42
-0.41421356237309503
0
LWPOLYLINE
5
170
100
AcDbEntity
8
0
100
AcDbPolyline
90
8
70
1
43
0.0
10
-129.46884999999997
20
-71.43429391302918
10
-129.46884999999997
20
-78.433943913029196
42
-0.41421356237309337
10
-130.96884999999997
20
-79.933943913029196
10
-144.96884999999997
20
-79.933943913029196
42
-0.41421356237309503
10
-146.46884999999997
20
-78.433943913029196
10
-146.46884999999997
20
-71.434293913029151
42
-0.41421356237309337
10
-144.96884999999997
20
-69.934293913029165
10
-130.96884999999997
20
-69.934293913029194
42
-0.41421356237309503
0
LWPOLYLINE
5
171
100
AcDbEntity
8
0
100
AcDbPolyline
90
8
70
1
43
0.0
10
-205.66885000000002
20
-71.43429391302918
10
-205.66884999999999
20
-78.433943913029196
42
-0.41421356237309337
10
-207.16885000000002
20
-79.933943913029196
10
-221.16884999999999
20
-79.933943913029168
42
-0.41421356237309503
10
-222.66884999999999
20
-78.433943913029196
10
-222.66885000000002
20
-71.434293913029151
42
-0.41421356237309337
10
-221.16884999999999
20
-69.934293913029165
10
-207.16885000000002
20
-69.934293913029194
42
-0.41421356237309503
0
LWPOLYLINE
5
172
100
AcDbEntity
8
0
100
AcDbPolyline
90
8
70
1
43
0.0
10
-12.787749999999996
20
-90.48439391302918
10
-12.787749999999974
20
-97.48409391302917
42
-0.41421356237308898
10
-14.287749999999981
20
-98.984093913029142
10
-28.287249999999986
20
-98.98409391302917
42
-0.41421356237309159
10
-29.787249999999986
20
-97.48409391302917
10
-29.78724999999999
20
-90.48439391302918
42
-0.41421356237309503
10
-28.287249999999986
20
-88.984393913029166
10
-14.287749999999981
20
-88.98439391302918
42
-0.41421356237309592
0
LWPOLYLINE
5
173
100
AcDbEntity
8
0
100
AcDbPolyline
90
8
70
1
43
0.0
10
-43.744049999999987
20
-90.48439391302918
10
-43.744049999999973
20
-97.48409391302917
42
-0.41421356237308815
10
-45.24404999999998
20
-98.984093913029142
10
-59.243349999999978
20
-98.98409391302917
42
-0.41421356237309159
10
-60.743349999999978
20
-97.48409391302917
10
-60.743349999999985
20
-90.48439391302918
42
-0.41421356237309503
10
-59.243349999999985
20
-88.984393913029166
10
-45.24404999999998
20
-88.98439391302918
42
-0.41421356237309503
0
LWPOLYLINE
5
174
100
AcDbEntity
8
0
100
AcDbPolyline
90
8
70
1
43
0.0
10
-177.09384999999997
20
-90.48439391302918
10
-177.09384999999997
20
-97.48409391302917
42
-0.41421356237308815
10
-178.59384999999997
20
-98.984093913029142
10
-192.59384999999995
20
-98.984093913029142
42
-0.41421356237309159
10
-194.09384999999992
20
-97.48409391302917
10
-194.09385
20
-90.48439391302918
42
-0.41421356237309503
10
-192.59384999999997
20
-88.984393913029166
10
-178.59384999999997
20
-88.98439391302918
42
-0.41421356237309503
0
LWPOLYLINE
5
175
100
AcDbEntity
8
0
100
AcDbPolyline
90
8
70
1
43
0.0
10
-250.91184999999999
20
-90.48439391302918
10
-250.91184999999996
20
-97.484093913029199
42
-0.41421356237308815
10
-252.41184999999999
20
-98.98409391302917
10
-266.41184999999996
20
-98.984093913029142
42
-0.41421356237309159
10
-267.91184999999996
20
-97.48409391302917
10
-267.91184999999996
20
-90.484393913029152
42
-0.41421356237309503
10
-266.41184999999996
20
-88.984393913029152
10
-252.41184999999999
20
-88.98439391302918
42
-0.41421356237309503
0
LWPOLYLINE
5
176
100
AcDbEntity
8
0
100
AcDbPolyline
90
8
70
1
43
0.0
10
-158.04384999999999
20
-90.48439391302918
10
-158.04384999999999
20
-97.48409391302917
42
-0.41421356237308815
10
-159.54384999999999
20
-98.984093913029142
10
-173.54384999999996
20
-98.984093913029142
42
-0.41421356237309159
10
-175.04384999999999
20
-97.48409391302917
10
-175.04384999999999
20
-90.48439391302918
42
-0.41421356237309503
10
-173.54385000000002
20
-88.984393913029166
10
-159.54384999999999
20
-88.984393913029166
42
-0.41421356237309503
0
LWPOLYLINE
5
177
100
AcDbEntity
8
0
100
AcDbPolyline
90
8
70
1
43
0.0
10
-100.89384999999996
20
-90.48439391302918
10
-100.89384999999999
20
-97.48409391302917
42
-0.41421356237308815
10
-102.39384999999999
20
-98.984093913029142
10
-116.39384999999999
20
-98.98409391302917
42
-0.41421356237309159
10
-117.89384999999999
20
-97.48409391302917
10
-117.89384999999999
20
-90.48439391302918
42
-0.41421356237309503
10
-116.39384999999999
20
-88.984393913029166
10
-102.39384999999999
20
-88.984393913029152
42
-0.41421356237309503
0
LWPOLYLINE
5
178
100
AcDbEntity
8
0
100
AcDbPolyline
90
8
70
1
43
0.0
10
-62.794049999999999
20
-90.48439391302918
10
-62.794049999999984
20
-97.48409391302917
42
-0.41421356237308815
10
-64.294049999999999
20
-98.984093913029142
10
-78.29334999999999
20
-98.98409391302917
42
-0.41421356237309159
10
-79.79334999999999
20
-97.48409391302917
10
-79.793349999999975
20
-90.48439391302918
42
-0.41421356237309503
10
-78.293349999999975
20
-88.984393913029166
10
-64.294049999999999
20
-88.98439391302918
42
-0.41421356237309503
0
LWPOLYLINE
5
179
100
AcDbEntity
8
0
100
AcDbPolyline
90
8
70
1
43
0.0
10
-119.94384999999997
20
-90.48439391302918
10
-119.94384999999997
20
-97.48409391302917
42
-0.41421356237308815
10
-121.44384999999998
20
-98.984093913029142
10
-135.44385000000003
20
-98.98409391302917
42
-0.41421356237309159
10
-136.94385000000003
20
-97.48409391302917
10
-136.94385
20
-90.48439391302918
42
-0.41421356237309503
10
-135.44385
20
-88.984393913029166
10
-121.44384999999997
20
-88.98439391302918
42
-0.41421356237309503
0
LWPOLYLINE
5
180
100
AcDbEntity
8
0
100
AcDbPolyline
90
8
70
1
43
0.0
10
-196.14385000000001
20
-90.48439391302918
10
-196.14384999999999
20
-97.48409391302917
42
-0.41421356237308815
10
-197.64385000000001
20
-98.984093913029142
10
-211.64384999999996
20
-98.984093913029142
42
-0.41421356237309159
10
-213.14384999999999
20
-97.48409391302917
10
-213.14385000000001
20
-90.48439391302918
42
-0.41421356237309503
10
-211.64384999999999
20
-88.984393913029166
10
-197.64385000000001
20
-88.98439391302918
42
-0.41421356237309503
0
LWPOLYLINE
5
181
100
AcDbEntity
8
0
100
AcDbPolyline
90
8
70
1
43
0.0
10
-215.19385000000003
20
-90.48439391302918
10
-215.19385
20
-97.48409391302917
42
-0.41421356237308815
10
-216.69385000000003
20
-98.984093913029142
10
-230.69384999999997
20
-98.984093913029142
42
-0.41421356237309159
10
-232.19385
20
-97.48409391302917
10
-232.19385000000003
20
-90.48439391302918
42
-0.41421356237309503
10
-230.69385
20
-88.984393913029166
10
-216.69385000000003
20
-88.98439391302918
42
-0.41421356237309503
0
LWPOLYLINE
5
182
100
AcDbEntity
8
0
100
AcDbPolyline
90
8
70
1
43
0.0
10
-310.44385
20
-90.48439391302918
10
-310.44385
20
-97.48409391302917
42
-0.41421356237308815
10
-311.94385
20
-98.984093913029142
10
-325.94385
20
-98.984093913029142
42
-0.41421356237309159
10
-327.44385
20
-97.48409391302917
10
-327.44385
20
-90.48439391302918
42
-0.41421356237309503
10
-325.94385
20
-88.984393913029166
10
-311.94385000000005
20
-88.984393913029152
42
-0.41421356237309503
0
LWPOLYLINE
5
183
100
AcDbEntity
8
0
100
AcDbPolyline
90
8
70
1
43
0.0
10
-138.99384999999998
20
-90.48439391302918
10
-138.99384999999998
20
-97.48409391302917
42
-0.41421356237308815
10
-140.49384999999998
20
-98.984093913029142
10
-154.49384999999998
20
-98.98409391302917
42
-0.41421356237309159
10
-155.99384999999998
20
-97.48409391302917
10
-155.99384999999998
20
-90.48439391302918
42
-0.41421356237309503
10
-154.49384999999998
20
-88.984393913029166
10
-140.49384999999998
20
-88.98439391302918
42
-0.41421356237309503
0
LWPOLYLINE
5
184
100
AcDbEntity
8
0
100
AcDbPolyline
90
8
70
1
43
0.0
10
-81.844049999999982
20
-90.48439391302918
10
-81.844049999999982
20
-97.48409391302917
42
-0.41421356237308815
10
-83.344049999999982
20
-98.984093913029142
10
-97.343349999999987
20
-98.98409391302917
42
-0.41421356237309159
10
-98.843349999999987
20
-97.48409391302917
10
-98.843349999999987
20
-90.48439391302918
42
-0.41421356237309503
10
-97.343349999999987
20
-88.984393913029166
10
-83.344049999999982
20
-88.984393913029166
42
-0.41421356237309503
0
ENDSEC
0
SECTION
2
OBJECTS
0
DICTIONARY
5
C
100
AcDbDictionary
3
ACAD_GROUP
350
D
3
ACAD_MLINESTYLE
350
17
0
DICTIONARY
5
D
100
AcDbDictionary
0
DICTIONARY
5
1A
330
C
100
AcDbDictionary
0
DICTIONARY
5
17
100
AcDbDictionary
0
ENDSEC
0
EOF
