0
SECTION
2
HEADER
9
$INSUNITS
70
4
9
$ACADVER
1
AC1014
9
$HANDSEED
5
FFFF
0
ENDSEC
0
SECTION
2
TABLES
0
TABLE
2
VPORT
5
8
100
AcDbSymbolTable
0
ENDTAB
0
TABLE
2
LTYPE
5
5
100
AcDbSymbolTable
0
LTYPE
5
14
100
AcDbSymbolTableRecord
100
AcDbLinetypeTableRecord
2
BYBLOCK
70
0
0
LTYPE
5
15
100
AcDbSymbolTableRecord
100
AcDbLinetypeTableRecord
2
BYLAYER
70
0
0
LTYPE
5
16
100
AcDbSymbolTableRecord
100
AcDbLinetypeTableRecord
2
DASHED
70
0
3
Dashed __ __ __ __ __ __ __ __ __ __ __ __ __ _
72
65
73
2
40
0.75
49
0.5
74
0
49
-0.25
74
0
0
ENDTAB
0
TABLE
2
LAYER
5
2
100
AcDbSymbolTable
70
2
0
LAYER
5
50
100
AcDbSymbolTableRecord
100
AcDbLayerTableRecord
2
0
70
0
62
7
6
CONTINUOUS
0
ENDTAB
0
TABLE
2
STYLE
5
3
100
AcDbSymbolTable
70
1
0
STYLE
5
11
100
AcDbSymbolTableRecord
100
AcDbTextStyleTableRecord
2
STANDARD
70
0
0
ENDTAB
0
TABLE
2
VIEW
5
6
100
AcDbSymbolTable
70
0
0
ENDTAB
0
TABLE
2
UCS
5
7
100
AcDbSymbolTable
70
0
0
ENDTAB
0
TABLE
2
APPID
5
9
100
AcDbSymbolTable
70
2
0
APPID
5
12
100
AcDbSymbolTableRecord
100
AcDbRegAppTableRecord
2
ACAD
70
0
0
ENDTAB
0
TABLE
2
DIMSTYLE
5
A
100
AcDbSymbolTable
70
1
0
ENDTAB
0
TABLE
2
BLOCK_RECORD
5
1
100
AcDbSymbolTable
70
1
0
BLOCK_RECORD
5
1F
100
AcDbSymbolTableRecord
100
AcDbBlockTableRecord
2
*MODEL_SPACE
0
BLOCK_RECORD
5
1B
100
AcDbSymbolTableRecord
100
AcDbBlockTableRecord
2
*PAPER_SPACE
0
ENDTAB
0
ENDSEC
0
SECTION
2
BLOCKS
0
BLOCK
5
20
100
AcDbEntity
100
AcDbBlockBegin
2
*MODEL_SPACE
0
ENDBLK
5
21
100
AcDbEntity
100
AcDbBlockEnd
0
BLOCK
5
1C
100
AcDbEntity
100
AcDbBlockBegin
2
*PAPER_SPACE
0
ENDBLK
5
1D
100
AcDbEntity
100
AcDbBlockEnd
0
ENDSEC
0
SECTION
2
ENTITIES
0
LWPOLYLINE
5
100
100
AcDbEntity
8
0
100
AcDbPolyline
90
4
70
1
43
0.0
10
-260.9786887655975
20
-28.958893873885092
42
0.99999999999999989
10
-260.97868876559698
20
-25.95889387879307
10
-317.66250006214131
20
-25.958893920789002
42
0.99999999999999989
10
-317.66250006214131
20
-28.958893920789016
0
LWPOLYLINE
5
101
100
AcDbEntity
8
0
100
AcDbPolyline
90
22
70
1
43
0.0
10
-250.78185000000033
20
-34.21136815820433
42
0.3853366388572671
10
-250.33156191364523
20
-34.708890746276246
42
-0.38533664232966353
10
-249.88127382729016
20
-35.206413340395045
10
-249.8812739679673
20
-46.838548937865752
42
-0.38533659479238075
10
-250.33156198398382
20
-47.336071512862581
42
0.38533659826476963
10
-250.7818500000003
20
-47.833594093906335
10
-250.78185000000033
20
-49.834593912620079
42
-0.41421356237309503
10
-251.28185000000033
20
-50.334593912620072
10
-282.73085000000032
20
-50.334593912620065
42
-0.41421356237309503
10
-283.23085000000032
20
-49.834593912620058
10
-283.23085000000032
20
-31.83429391262008
42
-0.41421356237310542
10
-282.73085000000032
20
-31.334293912620062
10
-275.33185000000032
20
-31.334293912620055
42
-0.41421356237310542
10
-274.83185000000032
20
-31.83429391262008
10
-274.83185000000032
20
-32.834293912620048
42
0.4142135623730534
10
-274.33185000000032
20
-33.334293912620055
10
-258.78085000000033
20
-33.334293913977334
42
0.41421356237308204
10
-258.28085000000033
20
-32.834293912620055
10
-258.28085000000027
20
-31.834293912620083
42
-0.41421356237310802
10
-257.78085000000027
20
-31.334293912620062
10
-251.28185000000036
20
-31.334293912620055
42
-0.41421356237310542
10
-250.78185000000036
20
-31.83429391262008
0
LWPOLYLINE
5
102
100
AcDbEntity
8
0
100
AcDbPolyline
90
8
70
1
43
0.0
10
-241.0068500000003
20
-66.383593912620114
10
-254.00585000000032
20
-66.383593913977322
42
-0.41421356237309503
10
-254.50585000000032
20
-65.883593913977322
10
-254.50585000000032
20
-52.884293913977331
42
-0.41421356237309503
10
-254.00585000000032
20
-52.384293913977331
10
-241.0068500000003
20
-52.384293913977316
42
-0.41421356237309503
10
-240.5068500000003
20
-52.884293913977331
10
-240.50685000135752
20
-65.883593913977322
42
-0.41421356237308982
0
LWPOLYLINE
5
103
100
AcDbEntity
8
0
100
AcDbPolyline
90
82
70
1
43
0.0
10
-298.36763947156396
20
-125.73170091073898
10
-222.78433167968953
20
-125.73170091073898
42
-0.26935266418579601
10
-221.91570016524759
20
-126.23624224231318
10
-219.53349031469057
20
-130.41270070812692
42
0.51162832760068278
10
-214.87348083629215
20
-130.41270070816222
10
-212.4912709856236
20
-126.23624224230001
42
-0.26935266418173426
10
-211.62263947118916
20
-125.73170091073899
10
-204.26185000000032
20
-125.73170091073898
42
0.41421356237310542
10
-203.76185000000035
20
-125.23170091073897
10
-203.76185000000032
20
-124.03375391397731
42
0.41421356237310542
10
-204.26185000000032
20
-123.53375391397728
10
-208.76185000000027
20
-123.53375391397732
42
-0.41421356237309503
10
-209.26185000000029
20
-123.03375391397731
10
-209.26185000000032
20
-110.03429391397732
42
-0.41421356237310542
10
-208.76185000000032
20
-109.53429391397731
10
-204.76185000000029
20
-109.53429391397732
42
0.41421356237310542
10
-203.76185000000027
20
-108.53429391397732
10
-203.76185000000027
20
-108.28429391262003
42
-0.41421356237309503
10
-202.76185000000029
20
-107.28429391262003
10
-196.21252444640987
20
-107.28429391262
42
-0.41421356591530051
10
-195.21252444640982
20
-108.28429392471386
10
-195.21252462536728
20
-123.08169974909671
42
0.41421356239619039
10
-194.2125246373823
20
-124.08169976119054
10
-185.78702459670228
20
-124.08169986242596
42
0.41421356234999446
10
-184.78702458468729
20
-123.08169987451981
10
-184.78702440573002
20
-108.28429390052618
42
-0.41421355883088956
10
-183.78702440573005
20
-107.28429391262003
10
-177.7868500000003
20
-107.28429391262
42
-0.41421356237309503
10
-176.7868500000003
20
-108.28429391262003
10
-176.7868500000003
20
-124.73170091205336
42
0.4142135623730846
10
-175.7868500000003
20
-125.73170091205334
10
-90.581024482165304
20
-125.73170091073898
42
0.41421356237310025
10
-89.58102448216529
20
-124.73170091205334
10
-89.58102448216529
20
-108.28429391262
42
-0.41421356237308982
10
-88.58102448216529
20
-107.28429391262003
10
-77.7868500000003
20
-107.28429391262009
42
-0.41421356237309503
10
-76.7868500000003
20
-108.28429391262007
10
-76.7868500000003
20
-124.73170091073899
42
0.41421356237308982
10
-75.7868500000003
20
-125.73170091073898
10
-49.295145130439053
20
-125.73170091073899
42
-0.26935266418579124
10
-48.426513615997123
20
-126.23624224231318
10
-46.044303764690483
20
-130.41270070944114
42
0.511628327600681
10
-41.384294286292004
20
-130.4127007094765
10
-39.002084435391438
20
-126.23624224320739
42
-0.26935266418173071
10
-38.133452920957005
20
-125.73170091164639
10
-2.1779346000002864
20
-125.73170091164639
42
0.41421356237309548
10
-0.17793460000029043
20
-123.73170091164639
10
-0.17793460000029876
20
-1.9748939148846745
42
0.41421356237309354
10
-2.1779346000002882
20
0.025106085115314813
10
-38.133452799618397
20
0.025106085115294829
42
-0.26935266418376119
10
-39.002084314056589
20
0.52964741668288473
10
-41.384294285801033
20
4.7061060948872804
42
0.51162832760067989
10
-46.044303764199441
20
4.7061060948872546
10
-48.426513735426333
20
0.52964741759027223
42
-0.26935266418375964
10
-49.295145249864511
20
0.025106086022679136
10
-124.87845280013595
20
0.02510608602268094
42
-0.26935266418375975
10
-125.74708431457412
20
0.52964741759026535
10
-128.12929428580105
20
4.7061060948873674
42
0.51162832760067922
10
-132.78930376419947
20
4.7061060948873221
10
-135.1715137354264
20
0.52964741759026812
42
-0.26935266418376086
10
-136.04014524986457
20
0.025106086022678858
10
-211.62263935013598
20
0.0251060860227037
42
-0.26935266418376214
10
-212.49127086457418
20
0.52964741759029332
10
-214.8734808358011
20
4.7061060948874562
42
0.51162832760067811
10
-219.53349031419958
20
4.7061060948875113
10
-221.91570028542654
20
0.52964741759028477
42
-0.26935266418376047
10
-222.78433179986473
20
0.025106086022696761
10
-298.36763935013596
20
0.025106086022720908
42
-0.26935266418376225
10
-299.23627086457418
20
0.52964741759031064
10
-301.61848083580111
20
4.7061060948875451
42
0.51162832760067811
10
-306.27849031419959
20
4.7061060948876001
10
-308.66070028542657
20
0.52964741759028477
42
-0.26935266418376025
10
-309.52933179986479
20
0.025106086022697455
10
-345.32085000000029
20
0.025106086022706475
42
0.41421356237307411
10
-347.32085000000035
20
-1.9748939139772914
10
-347.32085000000035
20
-123.73170091073899
42
0.4142135623730846
10
-345.32085000000029
20
-125.73170091073894
10
-309.52933167931474
20
-125.73170091073898
42
-0.26935266418579601
10
-308.66070016487276
20
-126.23624224231318
10
-306.2784903146906
20
-130.41270070746981
42
0.51162832760068211
10
-301.61848083629218
20
-130.41270070750505
10
-299.23627098599843
20
-126.23624224229999
42
-0.26935266418173426
0
LWPOLYLINE
5
104
100
AcDbEntity
8
0
100
AcDbPolyline
90
8
70
1
43
0.0
10
-264.81877295619745
20
-123.53334276095593
10
-280.19985002303247
20
-123.53334127357306
42
-0.41421354888120138
10
-280.69985000000037
20
-123.03334127357304
10
-280.69985000000037
20
-110.03429391397731
42
-0.41421356237309503
10
-280.19985000000031
20
-109.53429391397731
10
-264.81877293316529
20
-109.53429391397731
42
-0.41421356237309503
10
-264.31877293316529
20
-110.03429391397731
10
-264.31877215429898
20
-123.03334198208961
42
-0.41421357586499752
0
LWPOLYLINE
5
105
100
AcDbEntity
8
0
100
AcDbPolyline
90
8
70
1
43
0.0
10
-230.69385000000028
20
-103.98379391397731
10
-230.69385000000028
20
-90.984393913977314
42
-0.41421356237309503
10
-230.19385000000028
20
-90.4843939139773
10
-217.19385000000031
20
-90.4843939139773
42
-0.41421356237309503
10
-216.69385000000031
20
-90.984393913977314
10
-216.69385000000031
20
-103.98379391397731
42
-0.41421356237309503
10
-217.19385000000031
20
-104.48379391397731
10
-230.19385000000028
20
-104.48379391397731
42
-0.41421356237309503
0
LWPOLYLINE
5
106
100
AcDbEntity
8
0
100
AcDbPolyline
90
8
70
1
43
0.0
10
-211.64385000000033
20
-103.98379391397731
10
-211.64385000000033
20
-90.984393913977314
42
-0.41421356237309503
10
-211.1438500000003
20
-90.4843939139773
10
-198.14385000000033
20
-90.4843939139773
42
-0.41421356237309503
10
-197.64385000000033
20
-90.984393913977314
10
-197.64385000000033
20
-103.98379391397731
42
-0.41421356237309503
10
-198.14385000000033
20
-104.48379391397731
10
-211.1438500000003
20
-104.48379391397731
42
-0.41421356237309503
0
LWPOLYLINE
5
107
100
AcDbEntity
8
0
100
AcDbPolyline
90
8
70
1
43
0.0
10
-123.82385000000029
20
-110.03429391397732
10
-123.82385000000029
20
-123.03429391262007
42
-0.41421356237309503
10
-124.32385000000031
20
-123.53429391262009
10
-149.23127293316429
20
-123.53429391262006
42
-0.41421356237309503
10
-149.73127293316429
20
-123.03429391262006
10
-149.73127293316429
20
-110.03429391397731
42
-0.4142135623730846
10
-149.23127293316429
20
-109.53429391397732
10
-124.32385000000032
20
-109.53429391397731
42
-0.41421356237309503
0
CIRCLE
5
108
100
AcDbEntity
8
0
100
AcDbCircle
10
-204.64407371815358
20
-14.582839874136315
30
1.6583956430338276e-14
40
1.1000000000000005
210
-5.9106020696509432e-33
220
1.1379786002407857e-15
230
1
0
CIRCLE
5
109
100
AcDbEntity
8
0
100
AcDbCircle
10
-118.91920666976031
20
-14.581592828896067
30
1.6306400674181987e-14
40
1.1000000000000005
210
-5.9106020696509432e-33
220
1.1379786002407857e-15
230
1
0
LWPOLYLINE
5
110
100
AcDbEntity
8
0
100
AcDbPolyline
90
4
70
1
43
0.0
10
-250.97868876559747
20
-25.958893878767864
42
1.0000011050751854
10
-250.97868876553679
20
-28.95889387391037
10
-180.96250006214095
20
-28.958893920810599
42
0.99999999999999989
10
-180.96250006214095
20
-25.958893920789066
0
CIRCLE
5
111
100
AcDbEntity
8
0
100
AcDbCircle
10
-258.50612181420712
20
-59.383820140262017
30
6.7654215563095477e-14
40
1.2999999999999901
210
-1.230997615626405e-32
220
1.1241008124329712e-15
230
1
0
CIRCLE
5
112
100
AcDbEntity
8
0
100
AcDbCircle
10
-43.714299025000223
20
3.0251060948872279
30
-3.4694469519536142e-15
40
1.100000000000003
210
-1.2309976156265802e-32
220
1.1241008124329712e-15
230
1
0
CIRCLE
5
113
100
AcDbEntity
8
0
100
AcDbCircle
10
-303.94848557500035
20
3.0251060948874935
30
-3.4000580129145419e-15
40
1.0999999999999941
210
-3.8179454612823309e-32
220
1.1102230246251567e-15
230
1
0
CIRCLE
5
114
100
AcDbEntity
8
0
100
AcDbCircle
10
-130.45929902500023
20
3.025106094887299
30
-3.4000580129145419e-15
40
1.0999999999999941
210
-3.8179454612823309e-32
220
1.1102230246251567e-15
230
1
0
CIRCLE
5
115
100
AcDbEntity
8
0
100
AcDbCircle
10
-217.20348557500034
20
3.0251060948874047
30
-3.4694469519536142e-15
40
1.0999999999999941
210
-3.8179454612823309e-32
220
1.1102230246251567e-15
230
1
0
LWPOLYLINE
5
116
100
AcDbEntity
8
0
100
AcDbPolyline
90
4
70
1
43
0.0
10
-22.762500062141488
20
-24.508893920789092
10
-17.762500062141502
20
-24.508893920789077
42
-0.99999999999999989
10
-17.762500062141484
20
-30.408893920789076
10
-22.762500062141498
20
-30.408893920789062
42
-0.99999999999999989
0
LWPOLYLINE
5
117
100
AcDbEntity
8
0
100
AcDbPolyline
90
4
70
1
43
0.0
10
-325.16250000000025
20
-30.408893920789048
42
0.99999999999999989
10
-325.16250000000025
20
-24.508893920789067
10
-330.16250000000025
20
-24.508893920789067
42
0.99999999999999989
10
-330.16250000000025
20
-30.408893920789058
0
CIRCLE
5
118
100
AcDbEntity
8
0
100
AcDbCircle
10
-9.3024751102895564
20
-27.44043995255727
30
3.1016855750465311e-14
40
1.1000000000000005
210
-5.9106020696509432e-33
220
1.1379786002407857e-15
230
1
0
CIRCLE
5
119
100
AcDbEntity
8
0
100
AcDbCircle
10
-296.9950866927586
20
-74.42489304843933
30
8.4307560932472825e-14
40
1.1000000000000005
210
-5.9106020696509432e-33
220
1.1379786002407857e-15
230
1
0
CIRCLE
5
120
100
AcDbEntity
8
0
100
AcDbCircle
10
-337.99487912657077
20
-27.458669721395982
30
3.1571967262777889e-14
40
1.1000000000000005
210
-5.9106020696509432e-33
220
1.1379786002407857e-15
230
1
0
LWPOLYLINE
5
121
100
AcDbEntity
8
0
100
AcDbPolyline
90
8
70
1
43
0.0
10
-330.99385000000035
20
-8.0843939139773262
10
-330.99385000000035
20
-21.083393913977307
42
-0.41421356237309503
10
-331.49385000000029
20
-21.583393913977304
10
-344.49385000000035
20
-21.583393913977279
42
-0.41421356237309503
10
-344.99385000000029
20
-21.083393913977307
10
-344.99385000000029
20
-8.0843939139773262
42
-0.41421356237309437
10
-344.49385000000035
20
-7.5843939139773262
10
-331.49385000000029
20
-7.5843939139773555
42
-0.41421356237309503
0
LWPOLYLINE
5
122
100
AcDbEntity
8
0
100
AcDbPolyline
90
8
70
1
43
0.0
10
-311.94385000000034
20
-8.0843939139773262
10
-311.94385000000034
20
-21.083393913977307
42
-0.41421356237309503
10
-312.44385000000034
20
-21.583393913977304
10
-325.44385000000034
20
-21.583393913977279
42
-0.41421356237309503
10
-325.94385000000034
20
-21.083393913977307
10
-325.94385000000034
20
-8.0843939139773262
42
-0.41421356237309437
10
-325.44385000000034
20
-7.5843939139773262
10
-312.44385000000034
20
-7.58439391397732
42
-0.41421356237309503
0
LWPOLYLINE
5
123
100
AcDbEntity
8
0
100
AcDbPolyline
90
8
70
1
43
0.0
10
-292.89385000000033
20
-8.0843939139773262
10
-292.89385000000033
20
-21.083393913977307
42
-0.41421356237309503
10
-293.39385000000033
20
-21.583393913977304
10
-306.39385000000027
20
-21.583393913977314
42
-0.41421356237309503
10
-306.89385000000027
20
-21.083393913977307
10
-306.89385000000027
20
-8.0843939139773262
42
-0.41421356237309437
10
-306.39385000000027
20
-7.5843939139773262
10
-293.39385000000033
20
-7.58439391397732
42
-0.41421356237309503
0
LWPOLYLINE
5
124
100
AcDbEntity
8
0
100
AcDbPolyline
90
8
70
1
43
0.0
10
-269.08185000000032
20
-8.0843939139773262
10
-269.08185000000032
20
-21.083393913977307
42
-0.41421356237309503
10
-269.58185000000032
20
-21.583393913977304
10
-282.58085000000034
20
-21.583393913977314
42
-0.41421356237309503
10
-283.08085000000034
20
-21.083393913977307
10
-283.08085000000034
20
-8.0843939139773262
42
-0.41421356237309437
10
-282.58085000000034
20
-7.5843939139773262
10
-269.58185000000032
20
-7.58439391397732
42
-0.41421356237309503
0
LWPOLYLINE
5
125
100
AcDbEntity
8
0
100
AcDbPolyline
90
8
70
1
43
0.0
10
-250.0318500000003
20
-8.0843939139773262
10
-250.0318500000003
20
-21.083393913977307
42
-0.41421356237309503
10
-250.5318500000003
20
-21.583393913977304
10
-263.53085000000033
20
-21.583393913977314
42
-0.41421356237309503
10
-264.03085000000033
20
-21.083393913977307
10
-264.03085000000033
20
-8.0843939139773262
42
-0.41421356237309437
10
-263.53085000000033
20
-7.5843939139773262
10
-250.5318500000003
20
-7.58439391397732
42
-0.41421356237309503
0
LWPOLYLINE
5
126
100
AcDbEntity
8
0
100
AcDbPolyline
90
8
70
1
43
0.0
10
-230.98185000000029
20
-8.0843939139773262
10
-230.98185000000029
20
-21.083393913977307
42
-0.41421356237309503
10
-231.48185000000029
20
-21.583393913977304
10
-244.48085000000032
20
-21.583393913977314
42
-0.41421356237309503
10
-244.98085000000032
20
-21.083393913977307
10
-244.98085000000032
20
-8.0843939139773262
42
-0.41421356237309437
10
-244.48085000000032
20
-7.5843939139773262
10
-231.48185000000029
20
-7.5843939139773191
42
-0.41421356237309503
0
LWPOLYLINE
5
127
100
AcDbEntity
8
0
100
AcDbPolyline
90
8
70
1
43
0.0
10
-211.93185000000028
20
-8.0843939139773262
10
-211.93185000000028
20
-21.083393913977307
42
-0.41421356237309503
10
-212.43185000000028
20
-21.583393913977304
10
-225.43085000000031
20
-21.583393913977314
42
-0.41421356237309503
10
-225.93085000000031
20
-21.083393913977307
10
-225.93085000000031
20
-8.0843939139773262
42
-0.41421356237309503
10
-225.43085000000031
20
-7.5843939139773253
10
-212.43185000000028
20
-7.5843939139773191
42
-0.41421356237309503
0
LWPOLYLINE
5
128
100
AcDbEntity
8
0
100
AcDbPolyline
90
8
70
1
43
0.0
10
-183.35685000000029
20
-8.0843939139773262
10
-183.35685000000029
20
-21.083393913977307
42
-0.41421356237309503
10
-183.85685000000029
20
-21.583393913977304
10
-196.85585000000029
20
-21.583393913977314
42
-0.41421356237309503
10
-197.35585000000029
20
-21.083393913977307
10
-197.35585000000029
20
-8.0843939139773262
42
-0.41421356237309503
10
-196.85585000000029
20
-7.5843939139773253
10
-183.85685000000029
20
-7.5843939139773191
42
-0.41421356237309503
0
LWPOLYLINE
5
129
100
AcDbEntity
8
0
100
AcDbPolyline
90
8
70
1
43
0.0
10
-164.30685000000028
20
-8.084393913977344
10
-164.30685000000028
20
-21.083393913977325
42
-0.41421356237309503
10
-164.80685000000028
20
-21.583393913977321
10
-177.80585000000031
20
-21.583393913977314
42
-0.41421356237309503
10
-178.30585000000031
20
-21.083393913977307
10
-178.30585000000031
20
-8.0843939139773262
42
-0.41421356237309503
10
-177.80585000000031
20
-7.5843939139773253
10
-164.80685000000028
20
-7.5843939139773369
42
-0.41421356237309503
0
LWPOLYLINE
5
130
100
AcDbEntity
8
0
100
AcDbPolyline
90
8
70
1
43
0.0
10
-145.25685000000033
20
-8.084393913977344
10
-145.25685000000033
20
-21.083393913977325
42
-0.41421356237309503
10
-145.75685000000033
20
-21.583393913977321
10
-158.75585000000029
20
-21.583393913977332
42
-0.41421356237309503
10
-159.25585000000029
20
-21.083393913977325
10
-159.25585000000029
20
-8.084393913977344
42
-0.41421356237309503
10
-158.75585000000029
20
-7.5843939139773431
10
-145.75685000000033
20
-7.5843939139773369
42
-0.41421356237309503
0
LWPOLYLINE
5
131
100
AcDbEntity
8
0
100
AcDbPolyline
90
8
70
1
43
0.0
10
-126.2068500000003
20
-8.084393913977344
10
-126.2068500000003
20
-21.083393913977325
42
-0.41421356237309503
10
-126.70685000000032
20
-21.583393913977321
10
-139.70585000000028
20
-21.583393913977332
42
-0.41421356237309503
10
-140.20585000000028
20
-21.083393913977325
10
-140.20585000000028
20
-8.084393913977344
42
-0.41421356237309503
10
-139.70585000000028
20
-7.5843939139773431
10
-126.70685000000032
20
-7.5843939139773369
42
-0.41421356237309503
0
LWPOLYLINE
5
132
100
AcDbEntity
8
0
100
AcDbPolyline
90
8
70
1
43
0.0
10
-97.630150000000313
20
-8.0843939139773422
10
-97.630150000000313
20
-21.083393913977325
42
-0.41421356237309503
10
-98.130150000000327
20
-21.583393913977321
10
-111.13085000000029
20
-21.583393913977332
42
-0.41421356237309503
10
-111.63085000000031
20
-21.083393913977325
10
-111.63085000000031
20
-8.084393913977344
42
-0.4142135623730957
10
-111.13085000000029
20
-7.5843939139773422
10
-98.130150000000327
20
-7.5843939139773351
42
-0.41421356237309503
0
LWPOLYLINE
5
133
100
AcDbEntity
8
0
100
AcDbPolyline
90
8
70
1
43
0.0
10
-78.581550000000277
20
-8.0843939139773422
10
-78.581550000000291
20
-21.083393913977325
42
-0.41421356237309503
10
-79.081550000000291
20
-21.583393913977321
10
-92.080850000000282
20
-21.583393913977332
42
-0.41421356237309503
10
-92.580850000000297
20
-21.083393913977325
10
-92.580850000000297
20
-8.084393913977344
42
-0.4142135623730957
10
-92.080850000000282
20
-7.5843939139773422
10
-79.081550000000277
20
-7.584393913977344
42
-0.41421356237309503
0
LWPOLYLINE
5
134
100
AcDbEntity
8
0
100
AcDbPolyline
90
8
70
1
43
0.0
10
-59.531550000000294
20
-8.0843939139773422
10
-59.531550000000301
20
-21.083393913977325
42
-0.41421356237309503
10
-60.031550000000294
20
-21.583393913977321
10
-73.030850000000299
20
-21.583393913977321
42
-0.41421356237309503
10
-73.530850000000299
20
-21.083393913977325
10
-73.530850000000285
20
-8.084393913977344
42
-0.4142135623730957
10
-73.030850000000285
20
-7.5843939139773422
10
-60.031550000000287
20
-7.584393913977344
42
-0.41421356237309503
0
LWPOLYLINE
5
135
100
AcDbEntity
8
0
100
AcDbPolyline
90
8
70
1
43
0.0
10
-40.48155000000029
20
-8.0843939139773422
10
-40.481550000000297
20
-21.083393913977325
42
-0.41421356237309503
10
-40.981550000000297
20
-21.583393913977321
10
-53.980850000000302
20
-21.583393913977321
42
-0.41421356237309503
10
-54.480850000000302
20
-21.083393913977325
10
-54.480850000000288
20
-8.084393913977344
42
-0.4142135623730957
10
-53.980850000000295
20
-7.5843939139773422
10
-40.981550000000283
20
-7.584393913977344
42
-0.41421356237309503
0
LWPOLYLINE
5
136
100
AcDbEntity
8
0
100
AcDbPolyline
90
8
70
1
43
0.0
10
-15.88105000000029
20
-7.5843939139773218
10
-2.8815000000002899
20
-7.5843939139773431
42
-0.41421356237309537
10
-2.3815000000002895
20
-8.0843939139773422
10
-2.3815000000002913
20
-21.083393913977325
42
-0.41421356237309503
10
-2.8815000000002895
20
-21.583393913977321
10
-15.88105000000029
20
-21.583393913977325
42
-0.41421356237309503
10
-16.38105000000029
20
-21.083393913977325
10
-16.381050000000311
20
-8.084393913977344
42
-0.4142135623730957
0
LWPOLYLINE
5
137
100
AcDbEntity
8
0
100
AcDbPolyline
90
8
70
1
43
0.0
10
-244.98085000000032
20
-46.833593913977325
10
-244.98085000000034
20
-33.834293913977341
42
-0.41421356237309503
10
-244.48085000000034
20
-33.334293913977341
10
-231.48185000000026
20
-33.334293913977334
42
-0.41421356237309503
10
-230.98185000000026
20
-33.834293913977341
10
-230.98185000000032
20
-46.833593913977325
42
-0.41421356237309503
10
-231.48185000000035
20
-47.333593913977325
10
-244.48085000000026
20
-47.333593913977367
42
-0.41421356237309503
0
LWPOLYLINE
5
138
100
AcDbEntity
8
0
100
AcDbPolyline
90
8
70
1
43
0.0
10
-212.43185000000034
20
-47.33359391397731
10
-225.43085000000025
20
-47.333593913977332
42
-0.41421356237309503
10
-225.93085000000028
20
-46.833593913977325
10
-225.93085000000033
20
-33.834293913977341
42
-0.41421356237309503
10
-225.43085000000033
20
-33.334293913977341
10
-212.43185000000025
20
-33.334293913977334
42
-0.41421356237309503
10
-211.93185000000025
20
-33.834293913977341
10
-211.93185000000034
20
-46.833593913977325
42
-0.41421356237309503
0
LWPOLYLINE
5
139
100
AcDbEntity
8
0
100
AcDbPolyline
90
8
70
1
43
0.0
10
-193.38185000000033
20
-47.33359391397731
10
-206.38085000000024
20
-47.333593913977332
42
-0.41421356237309503
10
-206.88085000000027
20
-46.833593913977325
10
-206.88085000000032
20
-33.834293913977341
42
-0.41421356237309503
10
-206.38085000000032
20
-33.334293913977341
10
-193.38185000000033
20
-33.334293913977334
42
-0.41421356237309503
10
-192.8818500000003
20
-33.834293913977341
10
-192.88185000000033
20
-46.833593913977325
42
-0.41421356237309503
0
LWPOLYLINE
5
140
100
AcDbEntity
8
0
100
AcDbPolyline
90
8
70
1
43
0.0
10
-174.33185000000032
20
-47.33359391397731
10
-187.33085000000023
20
-47.333593913977332
42
-0.41421356237309503
10
-187.83085000000025
20
-46.833593913977325
10
-187.83085000000031
20
-33.834293913977341
42
-0.41421356237309503
10
-187.33085000000031
20
-33.334293913977341
10
-174.33185000000032
20
-33.334293913977348
42
-0.41421356237309503
10
-173.83185000000029
20
-33.834293913977355
10
-173.83185000000032
20
-46.833593913977325
42
-0.41421356237309503
0
LWPOLYLINE
5
141
100
AcDbEntity
8
0
100
AcDbPolyline
90
8
70
1
43
0.0
10
-155.2818500000003
20
-47.33359391397731
10
-168.2808500000003
20
-47.333593913977332
42
-0.41421356237309503
10
-168.7808500000003
20
-46.833593913977325
10
-168.7808500000003
20
-33.834293913977355
42
-0.41421356237309503
10
-168.2808500000003
20
-33.334293913977355
10
-155.28185000000033
20
-33.334293913977348
42
-0.41421356237309503
10
-154.78185000000033
20
-33.834293913977355
10
-154.7818500000003
20
-46.833593913977325
42
-0.41421356237309503
0
LWPOLYLINE
5
142
100
AcDbEntity
8
0
100
AcDbPolyline
90
8
70
1
43
0.0
10
-136.23185000000029
20
-47.33359391397731
10
-149.23085000000029
20
-47.333593913977332
42
-0.41421356237309503
10
-149.73085000000029
20
-46.833593913977325
10
-149.73085000000029
20
-33.834293913977355
42
-0.41421356237309503
10
-149.23085000000029
20
-33.334293913977355
10
-136.23185000000032
20
-33.334293913977348
42
-0.41421356237309503
10
-135.73185000000032
20
-33.834293913977355
10
-135.73185000000029
20
-46.833593913977325
42
-0.41421356237309503
0
LWPOLYLINE
5
143
100
AcDbEntity
8
0
100
AcDbPolyline
90
8
70
1
43
0.0
10
-117.17985000000033
20
-47.33359391397731
10
-130.18085000000033
20
-47.333593913977332
42
-0.41421356237309503
10
-130.68085000000033
20
-46.833593913977325
10
-130.68085000000028
20
-33.834293913977355
42
-0.41421356237309503
10
-130.18085000000031
20
-33.334293913977355
10
-117.17985000000029
20
-33.334293913977348
42
-0.41421356237309503
10
-116.67985000000029
20
-33.834293913977355
10
-116.67985000000033
20
-46.833593913977325
42
-0.41421356237309503
0
LWPOLYLINE
5
144
100
AcDbEntity
8
0
100
AcDbPolyline
90
8
70
1
43
0.0
10
-98.130150000000299
20
-47.33359391397731
10
-111.13085000000032
20
-47.333593913977332
42
-0.41421356237309503
10
-111.63085000000032
20
-46.833593913977325
10
-111.63085000000027
20
-33.834293913977355
42
-0.41421356237309503
10
-111.13085000000028
20
-33.334293913977355
10
-98.130150000000341
20
-33.334293913977348
42
-0.41421356237309503
10
-97.630150000000327
20
-33.834293913977355
10
-97.630150000000313
20
-46.833593913977325
42
-0.41421356237309503
0
LWPOLYLINE
5
145
100
AcDbEntity
8
0
100
AcDbPolyline
90
8
70
1
43
0.0
10
-79.081550000000291
20
-47.333593913977325
10
-92.080850000000311
20
-47.333593913977332
42
-0.41421356237309503
10
-92.580850000000311
20
-46.833593913977325
10
-92.580850000000254
20
-33.834293913977355
42
-0.41421356237309503
10
-92.080850000000268
20
-33.334293913977355
10
-79.081550000000291
20
-33.334293913977355
42
-0.41421356237309503
10
-78.581550000000291
20
-33.834293913977355
10
-78.581550000000306
20
-46.833593913977332
42
-0.41421356237309503
0
LWPOLYLINE
5
146
100
AcDbEntity
8
0
100
AcDbPolyline
90
8
70
1
43
0.0
10
-60.03155000000028
20
-47.333593913977325
10
-73.030850000000314
20
-47.333593913977332
42
-0.41421356237309503
10
-73.530850000000314
20
-46.833593913977332
10
-73.530850000000314
20
-33.834293913977355
42
-0.41421356237309503
10
-73.030850000000314
20
-33.334293913977355
10
-60.03155000000028
20
-33.334293913977355
42
-0.41421356237309503
10
-59.53155000000028
20
-33.834293913977355
10
-59.531550000000294
20
-46.833593913977332
42
-0.41421356237309503
0
LWPOLYLINE
5
147
100
AcDbEntity
8
0
100
AcDbPolyline
90
8
70
1
43
0.0
10
-40.981550000000283
20
-47.333593913977325
10
-53.980850000000302
20
-47.333593913977332
42
-0.41421356237309503
10
-54.480850000000302
20
-46.833593913977332
10
-54.480850000000302
20
-33.834293913977355
42
-0.41421356237309503
10
-53.980850000000302
20
-33.334293913977355
10
-40.981550000000283
20
-33.334293913977355
42
-0.41421356237309503
10
-40.48155000000029
20
-33.834293913977355
10
-40.481550000000297
20
-46.833593913977332
42
-0.41421356237309503
0
LWPOLYLINE
5
148
100
AcDbEntity
8
0
100
AcDbPolyline
90
8
70
1
43
0.0
10
-21.931550000000271
20
-47.333593913977325
10
-34.930850000000284
20
-47.333593913977332
42
-0.41421356237309503
10
-35.430850000000284
20
-46.833593913977332
10
-35.430850000000284
20
-33.834293913977355
42
-0.41421356237309503
10
-34.930850000000284
20
-33.334293913977355
10
-21.931550000000325
20
-33.334293913977355
42
-0.41421356237309503
10
-21.431550000000325
20
-33.834293913977355
10
-21.431550000000282
20
-46.833593913977332
42
-0.41421356237309503
0
LWPOLYLINE
5
149
100
AcDbEntity
8
0
100
AcDbPolyline
90
8
70
1
43
0.0
10
-16.38105000000029
20
-46.833593913977332
10
-16.381050000000265
20
-33.834293913977355
42
-0.41421356237309503
10
-15.881050000000268
20
-33.334293913977355
10
-2.8815000000002966
20
-33.334293913977355
42
-0.4142135623730947
10
-2.3815000000002975
20
-33.834293913977355
10
-2.3815000000002993
20
-46.833593913977332
42
-0.41421356237309503
10
-2.8815000000002975
20
-47.333593913977332
10
-15.881050000000286
20
-47.333593913977339
42
-0.41421356237309503
0
LWPOLYLINE
5
150
100
AcDbEntity
8
0
100
AcDbPolyline
90
8
70
1
43
0.0
10
-344.99385000000029
20
-46.83359391397731
10
-344.99385000000029
20
-33.834293913977319
42
-0.41421356237309503
10
-344.49385000000035
20
-33.334293913977319
10
-331.49385000000029
20
-33.334293913977369
42
-0.41421356237309503
10
-330.99385000000035
20
-33.834293913977341
10
-330.99385000000035
20
-46.83359391397731
42
-0.41421356237309503
10
-331.49385000000029
20
-47.33359391397731
10
-344.49385000000035
20
-47.333593913977282
42
-0.41421356237309503
0
LWPOLYLINE
5
151
100
AcDbEntity
8
0
100
AcDbPolyline
90
8
70
1
43
0.0
10
-306.89385000000027
20
-46.83359391397731
10
-306.89385000000033
20
-33.834293913977341
42
-0.41421356237309503
10
-306.39385000000033
20
-33.334293913977341
10
-293.39385000000038
20
-33.334293913977334
42
-0.41421356237309503
10
-292.89385000000033
20
-33.834293913977341
10
-292.89385000000027
20
-46.83359391397731
42
-0.41421356237309503
10
-293.39385000000027
20
-47.33359391397731
10
-306.39385000000027
20
-47.333593913977353
42
-0.41421356237309503
0
LWPOLYLINE
5
152
100
AcDbEntity
8
0
100
AcDbPolyline
90
8
70
1
43
0.0
10
-312.44385000000028
20
-47.333593913977303
10
-325.44385000000034
20
-47.333593913977282
42
-0.41421356237309503
10
-325.94385000000034
20
-46.83359391397731
10
-325.94385000000034
20
-33.834293913977341
42
-0.41421356237309503
10
-325.44385000000034
20
-33.334293913977341
10
-312.44385000000034
20
-33.334293913977334
42
-0.41421356237309503
10
-311.94385000000034
20
-33.834293913977341
10
-311.94385000000034
20
-46.83359391397731
42
-0.41421356237309503
0
LWPOLYLINE
5
153
100
AcDbEntity
8
0
100
AcDbPolyline
90
8
70
1
43
0.0
10
-344.99385000000029
20
-65.883593913977307
10
-344.99385000000029
20
-52.884293913977309
42
-0.41421356237308982
10
-344.49385000000035
20
-52.384293913977316
10
-331.49385000000029
20
-52.384293913977345
42
-0.41421356237309503
10
-330.99385000000035
20
-52.884293913977316
10
-330.99385000000035
20
-65.883593913977307
42
-0.41421356237309503
10
-331.49385000000029
20
-66.383593913977307
10
-344.49385000000035
20
-66.383593913977279
42
-0.41421356237309503
0
LWPOLYLINE
5
154
100
AcDbEntity
8
0
100
AcDbPolyline
90
8
70
1
43
0.0
10
-312.44385000000028
20
-66.383593913977307
10
-325.44385000000034
20
-66.383593913977279
42
-0.41421356237309503
10
-325.94385000000034
20
-65.883593913977307
10
-325.94385000000034
20
-52.884293913977309
42
-0.41421356237308982
10
-325.44385000000034
20
-52.384293913977316
10
-312.44385000000034
20
-52.384293913977309
42
-0.41421356237309503
10
-311.94385000000034
20
-52.884293913977316
10
-311.94385000000028
20
-65.883593913977307
42
-0.41421356237309503
0
LWPOLYLINE
5
155
100
AcDbEntity
8
0
100
AcDbPolyline
90
7
70
1
43
0.0
10
-293.39385000000033
20
-66.383593913977307
10
-306.39385000000027
20
-66.383593913977307
42
-0.41421356237309503
10
-306.89385000000027
20
-65.883593913977307
10
-306.89385000000027
20
-52.884293913977309
42
-0.41421356237308982
10
-306.39385000000027
20
-52.384293913977316
10
-292.89385000000033
20
-52.384293913977309
10
-292.89385000000033
20
-65.883593913977307
42
-0.41421356237309503
0
LWPOLYLINE
5
156
100
AcDbEntity
8
0
100
AcDbPolyline
90
8
70
1
43
0.0
10
-264.81885000000034
20
-66.3835939126201
10
-277.81885000000034
20
-66.383593913977307
42
-0.41421356237309503
10
-278.31885000000034
20
-65.883593913977307
10
-278.31885000000034
20
-52.884293913977309
42
-0.41421356237308982
10
-277.81885000000034
20
-52.384293913977316
10
-264.81885000000034
20
-52.384293913977309
42
-0.41421356237309503
10
-264.31885000000034
20
-52.884293913977316
10
-264.31885000135753
20
-65.883593913977307
42
-0.41421356237309503
0
LWPOLYLINE
5
157
100
AcDbEntity
8
0
100
AcDbPolyline
90
8
70
1
43
0.0
10
-221.95685000000029
20
-66.383593912620029
10
-234.95585000000031
20
-66.383593913977322
42
-0.41421356237309503
10
-235.45585000000031
20
-65.883593913977322
10
-235.45585000000031
20
-52.884293913977331
42
-0.41421356237309503
10
-234.95585000000031
20
-52.384293913977331
10
-221.95685000000029
20
-52.384293913977316
42
-0.41421356237309503
10
-221.45685000000029
20
-52.884293913977331
10
-221.45685000135757
20
-65.883593913977322
42
-0.41421356237308982
0
LWPOLYLINE
5
158
100
AcDbEntity
8
0
100
AcDbPolyline
90
8
70
1
43
0.0
10
-202.9068500000003
20
-66.383593913977322
10
-215.9058500000003
20
-66.383593913977322
42
-0.41421356237309503
10
-216.4058500000003
20
-65.883593913977322
10
-216.4058500000003
20
-52.884293913977331
42
-0.41421356237309503
10
-215.9058500000003
20
-52.384293913977331
10
-202.9068500000003
20
-52.384293913977316
42
-0.41421356237309503
10
-202.4068500000003
20
-52.884293913977331
10
-202.4068500000003
20
-65.883593913977322
42
-0.41421356237308982
0
LWPOLYLINE
5
159
100
AcDbEntity
8
0
100
AcDbPolyline
90
8
70
1
43
0.0
10
-183.85685000000029
20
-66.383593913977322
10
-196.85585000000029
20
-66.383593913977322
42
-0.41421356237309503
10
-197.35585000000029
20
-65.883593913977322
10
-197.35585000000029
20
-52.884293913977331
42
-0.41421356237309503
10
-196.85585000000029
20
-52.384293913977331
10
-183.85685000000029
20
-52.384293913977316
42
-0.41421356237309503
10
-183.35685000000029
20
-52.884293913977331
10
-183.35685000000029
20
-65.883593913977322
42
-0.41421356237308982
0
LWPOLYLINE
5
160
100
AcDbEntity
8
0
100
AcDbPolyline
90
8
70
1
43
0.0
10
-164.80685000000028
20
-66.383593913977322
10
-177.80585000000031
20
-66.383593913977322
42
-0.41421356237309503
10
-178.30585000000031
20
-65.883593913977322
10
-178.30585000000031
20
-52.884293913977331
42
-0.41421356237309503
10
-177.80585000000031
20
-52.384293913977331
10
-164.80685000000028
20
-52.384293913977316
42
-0.41421356237309503
10
-164.30685000000028
20
-52.884293913977331
10
-164.30685000000028
20
-65.883593913977322
42
-0.41421356237308982
0
LWPOLYLINE
5
161
100
AcDbEntity
8
0
100
AcDbPolyline
90
8
70
1
43
0.0
10
-145.75685000000033
20
-66.383593913977322
10
-158.75585000000029
20
-66.383593913977322
42
-0.41421356237309503
10
-159.25585000000029
20
-65.883593913977322
10
-159.25585000000029
20
-52.884293913977331
42
-0.41421356237309503
10
-158.75585000000029
20
-52.384293913977331
10
-145.75685000000033
20
-52.384293913977316
42
-0.41421356237309503
10
-145.25685000000033
20
-52.884293913977331
10
-145.25685000000033
20
-65.883593913977322
42
-0.41421356237308982
0
LWPOLYLINE
5
162
100
AcDbEntity
8
0
100
AcDbPolyline
90
8
70
1
43
0.0
10
-126.70685000000032
20
-66.383593913977322
10
-139.70585000000028
20
-66.383593913977322
42
-0.41421356237309503
10
-140.20585000000028
20
-65.883593913977322
10
-140.20585000000028
20
-52.884293913977331
42
-0.41421356237309503
10
-139.70585000000028
20
-52.384293913977331
10
-126.70685000000032
20
-52.384293913977316
42
-0.41421356237309503
10
-126.2068500000003
20
-52.884293913977331
10
-126.2068500000003
20
-65.883593913977322
42
-0.41421356237308982
0
LWPOLYLINE
5
163
100
AcDbEntity
8
0
100
AcDbPolyline
90
8
70
1
43
0.0
10
-107.6568500000003
20
-66.383593913977322
10
-120.6558500000003
20
-66.383593913977322
42
-0.41421356237309503
10
-121.15585000000031
20
-65.883593913977322
10
-121.15585000000031
20
-52.884293913977331
42
-0.41421356237309503
10
-120.6558500000003
20
-52.384293913977331
10
-107.6568500000003
20
-52.384293913977316
42
-0.41421356237309503
10
-107.15685000000029
20
-52.884293913977331
10
-107.15685000000029
20
-65.883593913977322
42
-0.41421356237308982
0
LWPOLYLINE
5
164
100
AcDbEntity
8
0
100
AcDbPolyline
90
8
70
1
43
0.0
10
-88.606550000000311
20
-66.383593913977322
10
-101.60585000000029
20
-66.383593913977322
42
-0.41421356237309503
10
-102.1058500000003
20
-65.883593913977322
10
-102.1058500000003
20
-52.884293913977331
42
-0.41421356237309503
10
-101.60585000000029
20
-52.384293913977331
10
-88.606550000000311
20
-52.384293913977316
42
-0.41421356237309503
10
-88.106550000000311
20
-52.884293913977331
10
-88.106550000000311
20
-65.883593913977322
42
-0.41421356237308982
0
LWPOLYLINE
5
165
100
AcDbEntity
8
0
100
AcDbPolyline
90
8
70
1
43
0.0
10
-69.5565500000003
20
-66.383593913977336
10
-82.555850000000277
20
-66.383593913977336
42
-0.41421356237309503
10
-83.055850000000291
20
-65.883593913977322
10
-83.055850000000291
20
-52.884293913977331
42
-0.41421356237308982
10
-82.555850000000277
20
-52.384293913977338
10
-69.5565500000003
20
-52.384293913977338
42
-0.41421356237309503
10
-69.0565500000003
20
-52.884293913977338
10
-69.0565500000003
20
-65.883593913977322
42
-0.41421356237309503
0
LWPOLYLINE
5
166
100
AcDbEntity
8
0
100
AcDbPolyline
90
8
70
1
43
0.0
10
-50.506550000000303
20
-66.383593913977336
10
-63.505850000000301
20
-66.383593913977322
42
-0.41421356237309503
10
-64.005850000000294
20
-65.883593913977322
10
-64.005850000000294
20
-52.884293913977331
42
-0.41421356237308982
10
-63.505850000000301
20
-52.384293913977338
10
-50.506550000000303
20
-52.384293913977338
42
-0.41421356237309503
10
-50.006550000000303
20
-52.884293913977338
10
-50.006550000000296
20
-65.883593913977322
42
-0.41421356237309503
0
LWPOLYLINE
5
167
100
AcDbEntity
8
0
100
AcDbPolyline
90
8
70
1
43
0.0
10
-31.456550000000291
20
-66.383593913977336
10
-44.455850000000297
20
-66.383593913977322
42
-0.41421356237309503
10
-44.955850000000297
20
-65.883593913977322
10
-44.955850000000297
20
-52.884293913977331
42
-0.41421356237308982
10
-44.455850000000297
20
-52.384293913977338
10
-31.456550000000291
20
-52.384293913977338
42
-0.41421356237309503
10
-30.956550000000291
20
-52.884293913977338
10
-30.956550000000284
20
-65.883593913977322
42
-0.41421356237309503
0
LWPOLYLINE
5
168
100
AcDbEntity
8
0
100
AcDbPolyline
90
8
70
1
43
0.0
10
-21.143550000000289
20
-65.883593913977322
10
-21.143550000000289
20
-52.884293913977331
42
-0.41421356237308982
10
-20.643550000000292
20
-52.384293913977338
10
-7.6440100000002875
20
-52.384293913977338
42
-0.4142135623730937
10
-7.1440100000002893
20
-52.884293913977338
10
-7.1440100000002937
20
-65.883593913977322
42
-0.41421356237309503
10
-7.644010000000292
20
-66.383593913977322
10
-20.643550000000292
20
-66.383593913977322
42
-0.41421356237309503
0
CIRCLE
5
169
100
AcDbEntity
8
0
100
AcDbCircle
10
-171.44914070690632
20
-115.07161828586511
30
1.309369279667294e-13
40
1.1000000000000005
210
-5.9106020696509432e-33
220
1.1379786002407857e-15
230
1
0
LWPOLYLINE
5
170
100
AcDbEntity
8
0
100
AcDbPolyline
90
8
70
1
43
0.0
10
-226.21885000000032
20
-71.934293913977314
10
-226.21885000000032
20
-84.933593913977319
42
-0.41421356237309503
10
-226.71885000000032
20
-85.433593913977319
10
-239.71885000000029
20
-85.433593913977319
42
-0.41421356237309503
10
-240.21885000000029
20
-84.933593913977319
10
-240.21885000000029
20
-71.934293913977314
42
-0.41421356237309503
10
-239.71885000000029
20
-71.434293913977328
10
-226.71885000000032
20
-71.434293913977314
42
-0.41421356237309503
0
LWPOLYLINE
5
171
100
AcDbEntity
8
0
100
AcDbPolyline
90
8
70
1
43
0.0
10
-23.024750000000292
20
-71.434293912620021
10
-5.2625226253030615
20
-71.434293913977328
42
-0.41421356237309503
10
-4.7625226253030615
20
-71.934293913977328
10
-4.7625226253030455
20
-84.933346185913592
42
-0.414213562373069
10
-5.2625226253030437
20
-85.433346185913578
10
-23.024750000000296
20
-85.433346185913592
42
-0.41421356237309503
10
-23.524750000000296
20
-84.933346185913592
10
-23.524750001357596
20
-71.934293913977314
42
-0.41421356237308982
0
LWPOLYLINE
5
172
100
AcDbEntity
8
0
100
AcDbPolyline
90
8
70
1
43
0.0
10
-49.218350000000299
20
-71.434293913977328
10
-36.219050000000294
20
-71.434293913977328
42
-0.41421356237309503
10
-35.719050000000301
20
-71.934293913977328
10
-35.719050000000294
20
-84.933593913977333
42
-0.41421356237309503
10
-36.219050000000301
20
-85.433593913977347
10
-49.218350000000299
20
-85.433593913977319
42
-0.41421356237309503
10
-49.718350000000299
20
-84.933593913977333
10
-49.718350000000306
20
-71.934293913977314
42
-0.41421356237308982
0
LWPOLYLINE
5
173
100
AcDbEntity
8
0
100
AcDbPolyline
90
8
70
1
43
0.0
10
-68.268350000000311
20
-71.434293913977328
10
-55.269050000000313
20
-71.434293913977328
42
-0.41421356237309503
10
-54.769050000000313
20
-71.934293913977328
10
-54.769050000000291
20
-84.933593913977333
42
-0.41421356237309503
10
-55.269050000000291
20
-85.433593913977347
10
-68.268350000000297
20
-85.433593913977319
42
-0.41421356237309503
10
-68.768350000000297
20
-84.933593913977333
10
-68.768350000000311
20
-71.934293913977314
42
-0.41421356237308982
0
LWPOLYLINE
5
174
100
AcDbEntity
8
0
100
AcDbPolyline
90
8
70
1
43
0.0
10
-87.318350000000294
20
-71.434293913977314
10
-74.319050000000288
20
-71.434293913977328
42
-0.41421356237309503
10
-73.819050000000288
20
-71.934293913977328
10
-73.819050000000288
20
-84.933593913977333
42
-0.41421356237309503
10
-74.319050000000288
20
-85.433593913977347
10
-87.318350000000294
20
-85.433593913977319
42
-0.41421356237309503
10
-87.818350000000294
20
-84.933593913977319
10
-87.818350000000294
20
-71.934293913977314
42
-0.41421356237309503
0
LWPOLYLINE
5
175
100
AcDbEntity
8
0
100
AcDbPolyline
90
8
70
1
43
0.0
10
-106.36885000000032
20
-71.434293913977314
10
-93.369050000000328
20
-71.434293913977314
42
-0.41421356237309503
10
-92.869050000000328
20
-71.934293913977314
10
-92.869050000000314
20
-84.933593913977319
42
-0.41421356237309503
10
-93.369050000000314
20
-85.433593913977319
10
-106.36885000000029
20
-85.433593913977319
42
-0.41421356237309503
10
-106.86885000000031
20
-84.933593913977319
10
-106.86885000000032
20
-71.934293913977314
42
-0.41421356237309503
0
LWPOLYLINE
5
176
100
AcDbEntity
8
0
100
AcDbPolyline
90
8
70
1
43
0.0
10
-125.4188500000003
20
-71.434293913977314
10
-112.41885000000028
20
-71.434293913977314
42
-0.41421356237309503
10
-111.91885000000028
20
-71.934293913977314
10
-111.91885000000029
20
-84.933593913977319
42
-0.41421356237309503
10
-112.4188500000003
20
-85.433593913977319
10
-125.41885000000029
20
-85.433593913977319
42
-0.41421356237309503
10
-125.9188500000003
20
-84.933593913977319
10
-125.91885000000032
20
-71.934293913977314
42
-0.41421356237309503
0
LWPOLYLINE
5
177
100
AcDbEntity
8
0
100
AcDbPolyline
90
8
70
1
43
0.0
10
-144.46885000000026
20
-71.434293913977314
10
-131.46885000000029
20
-71.434293913977314
42
-0.41421356237309503
10
-130.96885000000029
20
-71.934293913977314
10
-130.96885000000029
20
-84.933593913977319
42
-0.41421356237309503
10
-131.46885000000029
20
-85.433593913977319
10
-144.46885000000029
20
-85.433593913977319
42
-0.41421356237309503
10
-144.96885000000029
20
-84.933593913977319
10
-144.96885000000026
20
-71.934293913977314
42
-0.41421356237309503
0
LWPOLYLINE
5
178
100
AcDbEntity
8
0
100
AcDbPolyline
90
8
70
1
43
0.0
10
-163.51885000000033
20
-71.434293913977314
10
-150.5188500000003
20
-71.434293913977314
42
-0.41421356237309503
10
-150.0188500000003
20
-71.934293913977314
10
-150.0188500000003
20
-84.933593913977319
42
-0.41421356237309503
10
-150.5188500000003
20
-85.433593913977319
10
-163.51885000000033
20
-85.433593913977319
42
-0.41421356237309503
10
-164.01885000000033
20
-84.933593913977319
10
-164.01885000000033
20
-71.934293913977314
42
-0.41421356237309503
0
LWPOLYLINE
5
179
100
AcDbEntity
8
0
100
AcDbPolyline
90
8
70
1
43
0.0
10
-182.56885000000028
20
-71.434293913977314
10
-169.56885000000028
20
-71.434293913977314
42
-0.41421356237309503
10
-169.06885000000028
20
-71.934293913977314
10
-169.06885000000028
20
-84.933593913977319
42
-0.41421356237309503
10
-169.56885000000028
20
-85.433593913977319
10
-182.56885000000028
20
-85.433593913977319
42
-0.41421356237309503
10
-183.06885000000028
20
-84.933593913977319
10
-183.06885000000028
20
-71.934293913977314
42
-0.41421356237309503
0
LWPOLYLINE
5
180
100
AcDbEntity
8
0
100
AcDbPolyline
90
8
70
1
43
0.0
10
-201.61885000000029
20
-71.434293913977314
10
-188.61885000000029
20
-71.434293913977314
42
-0.41421356237309503
10
-188.11885000000029
20
-71.934293913977314
10
-188.11885000000029
20
-84.933593913977319
42
-0.41421356237309503
10
-188.61885000000029
20
-85.433593913977319
10
-201.61885000000029
20
-85.433593913977319
42
-0.41421356237309503
10
-202.11885000000029
20
-84.933593913977319
10
-202.11885000000029
20
-71.934293913977314
42
-0.41421356237309503
0
LWPOLYLINE
5
181
100
AcDbEntity
8
0
100
AcDbPolyline
90
8
70
1
43
0.0
10
-220.6688500000003
20
-71.434293913977314
10
-207.66885000000033
20
-71.434293913977314
42
-0.41421356237309503
10
-207.16885000000033
20
-71.934293913977314
10
-207.16885000000033
20
-84.933593913977319
42
-0.41421356237309503
10
-207.66885000000033
20
-85.433593913977319
10
-220.6688500000003
20
-85.433593913977319
42
-0.41421356237309503
10
-221.1688500000003
20
-84.933593913977319
10
-221.1688500000003
20
-71.934293913977314
42
-0.41421356237309503
0
LWPOLYLINE
5
182
100
AcDbEntity
8
0
100
AcDbPolyline
90
8
70
1
43
0.0
10
-59.243350000000291
20
-103.98379391397732
10
-59.243350000000291
20
-90.984393913977314
42
-0.41421356237309503
10
-58.743350000000291
20
-90.4843939139773
10
-45.744050000000286
20
-90.484393913977328
42
-0.41421356237309503
10
-45.244050000000293
20
-90.984393913977314
10
-45.244050000000286
20
-103.98379391397732
42
-0.41421356237309503
10
-45.744050000000286
20
-104.48379391397734
10
-58.743350000000298
20
-104.48379391397734
42
-0.41421356237309503
0
LWPOLYLINE
5
183
100
AcDbEntity
8
0
100
AcDbPolyline
90
8
70
1
43
0.0
10
-78.293350000000288
20
-103.98379391397732
10
-78.293350000000302
20
-90.984393913977314
42
-0.41421356237309503
10
-77.793350000000302
20
-90.4843939139773
10
-64.794050000000297
20
-90.484393913977328
42
-0.41421356237309503
10
-64.294050000000297
20
-90.984393913977314
10
-64.294050000000297
20
-103.98379391397732
42
-0.41421356237309503
10
-64.794050000000297
20
-104.48379391397734
10
-77.793350000000288
20
-104.48379391397734
42
-0.41421356237309503
0
LWPOLYLINE
5
184
100
AcDbEntity
8
0
100
AcDbPolyline
90
8
70
1
43
0.0
10
-97.343350000000299
20
-103.98379391397732
10
-97.343350000000299
20
-90.984393913977314
42
-0.41421356237309503
10
-96.843350000000299
20
-90.4843939139773
10
-83.844050000000308
20
-90.4843939139773
42
-0.41421356237309503
10
-83.344050000000308
20
-90.984393913977314
10
-83.344050000000308
20
-103.98379391397732
42
-0.41421356237309503
10
-83.844050000000308
20
-104.48379391397734
10
-96.843350000000299
20
-104.48379391397734
42
-0.41421356237309503
0
LWPOLYLINE
5
185
100
AcDbEntity
8
0
100
AcDbPolyline
90
8
70
1
43
0.0
10
-116.39385000000031
20
-103.98379391397732
10
-116.39385000000031
20
-90.984393913977314
42
-0.41421356237309503
10
-115.8938500000003
20
-90.4843939139773
10
-102.89385000000031
20
-90.4843939139773
42
-0.41421356237309503
10
-102.3938500000003
20
-90.984393913977314
10
-102.3938500000003
20
-103.98379391397732
42
-0.41421356237309503
10
-102.89385000000031
20
-104.48379391397734
10
-115.8938500000003
20
-104.48379391397734
42
-0.41421356237309503
0
LWPOLYLINE
5
186
100
AcDbEntity
8
0
100
AcDbPolyline
90
8
70
1
43
0.0
10
-135.44385000000028
20
-103.98379391397731
10
-135.44385000000028
20
-90.984393913977314
42
-0.41421356237309503
10
-134.94385000000028
20
-90.4843939139773
10
-121.94385000000031
20
-90.4843939139773
42
-0.41421356237309503
10
-121.4438500000003
20
-90.984393913977314
10
-121.4438500000003
20
-103.98379391397732
42
-0.41421356237309503
10
-121.94385000000031
20
-104.48379391397734
10
-134.94385000000028
20
-104.48379391397731
42
-0.41421356237309503
0
LWPOLYLINE
5
187
100
AcDbEntity
8
0
100
AcDbPolyline
90
8
70
1
43
0.0
10
-154.49385000000029
20
-103.98379391397731
10
-154.49385000000029
20
-90.984393913977314
42
-0.41421356237309503
10
-153.99385000000029
20
-90.4843939139773
10
-140.99385000000029
20
-90.4843939139773
42
-0.41421356237309503
10
-140.49385000000029
20
-90.984393913977314
10
-140.49385000000029
20
-103.98379391397731
42
-0.41421356237309503
10
-140.99385000000029
20
-104.48379391397731
10
-153.99385000000029
20
-104.48379391397731
42
-0.41421356237309503
0
LWPOLYLINE
5
188
100
AcDbEntity
8
0
100
AcDbPolyline
90
8
70
1
43
0.0
10
-173.54385000000033
20
-103.98379391397731
10
-173.54385000000033
20
-90.984393913977314
42
-0.41421356237309503
10
-173.0438500000003
20
-90.4843939139773
10
-160.0438500000003
20
-90.4843939139773
42
-0.41421356237309503
10
-159.5438500000003
20
-90.984393913977314
10
-159.5438500000003
20
-103.98379391397731
42
-0.41421356237309503
10
-160.0438500000003
20
-104.48379391397731
10
-173.0438500000003
20
-104.48379391397731
42
-0.41421356237309503
0
LWPOLYLINE
5
189
100
AcDbEntity
8
0
100
AcDbPolyline
90
8
70
1
43
0.0
10
-192.59385000000032
20
-103.98379391397731
10
-192.59385000000032
20
-90.984393913977314
42
-0.41421356237309503
10
-192.09385000000029
20
-90.4843939139773
10
-179.09385000000029
20
-90.4843939139773
42
-0.41421356237309503
10
-178.59385000000029
20
-90.984393913977314
10
-178.59385000000029
20
-103.98379391397731
42
-0.41421356237309503
10
-179.09385000000029
20
-104.48379391397731
10
-192.09385000000029
20
-104.48379391397731
42
-0.41421356237309503
0
CIRCLE
5
190
100
AcDbEntity
8
0
100
AcDbCircle
10
-337.9949411704531
20
-97.483294721368452
30
1.1095291352347658e-13
40
1.1000000000000005
210
-5.9106020696509432e-33
220
1.1379786002407857e-15
230
1
0
CIRCLE
5
191
100
AcDbEntity
8
0
100
AcDbCircle
10
-24.869059049437677
20
-116.53357216013993
30
1.3315737401597971e-13
40
1.1000000000000005
210
-5.9106020696509432e-33
220
1.1379786002407857e-15
230
1
0
CIRCLE
5
192
100
AcDbEntity
8
0
100
AcDbCircle
10
-43.71429902547851
20
-128.73170070945875
30
1.4648005031148159e-13
40
1.100000000000003
210
-1.2309976156265802e-32
220
1.1241008124329712e-15
230
1
0
LWPOLYLINE
5
193
100
AcDbEntity
8
0
100
AcDbPolyline
90
8
70
1
43
0.0
10
-52.387850000000292
20
-110.03429391262006
10
-52.387850000000284
20
-123.03334276095595
42
-0.41421356237309503
10
-52.887850000000292
20
-123.53334276095595
10
-68.268772933164499
20
-123.53334276095595
42
-0.41421356237309503
10
-68.768772933164499
20
-123.03334276095595
10
-68.768772933164513
20
-110.03429391262006
42
-0.41421356237309503
10
-68.268772933164499
20
-109.53429391262006
10
-52.887850000000292
20
-109.53429391262006
42
-0.41421356237309503
0
LWPOLYLINE
5
194
100
AcDbEntity
8
0
100
AcDbPolyline
90
8
70
1
43
0.0
10
-44.456272933164485
20
-109.53429391262013
10
-29.073850000000299
20
-109.53429391262006
42
-0.41421356237309503
10
-28.573850000000299
20
-110.03429391262006
10
-28.573850000000292
20
-123.03334276095595
42
-0.41421356237309503
10
-29.073850000000299
20
-123.53334276095595
10
-44.456272933164485
20
-123.53334276095595
42
-0.41421356237309503
10
-44.956272933164485
20
-123.03334276095595
10
-44.956272933164421
20
-110.03429391262006
42
-0.41421356237309503
0
LWPOLYLINE
5
195
100
AcDbEntity
8
0
100
AcDbPolyline
90
8
70
1
43
0.0
10
-217.1937729331643
20
-123.53334276095593
42
0.41421356237309503
10
-216.6937729331643
20
-123.03334276095592
10
-216.69377293316427
20
-110.03429391397731
42
0.41421356237309503
10
-217.19377293316427
20
-109.53429391397732
10
-232.57485000000031
20
-109.53429391397731
42
0.41421356237310542
10
-233.07485000000028
20
-110.03429391397732
10
-233.07485000000028
20
-123.03334276095592
42
0.41421356237309503
10
-232.57485000000028
20
-123.53334276095593
0
CIRCLE
5
196
100
AcDbEntity
8
0
100
AcDbCircle
10
-217.20348557547865
20
-128.7317007081445
30
1.487004963607319e-13
40
1.0999999999999941
210
-3.8179454612823309e-32
220
1.1102230246251567e-15
230
1
0
CIRCLE
5
197
100
AcDbEntity
8
0
100
AcDbCircle
10
-303.94848557547868
20
-128.73170070748739
30
1.4648005031148159e-13
40
1.0999999999999941
210
-3.8179454612823309e-32
220
1.1102230246251567e-15
230
1
0
LWPOLYLINE
5
198
100
AcDbEntity
8
0
100
AcDbPolyline
90
8
70
1
43
0.0
10
-256.88685000000027
20
-123.03334237049917
10
-256.88685000000032
20
-110.03429391397731
42
-0.41421356237309503
10
-256.38685000000032
20
-109.53429391397731
10
-241.00627293316435
20
-109.53429391397731
42
-0.41421356237309503
10
-240.50627293316435
20
-110.03429391397731
10
-240.50627293316435
20
-123.03334307899271
42
-0.4142135758649873
10
-241.00627295619645
20
-123.53334307899273
10
-256.38685002303237
20
-123.5333423704991
42
-0.41421354888121342
0
LWPOLYLINE
5
199
100
AcDbEntity
8
0
100
AcDbPolyline
90
8
70
1
43
0.0
10
-292.89385000000033
20
-110.03429391397731
10
-292.89385000000027
20
-123.03375391397731
42
-0.41421356237309503
10
-293.39385000000027
20
-123.53375391397732
10
-306.39385000000027
20
-123.53375391397732
42
-0.41421356237309503
10
-306.89385000000027
20
-123.03375391397731
10
-306.89385000000033
20
-110.03429391397731
42
-0.41421356237309503
10
-306.39385000000033
20
-109.53429391397731
10
-293.39385000000038
20
-109.53429391397727
42
-0.41421356237309503
0
LWPOLYLINE
5
200
100
AcDbEntity
8
0
100
AcDbPolyline
90
8
70
1
43
0.0
10
-312.44385000000028
20
-123.53375391397732
42
0.41421356237309503
10
-311.94385000000028
20
-123.03375391397731
10
-311.94385000000034
20
-110.03429391397731
42
0.41421356237309503
10
-312.44385000000034
20
-109.53429391397734
10
-325.44385000000034
20
-109.53429391397731
42
0.41421356237309503
10
-325.94385000000034
20
-110.03429391397731
10
-325.94385000000034
20
-123.03375391397731
42
0.41421356237309503
10
-325.44385000000034
20
-123.53375391397732
0
LWPOLYLINE
5
201
100
AcDbEntity
8
0
100
AcDbPolyline
90
8
70
1
43
0.0
10
-331.49385000000029
20
-123.53375391397732
42
0.41421356237309503
10
-330.99385000000035
20
-123.03375391397731
10
-330.99385000000041
20
-110.03429391397731
42
0.41421356237309503
10
-331.49385000000041
20
-109.53429391397734
10
-344.49385000000035
20
-109.53429391397731
42
0.41421356237309503
10
-344.99385000000029
20
-110.03429391397731
10
-344.99385000000029
20
-123.03375391397731
42
0.41421356237309503
10
-344.49385000000035
20
-123.53375391397731
0
LWPOLYLINE
5
202
100
AcDbEntity
8
0
100
AcDbPolyline
90
16
70
1
43
0.0
10
-255.89984999638733
20
-86.184594149311224
42
0.41421355883081151
10
-256.39984999034039
20
-85.684594149311238
10
-271.94885018542482
20
-85.684593961264127
42
0.41421356216854061
10
-272.44885019147176
20
-86.184593954868006
10
-272.44885020106585
20
-86.934593919016123
42
-0.41421355862636117
10
-272.94885020106585
20
-87.434593912620059
10
-279.54985000000033
20
-87.434593912620073
42
-0.41421356237309503
10
-280.04985000000033
20
-86.934593912620073
10
-280.04985000000033
20
-68.584293912620055
42
-0.41421356237309503
10
-279.54985000000033
20
-68.084293912620055
10
-248.89885000000032
20
-68.084293912620055
42
-0.41421356237309503
10
-248.39885000000032
20
-68.584293912620055
10
-248.39885000000032
20
-86.934593912620073
42
-0.41421356237309503
10
-248.89885000000032
20
-87.434593912620073
10
-255.39984999638733
20
-87.434593912620073
42
-0.41421356237309503
10
-255.89984999638733
20
-86.934593912620073
0
LWPOLYLINE
5
203
100
AcDbEntity
8
0
100
AcDbPolyline
90
16
70
1
43
0.0
10
-29.562750000000296
20
-89.984393912620078
42
0.41421356237311063
10
-29.062750000000293
20
-90.484393912620078
10
-13.512250000000295
20
-90.484393912620135
42
0.41421356237309503
10
-13.012250000000288
20
-89.984393912620078
10
-13.012250000000305
20
-87.984393911000538
42
-0.4142135623730846
10
-12.512250000000298
20
-87.484393911000552
10
-6.0126500000002983
20
-87.484393911000552
42
-0.41421356237309503
10
-5.5126500000002974
20
-87.984393911000552
10
-5.5126500000003089
20
-106.98459391262008
42
-0.41421356237309503
10
-6.0126500000003338
20
-107.48459391262008
10
-36.562250000000311
20
-107.48459391262008
42
-0.41421356237309503
10
-37.062250000000304
20
-106.98459391262008
10
-37.062250000000326
20
-87.984393911000581
42
-0.41421356237308721
10
-36.562250000000311
20
-87.484393911000581
10
-30.062750000000307
20
-87.484393911000566
42
-0.41421356237309503
10
-29.562750000000307
20
-87.984393911000581
0
LWPOLYLINE
5
204
100
AcDbEntity
8
0
100
AcDbPolyline
90
30
70
1
43
0.0
10
-267.68785000000031
20
-89.984393912620078
42
0.41421356237313667
10
-267.18785000000031
20
-90.484393912620078
10
-251.63785000000033
20
-90.484394167376308
42
0.41421356237310542
10
-251.13785000000036
20
-89.984393912620078
10
-251.13785000000033
20
-88.984393912620021
42
-0.4142135623730846
10
-250.6378500000003
20
-88.484393912620035
10
-244.13785000000033
20
-88.484393912620021
42
-0.41421356237309503
10
-243.63785000000033
20
-88.984393912620021
10
-243.63785000000033
20
-89.99565861173906
42
0.3708642320164196
10
-243.21268615656706
20
-90.490026440051437
42
-0.37086423545575531
10
-242.78752231313376
20
-90.984394274410775
10
-242.78752247034643
20
-103.98379411235334
42
-0.37086418335884852
10
-243.21268623517338
20
-104.47816192271959
42
0.37086418679811539
10
-243.63785000000033
20
-104.97252973913277
10
-243.63785000000033
20
-106.98459391262006
42
-0.41421356237309503
10
-244.13785000000033
20
-107.48459391262006
10
-274.68685000000033
20
-107.48459391262008
42
-0.41421356237309503
10
-275.18685000000033
20
-106.98459391262007
10
-275.18685000000033
20
-104.98379371447416
42
0.41421355883080113
10
-275.68684999395344
20
-104.48379371447416
10
-282.58127247639385
20
-104.48379363109413
42
-0.41421356237306584
10
-283.0812724703469
20
-103.98379362504721
10
-283.08127231313426
20
-90.984393787104608
42
-0.41421356237310875
10
-282.58127230708732
20
-90.484393793151526
10
-275.68685000604728
20
-90.4843939139773
42
0.41421356591532627
10
-275.18685000000033
20
-89.98439387653157
10
-275.18685000000033
20
-88.98439391262005
42
-0.4142135623730846
10
-274.68685000000033
20
-88.484393912620064
10
-268.18785000000031
20
-88.48439391262005
42
-0.41421356237309503
10
-267.68785000000031
20
-88.98439391262005
0
LWPOLYLINE
5
205
100
AcDbEntity
8
0
100
AcDbPolyline
90
8
70
1
43
0.0
10
-325.94385000000034
20
-103.98379391397728
10
-325.94385000000034
20
-90.9843939139773
42
-0.41421356237309503
10
-325.44385000000034
20
-90.484393913977286
10
-312.44385000000034
20
-90.484393913977286
42
-0.41421356237309503
10
-311.94385000000034
20
-90.9843939139773
10
-311.94385000000034
20
-103.98379391397731
42
-0.41421356237311585
10
-312.44385000000034
20
-104.48379391397731
10
-325.44385000000034
20
-104.48379391397728
42
-0.41421356237310542
0
LWPOLYLINE
5
206
100
AcDbEntity
8
0
100
AcDbPolyline
90
8
70
1
43
0.0
10
-21.143772933164506
20
-123.03334276095595
10
-21.143772933164506
20
-110.0342939126201
42
-0.41421356237308982
10
-20.643772933164506
20
-109.53429391262007
10
-5.2627600000002772
20
-109.53429391262007
42
-0.4142135623730866
10
-4.7627600000002914
20
-110.03429391262009
10
-4.7627600000003056
20
-123.03334276095595
42
-0.41421356237309503
10
-5.2627600000003127
20
-123.53334276095595
10
-20.643772933164506
20
-123.53334276095595
42
-0.41421356237309503
0
LWPOLYLINE
5
207
100
AcDbEntity
8
0
100
AcDbPolyline
90
4
70
1
43
0.0
10
-86.632487263239625
20
-25.958893878757383
42
0.99999990844573705
10
-86.632487263707887
20
-28.958893873899896
10
-30.262500062141491
20
-28.958893920789023
42
0.99999999999999989
10
-30.262500062141491
20
-25.958893920789325
0
LWPOLYLINE
5
208
100
AcDbEntity
8
0
100
AcDbPolyline
90
4
70
1
43
0.0
10
-96.632487263239625
20
-28.958893873899903
42
0.99999947840627856
10
-96.632487263302664
20
-25.958893879080019
10
-166.96250006214098
20
-25.958893920810617
42
0.99999999999999989
10
-166.96250006214098
20
-28.958893920789084
0
ENDSEC
0
SECTION
2
OBJECTS
0
DICTIONARY
5
C
100
AcDbDictionary
3
ACAD_GROUP
350
D
3
ACAD_MLINESTYLE
350
17
0
DICTIONARY
5
D
100
AcDbDictionary
0
DICTIONARY
5
1A
330
C
100
AcDbDictionary
0
DICTIONARY
5
17
100
AcDbDictionary
0
ENDSEC
0
EOF
