0
SECTION
2
HEADER
9
$INSUNITS
70
4
9
$ACADVER
1
AC1014
9
$HANDSEED
5
FFFF
0
ENDSEC
0
SECTION
2
TABLES
0
TABLE
2
VPORT
5
8
100
AcDbSymbolTable
0
ENDTAB
0
TABLE
2
LTYPE
5
5
100
AcDbSymbolTable
0
LTYPE
5
14
100
AcDbSymbolTableRecord
100
AcDbLinetypeTableRecord
2
BYBLOCK
70
0
0
LTYPE
5
15
100
AcDbSymbolTableRecord
100
AcDbLinetypeTableRecord
2
BYLAYER
70
0
0
LTYPE
5
16
100
AcDbSymbolTableRecord
100
AcDbLinetypeTableRecord
2
DASHED
70
0
3
Dashed __ __ __ __ __ __ __ __ __ __ __ __ __ _
72
65
73
2
40
0.75
49
0.5
74
0
49
-0.25
74
0
0
ENDTAB
0
TABLE
2
LAYER
5
2
100
AcDbSymbolTable
70
2
0
LAYER
5
50
100
AcDbSymbolTableRecord
100
AcDbLayerTableRecord
2
0
70
0
62
7
6
CONTINUOUS
0
ENDTAB
0
TABLE
2
STYLE
5
3
100
AcDbSymbolTable
70
1
0
STYLE
5
11
100
AcDbSymbolTableRecord
100
AcDbTextStyleTableRecord
2
STANDARD
70
0
0
ENDTAB
0
TABLE
2
VIEW
5
6
100
AcDbSymbolTable
70
0
0
ENDTAB
0
TABLE
2
UCS
5
7
100
AcDbSymbolTable
70
0
0
ENDTAB
0
TABLE
2
APPID
5
9
100
AcDbSymbolTable
70
2
0
APPID
5
12
100
AcDbSymbolTableRecord
100
AcDbRegAppTableRecord
2
ACAD
70
0
0
ENDTAB
0
TABLE
2
DIMSTYLE
5
A
100
AcDbSymbolTable
70
1
0
ENDTAB
0
TABLE
2
BLOCK_RECORD
5
1
100
AcDbSymbolTable
70
1
0
BLOCK_RECORD
5
1F
100
AcDbSymbolTableRecord
100
AcDbBlockTableRecord
2
*MODEL_SPACE
0
BLOCK_RECORD
5
1B
100
AcDbSymbolTableRecord
100
AcDbBlockTableRecord
2
*PAPER_SPACE
0
ENDTAB
0
ENDSEC
0
SECTION
2
BLOCKS
0
BLOCK
5
20
100
AcDbEntity
100
AcDbBlockBegin
2
*MODEL_SPACE
0
ENDBLK
5
21
100
AcDbEntity
100
AcDbBlockEnd
0
BLOCK
5
1C
100
AcDbEntity
100
AcDbBlockBegin
2
*PAPER_SPACE
0
ENDBLK
5
1D
100
AcDbEntity
100
AcDbBlockEnd
0
ENDSEC
0
SECTION
2
ENTITIES
0
LWPOLYLINE
5
100
100
AcDbEntity
8
0
100
AcDbPolyline
90
24
70
1
43
0.0
10
310.44385
20
-21.283393913846922
10
310.44385
20
-7.8843939138469139
42
-0.41421356237309453
10
312.24385000000001
20
-6.0843939138469203
10
344.69384999999994
20
-6.0843939138469905
42
-0.41421356237311036
10
346.49384999999995
20
-7.8843939138470818
10
346.4938499999999
20
-21.283393913847011
42
-0.41421356237309431
10
344.69384999999988
20
-23.083393913847004
10
344.1208499999999
20
-23.083393913847022
42
0.41421356237311452
10
342.32084999999989
20
-24.883393913847016
10
342.32084999999989
20
-30.034293913846994
42
0.41421356237311524
10
344.1208499999999
20
-31.834293913846974
10
344.69384999999988
20
-31.834293913846999
42
-0.41421356237309503
10
346.4938499999999
20
-33.634293913846996
10
346.4938499999999
20
-47.033593913846985
42
-0.41421356237309359
10
344.69384999999988
20
-48.833593913846975
10
312.24384999999995
20
-48.833593913846904
42
-0.41421356237310081
10
310.44384999999988
20
-47.033593913846907
10
310.44384999999988
20
-33.634293913846903
42
-0.41421356237309287
10
312.2438499999999
20
-31.834293913846917
10
321.36250000000007
20
-31.834293913846942
42
0.41421356237311452
10
323.16250000000002
20
-30.034293913846941
10
323.16250000000002
20
-24.883393913846959
42
0.41421356237311524
10
321.36250000000007
20
-23.083393913846983
10
312.24384999999995
20
-23.083393913846933
42
-0.41421356237309148
0
LWPOLYLINE
5
101
100
AcDbEntity
8
0
100
AcDbPolyline
90
23
70
1
43
0.0
10
155.08184999999992
20
-31.834293913846597
10
168.18084999999994
20
-31.834293913846619
42
0.41421356237309287
10
169.98084999999992
20
-30.034293913846632
10
169.98084999999992
20
-24.883393913846639
42
0.41421356237310658
10
168.18084999999996
20
-23.083393913846642
10
164.60684999999995
20
-23.083393913846628
42
-0.41421356237309648
10
162.80684999999994
20
-21.28339391384662
10
162.80685
20
-7.8843939138466013
42
-0.41421356237309415
10
164.60684999999998
20
-6.0843939138466094
10
178.00584999999998
20
-6.0843939138466387
42
-0.41421356237310702
10
179.80584999999996
20
-7.8843939138467087
10
179.80584999999994
20
-21.283393913846655
42
-0.26794919243112142
10
178.90584999999993
20
-22.842239640658633
42
0.26794919243111687
10
178.0058499999999
20
-24.401085367470628
10
178.0058499999999
20
-30.034293913846639
42
0.41421356237310658
10
179.80584999999988
20
-31.834293913846636
10
187.53084999999993
20
-31.834293913846668
42
-0.41421356237309503
10
189.33084999999991
20
-33.634293913846662
10
189.33084999999988
20
-47.033593913846651
42
-0.41421356237309503
10
187.53084999999987
20
-48.833593913846649
10
155.08184999999992
20
-48.833593913846592
42
-0.41421356237309503
10
153.28184999999991
20
-47.033593913846595
10
153.28184999999993
20
-33.634293913846598
42
-0.41421356237309503
0
LWPOLYLINE
5
102
100
AcDbEntity
8
0
100
AcDbPolyline
90
12
70
1
43
0.0
10
5.8627599999998115
20
-88.433593913846309
10
35.762249999999774
20
-88.433593913846352
42
-0.41421356237309431
10
37.562249999999771
20
-90.233593913846335
10
37.562249999999736
20
-106.23429391384634
42
0.41421356237310081
10
39.362249999999733
20
-108.03429391384638
10
43.224649999999727
20
-108.03429391384634
42
-0.41421356237309626
10
45.324649999999728
20
-110.13429391384636
10
45.324649999999728
20
-122.43375391384666
42
-0.41421356237309798
10
43.524649999999731
20
-124.23375391384667
10
5.8627599999997404
20
-124.2337539138466
42
-0.41421356237309481
10
4.0627599999997424
20
-122.4337539138466
10
4.0627599999998125
20
-90.233593913846292
42
-0.41421356237309248
0
LWPOLYLINE
5
103
100
AcDbEntity
8
0
100
AcDbPolyline
90
32
70
1
43
0.0
10
279.87313251096953
20
-124.2337539138469
10
241.65684999999974
20
-124.2337539138469
42
-0.41421356237309503
10
239.85684999999975
20
-122.4337539138469
10
239.85684999999984
20
-87.933593913846806
42
0.41421356237308343
10
238.05684999999983
20
-86.133593913846795
10
227.36884999999984
20
-86.133593913846767
42
-0.41421356237309503
10
225.56884999999983
20
-84.333593913846769
10
225.56884999999988
20
-72.284293913846767
42
-0.41421356237309359
10
227.36884999999987
20
-70.48429391384677
10
238.00684999999987
20
-70.484293913846784
42
0.41421356237308204
10
239.80684999999988
20
-68.684293913846787
10
239.80684999999991
20
-53.484293913846805
42
-0.41421356237309648
10
241.60684999999989
20
-51.684293913846801
10
245.93084999999988
20
-51.684293913846815
42
0.41421356237308343
10
247.73084999999986
20
-49.884293913846811
10
247.73084999999992
20
-32.634293913846797
42
-0.41421356237309576
10
249.5308499999999
20
-30.834293913846793
10
283.58127190445873
20
-30.83429391384691
42
-0.41421356237309576
10
285.38127190445874
20
-32.634293913846911
10
285.3812719044588
20
-66.193041079056428
42
-0.41421356237309503
10
283.58127190445879
20
-67.993041079056425
10
282.83397588061683
20
-67.993041079056425
42
0.4142135623730806
10
281.03397588061682
20
-69.793041079056422
10
281.03397588061682
20
-85.008635345216248
42
0.41421356237307771
10
282.83397588061683
20
-86.808635345216203
10
283.58127190445879
20
-86.808635345216274
42
-0.41421356237309503
10
285.3812719044588
20
-88.608635345216271
10
285.38127190445874
20
-104.13994884016637
42
-0.41421356237309215
10
283.58127190445873
20
-105.93994884016635
10
283.47313251096955
20
-105.93994884016638
42
0.41421356237309215
10
281.67313251096954
20
-107.73994884016633
10
281.67313251096942
20
-122.433753913847
42
-0.41421356237309503
0
LWPOLYLINE
5
104
100
AcDbEntity
8
0
100
AcDbPolyline
90
8
70
1
43
0.0
10
215.32384999999977
20
-122.43375391384676
10
215.32384999999977
20
-110.13429391384675
42
-0.41421356237309254
10
217.42384999999973
20
-108.0342939138468
10
232.47484999999969
20
-108.03429391384675
42
-0.41421356237309254
10
234.57484999999969
20
-110.13429391384678
10
234.57484999999969
20
-122.43375391384681
42
-0.41421356237309503
10
232.7748499999997
20
-124.23375391384681
10
217.12384999999978
20
-124.23375391384678
42
-0.41421356237309798
0
LWPOLYLINE
5
105
100
AcDbEntity
8
0
100
AcDbPolyline
90
8
70
1
43
0.0
10
291.39384999999976
20
-122.43375391384681
10
291.39384999999976
20
-110.1342939138469
42
-0.41421356237309254
10
293.49384999999972
20
-108.03429391384695
10
306.29384999999974
20
-108.03429391384694
42
-0.41421356237309997
10
308.3938499999997
20
-110.13429391384702
10
308.3938499999997
20
-122.43375391384686
42
-0.41421356237309503
10
306.59384999999975
20
-124.23375391384684
10
293.19384999999977
20
-124.23375391384683
42
-0.41421356237309798
0
LWPOLYLINE
5
106
100
AcDbEntity
8
0
100
AcDbPolyline
90
8
70
1
43
0.0
10
310.44384999999977
20
-122.43375391384686
10
310.44384999999977
20
-110.13429391384696
42
-0.41421356237309503
10
312.54384999999974
20
-108.03429391384698
10
325.3438499999998
20
-108.03429391384697
42
-0.41421356237310497
10
327.44384999999977
20
-110.13429391384705
10
327.44384999999971
20
-122.43375391384689
42
-0.41421356237309215
10
325.6438499999997
20
-124.23375391384687
10
312.24384999999972
20
-124.23375391384684
42
-0.41421356237308926
0
CIRCLE
5
107
100
AcDbEntity
8
0
100
AcDbCircle
10
296.99384999999978
20
-74.423892969976535
30
0
40
3.1100000149011464
210
-1.2325951644078309e-32
220
8.8824713444646149e-48
230
1
0
LWPOLYLINE
5
108
100
AcDbEntity
8
0
100
AcDbPolyline
90
8
70
1
43
0.0
10
65.505849999999867
20
-52.68429391384646
42
0.41421356237310375
10
63.705849999999856
20
-50.884293913846399
10
50.306549999999888
20
-50.884293913846378
42
0.41421356237309359
10
48.506549999999862
20
-52.684293913846375
10
48.506549999999848
20
-66.083593913846371
42
0.41421356237309798
10
50.306549999999874
20
-67.883593913846397
10
63.705849999999842
20
-67.883593913846425
42
0.41421356237309503
10
65.505849999999853
20
-66.083593913846414
0
LWPOLYLINE
5
109
100
AcDbEntity
8
0
100
AcDbPolyline
90
8
70
1
43
0.0
10
160.75584999999987
20
-52.684293913846609
42
0.41421356237309503
10
158.95584999999986
20
-50.884293913846605
10
145.55684999999988
20
-50.884293913846584
42
0.41421356237309648
10
143.75684999999987
20
-52.684293913846588
10
143.75684999999987
20
-66.083593913846514
42
0.41421356237310375
10
145.55684999999986
20
-67.883593913846596
10
158.95584999999986
20
-67.88359391384661
42
0.41421356237309503
10
160.75584999999987
20
-66.083593913846613
0
LWPOLYLINE
5
110
100
AcDbEntity
8
0
100
AcDbPolyline
90
8
70
1
43
0.0
10
165.51884999999984
20
-71.734293913846628
42
0.41421356237309503
10
163.71884999999986
20
-69.934293913846616
10
150.31884999999983
20
-69.934293913846631
42
0.41421356237309503
10
148.51884999999984
20
-71.734293913846614
10
148.51884999999982
20
-85.13359391384661
42
0.41421356237309503
10
150.31884999999983
20
-86.933593913846593
10
163.7188499999998
20
-86.933593913846622
42
0.41421356237309215
10
165.51884999999982
20
-85.133593913846653
0
LWPOLYLINE
5
111
100
AcDbEntity
8
0
100
AcDbPolyline
90
8
70
1
43
0.0
10
94.080849999999884
20
-33.634293913846435
42
0.41421356237308782
10
92.280849999999916
20
-31.834293913846462
10
78.881549999999848
20
-31.83429391384642
42
0.41421356237308565
10
77.081549999999908
20
-33.63429391384642
10
77.081549999999879
20
-47.033593913846431
42
0.41421356237309648
10
78.881549999999891
20
-48.833593913846435
10
92.280849999999987
20
-48.83359391384645
42
0.41421356237307916
10
94.08084999999987
20
-47.033593913846445
0
LWPOLYLINE
5
112
100
AcDbEntity
8
0
100
AcDbPolyline
90
8
70
1
43
0.0
10
22.643549999999877
20
-52.684293913846318
42
0.41421356237309431
10
20.843549999999876
20
-50.884293913846307
10
7.4440099999998957
20
-50.8842939138463
42
0.41421356237309809
10
5.6440099999998665
20
-52.68429391384629
10
5.6440099999998337
20
-66.083593913846229
42
0.41421356237310281
10
7.4440099999998344
20
-67.883593913846298
10
20.843549999999844
20
-67.883593913846326
42
0.41421356237309648
10
22.643549999999841
20
-66.083593913846315
0
LWPOLYLINE
5
113
100
AcDbEntity
8
0
100
AcDbPolyline
90
8
70
1
43
0.0
10
184.56884999999986
20
-71.734293913846614
42
0.4142135623730806
10
182.7688499999999
20
-69.934293913846659
10
169.36884999999987
20
-69.934293913846659
42
0.41421356237309503
10
167.56884999999986
20
-71.734293913846656
10
167.56884999999983
20
-85.133593913846653
42
0.41421356237309503
10
169.36884999999984
20
-86.933593913846636
10
182.76884999999982
20
-86.933593913846678
42
0.41421356237309503
10
184.56884999999983
20
-85.133593913846681
0
LWPOLYLINE
5
114
100
AcDbEntity
8
0
100
AcDbPolyline
90
8
70
1
43
0.0
10
308.39384999999999
20
-7.884393913846969
42
0.41421356237310497
10
306.59384999999997
20
-6.084393913846907
10
293.19385
20
-6.0843939138468803
42
0.41421356237309381
10
291.39384999999999
20
-7.8843939138468695
10
291.39384999999999
20
-21.283393913846815
42
0.41421356237310802
10
293.19385
20
-23.083393913846898
10
306.59384999999992
20
-23.083393913846916
42
0.41421356237309287
10
308.39384999999993
20
-21.283393913846929
0
LWPOLYLINE
5
115
100
AcDbEntity
8
0
100
AcDbPolyline
90
8
70
1
43
0.0
10
179.80584999999988
20
-52.684293913846702
42
0.41421356237309798
10
178.0058499999999
20
-50.884293913846641
10
164.60684999999987
20
-50.884293913846633
42
0.41421356237309503
10
162.80684999999988
20
-52.684293913846631
10
162.80684999999983
20
-66.083593913846613
42
0.41421356237309503
10
164.60684999999984
20
-67.883593913846624
10
178.00584999999984
20
-67.883593913846653
42
0.41421356237309503
10
179.80584999999985
20
-66.083593913846656
0
LWPOLYLINE
5
116
100
AcDbEntity
8
0
100
AcDbPolyline
90
8
70
1
43
0.0
10
70.268349999999828
20
-71.734293913846329
42
0.41421356237307771
10
68.468349999999816
20
-69.934293913846432
10
55.069049999999827
20
-69.934293913846403
42
0.41421356237309503
10
53.269049999999829
20
-71.734293913846415
10
53.269049999999808
20
-85.133593913846525
42
0.41421356237307622
10
55.069049999999791
20
-86.933593913846394
10
68.468349999999816
20
-86.933593913846437
42
0.41421356237309215
10
70.268349999999799
20
-85.133593913846454
0
LWPOLYLINE
5
117
100
AcDbEntity
8
0
100
AcDbPolyline
90
8
70
1
43
0.0
10
146.46884999999983
20
-71.734293913846528
42
0.41421356237308637
10
144.66884999999985
20
-69.934293913846574
10
131.26884999999982
20
-69.934293913846574
42
0.41421356237309359
10
129.46884999999983
20
-71.734293913846571
10
129.4688499999998
20
-85.133593913846568
42
0.41421356237309503
10
131.26884999999982
20
-86.933593913846551
10
144.66884999999979
20
-86.933593913846593
42
0.41421356237309215
10
146.4688499999998
20
-85.13359391384661
0
LWPOLYLINE
5
118
100
AcDbEntity
8
0
100
AcDbPolyline
90
8
70
1
43
0.0
10
84.55584999999985
20
-52.684293913846446
42
0.41421356237309503
10
82.755849999999853
20
-50.884293913846442
10
69.356549999999885
20
-50.88429391384642
42
0.41421356237309503
10
67.556549999999874
20
-52.684293913846425
10
67.556549999999845
20
-66.083593913846357
42
0.41421356237310658
10
69.356549999999856
20
-67.88359391384644
10
82.755849999999839
20
-67.883593913846454
42
0.41421356237309503
10
84.555849999999836
20
-66.083593913846457
0
LWPOLYLINE
5
119
100
AcDbEntity
8
0
100
AcDbPolyline
90
8
70
1
43
0.0
10
151.23084999999989
20
-33.634293913846577
42
0.41421356237309503
10
149.43084999999991
20
-31.834293913846583
10
136.03184999999991
20
-31.834293913846558
42
0.41421356237309503
10
134.23184999999992
20
-33.634293913846555
10
134.23184999999989
20
-47.033593913846552
42
0.41421356237309503
10
136.03184999999991
20
-48.833593913846549
10
149.43084999999988
20
-48.833593913846578
42
0.41421356237309648
10
151.23084999999986
20
-47.033593913846573
0
LWPOLYLINE
5
120
100
AcDbEntity
8
0
100
AcDbPolyline
90
8
70
1
43
0.0
10
55.98084999999989
20
-33.634293913846356
42
0.41421356237309076
10
54.180849999999893
20
-31.834293913846388
10
40.781549999999918
20
-31.834293913846352
42
0.41421356237309359
10
38.981549999999913
20
-33.634293913846342
10
38.981549999999885
20
-47.033593913846346
42
0.41421356237309648
10
40.781549999999896
20
-48.833593913846357
10
54.180849999999879
20
-48.833593913846379
42
0.41421356237309503
10
55.980849999999876
20
-47.033593913846374
0
LWPOLYLINE
5
121
100
AcDbEntity
8
0
100
AcDbPolyline
90
8
70
1
43
0.0
10
46.45584999999987
20
-52.684293913846368
42
0.41421356237309503
10
44.655849999999866
20
-50.884293913846363
10
31.256549999999869
20
-50.884293913846349
42
0.41421356237309503
10
29.456549999999872
20
-52.684293913846346
10
29.456549999999837
20
-66.083593913846272
42
0.41421356237310297
10
31.256549999999837
20
-67.883593913846354
10
44.65584999999983
20
-67.883593913846383
42
0.41421356237309503
10
46.455849999999856
20
-66.083593913846371
0
CIRCLE
5
122
100
AcDbEntity
8
0
100
AcDbCircle
10
204.64384999999996
20
-14.584393912489462
30
0
40
3.1100000149011464
210
-1.2325951644078309e-32
220
8.8824713444646149e-48
230
1
0
LWPOLYLINE
5
123
100
AcDbEntity
8
0
100
AcDbPolyline
90
8
70
1
43
0.0
10
89.318349999999811
20
-71.734293913846429
42
0.41421356237308637
10
87.518349999999828
20
-69.934293913846474
10
74.119049999999774
20
-69.93429391384646
42
0.41421356237308637
10
72.31904999999982
20
-71.734293913846457
10
72.319049999999805
20
-85.133593913846454
42
0.41421356237309503
10
74.119049999999788
20
-86.933593913846437
10
87.518349999999799
20
-86.933593913846465
42
0.41421356237309503
10
89.318349999999796
20
-85.133593913846468
0
CIRCLE
5
124
100
AcDbEntity
8
0
100
AcDbCircle
10
337.99384999999978
20
-97.483993912489822
30
-1.1102230246251565e-15
40
3.1100000149011464
210
-1.2325951644078309e-32
220
8.8824713444646149e-48
230
1
0
LWPOLYLINE
5
125
100
AcDbEntity
8
0
100
AcDbPolyline
90
8
70
1
43
0.0
10
122.65584999999987
20
-52.684293913846531
42
0.41421356237309503
10
120.85584999999988
20
-50.88429391384652
10
107.45684999999986
20
-50.884293913846506
42
0.41421356237309648
10
105.65684999999986
20
-52.68429391384651
10
105.65684999999985
20
-66.083593913846443
42
0.41421356237310375
10
107.45684999999983
20
-67.883593913846511
10
120.85584999999983
20
-67.883593913846539
42
0.41421356237309503
10
122.65584999999984
20
-66.083593913846542
0
LWPOLYLINE
5
126
100
AcDbEntity
8
0
100
AcDbPolyline
90
8
70
1
43
0.0
10
75.030849999999873
20
-33.634293913846392
42
0.41421356237309076
10
73.23084999999989
20
-31.834293913846423
10
59.831549999999908
20
-31.834293913846388
42
0.41421356237309431
10
58.03154999999991
20
-33.634293913846392
10
58.031549999999882
20
-47.033593913846381
42
0.41421356237309648
10
59.831549999999893
20
-48.833593913846386
10
73.230849999999876
20
-48.833593913846414
42
0.41421356237309503
10
75.030849999999873
20
-47.03359391384641
0
LWPOLYLINE
5
127
100
AcDbEntity
8
0
100
AcDbPolyline
90
8
70
1
43
0.0
10
346.49384999999984
20
-52.684293913847007
42
0.41421356237309503
10
344.69384999999983
20
-50.884293913847003
10
331.29384999999985
20
-50.884293913846989
42
0.41421356237309503
10
329.49384999999984
20
-52.684293913846986
10
329.49384999999984
20
-66.083593913846968
42
0.41421356237309503
10
331.29384999999985
20
-67.88359391384698
10
344.69384999999983
20
-67.883593913847008
42
0.41421356237309359
10
346.49384999999984
20
-66.083593913847025
0
LWPOLYLINE
5
128
100
AcDbEntity
8
0
100
AcDbPolyline
90
8
70
1
43
0.0
10
265.53084999999999
20
-7.8843939138468908
42
0.41421356237310702
10
263.73084999999998
20
-6.0843939138468173
10
250.33185
20
-6.0843939138467915
42
0.41421356237309381
10
248.53184999999999
20
-7.8843939138467807
10
248.53184999999996
20
-21.283393913846723
42
0.41421356237310802
10
250.33184999999997
20
-23.083393913846809
10
263.73084999999998
20
-23.08339391384683
42
0.41421356237309431
10
265.53084999999999
20
-21.283393913846837
0
LWPOLYLINE
5
129
100
AcDbEntity
8
0
100
AcDbPolyline
90
8
70
1
43
0.0
10
108.36884999999984
20
-71.734293913846415
42
0.41421356237307771
10
106.56884999999986
20
-69.934293913846503
10
93.169049999999842
20
-69.934293913846489
42
0.41421356237309648
10
91.369049999999845
20
-71.7342939138465
10
91.369049999999817
20
-85.133593913846482
42
0.41421356237309503
10
93.1690499999998
20
-86.933593913846479
10
106.56884999999983
20
-86.933593913846522
42
0.41421356237309503
10
108.36884999999982
20
-85.133593913846525
0
LWPOLYLINE
5
130
100
AcDbEntity
8
0
100
AcDbPolyline
90
8
70
1
43
0.0
10
132.18084999999988
20
-33.634293913846541
42
0.41421356237309503
10
130.3808499999999
20
-31.834293913846544
10
116.9798499999999
20
-31.834293913846516
42
0.41421356237309431
10
115.1798499999999
20
-33.634293913846506
10
115.17984999999989
20
-47.033593913846516
42
0.41421356237309503
10
116.97984999999989
20
-48.833593913846514
10
130.38084999999987
20
-48.833593913846542
42
0.41421356237309648
10
132.18084999999985
20
-47.033593913846531
0
LWPOLYLINE
5
131
100
AcDbEntity
8
0
100
AcDbPolyline
90
8
70
1
43
0.0
10
54.180849999999936
20
-23.083393913846404
42
0.41421356237309431
10
55.98084999999994
20
-21.283393913846403
10
55.98084999999994
20
-7.884393913846468
42
0.41421356237310897
10
54.18084999999995
20
-6.0843939138463732
10
40.781549999999967
20
-6.0843939138463448
42
0.41421356237309431
10
38.981549999999963
20
-7.8843939138463419
10
38.981549999999949
20
-21.283393913846261
42
0.41421356237311524
10
40.78154999999996
20
-23.083393913846368
0
LWPOLYLINE
5
132
100
AcDbEntity
8
0
100
AcDbPolyline
90
8
70
1
43
0.0
10
103.60584999999986
20
-52.684293913846538
42
0.41421356237310375
10
101.80584999999986
20
-50.884293913846477
10
88.406549999999868
20
-50.88429391384647
42
0.41421356237309359
10
86.606549999999885
20
-52.68429391384646
10
86.606549999999842
20
-66.083593913846457
42
0.41421356237309503
10
88.406549999999839
20
-67.883593913846468
10
101.80584999999985
20
-67.883593913846482
42
0.41421356237309503
10
103.60584999999985
20
-66.083593913846499
0
LWPOLYLINE
5
133
100
AcDbEntity
8
0
100
AcDbPolyline
90
8
70
1
43
0.0
10
141.70584999999986
20
-52.684293913846616
42
0.41421356237310375
10
139.90584999999984
20
-50.884293913846562
10
126.50684999999987
20
-50.884293913846548
42
0.41421356237309503
10
124.70684999999987
20
-52.684293913846545
10
124.70684999999986
20
-66.083593913846542
42
0.41421356237309503
10
126.50684999999984
20
-67.883593913846553
10
139.90584999999984
20
-67.883593913846568
42
0.41421356237309503
10
141.70584999999983
20
-66.08359391384657
0
LWPOLYLINE
5
134
100
AcDbEntity
8
0
100
AcDbPolyline
90
8
70
1
43
0.0
10
113.13084999999995
20
-7.8843939138465959
42
0.4142135623731113
10
111.33084999999996
20
-6.0843939138464957
10
97.930149999999969
20
-6.0843939138464709
42
0.4142135623730932
10
96.130149999999972
20
-7.8843939138464574
10
96.130149999999958
20
-21.283393913846396
42
0.41421356237310802
10
97.930149999999955
20
-23.083393913846486
10
111.33084999999994
20
-23.083393913846514
42
0.41421356237309431
10
113.13084999999994
20
-21.283393913846524
0
LWPOLYLINE
5
135
100
AcDbEntity
8
0
100
AcDbPolyline
90
8
70
1
43
0.0
10
127.41884999999985
20
-71.734293913846557
42
0.41421356237309503
10
125.61884999999987
20
-69.934293913846545
10
112.21884999999985
20
-69.934293913846545
42
0.41421356237309359
10
110.41884999999985
20
-71.734293913846528
10
110.41884999999982
20
-85.133593913846525
42
0.41421356237309503
10
112.21884999999983
20
-86.933593913846522
10
125.61884999999982
20
-86.933593913846551
42
0.41421356237309503
10
127.41884999999982
20
-85.133593913846553
0
LWPOLYLINE
5
136
100
AcDbEntity
8
0
100
AcDbPolyline
90
8
70
1
43
0.0
10
113.1308499999999
20
-33.634293913846477
42
0.41421356237308782
10
111.33084999999993
20
-31.834293913846501
10
97.930149999999912
20
-31.834293913846466
42
0.41421356237309503
10
96.130149999999915
20
-33.634293913846463
10
96.130149999999901
20
-47.03359391384646
42
0.41421356237309503
10
97.930149999999898
20
-48.833593913846471
10
111.33084999999988
20
-48.833593913846499
42
0.41421356237309648
10
113.13084999999988
20
-47.033593913846488
0
LWPOLYLINE
5
137
100
AcDbEntity
8
0
100
AcDbPolyline
90
8
70
1
43
0.0
10
160.75584999999995
20
-7.8843939138466688
42
0.41421356237310702
10
158.95584999999994
20
-6.0843939138465952
10
145.55684999999997
20
-6.0843939138465686
42
0.4142135623730947
10
143.75684999999999
20
-7.884393913846564
10
143.75684999999996
20
-21.283393913846503
42
0.41421356237310802
10
145.55684999999994
20
-23.083393913846585
10
158.95584999999994
20
-23.083393913846585
42
0.41421356237309431
10
160.75584999999992
20
-21.283393913846609
0
LWPOLYLINE
5
138
100
AcDbEntity
8
0
100
AcDbPolyline
90
8
70
1
43
0.0
10
327.44384999999988
20
-52.684293913846922
42
0.41421356237308637
10
325.64384999999987
20
-50.884293913846967
10
312.2438499999999
20
-50.884293913846946
42
0.41421356237309503
10
310.44384999999988
20
-52.684293913846943
10
310.44384999999983
20
-103.88379391384696
42
0.41421356237309503
10
312.54384999999979
20
-105.98379391384694
10
325.3438499999998
20
-105.98379391384698
42
0.41421356237309503
10
327.44384999999971
20
-103.88379391384697
0
LWPOLYLINE
5
139
100
AcDbEntity
8
0
100
AcDbPolyline
90
8
70
1
43
0.0
10
308.39384999999987
20
-33.634293913846932
42
0.41421356237309936
10
306.59384999999992
20
-31.834293913846913
10
293.19384999999994
20
-31.834293913846889
42
0.41421356237309359
10
291.39384999999993
20
-33.634293913846875
10
291.39384999999993
20
-47.033593913846872
42
0.41421356237309503
10
293.19384999999988
20
-48.833593913846883
10
306.59384999999986
20
-48.833593913846897
42
0.41421356237309359
10
308.39384999999987
20
-47.033593913846907
0
LWPOLYLINE
5
140
100
AcDbEntity
8
0
100
AcDbPolyline
90
8
70
1
43
0.0
10
75.03084999999993
20
-7.8843939138465089
42
0.41421356237311036
10
73.230849999999933
20
-6.084393913846414
10
59.831549999999964
20
-6.0843939138463803
42
0.41421356237309359
10
58.031549999999967
20
-7.8843939138463774
10
58.031549999999939
20
-21.283393913846297
42
0.41421356237311524
10
59.831549999999957
20
-23.083393913846407
10
73.230849999999933
20
-23.083393913846439
42
0.41421356237309359
10
75.03084999999993
20
-21.283393913846442
0
LWPOLYLINE
5
141
100
AcDbEntity
8
0
100
AcDbPolyline
90
8
70
1
43
0.0
10
191.3818499999999
20
-47.033593913846666
42
0.41421356237309503
10
193.18184999999988
20
-48.83359391384667
10
206.58084999999988
20
-48.833593913846691
42
0.41421356237309503
10
208.3808499999999
20
-47.033593913846694
10
208.38084999999992
20
-33.634293913846705
42
0.41421356237309503
10
206.58084999999994
20
-31.834293913846707
10
193.18184999999994
20
-31.834293913846675
42
0.41421356237309359
10
191.38184999999993
20
-33.634293913846662
0
CIRCLE
5
142
100
AcDbEntity
8
0
100
AcDbCircle
10
118.91884999999994
20
-14.584393912489283
30
2.7755575615628914e-16
40
3.1100000149011642
210
2.4651903288156624e-32
220
-1.7764942688929225e-47
230
1
0
LWPOLYLINE
5
143
100
AcDbEntity
8
0
100
AcDbPolyline
90
8
70
1
43
0.0
10
141.70584999999994
20
-7.8843939138466492
42
0.41421356237311036
10
139.90584999999993
20
-6.0843939138465544
10
126.50684999999996
20
-6.0843939138465286
42
0.41421356237309398
10
124.70684999999996
20
-7.8843939138465196
10
124.70684999999995
20
-21.283393913846464
42
0.41421356237310802
10
126.50684999999994
20
-23.083393913846546
10
139.90584999999993
20
-23.083393913846564
42
0.41421356237309431
10
141.70584999999991
20
-21.28339391384657
0
LWPOLYLINE
5
144
100
AcDbEntity
8
0
100
AcDbPolyline
90
8
70
1
43
0.0
10
203.61884999999984
20
-71.734293913846713
42
0.41421356237309503
10
201.81884999999983
20
-69.934293913846716
10
188.41884999999985
20
-69.934293913846702
42
0.41421356237309359
10
186.61884999999984
20
-71.734293913846699
10
186.61884999999981
20
-85.133593913846681
42
0.41421356237309503
10
188.41884999999979
20
-86.933593913846678
10
201.8188499999998
20
-86.933593913846721
42
0.41421356237309503
10
203.61884999999978
20
-85.13359391384671
0
LWPOLYLINE
5
145
100
AcDbEntity
8
0
100
AcDbPolyline
90
8
70
1
43
0.0
10
284.58085
20
-7.8843939138469388
42
0.41421356237310825
10
282.78084999999999
20
-6.0843939138468572
10
269.38184999999999
20
-6.0843939138468333
42
0.4142135623730932
10
267.58185000000003
20
-7.8843939138468189
10
267.58184999999997
20
-21.283393913846762
42
0.41421356237310802
10
269.38184999999999
20
-23.083393913846848
10
282.78084999999999
20
-23.083393913846869
42
0.41421356237309431
10
284.58084999999994
20
-21.283393913846879
0
LWPOLYLINE
5
146
100
AcDbEntity
8
0
100
AcDbPolyline
90
8
70
1
43
0.0
10
94.080849999999941
20
-7.8843939138465489
42
0.41421356237311036
10
92.280849999999944
20
-6.084393913846454
10
78.881549999999905
20
-6.0843939138464211
42
0.41421356237308476
10
77.081549999999964
20
-7.8843939138464165
10
77.081549999999936
20
-21.283393913846357
42
0.41421356237310947
10
78.881549999999947
20
-23.083393913846443
10
92.280850000000044
20
-23.083393913846471
42
0.41421356237307694
10
94.080849999999927
20
-21.283393913846478
0
LWPOLYLINE
5
147
100
AcDbEntity
8
0
100
AcDbPolyline
90
8
70
1
43
0.0
10
227.43084999999996
20
-7.8843939138468109
42
0.41421356237310702
10
225.63084999999998
20
-6.0843939138467373
10
212.23184999999998
20
-6.0843939138467098
42
0.41421356237309342
10
210.43184999999997
20
-7.8843939138466972
10
210.43184999999994
20
-21.283393913846641
42
0.41421356237310802
10
212.23184999999995
20
-23.083393913846724
10
225.63084999999995
20
-23.083393913846749
42
0.41421356237309503
10
227.43084999999994
20
-21.283393913846751
0
LWPOLYLINE
5
148
100
AcDbEntity
8
0
100
AcDbPolyline
90
8
70
1
43
0.0
10
198.85584999999998
20
-7.8843939138467487
42
0.41421356237310702
10
197.05584999999999
20
-6.0843939138466752
10
183.65684999999999
20
-6.0843939138466494
42
0.41421356237309415
10
181.85685000000001
20
-7.8843939138466412
10
181.85684999999995
20
-21.283393913846584
42
0.41421356237310802
10
183.65684999999996
20
-23.083393913846663
10
197.05584999999996
20
-23.083393913846688
42
0.41421356237309431
10
198.85584999999995
20
-21.283393913846695
0
LWPOLYLINE
5
149
100
AcDbEntity
8
0
100
AcDbPolyline
90
8
70
1
43
0.0
10
200.90684999999985
20
-66.083593913846741
42
0.4142135623730806
10
202.70684999999983
20
-67.883593913846696
10
216.10584999999983
20
-67.883593913846724
42
0.41421356237309359
10
217.90584999999982
20
-66.083593913846741
10
217.90584999999987
20
-52.68429391384673
42
0.41421356237309503
10
216.10584999999986
20
-50.884293913846733
10
202.70684999999989
20
-50.884293913846712
42
0.41421356237309503
10
200.90684999999991
20
-52.684293913846709
0
LWPOLYLINE
5
150
100
AcDbEntity
8
0
100
AcDbPolyline
90
8
70
1
43
0.0
10
308.39384999999987
20
-52.684293913846929
42
0.41421356237309503
10
306.59384999999986
20
-50.884293913846925
10
293.19384999999988
20
-50.884293913846918
42
0.41421356237309503
10
291.39384999999993
20
-52.684293913846915
10
291.39384999999987
20
-66.083593913846883
42
0.41421356237309503
10
293.19384999999988
20
-67.883593913846894
10
306.5938499999998
20
-67.883593913846909
42
0.41421356237309215
10
308.39384999999982
20
-66.08359391384694
0
LWPOLYLINE
5
151
100
AcDbEntity
8
0
100
AcDbPolyline
90
8
70
1
43
0.0
10
198.85584999999989
20
-52.684293913846645
42
0.4142135623730806
10
197.05584999999991
20
-50.88429391384669
10
183.65684999999988
20
-50.884293913846676
42
0.41421356237309648
10
181.85684999999989
20
-52.68429391384668
10
181.85684999999984
20
-66.083593913846599
42
0.41421356237310375
10
183.65684999999985
20
-67.883593913846681
10
197.05584999999985
20
-67.883593913846696
42
0.41421356237309503
10
198.85584999999986
20
-66.083593913846698
0
LWPOLYLINE
5
152
100
AcDbEntity
8
0
100
AcDbPolyline
90
8
70
1
43
0.0
10
210.43184999999988
20
-47.033593913846701
42
0.41421356237309503
10
212.23184999999987
20
-48.833593913846713
10
225.63084999999987
20
-48.833593913846727
42
0.41421356237309359
10
227.43084999999985
20
-47.033593913846737
10
227.43084999999991
20
-33.634293913846747
42
0.41421356237309503
10
225.6308499999999
20
-31.834293913846746
10
212.23184999999989
20
-31.834293913846714
42
0.41421356237309431
10
210.43184999999991
20
-33.634293913846712
0
LWPOLYLINE
5
153
100
AcDbEntity
8
0
100
AcDbPolyline
90
8
70
1
43
0.0
10
246.48084999999998
20
-7.8843939138468508
42
0.41421356237310702
10
244.68084999999999
20
-6.0843939138467773
10
231.28184999999999
20
-6.0843939138467507
42
0.41421356237309398
10
229.48184999999998
20
-7.8843939138467416
10
229.48184999999995
20
-21.28339391384668
42
0.41421356237310802
10
231.28184999999996
20
-23.083393913846763
10
244.68084999999996
20
-23.083393913846791
42
0.41421356237309431
10
246.48084999999995
20
-21.283393913846798
0
LWPOLYLINE
5
154
100
AcDbEntity
8
0
100
AcDbPolyline
90
8
70
1
43
0.0
10
220.11884999999981
20
-86.933593913846764
10
207.46884999999986
20
-86.933593913846735
42
-0.41421356237309503
10
205.66884999999985
20
-85.133593913846738
10
205.66884999999988
20
-71.734293913846727
42
-0.41421356237309359
10
207.46884999999989
20
-69.934293913846744
10
220.11884999999984
20
-69.934293913846744
42
-0.41421356237309648
10
221.91884999999985
20
-71.734293913846756
10
221.91884999999985
20
-85.133593913846752
42
-0.41421356237309503
0
LWPOLYLINE
5
155
100
AcDbEntity
8
0
100
AcDbPolyline
90
8
70
1
43
0.0
10
329.49384999999972
20
-122.43375391384687
10
329.49384999999978
20
-110.13429391384699
42
-0.41421356237309503
10
331.5938499999998
20
-108.03429391384698
10
343.89384999999976
20
-108.03429391384704
42
-0.41421356237309215
10
345.69384999999977
20
-109.83429391384702
10
345.69384999999966
20
-122.4337539138469
42
-0.41421356237309215
10
343.8938499999997
20
-124.23375391384688
10
331.29384999999968
20
-124.23375391384684
42
-0.41421356237309215
0
LWPOLYLINE
5
156
100
AcDbEntity
8
0
100
AcDbPolyline
90
8
70
1
43
0.0
10
5.8638799999998303
20
-69.934293913846318
10
23.224749999999844
20
-69.934293913846332
42
-0.41421356237308493
10
25.024749999999841
20
-71.734293913846287
10
25.024749999999795
20
-84.13359391384634
42
-0.41421356237309648
10
23.224749999999791
20
-85.933593913846366
10
5.8638799999997948
20
-85.933593913846323
42
-0.41421356237309381
10
4.063879999999803
20
-84.133593913846326
10
4.0638799999998412
20
-71.734293913846315
42
-0.4142135623730952
0
LWPOLYLINE
5
157
100
AcDbEntity
8
0
100
AcDbPolyline
90
8
70
1
43
0.0
10
36.819049999999834
20
-69.934293913846389
10
49.418349999999833
20
-69.934293913846389
42
-0.41421356237308493
10
51.21834999999983
20
-71.734293913846344
10
51.218349999999816
20
-84.333593913846357
42
-0.41421356237309503
10
49.418349999999819
20
-86.133593913846354
10
36.819049999999805
20
-86.133593913846326
42
-0.41421356237309503
10
35.019049999999801
20
-84.333593913846329
10
35.019049999999822
20
-71.734293913846372
42
-0.41421356237309215
0
LWPOLYLINE
5
158
100
AcDbEntity
8
0
100
AcDbPolyline
90
8
70
1
43
0.0
10
62.794049999999785
20
-103.3837939138462
10
62.794049999999785
20
-90.784393913846401
42
-0.41421356237308926
10
64.594049999999797
20
-88.984393913846418
10
77.993349999999765
20
-88.984393913846446
42
-0.41421356237309503
10
79.793349999999762
20
-90.784393913846458
10
79.793349999999748
20
-103.38379391384626
42
-0.41421356237309215
10
77.993349999999751
20
-105.18379391384624
10
64.594049999999783
20
-105.18379391384624
42
-0.41421356237309648
0
LWPOLYLINE
5
159
100
AcDbEntity
8
0
100
AcDbPolyline
90
8
70
1
43
0.0
10
81.844049999999768
20
-103.38379391384629
10
81.844049999999783
20
-90.784393913846458
42
-0.41421356237309503
10
83.64404999999978
20
-88.984393913846446
10
97.043349999999776
20
-88.984393913846489
42
-0.41421356237309503
10
98.843349999999774
20
-90.784393913846486
10
98.843349999999759
20
-103.38379391384635
42
-0.41421356237308926
10
97.043349999999748
20
-105.1837939138463
10
83.644049999999766
20
-105.18379391384629
42
-0.41421356237309503
0
LWPOLYLINE
5
160
100
AcDbEntity
8
0
100
AcDbPolyline
90
8
70
1
43
0.0
10
100.89384999999979
20
-103.38379391384635
10
100.89384999999979
20
-90.784393913846486
42
-0.41421356237309215
10
102.69384999999978
20
-88.984393913846503
10
116.0938499999998
20
-88.984393913846546
42
-0.41421356237309503
10
117.8938499999998
20
-90.784393913846543
10
117.89384999999979
20
-103.3837939138464
42
-0.41421356237309215
10
116.09384999999978
20
-105.18379391384639
10
102.69384999999977
20
-105.18379391384633
42
-0.41421356237309503
0
LWPOLYLINE
5
161
100
AcDbEntity
8
0
100
AcDbPolyline
90
8
70
1
43
0.0
10
119.94384999999977
20
-103.3837939138464
10
119.94384999999978
20
-90.784393913846515
42
-0.41421356237309215
10
121.74384999999978
20
-88.984393913846546
10
135.14384999999982
20
-88.98439391384656
42
-0.41421356237311241
10
136.9438499999998
20
-90.784393913846657
10
136.9438499999998
20
-103.38379391384646
42
-0.41421356237309215
10
135.14384999999979
20
-105.18379391384643
10
121.74384999999975
20
-105.1837939138464
42
-0.41421356237309503
0
LWPOLYLINE
5
162
100
AcDbEntity
8
0
100
AcDbPolyline
90
8
70
1
43
0.0
10
138.99384999999978
20
-103.38379391384647
10
138.99384999999978
20
-90.784393913846557
42
-0.41421356237308926
10
140.79384999999976
20
-88.984393913846588
10
154.1938499999998
20
-88.984393913846617
42
-0.41421356237309503
10
155.99384999999978
20
-90.784393913846614
10
155.99384999999975
20
-103.38379391384652
42
-0.41421356237309215
10
154.19384999999974
20
-105.1837939138465
10
140.79384999999976
20
-105.18379391384649
42
-0.41421356237309798
0
LWPOLYLINE
5
163
100
AcDbEntity
8
0
100
AcDbPolyline
90
8
70
1
43
0.0
10
158.04384999999979
20
-103.38379391384655
10
158.04384999999979
20
-90.784393913846614
42
-0.41421356237309215
10
159.8438499999998
20
-88.984393913846631
10
173.24384999999978
20
-88.984393913846631
42
-0.41421356237310081
10
175.04384999999982
20
-90.784393913846628
10
175.04384999999979
20
-103.3837939138466
42
-0.41421356237308926
10
173.24384999999978
20
-105.18379391384656
10
159.84384999999978
20
-105.18379391384654
42
-0.41421356237309503
0
LWPOLYLINE
5
164
100
AcDbEntity
8
0
100
AcDbPolyline
90
8
70
1
43
0.0
10
177.09384999999975
20
-103.3837939138466
10
177.0938499999998
20
-90.784393913846642
42
-0.41421356237309215
10
178.89384999999979
20
-88.984393913846674
10
192.29384999999976
20
-88.984393913846702
42
-0.41421356237310081
10
194.0938499999998
20
-90.784393913846699
10
194.09384999999975
20
-103.38379391384665
42
-0.41421356237309215
10
192.29384999999976
20
-105.18379391384663
10
178.89384999999976
20
-105.18379391384659
42
-0.41421356237309503
0
LWPOLYLINE
5
165
100
AcDbEntity
8
0
100
AcDbPolyline
90
8
70
1
43
0.0
10
196.14384999999982
20
-103.38379391384669
10
196.14384999999984
20
-90.784393913846699
42
-0.41421356237309503
10
197.94384999999983
20
-88.984393913846702
10
211.34384999999978
20
-88.984393913846731
42
-0.41421356237310081
10
213.14384999999982
20
-90.784393913846742
10
213.14384999999976
20
-103.38379391384672
42
-0.41421356237309503
10
211.34384999999978
20
-105.18379391384671
10
197.9438499999998
20
-105.18379391384669
42
-0.41421356237309503
0
LWPOLYLINE
5
166
100
AcDbEntity
8
0
100
AcDbPolyline
90
8
70
1
43
0.0
10
215.19384999999983
20
-103.38379391384674
10
215.19384999999986
20
-90.784393913846742
42
-0.41421356237309215
10
216.99384999999984
20
-88.984393913846759
10
230.39384999999976
20
-88.984393913846773
42
-0.41421356237309798
10
232.19384999999977
20
-90.784393913846785
10
232.19384999999977
20
-103.38379391384677
42
-0.41421356237309503
10
230.39384999999979
20
-105.18379391384677
10
216.99384999999984
20
-105.18379391384676
42
-0.41421356237309798
0
LWPOLYLINE
5
167
100
AcDbEntity
8
0
100
AcDbPolyline
90
32
70
1
43
0.0
10
-1.6580654000000266
20
-1.9748939138462995
10
-1.6580654000002841
20
-125.73170091384632
42
0.41421356237309304
10
0.34193459999970821
20
-127.7317009138463
10
72.523849999999769
20
-127.73170091384644
42
0.41421356237309359
10
74.323849999999766
20
-125.93170091384647
10
74.32384999999978
20
-109.78379391384644
42
-0.41421356237309798
10
76.123849999999777
20
-107.98379391384643
10
93.523849999999783
20
-107.98379391384648
42
-0.41421356237309503
10
95.32384999999978
20
-109.78379391384648
10
95.323849999999752
20
-119.93170091384657
42
0.41421356237310081
10
97.123849999999749
20
-121.73170091384661
10
120.52384999999974
20
-121.73170091384661
42
0.41421356237309503
10
122.32384999999972
20
-119.93170091384663
10
122.32384999999977
20
-109.83429391384655
42
-0.41421356237309503
10
124.12384999999975
20
-108.03429391384655
10
149.52484999999973
20
-108.03429391384662
42
-0.41421356237309798
10
151.32484999999971
20
-109.83429391384664
10
151.32484999999971
20
-119.93170091384661
42
0.41421356237310375
10
153.1248499999997
20
-121.73170091384662
10
164.52484999999973
20
-121.73170091384662
42
0.4142135623730806
10
166.32484999999974
20
-119.93170091384664
10
166.32484999999974
20
-109.78379391384667
42
-0.41421356237309798
10
168.12484999999975
20
-107.98379391384665
10
208.9618499999998
20
-107.98379391384674
42
-0.41421356237309503
10
210.76184999999981
20
-109.78379391384675
10
210.76184999999975
20
-125.9317009138467
42
0.41421356237311241
10
212.56184999999974
20
-127.73170091384672
10
347.32084999999972
20
-127.73170091384699
42
0.41421356237310542
10
349.32084999999972
20
-125.73170091384704
10
349.32085000000001
20
-1.9748939138470156
42
0.41421356237312495
10
347.32084999999995
20
0.025106086152932583
10
0.34193459999997344
20
0.025106086153698359
42
0.41421356237309481
0
LWPOLYLINE
5
168
100
AcDbEntity
8
0
100
AcDbPolyline
90
8
70
1
43
0.0
10
43.744049999999774
20
-103.38379391384615
10
43.744049999999788
20
-90.784393913846372
42
-0.41421356237309503
10
45.544049999999785
20
-88.98439391384639
10
58.943349999999775
20
-88.984393913846418
42
-0.41421356237309503
10
60.743349999999772
20
-90.784393913846415
10
60.743349999999765
20
-103.3837939138462
42
-0.41421356237309215
10
58.943349999999768
20
-105.18379391384619
10
45.544049999999778
20
-105.18379391384616
42
-0.41421356237309359
0
LWPOLYLINE
5
169
100
AcDbEntity
8
0
100
AcDbPolyline
90
8
70
1
43
0.0
10
234.35584999999989
20
-67.883593913846795
10
221.75684999999984
20
-67.883593913846724
42
-0.41421356237309503
10
219.95684999999983
20
-66.083593913846727
10
219.95684999999986
20
-52.684293913846751
42
-0.41421356237309648
10
221.75684999999987
20
-50.884293913846747
10
234.35584999999992
20
-50.884293913846783
42
-0.41421356237309648
10
236.15584999999993
20
-52.684293913846787
10
236.15584999999987
20
-66.083593913846798
42
-0.41421356237309215
0
LWPOLYLINE
5
170
100
AcDbEntity
8
0
100
AcDbPolyline
90
8
70
1
43
0.0
10
229.48184999999989
20
-46.233593913846747
10
229.48184999999992
20
-33.63429391384674
42
-0.41421356237309287
10
231.28184999999991
20
-31.834293913846757
10
243.68084999999991
20
-31.834293913846786
42
-0.41421356237309725
10
245.48084999999989
20
-33.634293913846797
10
245.48084999999986
20
-46.233593913846782
42
-0.41421356237309503
10
243.68084999999985
20
-48.033593913846779
10
231.28184999999988
20
-48.033593913846751
42
-0.41421356237309648
0
LWPOLYLINE
5
171
100
AcDbEntity
8
0
100
AcDbPolyline
90
24
70
1
43
0.0
10
25.262500062141157
20
-30.034293913846323
42
0.41421356237309503
10
27.062500062141154
20
-31.834293913846331
10
35.130849999999917
20
-31.834293913846349
42
-0.41421356237308998
10
36.930849999999907
20
-33.634293913846321
10
36.930849999999886
20
-47.033593913846339
42
-0.41421356237309359
10
35.130849999999889
20
-48.833593913846329
10
3.4814999999998753
20
-48.833593913846293
42
-0.41421356237309648
10
1.6814999999998756
20
-47.033593913846289
10
1.6814999999999021
20
-33.634293913846257
42
-0.41421356237309293
10
3.4814999999999086
20
-31.834293913846274
10
3.5419345999999097
20
-31.834293913846281
42
0.41421356237309342
10
5.3419345999999148
20
-30.03429391384628
10
5.3419345999999273
20
-24.883393913846291
42
0.41421356237309415
10
3.5419345999999297
20
-23.083393913846287
10
3.4814999999999201
20
-23.083393913846287
42
-0.41421356237309503
10
1.6814999999999249
20
-21.283393913846282
10
1.6814999999999518
20
-7.8843939138462655
42
-0.41421356237309548
10
3.4814999999999561
20
-6.0843939138462666
10
16.081049999999966
20
-6.0843939138462941
42
-0.41421356237309559
10
17.881049999999963
20
-7.8843939138462993
10
17.881049999999938
20
-20.747063500089958
42
0.41421356237309398
10
19.681049999999921
20
-22.547063500089969
10
23.462500062141174
20
-22.54706350008999
42
-0.41421356237309359
10
25.262500062141164
20
-24.347063500089998
0
LWPOLYLINE
5
172
100
AcDbEntity
8
0
100
AcDbPolyline
90
8
70
1
43
0.0
10
52.687849999999742
20
-108.83429391384639
10
67.487149999999772
20
-108.83429391384645
42
-0.41421356237309503
10
69.28714999999977
20
-110.63429391384645
10
69.287149999999713
20
-122.43375391384669
42
-0.41421356237309503
10
67.487149999999716
20
-124.23375391384668
10
52.687849999999713
20
-124.23375391384666
42
-0.41421356237309503
10
50.887849999999716
20
-122.43375391384666
10
50.88784999999973
20
-110.63429391384642
42
-0.41421356237309503
0
ENDSEC
0
SECTION
2
OBJECTS
0
DICTIONARY
5
C
100
AcDbDictionary
3
ACAD_GROUP
350
D
3
ACAD_MLINESTYLE
350
17
0
DICTIONARY
5
D
100
AcDbDictionary
0
DICTIONARY
5
1A
330
C
100
AcDbDictionary
0
DICTIONARY
5
17
100
AcDbDictionary
0
ENDSEC
0
EOF
