0
SECTION
2
HEADER
9
$INSUNITS
70
4
9
$ACADVER
1
AC1014
9
$HANDSEED
5
FFFF
0
ENDSEC
0
SECTION
2
TABLES
0
TABLE
2
VPORT
5
8
100
AcDbSymbolTable
0
ENDTAB
0
TABLE
2
LTYPE
5
5
100
AcDbSymbolTable
0
LTYPE
5
14
100
AcDbSymbolTableRecord
100
AcDbLinetypeTableRecord
2
BYBLOCK
70
0
0
LTYPE
5
15
100
AcDbSymbolTableRecord
100
AcDbLinetypeTableRecord
2
BYLAYER
70
0
0
LTYPE
5
16
100
AcDbSymbolTableRecord
100
AcDbLinetypeTableRecord
2
DASHED
70
0
3
Dashed __ __ __ __ __ __ __ __ __ __ __ __ __ _
72
65
73
2
40
0.75
49
0.5
74
0
49
-0.25
74
0
0
ENDTAB
0
TABLE
2
LAYER
5
2
100
AcDbSymbolTable
70
2
0
LAYER
5
50
100
AcDbSymbolTableRecord
100
AcDbLayerTableRecord
2
0
70
0
62
7
6
CONTINUOUS
0
ENDTAB
0
TABLE
2
STYLE
5
3
100
AcDbSymbolTable
70
1
0
STYLE
5
11
100
AcDbSymbolTableRecord
100
AcDbTextStyleTableRecord
2
STANDARD
70
0
0
ENDTAB
0
TABLE
2
VIEW
5
6
100
AcDbSymbolTable
70
0
0
ENDTAB
0
TABLE
2
UCS
5
7
100
AcDbSymbolTable
70
0
0
ENDTAB
0
TABLE
2
APPID
5
9
100
AcDbSymbolTable
70
2
0
APPID
5
12
100
AcDbSymbolTableRecord
100
AcDbRegAppTableRecord
2
ACAD
70
0
0
ENDTAB
0
TABLE
2
DIMSTYLE
5
A
100
AcDbSymbolTable
70
1
0
ENDTAB
0
TABLE
2
BLOCK_RECORD
5
1
100
AcDbSymbolTable
70
1
0
BLOCK_RECORD
5
1F
100
AcDbSymbolTableRecord
100
AcDbBlockTableRecord
2
*MODEL_SPACE
0
BLOCK_RECORD
5
1B
100
AcDbSymbolTableRecord
100
AcDbBlockTableRecord
2
*PAPER_SPACE
0
ENDTAB
0
ENDSEC
0
SECTION
2
BLOCKS
0
BLOCK
5
20
100
AcDbEntity
100
AcDbBlockBegin
2
*MODEL_SPACE
0
ENDBLK
5
21
100
AcDbEntity
100
AcDbBlockEnd
0
BLOCK
5
1C
100
AcDbEntity
100
AcDbBlockBegin
2
*PAPER_SPACE
0
ENDBLK
5
1D
100
AcDbEntity
100
AcDbBlockEnd
0
ENDSEC
0
SECTION
2
ENTITIES
0
LWPOLYLINE
5
100
100
AcDbEntity
8
0
100
AcDbPolyline
90
4
70
1
43
0.0
10
96.632487263239653
20
-25.958893879144689
10
166.96250006214098
20
-25.958893921197902
42
-0.99999999999999989
10
166.96250006214098
20
-28.958893921197898
10
96.632487263143062
20
-28.95889387460981
42
-0.99999947824666402
0
LWPOLYLINE
5
101
100
AcDbEntity
8
0
100
AcDbPolyline
90
4
70
1
43
0.0
10
250.97868876559747
20
-28.958893874297267
10
180.96250006214095
20
-28.958893921197898
42
-0.99999999999999989
10
180.96250006214095
20
-25.958893921197902
10
250.97868876553679
20
-25.958893879155617
42
-1.0000011050249511
0
LWPOLYLINE
5
102
100
AcDbEntity
8
0
100
AcDbPolyline
90
8
70
1
43
0.0
10
76.948849999999993
20
-109.53429391302892
10
89.699949999999973
20
-109.53429391302892
42
-0.41421356237309503
10
90.199949999999973
20
-110.03429391302893
10
90.199949999999973
20
-125.03462391302891
42
-0.4142135623730846
10
89.699949999999973
20
-125.5346239130289
10
76.948849999999979
20
-125.5346239130289
42
-0.41421356237308982
10
76.448849999999993
20
-125.0346239130289
10
76.448849999999993
20
-110.0342939130289
42
-0.4142135623730846
0
LWPOLYLINE
5
103
100
AcDbEntity
8
0
100
AcDbPolyline
90
66
70
1
43
0.0
10
74.824856497777148
20
-127.7317009130289
10
91.823943502222832
20
-127.7317009130289
42
0.26868373515914001
10
92.691336074914545
20
-127.2293253947812
10
93.262311970827142
20
-126.23407642801686
42
-0.26868373515915134
10
94.129704543518869
20
-125.73170090976913
10
172.60987158741034
20
-125.73170090976916
42
-0.26935266418173831
10
173.47850310184481
20
-126.23624224133022
10
174.04371237380789
20
-127.22715958146793
42
0.26935266418170523
10
174.91234388824239
20
-127.7317009130289
10
191.9863561117576
20
-127.7317009130289
42
0.26935266418175619
10
192.8549876261921
20
-127.22715958146787
10
193.42019689815515
20
-126.23624224133025
42
-0.26935266418174258
10
194.28882841258962
20
-125.73170090976919
10
211.62263947118916
20
-125.73170090976905
42
-0.26935266418175141
10
212.4912709856236
20
-126.23624224133009
10
214.87348083629212
20
-130.41270070719236
42
0.51162832760067689
10
219.53349031469062
20
-130.41270070715714
10
221.91570016524759
20
-126.23624224134326
42
-0.26935266418580006
10
222.78433167968953
20
-125.73170090976909
10
298.36763947156396
20
-125.73170090976909
42
-0.26935266418170878
10
299.23627098599843
20
-126.2362422413301
10
301.61848083629218
20
-130.41270070653519
42
0.51162832760067567
10
306.2784903146906
20
-130.41270070649995
10
308.66070016487276
20
-126.23624224134326
42
-0.26935266418580006
10
309.52933167931474
20
-125.73170090976909
10
345.32085000000029
20
-125.73170090976907
42
0.41421356237310542
10
347.32085000000041
20
-123.73170090976906
10
347.32085000000035
20
-1.974893913007385
42
0.41421356237311191
10
345.32085000000029
20
0.025106086992616461
10
309.52933179986479
20
0.025106086992636029
42
-0.26935266418375264
10
308.66070028542657
20
0.52964741856020503
10
306.27849031419959
20
4.7061060958575078
42
0.51162832760068055
10
301.61848083580111
20
4.7061060958574714
10
299.23627086457418
20
0.52964741856023723
42
-0.26935266418373904
10
298.36763935013602
20
0.025106086992636306
10
222.78433179986473
20
0.025106086992618265
42
-0.26935266418378584
10
221.91570028542654
20
0.52964741856021813
10
219.53349031419958
20
4.7061060958574377
42
0.51162832760067867
10
214.8734808358011
20
4.7061060958573888
10
212.4912708645742
20
0.52964741856022002
42
-0.26935266418378645
10
211.62263935013598
20
0.025106086992618959
10
136.04014524986457
20
0.025106086992608828
42
-0.26935266418376835
10
135.1715137354264
20
0.52964741856019104
10
132.78930376419947
20
4.70610609585726
42
0.51162832760067889
10
128.12929428580105
20
4.7061060958572991
10
125.74708431457415
20
0.52964741856018538
42
-0.26935266418376796
10
124.87845280013595
20
0.025106086992602306
10
49.295145249864525
20
0.025106086992603277
42
-0.26935266418375903
10
48.426513735426333
20
0.52964741856019115
10
46.044303764199441
20
4.706106095857189
42
0.51162832760067944
10
41.384294285801026
20
4.7061060958572218
10
39.002084314056596
20
0.52964741765281165
42
-0.26935266418376441
10
38.133452799618397
20
0.025106086085219387
10
2.1779346000002864
20
0.025106086085260326
42
0.41421356237309481
10
0.1779346000002785
20
-1.9748939139147388
10
0.17793460000029376
20
-123.73170091067642
42
0.41421356237310086
10
2.1779346000002868
20
-125.73170091067645
10
38.133452920956998
20
-125.73170091067645
42
-0.2693526641817432
10
39.002084435391431
20
-126.23624224223745
10
41.384294286292032
20
-130.41270070850658
42
0.51162832760068011
10
46.044303764690461
20
-130.41270070847125
10
48.426513615997138
20
-126.23624224134326
42
-0.2693526641857924
10
49.295145130439053
20
-125.7317009097691
10
72.519095456481068
20
-125.7317009097691
42
-0.26868373515914895
10
73.386488029172796
20
-126.23407642801683
10
73.957463925085406
20
-127.22932539478121
42
0.26868373515914717
0
LWPOLYLINE
5
104
100
AcDbEntity
8
0
100
AcDbPolyline
90
31
70
1
43
0.0
10
240.13784999999999
20
-108.03429391302892
10
40.562249999999977
20
-108.03429391302892
42
-0.41421356237309337
10
39.062249999999985
20
-106.53429391302892
10
39.062249999999985
20
-89.984393913028896
42
0.41421356237309764
10
37.562249999999992
20
-88.484393913028882
10
27.02474999999998
20
-88.48439391302891
42
-0.41421356237309503
10
25.52474999999998
20
-86.98439391302891
10
25.52474999999998
20
-70.869781361477607
42
0.35459172604556732
10
24.334149999999987
20
-69.402037637253272
42
-0.35459172604556577
10
23.143549999999983
20
-67.93429391302891
10
23.143549999999976
20
-51.884293913028898
42
0.41421356237309337
10
21.643549999999976
20
-50.384293913028898
10
19.881049999999977
20
-50.384293913028912
42
-0.41421356237309503
10
18.381049999999981
20
-48.884293913028912
10
18.381049999999981
20
-33.208893921197905
42
-0.41421356237309592
10
19.881049999999977
20
-31.708893921197902
10
247.28184999999999
20
-31.708893921197916
42
-0.41421356237309503
10
248.78184999999999
20
-33.208893921197898
10
248.78184999999999
20
-49.834593913028904
42
0.41421356237310197
10
250.28185000000002
20
-51.334593913028925
10
260.81885
20
-51.334593913028918
42
-0.41421356237309503
10
262.31885
20
-52.834593913028904
10
262.31885
20
-67.93429391302891
42
-0.41421356237309503
10
260.81885
20
-69.43429391302891
10
247.89884999999998
20
-69.43429391302891
42
0.41421356237310025
10
246.39884999999998
20
-70.93429391302891
10
246.39884999999998
20
-86.98439391302891
42
-0.41421356237309503
10
244.89884999999998
20
-88.48439391302891
10
243.13784999999999
20
-88.484393913028896
42
0.41421356237312279
10
241.63785000000001
20
-89.984393913028896
10
241.63784999999996
20
-106.53429391302892
42
-0.41421356237309503
0
LWPOLYLINE
5
105
100
AcDbEntity
8
0
100
AcDbPolyline
90
8
70
1
43
0.0
10
68.7687729331642
20
-110.03429391302893
42
0.41421356237309503
10
68.2687729331642
20
-109.53429391302892
10
52.887849999999972
20
-109.53429391302892
42
0.4142135623730846
10
52.387849999999986
20
-110.0342939130289
10
52.387849999999986
20
-123.0337539130289
42
0.41421356237309503
10
52.887849999999979
20
-123.53375391302892
10
68.2687729331642
20
-123.5337539130289
42
0.41421356237309503
10
68.768772933164172
20
-123.0337539130289
0
LWPOLYLINE
5
106
100
AcDbEntity
8
0
100
AcDbPolyline
90
8
70
1
43
0.0
10
280.19984999999997
20
-123.53334614783981
10
264.81877293316404
20
-123.53334614783981
42
-0.41421356237309503
10
264.31877293316398
20
-123.03334614783979
10
264.31877293316398
20
-110.03429391302886
42
-0.4142135623730846
10
264.81877293316404
20
-109.53429391302888
10
280.19984999999997
20
-109.53429391302888
42
-0.41421356237309503
10
280.69984999999997
20
-110.03429391302888
10
280.69984999999997
20
-123.03334614783981
42
-0.4142135623730846
0
LWPOLYLINE
5
107
100
AcDbEntity
8
0
100
AcDbPolyline
90
8
70
1
43
0.0
10
256.38684999999998
20
-123.53334614783981
10
241.00627293316398
20
-123.53334614783981
42
-0.41421356237309503
10
240.50627293316398
20
-123.03334614783979
10
240.50627293316398
20
-110.03429391302888
42
-0.4142135623730846
10
241.00627293316398
20
-109.53429391302889
10
256.38684999999998
20
-109.53429391302889
42
-0.41421356237309503
10
256.88684999999998
20
-110.03429391302889
10
256.88684999999998
20
-123.03334614783981
42
-0.4142135623730846
0
LWPOLYLINE
5
108
100
AcDbEntity
8
0
100
AcDbPolyline
90
8
70
1
43
0.0
10
232.57484999999997
20
-123.53334614783981
10
217.19377293316398
20
-123.53334614783981
42
-0.41421356237309503
10
216.69377293316398
20
-123.03334614783979
10
216.69377293316398
20
-110.03429391302888
42
-0.4142135623730846
10
217.19377293316398
20
-109.53429391302889
10
232.57484999999997
20
-109.53429391302889
42
-0.41421356237309503
10
233.07484999999997
20
-110.03429391302889
10
233.07484999999997
20
-123.03334614783981
42
-0.4142135623730846
0
LWPOLYLINE
5
109
100
AcDbEntity
8
0
100
AcDbPolyline
90
8
70
1
43
0.0
10
208.76184999999998
20
-123.5337539130289
10
193.38085000000001
20
-123.5337539130289
42
-0.41421356237309503
10
192.88084999999998
20
-123.0337539130289
10
192.88084999999998
20
-110.03429391302888
42
-0.4142135623730846
10
193.38085000000001
20
-109.53429391302889
10
208.76184999999998
20
-109.53429391302889
42
-0.41421356237309503
10
209.26185000000001
20
-110.03429391302889
10
209.26185000000001
20
-123.0337539130289
42
-0.41421356237309503
0
LWPOLYLINE
5
110
100
AcDbEntity
8
0
100
AcDbPolyline
90
8
70
1
43
0.0
10
325.94385
20
-8.0843939130289009
10
325.94384999999994
20
-21.083393913028914
42
-0.41421356237309503
10
325.44385
20
-21.583393913028914
10
312.44385
20
-21.583393913028921
42
-0.41421356237309764
10
311.94385
20
-21.08339391302891
10
311.94385
20
-8.084393913028908
42
-0.41421356237309631
10
312.44385
20
-7.5843939130289062
10
325.44385000000005
20
-7.5843939130289346
42
-0.41421356237309115
0
LWPOLYLINE
5
111
100
AcDbEntity
8
0
100
AcDbPolyline
90
8
70
1
43
0.0
10
12.51224999999998
20
-106.48459391302892
10
6.0126499999999972
20
-106.4845939130289
42
-0.41421356237309764
10
5.5126499999999918
20
-105.98459391302889
10
5.5126499999999821
20
-90.984393913028896
42
-0.41421356237309959
10
6.0126499999999972
20
-90.484393913028896
10
12.51224999999998
20
-90.48439391302891
42
-0.41421356237309503
10
13.01224999999998
20
-90.98439391302891
10
13.012250000000005
20
-105.98459391302889
42
-0.41421356237309503
0
LWPOLYLINE
5
112
100
AcDbEntity
8
0
100
AcDbPolyline
90
8
70
1
43
0.0
10
29.56274999999998
20
-105.9845939130289
10
29.562749999999973
20
-90.984393913028896
42
-0.41421356237309503
10
30.06274999999998
20
-90.484393913028896
10
36.562249999999992
20
-90.484393913028896
42
-0.41421356237309503
10
37.062249999999992
20
-90.984393913028896
10
37.062249999999999
20
-105.98459391302889
42
-0.41421356237309503
10
36.562249999999992
20
-106.4845939130289
10
30.06274999999998
20
-106.4845939130289
42
-0.4142135623730846
0
LWPOLYLINE
5
113
100
AcDbEntity
8
0
100
AcDbPolyline
90
8
70
1
43
0.0
10
293.39384999999999
20
-33.334293913028915
10
306.39384999999999
20
-33.334293913028901
42
-0.41421356237309503
10
306.89385000000004
20
-33.834293913028908
10
306.89384999999999
20
-46.83359391302892
42
-0.41421356237309503
10
306.39384999999999
20
-47.333593913028913
10
293.39384999999999
20
-47.33359391302892
42
-0.41421356237309503
10
292.89384999999999
20
-46.83359391302892
10
292.89384999999999
20
-33.834293913028908
42
-0.41421356237309503
0
LWPOLYLINE
5
114
100
AcDbEntity
8
0
100
AcDbPolyline
90
8
70
1
43
0.0
10
282.33085
20
-33.834293913028908
10
282.33085
20
-48.834593913028918
42
-0.41421356237309503
10
281.83085
20
-49.334593913028911
10
275.33184999999997
20
-49.334593913028911
42
-0.41421356237309503
10
274.83184999999997
20
-48.834593913028911
10
274.83185000000003
20
-33.834293913028908
42
-0.41421356237309503
10
275.33185000000003
20
-33.334293913028915
10
281.83085
20
-33.334293913028901
42
-0.41421356237309243
0
LWPOLYLINE
5
115
100
AcDbEntity
8
0
100
AcDbPolyline
90
8
70
1
43
0.0
10
2.3814999999999813
20
-21.083393913028907
10
2.3814999999999809
20
-8.0843939130289026
42
-0.41421356237309631
10
2.8814999999999813
20
-7.5843939130288991
10
15.881049999999984
20
-7.5843939130288991
42
-0.41421356237309631
10
16.381049999999984
20
-8.0843939130289026
10
16.381049999999988
20
-21.083393913028907
42
-0.41421356237309764
10
15.881049999999988
20
-21.583393913028907
10
2.8814999999999458
20
-21.583393913028871
42
-0.41421356237309764
0
LWPOLYLINE
5
116
100
AcDbEntity
8
0
100
AcDbPolyline
90
8
70
1
43
0.0
10
306.39384999999999
20
-21.583393913028907
10
293.39384999999999
20
-21.583393913028921
42
-0.41421356237309764
10
292.89384999999999
20
-21.08339391302891
10
292.89384999999999
20
-8.084393913028908
42
-0.41421356237309698
10
293.39384999999999
20
-7.5843939130289053
10
306.39384999999999
20
-7.5843939130288991
42
-0.41421356237309631
10
306.89384999999999
20
-8.084393913028908
10
306.89384999999999
20
-21.083393913028914
42
-0.41421356237309503
0
LWPOLYLINE
5
117
100
AcDbEntity
8
0
100
AcDbPolyline
90
8
70
1
43
0.0
10
282.58085
20
-21.583393913028907
10
269.58185000000003
20
-21.583393913028921
42
-0.41421356237309764
10
269.08184999999997
20
-21.08339391302891
10
269.08184999999997
20
-8.084393913028908
42
-0.41421356237309698
10
269.58185000000003
20
-7.5843939130289053
10
282.58085
20
-7.5843939130288982
42
-0.41421356237309631
10
283.08085
20
-8.084393913028908
10
283.08085
20
-21.08339391302891
42
-0.41421356237309764
0
LWPOLYLINE
5
118
100
AcDbEntity
8
0
100
AcDbPolyline
90
8
70
1
43
0.0
10
263.53084999999999
20
-21.583393913028907
10
250.53184999999999
20
-21.583393913028921
42
-0.41421356237309503
10
250.03184999999999
20
-21.083393913028914
10
250.03184999999999
20
-8.0843939130289062
42
-0.41421356237309631
10
250.53184999999999
20
-7.5843939130289044
10
263.53084999999999
20
-7.5843939130288982
42
-0.41421356237309631
10
264.03084999999999
20
-8.084393913028908
10
264.03084999999999
20
-21.08339391302891
42
-0.41421356237309764
0
LWPOLYLINE
5
119
100
AcDbEntity
8
0
100
AcDbPolyline
90
8
70
1
43
0.0
10
244.48084999999998
20
-21.583393913028907
10
231.48184999999998
20
-21.583393913028921
42
-0.41421356237309764
10
230.98184999999998
20
-21.08339391302891
10
230.98184999999998
20
-8.084393913028908
42
-0.41421356237309698
10
231.48184999999998
20
-7.5843939130289053
10
244.48084999999998
20
-7.5843939130288973
42
-0.41421356237309503
10
244.98085
20
-8.0843939130289044
10
244.98085
20
-21.083393913028914
42
-0.41421356237309503
0
LWPOLYLINE
5
120
100
AcDbEntity
8
0
100
AcDbPolyline
90
8
70
1
43
0.0
10
225.43084999999996
20
-21.583393913028907
10
212.43184999999997
20
-21.583393913028921
42
-0.41421356237309503
10
211.93184999999997
20
-21.083393913028914
10
211.93184999999997
20
-8.084393913028908
42
-0.41421356237309698
10
212.43184999999997
20
-7.5843939130289053
10
225.43084999999996
20
-7.5843939130288973
42
-0.4142135623730957
10
225.93084999999999
20
-8.0843939130289062
10
225.93084999999999
20
-21.08339391302891
42
-0.41421356237309764
0
LWPOLYLINE
5
121
100
AcDbEntity
8
0
100
AcDbPolyline
90
8
70
1
43
0.0
10
196.85584999999998
20
-21.583393913028907
10
183.85685000000001
20
-21.583393913028921
42
-0.41421356237309764
10
183.35685000000001
20
-21.08339391302891
10
183.35684999999998
20
-8.0843939130289062
42
-0.41421356237309698
10
183.85684999999998
20
-7.5843939130289026
10
196.85584999999998
20
-7.5843939130288964
42
-0.4142135623730957
10
197.35584999999998
20
-8.0843939130289044
10
197.35584999999998
20
-21.08339391302891
42
-0.41421356237309764
0
LWPOLYLINE
5
122
100
AcDbEntity
8
0
100
AcDbPolyline
90
8
70
1
43
0.0
10
177.80584999999996
20
-21.583393913028907
10
164.80685
20
-21.583393913028921
42
-0.41421356237309764
10
164.30685
20
-21.08339391302891
10
164.30684999999997
20
-8.0843939130289062
42
-0.41421356237309698
10
164.80684999999997
20
-7.5843939130289026
10
177.80584999999999
20
-7.5843939130288964
42
-0.41421356237309503
10
178.30584999999999
20
-8.0843939130289026
10
178.30584999999996
20
-21.08339391302891
42
-0.41421356237309764
0
LWPOLYLINE
5
123
100
AcDbEntity
8
0
100
AcDbPolyline
90
8
70
1
43
0.0
10
158.75584999999995
20
-21.583393913028907
10
145.75684999999999
20
-21.583393913028921
42
-0.41421356237309764
10
145.25684999999999
20
-21.08339391302891
10
145.25684999999999
20
-8.0843939130289062
42
-0.41421356237309698
10
145.75684999999999
20
-7.5843939130289026
10
158.75584999999998
20
-7.5843939130288964
42
-0.41421356237309503
10
159.25584999999998
20
-8.0843939130289026
10
159.25584999999995
20
-21.08339391302891
42
-0.41421356237309764
0
LWPOLYLINE
5
124
100
AcDbEntity
8
0
100
AcDbPolyline
90
8
70
1
43
0.0
10
139.70584999999994
20
-21.583393913028907
10
126.70684999999999
20
-21.583393913028921
42
-0.41421356237309764
10
126.20684999999997
20
-21.08339391302891
10
126.20684999999997
20
-8.0843939130289062
42
-0.41421356237309764
10
126.70684999999999
20
-7.5843939130289018
10
139.70584999999997
20
-7.5843939130288964
42
-0.4142135623730957
10
140.20584999999997
20
-8.0843939130289044
10
140.20584999999994
20
-21.08339391302891
42
-0.41421356237309764
0
LWPOLYLINE
5
125
100
AcDbEntity
8
0
100
AcDbPolyline
90
8
70
1
43
0.0
10
111.13084999999998
20
-21.583393913028907
10
98.13015
20
-21.583393913028921
42
-0.41421356237309764
10
97.630149999999986
20
-21.08339391302891
10
97.630149999999986
20
-8.0843939130289062
42
-0.41421356237309825
10
98.13015
20
-7.5843939130289009
10
111.13084999999998
20
-7.5843939130288955
42
-0.4142135623730957
10
111.63084999999998
20
-8.0843939130289026
10
111.63084999999997
20
-21.08339391302891
42
-0.41421356237309764
0
LWPOLYLINE
5
126
100
AcDbEntity
8
0
100
AcDbPolyline
90
8
70
1
43
0.0
10
92.08084999999997
20
-21.583393913028907
10
79.081549999999993
20
-21.583393913028914
42
-0.41421356237309503
10
78.581549999999993
20
-21.083393913028914
10
78.581549999999979
20
-8.0843939130289062
42
-0.41421356237309825
10
79.081549999999979
20
-7.5843939130289018
10
92.08084999999997
20
-7.5843939130288938
42
-0.41421356237309631
10
92.58084999999997
20
-8.0843939130289026
10
92.580849999999955
20
-21.08339391302891
42
-0.41421356237309764
0
LWPOLYLINE
5
127
100
AcDbEntity
8
0
100
AcDbPolyline
90
8
70
1
43
0.0
10
73.030850000000015
20
-21.583393913028907
10
60.031549999999996
20
-21.583393913028914
42
-0.41421356237309764
10
59.531549999999996
20
-21.08339391302891
10
59.531549999999989
20
-8.0843939130289062
42
-0.41421356237309764
10
60.031549999999989
20
-7.5843939130289018
10
73.030849999999987
20
-7.5843939130289026
42
-0.41421356237309631
10
73.530849999999987
20
-8.0843939130289026
10
73.530850000000015
20
-21.083393913028907
42
-0.41421356237309764
0
LWPOLYLINE
5
128
100
AcDbEntity
8
0
100
AcDbPolyline
90
8
70
1
43
0.0
10
53.980850000000004
20
-21.583393913028907
10
40.981549999999984
20
-21.583393913028914
42
-0.41421356237309503
10
40.481549999999984
20
-21.083393913028914
10
40.481549999999984
20
-8.0843939130289062
42
-0.41421356237309892
10
40.981549999999984
20
-7.5843939130288991
10
53.98084999999999
20
-7.5843939130289026
42
-0.41421356237309503
10
54.48084999999999
20
-8.0843939130289009
10
54.480849999999997
20
-21.083393913028907
42
-0.41421356237309764
0
LWPOLYLINE
5
129
100
AcDbEntity
8
0
100
AcDbPolyline
90
4
70
1
43
0.0
10
22.762500062141505
20
-30.408893921176375
10
17.762500062141505
20
-30.408893921176393
42
-0.99999999999999989
10
17.762500062141481
20
-24.508893921176384
10
22.762500062141488
20
-24.508893921176419
42
-0.99999999999999989
0
CIRCLE
5
130
100
AcDbEntity
8
0
100
AcDbCircle
10
303.94848557500035
20
3.0251060958574176
30
1.5265566588595902e-15
40
1.0999999999999943
210
2.6127775367812843e-32
220
-4.3021142204224811e-16
230
1
0
CIRCLE
5
131
100
AcDbEntity
8
0
100
AcDbCircle
10
217.20348557500034
20
3.0251060958573301
30
1.2490009027033011e-15
40
1.0999999999999943
210
2.6127775367812843e-32
220
-4.3021142204224811e-16
230
1
0
CIRCLE
5
132
100
AcDbEntity
8
0
100
AcDbCircle
10
43.714299025000223
20
3.0251060958571516
30
1.2490009027033011e-15
40
1.1000000000000034
210
1.4758720796562294e-33
220
-4.3021142204224816e-16
230
1
0
CIRCLE
5
133
100
AcDbEntity
8
0
100
AcDbCircle
10
130.45929902500023
20
3.0251060958572236
30
1.3877787807814457e-15
40
1.0999999999999943
210
2.6127775367812843e-32
220
-4.3021142204224811e-16
230
1
0
CIRCLE
5
134
100
AcDbEntity
8
0
100
AcDbCircle
10
217.20348557547865
20
-128.73170070717464
30
-5.287437154777308e-14
40
1.0999999999999941
210
2.060882539091574e-32
220
-4.4408920985006271e-16
230
1
0
LWPOLYLINE
5
135
100
AcDbEntity
8
0
100
AcDbPolyline
90
4
70
1
43
0.0
10
260.9786887655975
20
-25.958893879180387
42
0.99999999999999989
10
260.97868876559698
20
-28.958893874272409
10
314.66250006214102
20
-28.958893921197898
42
0.99999999999999989
10
314.66250006214102
20
-25.958893921197902
0
LWPOLYLINE
5
136
100
AcDbEntity
8
0
100
AcDbPolyline
90
4
70
1
43
0.0
10
86.632487263239625
20
-28.958893874287199
42
0.99999990784141191
10
86.632487266431866
20
-25.958893879144682
10
33.262500062141186
20
-25.958893921197902
42
0.99999999999999989
10
33.262500062141186
20
-28.958893921197905
0
CIRCLE
5
137
100
AcDbEntity
8
0
100
AcDbCircle
10
303.94848557547868
20
-128.7317007065175
30
-5.5094817597023393e-14
40
1.0999999999999941
210
2.060882539091574e-32
220
-4.4408920985006271e-16
230
1
0
CIRCLE
5
138
100
AcDbEntity
8
0
100
AcDbCircle
10
43.71429902547851
20
-128.73170070848886
30
-5.287437154777308e-14
40
1.1000000000000032
210
1.4758721313322628e-33
220
-4.3021142204224821e-16
230
1
0
LWPOLYLINE
5
139
100
AcDbEntity
8
0
100
AcDbPolyline
90
8
70
1
43
0.0
10
273.55584999999996
20
-33.834293913028908
10
273.55584999999996
20
-46.83359391302892
42
-0.41421356237309503
10
273.05584999999996
20
-47.333593913028913
10
260.05685
20
-47.333593913028913
42
-0.41421356237309503
10
259.55685
20
-46.833593913028906
10
259.55685
20
-33.834293913028908
42
-0.41421356237309503
10
260.05685
20
-33.334293913028915
10
273.05584999999996
20
-33.334293913028866
42
-0.41421356237309503
0
LWPOLYLINE
5
140
100
AcDbEntity
8
0
100
AcDbPolyline
90
8
70
1
43
0.0
10
251.28185000000002
20
-33.334293913028915
10
257.78084999999999
20
-33.334293913028901
42
-0.41421356237309243
10
258.28084999999999
20
-33.834293913028908
10
258.28084999999999
20
-48.834593913028918
42
-0.41421356237309503
10
257.78084999999999
20
-49.334593913028911
10
251.28185000000002
20
-49.334593913028925
42
-0.41421356237309503
10
250.78185000000002
20
-48.834593913028918
10
250.78185000000002
20
-33.834293913028908
42
-0.41421356237309503
0
LWPOLYLINE
5
141
100
AcDbEntity
8
0
100
AcDbPolyline
90
8
70
1
43
0.0
10
278.31885
20
-52.884293913028905
10
278.31884999999994
20
-65.883593913028903
42
-0.41421356237309503
10
277.81884999999994
20
-66.383593913028903
10
264.81885
20
-66.383593913028918
42
-0.41421356237309503
10
264.31885
20
-65.883593913028903
10
264.31885000000005
20
-52.884293913028905
42
-0.41421356237309503
10
264.81885000000005
20
-52.384293913028905
10
277.81885
20
-52.384293913028934
42
-0.41421356237309503
0
LWPOLYLINE
5
142
100
AcDbEntity
8
0
100
AcDbPolyline
90
8
70
1
43
0.0
10
306.39384999999999
20
-66.383593913028903
10
293.39384999999999
20
-66.383593913028918
42
-0.41421356237309503
10
292.89384999999999
20
-65.883593913028903
10
292.89384999999999
20
-52.884293913028905
42
-0.41421356237309503
10
293.39384999999999
20
-52.384293913028905
10
306.39384999999999
20
-52.384293913028898
42
-0.41421356237309503
10
306.89384999999999
20
-52.884293913028905
10
306.89384999999999
20
-65.883593913028903
42
-0.41421356237309503
0
LWPOLYLINE
5
143
100
AcDbEntity
8
0
100
AcDbPolyline
90
8
70
1
43
0.0
10
15.881049999999981
20
-47.333593913028906
10
2.8814999999999813
20
-47.333593913028906
42
-0.41421356237309537
10
2.3814999999999809
20
-46.833593913028906
10
2.3814999999999831
20
-33.834293913028915
42
-0.41421356237309764
10
2.8814999999999813
20
-33.334293913028915
10
15.881049999999984
20
-33.334293913028915
42
-0.41421356237309503
10
16.381049999999984
20
-33.834293913028908
10
16.38104999999997
20
-46.83359391302892
42
-0.41421356237309503
0
LWPOLYLINE
5
144
100
AcDbEntity
8
0
100
AcDbPolyline
90
8
70
1
43
0.0
10
20.643549999999983
20
-66.383593913028903
10
7.6440099999999811
20
-66.383593913028903
42
-0.4142135623730957
10
7.1440099999999793
20
-65.883593913028903
10
7.1440099999999829
20
-52.884293913028905
42
-0.41421356237309503
10
7.6440099999999811
20
-52.384293913028905
10
20.643549999999983
20
-52.384293913028905
42
-0.41421356237309503
10
21.14354999999998
20
-52.884293913028905
10
21.143549999999991
20
-65.883593913028903
42
-0.41421356237309503
0
LWPOLYLINE
5
145
100
AcDbEntity
8
0
100
AcDbPolyline
90
8
70
1
43
0.0
10
4.7625226253027408
20
-84.93334618632241
10
4.7625226253027408
20
-71.93429391302891
42
-0.41421356237309503
10
5.2625226253027391
20
-71.43429391302891
10
23.02474999999998
20
-71.43429391302891
42
-0.41421356237309503
10
23.52474999999998
20
-71.93429391302891
10
23.524749999999987
20
-84.93334618632241
42
-0.41421356237309764
10
23.024749999999976
20
-85.433346186322424
10
5.2625226253027435
20
-85.433346186322424
42
-0.41421356237309631
0
LWPOLYLINE
5
146
100
AcDbEntity
8
0
100
AcDbPolyline
90
8
70
1
43
0.0
10
28.287249999999982
20
-90.984393913028896
10
28.28724999999999
20
-103.98379391302889
42
-0.41421356237309503
10
27.787249999999982
20
-104.4837939130289
10
14.78774999999998
20
-104.4837939130289
42
-0.41421356237309503
10
14.28774999999998
20
-103.98379391302889
10
14.287749999999972
20
-90.984393913028896
42
-0.41421356237310025
10
14.787749999999988
20
-90.484393913028896
10
27.787249999999979
20
-90.484393913028896
42
-0.41421356237309503
0
LWPOLYLINE
5
147
100
AcDbEntity
8
0
100
AcDbPolyline
90
8
70
1
43
0.0
10
21.143772933164165
20
-110.03429391302895
10
21.143772933164179
20
-123.0337539130289
42
-0.41421356237309503
10
20.643772933164172
20
-123.5337539130289
10
5.2627599999999797
20
-123.5337539130289
42
-0.41421356237309503
10
4.7627599999999797
20
-123.0337539130289
10
4.7627599999999681
20
-110.03429391302895
42
-0.41421356237309503
10
5.2627599999999752
20
-109.53429391302893
10
20.643772933164186
20
-109.53429391302897
42
-0.41421356237309503
0
LWPOLYLINE
5
148
100
AcDbEntity
8
0
100
AcDbPolyline
90
8
70
1
43
0.0
10
44.956272933164179
20
-110.03429391302893
10
44.956272933164186
20
-123.0337539130289
42
-0.41421356237309503
10
44.456272933164186
20
-123.5337539130289
10
29.073849999999979
20
-123.5337539130289
42
-0.41421356237309503
10
28.573849999999979
20
-123.0337539130289
10
28.573849999999972
20
-110.0342939130289
42
-0.4142135623730846
10
29.073849999999979
20
-109.53429391302892
10
44.456272933164186
20
-109.53429391302893
42
-0.41421356237309503
0
LWPOLYLINE
5
149
100
AcDbEntity
8
0
100
AcDbPolyline
90
4
70
1
43
0.0
10
330.16250000000036
20
-30.408893921176393
10
325.16250000000042
20
-30.408893921176322
42
-0.99999999999999989
10
325.16250000000025
20
-24.508893921176377
10
330.16250000000036
20
-24.508893921176401
42
-0.99999999999999989
0
LWPOLYLINE
5
150
100
AcDbEntity
8
0
100
AcDbPolyline
90
8
70
1
43
0.0
10
331.49385000000001
20
-33.334293913028915
10
344.49385000000007
20
-33.334293913028944
42
-0.41421356237309243
10
344.99385000000007
20
-33.834293913028908
10
344.99385000000007
20
-46.83359391302892
42
-0.41421356237309503
10
344.49385000000007
20
-47.333593913028913
10
331.49385000000001
20
-47.333593913028892
42
-0.41421356237309503
10
330.99385000000007
20
-46.83359391302892
10
330.99385000000007
20
-33.834293913028908
42
-0.41421356237309503
0
LWPOLYLINE
5
151
100
AcDbEntity
8
0
100
AcDbPolyline
90
8
70
1
43
0.0
10
330.99385000000007
20
-21.08339391302891
10
330.99385000000007
20
-8.084393913028908
42
-0.41421356237309631
10
331.49385000000001
20
-7.5843939130289062
10
344.49385000000007
20
-7.5843939130289346
42
-0.41421356237309631
10
344.99385000000007
20
-8.084393913028908
10
344.99385000000007
20
-21.083393913028914
42
-0.41421356237309764
10
344.49385000000007
20
-21.583393913028917
10
331.49385000000001
20
-21.583393913028885
42
-0.41421356237309764
0
LWPOLYLINE
5
152
100
AcDbEntity
8
0
100
AcDbPolyline
90
8
70
1
43
0.0
10
331.49385000000001
20
-52.384293913028905
10
344.49385000000007
20
-52.384293913028934
42
-0.41421356237309503
10
344.99385000000007
20
-52.884293913028905
10
344.99385000000007
20
-65.883593913028918
42
-0.41421356237309503
10
344.49385000000007
20
-66.383593913028918
10
331.49385000000001
20
-66.383593913028889
42
-0.41421356237309503
10
330.99385000000007
20
-65.883593913028918
10
330.99385000000007
20
-52.884293913028905
42
-0.41421356237309503
0
LWPOLYLINE
5
153
100
AcDbEntity
8
0
100
AcDbPolyline
90
8
70
1
43
0.0
10
149.23127293316398
20
-123.53334406977555
10
124.32384999999998
20
-123.53334614783986
42
-0.41421356237309503
10
123.82384999999998
20
-123.03334614783985
10
123.82384999999998
20
-110.0342939130289
42
-0.4142135623730846
10
124.32384999999998
20
-109.53429391302892
10
149.23127293316398
20
-109.5342939130289
42
-0.41421356237309503
10
149.73127293316398
20
-110.0342939130289
10
149.73127085509972
20
-123.03334614783985
42
-0.41421356237307422
0
LWPOLYLINE
5
154
100
AcDbEntity
8
0
100
AcDbPolyline
90
8
70
1
43
0.0
10
176.44884999999999
20
-125.0346239130289
10
176.44884999999999
20
-110.03429391302889
42
-0.4142135623730846
10
176.94884999999999
20
-109.5342939130289
10
189.94984999999997
20
-109.5342939130289
42
-0.41421356237309503
10
190.44984999999997
20
-110.0342939130289
10
190.44984999999997
20
-125.03462391302891
42
-0.4142135623730846
10
189.94984999999997
20
-125.5346239130289
10
176.94884999999999
20
-125.5346239130289
42
-0.41421356237309503
0
LWPOLYLINE
5
155
100
AcDbEntity
8
0
100
AcDbPolyline
90
8
70
1
43
0.0
10
325.94385
20
-110.03429391302888
10
325.94385
20
-123.0337539130289
42
-0.41421356237309503
10
325.44385000000005
20
-123.5337539130289
10
312.44385
20
-123.5337539130289
42
-0.41421356237309503
10
311.94385
20
-123.0337539130289
10
311.94385
20
-110.03429391302888
42
-0.41421356237309503
10
312.44385
20
-109.53429391302888
10
325.44385000000005
20
-109.5342939130289
42
-0.41421356237309503
0
LWPOLYLINE
5
156
100
AcDbEntity
8
0
100
AcDbPolyline
90
8
70
1
43
0.0
10
306.39384999999999
20
-123.53375391302892
10
293.39384999999999
20
-123.5337539130289
42
-0.41421356237309503
10
292.89384999999999
20
-123.0337539130289
10
292.89384999999999
20
-110.03429391302888
42
-0.41421356237309503
10
293.39384999999999
20
-109.53429391302888
10
306.39384999999999
20
-109.53429391302888
42
-0.41421356237309503
10
306.89384999999999
20
-110.03429391302888
10
306.89385000000004
20
-123.0337539130289
42
-0.41421356237309503
0
LWPOLYLINE
5
157
100
AcDbEntity
8
0
100
AcDbPolyline
90
8
70
1
43
0.0
10
312.44385
20
-90.48439391302891
10
325.44385000000005
20
-90.484393913028924
42
-0.41421356237309503
10
325.94385
20
-90.984393913028896
10
325.94385
20
-103.9837939130289
42
-0.41421356237309503
10
325.44385000000005
20
-104.48379391302892
10
312.44385
20
-104.4837939130289
42
-0.41421356237309503
10
311.94385
20
-103.98379391302889
10
311.94385
20
-90.984393913028924
42
-0.41421356237309503
0
LWPOLYLINE
5
158
100
AcDbEntity
8
0
100
AcDbPolyline
90
8
70
1
43
0.0
10
312.44385
20
-52.384293913028905
10
325.44385000000005
20
-52.384293913028934
42
-0.41421356237309503
10
325.94385
20
-52.884293913028905
10
325.94385
20
-65.883593913028918
42
-0.41421356237309503
10
325.44385000000005
20
-66.383593913028918
10
312.44385
20
-66.383593913028918
42
-0.41421356237309503
10
311.94385
20
-65.883593913028903
10
311.94385
20
-52.884293913028905
42
-0.41421356237309503
0
LWPOLYLINE
5
159
100
AcDbEntity
8
0
100
AcDbPolyline
90
8
70
1
43
0.0
10
311.94385
20
-46.83359391302892
10
311.94385
20
-33.834293913028908
42
-0.41421356237309503
10
312.44385
20
-33.334293913028915
10
325.44385000000005
20
-33.334293913028937
42
-0.41421356237309243
10
325.94385
20
-33.834293913028908
10
325.94385
20
-46.833593913028906
42
-0.41421356237310025
10
325.44385000000005
20
-47.333593913028913
10
312.44385
20
-47.33359391302892
42
-0.41421356237309503
0
LWPOLYLINE
5
160
100
AcDbEntity
8
0
100
AcDbPolyline
90
8
70
1
43
0.0
10
330.99385000000007
20
-123.0337539130289
10
330.99384999999995
20
-110.03429391302885
42
-0.4142135623730846
10
331.49385000000001
20
-109.53429391302885
10
344.49385000000007
20
-109.53429391302889
42
-0.41421356237309503
10
344.99385000000007
20
-110.03429391302886
10
344.99385000000007
20
-123.0337539130289
42
-0.41421356237309503
10
344.49385000000007
20
-123.5337539130289
10
331.49385000000001
20
-123.53375391302887
42
-0.41421356237309503
0
LWPOLYLINE
5
161
100
AcDbEntity
8
0
100
AcDbPolyline
90
8
70
1
43
0.0
10
251.13785000000001
20
-90.98439391302891
10
251.13785000000001
20
-105.98459391302889
42
-0.41421356237309503
10
250.63784999999999
20
-106.4845939130289
10
244.13785000000001
20
-106.4845939130289
42
-0.41421356237309503
10
243.63785000000001
20
-105.98459391302889
10
243.63785000000001
20
-90.984393913028896
42
-0.41421356237309503
10
244.13785000000001
20
-90.484393913028896
10
250.63784999999999
20
-90.48439391302891
42
-0.41421356237309503
0
LWPOLYLINE
5
162
100
AcDbEntity
8
0
100
AcDbPolyline
90
8
70
1
43
0.0
10
268.18784999999997
20
-90.48439391302891
10
274.68684999999999
20
-90.48439391302891
42
-0.41421356237309503
10
275.18684999999999
20
-90.98439391302891
10
275.18684999999999
20
-105.98459391302889
42
-0.41421356237309503
10
274.68684999999999
20
-106.4845939130289
10
268.18784999999997
20
-106.4845939130289
42
-0.4142135623730846
10
267.68784999999997
20
-105.9845939130289
10
267.68785000000003
20
-90.984393913028896
42
-0.41421356237309503
0
LWPOLYLINE
5
163
100
AcDbEntity
8
0
100
AcDbPolyline
90
8
70
1
43
0.0
10
252.91184999999999
20
-90.48439391302891
10
265.91184999999996
20
-90.484393913028896
42
-0.41421356237309503
10
266.41184999999996
20
-90.984393913028896
10
266.41184999999996
20
-103.98379391302889
42
-0.41421356237309503
10
265.91184999999996
20
-104.4837939130289
10
252.91184999999999
20
-104.4837939130289
42
-0.41421356237309503
10
252.41184999999999
20
-103.98379391302889
10
252.41184999999999
20
-90.98439391302891
42
-0.41421356237309503
0
LWPOLYLINE
5
164
100
AcDbEntity
8
0
100
AcDbPolyline
90
8
70
1
43
0.0
10
255.89984999999996
20
-71.93429391302891
10
255.89984999999996
20
-86.93459391302892
42
-0.41421356237309503
10
255.39984999999996
20
-87.43459391302892
10
248.89884999999998
20
-87.434593913028905
42
-0.41421356237310542
10
248.39884999999998
20
-86.934593913028877
10
248.39884999999998
20
-71.93429391302891
42
-0.41421356237309503
10
248.89884999999998
20
-71.43429391302891
10
255.39984999999996
20
-71.434293913028895
42
-0.41421356237309503
0
LWPOLYLINE
5
165
100
AcDbEntity
8
0
100
AcDbPolyline
90
8
70
1
43
0.0
10
271.17484999999999
20
-71.93429391302891
10
271.17484999999999
20
-84.933593913028901
42
-0.4142135623730846
10
270.67484999999999
20
-85.433593913028886
10
257.67384999999996
20
-85.433593913028915
42
-0.41421356237309503
10
257.17384999999996
20
-84.933593913028901
10
257.17384999999996
20
-71.934293913028881
42
-0.4142135623730846
10
257.67384999999996
20
-71.43429391302891
10
270.67484999999999
20
-71.434293913028895
42
-0.41421356237309503
0
LWPOLYLINE
5
166
100
AcDbEntity
8
0
100
AcDbPolyline
90
8
70
1
43
0.0
10
272.94884999999999
20
-71.43429391302891
10
279.44984999999997
20
-71.434293913028895
42
-0.41421356237309503
10
279.94984999999997
20
-71.93429391302891
10
279.94984999999997
20
-86.93459391302892
42
-0.41421356237309503
10
279.44984999999997
20
-87.43459391302892
10
272.94884999999999
20
-87.434593913028905
42
-0.41421356237309503
10
272.44884999999999
20
-86.934593913028891
10
272.44884999999999
20
-71.93429391302891
42
-0.41421356237309503
0
ENDSEC
0
SECTION
2
OBJECTS
0
DICTIONARY
5
C
100
AcDbDictionary
3
ACAD_GROUP
350
D
3
ACAD_MLINESTYLE
350
17
0
DICTIONARY
5
D
100
AcDbDictionary
0
DICTIONARY
5
1A
330
C
100
AcDbDictionary
0
DICTIONARY
5
17
100
AcDbDictionary
0
ENDSEC
0
EOF
