0
SECTION
2
HEADER
9
$INSUNITS
70
4
9
$ACADVER
1
AC1014
9
$HANDSEED
5
FFFF
0
ENDSEC
0
SECTION
2
TABLES
0
TABLE
2
VPORT
5
8
100
AcDbSymbolTable
0
ENDTAB
0
TABLE
2
LTYPE
5
5
100
AcDbSymbolTable
0
LTYPE
5
14
100
AcDbSymbolTableRecord
100
AcDbLinetypeTableRecord
2
BYBLOCK
70
0
0
LTYPE
5
15
100
AcDbSymbolTableRecord
100
AcDbLinetypeTableRecord
2
BYLAYER
70
0
0
LTYPE
5
16
100
AcDbSymbolTableRecord
100
AcDbLinetypeTableRecord
2
DASHED
70
0
3
Dashed __ __ __ __ __ __ __ __ __ __ __ __ __ _
72
65
73
2
40
0.75
49
0.5
74
0
49
-0.25
74
0
0
ENDTAB
0
TABLE
2
LAYER
5
2
100
AcDbSymbolTable
70
2
0
LAYER
5
50
100
AcDbSymbolTableRecord
100
AcDbLayerTableRecord
2
0
70
0
62
7
6
CONTINUOUS
0
ENDTAB
0
TABLE
2
STYLE
5
3
100
AcDbSymbolTable
70
1
0
STYLE
5
11
100
AcDbSymbolTableRecord
100
AcDbTextStyleTableRecord
2
STANDARD
70
0
0
ENDTAB
0
TABLE
2
VIEW
5
6
100
AcDbSymbolTable
70
0
0
ENDTAB
0
TABLE
2
UCS
5
7
100
AcDbSymbolTable
70
0
0
ENDTAB
0
TABLE
2
APPID
5
9
100
AcDbSymbolTable
70
2
0
APPID
5
12
100
AcDbSymbolTableRecord
100
AcDbRegAppTableRecord
2
ACAD
70
0
0
ENDTAB
0
TABLE
2
DIMSTYLE
5
A
100
AcDbSymbolTable
70
1
0
ENDTAB
0
TABLE
2
BLOCK_RECORD
5
1
100
AcDbSymbolTable
70
1
0
BLOCK_RECORD
5
1F
100
AcDbSymbolTableRecord
100
AcDbBlockTableRecord
2
*MODEL_SPACE
0
BLOCK_RECORD
5
1B
100
AcDbSymbolTableRecord
100
AcDbBlockTableRecord
2
*PAPER_SPACE
0
ENDTAB
0
ENDSEC
0
SECTION
2
BLOCKS
0
BLOCK
5
20
100
AcDbEntity
100
AcDbBlockBegin
2
*MODEL_SPACE
0
ENDBLK
5
21
100
AcDbEntity
100
AcDbBlockEnd
0
BLOCK
5
1C
100
AcDbEntity
100
AcDbBlockBegin
2
*PAPER_SPACE
0
ENDBLK
5
1D
100
AcDbEntity
100
AcDbBlockEnd
0
ENDSEC
0
SECTION
2
ENTITIES
0
LWPOLYLINE
5
100
100
AcDbEntity
8
0
100
AcDbPolyline
90
4
70
1
43
0.0
10
22.762500062141161
20
-30.20889392119819
10
17.762500062141125
20
-30.20889392119819
42
-0.99999999999999989
10
17.762500062141171
20
-24.708893921198182
10
22.762500062141203
20
-24.70889392119819
42
-0.99999999999999989
0
LWPOLYLINE
5
101
100
AcDbEntity
8
0
100
AcDbPolyline
90
4
70
1
43
0.0
10
330.16250000000008
20
-30.208893921198566
10
325.16250000000014
20
-30.208893921198566
42
-0.99999999999999989
10
325.16250000000014
20
-24.708893921198595
10
330.16250000000019
20
-24.708893921198602
42
-0.99999999999999989
0
LWPOLYLINE
5
102
100
AcDbEntity
8
0
100
AcDbPolyline
90
8
70
1
43
0.0
10
36.019049999999886
20
-71.434293913029236
10
49.418349999999897
20
-71.434293913029251
42
-0.41421356237309503
10
49.718349999999901
20
-71.734293913029248
10
49.718349999999873
20
-85.133593913029245
42
-0.41421356237311241
10
49.418349999999876
20
-85.433593913029256
10
36.019049999999865
20
-85.433593913029227
42
-0.41421356237309503
10
35.719049999999868
20
-85.133593913029245
10
35.719049999999882
20
-71.734293913029248
42
-0.41421356237310375
0
CIRCLE
5
103
100
AcDbEntity
8
0
100
AcDbCircle
10
173.96250006214115
20
-27.458893921198388
30
-1.4155343563970746e-14
40
2.7499999999999862
210
1.2599727256172348e-32
220
-5.2735593669694926e-16
230
1
0
LWPOLYLINE
5
104
100
AcDbEntity
8
0
100
AcDbPolyline
90
8
70
1
43
0.0
10
36.562249999999842
20
-106.48459391302923
10
30.062749999999845
20
-106.48459391302924
42
-0.41421356237309503
10
29.562749999999845
20
-105.98459391302924
10
29.562749999999856
20
-90.984393913029209
42
-0.41421356237309503
10
30.062749999999863
20
-90.484393913029209
10
36.562249999999864
20
-90.484393913029237
42
-0.41421356237309503
10
37.062249999999864
20
-90.984393913029237
10
37.062249999999814
20
-105.98459391302926
42
-0.41421356237309503
0
LWPOLYLINE
5
105
100
AcDbEntity
8
0
100
AcDbPolyline
90
8
70
1
43
0.0
10
12.512249999999836
20
-106.4845939130292
10
6.0126499999998479
20
-106.48459391302922
42
-0.41421356237309437
10
5.5126499999998488
20
-105.98459391302922
10
5.5126499999998622
20
-90.98439391302918
42
-0.4142135623730957
10
6.012649999999871
20
-90.48439391302918
10
12.512249999999856
20
-90.484393913029194
42
-0.41421356237309503
10
13.012249999999856
20
-90.984393913029194
10
13.01224999999981
20
-105.98459391302923
42
-0.41421356237309631
0
LWPOLYLINE
5
106
100
AcDbEntity
8
0
100
AcDbPolyline
90
8
70
1
43
0.0
10
257.78084999999993
20
-49.334593913029501
10
251.28184999999991
20
-49.334593913029508
42
-0.41421356237309503
10
250.78184999999991
20
-48.834593913029501
10
250.78184999999993
20
-33.834293913029526
42
-0.41421356237309503
10
251.28184999999996
20
-33.334293913029526
10
257.78084999999999
20
-33.334293913029519
42
-0.41421356237309503
10
258.28084999999999
20
-33.834293913029526
10
258.28084999999993
20
-48.834593913029501
42
-0.41421356237309503
0
LWPOLYLINE
5
107
100
AcDbEntity
8
0
100
AcDbPolyline
90
8
70
1
43
0.0
10
281.83084999999994
20
-49.334593913029529
10
275.33184999999992
20
-49.334593913029536
42
-0.41421356237309503
10
274.83184999999986
20
-48.834593913029529
10
274.83184999999992
20
-33.834293913029548
42
-0.41421356237309503
10
275.33184999999992
20
-33.334293913029555
10
281.83085
20
-33.334293913029569
42
-0.41421356237309503
10
282.33085
20
-33.834293913029576
10
282.33084999999994
20
-48.834593913029529
42
-0.41421356237309503
0
LWPOLYLINE
5
108
100
AcDbEntity
8
0
100
AcDbPolyline
90
8
70
1
43
0.0
10
279.44984999999986
20
-87.434593913029559
10
272.94884999999988
20
-87.434593913029573
42
-0.41421356237309503
10
272.44884999999988
20
-86.934593913029573
10
272.44884999999988
20
-71.934293913029535
42
-0.41421356237310025
10
272.94884999999988
20
-71.434293913029535
10
279.44984999999986
20
-71.434293913029535
42
-0.41421356237309503
10
279.94984999999991
20
-71.934293913029549
10
279.94984999999986
20
-86.934593913029573
42
-0.41421356237310542
0
LWPOLYLINE
5
109
100
AcDbEntity
8
0
100
AcDbPolyline
90
8
70
1
43
0.0
10
248.8988499999999
20
-71.434293913029506
10
255.3998499999999
20
-71.434293913029506
42
-0.41421356237309503
10
255.8998499999999
20
-71.934293913029506
10
255.8998499999999
20
-86.934593913029516
42
-0.41421356237310542
10
255.3998499999999
20
-87.434593913029545
10
248.8988499999999
20
-87.434593913029559
42
-0.41421356237309503
10
248.39884999999987
20
-86.934593913029545
10
248.39884999999987
20
-71.934293913029521
42
-0.41421356237311063
0
LWPOLYLINE
5
110
100
AcDbEntity
8
0
100
AcDbPolyline
90
8
70
1
43
0.0
10
274.68684999999988
20
-106.48459391302956
10
268.1878499999998
20
-106.48459391302956
42
-0.41421356237309503
10
267.6878499999998
20
-105.98459391302954
10
267.68784999999986
20
-90.984393913029521
42
-0.41421356237309503
10
268.18784999999986
20
-90.484393913029507
10
274.68684999999988
20
-90.484393913029521
42
-0.41421356237309503
10
275.18684999999994
20
-90.984393913029535
10
275.18684999999982
20
-105.98459391302956
42
-0.41421356237309503
0
LWPOLYLINE
5
111
100
AcDbEntity
8
0
100
AcDbPolyline
90
8
70
1
43
0.0
10
250.63784999999984
20
-106.48459391302951
10
244.13784999999984
20
-106.48459391302951
42
-0.41421356237309503
10
243.63784999999982
20
-105.98459391302951
10
243.63784999999984
20
-90.984393913029479
42
-0.41421356237309503
10
244.13784999999987
20
-90.484393913029479
10
250.6378499999999
20
-90.484393913029493
42
-0.41421356237309503
10
251.1378499999999
20
-90.984393913029493
10
251.13784999999984
20
-105.98459391302953
42
-0.41421356237309503
0
CIRCLE
5
112
100
AcDbEntity
8
0
100
AcDbCircle
10
9.3022173310705547
20
-27.458893921198175
30
-1.4155343563970746e-14
40
2.1100000000000003
210
3.0432715803862187e-32
220
-5.134781488891348e-16
230
1
0
CIRCLE
5
113
100
AcDbEntity
8
0
100
AcDbCircle
10
337.99384999999984
20
-97.483993913029707
30
-5.1070259132757201e-14
40
2.1099999999999857
210
2.3613801063395317e-32
220
-4.9960036108132034e-16
230
1
0
CIRCLE
5
114
100
AcDbEntity
8
0
100
AcDbCircle
10
296.99384999999984
20
-74.423892970516448
30
-3.8857805861880479e-14
40
2.1099999999999857
210
2.3613801063395229e-32
220
-4.9960036108132034e-16
230
1
0
CIRCLE
5
115
100
AcDbEntity
8
0
100
AcDbCircle
10
118.91884999999995
20
-14.584393913029333
30
-7.4940054162198066e-15
40
2.1100000000000039
210
3.043271580386228e-32
220
-5.134781488891348e-16
230
1
0
CIRCLE
5
116
100
AcDbEntity
8
0
100
AcDbCircle
10
337.99385000000001
20
-27.458843913029614
30
-1.4155343563970746e-14
40
2.1099999999999857
210
2.3613801063395317e-32
220
-4.9960036108132034e-16
230
1
0
CIRCLE
5
117
100
AcDbEntity
8
0
100
AcDbCircle
10
204.64384999999996
20
-14.584393913029441
30
-7.4940054162198066e-15
40
2.1099999999999857
210
2.3613801063395317e-32
220
-4.9960036108132034e-16
230
1
0
LWPOLYLINE
5
118
100
AcDbEntity
8
0
100
AcDbPolyline
90
8
70
1
43
0.0
10
271.17484999999988
20
-71.734293913029546
42
0.41421356237309503
10
270.87484999999987
20
-71.434293913029535
10
257.47384999999997
20
-71.434293913029535
42
0.41421356237307771
10
257.1738499999999
20
-71.734293913029518
10
257.1738499999999
20
-85.1335939130295
42
0.41421356237309503
10
257.47384999999997
20
-85.43359391302954
10
270.87484999999987
20
-85.433593913029512
42
0.41421356237307771
10
271.17484999999988
20
-85.133593913029543
0
LWPOLYLINE
5
119
100
AcDbEntity
8
0
100
AcDbPolyline
90
8
70
1
43
0.0
10
169.3688499999999
20
-71.434293913029407
10
182.7688499999999
20
-71.434293913029407
42
-0.41421356237309503
10
183.06884999999991
20
-71.734293913029418
10
183.06884999999988
20
-85.133593913029415
42
-0.41421356237309503
10
182.7688499999999
20
-85.433593913029412
10
169.3688499999999
20
-85.433593913029412
42
-0.41421356237309503
10
169.06884999999988
20
-85.133593913029401
10
169.06884999999988
20
-71.734293913029404
42
-0.41421356237309503
0
LWPOLYLINE
5
120
100
AcDbEntity
8
0
100
AcDbPolyline
90
8
70
1
43
0.0
10
188.41884999999988
20
-71.434293913029435
10
201.81884999999988
20
-71.434293913029435
42
-0.41421356237309503
10
202.1188499999999
20
-71.734293913029447
10
202.1188499999999
20
-85.133593913029429
42
-0.41421356237309503
10
201.81884999999988
20
-85.433593913029426
10
188.41884999999988
20
-85.433593913029426
42
-0.41421356237309503
10
188.11884999999987
20
-85.133593913029415
10
188.11884999999987
20
-71.734293913029433
42
-0.41421356237308637
0
LWPOLYLINE
5
121
100
AcDbEntity
8
0
100
AcDbPolyline
90
8
70
1
43
0.0
10
207.46884999999992
20
-71.434293913029464
10
220.8688499999999
20
-71.434293913029464
42
-0.41421356237309503
10
221.16884999999991
20
-71.734293913029475
10
221.16884999999991
20
-85.133593913029472
42
-0.41421356237309503
10
220.8688499999999
20
-85.433593913029455
10
207.46884999999992
20
-85.433593913029455
42
-0.41421356237309503
10
207.16884999999991
20
-85.133593913029443
10
207.16884999999991
20
-71.734293913029461
42
-0.41421356237309503
0
LWPOLYLINE
5
122
100
AcDbEntity
8
0
100
AcDbPolyline
90
8
70
1
43
0.0
10
226.5188499999999
20
-71.434293913029478
10
239.91884999999985
20
-71.434293913029478
42
-0.41421356237309503
10
240.21884999999986
20
-71.734293913029489
10
240.21884999999983
20
-85.133593913029486
42
-0.41421356237309503
10
239.91884999999985
20
-85.433593913029483
10
226.5188499999999
20
-85.433593913029483
42
-0.41421356237309503
10
226.21884999999989
20
-85.133593913029472
10
226.21884999999989
20
-71.734293913029475
42
-0.41421356237308637
0
LWPOLYLINE
5
123
100
AcDbEntity
8
0
100
AcDbPolyline
90
8
70
1
43
0.0
10
164.0188499999999
20
-71.73429391302939
42
0.41421356237309503
10
163.71884999999989
20
-71.434293913029393
10
150.31884999999988
20
-71.434293913029379
42
0.41421356237310375
10
150.0188499999999
20
-71.73429391302939
10
150.0188499999999
20
-85.133593913029387
42
0.41421356237309503
10
150.31884999999988
20
-85.433593913029412
10
163.71884999999989
20
-85.433593913029398
42
0.41421356237311241
10
164.0188499999999
20
-85.133593913029387
0
LWPOLYLINE
5
124
100
AcDbEntity
8
0
100
AcDbPolyline
90
8
70
1
43
0.0
10
325.94384999999988
20
-91.084393913029601
42
0.41421356237309503
10
325.34384999999986
20
-90.484393913029606
10
312.54384999999991
20
-90.484393913029578
42
0.41421356237309503
10
311.94384999999988
20
-91.084393913029587
10
311.94384999999988
20
-103.88379391302959
42
0.41421356237309503
10
312.54384999999991
20
-104.48379391302961
10
325.34384999999986
20
-104.48379391302961
42
0.41421356237309503
10
325.94384999999988
20
-103.88379391302961
0
LWPOLYLINE
5
125
100
AcDbEntity
8
0
100
AcDbPolyline
90
8
70
1
43
0.0
10
266.41184999999984
20
-90.784393913029533
42
0.41421356237309503
10
266.11184999999983
20
-90.48439391302955
10
252.71184999999988
20
-90.484393913029521
42
0.41421356237311241
10
252.41184999999984
20
-90.784393913029533
10
252.41184999999984
20
-104.18379391302955
42
0.41421356237309503
10
252.71184999999986
20
-104.48379391302953
10
266.11184999999983
20
-104.48379391302956
42
0.41421356237309503
10
266.41184999999984
20
-104.18379391302956
0
LWPOLYLINE
5
126
100
AcDbEntity
8
0
100
AcDbPolyline
90
8
70
1
43
0.0
10
273.55584999999996
20
-33.634293913029531
42
0.41421356237309503
10
273.25584999999995
20
-33.334293913029533
10
259.85684999999995
20
-33.334293913029512
42
0.41421356237309076
10
259.55684999999994
20
-33.634293913029509
10
259.55684999999994
20
-47.033593913029506
42
0.41421356237309503
10
259.85684999999995
20
-47.333593913029517
10
273.25584999999995
20
-47.333593913029532
42
0.41421356237309503
10
273.55584999999996
20
-47.033593913029527
0
LWPOLYLINE
5
127
100
AcDbEntity
8
0
100
AcDbPolyline
90
8
70
1
43
0.0
10
193.18184999999997
20
-33.334293913029441
10
206.58084999999997
20
-33.334293913029434
42
-0.41421356237309503
10
206.88084999999998
20
-33.634293913029445
10
206.88084999999995
20
-47.033593913029449
42
-0.41421356237308637
10
206.58084999999994
20
-47.333593913029439
10
193.18184999999994
20
-47.333593913029439
42
-0.41421356237309503
10
192.88184999999993
20
-47.033593913029428
10
192.88184999999999
20
-33.634293913029424
42
-0.41421356237308637
0
LWPOLYLINE
5
128
100
AcDbEntity
8
0
100
AcDbPolyline
90
8
70
1
43
0.0
10
212.23184999999995
20
-33.334293913029462
10
225.63084999999995
20
-33.334293913029455
42
-0.41421356237309503
10
225.93084999999996
20
-33.634293913029467
10
225.93084999999991
20
-47.033593913029463
42
-0.41421356237309503
10
225.6308499999999
20
-47.333593913029468
10
212.23184999999989
20
-47.333593913029461
42
-0.41421356237309503
10
211.93184999999988
20
-47.033593913029449
10
211.93184999999997
20
-33.634293913029445
42
-0.41421356237309076
0
LWPOLYLINE
5
129
100
AcDbEntity
8
0
100
AcDbPolyline
90
8
70
1
43
0.0
10
231.28184999999996
20
-33.334293913029491
10
244.68084999999996
20
-33.334293913029484
42
-0.41421356237309503
10
244.98084999999998
20
-33.634293913029495
10
244.98084999999992
20
-47.033593913029492
42
-0.41421356237309503
10
244.68084999999991
20
-47.333593913029489
10
231.28184999999991
20
-47.333593913029482
42
-0.41421356237309503
10
230.98184999999989
20
-47.03359391302947
10
230.98184999999998
20
-33.634293913029474
42
-0.41421356237309076
0
LWPOLYLINE
5
130
100
AcDbEntity
8
0
100
AcDbPolyline
90
8
70
1
43
0.0
10
45.544049999999871
20
-90.484393913029237
10
58.943349999999853
20
-90.48439391302928
42
-0.41421356237309503
10
59.243349999999857
20
-90.784393913029277
10
59.243349999999843
20
-104.18379391302928
42
-0.41421356237309503
10
58.943349999999846
20
-104.48379391302927
10
45.544049999999849
20
-104.48379391302925
42
-0.41421356237309503
10
45.244049999999845
20
-104.18379391302926
10
45.244049999999859
20
-90.784393913029248
42
-0.41421356237309503
0
LWPOLYLINE
5
131
100
AcDbEntity
8
0
100
AcDbPolyline
90
8
70
1
43
0.0
10
64.594049999999882
20
-90.48439391302928
10
77.99334999999985
20
-90.484393913029322
42
-0.41421356237309503
10
78.293349999999847
20
-90.784393913029305
10
78.293349999999833
20
-104.18379391302932
42
-0.41421356237309503
10
77.993349999999836
20
-104.4837939130293
10
64.594049999999868
20
-104.48379391302929
42
-0.41421356237309503
10
64.294049999999856
20
-104.18379391302929
10
64.294049999999871
20
-90.784393913029291
42
-0.41421356237309503
0
LWPOLYLINE
5
132
100
AcDbEntity
8
0
100
AcDbPolyline
90
8
70
1
43
0.0
10
83.644049999999879
20
-90.484393913029294
10
97.043349999999862
20
-90.484393913029336
42
-0.41421356237309503
10
97.343349999999859
20
-90.784393913029334
10
97.343349999999859
20
-104.18379391302935
42
-0.41421356237307771
10
97.043349999999862
20
-104.48379391302933
10
83.644049999999851
20
-104.4837939130293
42
-0.41421356237309503
10
83.344049999999868
20
-104.18379391302932
10
83.344049999999868
20
-90.784393913029291
42
-0.41421356237307771
0
LWPOLYLINE
5
133
100
AcDbEntity
8
0
100
AcDbPolyline
90
8
70
1
43
0.0
10
102.69384999999987
20
-90.484393913029322
10
116.09384999999989
20
-90.484393913029351
42
-0.41421356237309503
10
116.39384999999989
20
-90.784393913029348
10
116.39384999999987
20
-104.18379391302935
42
-0.41421356237309503
10
116.09384999999988
20
-104.48379391302934
10
102.69384999999987
20
-104.48379391302933
42
-0.41421356237309503
10
102.39384999999987
20
-104.18379391302933
10
102.39384999999986
20
-90.784393913029334
42
-0.41421356237309503
0
LWPOLYLINE
5
134
100
AcDbEntity
8
0
100
AcDbPolyline
90
8
70
1
43
0.0
10
121.74384999999987
20
-90.484393913029351
10
135.1438499999999
20
-90.484393913029379
42
-0.41421356237309503
10
135.44384999999988
20
-90.784393913029376
10
135.44384999999988
20
-104.18379391302938
42
-0.41421356237309503
10
135.14384999999987
20
-104.48379391302937
10
121.74384999999985
20
-104.48379391302936
42
-0.41421356237309503
10
121.44384999999986
20
-104.18379391302936
10
121.44384999999986
20
-90.784393913029362
42
-0.41421356237309503
0
LWPOLYLINE
5
135
100
AcDbEntity
8
0
100
AcDbPolyline
90
8
70
1
43
0.0
10
140.79384999999985
20
-90.484393913029365
10
154.19384999999988
20
-90.484393913029407
42
-0.41421356237309503
10
154.49384999999987
20
-90.78439391302939
10
154.49384999999984
20
-104.18379391302942
42
-0.41421356237307771
10
154.19384999999986
20
-104.48379391302939
10
140.79384999999985
20
-104.48379391302937
42
-0.41421356237309503
10
140.49384999999987
20
-104.18379391302938
10
140.49384999999984
20
-90.784393913029362
42
-0.41421356237307771
0
LWPOLYLINE
5
136
100
AcDbEntity
8
0
100
AcDbPolyline
90
8
70
1
43
0.0
10
159.84384999999989
20
-90.484393913029379
10
173.2438499999999
20
-90.484393913029407
42
-0.41421356237309503
10
173.54384999999991
20
-90.784393913029419
10
173.54384999999985
20
-104.18379391302942
42
-0.41421356237309503
10
173.24384999999984
20
-104.48379391302942
10
159.84384999999986
20
-104.48379391302939
42
-0.41421356237307771
10
159.54384999999988
20
-104.1837939130294
10
159.54384999999988
20
-90.78439391302939
42
-0.41421356237309503
0
LWPOLYLINE
5
137
100
AcDbEntity
8
0
100
AcDbPolyline
90
8
70
1
43
0.0
10
192.29384999999982
20
-104.48379391302947
10
178.89384999999982
20
-104.48379391302944
42
-0.41421356237309503
10
178.5938499999998
20
-104.18379391302943
10
178.59384999999989
20
-90.784393913029433
42
-0.41421356237309503
10
178.89384999999987
20
-90.484393913029436
10
192.29384999999985
20
-90.484393913029436
42
-0.41421356237309503
10
192.59384999999986
20
-90.784393913029447
10
192.59384999999983
20
-104.18379391302946
42
-0.41421356237309503
0
LWPOLYLINE
5
138
100
AcDbEntity
8
0
100
AcDbPolyline
90
8
70
1
43
0.0
10
197.94384999999991
20
-90.484393913029436
10
211.34384999999986
20
-90.484393913029464
42
-0.41421356237309503
10
211.64384999999987
20
-90.784393913029476
10
211.64384999999982
20
-104.18379391302949
42
-0.41421356237307771
10
211.34384999999983
20
-104.48379391302947
10
197.94384999999988
20
-104.48379391302947
42
-0.41421356237309503
10
197.64384999999987
20
-104.18379391302946
10
197.6438499999999
20
-90.784393913029433
42
-0.41421356237307771
0
LWPOLYLINE
5
139
100
AcDbEntity
8
0
100
AcDbPolyline
90
8
70
1
43
0.0
10
216.99384999999992
20
-90.484393913029464
10
230.39384999999987
20
-90.484393913029479
42
-0.41421356237309503
10
230.69384999999988
20
-90.78439391302949
10
230.69384999999983
20
-104.18379391302949
42
-0.41421356237309503
10
230.39384999999984
20
-104.48379391302949
10
216.9938499999999
20
-104.4837939130295
42
-0.41421356237309503
10
216.69384999999988
20
-104.18379391302949
10
216.69384999999991
20
-90.784393913029476
42
-0.41421356237309503
0
LWPOLYLINE
5
140
100
AcDbEntity
8
0
100
AcDbPolyline
90
8
70
1
43
0.0
10
187.83084999999997
20
-33.634293913029424
42
0.41421356237309503
10
187.53084999999996
20
-33.33429391302942
10
174.13184999999996
20
-33.334293913029413
42
0.41421356237309076
10
173.83184999999992
20
-33.634293913029403
10
173.83184999999992
20
-47.033593913029399
42
0.41421356237309503
10
174.13184999999993
20
-47.333593913029411
10
187.53084999999993
20
-47.333593913029418
42
0.41421356237309503
10
187.83084999999997
20
-47.033593913029421
0
LWPOLYLINE
5
141
100
AcDbEntity
8
0
100
AcDbPolyline
90
8
70
1
43
0.0
10
330.99384999999995
20
-21.283393913029606
10
330.99384999999995
20
-7.8843939130296086
42
-0.41421356237309614
10
331.29385000000002
20
-7.584393913029607
10
344.69384999999994
20
-7.5843939130296132
42
-0.41421356237309503
10
344.99384999999995
20
-7.8843939130296246
10
344.99384999999995
20
-21.283393913029624
42
-0.41421356237309503
10
344.69384999999994
20
-21.583393913029624
10
331.29385000000002
20
-21.583393913029617
42
-0.41421356237309503
0
LWPOLYLINE
5
142
100
AcDbEntity
8
0
100
AcDbPolyline
90
8
70
1
43
0.0
10
311.94385
20
-21.283393913029585
10
311.94385
20
-7.8843939130295855
42
-0.41421356237309725
10
312.24385000000001
20
-7.584393913029583
10
325.64385000000004
20
-7.5843939130295892
42
-0.41421356237309503
10
325.94385
20
-7.8843939130296006
10
325.94385
20
-21.283393913029599
42
-0.41421356237309936
10
325.64385000000004
20
-21.5833939130296
10
312.24385000000001
20
-21.583393913029596
42
-0.41421356237312978
0
LWPOLYLINE
5
143
100
AcDbEntity
8
0
100
AcDbPolyline
90
8
70
1
43
0.0
10
283.08085
20
-7.8843939130295473
10
283.08085
20
-21.283393913029546
42
-0.41421356237309936
10
282.78084999999999
20
-21.583393913029546
10
269.38184999999999
20
-21.583393913029543
42
-0.41421356237309503
10
269.08184999999997
20
-21.283393913029531
10
269.08184999999997
20
-7.8843939130295322
42
-0.41421356237309825
10
269.38184999999999
20
-7.5843939130295288
10
282.78084999999999
20
-7.584393913029535
42
-0.41421356237309614
0
LWPOLYLINE
5
144
100
AcDbEntity
8
0
100
AcDbPolyline
90
8
70
1
43
0.0
10
311.94384999999994
20
-66.083593913029574
10
311.94384999999994
20
-52.684293913029592
42
-0.41421356237308637
10
312.24384999999995
20
-52.384293913029595
10
325.64384999999993
20
-52.384293913029595
42
-0.41421356237309503
10
325.94384999999994
20
-52.684293913029606
10
325.94384999999994
20
-66.083593913029617
42
-0.41421356237308637
10
325.64384999999993
20
-66.383593913029614
10
312.24384999999995
20
-66.383593913029586
42
-0.41421356237309503
0
LWPOLYLINE
5
145
100
AcDbEntity
8
0
100
AcDbPolyline
90
8
70
1
43
0.0
10
244.98085
20
-7.8843939130294967
10
244.98084999999998
20
-21.283393913029496
42
-0.41421356237309936
10
244.68084999999996
20
-21.583393913029497
10
231.28184999999996
20
-21.583393913029493
42
-0.41421356237309503
10
230.98184999999995
20
-21.283393913029482
10
230.98184999999998
20
-7.8843939130294842
42
-0.41421356237309825
10
231.28184999999999
20
-7.58439391302948
10
244.68084999999999
20
-7.5843939130294853
42
-0.41421356237309503
0
LWPOLYLINE
5
146
100
AcDbEntity
8
0
100
AcDbPolyline
90
8
70
1
43
0.0
10
159.25584999999995
20
-7.8843939130293883
10
159.25584999999995
20
-21.283393913029389
42
-0.41421356237309503
10
158.95584999999994
20
-21.583393913029386
10
145.55684999999997
20
-21.583393913029365
42
-0.41421356237309503
10
145.25684999999999
20
-21.283393913029371
10
145.25684999999999
20
-7.8843939130293723
42
-0.41421356237309725
10
145.55684999999997
20
-7.5843939130293698
10
158.95584999999994
20
-7.5843939130293769
42
-0.41421356237309503
0
LWPOLYLINE
5
147
100
AcDbEntity
8
0
100
AcDbPolyline
90
8
70
1
43
0.0
10
168.78084999999996
20
-33.634293913029396
10
168.78084999999993
20
-47.033593913029392
42
-0.41421356237309503
10
168.48084999999992
20
-47.333593913029397
10
155.08184999999995
20
-47.333593913029368
42
-0.41421356237307771
10
154.78184999999996
20
-47.033593913029378
10
154.78184999999996
20
-33.634293913029374
42
-0.41421356237309076
10
155.08184999999995
20
-33.334293913029384
10
168.48084999999995
20
-33.334293913029384
42
-0.41421356237309503
0
LWPOLYLINE
5
148
100
AcDbEntity
8
0
100
AcDbPolyline
90
8
70
1
43
0.0
10
140.20584999999988
20
-52.684293913029379
10
140.20584999999988
20
-66.083593913029389
42
-0.41421356237308637
10
139.90584999999987
20
-66.383593913029387
10
126.5068499999999
20
-66.383593913029344
42
-0.41421356237309503
10
126.20684999999992
20
-66.083593913029347
10
126.20684999999992
20
-52.684293913029364
42
-0.41421356237308637
10
126.5068499999999
20
-52.384293913029367
10
139.90584999999987
20
-52.384293913029367
42
-0.41421356237309503
0
LWPOLYLINE
5
149
100
AcDbEntity
8
0
100
AcDbPolyline
90
8
70
1
43
0.0
10
92.580849999999955
20
-7.884393913029303
10
92.580849999999941
20
-21.2833939130293
42
-0.41421356237309936
10
92.280849999999944
20
-21.583393913029305
10
78.881549999999947
20
-21.58339391302929
42
-0.41421356237308637
10
78.58154999999995
20
-21.283393913029286
10
78.581549999999979
20
-7.8843939130292888
42
-0.41421356237309725
10
78.881549999999976
20
-7.5843939130292863
10
92.280849999999958
20
-7.5843939130292917
42
-0.41421356237307771
0
LWPOLYLINE
5
150
100
AcDbEntity
8
0
100
AcDbPolyline
90
8
70
1
43
0.0
10
121.1558499999999
20
-52.68429391302935
10
121.15584999999989
20
-66.083593913029361
42
-0.41421356237308637
10
120.85584999999989
20
-66.383593913029358
10
107.45684999999989
20
-66.383593913029316
42
-0.41421356237309503
10
107.15684999999991
20
-66.083593913029318
10
107.15684999999991
20
-52.684293913029336
42
-0.41421356237308637
10
107.45684999999989
20
-52.384293913029339
10
120.85584999999992
20
-52.38429391302936
42
-0.41421356237309503
0
LWPOLYLINE
5
151
100
AcDbEntity
8
0
100
AcDbPolyline
90
8
70
1
43
0.0
10
130.68084999999994
20
-33.634293913029353
10
130.68084999999994
20
-47.03359391302935
42
-0.41421356237309503
10
130.38084999999992
20
-47.333593913029347
10
116.97984999999994
20
-47.333593913029326
42
-0.41421356237309503
10
116.67984999999994
20
-47.033593913029328
10
116.67984999999994
20
-33.634293913029332
42
-0.41421356237309936
10
116.97984999999994
20
-33.334293913029327
10
130.38084999999992
20
-33.334293913029342
42
-0.41421356237309503
0
LWPOLYLINE
5
152
100
AcDbEntity
8
0
100
AcDbPolyline
90
8
70
1
43
0.0
10
144.96884999999989
20
-71.734293913029376
10
144.96884999999986
20
-85.133593913029358
42
-0.41421356237309503
10
144.66884999999988
20
-85.433593913029355
10
131.26884999999987
20
-85.433593913029341
42
-0.41421356237309503
10
130.96884999999989
20
-85.133593913029344
10
130.96884999999986
20
-71.734293913029347
42
-0.41421356237308637
10
131.26884999999987
20
-71.434293913029364
10
144.66884999999988
20
-71.434293913029379
42
-0.41421356237309503
0
LWPOLYLINE
5
153
100
AcDbEntity
8
0
100
AcDbPolyline
90
8
70
1
43
0.0
10
111.63084999999997
20
-7.884393913029327
10
111.63084999999995
20
-21.283393913029329
42
-0.41421356237309936
10
111.33084999999996
20
-21.58339391302933
10
97.930149999999969
20
-21.583393913029308
42
-0.41421356237309503
10
97.630149999999972
20
-21.283393913029315
10
97.630149999999972
20
-7.8843939130293155
42
-0.41421356237309936
10
97.930149999999969
20
-7.5843939130293103
10
111.33084999999996
20
-7.5843939130293156
42
-0.41421356237309503
0
LWPOLYLINE
5
154
100
AcDbEntity
8
0
100
AcDbPolyline
90
8
70
1
43
0.0
10
92.580849999999941
20
-33.634293913029296
10
92.580849999999941
20
-47.033593913029293
42
-0.41421356237309503
10
92.28084999999993
20
-47.333593913029297
10
78.881549999999933
20
-47.333593913029276
42
-0.41421356237310375
10
78.581549999999922
20
-47.033593913029279
10
78.58154999999995
20
-33.634293913029282
42
-0.41421356237309503
10
78.881549999999947
20
-33.334293913029278
10
92.28084999999993
20
-33.334293913029285
42
-0.41421356237309503
0
LWPOLYLINE
5
155
100
AcDbEntity
8
0
100
AcDbPolyline
90
8
70
1
43
0.0
10
59.53154999999996
20
-21.283393913029261
10
59.531549999999982
20
-7.8843939130292622
42
-0.41421356237309614
10
59.831549999999979
20
-7.5843939130292606
10
73.230849999999947
20
-7.5843939130292757
42
-0.41421356237309503
10
73.530849999999958
20
-7.8843939130292782
10
73.530849999999944
20
-21.283393913029279
42
-0.41421356237309503
10
73.230849999999947
20
-21.583393913029276
10
59.831549999999964
20
-21.583393913029262
42
-0.41421356237309503
0
LWPOLYLINE
5
156
100
AcDbEntity
8
0
100
AcDbPolyline
90
8
70
1
43
0.0
10
87.818349999999882
20
-71.734293913029305
10
87.818349999999867
20
-85.133593913029287
42
-0.41421356237309503
10
87.51834999999987
20
-85.433593913029284
10
74.119049999999874
20
-85.433593913029284
42
-0.41421356237309503
10
73.819049999999876
20
-85.133593913029273
10
73.819049999999891
20
-71.73429391302929
42
-0.41421356237308637
10
74.119049999999888
20
-71.434293913029293
10
87.518349999999856
20
-71.434293913029279
42
-0.41421356237310375
0
LWPOLYLINE
5
157
100
AcDbEntity
8
0
100
AcDbPolyline
90
8
70
1
43
0.0
10
64.00584999999991
20
-52.684293913029272
10
64.00584999999991
20
-66.083593913029276
42
-0.41421356237309503
10
63.705849999999906
20
-66.383593913029287
10
50.306549999999923
20
-66.383593913029259
42
-0.41421356237309503
10
50.006549999999919
20
-66.083593913029247
10
50.006549999999919
20
-52.684293913029265
42
-0.41421356237309503
10
50.306549999999923
20
-52.384293913029261
10
63.705849999999913
20
-52.384293913029261
42
-0.41421356237308637
0
LWPOLYLINE
5
158
100
AcDbEntity
8
0
100
AcDbPolyline
90
8
70
1
43
0.0
10
16.381049999999938
20
-33.634293913029204
10
16.381049999999924
20
-47.033593913029193
42
-0.41421356237309503
10
16.081049999999919
20
-47.333593913029198
10
2.6814999999999212
20
-47.333593913029183
42
-0.41421356237309503
10
2.3814999999999213
20
-47.033593913029179
10
2.3814999999999396
20
-33.634293913029182
42
-0.41421356237309126
10
2.6814999999999385
20
-33.334293913029185
10
16.081049999999941
20
-33.334293913029207
42
-0.41421356237309503
0
LWPOLYLINE
5
159
100
AcDbEntity
8
0
100
AcDbPolyline
90
8
70
1
43
0.0
10
2.3814999999999538
20
-21.28339391302919
10
2.3814999999999706
20
-7.8843939130291911
42
-0.41421356237309775
10
2.6814999999999718
20
-7.5843939130291886
10
16.081049999999973
20
-7.5843939130292046
42
-0.41421356237309287
10
16.38104999999997
20
-7.8843939130292053
10
16.381049999999952
20
-21.283393913029201
42
-0.41421356237309936
10
16.081049999999955
20
-21.583393913029205
10
2.6814999999999545
20
-21.583393913029187
42
-0.41421356237309559
0
LWPOLYLINE
5
160
100
AcDbEntity
8
0
100
AcDbPolyline
90
4
70
1
43
0.0
10
183.96250006214115
20
-25.958893921198381
10
317.66250006214113
20
-25.958893921198563
42
-0.99999999999999989
10
317.66250006214113
20
-28.95889392119857
10
183.96250006214115
20
-28.958893921198413
42
-0.99999999999999989
0
LWPOLYLINE
5
161
100
AcDbEntity
8
0
100
AcDbPolyline
90
4
70
1
43
0.0
10
30.262500062141186
20
-25.95889392119819
10
163.96250006214115
20
-25.958893921198371
42
-0.99999999999999989
10
163.96250006214115
20
-28.958893921198378
10
30.262500062141179
20
-28.958893921198214
42
-0.99999999999999989
0
LWPOLYLINE
5
162
100
AcDbEntity
8
0
100
AcDbPolyline
90
8
70
1
43
0.0
10
40.481549999999956
20
-21.283393913029236
10
40.481549999999977
20
-7.8843939130292391
42
-0.41421356237309825
10
40.781549999999982
20
-7.5843939130292357
10
54.180849999999964
20
-7.5843939130292517
42
-0.41421356237309503
10
54.480849999999961
20
-7.8843939130292542
10
54.480849999999954
20
-21.283393913029251
42
-0.41421356237309503
10
54.18084999999995
20
-21.583393913029248
10
40.781549999999967
20
-21.583393913029248
42
-0.41421356237309503
0
LWPOLYLINE
5
163
100
AcDbEntity
8
0
100
AcDbPolyline
90
8
70
1
43
0.0
10
149.73084999999995
20
-33.634293913029374
10
149.73084999999995
20
-47.033593913029378
42
-0.41421356237308637
10
149.43084999999994
20
-47.333593913029368
10
136.03184999999993
20
-47.33359391302934
42
-0.41421356237309503
10
135.73184999999995
20
-47.03359391302935
10
135.73184999999995
20
-33.634293913029353
42
-0.41421356237308637
10
136.03184999999993
20
-33.334293913029363
10
149.43084999999994
20
-33.334293913029363
42
-0.41421356237309503
0
LWPOLYLINE
5
164
100
AcDbEntity
8
0
100
AcDbPolyline
90
8
70
1
43
0.0
10
264.03084999999999
20
-7.8843939130295224
10
264.03084999999999
20
-21.283393913029521
42
-0.41421356237309503
10
263.73084999999998
20
-21.583393913029521
10
250.33184999999997
20
-21.583393913029518
42
-0.41421356237309503
10
250.03184999999996
20
-21.283393913029506
10
250.03184999999999
20
-7.8843939130295055
42
-0.41421356237309725
10
250.33185
20
-7.5843939130295031
10
263.73084999999998
20
-7.584393913029511
42
-0.41421356237309503
0
LWPOLYLINE
5
165
100
AcDbEntity
8
0
100
AcDbPolyline
90
8
70
1
43
0.0
10
264.31884999999994
20
-66.083593913029532
10
264.31884999999994
20
-52.684293913029535
42
-0.41421356237308637
10
264.61884999999995
20
-52.384293913029545
10
278.01884999999993
20
-52.384293913029545
42
-0.41421356237309503
10
278.31884999999994
20
-52.684293913029556
10
278.31884999999994
20
-66.08359391302956
42
-0.41421356237308637
10
278.01884999999993
20
-66.383593913029557
10
264.61884999999995
20
-66.383593913029543
42
-0.41421356237309503
0
LWPOLYLINE
5
166
100
AcDbEntity
8
0
100
AcDbPolyline
90
8
70
1
43
0.0
10
306.89384999999993
20
-52.684293913029592
10
306.89384999999993
20
-66.083593913029603
42
-0.41421356237308637
10
306.59384999999992
20
-66.383593913029586
10
293.19384999999994
20
-66.383593913029571
42
-0.41421356237309503
10
292.89384999999993
20
-66.08359391302956
10
292.89384999999993
20
-52.684293913029578
42
-0.41421356237308637
10
293.19384999999994
20
-52.38429391302958
10
306.59384999999992
20
-52.38429391302958
42
-0.41421356237309503
0
LWPOLYLINE
5
167
100
AcDbEntity
8
0
100
AcDbPolyline
90
8
70
1
43
0.0
10
68.768349999999899
20
-71.734293913029276
10
68.76834999999987
20
-85.133593913029273
42
-0.41421356237309503
10
68.468349999999873
20
-85.43359391302927
10
55.069049999999883
20
-85.433593913029256
42
-0.41421356237309503
10
54.769049999999879
20
-85.133593913029259
10
54.769049999999893
20
-71.734293913029262
42
-0.41421356237309503
10
55.069049999999898
20
-71.434293913029265
10
68.468349999999887
20
-71.434293913029265
42
-0.41421356237309503
0
LWPOLYLINE
5
168
100
AcDbEntity
8
0
100
AcDbPolyline
90
8
70
1
43
0.0
10
69.056549999999916
20
-66.083593913029276
10
69.05654999999993
20
-52.684293913029293
42
-0.41421356237308637
10
69.356549999999928
20
-52.384293913029296
10
82.755849999999896
20
-52.38429391302931
42
-0.41421356237309503
10
83.055849999999879
20
-52.684293913029308
10
83.055849999999907
20
-66.083593913029318
42
-0.41421356237308637
10
82.755849999999896
20
-66.383593913029301
10
69.356549999999913
20
-66.383593913029287
42
-0.41421356237308637
0
LWPOLYLINE
5
169
100
AcDbEntity
8
0
100
AcDbPolyline
90
8
70
1
43
0.0
10
21.143549999999912
20
-52.684293913029222
10
21.143549999999898
20
-66.083593913029233
42
-0.41421356237309503
10
20.843549999999897
20
-66.38359391302923
10
7.4440099999998965
20
-66.383593913029202
42
-0.41421356237309398
10
7.1440099999998976
20
-66.083593913029205
10
7.1440099999999118
20
-52.684293913029208
42
-0.41421356237309614
10
7.4440099999999152
20
-52.384293913029211
10
20.843549999999915
20
-52.384293913029225
42
-0.41421356237309503
0
LWPOLYLINE
5
170
100
AcDbEntity
8
0
100
AcDbPolyline
90
8
70
1
43
0.0
10
54.480849999999933
20
-33.634293913029254
10
54.480849999999919
20
-47.03359391302925
42
-0.41421356237309503
10
54.180849999999914
20
-47.333593913029254
10
40.781549999999939
20
-47.333593913029233
42
-0.41421356237309503
10
40.481549999999935
20
-47.033593913029236
10
40.481549999999942
20
-33.634293913029232
42
-0.41421356237309503
10
40.781549999999946
20
-33.334293913029235
10
54.180849999999921
20
-33.334293913029235
42
-0.41421356237309936
0
LWPOLYLINE
5
171
100
AcDbEntity
8
0
100
AcDbPolyline
90
8
70
1
43
0.0
10
59.531549999999925
20
-47.03359391302925
10
59.531549999999953
20
-33.634293913029254
42
-0.41421356237309076
10
59.83154999999995
20
-33.334293913029256
10
73.230849999999919
20
-33.334293913029271
42
-0.41421356237309503
10
73.530849999999916
20
-33.634293913029275
10
73.530849999999916
20
-47.033593913029264
42
-0.41421356237309503
10
73.230849999999904
20
-47.333593913029269
10
59.831549999999929
20
-47.333593913029262
42
-0.41421356237310375
0
LWPOLYLINE
5
172
100
AcDbEntity
8
0
100
AcDbPolyline
90
8
70
1
43
0.0
10
21.431549999999923
20
-47.033593913029208
10
21.431549999999934
20
-33.634293913029211
42
-0.41421356237309503
10
21.731549999999935
20
-33.334293913029207
10
35.130849999999946
20
-33.334293913029228
42
-0.41421356237309503
10
35.430849999999943
20
-33.634293913029225
10
35.430849999999928
20
-47.033593913029222
42
-0.41421356237309503
10
35.130849999999924
20
-47.333593913029226
10
21.731549999999913
20
-47.333593913029198
42
-0.41421356237309503
0
LWPOLYLINE
5
173
100
AcDbEntity
8
0
100
AcDbPolyline
90
8
70
1
43
0.0
10
30.956549999999897
20
-66.083593913029233
10
30.956549999999908
20
-52.684293913029236
42
-0.41421356237309503
10
31.256549999999912
20
-52.384293913029232
10
44.655849999999916
20
-52.384293913029239
42
-0.41421356237308637
10
44.955849999999913
20
-52.684293913029244
10
44.955849999999906
20
-66.083593913029247
42
-0.41421356237309503
10
44.655849999999901
20
-66.383593913029259
10
31.256549999999898
20
-66.383593913029216
42
-0.41421356237309936
0
LWPOLYLINE
5
174
100
AcDbEntity
8
0
100
AcDbPolyline
90
8
70
1
43
0.0
10
106.86884999999991
20
-71.734293913029319
10
106.8688499999999
20
-85.133593913029301
42
-0.41421356237311241
10
106.5688499999999
20
-85.433593913029313
10
93.169049999999885
20
-85.433593913029299
42
-0.41421356237309503
10
92.869049999999888
20
-85.133593913029301
10
92.869049999999902
20
-71.734293913029319
42
-0.41421356237310375
10
93.169049999999899
20
-71.434293913029308
10
106.5688499999999
20
-71.434293913029308
42
-0.41421356237309503
0
LWPOLYLINE
5
175
100
AcDbEntity
8
0
100
AcDbPolyline
90
8
70
1
43
0.0
10
102.10584999999992
20
-52.684293913029336
10
102.10584999999992
20
-66.083593913029347
42
-0.41421356237308637
10
101.80584999999991
20
-66.38359391302933
10
88.406549999999896
20
-66.383593913029301
42
-0.41421356237309503
10
88.106549999999899
20
-66.083593913029304
10
88.106549999999899
20
-52.684293913029315
42
-0.41421356237308637
10
88.40654999999991
20
-52.384293913029325
10
101.80584999999991
20
-52.384293913029325
42
-0.41421356237309503
0
LWPOLYLINE
5
176
100
AcDbEntity
8
0
100
AcDbPolyline
90
8
70
1
43
0.0
10
97.630149999999944
20
-47.033593913029307
10
97.630149999999958
20
-33.634293913029303
42
-0.41421356237309503
10
97.930149999999955
20
-33.334293913029306
10
111.33084999999994
20
-33.334293913029327
42
-0.41421356237309503
10
111.63084999999994
20
-33.634293913029325
10
111.63084999999995
20
-47.033593913029321
42
-0.41421356237309503
10
111.33084999999994
20
-47.333593913029326
10
97.930149999999955
20
-47.333593913029318
42
-0.41421356237309503
0
LWPOLYLINE
5
177
100
AcDbEntity
8
0
100
AcDbPolyline
90
8
70
1
43
0.0
10
111.91884999999988
20
-85.13359391302933
10
111.91884999999988
20
-71.734293913029333
42
-0.41421356237309503
10
112.21884999999989
20
-71.434293913029336
10
125.61884999999991
20
-71.43429391302935
42
-0.41421356237309503
10
125.91884999999991
20
-71.734293913029347
10
125.91884999999989
20
-85.133593913029344
42
-0.41421356237309503
10
125.6188499999999
20
-85.433593913029341
10
112.21884999999989
20
-85.433593913029341
42
-0.41421356237309503
0
LWPOLYLINE
5
178
100
AcDbEntity
8
0
100
AcDbPolyline
90
8
70
1
43
0.0
10
145.2568499999999
20
-66.083593913029375
10
145.25684999999993
20
-52.684293913029386
42
-0.41421356237308637
10
145.55684999999991
20
-52.384293913029396
10
158.95584999999988
20
-52.38429391302941
42
-0.41421356237309503
10
159.2558499999999
20
-52.684293913029407
10
159.2558499999999
20
-66.083593913029418
42
-0.41421356237308637
10
158.95584999999988
20
-66.383593913029401
10
145.55684999999991
20
-66.383593913029387
42
-0.41421356237309503
0
LWPOLYLINE
5
179
100
AcDbEntity
8
0
100
AcDbPolyline
90
8
70
1
43
0.0
10
140.20584999999994
20
-7.8843939130293634
10
140.20584999999994
20
-21.283393913029364
42
-0.41421356237309936
10
139.90584999999993
20
-21.583393913029365
10
126.50684999999996
20
-21.583393913029344
42
-0.41421356237309503
10
126.20684999999996
20
-21.28339391302935
10
126.20684999999996
20
-7.884393913029351
42
-0.41421356237309936
10
126.50684999999996
20
-7.5843939130293458
10
139.90584999999993
20
-7.5843939130293512
42
-0.41421356237309614
0
LWPOLYLINE
5
180
100
AcDbEntity
8
0
100
AcDbPolyline
90
8
70
1
43
0.0
10
178.30584999999999
20
-7.8843939130294132
10
178.30584999999996
20
-21.283393913029411
42
-0.41421356237309936
10
178.00584999999995
20
-21.583393913029415
10
164.60684999999995
20
-21.583393913029411
42
-0.41421356237309503
10
164.30684999999994
20
-21.2833939130294
10
164.30684999999997
20
-7.884393913029399
42
-0.41421356237309825
10
164.60684999999998
20
-7.5843939130293956
10
178.00584999999998
20
-7.5843939130294018
42
-0.41421356237309503
0
LWPOLYLINE
5
181
100
AcDbEntity
8
0
100
AcDbPolyline
90
8
70
1
43
0.0
10
178.30584999999991
20
-52.684293913029421
10
178.30584999999991
20
-66.083593913029432
42
-0.41421356237308637
10
178.0058499999999
20
-66.383593913029429
10
164.60684999999989
20
-66.383593913029401
42
-0.41421356237309503
10
164.30684999999988
20
-66.083593913029389
10
164.30684999999988
20
-52.684293913029407
42
-0.41421356237308637
10
164.60684999999989
20
-52.38429391302941
10
178.0058499999999
20
-52.38429391302941
42
-0.41421356237309503
0
LWPOLYLINE
5
182
100
AcDbEntity
8
0
100
AcDbPolyline
90
8
70
1
43
0.0
10
225.93084999999999
20
-7.8843939130294727
10
225.93084999999996
20
-21.283393913029471
42
-0.41421356237309936
10
225.63084999999995
20
-21.583393913029472
10
212.23184999999995
20
-21.583393913029468
42
-0.41421356237309503
10
211.93184999999994
20
-21.283393913029457
10
211.93184999999997
20
-7.8843939130294576
42
-0.41421356237309614
10
212.23184999999998
20
-7.584393913029456
10
225.63084999999998
20
-7.5843939130294613
42
-0.41421356237309503
0
LWPOLYLINE
5
183
100
AcDbEntity
8
0
100
AcDbPolyline
90
8
70
1
43
0.0
10
197.35585
20
-7.8843939130294372
10
197.35584999999998
20
-21.283393913029435
42
-0.41421356237309936
10
197.05584999999996
20
-21.583393913029436
10
183.65684999999996
20
-21.583393913029433
42
-0.41421356237309503
10
183.35684999999995
20
-21.283393913029421
10
183.35684999999998
20
-7.8843939130294221
42
-0.41421356237309725
10
183.65684999999999
20
-7.5843939130294196
10
197.05584999999999
20
-7.5843939130294258
42
-0.41421356237309503
0
LWPOLYLINE
5
184
100
AcDbEntity
8
0
100
AcDbPolyline
90
8
70
1
43
0.0
10
240.5068499999999
20
-66.083593913029489
10
240.5068499999999
20
-52.684293913029506
42
-0.41421356237308637
10
240.80684999999991
20
-52.384293913029509
10
254.20584999999991
20
-52.384293913029509
42
-0.41421356237309503
10
254.50584999999992
20
-52.684293913029521
10
254.50584999999992
20
-66.083593913029532
42
-0.41421356237308637
10
254.20584999999991
20
-66.383593913029529
10
240.80684999999991
20
-66.3835939130295
42
-0.41421356237309503
0
LWPOLYLINE
5
185
100
AcDbEntity
8
0
100
AcDbPolyline
90
8
70
1
43
0.0
10
235.45584999999991
20
-52.684293913029506
10
235.45584999999991
20
-66.083593913029517
42
-0.41421356237307771
10
235.1558499999999
20
-66.3835939130295
10
221.7568499999999
20
-66.383593913029486
42
-0.41421356237309503
10
221.45684999999989
20
-66.083593913029475
10
221.45684999999989
20
-52.684293913029485
42
-0.41421356237308637
10
221.7568499999999
20
-52.384293913029495
10
235.1558499999999
20
-52.384293913029481
42
-0.41421356237310375
0
LWPOLYLINE
5
186
100
AcDbEntity
8
0
100
AcDbPolyline
90
8
70
1
43
0.0
10
197.35584999999992
20
-52.68429391302945
10
197.35584999999992
20
-66.083593913029461
42
-0.41421356237308637
10
197.05584999999991
20
-66.383593913029443
10
183.65684999999991
20
-66.383593913029429
42
-0.41421356237309503
10
183.35684999999989
20
-66.083593913029418
10
183.35684999999989
20
-52.684293913029435
42
-0.41421356237308637
10
183.65684999999991
20
-52.384293913029438
10
197.05584999999991
20
-52.384293913029438
42
-0.41421356237309503
0
LWPOLYLINE
5
187
100
AcDbEntity
8
0
100
AcDbPolyline
90
8
70
1
43
0.0
10
216.4058499999999
20
-52.684293913029478
10
216.4058499999999
20
-66.083593913029489
42
-0.41421356237308637
10
216.10584999999989
20
-66.383593913029472
10
202.70684999999992
20
-66.383593913029458
42
-0.41421356237309503
10
202.40684999999991
20
-66.083593913029446
10
202.40684999999991
20
-52.684293913029457
42
-0.41421356237308637
10
202.70684999999992
20
-52.384293913029467
10
216.10584999999989
20
-52.384293913029467
42
-0.41421356237309503
0
LWPOLYLINE
5
188
100
AcDbEntity
8
0
100
AcDbPolyline
90
8
70
1
43
0.0
10
344.9938499999999
20
-52.684293913029634
10
344.9938499999999
20
-66.083593913029645
42
-0.41421356237308637
10
344.69384999999988
20
-66.383593913029642
10
331.29384999999991
20
-66.383593913029614
42
-0.41421356237309503
10
330.9938499999999
20
-66.083593913029603
10
330.9938499999999
20
-52.68429391302962
42
-0.41421356237308637
10
331.29384999999991
20
-52.384293913029623
10
344.69384999999988
20
-52.384293913029623
42
-0.41421356237309503
0
LWPOLYLINE
5
189
100
AcDbEntity
8
0
100
AcDbPolyline
90
8
70
1
43
0.0
10
306.89384999999993
20
-33.634293913029573
10
306.89384999999993
20
-47.03359391302957
42
-0.41421356237309503
10
306.59384999999992
20
-47.333593913029574
10
293.19384999999994
20
-47.33359391302956
42
-0.41421356237309503
10
292.89384999999993
20
-47.033593913029549
10
292.89384999999993
20
-33.634293913029552
42
-0.41421356237309076
10
293.19385
20
-33.334293913029562
10
306.59384999999992
20
-33.334293913029562
42
-0.41421356237309503
0
LWPOLYLINE
5
190
100
AcDbEntity
8
0
100
AcDbPolyline
90
8
70
1
43
0.0
10
311.94384999999994
20
-47.03359391302957
10
311.94385
20
-33.634293913029573
42
-0.41421356237308637
10
312.24384999999995
20
-33.334293913029583
10
325.64385000000004
20
-33.334293913029583
42
-0.4142135623730257
10
325.94384999999994
20
-33.634293913029595
10
325.94384999999994
20
-47.033593913029598
42
-0.41421356237308637
10
325.64384999999993
20
-47.333593913029588
10
312.24384999999995
20
-47.333593913029581
42
-0.41421356237309503
0
LWPOLYLINE
5
191
100
AcDbEntity
8
0
100
AcDbPolyline
90
8
70
1
43
0.0
10
292.89384999999993
20
-21.283393913029556
10
292.89384999999999
20
-7.8843939130295588
42
-0.41421356237309503
10
293.19385
20
-7.584393913029559
10
306.59384999999997
20
-7.5843939130295643
42
-0.41421356237309503
10
306.89384999999999
20
-7.8843939130295757
10
306.89384999999993
20
-21.283393913029578
42
-0.41421356237309503
10
306.59384999999992
20
-21.583393913029575
10
293.19385
20
-21.583393913029575
42
-0.41421356237309936
0
LWPOLYLINE
5
192
100
AcDbEntity
8
0
100
AcDbPolyline
90
8
70
1
43
0.0
10
330.9938499999999
20
-47.033593913029598
10
330.9938499999999
20
-33.634293913029595
42
-0.41421356237309076
10
331.29384999999991
20
-33.334293913029605
10
344.69384999999988
20
-33.334293913029612
42
-0.41421356237309503
10
344.9938499999999
20
-33.634293913029623
10
344.9938499999999
20
-47.033593913029613
42
-0.41421356237309503
10
344.69384999999988
20
-47.333593913029617
10
331.29384999999991
20
-47.33359391302961
42
-0.41421356237309503
0
CIRCLE
5
193
100
AcDbEntity
8
0
100
AcDbCircle
10
171.44884999999988
20
-115.05918241302939
30
-6.106226635438361e-14
40
2.1099999999999857
210
2.3613801063395317e-32
220
-4.9960036108132034e-16
230
1
0
LWPOLYLINE
5
194
100
AcDbEntity
8
0
100
AcDbPolyline
90
8
70
1
43
0.0
10
232.77484999999982
20
-123.53334276136538
10
216.99377293316417
20
-123.53334614784039
42
-0.41421356237309503
10
216.69377293316415
20
-123.23334614784038
10
216.69377293316415
20
-109.83429391302941
42
-0.41421356237307771
10
216.99377293316417
20
-109.53429391302944
10
232.77484999999982
20
-109.53429391302946
42
-0.41421356237309503
10
233.07484999999983
20
-109.83429391302947
10
233.07484661352478
20
-123.23334614784042
42
-0.41421356237307771
0
LWPOLYLINE
5
195
100
AcDbEntity
8
0
100
AcDbPolyline
90
8
70
1
43
0.0
10
23.224749999999869
20
-85.433346186322751
10
5.0625226253026279
20
-85.433346186322709
42
-0.41421356237309076
10
4.7625226253026316
20
-85.133346186322711
10
4.7625226253026458
20
-71.734293913029177
42
-0.41421356237307011
10
5.0625226253026492
20
-71.434293913029194
10
23.224749999999894
20
-71.434293913029222
42
-0.41421356237309503
10
23.524749999999891
20
-71.734293913029205
10
23.524749999999869
20
-85.13334618632274
42
-0.41421356237311674
0
LWPOLYLINE
5
196
100
AcDbEntity
8
0
100
AcDbPolyline
90
8
70
1
43
0.0
10
27.98724999999985
20
-104.48379391302925
10
14.587749999999847
20
-104.48379391302922
42
-0.41421356237309287
10
14.287749999999848
20
-104.18379391302922
10
14.287749999999871
20
-90.78439391302922
42
-0.41421356237309503
10
14.587749999999865
20
-90.484393913029223
10
27.987249999999872
20
-90.484393913029237
42
-0.41421356237309503
10
28.287249999999872
20
-90.784393913029234
10
28.287249999999862
20
-104.18379391302923
42
-0.41421356237309503
0
CIRCLE
5
197
100
AcDbEntity
8
0
100
AcDbCircle
10
24.85939752018168
20
-116.53382001965258
30
-6.3282712403633923e-14
40
2.1099999999999994
210
3.0432715803862368e-32
220
-5.134781488891347e-16
230
1
0
LWPOLYLINE
5
198
100
AcDbEntity
8
0
100
AcDbPolyline
90
8
70
1
43
0.0
10
20.843772933164022
20
-123.53375391302922
10
5.0627599999998241
20
-123.5337539130292
42
-0.41421356237309503
10
4.7627599999998242
20
-123.2337539130292
10
4.7627599999998429
20
-109.83429391302923
42
-0.41421356237312101
10
5.0627599999998454
20
-109.5342939130292
10
20.843772933164047
20
-109.53429391302922
42
-0.41421356237309076
10
21.143772933164044
20
-109.83429391302921
10
21.143772933164016
20
-123.23375391302923
42
-0.41421356237309503
0
LWPOLYLINE
5
199
100
AcDbEntity
8
0
100
AcDbPolyline
90
8
70
1
43
0.0
10
44.656272933164033
20
-123.53375391302926
10
28.873849999999813
20
-123.53375391302924
42
-0.41421356237309076
10
28.573849999999823
20
-123.23375391302925
10
28.573849999999847
20
-109.83429391302926
42
-0.41421356237311241
10
28.873849999999841
20
-109.53429391302925
10
44.656272933164054
20
-109.53429391302926
42
-0.41421356237309503
10
44.956272933164058
20
-109.83429391302926
10
44.95627293316403
20
-123.23375391302925
42
-0.41421356237311241
0
LWPOLYLINE
5
200
100
AcDbEntity
8
0
100
AcDbPolyline
90
8
70
1
43
0.0
10
68.468772933164047
20
-123.5337539130293
10
52.687849999999834
20
-123.5337539130293
42
-0.41421356237309503
10
52.38784999999983
20
-123.23375391302929
10
52.387849999999858
20
-109.83429391302928
42
-0.41421356237311241
10
52.687849999999855
20
-109.53429391302927
10
68.468772933164075
20
-109.53429391302926
42
-0.41421356237309503
10
68.768772933164072
20
-109.83429391302927
10
68.76877293316403
20
-123.23375391302929
42
-0.41421356237311241
0
LWPOLYLINE
5
201
100
AcDbEntity
8
0
100
AcDbPolyline
90
8
70
1
43
0.0
10
123.82384999999984
20
-123.23334614784029
10
123.82384999999985
20
-109.83429391302934
42
-0.41421356237307771
10
124.12384999999985
20
-109.53429391302936
10
149.43127293316411
20
-109.53429391302939
42
-0.41421356237309503
10
149.73127293316412
20
-109.83429391302937
10
149.73127293316409
20
-123.23334614784032
42
-0.41421356237309503
10
149.43127293316411
20
-123.53334614784032
10
124.12384999999983
20
-123.53334614784029
42
-0.41421356237309503
0
LWPOLYLINE
5
202
100
AcDbEntity
8
0
100
AcDbPolyline
90
8
70
1
43
0.0
10
330.99384999999984
20
-122.93375391302965
42
0.41421356237309503
10
331.59384999999986
20
-123.53375391302964
10
344.39384999999982
20
-123.53375391302967
42
0.41421356237309503
10
344.99384999999984
20
-122.93375391302966
10
344.99384999999984
20
-110.13429391302965
42
0.41421356237309503
10
344.39384999999982
20
-109.53429391302964
10
331.59384999999986
20
-109.53429391302963
42
0.41421356237309503
10
330.99384999999984
20
-110.13429391302964
0
LWPOLYLINE
5
203
100
AcDbEntity
8
0
100
AcDbPolyline
90
8
70
1
43
0.0
10
311.94384999999988
20
-122.93375391302961
42
0.41421356237309503
10
312.54384999999991
20
-123.53375391302961
10
325.34384999999986
20
-123.53375391302963
42
0.41421356237309503
10
325.94384999999988
20
-122.93375391302962
10
325.94384999999988
20
-110.13429391302962
42
0.41421356237309503
10
325.34384999999986
20
-109.53429391302961
10
312.54384999999985
20
-109.5342939130296
42
0.41421356237309503
10
311.94384999999988
20
-110.13429391302961
0
LWPOLYLINE
5
204
100
AcDbEntity
8
0
100
AcDbPolyline
90
8
70
1
43
0.0
10
292.89384999999987
20
-122.93375391302959
42
0.41421356237309503
10
293.4938499999999
20
-123.5337539130296
10
306.29384999999985
20
-123.53375391302961
42
0.41421356237309503
10
306.89384999999982
20
-122.93375391302961
10
306.89384999999982
20
-110.13429391302961
42
0.41421356237309503
10
306.29384999999979
20
-109.5342939130296
10
293.49384999999984
20
-109.53429391302959
42
0.41421356237309503
10
292.89384999999987
20
-110.13429391302958
0
LWPOLYLINE
5
205
100
AcDbEntity
8
0
100
AcDbPolyline
90
8
70
1
43
0.0
10
0.34193459999978082
20
-127.73170091302921
10
347.32084999999978
20
-127.73170091302966
42
0.41421356237311585
10
349.32084999999984
20
-125.73170091302967
10
349.32085000000001
20
-1.9748939130296783
42
0.41421356237310641
10
347.32084999999995
20
0.025106086970285435
10
0.34193459999997344
20
0.025106086970760055
42
0.4142135623730937
10
-1.6580654000000226
20
-1.9748939130292231
10
-1.6580654000001807
20
-125.73170091302919
42
0.41421356237309848
0
LWPOLYLINE
5
206
100
AcDbEntity
8
0
100
AcDbPolyline
90
8
70
1
43
0.0
10
190.44984999999983
20
-109.83429391302943
10
190.44984999999983
20
-125.23462391302945
42
-0.41421356237309503
10
190.14984999999982
20
-125.53462391302945
10
176.74884999999986
20
-125.53462391302945
42
-0.41421356237309503
10
176.44884999999985
20
-125.23462391302944
10
176.44884999999988
20
-109.83429391302941
42
-0.41421356237309503
10
176.74884999999986
20
-109.53429391302942
10
190.14984999999982
20
-109.53429391302942
42
-0.41421356237309503
0
LWPOLYLINE
5
207
100
AcDbEntity
8
0
100
AcDbPolyline
90
8
70
1
43
0.0
10
193.18084999999985
20
-109.53429391302946
10
208.96184999999986
20
-109.53429391302944
42
-0.41421356237309503
10
209.26184999999987
20
-109.83429391302946
10
209.26184999999981
20
-123.23375391302947
42
-0.41421356237309503
10
208.96184999999986
20
-123.53375391302947
10
193.18084999999985
20
-123.53375391302947
42
-0.41421356237309503
10
192.88084999999984
20
-123.23375391302946
10
192.8808499999999
20
-109.83429391302943
42
-0.41421356237309503
0
LWPOLYLINE
5
208
100
AcDbEntity
8
0
100
AcDbPolyline
90
8
70
1
43
0.0
10
256.58684999999986
20
-123.53334237653854
10
240.80627293316422
20
-123.5333461478404
42
-0.41421356237309503
10
240.50627293316421
20
-123.23334614784039
10
240.50627293316424
20
-109.83429391302946
42
-0.41421356237307771
10
240.80627293316422
20
-109.53429391302947
10
256.58684999999986
20
-109.53429391302947
42
-0.41421356237309503
10
256.88684999999987
20
-109.83429391302948
10
256.88684622869795
20
-123.23334614784044
42
-0.41421356237307771
0
LWPOLYLINE
5
209
100
AcDbEntity
8
0
100
AcDbPolyline
90
8
70
1
43
0.0
10
264.31877293316433
20
-123.23334614784044
10
264.31877293316433
20
-109.83429391302948
42
-0.41421356237307771
10
264.61877293316428
20
-109.5342939130295
10
280.39984999999984
20
-109.53429391302949
42
-0.41421356237309503
10
280.69984999999986
20
-109.8342939130295
10
280.6998499999998
20
-123.23334614784046
42
-0.41421356237307771
10
280.39984999999984
20
-123.53334614784045
10
264.61877293316428
20
-123.5333461478404
42
-0.41421356237309503
0
LWPOLYLINE
5
210
100
AcDbEntity
8
0
100
AcDbPolyline
90
8
70
1
43
0.0
10
76.748849999999848
20
-109.5342939130293
10
89.899949999999848
20
-109.53429391302932
42
-0.41421356237309503
10
90.199949999999831
20
-109.83429391302931
10
90.199949999999816
20
-125.23462391302931
42
-0.41421356237309503
10
89.899949999999819
20
-125.53462391302931
10
76.748849999999834
20
-125.53462391302929
42
-0.41421356237309503
10
76.448849999999823
20
-125.2346239130293
10
76.448849999999865
20
-109.83429391302928
42
-0.41421356237311241
0
ENDSEC
0
SECTION
2
OBJECTS
0
DICTIONARY
5
C
100
AcDbDictionary
3
ACAD_GROUP
350
D
3
ACAD_MLINESTYLE
350
17
0
DICTIONARY
5
D
100
AcDbDictionary
0
DICTIONARY
5
1A
330
C
100
AcDbDictionary
0
DICTIONARY
5
17
100
AcDbDictionary
0
ENDSEC
0
EOF
