0
SECTION
2
HEADER
9
$INSUNITS
70
4
9
$ACADVER
1
AC1014
9
$HANDSEED
5
FFFF
0
ENDSEC
0
SECTION
2
TABLES
0
TABLE
2
VPORT
5
8
100
AcDbSymbolTable
0
ENDTAB
0
TABLE
2
LTYPE
5
5
100
AcDbSymbolTable
0
LTYPE
5
14
100
AcDbSymbolTableRecord
100
AcDbLinetypeTableRecord
2
BYBLOCK
70
0
0
LTYPE
5
15
100
AcDbSymbolTableRecord
100
AcDbLinetypeTableRecord
2
BYLAYER
70
0
0
LTYPE
5
16
100
AcDbSymbolTableRecord
100
AcDbLinetypeTableRecord
2
DASHED
70
0
3
Dashed __ __ __ __ __ __ __ __ __ __ __ __ __ _
72
65
73
2
40
0.75
49
0.5
74
0
49
-0.25
74
0
0
ENDTAB
0
TABLE
2
LAYER
5
2
100
AcDbSymbolTable
70
2
0
LAYER
5
50
100
AcDbSymbolTableRecord
100
AcDbLayerTableRecord
2
0
70
0
62
7
6
CONTINUOUS
0
ENDTAB
0
TABLE
2
STYLE
5
3
100
AcDbSymbolTable
70
1
0
STYLE
5
11
100
AcDbSymbolTableRecord
100
AcDbTextStyleTableRecord
2
STANDARD
70
0
0
ENDTAB
0
TABLE
2
VIEW
5
6
100
AcDbSymbolTable
70
0
0
ENDTAB
0
TABLE
2
UCS
5
7
100
AcDbSymbolTable
70
0
0
ENDTAB
0
TABLE
2
APPID
5
9
100
AcDbSymbolTable
70
2
0
APPID
5
12
100
AcDbSymbolTableRecord
100
AcDbRegAppTableRecord
2
ACAD
70
0
0
ENDTAB
0
TABLE
2
DIMSTYLE
5
A
100
AcDbSymbolTable
70
1
0
ENDTAB
0
TABLE
2
BLOCK_RECORD
5
1
100
AcDbSymbolTable
70
1
0
BLOCK_RECORD
5
1F
100
AcDbSymbolTableRecord
100
AcDbBlockTableRecord
2
*MODEL_SPACE
0
BLOCK_RECORD
5
1B
100
AcDbSymbolTableRecord
100
AcDbBlockTableRecord
2
*PAPER_SPACE
0
ENDTAB
0
ENDSEC
0
SECTION
2
BLOCKS
0
BLOCK
5
20
100
AcDbEntity
100
AcDbBlockBegin
2
*MODEL_SPACE
0
ENDBLK
5
21
100
AcDbEntity
100
AcDbBlockEnd
0
BLOCK
5
1C
100
AcDbEntity
100
AcDbBlockBegin
2
*PAPER_SPACE
0
ENDBLK
5
1D
100
AcDbEntity
100
AcDbBlockEnd
0
ENDSEC
0
SECTION
2
ENTITIES
0
LINE
5
100
100
AcDbEntity
8
0
100
AcDbLine
10
-348.82084781261904
20
-1.9748923315243632
30
1.1102230246251565e-15
11
-348.82084781261813
21
-123.73170114736948
31
6.7723604502134549e-14
0
ARC
5
101
100
AcDbEntity
8
0
100
AcDbCircle
10
-347.32084781261813
20
-123.73170114736945
30
6.5503158452884236e-14
40
1.4999999999999858
210
1.4802973661668829e-15
220
5.4123372450478137e-16
230
1
100
AcDbArc
50
180
51
270.00000000155239
0
LINE
5
102
100
AcDbEntity
8
0
100
AcDbLine
10
-347.32084781257748
20
-125.23170114736944
30
6.6315009039641382e-14
11
-185.23709541364786
21
-125.23170114299718
31
6.7723604499808103e-14
0
SPLINE
5
103
100
AcDbEntity
8
0
100
AcDbSpline
70
0
71
3
72
14
73
10
74
0
42
0.000000001
43
0.0000000001
44
0.0000000001
40
0
40
0
40
0
40
0
40
0.058596671008038094
40
0.058596671008038094
40
0.11719334201607709
40
0.11719334201607709
40
0.15887208411812037
40
0.15887208411812037
40
0.20055082622016338
40
0.20055082622016338
40
0.20055082622016338
40
0.20055082622016338
10
-183.7790715411669
20
-124.084073654918
30
6.5503158452884236e-14
10
-183.82495566595202
20
-124.27392997754025
30
6.7723604502134549e-14
10
-183.90748427508038
20
-124.45300898035677
30
6.9944050551384862e-14
10
-184.13653988614391
20
-124.76945270620398
30
6.5503158452884236e-14
10
-184.28087699159235
20
-124.90379205474041
30
6.5503158452884236e-14
10
-184.56498758401452
20
-125.0798748600406
30
6.9944050551384862e-14
10
-184.69267345002308
20
-125.13630287712482
30
6.5503158452884236e-14
10
-184.95990832208761
20
-125.21239983695402
30
6.7723604502134549e-14
10
-185.09816627330775
20
-125.23170114299344
30
6.5503158452884236e-14
10
-185.23709541364786
20
-125.23170114299718
30
6.7723604502134549e-14
0
ARC
5
104
100
AcDbEntity
8
0
100
AcDbCircle
10
-180.86302379612391
20
-124.7888186787597
30
6.9944050551384862e-14
40
3.0000000000000115
210
-4.1535097560690588e-18
220
5.2926486358909432e-16
230
1
100
AcDbArc
50
13.586612841198107
51
166.41338716189895
0
SPLINE
5
105
100
AcDbEntity
8
0
100
AcDbSpline
70
0
71
3
72
14
73
10
74
0
42
0.000000001
43
0.0000000001
44
0.0000000001
40
0
40
0
40
0
40
0
40
0.058596671008039655
40
0.058596671008039655
40
0.11719334201607663
40
0.11719334201607663
40
0.15887208411812009
40
0.15887208411812009
40
0.20055082622016243
40
0.20055082622016243
40
0.20055082622016243
40
0.20055082622016243
10
-176.488952178576
20
-125.23170114276071
30
6.7723604502134549e-14
10
-176.68427441526947
20
-125.23170114276598
30
6.9944050551384862e-14
10
-176.87772926492232
20
-125.19355036662431
30
6.7723604502134549e-14
10
-177.2391262033496
20
-125.04524204762923
30
6.9944050551384862e-14
10
-177.40361314041607
20
-124.93650241313972
30
6.5503158452884236e-14
10
-177.64151027161134
20
-124.70170688929413
30
6.7723604502134549e-14
10
-177.72635452850108
20
-124.59084998349553
30
6.3282712403633923e-14
10
-177.86309946664059
20
-124.34896975272871
30
6.7723604502134549e-14
10
-177.91433951100458
20
-124.21911499022849
30
6.5503158452884236e-14
10
-177.94697605111901
20
-124.08407365476037
30
6.5503158452884236e-14
0
LINE
5
106
100
AcDbEntity
8
0
100
AcDbLine
10
-176.488952178576
20
-125.23170114276071
30
6.7723604502134549e-14
11
-85.16109521756124
21
-125.23170114029249
31
6.5503158451591766e-14
0
SPLINE
5
107
100
AcDbEntity
8
0
100
AcDbSpline
70
0
71
3
72
14
73
10
74
0
42
0.000000001
43
0.0000000001
44
0.0000000001
40
0
40
0
40
0
40
0
40
0.058596671008038774
40
0.058596671008038774
40
0.11719334201607833
40
0.11719334201607833
40
0.15887207013951388
40
0.15887207013951388
40
0.2005507982629478
40
0.2005507982629478
40
0.2005507982629478
40
0.2005507982629478
10
-83.703071410442504
20
-124.08407392266474
30
6.3282712403633923e-14
10
-83.748955570444409
20
-124.27393023677584
30
6.7723604502134549e-14
10
-83.831484212790443
20
-124.453009224284
30
6.7723604502134549e-14
10
-84.06053988255168
20
-124.76945290764327
30
6.5503158452884236e-14
10
-84.204877012918985
20
-124.90379222940633
30
6.7723604502134549e-14
10
-84.488987598397429
20
-125.07987495746005
30
6.7723604502134549e-14
10
-84.616673429021347
20
-125.13630293767407
30
6.7723604502134549e-14
10
-84.883908218515842
20
-125.21239984719625
30
6.5503158452884236e-14
10
-85.022166123816461
20
-125.23170114028873
30
6.7723604502134549e-14
10
-85.16109521756124
20
-125.23170114029249
30
6.5503158452884236e-14
0
ARC
5
108
100
AcDbEntity
8
0
100
AcDbCircle
10
-80.787023796123947
20
-124.78881948740927
30
6.5503158452884223e-14
40
3.0000000000000053
210
-8.9330844644698586e-19
220
5.4275429436918847e-16
230
1
100
AcDbArc
50
13.586623469092514
51
166.41337653400376
0
SPLINE
5
109
100
AcDbEntity
8
0
100
AcDbSpline
70
0
71
3
72
14
73
10
74
0
42
0.000000001
43
0.0000000001
44
0.0000000001
40
0
40
0
40
0
40
0
40
0.058596671008038607
40
0.058596671008038607
40
0.11719334201607903
40
0.11719334201607903
40
0.15887207013951382
40
0.15887207013951382
40
0.20055079826294842
40
0.20055079826294842
40
0.20055079826294842
40
0.20055079826294842
10
-76.412952374662694
20
-125.23170114005609
30
6.7723604502134549e-14
10
-76.608274611356165
20
-125.23170114006135
30
6.5503158452884236e-14
10
-76.801729461009018
20
-125.19355036391964
30
6.7723604502134549e-14
10
-77.163126399436294
20
-125.04524204492456
30
6.3282712403633923e-14
10
-77.327613336502793
20
-124.93650241043508
30
6.7723604502134549e-14
10
-77.565510434534687
20
-124.70170691932047
30
6.9944050551384862e-14
10
-77.650354667836638
20
-124.59085005499281
30
6.7723604502134549e-14
10
-77.787099582546773
20
-124.34896991803258
30
6.5503158452884236e-14
10
-77.83833962762597
20
-124.21911520663002
30
6.5503158452884236e-14
10
-77.870976181843474
20
-124.08407392250716
30
6.7723604502134549e-14
0
LINE
5
110
100
AcDbEntity
8
0
100
AcDbLine
10
-76.412952374662694
20
-125.23170114005609
30
6.7723604502134549e-14
11
-0.34193380374281546
21
-125.23170113800018
31
6.9944050550253951e-14
0
ARC
5
111
100
AcDbEntity
8
0
100
AcDbCircle
10
-0.34193380374282745
20
-123.73170113800013
30
6.5503158452884236e-14
40
1.5000000000000391
210
-1.9299078420673541e-29
220
2.9605947315797328e-15
230
1
100
AcDbArc
50
-89.999999999999545
51
0
0
LINE
5
112
100
AcDbEntity
8
0
100
AcDbLine
10
1.1580661962571765
20
-123.73170113800012
30
6.5503158452884223e-14
11
1.158066196256097
21
-1.9748951513978952
31
3.3306690738754696e-15
0
ARC
5
113
100
AcDbEntity
8
0
100
AcDbCircle
10
-0.34193380374390181
20
-1.9748951352371451
30
1.1102230246251565e-15
40
1.4999999999999989
210
-1.4802973603357146e-15
220
5.4123374045324076e-16
230
1
100
AcDbArc
50
0
51
89.999999545006148
0
LINE
5
114
100
AcDbEntity
8
0
100
AcDbLine
10
-0.34193379183219053
20
-0.47489513523714633
30
2.9837243786801151e-16
11
-225.97724998808843
21
-0.47489332264713291
31
-9.9261673506363321e-22
0
ARC
5
115
100
AcDbEntity
8
0
100
AcDbCircle
10
-225.97725000000014
20
-1.9748933226471335
30
1.1102230246251565e-15
40
1.5000000000000009
210
1.6383319270052929e-24
220
7.4014934482792737e-16
230
1
100
AcDbArc
50
89.999999545006233
51
180
0
LINE
5
116
100
AcDbEntity
8
0
100
AcDbLine
10
-227.47725000000014
20
-1.9748933226471461
30
1.1102230247132348e-15
11
-227.47725000000014
21
-25.266071462175518
31
1.3600232051658168e-14
0
SPLINE
5
117
100
AcDbEntity
8
0
100
AcDbSpline
70
0
71
3
72
16
73
12
74
0
42
0.000000001
43
0.0000000001
44
0.0000000001
40
0
40
0
40
0
40
0
40
0.20808542124495991
40
0.20808542124495991
40
0.38281323248919097
40
0.38281323248919097
40
0.52445924956407886
40
0.52445924956407886
40
0.603981043882859
40
0.603981043882859
40
0.68349370314796831
40
0.68349370314796831
40
0.68349370314796831
40
0.68349370314796831
10
-227.47725000000014
20
-25.266071462175521
30
1.4432899320127035e-14
10
-227.47725000000008
20
-25.959689532992055
30
1.3322676295501878e-14
10
-227.61227114059506
20
-26.652142233619067
30
1.3322676295501878e-14
10
-228.07943120584645
20
-27.839557814709963
30
1.6653345369377348e-14
10
-228.43100077520978
20
-28.494058232717414
30
1.4432899320127035e-14
10
-229.50841178983072
20
-29.603622128120996
30
1.6653345369377348e-14
10
-230.08665449161484
20
-30.005617415458019
30
1.5543122344752192e-14
10
-231.07105320257372
20
-30.452673572558218
30
1.4432899320127035e-14
10
-231.44163589607143
20
-30.577036623754537
30
1.8873791418627661e-14
10
-232.20060714058394
20
-30.745342053297414
30
1.5543122344752192e-14
10
-232.58856241097243
20
-30.789196935431168
30
1.5543122344752192e-14
10
-232.97725000000017
20
-30.789196935431164
30
1.6653345369377348e-14
0
LINE
5
118
100
AcDbEntity
8
0
100
AcDbLine
10
-232.97725000000017
20
-30.789196935431164
30
1.6653345369377348e-14
11
-250.86827305725623
21
-30.789196935431153
31
1.6653345369377345e-14
0
ARC
5
119
100
AcDbEntity
8
0
100
AcDbCircle
10
-250.86827305725632
20
-32.2891969354311
30
1.6653345369377313e-14
40
1.4999999999999458
210
-2.3571487778831353e-29
220
-2.1036290805893293e-29
230
1
100
AcDbArc
50
89.999999999996746
51
180
0
LINE
5
120
100
AcDbEntity
8
0
100
AcDbLine
10
-252.36827305725626
20
-32.289196935431171
30
1.6653345369377354e-14
11
-252.36827305725623
21
-33.34881808279107
31
1.5005358067199381e-14
0
ARC
5
121
100
AcDbEntity
8
0
100
AcDbCircle
10
-254.61827305725623
20
-33.348818082791084
30
1.7763568394002501e-14
40
2.2500000000000142
210
1.0956401461402132e-31
220
5.412337245047647e-16
230
1
100
AcDbArc
50
-180
51
0
0
LINE
5
122
100
AcDbEntity
8
0
100
AcDbLine
10
-256.86827305725626
20
-33.348818082791105
30
1.7763568394002511e-14
11
-256.86827305725626
21
-32.28919693543115
31
1.8301332671555315e-14
0
ARC
5
123
100
AcDbEntity
8
0
100
AcDbCircle
10
-258.36827305725615
20
-32.289196935431093
30
1.5543122344752151e-14
40
1.4999999999999147
210
-1.8388068845355252e-15
220
5.4123372450483915e-16
230
1
100
AcDbArc
50
0
51
90.000000000004349
0
LINE
5
124
100
AcDbEntity
8
0
100
AcDbLine
10
-258.36827305725626
20
-30.789196935431175
30
1.4731271757995052e-14
11
-274.74427305725624
21
-30.789196935431157
31
1.6653345369377348e-14
0
ARC
5
125
100
AcDbEntity
8
0
100
AcDbCircle
10
-274.74427305725624
20
-32.289196935431136
30
1.6653345369377332e-14
40
1.4999999999999769
210
2.0664916408533231e-30
220
-1.0518145402946986e-29
230
1
100
AcDbArc
50
90
51
180
0
LINE
5
126
100
AcDbEntity
8
0
100
AcDbLine
10
-276.24427305725624
20
-32.289196935431171
30
1.6653345369377354e-14
11
-276.24427305725624
21
-33.348817889864506
31
1.5022705301959149e-14
0
ARC
5
127
100
AcDbEntity
8
0
100
AcDbCircle
10
-278.49427305725624
20
-33.34881788986452
30
1.8873791418627658e-14
40
2.2500000000000142
210
9.8607613152625495e-31
220
5.4123372450476431e-16
230
1
100
AcDbArc
50
-180
51
0
0
LINE
5
128
100
AcDbEntity
8
0
100
AcDbLine
10
-280.74427305725629
20
-33.348817889864542
30
1.8873791418627667e-14
11
-280.74427305725629
21
-32.28919693543115
31
1.609823385706477e-14
0
ARC
5
129
100
AcDbEntity
8
0
100
AcDbCircle
10
-282.24427305725624
20
-32.289196935431093
30
1.5543122344752151e-14
40
1.4999999999999147
210
-3.7007434154174504e-16
220
5.4123372450477831e-16
230
1
100
AcDbArc
50
0
51
90.000000000002174
0
LINE
5
130
100
AcDbEntity
8
0
100
AcDbLine
10
-282.24427305725629
20
-30.789196935431175
30
1.4731271757995052e-14
11
-297.97725000000008
21
-30.789196935431164
31
1.6653345369377351e-14
0
SPLINE
5
131
100
AcDbEntity
8
0
100
AcDbSpline
70
0
71
3
72
16
73
12
74
0
42
0.000000001
43
0.0000000001
44
0.0000000001
40
0
40
0
40
0
40
0
40
0.20550222191623405
40
0.20550222191623405
40
0.37874516104768985
40
0.37874516104768985
40
0.51937262857583288
40
0.51937262857583288
40
0.59955064791389812
40
0.59955064791389812
40
0.67976430504791585
40
0.67976430504791585
40
0.67976430504791585
40
0.67976430504791585
10
-297.97725000000008
20
-30.789196935431164
30
1.6653345369377348e-14
10
-298.66225740638748
20
-30.789196935431168
30
1.5543122344752192e-14
10
-299.34575310095215
20
-30.655802092261688
30
1.8873791418627661e-14
10
-300.52078123427469
20
-30.194040447188893
30
1.6653345369377348e-14
10
-301.17288955320203
20
-29.844400303906362
30
1.6653345369377348e-14
10
-302.2815396428104
20
-28.768631828293788
30
1.4432899320127035e-14
10
-302.6834458520471
20
-28.190715291178357
30
1.5543122344752192e-14
10
-303.13450944935408
20
-27.201883848555948
30
1.4432899320127035e-14
10
-303.26115488256823
20
-26.825705160606997
30
1.4432899320127035e-14
10
-303.43257829389381
20
-26.055063522994153
30
1.3322676295501878e-14
10
-303.47725000000014
20
-25.66090513725532
30
1.4432899320127035e-14
10
-303.47725000000014
20
-25.266071462175535
30
1.4432899320127035e-14
0
LINE
5
132
100
AcDbEntity
8
0
100
AcDbLine
10
-303.47725000000014
20
-25.266071462175532
30
1.4432899320127035e-14
11
-303.47725000000014
21
-1.9748933226489962
31
1.6653345369377348e-15
0
ARC
5
133
100
AcDbEntity
8
0
100
AcDbCircle
10
-304.97725000000008
20
-1.9748933226489966
30
0
40
1.4999999999999858
210
-1.1102230246251674e-15
220
5.4123372450476342e-16
230
1
100
AcDbArc
50
0
51
90
0
LINE
5
134
100
AcDbEntity
8
0
100
AcDbLine
10
-304.97725000000008
20
-0.47489332264901096
30
-8.1185058675713803e-16
11
-347.32084880374373
21
-0.47489332264908335
31
3.944304526105059e-29
0
ARC
5
135
100
AcDbEntity
8
0
100
AcDbCircle
10
-347.32084880374373
20
-1.9748923315243516
30
1.1102230246251565e-15
40
1.4999990088752682
210
1.094811444035707e-47
220
7.4014917213684449e-16
230
1
100
AcDbArc
50
90
51
180
0
CIRCLE
5
136
100
AcDbEntity
8
0
100
AcDbCircle
10
-327.66249800966352
20
-27.458891488923086
30
1.4432899320127035e-14
40
3.125
210
-2.6459635746693611e-35
220
5.5511151231257827e-16
230
1
0
CIRCLE
5
137
100
AcDbEntity
8
0
100
AcDbCircle
10
-173.96249900966356
20
-27.458893730873633
30
1.4432899320127035e-14
40
3.125
210
-2.6459635746693611e-35
220
5.5511151231257827e-16
230
1
0
CIRCLE
5
138
100
AcDbEntity
8
0
100
AcDbCircle
10
-20.262499009663642
20
-27.4588939728242
30
1.5543122344752192e-14
40
3.125
210
-2.6459635746693611e-35
220
5.5511151231257827e-16
230
1
0
CIRCLE
5
139
100
AcDbEntity
8
0
100
AcDbCircle
10
-276.11302336511773
20
-71.448817909105884
30
3.6637359812630166e-14
40
2.2500000000000142
210
-7.3345142545325112e-32
220
5.4123372450476381e-16
230
1
0
CIRCLE
5
140
100
AcDbEntity
8
0
100
AcDbCircle
10
-33.2255235190486
20
-90.498819871723072
30
4.9960036108132044e-14
40
2.2500000000000009
210
3.2108531006518149e-31
220
5.4123372450476381e-16
230
1
0
CIRCLE
5
141
100
AcDbEntity
8
0
100
AcDbCircle
10
-80.787023672979345
20
-109.54881948740928
30
6.106226635438361e-14
40
2.2499999999999964
210
-1.7889020105309422e-31
220
5.5511151231257827e-16
230
1
0
CIRCLE
5
142
100
AcDbEntity
8
0
100
AcDbCircle
10
-271.35052351904852
20
-90.498817947588591
30
5.1070259132757201e-14
40
2.2500000000000142
210
-7.3345142545325112e-32
220
5.4123372450476381e-16
230
1
0
CIRCLE
5
143
100
AcDbEntity
8
0
100
AcDbCircle
10
-252.23702336511775
20
-71.448818102032462
30
3.7747582837255322e-14
40
2.2500000000000142
210
-7.3345142545325112e-32
220
5.4123372450476381e-16
230
1
0
CIRCLE
5
144
100
AcDbEntity
8
0
100
AcDbCircle
10
-9.3495235190486135
20
-90.498820064649664
30
5.2180482157382357e-14
40
2.25
210
1.2387008375993062e-31
220
5.4123372450476371e-16
230
1
0
CIRCLE
5
145
100
AcDbEntity
8
0
100
AcDbCircle
10
-180.8630236729793
20
-109.54881867875972
30
5.8841820305133297e-14
40
2.2500000000000142
210
-7.3345142545325112e-32
220
5.4123372450476381e-16
230
1
0
CIRCLE
5
146
100
AcDbEntity
8
0
100
AcDbCircle
10
-247.47452351904852
20
-90.498818140515112
30
4.8849813083506888e-14
40
2.2500000000000142
210
-7.3345142545325112e-32
220
5.4123372450476381e-16
230
1
0
ENDSEC
0
SECTION
2
OBJECTS
0
DICTIONARY
5
C
100
AcDbDictionary
3
ACAD_GROUP
350
D
3
ACAD_MLINESTYLE
350
17
0
DICTIONARY
5
D
100
AcDbDictionary
0
DICTIONARY
5
1A
330
C
100
AcDbDictionary
0
DICTIONARY
5
17
100
AcDbDictionary
0
ENDSEC
0
EOF
