0
SECTION
2
HEADER
9
$INSUNITS
70
4
9
$ACADVER
1
AC1014
9
$HANDSEED
5
FFFF
0
ENDSEC
0
SECTION
2
TABLES
0
TABLE
2
VPORT
5
8
100
AcDbSymbolTable
0
ENDTAB
0
TABLE
2
LTYPE
5
5
100
AcDbSymbolTable
0
LTYPE
5
14
100
AcDbSymbolTableRecord
100
AcDbLinetypeTableRecord
2
BYBLOCK
70
0
0
LTYPE
5
15
100
AcDbSymbolTableRecord
100
AcDbLinetypeTableRecord
2
BYLAYER
70
0
0
LTYPE
5
16
100
AcDbSymbolTableRecord
100
AcDbLinetypeTableRecord
2
DASHED
70
0
3
Dashed __ __ __ __ __ __ __ __ __ __ __ __ __ _
72
65
73
2
40
0.75
49
0.5
74
0
49
-0.25
74
0
0
ENDTAB
0
TABLE
2
LAYER
5
2
100
AcDbSymbolTable
70
2
0
LAYER
5
50
100
AcDbSymbolTableRecord
100
AcDbLayerTableRecord
2
0
70
0
62
7
6
CONTINUOUS
0
ENDTAB
0
TABLE
2
STYLE
5
3
100
AcDbSymbolTable
70
1
0
STYLE
5
11
100
AcDbSymbolTableRecord
100
AcDbTextStyleTableRecord
2
STANDARD
70
0
0
ENDTAB
0
TABLE
2
VIEW
5
6
100
AcDbSymbolTable
70
0
0
ENDTAB
0
TABLE
2
UCS
5
7
100
AcDbSymbolTable
70
0
0
ENDTAB
0
TABLE
2
APPID
5
9
100
AcDbSymbolTable
70
2
0
APPID
5
12
100
AcDbSymbolTableRecord
100
AcDbRegAppTableRecord
2
ACAD
70
0
0
ENDTAB
0
TABLE
2
DIMSTYLE
5
A
100
AcDbSymbolTable
70
1
0
ENDTAB
0
TABLE
2
BLOCK_RECORD
5
1
100
AcDbSymbolTable
70
1
0
BLOCK_RECORD
5
1F
100
AcDbSymbolTableRecord
100
AcDbBlockTableRecord
2
*MODEL_SPACE
0
BLOCK_RECORD
5
1B
100
AcDbSymbolTableRecord
100
AcDbBlockTableRecord
2
*PAPER_SPACE
0
ENDTAB
0
ENDSEC
0
SECTION
2
BLOCKS
0
BLOCK
5
20
100
AcDbEntity
100
AcDbBlockBegin
2
*MODEL_SPACE
0
ENDBLK
5
21
100
AcDbEntity
100
AcDbBlockEnd
0
BLOCK
5
1C
100
AcDbEntity
100
AcDbBlockBegin
2
*PAPER_SPACE
0
ENDBLK
5
1D
100
AcDbEntity
100
AcDbBlockEnd
0
ENDSEC
0
SECTION
2
ENTITIES
0
LWPOLYLINE
5
100
100
AcDbEntity
8
0
100
AcDbPolyline
90
51
70
1
43
0.0
10
36.336723733140282
20
-127.7317009138463
42
0.10063006001400318
10
40.241678519254876
20
-126.93774936681466
42
-0.20331901149145878
10
47.186919531701605
20
-126.93774936681466
42
0.10063006001400598
10
51.091874317816206
20
-127.73170091384628
10
72.523850000000039
20
-127.7317009138463
42
0.41421356237309798
10
74.323850000000022
20
-125.9317009138463
10
74.323850000000007
20
-109.78379391384628
42
-0.41421356237310081
10
76.123850000000004
20
-107.98379391384626
10
93.52385000000001
20
-107.98379391384627
42
-0.41421356237309503
10
95.323850000000022
20
-109.78379391384627
10
95.323849999999993
20
-119.93170091384638
42
0.41421356237309798
10
97.12384999999999
20
-121.7317009138464
10
120.52385
20
-121.73170091384635
42
0.41421356237309798
10
122.32385000000001
20
-119.93170091384636
10
122.32384999999999
20
-109.83429391384631
42
-0.41421356237309798
10
124.12384999999999
20
-108.03429391384628
10
149.52484999999996
20
-108.03429391384631
42
-0.41421356237309503
10
151.32484999999997
20
-109.83429391384631
10
151.32484999999997
20
-119.93170091384629
42
0.41421356237310375
10
153.12484999999995
20
-121.73170091384631
10
164.52484999999999
20
-121.73170091384628
42
0.41421356237309215
10
166.32485
20
-119.93170091384629
10
166.32484999999997
20
-109.78379391384632
42
-0.41421356237309798
10
168.12484999999995
20
-107.9837939138463
10
208.96185000000003
20
-107.9837939138463
42
-0.41421356237309503
10
210.76185000000004
20
-109.7837939138463
10
210.76184999999998
20
-124.23169959826451
42
0.41421356237309764
10
212.76184999999998
20
-126.23169959826453
10
217.20348557545111
20
-126.23169959826448
42
-0.12760642967802222
10
221.52677389875495
20
-127.35332220361143
42
0.12760642967801958
10
222.98523261022063
20
-127.73170091384628
10
296.57091028314204
20
-127.73170091384627
42
0.10063006001399227
10
300.47586506925609
20
-126.93774936681484
42
-0.20331901149142642
10
307.42110608169929
20
-126.93774936681484
42
0.10063006001399205
10
311.32606086781334
20
-127.73170091384627
10
325.52576010307882
20
-127.73170091384627
42
0.11643381484596232
10
326.42018724734442
20
-127.52055531921322
10
329.23396703247391
20
-126.11366551853699
42
-0.11643381484597858
10
329.79298399763991
20
-125.9816995218914
10
347.32084810254298
20
-125.98169952189147
42
0.41421384024923791
10
349.32085000000001
20
-123.98169952188908
10
349.32085000000001
20
-1.9748939138462873
42
0.4142135623731254
10
347.32084999999995
20
0.025106086153663942
10
0.34193459999997344
20
0.025106086153698914
42
0.41421356237309537
10
-1.6580654000000228
20
-1.9748939138463038
10
-1.6580654000000206
20
-123.98169951044564
42
0.41421348656382512
10
0.34193408234192835
20
-125.98169951044554
10
17.869798131711494
20
-125.98169951044579
42
-0.11643381653847887
10
18.428815104345233
20
-126.11366551082529
10
21.242594845964014
20
-127.52055531323907
42
0.11643381653846183
10
22.137022002178028
20
-127.73170091384627
0
LWPOLYLINE
5
101
100
AcDbEntity
8
0
100
AcDbPolyline
90
8
70
1
43
0.0
10
52.687849999999976
20
-108.8342939138463
10
67.48715
20
-108.83429391384631
42
-0.41421356237309503
10
69.287149999999997
20
-110.63429391384631
10
69.287149999999968
20
-122.43375391384654
42
-0.41421356237309503
10
67.487149999999971
20
-124.23375391384654
10
52.687849999999969
20
-124.23375391384654
42
-0.41421356237309503
10
50.887849999999972
20
-122.43375391384654
10
50.887849999999958
20
-110.63429391384631
42
-0.41421356237309503
0
LWPOLYLINE
5
102
100
AcDbEntity
8
0
100
AcDbPolyline
90
24
70
1
43
0.0
10
25.262500062141218
20
-30.034293913846266
42
0.41421356237309503
10
27.062500062141218
20
-31.834293913846267
10
35.130849999999981
20
-31.834293913846274
42
-0.41421356237308998
10
36.930849999999978
20
-33.634293913846236
10
36.930849999999978
20
-47.033593913846246
42
-0.41421356237309576
10
35.130849999999988
20
-48.833593913846265
10
3.4814999999999778
20
-48.833593913846286
42
-0.41421356237309559
10
1.6814999999999745
20
-47.033593913846289
10
1.6814999999999725
20
-33.634293913846264
42
-0.41421356237309592
10
3.4814999999999752
20
-31.83429391384626
10
3.5419345999999763
20
-31.834293913846274
42
0.41421356237309631
10
5.341934599999977
20
-30.034293913846266
10
5.3419345999999788
20
-24.883393913846277
42
0.41421356237309498
10
3.5419345999999781
20
-23.083393913846276
10
3.4814999999999685
20
-23.08339391384628
42
-0.41421356237309498
10
1.6814999999999694
20
-21.283393913846279
10
1.681499999999968
20
-7.8843939138462567
42
-0.4142135623730947
10
3.4814999999999685
20
-6.0843939138462586
10
16.08104999999998
20
-6.0843939138462595
42
-0.41421356237309576
10
17.881049999999977
20
-7.8843939138462638
10
17.881049999999977
20
-20.747063500089922
42
0.4142135623730947
10
19.681049999999971
20
-22.547063500089926
10
23.462500062141221
20
-22.547063500089944
42
-0.41421356237309359
10
25.262500062141214
20
-24.347063500089945
0
LWPOLYLINE
5
103
100
AcDbEntity
8
0
100
AcDbPolyline
90
8
70
1
43
0.0
10
229.48184999999998
20
-46.233593913846263
10
229.48184999999998
20
-33.634293913846264
42
-0.41421356237309359
10
231.28184999999999
20
-31.834293913846274
10
243.68084999999996
20
-31.834293913846277
42
-0.41421356237309503
10
245.48084999999998
20
-33.634293913846271
10
245.48084999999998
20
-46.233593913846263
42
-0.41421356237309503
10
243.68084999999996
20
-48.033593913846261
10
231.28184999999999
20
-48.033593913846261
42
-0.41421356237309503
0
LWPOLYLINE
5
104
100
AcDbEntity
8
0
100
AcDbPolyline
90
8
70
1
43
0.0
10
234.35585000000003
20
-67.883593913846298
10
221.75684999999999
20
-67.883593913846255
42
-0.41421356237309503
10
219.95684999999997
20
-66.083593913846258
10
219.95684999999997
20
-52.68429391384629
42
-0.41421356237309503
10
221.75684999999999
20
-50.884293913846292
10
234.35585000000003
20
-50.884293913846292
42
-0.41421356237309503
10
236.15585000000004
20
-52.68429391384629
10
236.15585000000004
20
-66.0835939138463
42
-0.41421356237309359
0
LWPOLYLINE
5
105
100
AcDbEntity
8
0
100
AcDbPolyline
90
8
70
1
43
0.0
10
43.744049999999987
20
-103.38379391384606
10
43.744049999999959
20
-90.784393913846287
42
-0.41421356237309503
10
45.54404999999997
20
-88.984393913846276
10
58.943349999999967
20
-88.98439391384629
42
-0.41421356237309503
10
60.743349999999964
20
-90.784393913846287
10
60.743349999999978
20
-103.38379391384608
42
-0.41421356237309215
10
58.943349999999981
20
-105.18379391384606
10
45.544049999999999
20
-105.18379391384607
42
-0.41421356237309503
0
LWPOLYLINE
5
106
100
AcDbEntity
8
0
100
AcDbPolyline
90
8
70
1
43
0.0
10
215.19385000000003
20
-103.38379391384629
10
215.19385000000003
20
-90.784393913846287
42
-0.41421356237309503
10
216.99385000000004
20
-88.98439391384629
10
230.39384999999996
20
-88.98439391384629
42
-0.41421356237309503
10
232.19384999999994
20
-90.784393913846287
10
232.19385
20
-103.38379391384629
42
-0.41421356237309503
10
230.39384999999999
20
-105.18379391384629
10
216.99385000000004
20
-105.18379391384629
42
-0.41421356237309503
0
LWPOLYLINE
5
107
100
AcDbEntity
8
0
100
AcDbPolyline
90
8
70
1
43
0.0
10
196.14385000000001
20
-103.38379391384628
10
196.14385000000001
20
-90.784393913846287
42
-0.41421356237309503
10
197.94385000000003
20
-88.98439391384629
10
211.34384999999995
20
-88.98439391384629
42
-0.41421356237310081
10
213.14384999999999
20
-90.784393913846287
10
213.14384999999999
20
-103.38379391384628
42
-0.41421356237309503
10
211.34384999999997
20
-105.18379391384627
10
197.94385000000003
20
-105.18379391384627
42
-0.41421356237309503
0
LWPOLYLINE
5
108
100
AcDbEntity
8
0
100
AcDbPolyline
90
8
70
1
43
0.0
10
177.09384999999997
20
-103.38379391384623
10
177.09384999999997
20
-90.784393913846287
42
-0.41421356237309503
10
178.89384999999999
20
-88.98439391384629
10
192.29384999999994
20
-88.98439391384629
42
-0.41421356237310081
10
194.09384999999997
20
-90.784393913846287
10
194.09384999999997
20
-103.38379391384623
42
-0.41421356237309503
10
192.29384999999996
20
-105.18379391384624
10
178.89384999999999
20
-105.18379391384624
42
-0.41421356237309503
0
LWPOLYLINE
5
109
100
AcDbEntity
8
0
100
AcDbPolyline
90
8
70
1
43
0.0
10
158.04384999999999
20
-103.38379391384622
10
158.04384999999999
20
-90.784393913846287
42
-0.41421356237309503
10
159.84385
20
-88.98439391384629
10
173.24384999999995
20
-88.984393913846276
42
-0.41421356237310081
10
175.04384999999999
20
-90.784393913846273
10
175.04384999999999
20
-103.38379391384622
42
-0.41421356237309503
10
173.24385000000001
20
-105.18379391384622
10
159.84385
20
-105.18379391384622
42
-0.41421356237309503
0
LWPOLYLINE
5
110
100
AcDbEntity
8
0
100
AcDbPolyline
90
8
70
1
43
0.0
10
138.99384999999998
20
-103.3837939138462
10
138.99384999999998
20
-90.784393913846287
42
-0.41421356237309503
10
140.79384999999996
20
-88.98439391384629
10
154.19385
20
-88.98439391384629
42
-0.41421356237309503
10
155.99384999999998
20
-90.784393913846287
10
155.99384999999995
20
-103.3837939138462
42
-0.41421356237309503
10
154.19384999999997
20
-105.1837939138462
10
140.79384999999999
20
-105.1837939138462
42
-0.41421356237309503
0
LWPOLYLINE
5
111
100
AcDbEntity
8
0
100
AcDbPolyline
90
8
70
1
43
0.0
10
119.94384999999997
20
-103.38379391384618
10
119.94384999999997
20
-90.784393913846287
42
-0.41421356237309503
10
121.74384999999998
20
-88.98439391384629
10
135.14385000000001
20
-88.984393913846276
42
-0.41421356237311241
10
136.94385
20
-90.784393913846372
10
136.94385
20
-103.38379391384618
42
-0.41421356237309503
10
135.14385000000001
20
-105.18379391384616
10
121.74384999999998
20
-105.18379391384616
42
-0.41421356237309503
0
LWPOLYLINE
5
112
100
AcDbEntity
8
0
100
AcDbPolyline
90
8
70
1
43
0.0
10
100.89385
20
-103.38379391384615
10
100.89384999999999
20
-90.784393913846287
42
-0.41421356237309503
10
102.69384999999998
20
-88.98439391384629
10
116.09385
20
-88.98439391384629
42
-0.41421356237309503
10
117.89384999999999
20
-90.784393913846287
10
117.89384999999999
20
-103.38379391384615
42
-0.41421356237309215
10
116.09385
20
-105.18379391384613
10
102.69384999999998
20
-105.18379391384612
42
-0.41421356237309215
0
LWPOLYLINE
5
113
100
AcDbEntity
8
0
100
AcDbPolyline
90
8
70
1
43
0.0
10
81.844049999999982
20
-103.38379391384613
10
81.844049999999982
20
-90.784393913846287
42
-0.41421356237309798
10
83.644049999999979
20
-88.984393913846276
10
97.043349999999975
20
-88.98439391384629
42
-0.41421356237309503
10
98.843349999999958
20
-90.784393913846287
10
98.843349999999958
20
-103.38379391384613
42
-0.41421356237309215
10
97.043349999999975
20
-105.18379391384612
10
83.644049999999979
20
-105.18379391384612
42
-0.41421356237309215
0
LWPOLYLINE
5
114
100
AcDbEntity
8
0
100
AcDbPolyline
90
8
70
1
43
0.0
10
62.794049999999999
20
-103.38379391384608
10
62.79404999999997
20
-90.784393913846273
42
-0.41421356237309215
10
64.594049999999982
20
-88.984393913846276
10
77.993349999999964
20
-88.98439391384629
42
-0.41421356237309503
10
79.793349999999947
20
-90.784393913846287
10
79.793349999999961
20
-103.38379391384609
42
-0.41421356237309215
10
77.993349999999964
20
-105.18379391384607
10
64.59405000000001
20
-105.1837939138461
42
-0.41421356237309503
0
LWPOLYLINE
5
115
100
AcDbEntity
8
0
100
AcDbPolyline
90
8
70
1
43
0.0
10
36.819049999999976
20
-69.934293913846304
10
49.418349999999975
20
-69.93429391384629
42
-0.41421356237308637
10
51.21834999999998
20
-71.734293913846244
10
51.218349999999987
20
-84.333593913846272
42
-0.41421356237309215
10
49.41834999999999
20
-86.133593913846255
10
36.819049999999983
20
-86.133593913846255
42
-0.41421356237309503
10
35.019049999999979
20
-84.333593913846258
10
35.019049999999979
20
-71.734293913846301
42
-0.41421356237309287
0
LWPOLYLINE
5
116
100
AcDbEntity
8
0
100
AcDbPolyline
90
8
70
1
43
0.0
10
5.8638799999999769
20
-69.934293913846318
10
23.22474999999999
20
-69.93429391384629
42
-0.41421356237308565
10
25.02474999999999
20
-71.734293913846244
10
25.024749999999973
20
-84.133593913846312
42
-0.41421356237309576
10
23.224749999999972
20
-85.933593913846309
10
5.8638799999999769
20
-85.933593913846309
42
-0.4142135623730947
10
4.0638799999999797
20
-84.133593913846312
10
4.0638799999999815
20
-71.734293913846315
42
-0.4142135623730947
0
LWPOLYLINE
5
117
100
AcDbEntity
8
0
100
AcDbPolyline
90
8
70
1
43
0.0
10
329.49385000000001
20
-122.43375391384618
10
329.49385000000001
20
-110.13429391384631
42
-0.41421356237309503
10
331.59384999999997
20
-108.03429391384628
10
343.89384999999999
20
-108.03429391384628
42
-0.41421356237309798
10
345.69385
20
-109.83429391384631
10
345.69385
20
-122.43375391384616
42
-0.41421356237309798
10
343.89384999999999
20
-124.23375391384617
10
331.29385000000002
20
-124.23375391384617
42
-0.41421356237309503
0
LWPOLYLINE
5
118
100
AcDbEntity
8
0
100
AcDbPolyline
90
8
70
1
43
0.0
10
220.11885000000001
20
-86.933593913846309
10
207.46885000000003
20
-86.933593913846295
42
-0.41421356237309503
10
205.66885000000002
20
-85.133593913846283
10
205.66885000000002
20
-71.734293913846301
42
-0.41421356237309503
10
207.46885000000003
20
-69.934293913846304
10
220.11885000000001
20
-69.93429391384629
42
-0.41421356237309503
10
221.91884999999999
20
-71.734293913846287
10
221.91884999999999
20
-85.133593913846283
42
-0.41421356237309503
0
LWPOLYLINE
5
119
100
AcDbEntity
8
0
100
AcDbPolyline
90
8
70
1
43
0.0
10
246.48084999999998
20
-7.8843939138463339
42
0.41421356237310641
10
244.68084999999999
20
-6.084393913846263
10
231.28184999999999
20
-6.0843939138462657
42
0.41421356237309481
10
229.48184999999998
20
-7.884393913846262
10
229.48184999999998
20
-21.283393913846204
42
0.4142135623731073
10
231.28184999999999
20
-23.083393913846276
10
244.68084999999999
20
-23.083393913846276
42
0.41421356237309503
10
246.48084999999998
20
-21.283393913846279
0
LWPOLYLINE
5
120
100
AcDbEntity
8
0
100
AcDbPolyline
90
8
70
1
43
0.0
10
210.43184999999997
20
-47.033593913846261
42
0.41421356237309503
10
212.23184999999998
20
-48.833593913846265
10
225.63084999999998
20
-48.833593913846258
42
0.41421356237309503
10
227.43084999999996
20
-47.033593913846261
10
227.43084999999996
20
-33.634293913846264
42
0.41421356237309431
10
225.63084999999998
20
-31.834293913846277
10
212.23184999999998
20
-31.834293913846274
42
0.41421356237309431
10
210.43184999999997
20
-33.634293913846264
0
LWPOLYLINE
5
121
100
AcDbEntity
8
0
100
AcDbPolyline
90
8
70
1
43
0.0
10
198.85584999999998
20
-52.684293913846233
42
0.41421356237308637
10
197.05584999999999
20
-50.884293913846285
10
183.65684999999999
20
-50.8842939138463
42
0.41421356237309503
10
181.85685000000001
20
-52.684293913846297
10
181.85685000000001
20
-66.083593913846215
42
0.41421356237310375
10
183.65684999999999
20
-67.883593913846283
10
197.05584999999999
20
-67.883593913846283
42
0.41421356237309503
10
198.85584999999998
20
-66.083593913846272
0
LWPOLYLINE
5
122
100
AcDbEntity
8
0
100
AcDbPolyline
90
8
70
1
43
0.0
10
308.39384999999999
20
-52.68429391384629
42
0.41421356237309503
10
306.59384999999997
20
-50.884293913846285
10
293.19385
20
-50.8842939138463
42
0.41421356237309503
10
291.39384999999999
20
-52.684293913846297
10
291.39384999999999
20
-66.083593913846272
42
0.41421356237309503
10
293.19385
20
-67.883593913846283
10
306.59384999999997
20
-67.883593913846283
42
0.41421356237309359
10
308.39384999999999
20
-66.083593913846286
0
LWPOLYLINE
5
123
100
AcDbEntity
8
0
100
AcDbPolyline
90
8
70
1
43
0.0
10
200.90685000000002
20
-66.083593913846315
42
0.41421356237308637
10
202.70685
20
-67.883593913846269
10
216.10584999999998
20
-67.883593913846283
42
0.41421356237309359
10
217.90584999999996
20
-66.083593913846286
10
217.90584999999996
20
-52.68429391384629
42
0.41421356237309503
10
216.10584999999998
20
-50.884293913846285
10
202.70685
20
-50.884293913846292
42
0.41421356237309503
10
200.90685000000002
20
-52.68429391384629
0
LWPOLYLINE
5
124
100
AcDbEntity
8
0
100
AcDbPolyline
90
8
70
1
43
0.0
10
198.85584999999998
20
-7.8843939138463313
42
0.41421356237310641
10
197.05584999999999
20
-6.0843939138462613
10
183.65684999999999
20
-6.0843939138462648
42
0.4142135623730947
10
181.85685000000001
20
-7.8843939138462593
10
181.85685000000001
20
-21.283393913846204
42
0.4142135623731073
10
183.65684999999999
20
-23.083393913846276
10
197.05584999999999
20
-23.083393913846276
42
0.41421356237309503
10
198.85584999999998
20
-21.283393913846279
0
LWPOLYLINE
5
125
100
AcDbEntity
8
0
100
AcDbPolyline
90
8
70
1
43
0.0
10
227.43084999999996
20
-7.8843939138463348
42
0.4142135623731068
10
225.63084999999998
20
-6.0843939138462622
10
212.23184999999998
20
-6.0843939138462648
42
0.41421356237309431
10
210.43184999999997
20
-7.8843939138462567
10
210.43184999999997
20
-21.283393913846204
42
0.4142135623731073
10
212.23184999999998
20
-23.083393913846276
10
225.63084999999998
20
-23.083393913846276
42
0.41421356237309503
10
227.43084999999996
20
-21.283393913846279
0
LWPOLYLINE
5
126
100
AcDbEntity
8
0
100
AcDbPolyline
90
8
70
1
43
0.0
10
94.08084999999997
20
-7.8843939138463526
42
0.41421356237310986
10
92.280849999999958
20
-6.0843939138462613
10
78.881549999999919
20
-6.0843939138462559
42
0.41421356237308637
10
77.081549999999979
20
-7.884393913846262
10
77.081549999999979
20
-21.283393913846204
42
0.41421356237311024
10
78.88154999999999
20
-23.083393913846276
10
92.280850000000086
20
-23.08339391384628
42
0.41421356237307771
10
94.080849999999984
20
-21.283393913846282
0
LWPOLYLINE
5
127
100
AcDbEntity
8
0
100
AcDbPolyline
90
8
70
1
43
0.0
10
284.58085
20
-7.8843939138463401
42
0.41421356237310769
10
282.78084999999999
20
-6.0843939138462622
10
269.38184999999999
20
-6.0843939138462666
42
0.41421356237309431
10
267.58185000000003
20
-7.8843939138462593
10
267.58185000000003
20
-21.283393913846204
42
0.4142135623731073
10
269.38184999999999
20
-23.083393913846276
10
282.78084999999999
20
-23.083393913846276
42
0.41421356237309431
10
284.58085
20
-21.283393913846282
0
LWPOLYLINE
5
128
100
AcDbEntity
8
0
100
AcDbPolyline
90
8
70
1
43
0.0
10
203.61884999999998
20
-71.734293913846287
42
0.41421356237309503
10
201.81884999999997
20
-69.93429391384629
10
188.41884999999996
20
-69.934293913846304
42
0.41421356237309503
10
186.61884999999998
20
-71.734293913846301
10
186.61884999999998
20
-85.133593913846283
42
0.41421356237309503
10
188.41884999999996
20
-86.933593913846295
10
201.81884999999997
20
-86.933593913846295
42
0.41421356237309503
10
203.61884999999998
20
-85.133593913846283
0
LWPOLYLINE
5
129
100
AcDbEntity
8
0
100
AcDbPolyline
90
8
70
1
43
0.0
10
141.70584999999994
20
-7.8843939138463526
42
0.41421356237310986
10
139.90584999999996
20
-6.0843939138462613
10
126.50684999999997
20
-6.0843939138462622
42
0.41421356237309542
10
124.70684999999997
20
-7.884393913846262
10
124.70685
20
-21.283393913846204
42
0.4142135623731073
10
126.50684999999999
20
-23.08339391384628
10
139.90584999999999
20
-23.083393913846272
42
0.41421356237309503
10
141.70584999999997
20
-21.283393913846275
0
CIRCLE
5
130
100
AcDbEntity
8
0
100
AcDbCircle
10
118.91884999999996
20
-14.584393912489034
30
2.7755575615628914e-16
40
3.1100000149011642
210
5.5189500220587145e-33
220
1.3877787807814457e-17
230
1
0
LWPOLYLINE
5
131
100
AcDbEntity
8
0
100
AcDbPolyline
90
8
70
1
43
0.0
10
191.38184999999999
20
-47.033593913846261
42
0.41421356237309503
10
193.18185
20
-48.833593913846265
10
206.58085
20
-48.833593913846258
42
0.41421356237309503
10
208.38085000000001
20
-47.033593913846261
10
208.38085000000001
20
-33.634293913846264
42
0.41421356237309431
10
206.58085
20
-31.834293913846277
10
193.18185
20
-31.834293913846274
42
0.41421356237309431
10
191.38184999999999
20
-33.634293913846264
0
LWPOLYLINE
5
132
100
AcDbEntity
8
0
100
AcDbPolyline
90
8
70
1
43
0.0
10
75.030849999999958
20
-7.8843939138463526
42
0.4142135623731113
10
73.230849999999947
20
-6.0843939138462613
10
59.831549999999979
20
-6.0843939138462542
42
0.4142135623730952
10
58.031549999999982
20
-7.884393913846262
10
58.031549999999982
20
-21.283393913846179
42
0.41421356237311452
10
59.83155
20
-23.08339391384628
10
73.230849999999975
20
-23.083393913846287
42
0.41421356237309503
10
75.030849999999973
20
-21.283393913846282
0
LWPOLYLINE
5
133
100
AcDbEntity
8
0
100
AcDbPolyline
90
8
70
1
43
0.0
10
308.39384999999999
20
-33.634293913846285
42
0.4142135623730987
10
306.59384999999997
20
-31.834293913846267
10
293.19385
20
-31.834293913846274
42
0.41421356237309431
10
291.39384999999999
20
-33.634293913846264
10
291.39384999999999
20
-47.033593913846261
42
0.41421356237309503
10
293.19385
20
-48.833593913846272
10
306.59384999999997
20
-48.833593913846258
42
0.41421356237309503
10
308.39384999999999
20
-47.033593913846261
0
LWPOLYLINE
5
134
100
AcDbEntity
8
0
100
AcDbPolyline
90
8
70
1
43
0.0
10
327.44385
20
-52.684293913846233
42
0.41421356237308637
10
325.64385000000004
20
-50.884293913846285
10
312.24385000000001
20
-50.884293913846292
42
0.41421356237309503
10
310.44385
20
-52.68429391384629
10
310.44385
20
-103.8837939138463
42
0.41421356237309503
10
312.54385000000002
20
-105.98379391384628
10
325.34384999999997
20
-105.98379391384631
42
0.41421356237309748
10
327.44385
20
-103.88379391384629
0
LWPOLYLINE
5
135
100
AcDbEntity
8
0
100
AcDbPolyline
90
8
70
1
43
0.0
10
160.75584999999995
20
-7.8843939138463313
42
0.41421356237310641
10
158.95584999999997
20
-6.0843939138462613
10
145.55685
20
-6.0843939138462648
42
0.41421356237309503
10
143.75684999999999
20
-7.884393913846262
10
143.75685000000001
20
-21.283393913846204
42
0.4142135623731073
10
145.55685
20
-23.08339391384628
10
158.95585
20
-23.083393913846251
42
0.41421356237309503
10
160.75584999999995
20
-21.283393913846275
0
LWPOLYLINE
5
136
100
AcDbEntity
8
0
100
AcDbPolyline
90
8
70
1
43
0.0
10
127.41884999999999
20
-71.734293913846287
42
0.41421356237309503
10
125.61885000000001
20
-69.934293913846275
10
112.21884999999999
20
-69.934293913846304
42
0.41421356237309503
10
110.41884999999999
20
-71.734293913846301
10
110.41885000000001
20
-85.133593913846283
42
0.41421356237309503
10
112.21885
20
-86.933593913846295
10
125.61885000000001
20
-86.933593913846295
42
0.41421356237309503
10
127.41884999999999
20
-85.133593913846283
0
LWPOLYLINE
5
137
100
AcDbEntity
8
0
100
AcDbPolyline
90
8
70
1
43
0.0
10
113.13084999999998
20
-33.634293913846236
42
0.41421356237308998
10
111.33084999999997
20
-31.834293913846274
10
97.930149999999983
20
-31.834293913846267
42
0.41421356237309576
10
96.130149999999986
20
-33.634293913846271
10
96.130150000000015
20
-47.033593913846268
42
0.41421356237309503
10
97.930149999999998
20
-48.833593913846265
10
111.33085
20
-48.833593913846265
42
0.41421356237309648
10
113.13085
20
-47.033593913846261
0
LWPOLYLINE
5
138
100
AcDbEntity
8
0
100
AcDbPolyline
90
8
70
1
43
0.0
10
103.60584999999998
20
-52.684293913846332
42
0.41421356237310375
10
101.80584999999996
20
-50.884293913846278
10
88.406549999999982
20
-50.884293913846292
42
0.41421356237309359
10
86.606549999999984
20
-52.684293913846282
10
86.606549999999984
20
-66.083593913846272
42
0.41421356237309503
10
88.406549999999982
20
-67.883593913846283
10
101.80584999999999
20
-67.883593913846283
42
0.41421356237309359
10
103.60584999999999
20
-66.083593913846286
0
LWPOLYLINE
5
139
100
AcDbEntity
8
0
100
AcDbPolyline
90
8
70
1
43
0.0
10
346.49384999999995
20
-52.68429391384629
42
0.41421356237309503
10
344.69384999999994
20
-50.884293913846285
10
331.29385000000002
20
-50.884293913846292
42
0.41421356237309503
10
329.49385000000001
20
-52.68429391384629
10
329.49385000000001
20
-66.083593913846272
42
0.41421356237309503
10
331.29385000000002
20
-67.883593913846283
10
344.69384999999994
20
-67.883593913846283
42
0.41421356237309359
10
346.49384999999995
20
-66.0835939138463
0
LWPOLYLINE
5
140
100
AcDbEntity
8
0
100
AcDbPolyline
90
8
70
1
43
0.0
10
113.13084999999998
20
-7.884393913846357
42
0.41421356237311363
10
111.33084999999996
20
-6.0843939138462595
10
97.930149999999983
20
-6.0843939138462648
42
0.41421356237309503
10
96.130149999999986
20
-7.884393913846262
10
96.130150000000015
20
-21.283393913846204
42
0.4142135623731073
10
97.930149999999998
20
-23.083393913846276
10
111.33085
20
-23.08339391384628
42
0.41421356237309503
10
113.13085
20
-21.283393913846282
0
LWPOLYLINE
5
141
100
AcDbEntity
8
0
100
AcDbPolyline
90
8
70
1
43
0.0
10
54.180849999999978
20
-23.083393913846287
42
0.41421356237309503
10
55.980849999999982
20
-21.283393913846282
10
55.980849999999961
20
-7.8843939138463517
42
0.41421356237310986
10
54.180849999999964
20
-6.0843939138462595
10
40.781549999999989
20
-6.0843939138462586
42
0.4142135623730952
10
38.981549999999984
20
-7.884393913846262
10
38.981549999999991
20
-21.283393913846179
42
0.41421356237311452
10
40.78155000000001
20
-23.08339391384628
0
LWPOLYLINE
5
142
100
AcDbEntity
8
0
100
AcDbPolyline
90
8
70
1
43
0.0
10
265.53084999999999
20
-7.8843939138463339
42
0.41421356237310641
10
263.73084999999998
20
-6.084393913846263
10
250.33185
20
-6.0843939138462666
42
0.4142135623730947
10
248.53184999999999
20
-7.884393913846262
10
248.53184999999999
20
-21.283393913846204
42
0.4142135623731073
10
250.33185
20
-23.083393913846276
10
263.73084999999998
20
-23.083393913846276
42
0.41421356237309503
10
265.53084999999999
20
-21.283393913846279
0
CIRCLE
5
143
100
AcDbEntity
8
0
100
AcDbCircle
10
337.99385000000001
20
-97.483993912489112
30
-1.1102230246251565e-15
40
3.1100000149011464
210
5.5189500220587159e-33
220
1.3877787807814457e-17
230
1
0
LWPOLYLINE
5
144
100
AcDbEntity
8
0
100
AcDbPolyline
90
8
70
1
43
0.0
10
132.18084999999996
20
-33.634293913846264
42
0.41421356237309431
10
130.38084999999995
20
-31.834293913846267
10
116.97984999999997
20
-31.834293913846274
42
0.41421356237309503
10
115.17984999999997
20
-33.634293913846271
10
115.17984999999999
20
-47.033593913846268
42
0.41421356237309503
10
116.97985
20
-48.833593913846265
10
130.38084999999998
20
-48.833593913846265
42
0.41421356237309648
10
132.18084999999996
20
-47.033593913846261
0
LWPOLYLINE
5
145
100
AcDbEntity
8
0
100
AcDbPolyline
90
8
70
1
43
0.0
10
108.36884999999998
20
-71.734293913846187
42
0.41421356237307771
10
106.56885
20
-69.93429391384629
10
93.169049999999984
20
-69.93429391384629
42
0.41421356237309648
10
91.369049999999987
20
-71.734293913846301
10
91.369049999999987
20
-85.133593913846283
42
0.41421356237309503
10
93.169049999999984
20
-86.933593913846295
10
106.56885000000001
20
-86.933593913846295
42
0.41421356237309503
10
108.36885000000001
20
-85.133593913846283
0
LWPOLYLINE
5
146
100
AcDbEntity
8
0
100
AcDbPolyline
90
8
70
1
43
0.0
10
75.030849999999958
20
-33.634293913846236
42
0.41421356237308998
10
73.230849999999947
20
-31.834293913846274
10
59.831549999999979
20
-31.834293913846263
42
0.41421356237309576
10
58.031549999999982
20
-33.634293913846271
10
58.031549999999974
20
-47.033593913846268
42
0.41421356237309798
10
59.83155
20
-48.833593913846265
10
73.230849999999975
20
-48.833593913846272
42
0.41421356237309648
10
75.030849999999973
20
-47.033593913846261
0
LWPOLYLINE
5
147
100
AcDbEntity
8
0
100
AcDbPolyline
90
8
70
1
43
0.0
10
122.65584999999999
20
-52.684293913846282
42
0.41421356237309503
10
120.85584999999998
20
-50.884293913846278
10
107.45684999999996
20
-50.884293913846292
42
0.41421356237309503
10
105.65684999999996
20
-52.68429391384629
10
105.65684999999999
20
-66.083593913846215
42
0.41421356237310375
10
107.45684999999997
20
-67.883593913846283
10
120.85584999999998
20
-67.883593913846283
42
0.41421356237309359
10
122.65584999999999
20
-66.083593913846286
0
LWPOLYLINE
5
148
100
AcDbEntity
8
0
100
AcDbPolyline
90
8
70
1
43
0.0
10
84.555849999999964
20
-52.684293913846282
42
0.41421356237309503
10
82.755849999999953
20
-50.884293913846278
10
69.356549999999984
20
-50.884293913846285
42
0.41421356237309359
10
67.556549999999987
20
-52.684293913846282
10
67.556549999999987
20
-66.083593913846215
42
0.41421356237310658
10
69.356549999999999
20
-67.883593913846283
10
82.755849999999981
20
-67.883593913846283
42
0.41421356237309359
10
84.555849999999978
20
-66.083593913846286
0
LWPOLYLINE
5
149
100
AcDbEntity
8
0
100
AcDbPolyline
90
8
70
1
43
0.0
10
165.51884999999999
20
-71.734293913846287
42
0.41421356237309503
10
163.71884999999997
20
-69.934293913846261
10
150.31884999999997
20
-69.934293913846304
42
0.41421356237309503
10
148.51884999999999
20
-71.734293913846301
10
148.51884999999999
20
-85.133593913846283
42
0.41421356237309503
10
150.31885
20
-86.933593913846295
10
163.71884999999997
20
-86.933593913846295
42
0.41421356237309503
10
165.51884999999999
20
-85.133593913846283
0
LWPOLYLINE
5
150
100
AcDbEntity
8
0
100
AcDbPolyline
90
8
70
1
43
0.0
10
55.980849999999961
20
-33.634293913846236
42
0.41421356237308998
10
54.180849999999964
20
-31.834293913846274
10
40.781549999999989
20
-31.834293913846267
42
0.41421356237309576
10
38.981549999999984
20
-33.634293913846271
10
38.981549999999984
20
-47.033593913846268
42
0.41421356237309798
10
40.78155000000001
20
-48.833593913846265
10
54.180849999999978
20
-48.833593913846272
42
0.41421356237309648
10
55.980849999999975
20
-47.033593913846261
0
LWPOLYLINE
5
151
100
AcDbEntity
8
0
100
AcDbPolyline
90
8
70
1
43
0.0
10
89.318349999999953
20
-71.734293913846244
42
0.41421356237308637
10
87.51834999999997
20
-69.93429391384629
10
74.119049999999916
20
-69.93429391384629
42
0.41421356237308637
10
72.319049999999976
20
-71.734293913846301
10
72.319049999999976
20
-85.133593913846283
42
0.41421356237309503
10
74.119049999999973
20
-86.933593913846295
10
87.518349999999984
20
-86.933593913846295
42
0.41421356237309503
10
89.318349999999981
20
-85.133593913846283
0
LWPOLYLINE
5
152
100
AcDbEntity
8
0
100
AcDbPolyline
90
8
70
1
43
0.0
10
308.39384999999999
20
-7.8843939138463215
42
0.41421356237310447
10
306.59384999999997
20
-6.084393913846263
10
293.19385
20
-6.0843939138462648
42
0.41421356237309431
10
291.39384999999999
20
-7.8843939138462567
10
291.39384999999999
20
-21.283393913846204
42
0.4142135623731073
10
293.19385
20
-23.083393913846276
10
306.59384999999997
20
-23.083393913846272
42
0.41421356237309359
10
308.39384999999999
20
-21.283393913846282
0
LWPOLYLINE
5
153
100
AcDbEntity
8
0
100
AcDbPolyline
90
8
70
1
43
0.0
10
141.70584999999994
20
-52.684293913846332
42
0.41421356237310375
10
139.90584999999996
20
-50.884293913846278
10
126.50684999999997
20
-50.884293913846292
42
0.41421356237309503
10
124.70684999999997
20
-52.68429391384629
10
124.70685
20
-66.083593913846272
42
0.41421356237309503
10
126.50684999999999
20
-67.883593913846283
10
139.90584999999999
20
-67.883593913846283
42
0.41421356237309359
10
141.70584999999997
20
-66.083593913846286
0
LWPOLYLINE
5
154
100
AcDbEntity
8
0
100
AcDbPolyline
90
8
70
1
43
0.0
10
94.08084999999997
20
-33.634293913846236
42
0.41421356237308998
10
92.280849999999958
20
-31.834293913846274
10
78.881549999999919
20
-31.83429391384626
42
0.4142135623730871
10
77.081549999999979
20
-33.634293913846271
10
77.081549999999964
20
-47.033593913846268
42
0.41421356237309798
10
78.88154999999999
20
-48.833593913846265
10
92.280850000000086
20
-48.833593913846265
42
0.41421356237307916
10
94.080849999999984
20
-47.033593913846261
0
LWPOLYLINE
5
155
100
AcDbEntity
8
0
100
AcDbPolyline
90
8
70
1
43
0.0
10
151.23084999999998
20
-33.634293913846264
42
0.41421356237309431
10
149.43084999999996
20
-31.834293913846267
10
136.03184999999999
20
-31.834293913846274
42
0.41421356237309503
10
134.23184999999998
20
-33.634293913846271
10
134.23185000000001
20
-47.033593913846268
42
0.41421356237309503
10
136.03184999999999
20
-48.833593913846265
10
149.43084999999999
20
-48.833593913846265
42
0.41421356237309648
10
151.23084999999998
20
-47.033593913846261
0
LWPOLYLINE
5
156
100
AcDbEntity
8
0
100
AcDbPolyline
90
8
70
1
43
0.0
10
65.505849999999967
20
-52.684293913846332
42
0.41421356237310375
10
63.70584999999997
20
-50.884293913846278
10
50.306549999999994
20
-50.884293913846285
42
0.41421356237309359
10
48.506549999999976
20
-52.684293913846282
10
48.50654999999999
20
-66.083593913846272
42
0.41421356237309798
10
50.306550000000016
20
-67.883593913846283
10
63.705849999999984
20
-67.883593913846283
42
0.41421356237309359
10
65.505849999999981
20
-66.083593913846286
0
LWPOLYLINE
5
157
100
AcDbEntity
8
0
100
AcDbPolyline
90
8
70
1
43
0.0
10
184.56885
20
-71.73429391384623
42
0.41421356237308637
10
182.76884999999999
20
-69.934293913846275
10
169.36885000000001
20
-69.934293913846304
42
0.41421356237309503
10
167.56885
20
-71.734293913846301
10
167.56885
20
-85.133593913846283
42
0.41421356237309503
10
169.36885000000001
20
-86.933593913846295
10
182.76884999999999
20
-86.933593913846295
42
0.41421356237309503
10
184.56885
20
-85.133593913846283
0
LWPOLYLINE
5
158
100
AcDbEntity
8
0
100
AcDbPolyline
90
8
70
1
43
0.0
10
146.46884999999997
20
-71.73429391384623
42
0.41421356237308637
10
144.66884999999996
20
-69.934293913846275
10
131.26884999999996
20
-69.934293913846304
42
0.41421356237309503
10
129.46884999999997
20
-71.734293913846301
10
129.46884999999997
20
-85.133593913846283
42
0.41421356237309503
10
131.26884999999999
20
-86.933593913846295
10
144.66884999999996
20
-86.933593913846295
42
0.41421356237309503
10
146.46884999999997
20
-85.133593913846283
0
LWPOLYLINE
5
159
100
AcDbEntity
8
0
100
AcDbPolyline
90
8
70
1
43
0.0
10
70.26834999999997
20
-71.734293913846187
42
0.41421356237307771
10
68.468349999999973
20
-69.93429391384629
10
55.069049999999976
20
-69.93429391384629
42
0.41421356237309648
10
53.269049999999979
20
-71.734293913846315
10
53.269049999999979
20
-85.133593913846397
42
0.41421356237307771
10
55.069049999999976
20
-86.933593913846295
10
68.468349999999987
20
-86.933593913846295
42
0.41421356237309503
10
70.268349999999984
20
-85.133593913846283
0
LWPOLYLINE
5
160
100
AcDbEntity
8
0
100
AcDbPolyline
90
8
70
1
43
0.0
10
160.75584999999995
20
-52.684293913846282
42
0.41421356237309503
10
158.95584999999997
20
-50.884293913846278
10
145.55685
20
-50.884293913846292
42
0.41421356237309503
10
143.75684999999999
20
-52.68429391384629
10
143.75685000000001
20
-66.083593913846215
42
0.41421356237310375
10
145.55685
20
-67.883593913846283
10
158.95585
20
-67.883593913846283
42
0.41421356237309359
10
160.75585000000001
20
-66.083593913846286
0
LWPOLYLINE
5
161
100
AcDbEntity
8
0
100
AcDbPolyline
90
8
70
1
43
0.0
10
179.80584999999996
20
-52.684293913846332
42
0.41421356237310375
10
178.00584999999998
20
-50.884293913846278
10
164.60684999999998
20
-50.884293913846292
42
0.41421356237309503
10
162.80685
20
-52.68429391384629
10
162.80685
20
-66.083593913846272
42
0.41421356237309503
10
164.60684999999998
20
-67.883593913846283
10
178.00584999999998
20
-67.883593913846283
42
0.41421356237309359
10
179.80584999999996
20
-66.083593913846286
0
CIRCLE
5
162
100
AcDbEntity
8
0
100
AcDbCircle
10
204.64384999999999
20
-14.584393912489034
30
0
40
3.1100000149011464
210
5.5189500220587159e-33
220
1.3877787807814457e-17
230
1
0
LWPOLYLINE
5
163
100
AcDbEntity
8
0
100
AcDbPolyline
90
8
70
1
43
0.0
10
46.455849999999977
20
-52.684293913846282
42
0.41421356237309503
10
44.655849999999973
20
-50.884293913846278
10
31.256549999999976
20
-50.884293913846292
42
0.41421356237309287
10
29.456549999999982
20
-52.684293913846282
10
29.456549999999972
20
-66.083593913846215
42
0.41421356237310375
10
31.256549999999979
20
-67.883593913846283
10
44.655849999999973
20
-67.883593913846283
42
0.41421356237309359
10
46.455849999999984
20
-66.083593913846286
0
CIRCLE
5
164
100
AcDbEntity
8
0
100
AcDbCircle
10
296.99384999999995
20
-74.42389296997591
30
1.1102230246251565e-15
40
3.1100000149011464
210
5.5189500220587159e-33
220
1.3877787807814457e-17
230
1
0
LWPOLYLINE
5
165
100
AcDbEntity
8
0
100
AcDbPolyline
90
8
70
1
43
0.0
10
22.643549999999987
20
-52.684293913846282
42
0.41421356237309503
10
20.843549999999983
20
-50.884293913846278
10
7.4440100000000022
20
-50.884293913846292
42
0.41421356237309759
10
5.6440099999999767
20
-52.684293913846282
10
5.6440099999999731
20
-66.083593913846215
42
0.41421356237310336
10
7.4440099999999765
20
-67.883593913846283
10
20.843549999999986
20
-67.883593913846283
42
0.41421356237309576
10
22.64354999999998
20
-66.083593913846272
0
LWPOLYLINE
5
166
100
AcDbEntity
8
0
100
AcDbPolyline
90
8
70
1
43
0.0
10
310.44385
20
-122.43375391384619
10
310.44385
20
-110.13429391384631
42
-0.41421356237309503
10
312.54385000000002
20
-108.03429391384633
10
325.34384999999997
20
-108.03429391384628
42
-0.41421356237310497
10
327.44385
20
-110.13429391384636
10
327.44385
20
-122.43375391384619
42
-0.41421356237309798
10
325.64385000000004
20
-124.23375391384621
10
312.24385000000001
20
-124.23375391384619
42
-0.41421356237309503
0
LWPOLYLINE
5
167
100
AcDbEntity
8
0
100
AcDbPolyline
90
8
70
1
43
0.0
10
291.39384999999999
20
-122.4337539138462
10
291.39384999999999
20
-110.13429391384631
42
-0.41421356237309503
10
293.49384999999995
20
-108.03429391384633
10
306.29384999999996
20
-108.03429391384628
42
-0.41421356237310497
10
308.39384999999999
20
-110.13429391384636
10
308.39384999999999
20
-122.4337539138462
42
-0.41421356237309503
10
306.59384999999997
20
-124.23375391384621
10
293.19385
20
-124.23375391384621
42
-0.41421356237309503
0
LWPOLYLINE
5
168
100
AcDbEntity
8
0
100
AcDbPolyline
90
8
70
1
43
0.0
10
215.32385000000002
20
-122.43375391384632
10
215.32385000000002
20
-110.13429391384631
42
-0.41421356237309503
10
217.42384999999999
20
-108.03429391384633
10
232.47484999999995
20
-108.03429391384627
42
-0.41421356237309503
10
234.57484999999994
20
-110.13429391384628
10
234.57484999999994
20
-122.43375391384632
42
-0.41421356237309503
10
232.77484999999996
20
-124.23375391384631
10
217.12385
20
-124.23375391384631
42
-0.41421356237309503
0
LWPOLYLINE
5
169
100
AcDbEntity
8
0
100
AcDbPolyline
90
32
70
1
43
0.0
10
279.87313251096975
20
-124.23375391384631
10
241.65684999999999
20
-124.23375391384639
42
-0.41421356237309503
10
239.85685000000001
20
-122.43375391384639
10
239.85685000000001
20
-87.933593913846295
42
0.41421356237309503
10
238.05685
20
-86.133593913846312
10
227.36885000000001
20
-86.133593913846283
42
-0.41421356237309503
10
225.56885
20
-84.333593913846286
10
225.56885
20
-72.284293913846284
42
-0.41421356237309359
10
227.36885000000001
20
-70.484293913846287
10
238.00685000000001
20
-70.484293913846287
42
0.41421356237308343
10
239.80685
20
-68.68429391384629
10
239.80685
20
-53.484293913846301
42
-0.41421356237309648
10
241.60685000000001
20
-51.68429391384629
10
245.93084999999999
20
-51.684293913846304
42
0.41421356237309503
10
247.73084999999998
20
-49.884293913846292
10
247.73084999999998
20
-32.634293913846271
42
-0.41421356237309576
10
249.53084999999999
20
-30.834293913846267
10
283.58127190445879
20
-30.834293913846317
42
-0.41421356237309648
10
285.3812719044588
20
-32.634293913846321
10
285.38127190445891
20
-66.193041079055831
42
-0.41421356237309503
10
283.5812719044589
20
-67.993041079055828
10
282.83397588061695
20
-67.993041079055828
42
0.41421356237308343
10
281.03397588061694
20
-69.79304107905584
10
281.03397588061699
20
-85.008635345215652
42
0.41421356237309215
10
282.833975880617
20
-86.808635345215635
10
283.5812719044589
20
-86.808635345215663
42
-0.41421356237309215
10
285.38127190445897
20
-88.608635345215646
10
285.38127190445897
20
-104.13994884016576
42
-0.41421356237309215
10
283.58127190445896
20
-105.93994884016574
10
283.47313251096972
20
-105.93994884016578
42
0.41421356237309215
10
281.67313251096977
20
-107.73994884016575
10
281.67313251096965
20
-122.4337539138464
42
-0.41421356237309503
0
LWPOLYLINE
5
170
100
AcDbEntity
8
0
100
AcDbPolyline
90
12
70
1
43
0.0
10
5.8627599999999971
20
-88.433593913846295
10
35.762249999999959
20
-88.433593913846266
42
-0.41421356237309503
10
37.562249999999963
20
-90.233593913846278
10
37.562249999999963
20
-106.23429391384627
42
0.41421356237309648
10
39.36224999999996
20
-108.03429391384627
10
43.224649999999947
20
-108.03429391384627
42
-0.41421356237309503
10
45.324649999999956
20
-110.13429391384628
10
45.324649999999984
20
-122.43375391384659
42
-0.41421356237309503
10
43.524649999999987
20
-124.23375391384658
10
5.862759999999998
20
-124.23375391384658
42
-0.41421356237309503
10
4.062759999999999
20
-122.43375391384659
10
4.0627600000000008
20
-90.233593913846292
42
-0.41421356237309481
0
LWPOLYLINE
5
171
100
AcDbEntity
8
0
100
AcDbPolyline
90
23
70
1
43
0.0
10
155.08185
20
-31.834293913846277
10
168.18084999999999
20
-31.834293913846274
42
0.41421356237309287
10
169.98085
20
-30.03429391384627
10
169.98085
20
-24.883393913846291
42
0.41421356237310658
10
168.18084999999999
20
-23.083393913846294
10
164.60684999999998
20
-23.08339391384628
42
-0.41421356237309576
10
162.80685
20
-21.283393913846279
10
162.80685
20
-7.8843939138462593
42
-0.4142135623730947
10
164.60684999999998
20
-6.0843939138462648
10
178.00584999999998
20
-6.0843939138462648
42
-0.41421356237310641
10
179.80584999999996
20
-7.8843939138463313
10
179.80584999999996
20
-21.283393913846275
42
-0.26794919243112181
10
178.90584999999999
20
-22.842239640658256
42
0.26794919243112414
10
178.00585000000001
20
-24.401085367470259
10
178.00584999999995
20
-30.034293913846266
42
0.4142135623731073
10
179.80584999999994
20
-31.834293913846267
10
187.53084999999999
20
-31.834293913846274
42
-0.41421356237309431
10
189.33085
20
-33.634293913846264
10
189.33085
20
-47.033593913846246
42
-0.41421356237309648
10
187.53084999999999
20
-48.833593913846258
10
155.08185
20
-48.833593913846265
42
-0.41421356237309503
10
153.28185000000002
20
-47.033593913846268
10
153.28184999999999
20
-33.634293913846278
42
-0.41421356237309648
0
LWPOLYLINE
5
172
100
AcDbEntity
8
0
100
AcDbPolyline
90
24
70
1
43
0.0
10
310.44385
20
-21.283393913846268
10
310.44385
20
-7.884393913846262
42
-0.41421356237309481
10
312.24385000000001
20
-6.0843939138462657
10
344.69384999999994
20
-6.0843939138462666
42
-0.41421356237310986
10
346.49384999999995
20
-7.8843939138463544
10
346.49384999999995
20
-21.283393913846282
42
-0.41421356237309431
10
344.69384999999994
20
-23.083393913846276
10
344.12084999999996
20
-23.083393913846294
42
0.41421356237309798
10
342.32084999999995
20
-24.883393913846298
10
342.32084999999995
20
-30.034293913846277
42
0.41421356237309798
10
344.12084999999996
20
-31.834293913846288
10
344.69384999999994
20
-31.834293913846274
42
-0.41421356237309431
10
346.49384999999995
20
-33.634293913846264
10
346.49384999999995
20
-47.033593913846261
42
-0.41421356237309503
10
344.69384999999994
20
-48.833593913846258
10
312.24385000000001
20
-48.833593913846244
42
-0.41421356237309503
10
310.44385
20
-47.033593913846246
10
310.44385
20
-33.63429391384625
42
-0.41421356237309431
10
312.24384999999995
20
-31.83429391384626
10
321.36250000000013
20
-31.834293913846267
42
0.41421356237309798
10
323.16250000000014
20
-30.034293913846263
10
323.16250000000014
20
-24.883393913846277
42
0.41421356237309648
10
321.36250000000013
20
-23.083393913846272
10
312.24385000000001
20
-23.083393913846276
42
-0.41421356237309648
0
ENDSEC
0
SECTION
2
OBJECTS
0
DICTIONARY
5
C
100
AcDbDictionary
3
ACAD_GROUP
350
D
3
ACAD_MLINESTYLE
350
17
0
DICTIONARY
5
D
100
AcDbDictionary
0
DICTIONARY
5
1A
330
C
100
AcDbDictionary
0
DICTIONARY
5
17
100
AcDbDictionary
0
ENDSEC
0
EOF
