0
SECTION
2
HEADER
9
$INSUNITS
70
4
9
$ACADVER
1
AC1014
9
$HANDSEED
5
FFFF
0
ENDSEC
0
SECTION
2
TABLES
0
TABLE
2
VPORT
5
8
100
AcDbSymbolTable
0
ENDTAB
0
TABLE
2
LTYPE
5
5
100
AcDbSymbolTable
0
LTYPE
5
14
100
AcDbSymbolTableRecord
100
AcDbLinetypeTableRecord
2
BYBLOCK
70
0
0
LTYPE
5
15
100
AcDbSymbolTableRecord
100
AcDbLinetypeTableRecord
2
BYLAYER
70
0
0
LTYPE
5
16
100
AcDbSymbolTableRecord
100
AcDbLinetypeTableRecord
2
DASHED
70
0
3
Dashed __ __ __ __ __ __ __ __ __ __ __ __ __ _
72
65
73
2
40
0.75
49
0.5
74
0
49
-0.25
74
0
0
ENDTAB
0
TABLE
2
LAYER
5
2
100
AcDbSymbolTable
70
2
0
LAYER
5
50
100
AcDbSymbolTableRecord
100
AcDbLayerTableRecord
2
0
70
0
62
7
6
CONTINUOUS
0
ENDTAB
0
TABLE
2
STYLE
5
3
100
AcDbSymbolTable
70
1
0
STYLE
5
11
100
AcDbSymbolTableRecord
100
AcDbTextStyleTableRecord
2
STANDARD
70
0
0
ENDTAB
0
TABLE
2
VIEW
5
6
100
AcDbSymbolTable
70
0
0
ENDTAB
0
TABLE
2
UCS
5
7
100
AcDbSymbolTable
70
0
0
ENDTAB
0
TABLE
2
APPID
5
9
100
AcDbSymbolTable
70
2
0
APPID
5
12
100
AcDbSymbolTableRecord
100
AcDbRegAppTableRecord
2
ACAD
70
0
0
ENDTAB
0
TABLE
2
DIMSTYLE
5
A
100
AcDbSymbolTable
70
1
0
ENDTAB
0
TABLE
2
BLOCK_RECORD
5
1
100
AcDbSymbolTable
70
1
0
BLOCK_RECORD
5
1F
100
AcDbSymbolTableRecord
100
AcDbBlockTableRecord
2
*MODEL_SPACE
0
BLOCK_RECORD
5
1B
100
AcDbSymbolTableRecord
100
AcDbBlockTableRecord
2
*PAPER_SPACE
0
ENDTAB
0
ENDSEC
0
SECTION
2
BLOCKS
0
BLOCK
5
20
100
AcDbEntity
100
AcDbBlockBegin
2
*MODEL_SPACE
0
ENDBLK
5
21
100
AcDbEntity
100
AcDbBlockEnd
0
BLOCK
5
1C
100
AcDbEntity
100
AcDbBlockBegin
2
*PAPER_SPACE
0
ENDBLK
5
1D
100
AcDbEntity
100
AcDbBlockEnd
0
ENDSEC
0
SECTION
2
ENTITIES
0
LWPOLYLINE
5
100
100
AcDbEntity
8
0
100
AcDbPolyline
90
55
70
1
43
0.0
10
-9.4600292862575905
20
-125.60797564118585
42
0.39518434466905572
10
-15.447200706741079
20
-131.21583114100875
42
-0.93664519356982445
10
-24.427957963278608
20
-131.21583127178985
42
0.39518434056642554
10
-30.415129461926256
20
-125.6079759463418
10
-74.914410615415932
20
-125.60797594634053
42
0.37988838038886036
10
-75.907387196686045
20
-126.48965519815354
42
-0.3798883761174407
10
-76.90036148871323
20
-127.37133357576765
10
-86.51762249301855
20
-127.37133486456261
42
0.34681267737466387
10
-92.352056445649112
20
-131.9715565224559
42
-0.85984271450970262
10
-101.21826060129699
20
-131.21583127178894
42
0.39518434056648161
10
-107.20543209994473
20
-125.60797594634208
10
-174.70586284450181
20
-125.60797594634019
42
0.37988859502206357
10
-175.69884092280901
20
-126.48965577533815
42
-0.37988859075058962
10
-176.69181389534077
20
-127.37133364751628
10
-200.1846229001936
20
-127.37133656171426
42
0.34681263082141356
10
-206.01905662015267
20
-131.97155724980678
42
-0.85984264223191498
10
-214.88526060129703
20
-131.21583127178775
42
0.39518434056658414
10
-220.87243209994489
20
-125.60797545595074
10
-236.74264922580548
20
-125.60797594633607
42
-0.4142135623730534
10
-237.74264922580551
20
-124.60797594633605
10
-237.74264922580525
20
-107.01832591889365
42
0.41421356237310025
10
-238.74264922580525
20
-106.01832591889377
10
-248.65764922580507
20
-106.01832591889364
42
0.4142135623730846
10
-249.65764922580507
20
-107.01832591889359
10
-249.65765338516911
20
-124.60797594633569
42
-0.41421356237312101
10
-250.65764922580536
20
-125.60797178697186
10
-276.16077284759069
20
-125.60797594633496
42
0.39518434056666146
10
-282.14794434623889
20
-131.21583127178758
42
-0.93664517990156326
10
-291.12870159421112
20
-131.21583127178732
42
0.39518434056667351
10
-297.11587309285932
20
-125.60797137540868
10
-304.68786788899945
20
-125.60797594633425
42
-0.41421356237303258
10
-305.68786788899934
20
-124.60797594633419
10
-305.68786788899939
20
-31.625219011293993
42
-0.41421356237309764
10
-304.68786788899939
20
-30.625219011293986
10
-297.09449349031581
20
-30.625219011294035
42
0.41004215555642232
10
-291.09510378364627
20
-24.71079440207717
42
-0.98583770989935671
10
-282.09601922364192
20
-24.710794402077191
42
0.41004215555642076
10
-276.09662951697237
20
-30.625219011294011
10
-220.8942313761099
20
-30.625219011294114
42
0.41004215555642104
10
-214.89484166944035
20
-24.71079440207728
42
-0.98583770989935304
10
-205.89575710943609
20
-24.71079440207728
42
0.41004215555642104
10
-199.89636740276654
20
-30.625219011294107
10
-106.59349349031589
20
-30.62521901129422
42
0.41004215555644236
10
-100.59410378364635
20
-24.710794402076921
42
-0.98583770989942399
10
-91.595019223642026
20
-24.710794402076949
42
0.41004215555644263
10
-85.59562951697248
20
-30.625219011294224
10
-30.364493478957506
20
-30.625219011294288
42
0.41004213340716722
10
-24.365103778778447
20
-24.710794857100392
42
-0.98583763512101596
10
-15.366019228509868
20
-24.710794857100392
42
0.41004213340716739
10
-9.3666295283308187
20
-30.625219011294309
10
-4.865499858457162
20
-30.625219011294309
10
-1.8878614573760548
20
-30.62521901129432
42
-0.41421355009793781
10
-0.88786149928608549
20
-31.625219011294341
10
-0.88786149928605695
20
-124.60797552812652
42
-0.41421355799992388
10
-1.8878614843551489
20
-125.60797552812647
0
CIRCLE
5
101
100
AcDbEntity
8
0
100
AcDbCircle
10
-210.39529938943818
20
-24.774975945164645
30
-1.4432899320127035e-14
40
2.5000000000000355
210
-1.0856253443880686e-30
220
-5.8286708792820718e-16
230
1
0
LWPOLYLINE
5
102
100
AcDbEntity
8
0
100
AcDbPolyline
90
8
70
1
43
0.0
10
-226.41286150364408
20
-32.972975946341315
10
-213.5128615036441
20
-32.9729759463413
42
-0.41421356237313289
10
-212.96286150364409
20
-33.522975946341298
10
-212.96286150364412
20
-46.422975946341296
42
-0.41421356237314239
10
-213.51286150364413
20
-46.9729759463413
10
-226.41286150364411
20
-46.9729759463413
42
-0.41421356237313289
10
-226.96286150364412
20
-46.422975946341303
10
-226.96286150364409
20
-33.522975946341312
42
-0.41421356237313522
0
LWPOLYLINE
5
103
100
AcDbEntity
8
0
100
AcDbPolyline
90
8
70
1
43
0.0
10
-207.36286150364407
20
-32.9729759463413
10
-194.46286150364409
20
-32.972975946341293
42
-0.41421356237313289
10
-193.91286150364408
20
-33.52297594634129
10
-193.91286150364411
20
-46.422975946341296
42
-0.41421356237313289
10
-194.46286150364412
20
-46.972975946341286
10
-207.3628615036441
20
-46.9729759463413
42
-0.41421356237313289
10
-207.91286150364411
20
-46.422975946341303
10
-207.91286150364408
20
-33.522975946341298
42
-0.41421356237313522
0
CIRCLE
5
104
100
AcDbEntity
8
0
100
AcDbCircle
10
-96.094561503644215
20
-24.774975945163973
30
-1.4432899320127035e-14
40
2.5000000000000533
210
-2.967644391670624e-31
220
-5.8286708792820718e-16
230
1
0
LWPOLYLINE
5
105
100
AcDbEntity
8
0
100
AcDbPolyline
90
8
70
1
43
0.0
10
-112.11286150364404
20
-32.972975946341251
10
-99.212861503644064
20
-32.972975946341229
42
-0.41421356237308082
10
-98.662861503644052
20
-33.522975946341241
10
-98.662861503644137
20
-46.422975946341232
42
-0.41421356237307611
10
-99.212861503644106
20
-46.972975946341236
10
-112.11286150364408
20
-46.972975946341279
42
-0.41421356237308082
10
-112.66286150364409
20
-46.422975946341268
10
-112.66286150364405
20
-33.522975946341248
42
-0.41421356237309503
0
LWPOLYLINE
5
106
100
AcDbEntity
8
0
100
AcDbPolyline
90
8
70
1
43
0.0
10
-93.062861503644029
20
-32.972975946341244
10
-80.162861503644066
20
-32.972975946341229
42
-0.41421356237310686
10
-79.612861503644055
20
-33.522975946341226
10
-79.612861503644098
20
-46.422975946341239
42
-0.41421356237306667
10
-80.162861503644081
20
-46.972975946341236
10
-93.062861503644072
20
-46.972975946341265
42
-0.41421356237309975
10
-93.612861503644083
20
-46.422975946341239
10
-93.612861503644041
20
-33.522975946341241
42
-0.41421356237309503
0
CIRCLE
5
107
100
AcDbEntity
8
0
100
AcDbCircle
10
-19.865561503644166
20
-24.77497674145496
30
-1.4710455076283324e-14
40
2.5000000000000488
210
-2.967644391670596e-31
220
-5.8286708792820718e-16
230
1
0
LWPOLYLINE
5
108
100
AcDbEntity
8
0
100
AcDbPolyline
90
8
70
1
43
0.0
10
-35.912861503644081
20
-32.972975946341222
10
-23.012861503644078
20
-32.972975946341215
42
-0.4142135623730927
10
-22.462861503644078
20
-33.522975946341212
10
-22.462861503644092
20
-46.422975946341211
42
-0.41421356237310453
10
-23.012861503644089
20
-46.972975946341208
10
-35.912861503644081
20
-46.972975946341222
42
-0.41421356237310919
10
-36.462861503644085
20
-46.422975946341211
10
-36.462861503644071
20
-33.522975946341212
42
-0.41421356237309975
0
LWPOLYLINE
5
109
100
AcDbEntity
8
0
100
AcDbPolyline
90
8
70
1
43
0.0
10
-16.862861503644076
20
-32.972975946341201
10
-3.9628615036440729
20
-32.97297594634118
42
-0.4142135623730927
10
-3.4128615036440735
20
-33.522975946341184
10
-3.4128615036440708
20
-46.42297594634119
42
-0.41421356237310453
10
-3.9628615036440769
20
-46.972975946341194
10
-16.862861503644069
20
-46.972975946341222
42
-0.41421356237310802
10
-17.41286150364407
20
-46.422975946341211
10
-17.412861503644073
20
-33.522975946341205
42
-0.41421356237309154
0
LWPOLYLINE
5
110
100
AcDbEntity
8
0
100
AcDbPolyline
90
8
70
1
43
0.0
10
-6.3441115036440809
20
-123.1729759463412
10
-21.625361503644086
20
-123.17297594634118
42
-0.41421356237310453
10
-22.175361503644091
20
-122.6229759463412
10
-22.175361503644105
20
-109.72297594634125
42
-0.41421356237307144
10
-21.625361503644083
20
-109.17297594634123
10
-6.3441115036440792
20
-109.17297594634128
42
-0.41421356237308443
10
-5.7941115036440785
20
-109.72297594634126
10
-5.7941115036440527
20
-122.62297594634121
42
-0.41421356237306434
0
LWPOLYLINE
5
111
100
AcDbEntity
8
0
100
AcDbPolyline
90
8
70
1
43
0.0
10
-270.66286150364408
20
-123.17297594634134
10
-283.56286150364406
20
-123.1729759463413
42
-0.41421356237311396
10
-284.11286150364407
20
-122.62297594634131
10
-284.11286150364401
20
-109.72297594634136
42
-0.41421356237310453
10
-283.56286150364406
20
-109.17297594634141
10
-270.66286150364402
20
-109.17297594634138
42
-0.41421356237313289
10
-270.11286150364401
20
-109.72297594634139
10
-270.11286150364407
20
-122.62297594634136
42
-0.41421356237307611
0
LWPOLYLINE
5
112
100
AcDbEntity
8
0
100
AcDbPolyline
90
8
70
1
43
0.0
10
-289.71286150364404
20
-123.17297594634134
10
-302.61286150364407
20
-123.1729759463413
42
-0.41421356237311396
10
-303.16286150364408
20
-122.62297594634131
10
-303.16286150364408
20
-109.72297594634139
42
-0.41421356237306667
10
-302.61286150364401
20
-109.17297594634141
10
-289.71286150364404
20
-109.17297594634142
42
-0.41421356237313289
10
-289.16286150364402
20
-109.72297594634142
10
-289.16286150364402
20
-122.62297594634136
42
-0.41421356237306667
0
CIRCLE
5
113
100
AcDbEntity
8
0
100
AcDbCircle
10
-286.59556150364409
20
-24.774975945164535
30
-1.4155343563970746e-14
40
2.5000000000000355
210
-1.0856253443880686e-30
220
-5.8286708792820718e-16
230
1
0
LWPOLYLINE
5
114
100
AcDbEntity
8
0
100
AcDbPolyline
90
8
70
1
43
0.0
10
-302.61286150364407
20
-32.972975946341357
10
-289.71286150364404
20
-32.97297594634135
42
-0.41421356237313056
10
-289.16286150364408
20
-33.52297594634134
10
-289.16286150364408
20
-46.422975946341353
42
-0.41421356237314239
10
-289.71286150364409
20
-46.972975946341357
10
-302.61286150364413
20
-46.972975946341336
42
-0.41421356237313289
10
-303.16286150364414
20
-46.422975946341339
10
-303.16286150364408
20
-33.522975946341347
42
-0.41421356237309742
0
LWPOLYLINE
5
115
100
AcDbEntity
8
0
100
AcDbPolyline
90
16
70
1
43
0.0
10
-283.71286150364421
20
-32.97297594634135
10
-251.46286150364406
20
-32.972975946341315
42
-0.41421356237309503
10
-250.91286150364411
20
-33.522975946341276
10
-250.91286150364408
20
-49.559975946341375
42
-0.41421356237307422
10
-251.41286150364411
20
-50.059975946341375
10
-259.28786150364425
20
-50.059975946341318
42
-0.41421356237309503
10
-259.58786150364426
20
-49.759975946341306
10
-259.58786150364426
20
-47.272975944984054
42
0.41421356237304302
10
-259.88786150364422
20
-46.972975944984057
10
-275.53786150364425
20
-46.972975944984086
42
0.41421356237308637
10
-275.83786150364426
20
-47.272975944984069
10
-275.83786150364432
20
-49.759975946341342
42
-0.41421356237310375
10
-276.13786150364433
20
-50.059975946341353
10
-283.76286150364416
20
-50.059975946341368
42
-0.41421356237309503
10
-284.26286150364416
20
-49.559975946341353
10
-284.26286150364416
20
-33.522975946341298
42
-0.4142135623730927
0
CIRCLE
5
116
100
AcDbEntity
8
0
100
AcDbCircle
10
-19.937579339292771
20
-130.92172276587593
30
-7.7438055967604669e-14
40
2.5
210
9.7666013443446306e-32
220
-5.8286708792820718e-16
230
1
0
LWPOLYLINE
5
117
100
AcDbEntity
8
0
100
AcDbPolyline
90
4
70
1
43
0.0
10
-27.788361503644108
20
-64.522975944983827
42
0.99999999999999989
10
-25.188361503644074
20
-64.522975944983813
10
-25.188361503644046
20
-53.522975944983806
42
0.99999999999999989
10
-27.788361503644083
20
-53.522975944983813
0
LWPOLYLINE
5
118
100
AcDbEntity
8
0
100
AcDbPolyline
90
4
70
1
43
0.0
10
-238.30611150364376
20
-91.622975944984191
10
-238.30611150364408
20
-102.62297594498418
42
-0.99999999999999989
10
-240.90611150364407
20
-102.62297594498409
10
-240.90611150364373
20
-91.62297594498412
42
-0.99999999999999989
0
LWPOLYLINE
5
119
100
AcDbEntity
8
0
100
AcDbPolyline
90
4
70
1
43
0.0
10
-282.36286150362537
20
-53.522975944984204
10
-282.36286150364481
20
-64.522975944983926
42
-0.99999999999999989
10
-284.96286150364477
20
-64.522975944983941
10
-284.96286150364472
20
-53.522975944983969
42
-0.99999999999999989
0
LWPOLYLINE
5
120
100
AcDbEntity
8
0
100
AcDbPolyline
90
8
70
1
43
0.0
10
-185.72286150364405
20
-124.87133689995298
42
0.41421356237309503
10
-184.72286150364403
20
-125.87133689995298
10
-178.90586150364408
20
-125.87133689995301
42
0.41421356237309503
10
-177.90586150364405
20
-124.87133689995302
10
-177.90586150364402
20
-108.32297594634129
42
0.41421356237309503
10
-178.90586150364399
20
-107.32297594634133
10
-184.72286150364403
20
-107.32297594634136
42
0.41421356237307944
10
-185.72286150364403
20
-108.3229759463413
0
LWPOLYLINE
5
121
100
AcDbEntity
8
0
100
AcDbPolyline
90
4
70
1
43
0.0
10
-98.362861503644126
20
-119.67297594498456
10
-116.85661150364409
20
-119.67297594498422
42
-0.99999999999999989
10
-116.85661150364395
20
-112.67297594498423
10
-98.362861503643899
20
-112.67297594498474
42
-0.99999999999999989
0
LWPOLYLINE
5
122
100
AcDbEntity
8
0
100
AcDbPolyline
90
8
70
1
43
0.0
10
-246.0128615036441
20
-46.422975946341332
10
-246.01286150364405
20
-33.522975946341333
42
-0.41421356237313289
10
-245.46286150364406
20
-32.972975946341329
10
-232.56286150364411
20
-32.9729759463413
42
-0.41421356237313289
10
-232.0128615036441
20
-33.522975946341298
10
-232.01286150364413
20
-46.422975946341303
42
-0.41421356237314705
10
-232.56286150364414
20
-46.972975946341322
10
-245.46286150364409
20
-46.972975946341322
42
-0.41421356237312812
0
LWPOLYLINE
5
123
100
AcDbEntity
8
0
100
AcDbPolyline
90
8
70
1
43
0.0
10
-53.419111503644061
20
-109.72297594634129
10
-53.419111503644103
20
-122.62297594634123
42
-0.41421356237307144
10
-53.969111503644093
20
-123.17297594634121
10
-69.250361503644086
20
-123.17297594634124
42
-0.41421356237309975
10
-69.800361503644083
20
-122.62297594634121
10
-69.800361503644027
20
-109.72297594634128
42
-0.41421356237305251
10
-69.250361503644058
20
-109.17297594634132
10
-53.969111503644058
20
-109.17297594634132
42
-0.41421356237311868
0
LWPOLYLINE
5
124
100
AcDbEntity
8
0
100
AcDbPolyline
90
8
70
1
43
0.0
10
-251.06286150364406
20
-109.72297594634141
10
-251.06286150364409
20
-122.62297594634133
42
-0.41421356237310453
10
-251.61286150364413
20
-123.1729759463413
10
-264.51286150364405
20
-123.17297594634128
42
-0.41421356237309503
10
-265.06286150364406
20
-122.62297594634128
10
-265.06286150364406
20
-109.72297594634136
42
-0.41421356237309503
10
-264.51286150364399
20
-109.17297594634138
10
-251.61286150364404
20
-109.17297594634138
42
-0.41421356237314239
0
LWPOLYLINE
5
125
100
AcDbEntity
8
0
100
AcDbPolyline
90
8
70
1
43
0.0
10
-107.35036150364409
20
-71.072975946341245
10
-94.450361503644089
20
-71.072975946341245
42
-0.41421356237309037
10
-93.900361503644092
20
-71.622975946341242
10
-93.900361503644092
20
-84.52297594634129
42
-0.4142135623730856
10
-94.450361503644075
20
-85.072975946341273
10
-107.35036150364408
20
-85.072975946341259
42
-0.41421356237312346
10
-107.90036150364408
20
-84.52297594634129
10
-107.90036150364412
20
-71.622975946341256
42
-0.41421356237310453
0
LWPOLYLINE
5
126
100
AcDbEntity
8
0
100
AcDbPolyline
90
8
70
1
43
0.0
10
-244.46911150364403
20
-104.12297594634133
10
-257.36911150364404
20
-104.12297594634133
42
-0.41421356237313289
10
-257.91911150364405
20
-103.57297594634133
10
-257.91911150364405
20
-90.672975946341325
42
-0.41421356237309503
10
-257.36911150364404
20
-90.122975946341342
10
-244.46911150364406
20
-90.122975946341342
42
-0.41421356237314239
10
-243.91911150364407
20
-90.672975946341353
10
-243.91911150364405
20
-103.57297594634134
42
-0.4142135623730856
0
LWPOLYLINE
5
127
100
AcDbEntity
8
0
100
AcDbPolyline
90
8
70
1
43
0.0
10
-60.275361503644085
20
-103.57297594634122
42
0.4142135623730856
10
-59.725361503644088
20
-104.12297594634124
10
-46.825361503644089
20
-104.12297594634123
42
0.41421356237306667
10
-46.275361503644092
20
-103.57297594634126
10
-46.275361503644092
20
-90.672975946341253
42
0.41421356237309975
10
-46.825361503644089
20
-90.122975946341199
10
-59.725361503644088
20
-90.122975946341256
42
0.41421356237305718
10
-60.275361503644085
20
-90.672975946341211
0
LWPOLYLINE
5
128
100
AcDbEntity
8
0
100
AcDbPolyline
90
8
70
1
43
0.0
10
-289.16286150364408
20
-71.622975946341342
42
0.41421356237313761
10
-289.71286150364404
20
-71.072975946341344
10
-302.61286150364407
20
-71.072975946341373
42
0.41421356237310453
10
-303.16286150364408
20
-71.62297594634137
10
-303.16286150364408
20
-84.522975946341347
42
0.41421356237311396
10
-302.61286150364407
20
-85.072975946341401
10
-289.71286150364404
20
-85.072975946341359
42
0.4142135623730383
10
-289.16286150364408
20
-84.52297594634139
0
LWPOLYLINE
5
129
100
AcDbEntity
8
0
100
AcDbPolyline
90
8
70
1
43
0.0
10
-289.16286150364408
20
-90.672975946341396
42
0.41421356237314239
10
-289.71286150364404
20
-90.12297594634137
10
-302.61286150364407
20
-90.122975946341356
42
0.41421356237307611
10
-303.16286150364408
20
-90.672975946341353
10
-303.16286150364408
20
-103.57297594634136
42
0.4142135623730856
10
-302.61286150364401
20
-104.12297594634133
10
-289.71286150364404
20
-104.12297594634137
42
0.4142135623730856
10
-289.16286150364402
20
-103.57297594634139
0
LWPOLYLINE
5
130
100
AcDbEntity
8
0
100
AcDbPolyline
90
8
70
1
43
0.0
10
-270.11286150364407
20
-90.672975946341353
42
0.41421356237314239
10
-270.66286150364408
20
-90.122975946341342
10
-283.56286150364406
20
-90.122975946341356
42
0.41421356237307611
10
-284.11286150364407
20
-90.672975946341353
10
-284.11286150364401
20
-103.57297594634136
42
0.4142135623730856
10
-283.562861503644
20
-104.12297594634137
10
-270.66286150364408
20
-104.12297594634133
42
0.4142135623730856
10
-270.11286150364401
20
-103.57297594634139
0
LWPOLYLINE
5
131
100
AcDbEntity
8
0
100
AcDbPolyline
90
8
70
1
43
0.0
10
-193.62536150364403
20
-103.5729759463413
42
0.41421356237313289
10
-193.07536150364402
20
-104.12297594634128
10
-180.17536150364407
20
-104.12297594634128
42
0.4142135623730856
10
-179.62536150364403
20
-103.57297594634134
10
-179.62536150364406
20
-90.672975946341296
42
0.41421356237314239
10
-180.17536150364407
20
-90.122975946341271
10
-193.07536150364402
20
-90.122975946341327
42
0.41421356237307611
10
-193.62536150364406
20
-90.672975946341268
0
LWPOLYLINE
5
132
100
AcDbEntity
8
0
100
AcDbPolyline
90
8
70
1
43
0.0
10
-103.4253615036441
20
-90.672975946341268
42
0.41421356237309503
10
-103.97536150364409
20
-90.122975946341271
10
-116.87536150364409
20
-90.122975946341285
42
0.41421356237302881
10
-117.4253615036441
20
-90.672975946341253
10
-117.42536150364408
20
-103.57297594634126
42
0.41421356237309503
10
-116.87536150364409
20
-104.12297594634126
10
-103.97536150364409
20
-104.12297594634123
42
0.41421356237307611
10
-103.4253615036441
20
-103.57297594634126
0
LWPOLYLINE
5
133
100
AcDbEntity
8
0
100
AcDbPolyline
90
8
70
1
43
0.0
10
-8.1753615036440745
20
-52.572975946341188
42
0.4142135623730791
10
-8.7253615036440735
20
-52.022975946341191
10
-21.625361503644086
20
-52.022975946341219
42
0.41421356237310214
10
-22.175361503644091
20
-52.572975946341209
10
-22.175361503644083
20
-65.472975946341194
42
0.41421356237310686
10
-21.625361503644086
20
-66.022975946341205
10
-8.725361503644077
20
-66.022975946341205
42
0.41421356237310392
10
-8.1753615036440781
20
-65.472975946341194
0
LWPOLYLINE
5
134
100
AcDbEntity
8
0
100
AcDbPolyline
90
8
70
1
43
0.0
10
-227.25036150364406
20
-71.622975946341342
42
0.41421356237313761
10
-227.80036150364407
20
-71.072975946341344
10
-240.70036150364405
20
-71.072975946341344
42
0.41421356237309503
10
-241.25036150364409
20
-71.622975946341327
10
-241.25036150364409
20
-84.522975946341319
42
0.41421356237313289
10
-240.7003615036441
20
-85.07297594634133
10
-227.8003615036441
20
-85.072975946341316
42
0.41421356237309503
10
-227.25036150364411
20
-84.522975946341347
0
LWPOLYLINE
5
135
100
AcDbEntity
8
0
100
AcDbPolyline
90
8
70
1
43
0.0
10
-217.72536150364405
20
-90.672975946341339
42
0.41421356237313289
10
-218.27536150364406
20
-90.122975946341342
10
-231.17536150364404
20
-90.122975946341327
42
0.41421356237306667
10
-231.72536150364408
20
-90.672975946341325
10
-231.72536150364405
20
-103.57297594634133
42
0.41421356237313289
10
-231.17536150364404
20
-104.12297594634128
10
-218.27536150364406
20
-104.12297594634133
42
0.41421356237309503
10
-217.72536150364405
20
-103.57297594634134
0
LWPOLYLINE
5
136
100
AcDbEntity
8
0
100
AcDbPolyline
90
8
70
1
43
0.0
10
-289.16286150364408
20
-52.572975946341344
42
0.41421356237311396
10
-289.71286150364409
20
-52.022975946341312
10
-302.61286150364413
20
-52.022975946341326
42
0.41421356237313289
10
-303.16286150364414
20
-52.57297594634133
10
-303.16286150364402
20
-65.472975946341336
42
0.41421356237312812
10
-302.61286150364401
20
-66.022975946341319
10
-289.71286150364398
20
-66.022975946341347
42
0.41421356237312346
10
-289.16286150364397
20
-65.472975946341364
0
LWPOLYLINE
5
137
100
AcDbEntity
8
0
100
AcDbPolyline
90
8
70
1
43
0.0
10
-122.18786150364409
20
-65.472975946341279
42
0.41421356237309503
10
-121.63786150364409
20
-66.022975946341262
10
-108.73786150364408
20
-66.022975946341248
42
0.41421356237308082
10
-108.18786150364406
20
-65.472975946341251
10
-108.18786150364409
20
-52.572975946341252
42
0.41421356237309037
10
-108.73786150364408
20
-52.022975946341255
10
-121.63786150364409
20
-52.022975946341276
42
0.41421356237309503
10
-122.18786150364407
20
-52.572975946341252
0
LWPOLYLINE
5
138
100
AcDbEntity
8
0
100
AcDbPolyline
90
8
70
1
43
0.0
10
-69.800361503644069
20
-84.522975946341248
42
0.4142135623730856
10
-69.250361503644072
20
-85.072975946341259
10
-56.350361503644073
20
-85.072975946341245
42
0.41421356237309503
10
-55.800361503644076
20
-84.522975946341234
10
-55.800361503644098
20
-71.622975946341228
42
0.41421356237309503
10
-56.350361503644095
20
-71.072975946341217
10
-69.250361503644086
20
-71.072975946341231
42
0.41421356237307611
10
-69.800361503644083
20
-71.622975946341228
0
LWPOLYLINE
5
139
100
AcDbEntity
8
0
100
AcDbPolyline
90
8
70
1
43
0.0
10
-65.037861503644081
20
-65.472975946341222
42
0.41421356237307611
10
-64.487861503644083
20
-66.022975946341219
10
-51.587861503644078
20
-66.022975946341234
42
0.41421356237309503
10
-51.037861503644073
20
-65.472975946341222
10
-51.037861503644081
20
-52.572975946341217
42
0.41421356237309503
10
-51.587861503644092
20
-52.022975946341205
10
-64.487861503644083
20
-52.022975946341234
42
0.41421356237306667
10
-65.037861503644081
20
-52.572975946341209
0
LWPOLYLINE
5
140
100
AcDbEntity
8
0
100
AcDbPolyline
90
8
70
1
43
0.0
10
-24.556611503644085
20
-84.522975946341262
42
0.4142135623730856
10
-24.006611503644088
20
-85.072975946341245
10
-6.3441115036440845
20
-85.072975946341217
42
0.41421356237308204
10
-5.7941115036440785
20
-84.522975946341234
10
-5.7941115036440749
20
-71.622975946341228
42
0.41421356237311047
10
-6.3441115036440721
20
-71.072975946341202
10
-24.006611503644084
20
-71.072975946341231
42
0.41421356237309037
10
-24.556611503644085
20
-71.622975946341228
0
LWPOLYLINE
5
141
100
AcDbEntity
8
0
100
AcDbPolyline
90
8
70
1
43
0.0
10
-222.48786150364413
20
-52.572975946341309
42
0.41421356237311396
10
-223.03786150364414
20
-52.022975946341276
10
-235.93786150364411
20
-52.022975946341319
42
0.41421356237313289
10
-236.48786150364413
20
-52.572975946341316
10
-236.48786150364401
20
-65.472975946341322
42
0.41421356237313289
10
-235.937861503644
20
-66.022975946341305
10
-223.03786150364402
20
-66.022975946341305
42
0.41421356237313289
10
-222.48786150364401
20
-65.472975946341307
0
LWPOLYLINE
5
142
100
AcDbEntity
8
0
100
AcDbPolyline
90
8
70
1
43
0.0
10
-78.775361503644092
20
-90.122975946341256
42
0.41421356237307611
10
-79.325361503644089
20
-90.672975946341253
10
-79.325361503644089
20
-103.57297594634126
42
0.4142135623730856
10
-78.775361503644092
20
-104.12297594634126
10
-65.875361503644086
20
-104.12297594634123
42
0.4142135623730856
10
-65.325361503644089
20
-103.57297594634122
10
-65.325361503644089
20
-90.672975946341253
42
0.41421356237313289
10
-65.875361503644086
20
-90.122975946341228
0
LWPOLYLINE
5
143
100
AcDbEntity
8
0
100
AcDbPolyline
90
8
70
1
43
0.0
10
-126.95036150364407
20
-84.52297594634129
42
0.4142135623730856
10
-126.40036150364408
20
-85.072975946341302
10
-113.50036150364406
20
-85.072975946341273
42
0.41421356237310453
10
-112.95036150364405
20
-84.522975946341262
10
-112.95036150364409
20
-71.622975946341242
42
0.41421356237308082
10
-113.50036150364409
20
-71.072975946341273
10
-126.40036150364408
20
-71.072975946341273
42
0.41421356237309037
10
-126.95036150364409
20
-71.622975946341271
0
LWPOLYLINE
5
144
100
AcDbEntity
8
0
100
AcDbPolyline
90
8
70
1
43
0.0
10
-74.850361503644095
20
-71.622975946341228
42
0.41421356237310919
10
-75.400361503644106
20
-71.072975946341217
10
-88.300361503644069
20
-71.072975946341259
42
0.4142135623730856
10
-88.850361503644066
20
-71.622975946341256
10
-88.850361503644052
20
-84.52297594634129
42
0.41421356237309503
10
-88.300361503644041
20
-85.072975946341259
10
-75.400361503644078
20
-85.072975946341245
42
0.41421356237307611
10
-74.850361503644081
20
-84.522975946341262
0
LWPOLYLINE
5
145
100
AcDbEntity
8
0
100
AcDbPolyline
90
8
70
1
43
0.0
10
-70.087861503644092
20
-52.572975946341231
42
0.41421356237309037
10
-70.637861503644089
20
-52.022975946341241
10
-83.537861503644081
20
-52.022975946341248
42
0.41421356237306195
10
-84.087861503644078
20
-52.572975946341231
10
-84.087861503644078
20
-65.472975946341251
42
0.41421356237308082
10
-83.537861503644081
20
-66.022975946341234
10
-70.637861503644089
20
-66.022975946341219
42
0.41421356237306667
10
-70.087861503644092
20
-65.472975946341251
0
LWPOLYLINE
5
146
100
AcDbEntity
8
0
100
AcDbPolyline
90
8
70
1
43
0.0
10
-132.00036150364409
20
-71.622975946341271
42
0.4142135623730856
10
-132.55036150364407
20
-71.072975946341288
10
-145.45036150364407
20
-71.072975946341273
42
0.41421356237309975
10
-146.00036150364411
20
-71.622975946341271
10
-146.00036150364406
20
-84.52297594634129
42
0.41421356237312346
10
-145.45036150364407
20
-85.072975946341273
10
-132.55036150364407
20
-85.072975946341273
42
0.41421356237309503
10
-132.00036150364406
20
-84.522975946341262
0
LWPOLYLINE
5
147
100
AcDbEntity
8
0
100
AcDbPolyline
90
8
70
1
43
0.0
10
-98.375361503644086
20
-103.57297594634122
42
0.41421356237311396
10
-97.825361503644089
20
-104.12297594634123
10
-84.925361503644083
20
-104.12297594634126
42
0.41421356237309503
10
-84.375361503644086
20
-103.57297594634126
10
-84.375361503644086
20
-90.672975946341268
42
0.41421356237311396
10
-84.925361503644069
20
-90.122975946341271
10
-97.825361503644089
20
-90.122975946341256
42
0.41421356237307611
10
-98.375361503644115
20
-90.672975946341253
0
LWPOLYLINE
5
148
100
AcDbEntity
8
0
100
AcDbPolyline
90
8
70
1
43
0.0
10
-151.0503615036441
20
-71.622975946341271
42
0.41421356237308082
10
-151.60036150364408
20
-71.072975946341245
10
-164.50036150364406
20
-71.072975946341302
42
0.41421356237310919
10
-165.05036150364404
20
-71.622975946341285
10
-165.05036150364407
20
-84.522975946341319
42
0.41421356237311396
10
-164.50036150364406
20
-85.07297594634133
10
-151.60036150364408
20
-85.072975946341273
42
0.41421356237307611
10
-151.05036150364407
20
-84.522975946341305
0
LWPOLYLINE
5
149
100
AcDbEntity
8
0
100
AcDbPolyline
90
8
70
1
43
0.0
10
-222.20036150364407
20
-84.522975946341319
42
0.41421356237313289
10
-221.65036150364409
20
-85.072975946341316
10
-208.75036150364411
20
-85.072975946341316
42
0.41421356237310453
10
-208.2003615036441
20
-84.522975946341319
10
-208.2003615036441
20
-71.622975946341313
42
0.41421356237313761
10
-208.75036150364409
20
-71.072975946341302
10
-221.65036150364404
20
-71.072975946341316
42
0.41421356237309503
10
-222.20036150364407
20
-71.622975946341299
0
LWPOLYLINE
5
150
100
AcDbEntity
8
0
100
AcDbPolyline
90
8
70
1
43
0.0
10
-127.2378615036441
20
-52.572975946341252
42
0.41421356237309975
10
-127.78786150364411
20
-52.022975946341262
10
-140.68786150364409
20
-52.022975946341276
42
0.41421356237306667
10
-141.23786150364407
20
-52.572975946341273
10
-141.2378615036441
20
-65.472975946341279
42
0.41421356237305251
10
-140.68786150364411
20
-66.022975946341262
10
-127.78786150364409
20
-66.022975946341262
42
0.41421356237307144
10
-127.2378615036441
20
-65.472975946341279
0
LWPOLYLINE
5
151
100
AcDbEntity
8
0
100
AcDbPolyline
90
8
70
1
43
0.0
10
-36.750361503644086
20
-71.622975946341228
42
0.4142135623730927
10
-37.300361503644083
20
-71.072975946341217
10
-50.200361503644089
20
-71.072975946341245
42
0.41421356237307611
10
-50.750361503644086
20
-71.622975946341242
10
-50.750361503644072
20
-84.522975946341248
42
0.4142135623730856
10
-50.200361503644075
20
-85.072975946341245
10
-37.300361503644098
20
-85.072975946341245
42
0.41421356237310214
10
-36.750361503644093
20
-84.522975946341234
0
LWPOLYLINE
5
152
100
AcDbEntity
8
0
100
AcDbPolyline
90
8
70
1
43
0.0
10
-31.987861503644087
20
-52.572975946341217
42
0.41421356237307144
10
-32.537861503644088
20
-52.022975946341212
10
-45.437861503644072
20
-52.022975946341219
42
0.41421356237309975
10
-45.987861503644069
20
-52.572975946341209
10
-45.987861503644076
20
-65.472975946341222
42
0.41421356237309037
10
-45.437861503644086
20
-66.022975946341219
10
-32.537861503644095
20
-66.022975946341205
42
0.41421356237308321
10
-31.987861503644094
20
-65.472975946341222
0
LWPOLYLINE
5
153
100
AcDbEntity
8
0
100
AcDbPolyline
90
8
70
1
43
0.0
10
-255.537861503644
20
-65.472975946341322
42
0.41421356237313289
10
-254.98786150364398
20
-66.022975946341319
10
-242.08786150364401
20
-66.022975946341333
42
0.41421356237309037
10
-241.53786150364397
20
-65.472975946341307
10
-241.53786150364411
20
-52.572975946341316
42
0.41421356237308082
10
-242.08786150364415
20
-52.022975946341305
10
-254.9878615036441
20
-52.022975946341326
42
0.41421356237312812
10
-255.53786150364408
20
-52.572975946341323
0
LWPOLYLINE
5
154
100
AcDbEntity
8
0
100
AcDbPolyline
90
8
70
1
43
0.0
10
-160.5753615036441
20
-90.672975946341325
42
0.41421356237309503
10
-161.12536150364409
20
-90.122975946341327
10
-174.02536150364401
20
-90.122975946341271
42
0.41421356237307611
10
-174.57536150364405
20
-90.672975946341282
10
-174.57536150364402
20
-103.57297594634126
42
0.41421356237313289
10
-174.02536150364401
20
-104.12297594634128
10
-161.12536150364409
20
-104.12297594634126
42
0.41421356237302881
10
-160.57536150364405
20
-103.57297594634132
0
LWPOLYLINE
5
155
100
AcDbEntity
8
0
100
AcDbPolyline
90
8
70
1
43
0.0
10
-155.52536150364409
20
-103.5729759463413
42
0.41421356237311396
10
-154.97536150364408
20
-104.12297594634128
10
-142.07536150364407
20
-104.12297594634128
42
0.4142135623730856
10
-141.52536150364409
20
-103.57297594634132
10
-141.52536150364409
20
-90.672975946341282
42
0.41421356237310453
10
-142.07536150364407
20
-90.122975946341313
10
-154.97536150364408
20
-90.122975946341313
42
0.41421356237307611
10
-155.52536150364409
20
-90.672975946341282
0
LWPOLYLINE
5
156
100
AcDbEntity
8
0
100
AcDbPolyline
90
8
70
1
43
0.0
10
-146.28786150364408
20
-52.57297594634128
42
0.41421356237309975
10
-146.83786150364409
20
-52.02297594634129
10
-159.73786150364407
20
-52.022975946341283
42
0.41421356237304774
10
-160.28786150364408
20
-52.572975946341259
10
-160.28786150364408
20
-65.472975946341279
42
0.41421356237309037
10
-159.7378615036441
20
-66.022975946341276
10
-146.83786150364406
20
-66.022975946341262
42
0.4142135623730856
10
-146.28786150364408
20
-65.472975946341279
0
LWPOLYLINE
5
157
100
AcDbEntity
8
0
100
AcDbPolyline
90
8
70
1
43
0.0
10
-189.15036150364409
20
-71.622975946341285
42
0.41421356237313761
10
-189.70036150364407
20
-71.072975946341288
10
-202.60036150364408
20
-71.072975946341302
42
0.41421356237305251
10
-203.15036150364406
20
-71.622975946341299
10
-203.15036150364406
20
-84.522975946341319
42
0.41421356237313289
10
-202.60036150364408
20
-85.072975946341359
10
-189.7003615036441
20
-85.072975946341316
42
0.41421356237311396
10
-189.15036150364409
20
-84.522975946341305
0
LWPOLYLINE
5
158
100
AcDbEntity
8
0
100
AcDbPolyline
90
8
70
1
43
0.0
10
-170.10036150364408
20
-71.622975946341299
42
0.41421356237313289
10
-170.65036150364406
20
-71.072975946341302
10
-183.55036150364401
20
-71.072975946341302
42
0.41421356237309975
10
-184.10036150364405
20
-71.622975946341285
10
-184.10036150364405
20
-84.522975946341319
42
0.41421356237313289
10
-183.55036150364407
20
-85.072975946341316
10
-170.65036150364409
20
-85.072975946341316
42
0.41421356237310453
10
-170.10036150364408
20
-84.522975946341319
0
LWPOLYLINE
5
159
100
AcDbEntity
8
0
100
AcDbPolyline
90
8
70
1
43
0.0
10
-217.437861503644
20
-65.472975946341322
42
0.41421356237312812
10
-216.88786150364399
20
-66.022975946341305
10
-203.98786150364401
20
-66.022975946341305
42
0.41421356237309503
10
-203.43786150364397
20
-65.472975946341293
10
-203.43786150364411
20
-52.572975946341309
42
0.41421356237311396
10
-203.98786150364413
20
-52.022975946341283
10
-216.8878615036441
20
-52.022975946341312
42
0.41421356237312812
10
-217.43786150364411
20
-52.572975946341309
0
LWPOLYLINE
5
160
100
AcDbEntity
8
0
100
AcDbPolyline
90
8
70
1
43
0.0
10
-198.38786150364399
20
-65.472975946341322
42
0.41421356237312812
10
-197.83786150364398
20
-66.022975946341305
10
-184.937861503644
20
-66.02297594634129
42
0.41421356237309037
10
-184.38786150364396
20
-65.472975946341293
10
-184.3878615036441
20
-52.572975946341288
42
0.41421356237311396
10
-184.93786150364411
20
-52.022975946341262
10
-197.83786150364409
20
-52.02297594634129
42
0.41421356237313761
10
-198.3878615036441
20
-52.572975946341309
0
LWPOLYLINE
5
161
100
AcDbEntity
8
0
100
AcDbPolyline
90
8
70
1
43
0.0
10
-212.67536150364404
20
-103.57297594634133
42
0.41421356237313289
10
-212.12536150364403
20
-104.12297594634133
10
-199.22536150364408
20
-104.12297594634128
42
0.41421356237310453
10
-198.67536150364404
20
-103.57297594634132
10
-198.67536150364407
20
-90.672975946341282
42
0.41421356237312346
10
-199.22536150364408
20
-90.122975946341313
10
-212.12536150364403
20
-90.122975946341342
42
0.41421356237307611
10
-212.67536150364407
20
-90.672975946341282
0
LWPOLYLINE
5
162
100
AcDbEntity
8
0
100
AcDbPolyline
90
8
70
1
43
0.0
10
-122.47536150364409
20
-90.672975946341253
42
0.4142135623730856
10
-123.02536150364409
20
-90.122975946341271
10
-135.92536150364407
20
-90.122975946341285
42
0.41421356237305718
10
-136.47536150364411
20
-90.672975946341253
10
-136.47536150364408
20
-103.57297594634126
42
0.41421356237311396
10
-135.92536150364407
20
-104.12297594634126
10
-123.02536150364409
20
-104.12297594634126
42
0.4142135623730856
10
-122.47536150364408
20
-103.57297594634126
0
LWPOLYLINE
5
163
100
AcDbEntity
8
0
100
AcDbPolyline
90
8
70
1
43
0.0
10
-165.33786150364409
20
-52.572975946341273
42
0.41421356237311396
10
-165.8878615036441
20
-52.022975946341241
10
-178.78786150364414
20
-52.02297594634129
42
0.41421356237312812
10
-179.33786150364412
20
-52.572975946341288
10
-179.33786150364401
20
-65.472975946341279
42
0.41421356237313289
10
-178.78786150364402
20
-66.022975946341262
10
-165.88786150364399
20
-66.022975946341276
42
0.41421356237313289
10
-165.33786150364398
20
-65.472975946341279
0
CIRCLE
5
164
100
AcDbEntity
8
0
100
AcDbCircle
10
-262.91911150364473
20
-91.122975955886588
30
-5.4123372450476381e-14
40
1.1000000000000001
210
-4.4451361443779672e-32
220
-5.8286708792820728e-16
230
1
0
CIRCLE
5
165
100
AcDbEntity
8
0
100
AcDbCircle
10
-261.35036150364482
20
-52.72297595588676
30
-3.1918911957973251e-14
40
1.1000000000000001
210
-4.4451361443779672e-32
220
-5.8286708792820728e-16
230
1
0
LWPOLYLINE
5
166
100
AcDbEntity
8
0
100
AcDbPolyline
90
8
70
1
43
0.0
10
-102.58786150364409
20
-52.022975946341241
10
-89.687861503644086
20
-52.022975946341241
42
-0.41421356237305251
10
-89.137861503644089
20
-52.572975946341245
10
-89.137861503644089
20
-65.472975946341236
42
-0.41421356237307611
10
-89.687861503644086
20
-66.022975946341248
10
-102.58786150364409
20
-66.022975946341234
42
-0.41421356237307611
10
-103.13786150364409
20
-65.472975946341236
10
-103.1378615036441
20
-52.572975946341252
42
-0.41421356237309503
0
LWPOLYLINE
5
167
100
AcDbEntity
8
0
100
AcDbPolyline
90
8
70
1
43
0.0
10
-217.72536150364402
20
-109.72297594634134
10
-217.72536150364405
20
-122.62297594634133
42
-0.41421356237306667
10
-218.27536150364406
20
-123.17297594634127
10
-233.6068615036441
20
-123.1729759463413
42
-0.41421356237313289
10
-234.15686150364408
20
-122.62297594634131
10
-234.15686150364408
20
-109.72297594634136
42
-0.41421356237310453
10
-233.60686150364401
20
-109.17297594634137
10
-218.27536150364395
20
-109.17297594634142
42
-0.4142135623730856
0
LWPOLYLINE
5
168
100
AcDbEntity
8
0
100
AcDbPolyline
90
8
70
1
43
0.0
10
-124.8566115036441
20
-109.72297594634134
10
-124.85661150364409
20
-122.62297594634128
42
-0.41421356237305718
10
-125.40661150364409
20
-123.17297594634125
10
-150.21286150364406
20
-123.17297594634127
42
-0.41421356237309503
10
-150.76286150364407
20
-122.62297594634127
10
-150.76286150364407
20
-109.72297594634134
42
-0.41421356237307611
10
-150.21286150364409
20
-109.17297594634135
10
-125.40661150364411
20
-109.17297594634137
42
-0.41421356237309503
0
LWPOLYLINE
5
169
100
AcDbEntity
8
0
100
AcDbPolyline
90
8
70
1
43
0.0
10
-55.512861503644061
20
-46.422975946341218
10
-55.512861503644082
20
-33.522975946341219
42
-0.41421356237307611
10
-54.962861503644085
20
-32.972975946341222
10
-42.062861503644072
20
-32.972975946341222
42
-0.41421356237310453
10
-41.512861503644075
20
-33.522975946341219
10
-41.512861503644061
20
-46.422975946341211
42
-0.4142135623730856
10
-42.062861503644058
20
-46.972975946341222
10
-54.962861503644064
20
-46.972975946341222
42
-0.41421356237308082
0
LWPOLYLINE
5
170
100
AcDbEntity
8
0
100
AcDbPolyline
90
8
70
1
43
0.0
10
-74.562861503644058
20
-46.422975946341232
10
-74.562861503644072
20
-33.522975946341234
42
-0.41421356237307849
10
-74.012861503644075
20
-32.972975946341229
10
-61.112861503644083
20
-32.972975946341222
42
-0.41421356237310453
10
-60.562861503644086
20
-33.522975946341219
10
-60.562861503644072
20
-46.422975946341211
42
-0.4142135623730856
10
-61.112861503644069
20
-46.972975946341222
10
-74.012861503644061
20
-46.972975946341236
42
-0.41421356237308082
0
LWPOLYLINE
5
171
100
AcDbEntity
8
0
100
AcDbPolyline
90
8
70
1
43
0.0
10
-131.71286150364412
20
-46.422975946341253
10
-131.71286150364406
20
-33.522975946341255
42
-0.41421356237308793
10
-131.16286150364405
20
-32.972975946341265
10
-118.26286150364405
20
-32.972975946341251
42
-0.41421356237307849
10
-117.71286150364405
20
-33.522975946341248
10
-117.71286150364411
20
-46.422975946341261
42
-0.41421356237309037
10
-118.2628615036441
20
-46.972975946341258
10
-131.16286150364408
20
-46.972975946341279
42
-0.41421356237309037
0
LWPOLYLINE
5
172
100
AcDbEntity
8
0
100
AcDbPolyline
90
8
70
1
43
0.0
10
-150.76286150364407
20
-46.422975946341282
10
-150.76286150364402
20
-33.522975946341269
42
-0.41421356237310214
10
-150.21286150364404
20
-32.972975946341272
10
-137.31286150364409
20
-32.972975946341258
42
-0.41421356237308082
10
-136.76286150364407
20
-33.522975946341262
10
-136.7628615036441
20
-46.422975946341253
42
-0.41421356237309503
10
-137.31286150364411
20
-46.972975946341258
10
-150.21286150364409
20
-46.972975946341293
42
-0.4142135623730856
0
LWPOLYLINE
5
173
100
AcDbEntity
8
0
100
AcDbPolyline
90
8
70
1
43
0.0
10
-169.81286150364411
20
-46.422975946341282
10
-169.81286150364409
20
-33.522975946341283
42
-0.41421356237313761
10
-169.26286150364407
20
-32.972975946341279
10
-156.36286150364407
20
-32.972975946341279
42
-0.41421356237309037
10
-155.81286150364403
20
-33.522975946341269
10
-155.81286150364411
20
-46.422975946341261
42
-0.41421356237308082
10
-156.36286150364407
20
-46.972975946341265
10
-169.2628615036441
20
-46.972975946341286
42
-0.41421356237313761
0
LWPOLYLINE
5
174
100
AcDbEntity
8
0
100
AcDbPolyline
90
8
70
1
43
0.0
10
-188.86286150364413
20
-46.422975946341303
10
-188.8628615036441
20
-33.522975946341298
42
-0.41421356237313761
10
-188.31286150364409
20
-32.972975946341279
10
-175.41286150364408
20
-32.972975946341286
42
-0.41421356237313289
10
-174.86286150364407
20
-33.522975946341283
10
-174.8628615036441
20
-46.422975946341282
42
-0.41421356237314239
10
-175.41286150364411
20
-46.972975946341286
10
-188.31286150364411
20
-46.9729759463413
42
-0.41421356237313289
0
CIRCLE
5
175
100
AcDbEntity
8
0
100
AcDbCircle
10
-19.937862503643988
20
-48.972975878130292
30
-2.8588242884097781e-14
40
1.0999999999999979
210
-3.4282121441418554e-33
220
-5.9674487573602174e-16
230
1
0
CIRCLE
5
176
100
AcDbEntity
8
0
100
AcDbCircle
10
-25.890986503644076
20
-116.17297712553633
30
-6.6335825721353103e-14
40
1.0999999999999979
210
-3.4282121441418554e-33
220
-5.9674487573602174e-16
230
1
0
LWPOLYLINE
5
177
100
AcDbEntity
8
0
100
AcDbPolyline
90
8
70
1
43
0.0
10
-30.15661150364409
20
-123.1729759463412
10
-45.437861503644086
20
-123.17297594634124
42
-0.41421356237309975
10
-45.987861503644083
20
-122.62297594634121
10
-45.987861503644076
20
-109.72297594634126
42
-0.41421356237305718
10
-45.437861503644044
20
-109.1729759463413
10
-30.156611503644093
20
-109.17297594634128
42
-0.41421356237308321
10
-29.606611503644093
20
-109.72297594634126
10
-29.606611503644089
20
-122.62297594634121
42
-0.414213562373069
0
LWPOLYLINE
5
178
100
AcDbEntity
8
0
100
AcDbPolyline
90
24
70
1
43
0.0
10
-249.268611503644
20
-68.642975943627121
10
-249.26861150364402
20
-86.972975946198105
42
-0.4142135623730856
10
-249.81861150364398
20
-87.522975946198059
10
-256.68761150364458
20
-87.522975946198258
42
-0.41421356237313289
10
-257.23761150364459
20
-86.972975946198261
10
-257.2376115036447
20
-85.622975943626841
42
0.41421356237299095
10
-257.78761150364465
20
-85.072975943626844
10
-272.68761150364463
20
-85.072975943626858
42
0.41421356237314239
10
-273.23761150364464
20
-85.622975943626841
10
-273.23761150364464
20
-86.972975946198844
42
-0.41421356237309503
10
-273.78761150364465
20
-87.522975946198841
10
-280.65618714974966
20
-87.52297594619904
42
-0.41421356237313289
10
-281.20618714974967
20
-86.972975946199043
10
-281.20618714974972
20
-68.642975943627121
42
-0.41421356237309037
10
-280.65618714974966
20
-68.09297594362711
10
-273.78736150364364
20
-68.092975943627081
42
-0.41421356237305251
10
-273.23736150364363
20
-68.642975943627107
10
-273.23736150364368
20
-70.5229759445794
42
0.41421356237313289
10
-272.68736150364367
20
-71.072975944579355
10
-257.78761150364397
20
-71.072975944579383
42
0.41421356237312812
10
-257.23761150364396
20
-70.522975944579358
10
-257.2376115036439
20
-68.642975943627093
42
-0.41421356237309503
10
-256.68761150364395
20
-68.09297594362711
10
-249.81861150364398
20
-68.092975943627096
42
-0.41421356237304774
0
LWPOLYLINE
5
179
100
AcDbEntity
8
0
100
AcDbPolyline
90
8
70
1
43
0.0
10
-278.80021149964125
20
-52.022975944984076
10
-265.90036150364369
20
-52.022975944984147
42
-0.41421356237311396
10
-265.35036150364374
20
-52.572975944984073
10
-265.35036150364368
20
-65.472975944984086
42
-0.41421356237310919
10
-265.90036150364369
20
-66.022975944984083
10
-278.80021149964119
20
-66.022975944984069
42
-0.41421356237308082
10
-279.35021149964115
20
-65.472975944984057
10
-279.35021149964126
20
-52.572975944984066
42
-0.41421356237309503
0
LWPOLYLINE
5
180
100
AcDbEntity
8
0
100
AcDbPolyline
90
24
70
1
43
0.0
10
-6.6311115036440125
20
-87.722975944984029
10
-6.6311115036441315
20
-106.26297594796074
42
-0.41421356237307144
10
-7.1811115036441198
20
-106.81297594796071
10
-13.769111503644076
20
-106.81297594796081
42
-0.41421356237309037
10
-14.319111503644084
20
-106.26297594796084
10
-14.319111503643832
20
-104.92297594674656
42
0.41421356237309037
10
-14.869111503644081
20
-104.37297594674655
10
-29.769111503644087
20
-104.37297594674659
42
0.41421356237308082
10
-30.319111503644095
20
-104.92297594674655
10
-30.319111503644084
20
-106.26297594796107
42
-0.41421356237308082
10
-30.869111503644074
20
-106.81297594796105
10
-37.457111503644015
20
-106.81297594796115
42
-0.41421356237309037
10
-38.007111503644026
20
-106.26297594796117
10
-38.00711150364409
20
-87.722975944983972
42
-0.41421356237309503
10
-37.457111503644093
20
-87.172975944983975
10
-30.557111503644126
20
-87.172975944984017
42
-0.41421356237309503
10
-30.007111503644126
20
-87.722975944984
10
-30.007111503644118
20
-89.57297594498516
42
0.41421356237312101
10
-29.4571115036441
20
-90.122975944985171
10
-15.18111150364412
20
-90.122975946341199
42
0.41421356237309859
10
-14.631111503644153
20
-89.572975944984634
10
-14.63111150364413
20
-87.722975944983986
42
-0.4142135623730856
10
-14.081111503644133
20
-87.172975944984017
10
-7.1811115036440141
20
-87.172975944984046
42
-0.4142135623730856
0
LWPOLYLINE
5
181
100
AcDbEntity
8
0
100
AcDbPolyline
90
4
70
1
43
0.0
10
-169.90586150364368
20
-112.67297594498346
10
-158.76286150364393
20
-112.67297594498373
42
-0.99999999999999989
10
-158.7628615036441
20
-119.67297594498373
10
-169.90586150364396
20
-119.67297594498353
42
-0.99999999999999989
0
CIRCLE
5
182
100
AcDbEntity
8
0
100
AcDbCircle
10
-286.63832297022515
20
-130.92172276587704
30
-7.7438055967604669e-14
40
2.5
210
9.7666013443446306e-32
220
-5.8286708792820718e-16
230
1
0
LWPOLYLINE
5
183
100
AcDbEntity
8
0
100
AcDbPolyline
90
16
70
1
43
0.0
10
-204.28786150364374
20
-125.321336899953
42
0.41421356237310453
10
-203.73786150364373
20
-125.87133689995301
10
-196.79411150364456
20
-125.87133689995304
42
0.41421356237309503
10
-196.24411150364455
20
-125.32133689995304
10
-196.24411150364455
20
-107.72297594634132
42
0.41421356237309503
10
-196.79411150364456
20
-107.17297594634132
10
-203.98786150364401
20
-107.17297594634134
42
0.41421356237309503
10
-204.53786150364397
20
-107.72297594634131
10
-204.53786150364405
20
-108.62297594634136
42
-0.41421356237305718
10
-205.08786150364401
20
-109.17297594634132
10
-209.79436150364396
20
-109.17297600748412
42
0.41406712333869866
10
-210.29411150364353
20
-109.67297594498412
10
-210.29411150364365
20
-122.67297594498416
42
0.41421356237301177
10
-209.79411150364365
20
-123.17297594498412
10
-204.83786150364378
20
-123.1729759449841
42
-0.41421356237306667
10
-204.28786150364374
20
-123.72297594498411
0
CIRCLE
5
184
100
AcDbEntity
8
0
100
AcDbCircle
10
-210.39488197731112
20
-130.92172276587618
30
-7.7438055967604669e-14
40
2.5
210
9.7666013443457516e-32
220
-5.8286708792820718e-16
230
1
0
CIRCLE
5
185
100
AcDbEntity
8
0
100
AcDbCircle
10
-96.727881977311142
20
-130.92172276587598
30
-7.7438055967604669e-14
40
2.5
210
9.7666013443457516e-32
220
-5.8286708792820718e-16
230
1
0
LWPOLYLINE
5
186
100
AcDbEntity
8
0
100
AcDbPolyline
90
8
70
1
43
0.0
10
-90.362861503644069
20
-124.87133689995288
42
0.41421356237310025
10
-89.362861503644069
20
-125.87133689995287
10
-79.100361503644123
20
-125.87133689995287
42
0.41421356237309503
10
-78.100361503644137
20
-124.87133689995288
10
-78.100361503644081
20
-108.32297594634126
42
0.41421356237309764
10
-79.100361503644095
20
-107.32297594634126
10
-89.362861503644069
20
-107.32297594634126
42
0.41421356237307944
10
-90.362861503644154
20
-108.3229759463412
0
ENDSEC
0
SECTION
2
OBJECTS
0
DICTIONARY
5
C
100
AcDbDictionary
3
ACAD_GROUP
350
D
3
ACAD_MLINESTYLE
350
17
0
DICTIONARY
5
D
100
AcDbDictionary
0
DICTIONARY
5
1A
330
C
100
AcDbDictionary
0
DICTIONARY
5
17
100
AcDbDictionary
0
ENDSEC
0
EOF
