0
SECTION
2
HEADER
9
$INSUNITS
70
4
9
$ACADVER
1
AC1014
9
$HANDSEED
5
FFFF
0
ENDSEC
0
SECTION
2
TABLES
0
TABLE
2
VPORT
5
8
100
AcDbSymbolTable
0
ENDTAB
0
TABLE
2
LTYPE
5
5
100
AcDbSymbolTable
0
LTYPE
5
14
100
AcDbSymbolTableRecord
100
AcDbLinetypeTableRecord
2
BYBLOCK
70
0
0
LTYPE
5
15
100
AcDbSymbolTableRecord
100
AcDbLinetypeTableRecord
2
BYLAYER
70
0
0
LTYPE
5
16
100
AcDbSymbolTableRecord
100
AcDbLinetypeTableRecord
2
DASHED
70
0
3
Dashed __ __ __ __ __ __ __ __ __ __ __ __ __ _
72
65
73
2
40
0.75
49
0.5
74
0
49
-0.25
74
0
0
ENDTAB
0
TABLE
2
LAYER
5
2
100
AcDbSymbolTable
70
2
0
LAYER
5
50
100
AcDbSymbolTableRecord
100
AcDbLayerTableRecord
2
0
70
0
62
7
6
CONTINUOUS
0
ENDTAB
0
TABLE
2
STYLE
5
3
100
AcDbSymbolTable
70
1
0
STYLE
5
11
100
AcDbSymbolTableRecord
100
AcDbTextStyleTableRecord
2
STANDARD
70
0
0
ENDTAB
0
TABLE
2
VIEW
5
6
100
AcDbSymbolTable
70
0
0
ENDTAB
0
TABLE
2
UCS
5
7
100
AcDbSymbolTable
70
0
0
ENDTAB
0
TABLE
2
APPID
5
9
100
AcDbSymbolTable
70
2
0
APPID
5
12
100
AcDbSymbolTableRecord
100
AcDbRegAppTableRecord
2
ACAD
70
0
0
ENDTAB
0
TABLE
2
DIMSTYLE
5
A
100
AcDbSymbolTable
70
1
0
ENDTAB
0
TABLE
2
BLOCK_RECORD
5
1
100
AcDbSymbolTable
70
1
0
BLOCK_RECORD
5
1F
100
AcDbSymbolTableRecord
100
AcDbBlockTableRecord
2
*MODEL_SPACE
0
BLOCK_RECORD
5
1B
100
AcDbSymbolTableRecord
100
AcDbBlockTableRecord
2
*PAPER_SPACE
0
ENDTAB
0
ENDSEC
0
SECTION
2
BLOCKS
0
BLOCK
5
20
100
AcDbEntity
100
AcDbBlockBegin
2
*MODEL_SPACE
0
ENDBLK
5
21
100
AcDbEntity
100
AcDbBlockEnd
0
BLOCK
5
1C
100
AcDbEntity
100
AcDbBlockBegin
2
*PAPER_SPACE
0
ENDBLK
5
1D
100
AcDbEntity
100
AcDbBlockEnd
0
ENDSEC
0
SECTION
2
ENTITIES
0
CIRCLE
5
100
100
AcDbEntity
8
0
100
AcDbCircle
10
262.96579882533922
20
-91.121866203919012
30
7.6050277186823223e-14
40
2.2500000000000138
210
-4.7177461691097136e-26
220
8.1878948066105315e-16
230
1
0
CIRCLE
5
101
100
AcDbEntity
8
0
100
AcDbCircle
10
19.984549825338402
20
-48.97186612616273
30
4.163336342344337e-14
40
2.249999999999996
210
-1.9498933596906709e-26
220
8.326672684688676e-16
230
1
0
CIRCLE
5
102
100
AcDbEntity
8
0
100
AcDbCircle
10
25.937673825338464
20
-116.17186737356873
30
9.7144514654701197e-14
40
2.2500000000000004
210
-6.5742365257656555e-27
220
8.326672684688675e-16
230
1
0
LWPOLYLINE
5
103
100
AcDbEntity
8
0
100
AcDbPolyline
90
8
70
1
43
0.0
10
6.8810784578263267
20
-86.637985880713657
10
14.881078475303253
20
-86.637985880634915
42
-0.41421356237307683
10
15.381078475308179
20
-87.137985880629969
10
15.38107847551748
20
-108.37798586959539
42
-0.41421356237308982
10
14.881078475522402
20
-108.87798586960032
10
6.8810784580455362
20
-108.87798586967905
42
-0.4142135623730378
10
6.3810784580406068
20
-108.37798586968407
10
6.3810784578311255
20
-87.137985880718674
42
-0.41421356237306839
0
LWPOLYLINE
5
104
100
AcDbEntity
8
0
100
AcDbPolyline
90
24
70
1
43
0.0
10
271.64460347886734
20
-75.485976039964683
42
0.41421356237309503
10
272.14460347886239
20
-74.985976039959766
10
272.14460347878185
20
-66.817986049685629
42
-0.4142135623730846
10
272.64460347877696
20
-66.317986049680712
10
280.64460347877736
20
-66.317986049601842
42
-0.41421356237307944
10
281.14460347878236
20
-66.817986049596854
10
281.1446034788724
20
-75.985976048573562
42
0.414213562373069
10
281.64460347887734
20
-76.485976048568546
10
285.21661248151236
20
-76.485976048533345
42
-0.41421356237260076
10
285.71661248151645
20
-76.985976048528457
10
285.71661248158534
20
-83.985976048528457
42
-0.41421356237303258
10
285.21661248159035
20
-84.48597604853336
10
281.64460347895636
20
-84.485976048568574
42
0.41421356237301177
10
281.14460347896136
20
-84.985976048573491
10
281.14460347899637
20
-88.557986038562063
42
-0.4142135623730222
10
280.64460347900138
20
-89.057986038566952
10
273.64460347900138
20
-89.057986038636173
42
-0.41421356237315748
10
273.14460347899637
20
-88.557986038641076
10
273.14460347896136
20
-84.985976039949961
42
0.41421356237315748
10
272.6446034789563
20
-84.485976039954863
10
263.47661248154731
20
-84.485976040045273
42
-0.41421356237311585
10
262.97661248154236
20
-83.985976040050176
10
262.97661248146341
20
-75.985976040050133
42
-0.41421356237308982
10
263.47661248145846
20
-75.485976040045202
0
CIRCLE
5
105
100
AcDbEntity
8
0
100
AcDbCircle
10
291.08286247220235
20
-97.122976026894051
30
8.0491169285323849e-14
40
0.85089999999999211
210
-1.9469560599803886e-27
220
8.326672684688676e-16
230
1
0
CIRCLE
5
106
100
AcDbEntity
8
0
100
AcDbCircle
10
296.16286246148138
20
-116.1729759989091
30
9.7144514654701197e-14
40
1.3749999999999902
210
-9.4190465542338128e-27
220
8.326672684688676e-16
230
1
0
CIRCLE
5
107
100
AcDbEntity
8
0
100
AcDbCircle
10
296.1628624722174
20
-97.122976029744748
30
8.2711615334574162e-14
40
1.3749999999999902
210
-9.4190465542338128e-27
220
8.326672684688676e-16
230
1
0
CIRCLE
5
108
100
AcDbEntity
8
0
100
AcDbCircle
10
301.24286248296636
20
-78.072976063431284
30
6.4948046940571658e-14
40
0.85089999999999211
210
-1.9469560599803886e-27
220
8.326672684688676e-16
230
1
0
CIRCLE
5
109
100
AcDbEntity
8
0
100
AcDbCircle
10
291.08286248293837
20
-78.072976057729747
30
6.3837823915946501e-14
40
0.85089999999999211
210
-1.9469560599803886e-27
220
8.326672684688676e-16
230
1
0
CIRCLE
5
110
100
AcDbEntity
8
0
100
AcDbCircle
10
296.16286248295239
20
-78.072976060580558
30
6.3837823915946501e-14
40
1.3749999999999902
210
-9.4190465542338128e-27
220
8.326672684688676e-16
230
1
0
CIRCLE
5
111
100
AcDbEntity
8
0
100
AcDbCircle
10
296.16286249368738
20
-59.022976091416268
30
5.0515147620444623e-14
40
1.3749999999999902
210
-9.4190465542338128e-27
220
8.326672684688676e-16
230
1
0
CIRCLE
5
112
100
AcDbEntity
8
0
100
AcDbCircle
10
296.16286250442334
20
-39.972976122251971
30
3.3861802251067274e-14
40
1.3749999999999902
210
-9.4190465542338128e-27
220
8.326672684688676e-16
230
1
0
CIRCLE
5
113
100
AcDbEntity
8
0
100
AcDbCircle
10
291.08286250440835
20
-39.972976119401274
30
3.3861802251067274e-14
40
0.85089999999999211
210
-1.9469560599803886e-27
220
8.326672684688676e-16
230
1
0
CIRCLE
5
114
100
AcDbEntity
8
0
100
AcDbCircle
10
301.24286250443737
20
-39.972976125102747
30
3.3861802251067274e-14
40
0.85089999999999211
210
-1.9469560599803886e-27
220
8.326672684688676e-16
230
1
0
CIRCLE
5
115
100
AcDbEntity
8
0
100
AcDbCircle
10
301.24286249370238
20
-59.022976094266959
30
4.9404924595819466e-14
40
0.85089999999999211
210
-1.9469560599803886e-27
220
8.326672684688676e-16
230
1
0
CIRCLE
5
116
100
AcDbEntity
8
0
100
AcDbCircle
10
291.08286249367336
20
-59.022976088565464
30
5.1625370645069779e-14
40
0.85089999999999211
210
-1.9469560599803886e-27
220
8.326672684688676e-16
230
1
0
CIRCLE
5
117
100
AcDbEntity
8
0
100
AcDbCircle
10
301.24286247223137
20
-97.12297603259556
30
7.9380946260698693e-14
40
0.85089999999999211
210
-1.9469560599803886e-27
220
8.326672684688676e-16
230
1
0
CIRCLE
5
118
100
AcDbEntity
8
0
100
AcDbCircle
10
291.08286246146736
20
-116.17297599605809
30
9.7144514654701197e-14
40
0.85089999999999211
210
-1.9469560599803886e-27
220
8.326672684688676e-16
230
1
0
CIRCLE
5
119
100
AcDbEntity
8
0
100
AcDbCircle
10
301.24286246149637
20
-116.17297600176009
30
9.7144514654701197e-14
40
0.85089999999999211
210
-1.9469560599803886e-27
220
8.326672684688676e-16
230
1
0
LWPOLYLINE
5
120
100
AcDbEntity
8
0
100
AcDbPolyline
90
8
70
1
43
0.0
10
38.257078475376261
20
-87.137985894038252
10
38.257078475585573
20
-108.37798586937005
42
-0.41421356237310281
10
37.757078475590561
20
-108.87798586937507
10
30.757078475590568
20
-108.87798586944406
42
-0.41421356237361273
10
30.257078475585672
20
-108.37798586944808
10
30.257078475376261
20
-87.137985894117179
42
-0.41421356237304563
10
30.757078475371262
20
-86.637985894112262
10
37.757078475371365
20
-86.637985894043155
42
-0.41421356237309243
0
LWPOLYLINE
5
121
100
AcDbEntity
8
0
100
AcDbPolyline
90
8
70
1
43
0.0
10
249.26860347892838
20
-88.55798602524257
10
249.26860347871437
20
-66.81798604991107
42
-0.4142135623730378
10
249.76860347870937
20
-66.317986049906153
10
256.76860348744736
20
-66.31798604983716
42
-0.41421356237317308
10
257.26860348745237
20
-66.817986049832285
10
257.26860348766638
20
-88.557986025163558
42
-0.41421356237303258
10
256.76860348767138
20
-89.057986025168461
10
249.76860347893336
20
-89.057986025237682
42
-0.41421356237314705
0
LWPOLYLINE
5
122
100
AcDbEntity
8
0
100
AcDbPolyline
90
4
70
1
43
0.0
10
12.794112483069567
20
-76.422974901562668
10
17.556612483083065
20
-76.422974904235261
42
-0.99999999999999989
10
17.556612481231262
20
-79.722974904235258
10
12.794112481217567
20
-79.722974901562665
42
-0.99999999999999989
0
CIRCLE
5
123
100
AcDbEntity
8
0
100
AcDbCircle
10
277.11286246142737
20
-116.17297598821906
30
9.2703622556200571e-14
40
1.3749999999999902
210
-9.4190465542338128e-27
220
8.326672684688676e-16
230
1
0
CIRCLE
5
124
100
AcDbEntity
8
0
100
AcDbCircle
10
258.06286246137336
20
-116.17297597752807
30
9.7144514654701197e-14
40
1.3749999999999902
210
-9.4190465542338128e-27
220
8.326672684688676e-16
230
1
0
LWPOLYLINE
5
125
100
AcDbEntity
8
0
100
AcDbPolyline
90
4
70
1
43
0.0
10
224.72536246126438
20
-114.7979759588201
10
227.1066124612704
20
-114.79797596015707
42
-0.99999999999999989
10
227.10661246129837
20
-117.54797596015706
10
224.72536246129238
20
-117.54797595882005
42
-0.99999999999999989
0
CIRCLE
5
126
100
AcDbEntity
8
0
100
AcDbCircle
10
143.76286246104638
20
-116.17297591338706
30
9.4924068605450884e-14
40
1.3749999999999998
210
-1.4063859564175133e-26
220
8.326672684688675e-16
230
1
0
CIRCLE
5
127
100
AcDbEntity
8
0
100
AcDbCircle
10
131.85661246101236
20
-116.17297590670506
30
9.7144514654701197e-14
40
1.3749999999999998
210
-1.4063859564175133e-26
220
8.326672684688675e-16
230
1
0
LWPOLYLINE
5
128
100
AcDbEntity
8
0
100
AcDbPolyline
90
4
70
1
43
0.0
10
60.419112460795368
20
-114.79797586661707
10
62.80036246080229
20
-114.79797586795308
42
-0.99999999999999989
10
62.800362460829277
20
-117.54797586795307
10
60.419112460822546
20
-117.54797586661712
42
-0.99999999999999989
0
LWPOLYLINE
5
129
100
AcDbEntity
8
0
100
AcDbPolyline
90
4
70
1
43
0.0
10
36.606612460727462
20
-114.79797585325406
10
38.987862460734171
20
-114.79797585459011
42
-0.99999999999999989
10
38.987862460761363
20
-117.54797585459005
10
36.606612460754448
20
-117.54797585325407
42
-0.99999999999999989
0
LWPOLYLINE
5
130
100
AcDbEntity
8
0
100
AcDbPolyline
90
4
70
1
43
0.0
10
12.794112460659468
20
-114.79797583989109
10
15.175362460666177
20
-114.79797584122709
42
-0.99999999999999989
10
15.175362460693364
20
-117.54797584122707
10
12.794112460686646
20
-117.54797583989104
42
-0.99999999999999989
0
CIRCLE
5
131
100
AcDbEntity
8
0
100
AcDbCircle
10
22.319078471435464
20
-97.122985876072065
30
8.0491169285323849e-14
40
1.3749999999999902
210
-9.4190465542338128e-27
220
8.326672684688676e-16
230
1
0
CIRCLE
5
132
100
AcDbEntity
8
0
100
AcDbCircle
10
53.275362471523877
20
-97.122975893443751
30
8.0491169285323849e-14
40
1.3749999999999902
210
-9.4190465542338128e-27
220
8.326672684688676e-16
230
1
0
CIRCLE
5
133
100
AcDbEntity
8
0
100
AcDbCircle
10
72.325362471578273
20
-97.122975904134066
30
7.9380946260698693e-14
40
1.3749999999999998
210
-1.4063859564175133e-26
220
8.326672684688675e-16
230
1
0
CIRCLE
5
134
100
AcDbEntity
8
0
100
AcDbCircle
10
91.375362471632556
20
-97.122975914824281
30
8.1601392309949006e-14
40
1.3749999999999998
210
-1.4063859564175133e-26
220
8.326672684688675e-16
230
1
0
CIRCLE
5
135
100
AcDbEntity
8
0
100
AcDbCircle
10
110.42536147168735
20
-97.122975925514581
30
8.0491169285323849e-14
40
1.3749999999999998
210
-1.4063859564175133e-26
220
8.326672684688675e-16
230
1
0
CIRCLE
5
136
100
AcDbEntity
8
0
100
AcDbCircle
10
129.47536347174136
20
-97.122975936204853
30
8.0491169285323849e-14
40
1.3749999999999998
210
-1.4063859564175133e-26
220
8.326672684688675e-16
230
1
0
CIRCLE
5
137
100
AcDbEntity
8
0
100
AcDbCircle
10
148.52536247179538
20
-97.122975946895153
30
8.1601392309949006e-14
40
1.3749999999999998
210
-1.4063859564175133e-26
220
8.326672684688675e-16
230
1
0
CIRCLE
5
138
100
AcDbEntity
8
0
100
AcDbCircle
10
167.57536247185038
20
-97.122975957585368
30
8.0491169285323849e-14
40
1.3749999999999998
210
-1.4063859564175133e-26
220
8.326672684688675e-16
230
1
0
CIRCLE
5
139
100
AcDbEntity
8
0
100
AcDbCircle
10
186.6253624719044
20
-97.122975968275668
30
8.1601392309949006e-14
40
1.3749999999999998
210
-1.4063859564175133e-26
220
8.326672684688675e-16
230
1
0
CIRCLE
5
140
100
AcDbEntity
8
0
100
AcDbCircle
10
205.67536147195838
20
-97.12297597896594
30
8.1601392309949006e-14
40
1.3749999999999998
210
-1.4063859564175133e-26
220
8.326672684688675e-16
230
1
0
CIRCLE
5
141
100
AcDbEntity
8
0
100
AcDbCircle
10
224.72536247201336
20
-97.122976989656266
30
8.1601392309949006e-14
40
1.3749999999999998
210
-1.4063859564175133e-26
220
8.326672684688675e-16
230
1
0
CIRCLE
5
142
100
AcDbEntity
8
0
100
AcDbCircle
10
250.91911247208839
20
-97.122976004355365
30
7.9380946260698693e-14
40
1.3749999999999902
210
-9.4190465542338128e-27
220
8.326672684688676e-16
230
1
0
CIRCLE
5
143
100
AcDbEntity
8
0
100
AcDbCircle
10
277.11286247216236
20
-97.122976019054562
30
7.8270723236073536e-14
40
1.3749999999999902
210
-9.4190465542338128e-27
220
8.326672684688676e-16
230
1
0
CIRCLE
5
144
100
AcDbEntity
8
0
100
AcDbCircle
10
234.25036248277536
20
-78.072975025837152
30
6.7168492989821971e-14
40
1.3749999999999902
210
-9.4190465542338128e-27
220
8.326672684688676e-16
230
1
0
CIRCLE
5
145
100
AcDbEntity
8
0
100
AcDbCircle
10
215.20036248272137
20
-78.072975015146866
30
6.7168492989821971e-14
40
1.3749999999999998
210
-1.4063859564175133e-26
220
8.326672684688675e-16
230
1
0
CIRCLE
5
146
100
AcDbEntity
8
0
100
AcDbCircle
10
196.15036248266736
20
-78.072976004456564
30
6.7168492989821971e-14
40
1.3749999999999998
210
-1.4063859564175133e-26
220
8.326672684688675e-16
230
1
0
CIRCLE
5
147
100
AcDbEntity
8
0
100
AcDbCircle
10
177.10036248261241
20
-78.072975993766249
30
6.4948046940571658e-14
40
1.3749999999999998
210
-1.4063859564175133e-26
220
8.326672684688675e-16
230
1
0
CIRCLE
5
148
100
AcDbEntity
8
0
100
AcDbCircle
10
158.05036248255837
20
-78.072975983076063
30
6.6058269965196814e-14
40
1.3749999999999998
210
-1.4063859564175133e-26
220
8.326672684688675e-16
230
1
0
CIRCLE
5
149
100
AcDbEntity
8
0
100
AcDbCircle
10
139.00036248250336
20
-78.072975972385748
30
6.3837823915946501e-14
40
1.3749999999999998
210
-1.4063859564175133e-26
220
8.326672684688675e-16
230
1
0
CIRCLE
5
150
100
AcDbEntity
8
0
100
AcDbCircle
10
119.95036248244936
20
-78.072974961695479
30
6.4948046940571658e-14
40
1.3749999999999998
210
-1.4063859564175133e-26
220
8.326672684688675e-16
230
1
0
CIRCLE
5
151
100
AcDbEntity
8
0
100
AcDbCircle
10
100.90036148239537
20
-78.072975951005148
30
6.7168492989821971e-14
40
1.3749999999999998
210
-1.4063859564175133e-26
220
8.326672684688675e-16
230
1
0
CIRCLE
5
152
100
AcDbEntity
8
0
100
AcDbCircle
10
81.850362482340671
20
-78.072975940314976
30
6.3837823915946501e-14
40
1.3749999999999998
210
-1.4063859564175133e-26
220
8.326672684688675e-16
230
1
0
CIRCLE
5
153
100
AcDbEntity
8
0
100
AcDbCircle
10
62.800362482286268
20
-78.072975929624661
30
6.6058269965196814e-14
40
1.3749999999999902
210
-9.4190465542338128e-27
220
8.326672684688676e-16
230
1
0
CIRCLE
5
154
100
AcDbEntity
8
0
100
AcDbCircle
10
43.750362482231971
20
-78.072975918934361
30
6.3837823915946501e-14
40
1.3749999999999902
210
-9.4190465542338128e-27
220
8.326672684688676e-16
230
1
0
CIRCLE
5
155
100
AcDbEntity
8
0
100
AcDbCircle
10
15.175362492885665
20
-59.022975933734649
30
5.1625370645069779e-14
40
1.3749999999999902
210
-9.4190465542338128e-27
220
8.326672684688676e-16
230
1
0
CIRCLE
5
156
100
AcDbEntity
8
0
100
AcDbCircle
10
38.987862492953667
20
-59.022975947097564
30
4.9404924595819466e-14
40
1.3749999999999902
210
-9.4190465542338128e-27
220
8.326672684688676e-16
230
1
0
CIRCLE
5
157
100
AcDbEntity
8
0
100
AcDbCircle
10
58.037862493007978
20
-59.022975957787764
30
5.0515147620444623e-14
40
1.3749999999999902
210
-9.4190465542338128e-27
220
8.326672684688676e-16
230
1
0
CIRCLE
5
158
100
AcDbEntity
8
0
100
AcDbCircle
10
77.087862493062374
20
-59.02297596847805
30
4.9404924595819466e-14
40
1.3749999999999998
210
-1.4063859564175133e-26
220
8.326672684688675e-16
230
1
0
CIRCLE
5
159
100
AcDbEntity
8
0
100
AcDbCircle
10
96.137862493116671
20
-59.022975979168351
30
4.9404924595819466e-14
40
1.3749999999999998
210
-1.4063859564175133e-26
220
8.326672684688675e-16
230
1
0
CIRCLE
5
160
100
AcDbEntity
8
0
100
AcDbCircle
10
115.18786249317137
20
-59.022975989858651
30
4.829470157119431e-14
40
1.3749999999999998
210
-1.4063859564175133e-26
220
8.326672684688675e-16
230
1
0
CIRCLE
5
161
100
AcDbEntity
8
0
100
AcDbCircle
10
134.23786249322538
20
-59.022976000548873
30
5.0515147620444623e-14
40
1.3749999999999998
210
-1.4063859564175133e-26
220
8.326672684688675e-16
230
1
0
CIRCLE
5
162
100
AcDbEntity
8
0
100
AcDbCircle
10
153.28786249327936
20
-59.022976011239159
30
5.1625370645069779e-14
40
1.3749999999999998
210
-1.4063859564175133e-26
220
8.326672684688675e-16
230
1
0
CIRCLE
5
163
100
AcDbEntity
8
0
100
AcDbCircle
10
172.33786249333437
20
-59.022976021929452
30
4.829470157119431e-14
40
1.3749999999999998
210
-1.4063859564175133e-26
220
8.326672684688675e-16
230
1
0
CIRCLE
5
164
100
AcDbEntity
8
0
100
AcDbCircle
10
191.38786249338838
20
-59.022976032619766
30
4.829470157119431e-14
40
1.3749999999999998
210
-1.4063859564175133e-26
220
8.326672684688675e-16
230
1
0
CIRCLE
5
165
100
AcDbEntity
8
0
100
AcDbCircle
10
210.43786249344336
20
-59.022976043310074
30
5.0515147620444623e-14
40
1.3749999999999998
210
-1.4063859564175133e-26
220
8.326672684688675e-16
230
1
0
CIRCLE
5
166
100
AcDbEntity
8
0
100
AcDbCircle
10
229.48786249349737
20
-59.022976054000267
30
4.9404924595819466e-14
40
1.3749999999999998
210
-1.4063859564175133e-26
220
8.326672684688675e-16
230
1
0
CIRCLE
5
167
100
AcDbEntity
8
0
100
AcDbCircle
10
248.53786249355136
20
-59.022976064690553
30
4.9404924595819466e-14
40
1.3749999999999902
210
-9.4190465542338128e-27
220
8.326672684688676e-16
230
1
0
CIRCLE
5
168
100
AcDbEntity
8
0
100
AcDbCircle
10
269.65161248824438
20
-68.547976061121062
30
5.6066262743570405e-14
40
0.85089999999999211
210
-1.9469560599803886e-27
220
8.326672684688676e-16
230
1
0
CIRCLE
5
169
100
AcDbEntity
8
0
100
AcDbCircle
10
239.01286250425937
20
-39.972976090181156
30
3.3861802251067274e-14
40
1.3749999999999902
210
-9.4190465542338128e-27
220
8.326672684688676e-16
230
1
0
CIRCLE
5
170
100
AcDbEntity
8
0
100
AcDbCircle
10
219.96286250420536
20
-39.972976079490863
30
3.3306690738754696e-14
40
1.3749999999999998
210
-1.4063859564175133e-26
220
8.326672684688675e-16
230
1
0
CIRCLE
5
171
100
AcDbEntity
8
0
100
AcDbCircle
10
200.91286250415138
20
-39.972976068800662
30
3.3306690738754696e-14
40
1.3749999999999998
210
-1.4063859564175133e-26
220
8.326672684688675e-16
230
1
0
CIRCLE
5
172
100
AcDbEntity
8
0
100
AcDbCircle
10
181.86286350409637
20
-39.972976058110369
30
3.3861802251067274e-14
40
1.3749999999999998
210
-1.4063859564175133e-26
220
8.326672684688675e-16
230
1
0
CIRCLE
5
173
100
AcDbEntity
8
0
100
AcDbCircle
10
162.81286150404236
20
-39.972976047420055
30
3.3306690738754696e-14
40
1.3749999999999998
210
-1.4063859564175133e-26
220
8.326672684688675e-16
230
1
0
CIRCLE
5
174
100
AcDbEntity
8
0
100
AcDbCircle
10
143.76286250398837
20
-39.972976036729769
30
3.3306690738754696e-14
40
1.3749999999999998
210
-1.4063859564175133e-26
220
8.326672684688675e-16
230
1
0
CIRCLE
5
175
100
AcDbEntity
8
0
100
AcDbCircle
10
124.71286250393337
20
-39.972976026039561
30
3.4416913763379853e-14
40
1.3749999999999998
210
-1.4063859564175133e-26
220
8.326672684688675e-16
230
1
0
CIRCLE
5
176
100
AcDbEntity
8
0
100
AcDbCircle
10
105.66286250387935
20
-39.972976015349261
30
3.4972025275692431e-14
40
1.3749999999999998
210
-1.4063859564175133e-26
220
8.326672684688675e-16
230
1
0
CIRCLE
5
177
100
AcDbEntity
8
0
100
AcDbCircle
10
86.612862503824871
20
-39.972976004658975
30
3.3861802251067274e-14
40
1.3749999999999998
210
-1.4063859564175133e-26
220
8.326672684688675e-16
230
1
0
CIRCLE
5
178
100
AcDbEntity
8
0
100
AcDbCircle
10
67.562863503770473
20
-39.97297599396866
30
3.3306690738754696e-14
40
1.3749999999999902
210
-9.4190465542338128e-27
220
8.326672684688676e-16
230
1
0
CIRCLE
5
179
100
AcDbEntity
8
0
100
AcDbCircle
10
48.512861503716074
20
-39.972975983278459
30
3.3861802251067274e-14
40
1.3749999999999902
210
-9.4190465542338128e-27
220
8.326672684688676e-16
230
1
0
CIRCLE
5
180
100
AcDbEntity
8
0
100
AcDbCircle
10
29.462862503661668
20
-39.972975972588159
30
3.3306690738754696e-14
40
1.3749999999999902
210
-9.4190465542338128e-27
220
8.326672684688676e-16
230
1
0
CIRCLE
5
181
100
AcDbEntity
8
0
100
AcDbCircle
10
10.412862503607345
20
-39.972975961897873
30
3.3306690738754696e-14
40
1.3749999999999902
210
-9.4190465542338128e-27
220
8.326672684688676e-16
230
1
0
CIRCLE
5
182
100
AcDbEntity
8
0
100
AcDbCircle
10
5.3328625035928567
20
-39.972975959047155
30
3.3861802251067274e-14
40
0.85089999999999211
210
-1.9469560599803886e-27
220
8.326672684688676e-16
230
1
0
CIRCLE
5
183
100
AcDbEntity
8
0
100
AcDbCircle
10
15.492862503621865
20
-39.972975964748663
30
3.3306690738754696e-14
40
0.85089999999999211
210
-1.9469560599803886e-27
220
8.326672684688676e-16
230
1
0
CIRCLE
5
184
100
AcDbEntity
8
0
100
AcDbCircle
10
24.382862503647264
20
-39.972975969737469
30
3.3306690738754696e-14
40
0.85089999999999211
210
-1.9469560599803886e-27
220
8.326672684688676e-16
230
1
0
CIRCLE
5
185
100
AcDbEntity
8
0
100
AcDbCircle
10
34.542862503676261
20
-39.972975975438857
30
3.3861802251067274e-14
40
0.85089999999999211
210
-1.9469560599803886e-27
220
8.326672684688676e-16
230
1
0
CIRCLE
5
186
100
AcDbEntity
8
0
100
AcDbCircle
10
43.43286150370168
20
-39.972975980427648
30
3.3306690738754696e-14
40
0.85089999999999211
210
-1.9469560599803886e-27
220
8.326672684688676e-16
230
1
0
CIRCLE
5
187
100
AcDbEntity
8
0
100
AcDbCircle
10
53.592861503730674
20
-39.972975986129157
30
3.2751579226442118e-14
40
0.85089999999999211
210
-1.9469560599803886e-27
220
8.326672684688676e-16
230
1
0
CIRCLE
5
188
100
AcDbEntity
8
0
100
AcDbCircle
10
62.482863503755979
20
-39.972975991117963
30
3.2751579226442118e-14
40
0.85089999999999211
210
-1.9469560599803886e-27
220
8.326672684688676e-16
230
1
0
CIRCLE
5
189
100
AcDbEntity
8
0
100
AcDbCircle
10
72.642863503784966
20
-39.972975996819464
30
3.3861802251067274e-14
40
0.85090000000000099
210
-1.1171422958190014e-26
220
8.4654505627668196e-16
230
1
0
CIRCLE
5
190
100
AcDbEntity
8
0
100
AcDbCircle
10
81.532862503810406
20
-39.972976001808256
30
3.3306690738754696e-14
40
0.85090000000000099
210
-1.1171422958190014e-26
220
8.4654505627668196e-16
230
1
0
CIRCLE
5
191
100
AcDbEntity
8
0
100
AcDbCircle
10
91.692862503839351
20
-39.972976007509757
30
3.3861802251067274e-14
40
0.85090000000000099
210
-1.1171422958190014e-26
220
8.4654505627668196e-16
230
1
0
CIRCLE
5
192
100
AcDbEntity
8
0
100
AcDbCircle
10
100.58286250386476
20
-39.972976012498464
30
3.3306690738754696e-14
40
0.85090000000000099
210
-1.1171422958190014e-26
220
8.4654505627668196e-16
230
1
0
CIRCLE
5
193
100
AcDbEntity
8
0
100
AcDbCircle
10
110.74286250389338
20
-39.972976018199965
30
3.4416913763379853e-14
40
0.85090000000000099
210
-1.1171422958190014e-26
220
8.4654505627668196e-16
230
1
0
CIRCLE
5
194
100
AcDbEntity
8
0
100
AcDbCircle
10
119.63286250391937
20
-39.972976023188757
30
3.4972025275692431e-14
40
0.85090000000000099
210
-1.1171422958190014e-26
220
8.4654505627668196e-16
230
1
0
CIRCLE
5
195
100
AcDbEntity
8
0
100
AcDbCircle
10
129.79286250394838
20
-39.972976028890258
30
3.4416913763379853e-14
40
0.85090000000000099
210
-1.1171422958190014e-26
220
8.4654505627668196e-16
230
1
0
CIRCLE
5
196
100
AcDbEntity
8
0
100
AcDbCircle
10
138.68286250397338
20
-39.972976033879064
30
3.2751579226442118e-14
40
0.85090000000000099
210
-1.1171422958190014e-26
220
8.4654505627668196e-16
230
1
0
CIRCLE
5
197
100
AcDbEntity
8
0
100
AcDbCircle
10
148.84286250400237
20
-39.972976039580573
30
3.2751579226442118e-14
40
0.85089999999999988
210
-1.1842427255072764e-26
220
8.326672684688675e-16
230
1
0
CIRCLE
5
198
100
AcDbEntity
8
0
100
AcDbCircle
10
157.73286150402737
20
-39.972976044569364
30
3.3306690738754696e-14
40
0.85089999999999988
210
-1.1842427255072764e-26
220
8.326672684688675e-16
230
1
0
CIRCLE
5
199
100
AcDbEntity
8
0
100
AcDbCircle
10
167.89286150405638
20
-39.972976050270773
30
3.3306690738754696e-14
40
0.85090000000000099
210
-1.1171422958190014e-26
220
8.4654505627668196e-16
230
1
0
CIRCLE
5
200
100
AcDbEntity
8
0
100
AcDbCircle
10
176.78286350408234
20
-39.972976055259664
30
3.3861802251067274e-14
40
0.85090000000000099
210
-1.1171422958190014e-26
220
8.4654505627668196e-16
230
1
0
CIRCLE
5
201
100
AcDbEntity
8
0
100
AcDbCircle
10
186.94286350411136
20
-39.972976060961066
30
3.3306690738754696e-14
40
0.85090000000000099
210
-1.1171422958190014e-26
220
8.4654505627668196e-16
230
1
0
CIRCLE
5
202
100
AcDbEntity
8
0
100
AcDbCircle
10
195.83286250413636
20
-39.972976065949851
30
3.3861802251067274e-14
40
0.85090000000000099
210
-1.1171422958190014e-26
220
8.4654505627668196e-16
230
1
0
CIRCLE
5
203
100
AcDbEntity
8
0
100
AcDbCircle
10
205.99286250416537
20
-39.97297607165136
30
3.3861802251067274e-14
40
0.85090000000000099
210
-1.1171422958190014e-26
220
8.4654505627668196e-16
230
1
0
CIRCLE
5
204
100
AcDbEntity
8
0
100
AcDbCircle
10
214.88286250419137
20
-39.972976076640165
30
3.4416913763379853e-14
40
0.85090000000000099
210
-1.1171422958190014e-26
220
8.4654505627668196e-16
230
1
0
CIRCLE
5
205
100
AcDbEntity
8
0
100
AcDbCircle
10
225.04286250422038
20
-39.972976082341667
30
3.3861802251067274e-14
40
0.85090000000000099
210
-1.1171422958190014e-26
220
8.4654505627668196e-16
230
1
0
CIRCLE
5
206
100
AcDbEntity
8
0
100
AcDbCircle
10
233.93286250424538
20
-39.972976087330458
30
3.219646771412954e-14
40
0.85089999999999211
210
-1.9469560599803886e-27
220
8.326672684688676e-16
230
1
0
CIRCLE
5
207
100
AcDbEntity
8
0
100
AcDbCircle
10
244.09286250427439
20
-39.97297609303196
30
3.3861802251067274e-14
40
0.85089999999999211
210
-1.9469560599803886e-27
220
8.326672684688676e-16
230
1
0
CIRCLE
5
208
100
AcDbEntity
8
0
100
AcDbCircle
10
253.61786249356638
20
-59.022976067541251
30
4.9404924595819466e-14
40
0.85089999999999211
210
-1.9469560599803886e-27
220
8.326672684688676e-16
230
1
0
CIRCLE
5
209
100
AcDbEntity
8
0
100
AcDbCircle
10
243.45786249353736
20
-59.022976061839849
30
4.9404924595819466e-14
40
0.85089999999999211
210
-1.9469560599803886e-27
220
8.326672684688676e-16
230
1
0
CIRCLE
5
210
100
AcDbEntity
8
0
100
AcDbCircle
10
234.56786249351137
20
-59.02297605685095
30
5.0515147620444623e-14
40
0.85089999999999211
210
-1.9469560599803886e-27
220
8.326672684688676e-16
230
1
0
CIRCLE
5
211
100
AcDbEntity
8
0
100
AcDbCircle
10
224.40786249348338
20
-59.022976051149456
30
5.0515147620444623e-14
40
0.85090000000000099
210
-1.1171422958190014e-26
220
8.4654505627668196e-16
230
1
0
CIRCLE
5
212
100
AcDbEntity
8
0
100
AcDbCircle
10
215.51786249345736
20
-59.022976046160771
30
4.829470157119431e-14
40
0.85090000000000099
210
-1.1171422958190014e-26
220
8.4654505627668196e-16
230
1
0
CIRCLE
5
213
100
AcDbEntity
8
0
100
AcDbCircle
10
205.35786249342837
20
-59.02297604045927
30
5.0515147620444623e-14
40
0.85090000000000099
210
-1.1171422958190014e-26
220
8.4654505627668196e-16
230
1
0
CIRCLE
5
214
100
AcDbEntity
8
0
100
AcDbCircle
10
196.46786249340337
20
-59.02297603547045
30
5.0515147620444623e-14
40
0.85090000000000099
210
-1.1171422958190014e-26
220
8.4654505627668196e-16
230
1
0
CIRCLE
5
215
100
AcDbEntity
8
0
100
AcDbCircle
10
186.30786249337436
20
-59.022976029768948
30
5.0515147620444623e-14
40
0.85090000000000099
210
-1.1171422958190014e-26
220
8.4654505627668196e-16
230
1
0
CIRCLE
5
216
100
AcDbEntity
8
0
100
AcDbCircle
10
177.41786249334837
20
-59.022976024780142
30
4.829470157119431e-14
40
0.85090000000000099
210
-1.1171422958190014e-26
220
8.4654505627668196e-16
230
1
0
CIRCLE
5
217
100
AcDbEntity
8
0
100
AcDbCircle
10
167.25786249331941
20
-59.022976019078754
30
4.829470157119431e-14
40
0.85090000000000099
210
-1.1171422958190014e-26
220
8.4654505627668196e-16
230
1
0
CIRCLE
5
218
100
AcDbEntity
8
0
100
AcDbCircle
10
158.36786249329438
20
-59.022976014089963
30
5.0515147620444623e-14
40
0.85089999999999988
210
-1.1842427255072764e-26
220
8.326672684688675e-16
230
1
0
CIRCLE
5
219
100
AcDbEntity
8
0
100
AcDbCircle
10
148.20786249326537
20
-59.022976008388461
30
5.1625370645069779e-14
40
0.85089999999999988
210
-1.1842427255072764e-26
220
8.326672684688675e-16
230
1
0
CIRCLE
5
220
100
AcDbEntity
8
0
100
AcDbCircle
10
139.31786249324037
20
-59.02297600339967
30
4.9404924595819466e-14
40
0.85090000000000099
210
-1.1171422958190014e-26
220
8.4654505627668196e-16
230
1
0
CIRCLE
5
221
100
AcDbEntity
8
0
100
AcDbCircle
10
129.15786249321138
20
-59.022975997698175
30
4.829470157119431e-14
40
0.85090000000000099
210
-1.1171422958190014e-26
220
8.4654505627668196e-16
230
1
0
CIRCLE
5
222
100
AcDbEntity
8
0
100
AcDbCircle
10
120.26786249318536
20
-59.02297599270937
30
5.1625370645069779e-14
40
0.85090000000000099
210
-1.1171422958190014e-26
220
8.4654505627668196e-16
230
1
0
CIRCLE
5
223
100
AcDbEntity
8
0
100
AcDbCircle
10
110.10786249315638
20
-59.022975987007868
30
4.9404924595819466e-14
40
0.85090000000000099
210
-1.1171422958190014e-26
220
8.4654505627668196e-16
230
1
0
CIRCLE
5
224
100
AcDbEntity
8
0
100
AcDbCircle
10
101.21786249313138
20
-59.022975982019041
30
4.829470157119431e-14
40
0.85090000000000099
210
-1.1171422958190014e-26
220
8.4654505627668196e-16
230
1
0
CIRCLE
5
225
100
AcDbEntity
8
0
100
AcDbCircle
10
91.057862493102277
20
-59.022975976317653
30
4.9404924595819466e-14
40
0.85090000000000099
210
-1.1171422958190014e-26
220
8.4654505627668196e-16
230
1
0
CIRCLE
5
226
100
AcDbEntity
8
0
100
AcDbCircle
10
82.167862493076882
20
-59.022975971328862
30
4.9404924595819466e-14
40
0.85090000000000099
210
-1.1171422958190014e-26
220
8.4654505627668196e-16
230
1
0
CIRCLE
5
227
100
AcDbEntity
8
0
100
AcDbCircle
10
72.007862493047867
20
-59.02297596562736
30
5.0515147620444623e-14
40
0.85089999999999211
210
-1.9469560599803886e-27
220
8.326672684688676e-16
230
1
0
CIRCLE
5
228
100
AcDbEntity
8
0
100
AcDbCircle
10
63.117862493022578
20
-59.022975960638568
30
4.9404924595819466e-14
40
0.85089999999999211
210
-1.9469560599803886e-27
220
8.326672684688676e-16
230
1
0
CIRCLE
5
229
100
AcDbEntity
8
0
100
AcDbCircle
10
52.957862492993478
20
-59.022975954937067
30
4.9404924595819466e-14
40
0.85089999999999211
210
-1.9469560599803886e-27
220
8.326672684688676e-16
230
1
0
CIRCLE
5
230
100
AcDbEntity
8
0
100
AcDbCircle
10
44.067862492968175
20
-59.022975949948247
30
5.0515147620444623e-14
40
0.85089999999999211
210
-1.9469560599803886e-27
220
8.326672684688676e-16
230
1
0
CIRCLE
5
231
100
AcDbEntity
8
0
100
AcDbCircle
10
33.907862492939167
20
-59.022975944246774
30
5.0515147620444623e-14
40
0.85089999999999211
210
-1.9469560599803886e-27
220
8.326672684688676e-16
230
1
0
CIRCLE
5
232
100
AcDbEntity
8
0
100
AcDbCircle
10
20.255362492900169
20
-59.02297593658546
30
4.9404924595819466e-14
40
0.85089999999999211
210
-1.9469560599803886e-27
220
8.326672684688676e-16
230
1
0
CIRCLE
5
233
100
AcDbEntity
8
0
100
AcDbCircle
10
10.095362492871168
20
-59.022975930883952
30
4.9404924595819466e-14
40
0.85089999999999211
210
-1.9469560599803886e-27
220
8.326672684688676e-16
230
1
0
CIRCLE
5
234
100
AcDbEntity
8
0
100
AcDbCircle
10
7.714112482129087
20
-78.072974898711976
30
6.6058269965196814e-14
40
0.85089999999999211
210
-1.9469560599803886e-27
220
8.326672684688676e-16
230
1
0
CIRCLE
5
235
100
AcDbEntity
8
0
100
AcDbCircle
10
22.636612482171657
20
-78.07297490708595
30
6.3837823915946501e-14
40
0.85089999999999211
210
-1.9469560599803886e-27
220
8.326672684688676e-16
230
1
0
CIRCLE
5
236
100
AcDbEntity
8
0
100
AcDbCircle
10
38.670362482217463
20
-78.072975916083664
30
6.6058269965196814e-14
40
0.85089999999999211
210
-1.9469560599803886e-27
220
8.326672684688676e-16
230
1
0
CIRCLE
5
237
100
AcDbEntity
8
0
100
AcDbCircle
10
48.830362482246478
20
-78.072975921785059
30
6.4948046940571658e-14
40
0.85089999999999211
210
-1.9469560599803886e-27
220
8.326672684688676e-16
230
1
0
CIRCLE
5
238
100
AcDbEntity
8
0
100
AcDbCircle
10
57.720362482271881
20
-78.072975926773879
30
6.3837823915946501e-14
40
0.85089999999999211
210
-1.9469560599803886e-27
220
8.326672684688676e-16
230
1
0
CIRCLE
5
239
100
AcDbEntity
8
0
100
AcDbCircle
10
67.880362482300868
20
-78.072975932475345
30
6.3837823915946501e-14
40
0.85089999999999211
210
-1.9469560599803886e-27
220
8.326672684688676e-16
230
1
0
CIRCLE
5
240
100
AcDbEntity
8
0
100
AcDbCircle
10
76.770362482326192
20
-78.072975937464165
30
6.6058269965196814e-14
40
0.85090000000000099
210
-1.1171422958190014e-26
220
8.4654505627668196e-16
230
1
0
CIRCLE
5
241
100
AcDbEntity
8
0
100
AcDbCircle
10
86.930362482355164
20
-78.072975943165645
30
6.4948046940571658e-14
40
0.85090000000000099
210
-1.1171422958190014e-26
220
8.4654505627668196e-16
230
1
0
CIRCLE
5
242
100
AcDbEntity
8
0
100
AcDbCircle
10
95.820361482380576
20
-78.072975948154465
30
6.4948046940571658e-14
40
0.85090000000000099
210
-1.1171422958190014e-26
220
8.4654505627668196e-16
230
1
0
CIRCLE
5
243
100
AcDbEntity
8
0
100
AcDbCircle
10
105.98036148240936
20
-78.072975953855945
30
6.3837823915946501e-14
40
0.85090000000000099
210
-1.1171422958190014e-26
220
8.4654505627668196e-16
230
1
0
CIRCLE
5
244
100
AcDbEntity
8
0
100
AcDbCircle
10
114.87036248243538
20
-78.072974958844767
30
6.3837823915946501e-14
40
0.85090000000000099
210
-1.1171422958190014e-26
220
8.4654505627668196e-16
230
1
0
CIRCLE
5
245
100
AcDbEntity
8
0
100
AcDbCircle
10
125.03036248246437
20
-78.072974964546148
30
6.3837823915946501e-14
40
0.85090000000000099
210
-1.1171422958190014e-26
220
8.4654505627668196e-16
230
1
0
CIRCLE
5
246
100
AcDbEntity
8
0
100
AcDbCircle
10
133.92036248248937
20
-78.07297596953498
30
6.3837823915946501e-14
40
0.85090000000000099
210
-1.1171422958190014e-26
220
8.4654505627668196e-16
230
1
0
CIRCLE
5
247
100
AcDbEntity
8
0
100
AcDbCircle
10
144.08036248251838
20
-78.07297597523646
30
6.4948046940571658e-14
40
0.85089999999999988
210
-1.1842427255072764e-26
220
8.326672684688675e-16
230
1
0
CIRCLE
5
248
100
AcDbEntity
8
0
100
AcDbCircle
10
152.97036248254338
20
-78.072975980225266
30
6.4948046940571658e-14
40
0.85089999999999988
210
-1.1842427255072764e-26
220
8.326672684688675e-16
230
1
0
CIRCLE
5
249
100
AcDbEntity
8
0
100
AcDbCircle
10
163.13036248257237
20
-78.072975985926774
30
6.3837823915946501e-14
40
0.85090000000000099
210
-1.1171422958190014e-26
220
8.4654505627668196e-16
230
1
0
CIRCLE
5
250
100
AcDbEntity
8
0
100
AcDbCircle
10
172.02036248259839
20
-78.072975990915566
30
6.7168492989821971e-14
40
0.85090000000000099
210
-1.1171422958190014e-26
220
8.4654505627668196e-16
230
1
0
CIRCLE
5
251
100
AcDbEntity
8
0
100
AcDbCircle
10
182.18036248262737
20
-78.07297599661706
30
6.6058269965196814e-14
40
0.85090000000000099
210
-1.1171422958190014e-26
220
8.4654505627668196e-16
230
1
0
CIRCLE
5
252
100
AcDbEntity
8
0
100
AcDbCircle
10
191.0703624826524
20
-78.072976001605781
30
6.4948046940571658e-14
40
0.85090000000000099
210
-1.1171422958190014e-26
220
8.4654505627668196e-16
230
1
0
CIRCLE
5
253
100
AcDbEntity
8
0
100
AcDbCircle
10
201.23036248268136
20
-78.072976007307261
30
6.4948046940571658e-14
40
0.85090000000000099
210
-1.1171422958190014e-26
220
8.4654505627668196e-16
230
1
0
CIRCLE
5
254
100
AcDbEntity
8
0
100
AcDbCircle
10
210.12036248270641
20
-78.07297501229607
30
6.4948046940571658e-14
40
0.85090000000000099
210
-1.1171422958190014e-26
220
8.4654505627668196e-16
230
1
0
CIRCLE
5
255
100
AcDbEntity
8
0
100
AcDbCircle
10
220.28036248273537
20
-78.072975017997564
30
6.4948046940571658e-14
40
0.85090000000000099
210
-1.1171422958190014e-26
220
8.4654505627668196e-16
230
1
0
CIRCLE
5
256
100
AcDbEntity
8
0
100
AcDbCircle
10
229.17036248276136
20
-78.07297502298637
30
6.2727600891321345e-14
40
0.85090000000000099
210
-1.1171422958190014e-26
220
8.4654505627668196e-16
230
1
0
CIRCLE
5
257
100
AcDbEntity
8
0
100
AcDbCircle
10
239.33036248279038
20
-78.072975028687864
30
6.3837823915946501e-14
40
0.85089999999999211
210
-1.9469560599803886e-27
220
8.326672684688676e-16
230
1
0
CIRCLE
5
258
100
AcDbEntity
8
0
100
AcDbCircle
10
258.38036248284436
20
-78.072976039378162
30
6.4948046940571658e-14
40
0.85089999999999211
210
-1.9469560599803886e-27
220
8.326672684688676e-16
230
1
0
CIRCLE
5
259
100
AcDbEntity
8
0
100
AcDbCircle
10
248.22036248281537
20
-78.072976033676653
30
6.4948046940571658e-14
40
0.85089999999999211
210
-1.9469560599803886e-27
220
8.326672684688676e-16
230
1
0
CIRCLE
5
260
100
AcDbEntity
8
0
100
AcDbCircle
10
260.12660348284936
20
-78.07298604035806
30
6.4948046940571658e-14
40
0.85089999999999211
210
-1.9469560599803886e-27
220
8.326672684688676e-16
230
1
0
CIRCLE
5
261
100
AcDbEntity
8
0
100
AcDbCircle
10
282.19286247217735
20
-97.122976021905288
30
8.1601392309949006e-14
40
0.85089999999999211
210
-1.9469560599803886e-27
220
8.326672684688676e-16
230
1
0
CIRCLE
5
262
100
AcDbEntity
8
0
100
AcDbCircle
10
272.03286247214839
20
-97.122976016203765
30
8.1601392309949006e-14
40
0.85089999999999211
210
-1.9469560599803886e-27
220
8.326672684688676e-16
230
1
0
CIRCLE
5
263
100
AcDbEntity
8
0
100
AcDbCircle
10
255.99911247210241
20
-97.122976007206162
30
8.0491169285323849e-14
40
0.85089999999999211
210
-1.9469560599803886e-27
220
8.326672684688676e-16
230
1
0
CIRCLE
5
264
100
AcDbEntity
8
0
100
AcDbCircle
10
245.83911247207337
20
-97.122976001504654
30
8.2711615334574162e-14
40
0.85089999999999211
210
-1.9469560599803886e-27
220
8.326672684688676e-16
230
1
0
CIRCLE
5
265
100
AcDbEntity
8
0
100
AcDbCircle
10
229.80536247202738
20
-97.122976992507049
30
8.0491169285323849e-14
40
0.85090000000000099
210
-1.1171422958190014e-26
220
8.4654505627668196e-16
230
1
0
CIRCLE
5
266
100
AcDbEntity
8
0
100
AcDbCircle
10
219.6453624719984
20
-97.122976986805455
30
8.0491169285323849e-14
40
0.85090000000000099
210
-1.1171422958190014e-26
220
8.4654505627668196e-16
230
1
0
CIRCLE
5
267
100
AcDbEntity
8
0
100
AcDbCircle
10
210.75536147197337
20
-97.122975981816765
30
8.0491169285323849e-14
40
0.85090000000000099
210
-1.1171422958190014e-26
220
8.4654505627668196e-16
230
1
0
CIRCLE
5
268
100
AcDbEntity
8
0
100
AcDbCircle
10
200.59536147194436
20
-97.122975976115185
30
7.9380946260698693e-14
40
0.85090000000000099
210
-1.1171422958190014e-26
220
8.4654505627668196e-16
230
1
0
CIRCLE
5
269
100
AcDbEntity
8
0
100
AcDbCircle
10
191.70536247191936
20
-97.122975971126465
30
8.1601392309949006e-14
40
0.85090000000000099
210
-1.1171422958190014e-26
220
8.4654505627668196e-16
230
1
0
CIRCLE
5
270
100
AcDbEntity
8
0
100
AcDbCircle
10
181.54536247189037
20
-97.12297596542497
30
8.2711615334574162e-14
40
0.85090000000000099
210
-1.1171422958190014e-26
220
8.4654505627668196e-16
230
1
0
CIRCLE
5
271
100
AcDbEntity
8
0
100
AcDbCircle
10
172.65536247186441
20
-97.12297596043615
30
8.0491169285323849e-14
40
0.85090000000000099
210
-1.1171422958190014e-26
220
8.4654505627668196e-16
230
1
0
CIRCLE
5
272
100
AcDbEntity
8
0
100
AcDbCircle
10
162.49536247183534
20
-97.122975954734699
30
7.8270723236073536e-14
40
0.85090000000000099
210
-1.1171422958190014e-26
220
8.4654505627668196e-16
230
1
0
CIRCLE
5
273
100
AcDbEntity
8
0
100
AcDbCircle
10
153.60536247181037
20
-97.122975949745864
30
8.1601392309949006e-14
40
0.85089999999999988
210
-1.1842427255072764e-26
220
8.326672684688675e-16
230
1
0
CIRCLE
5
274
100
AcDbEntity
8
0
100
AcDbCircle
10
143.44536247178138
20
-97.122975944044455
30
8.1601392309949006e-14
40
0.85089999999999988
210
-1.1842427255072764e-26
220
8.326672684688675e-16
230
1
0
CIRCLE
5
275
100
AcDbEntity
8
0
100
AcDbCircle
10
134.55536347175538
20
-97.122975939055536
30
8.0491169285323849e-14
40
0.85090000000000099
210
-1.1171422958190014e-26
220
8.4654505627668196e-16
230
1
0
CIRCLE
5
276
100
AcDbEntity
8
0
100
AcDbCircle
10
124.39536347172637
20
-97.122975933354084
30
8.2711615334574162e-14
40
0.85090000000000099
210
-1.1171422958190014e-26
220
8.4654505627668196e-16
230
1
0
CIRCLE
5
277
100
AcDbEntity
8
0
100
AcDbCircle
10
115.50536147170138
20
-97.122975928365364
30
7.9380946260698693e-14
40
0.85090000000000099
210
-1.1171422958190014e-26
220
8.4654505627668196e-16
230
1
0
CIRCLE
5
278
100
AcDbEntity
8
0
100
AcDbCircle
10
105.34536147167238
20
-97.122975922663869
30
8.0491169285323849e-14
40
0.85090000000000099
210
-1.1171422958190014e-26
220
8.4654505627668196e-16
230
1
0
CIRCLE
5
279
100
AcDbEntity
8
0
100
AcDbCircle
10
96.455362471647078
20
-97.122975917675035
30
8.1601392309949006e-14
40
0.85090000000000099
210
-1.1171422958190014e-26
220
8.4654505627668196e-16
230
1
0
CIRCLE
5
280
100
AcDbEntity
8
0
100
AcDbCircle
10
86.295362471618077
20
-97.122975911973583
30
8.1601392309949006e-14
40
0.85090000000000099
210
-1.1171422958190014e-26
220
8.4654505627668196e-16
230
1
0
CIRCLE
5
281
100
AcDbEntity
8
0
100
AcDbCircle
10
77.405362471592781
20
-97.122975906984763
30
7.9380946260698693e-14
40
0.85090000000000099
210
-1.1171422958190014e-26
220
8.4654505627668196e-16
230
1
0
CIRCLE
5
282
100
AcDbEntity
8
0
100
AcDbCircle
10
67.245362471563766
20
-97.122975901283269
30
8.0491169285323849e-14
40
0.85089999999999211
210
-1.9469560599803886e-27
220
8.326672684688676e-16
230
1
0
CIRCLE
5
283
100
AcDbEntity
8
0
100
AcDbCircle
10
58.355362471538371
20
-97.122975896294548
30
8.0491169285323849e-14
40
0.85089999999999211
210
-1.9469560599803886e-27
220
8.326672684688676e-16
230
1
0
CIRCLE
5
284
100
AcDbEntity
8
0
100
AcDbCircle
10
48.19536247150937
20
-97.122975890592983
30
8.1601392309949006e-14
40
0.85089999999999211
210
-1.9469560599803886e-27
220
8.326672684688676e-16
230
1
0
CIRCLE
5
285
100
AcDbEntity
8
0
100
AcDbCircle
10
39.305362471483967
20
-97.122975885604262
30
8.0491169285323849e-14
40
0.85089999999999211
210
-1.9469560599803886e-27
220
8.326672684688676e-16
230
1
0
CIRCLE
5
286
100
AcDbEntity
8
0
100
AcDbCircle
10
29.145362471454966
20
-97.122975879902782
30
8.1601392309949006e-14
40
0.85089999999999211
210
-1.9469560599803886e-27
220
8.326672684688676e-16
230
1
0
CIRCLE
5
287
100
AcDbEntity
8
0
100
AcDbCircle
10
27.399078471449965
20
-97.122985878922762
30
8.0491169285323849e-14
40
0.85089999999999211
210
-1.9469560599803886e-27
220
8.326672684688676e-16
230
1
0
LWPOLYLINE
5
288
100
AcDbEntity
8
0
100
AcDbPolyline
90
2
70
1
43
0.0
10
17.55658304042155
20
-96.333541982467437
42
1.4800600934784127
10
17.556607902418186
20
-97.912419764332668
42
1.4800600934853494
0
CIRCLE
5
289
100
AcDbEntity
8
0
100
AcDbCircle
10
7.714112460658507
20
-116.17297583704007
30
9.936496070395151e-14
40
0.85089999999999211
210
-1.9469560599803886e-27
220
8.326672684688676e-16
230
1
0
CIRCLE
5
290
100
AcDbEntity
8
0
100
AcDbCircle
10
20.255362460694268
20
-116.17297584407807
30
9.7144514654701197e-14
40
0.85089999999999211
210
-1.9469560599803886e-27
220
8.326672684688676e-16
230
1
0
CIRCLE
5
291
100
AcDbEntity
8
0
100
AcDbCircle
10
31.526612460726469
20
-116.17297585040306
30
9.7144514654701197e-14
40
0.85089999999999211
210
-1.9469560599803886e-27
220
8.326672684688676e-16
230
1
0
CIRCLE
5
292
100
AcDbEntity
8
0
100
AcDbCircle
10
44.067862460762271
20
-116.17297585744109
30
9.936496070395151e-14
40
0.85089999999999211
210
-1.9469560599803886e-27
220
8.326672684688676e-16
230
1
0
CIRCLE
5
293
100
AcDbEntity
8
0
100
AcDbCircle
10
55.339112460794475
20
-116.17297586376608
30
9.7144514654701197e-14
40
0.85089999999999211
210
-1.9469560599803886e-27
220
8.326672684688676e-16
230
1
0
CIRCLE
5
294
100
AcDbEntity
8
0
100
AcDbCircle
10
67.88036246083027
20
-116.17297587080407
30
9.7144514654701197e-14
40
0.85089999999999211
210
-1.9469560599803886e-27
220
8.326672684688676e-16
230
1
0
CIRCLE
5
295
100
AcDbEntity
8
0
100
AcDbCircle
10
126.77661246099836
20
-116.17297590385508
30
9.7144514654701197e-14
40
0.85090000000000099
210
-1.1171422958190014e-26
220
8.4654505627668196e-16
230
1
0
CIRCLE
5
296
100
AcDbEntity
8
0
100
AcDbCircle
10
136.93661246102738
20
-116.17297590955604
30
9.7144514654701197e-14
40
0.85090000000000099
210
-1.1171422958190014e-26
220
8.4654505627668196e-16
230
1
0
CIRCLE
5
297
100
AcDbEntity
8
0
100
AcDbCircle
10
138.68286246103236
20
-116.17297591053607
30
9.7144514654701197e-14
40
0.85090000000000099
210
-1.1171422958190014e-26
220
8.4654505627668196e-16
230
1
0
CIRCLE
5
298
100
AcDbEntity
8
0
100
AcDbCircle
10
148.84286246106137
20
-116.17297591623807
30
9.7144514654701197e-14
40
0.85089999999999988
210
-1.1842427255072764e-26
220
8.326672684688675e-16
230
1
0
CIRCLE
5
299
100
AcDbEntity
8
0
100
AcDbCircle
10
208.37411246123136
20
-116.17297594964506
30
9.7144514654701197e-14
40
0.85090000000000099
210
-1.1171422958190014e-26
220
8.4654505627668196e-16
230
1
0
CIRCLE
5
300
100
AcDbEntity
8
0
100
AcDbCircle
10
219.6453624612634
20
-116.17297595597006
30
9.936496070395151e-14
40
0.85090000000000099
210
-1.1171422958190014e-26
220
8.4654505627668196e-16
230
1
0
CIRCLE
5
301
100
AcDbEntity
8
0
100
AcDbCircle
10
232.18661246129938
20
-116.17297596300705
30
9.7144514654701197e-14
40
0.85090000000000099
210
-1.1171422958190014e-26
220
8.4654505627668196e-16
230
1
0
CIRCLE
5
302
100
AcDbEntity
8
0
100
AcDbCircle
10
252.98286246135837
20
-116.1729759746781
30
9.7144514654701197e-14
40
0.85089999999999211
210
-1.9469560599803886e-27
220
8.326672684688676e-16
230
1
0
CIRCLE
5
303
100
AcDbEntity
8
0
100
AcDbCircle
10
263.14286246138738
20
-116.17297598037909
30
9.7144514654701197e-14
40
0.85089999999999211
210
-1.9469560599803886e-27
220
8.326672684688676e-16
230
1
0
CIRCLE
5
304
100
AcDbEntity
8
0
100
AcDbCircle
10
272.03286246141334
20
-116.17297598536807
30
9.4924068605450884e-14
40
0.85089999999999211
210
-1.9469560599803886e-27
220
8.326672684688676e-16
230
1
0
CIRCLE
5
305
100
AcDbEntity
8
0
100
AcDbCircle
10
282.19286246144139
20
-116.17297599106908
30
9.936496070395151e-14
40
0.85089999999999211
210
-1.9469560599803886e-27
220
8.326672684688676e-16
230
1
0
CIRCLE
5
306
100
AcDbEntity
8
0
100
AcDbCircle
10
27.258343738412883
20
-51.846344236774009
30
4.3298697960381105e-14
40
2.9500000000000015
210
-5.7993693048741098e-25
220
8.3266726846886918e-16
230
1
0
CIRCLE
5
307
100
AcDbEntity
8
0
100
AcDbCircle
10
264.01598650364349
20
-103.62297594385095
30
8.7152507433074788e-14
40
2.9499999999999895
210
-1.4071175430404323e-24
220
8.3266726846886908e-16
230
1
0
LWPOLYLINE
5
308
100
AcDbEntity
8
0
100
AcDbPolyline
90
106
70
1
43
0.0
10
251.64985349077364
20
-33.713895564108832
42
0.41421356656718111
10
250.64985347644415
20
-32.713895564118687
10
215.86286151727219
20
-32.713896062597428
42
0.41421355777291063
10
213.8628615475503
20
-34.713896058225153
10
213.86286154544968
20
-36.239862539876185
42
-0.41421356190133723
10
213.26286154656171
20
-36.839862538078719
10
207.6128625037847
20
-36.839862539401352
42
-0.41421356244164881
10
207.01286250364421
20
-36.2398625394014
10
207.01286250364407
20
-34.713896218071874
42
0.41421356657008107
10
205.01286247498524
20
-32.71389621807203
10
101.56286151879458
20
-32.713897700454453
42
0.41421355817609407
10
99.562861547453494
20
-34.713897700454474
10
99.562861547453508
20
-36.239862642732994
42
-0.41421356237309725
10
98.962861547453514
20
-36.839862642733003
10
93.312862503643998
20
-36.839862642733017
42
-0.41421356237310802
10
92.71286250364399
20
-36.23986264273298
10
92.712862503644061
20
-34.713897855928998
42
0.41421356657010899
10
90.712862474985272
20
-32.713897855929048
10
25.362861516890618
20
-32.713898792359132
42
0.41421355791689957
10
23.362861547168716
20
-34.713898788970084
10
23.362861545818326
20
-36.23986258417667
42
-0.41421356204533633
10
22.762861546930282
20
-36.839862582674215
10
17.112862503784577
20
-36.839862583996855
42
-0.41421356244164664
10
16.512862503644111
20
-36.239862583996882
10
16.51286250364403
20
-34.713898947833599
42
0.41421356657008529
10
14.51286247498512
20
-32.713898947833741
10
3.8124904745178512
20
-32.713899101164266
42
0.41421354544306771
10
2.812490488847307
20
-33.71389905769098
10
2.812486672218669
20
-121.50641510472059
42
0.41421352594159683
10
3.8124865043604927
20
-122.50641514819387
10
20.059434323192555
20
-122.50641787537711
42
0.41421361099688869
10
22.059434658908902
20
-120.5064178790696
10
22.059434659880406
20
-119.98020007381174
42
-0.41421356176380048
10
22.659434658768447
20
-119.38020007589091
10
28.309433701193214
20
-119.38020007456826
42
-0.41421356244164015
10
28.90943370133369
20
-119.98020007456822
10
28.909433701333729
20
-120.50641969663849
42
0.41421351320855354
10
30.909433365617367
20
-122.50641969663837
10
49.946426523251937
20
-122.50642289215415
10
76.818611531812522
20
-122.50644796699837
42
0.41421383567912951
10
77.818612464927725
20
-121.5064479669889
10
77.81861246478168
20
-106.68797588997109
42
-0.41421356237284007
10
78.818612464771775
20
-105.68797588996206
10
89.612862464785451
20
-105.68797588985507
42
-0.414213562373069
10
90.61286246479537
20
-106.68797588984506
10
90.612862464952627
20
-122.64785672532167
42
0.41421328906712895
10
91.612861531837467
20
-123.64785672531136
10
176.89461153210911
20
-123.64793630300822
42
0.41421383567913994
10
177.89461246522436
20
-122.64793630299879
10
177.89461246506738
20
-106.68797594613108
42
-0.41421356237310025
10
178.89461246505738
20
-105.68797594612107
10
184.89461246505732
20
-105.68797594606207
42
-0.41421356237308982
10
185.89461246506741
20
-106.68797594605203
10
185.89461246522464
20
-122.64794563417053
42
0.41421328906707172
10
186.89461153210974
20
-123.64794563416018
10
195.91286153216416
20
-123.64795404922633
42
0.41421383567909309
10
196.91286246527935
20
-122.64795404921692
10
196.91286246512141
20
-106.68797595680306
42
-0.41421356237280366
10
197.91286246511137
20
-105.68797595679405
10
203.9128624651114
20
-105.68797595673405
42
-0.41421356237338641
10
204.91286246512141
20
-106.68797595672508
10
204.91286246527864
20
-122.64796338038862
42
0.41421328906711857
10
205.91286153216379
20
-123.64796338037829
10
212.93966347719402
20
-123.64796993719438
10
235.99264916522162
20
-123.64797120988165
42
0.41421357854286245
10
236.99264922042869
20
-122.6479712098816
10
236.99264922042843
20
-106.26832592510929
42
-0.41421356237309503
10
237.99264922042846
20
-105.26832592510928
10
249.40764922042825
20
-105.26832592510921
42
-0.41421356237308982
10
250.40764922042825
20
-106.26832592510921
10
250.40764922042857
20
-121.66557510893489
42
0.41421459336619298
10
251.40765274045816
20
-122.66557510892882
10
262.18444169758305
20
-122.66553717431493
42
0.41421253138072789
10
264.18443465752438
20
-120.66553717432731
10
264.18443465752432
20
-119.9802000182374
42
-0.41421356230451312
10
264.78443465641237
20
-119.38020001920891
10
270.43443370119331
20
-119.38020001788621
42
-0.41421356244168567
10
271.03443370133385
20
-119.9802000178863
10
271.0344337013338
20
-120.66549898201137
42
0.4142145933662138
10
273.03444074139281
20
-122.66549898199935
10
301.56247404630597
20
-122.66539856248346
42
0.41421257015961466
10
302.56247052627663
20
-121.66539843009012
10
302.56245888153677
20
-33.713894702169114
42
0.41421352779116499
10
301.56245886720734
20
-32.713894834568663
10
292.06286151689068
20
-32.713894970692749
42
0.41421355791690734
10
290.06286154716872
20
-34.713894967303688
10
290.06286154581835
20
-36.239862521743021
42
-0.41421356204532556
10
289.46286154693036
20
-36.839862520240516
10
284.02585350823756
20
-36.839862521513304
42
0.41421356230739109
10
283.52585350835466
20
-37.339862521518235
10
283.52585350849239
20
-51.227986099514254
42
0.41421356237310025
10
284.02585350849637
20
-51.727986099509266
10
285.21661249495833
20
-51.727986099497549
42
-0.41421356237316787
10
285.71661249496339
20
-52.227986099492668
10
285.71661249504939
20
-60.99196607485915
42
-0.4142135623730534
10
285.21661249505439
20
-61.491966074864052
10
263.47661249501135
20
-61.491966075078366
42
-0.41421356237316787
10
262.97661249500635
20
-60.991966075083248
10
262.97661249495127
20
-55.471866203903559
42
0.41421356237304302
10
262.47661249494661
20
-54.971866203908476
10
261.39704882536148
20
-54.971866203919213
42
-0.41421356237309737
10
259.1470488253392
20
-52.721866203941346
10
259.14704882533437
20
-52.227986086120723
42
0.41421356237307944
10
258.64704882532942
20
-51.727986086125604
10
252.14985349095139
20
-51.727986086189681
42
-0.4142135623730846
10
251.64985349094638
20
-51.227986086194662
0
ENDSEC
0
SECTION
2
OBJECTS
0
DICTIONARY
5
C
100
AcDbDictionary
3
ACAD_GROUP
350
D
3
ACAD_MLINESTYLE
350
17
0
DICTIONARY
5
D
100
AcDbDictionary
0
DICTIONARY
5
1A
330
C
100
AcDbDictionary
0
DICTIONARY
5
17
100
AcDbDictionary
0
ENDSEC
0
EOF
