0
SECTION
2
HEADER
9
$INSUNITS
70
4
9
$ACADVER
1
AC1014
9
$HANDSEED
5
FFFF
0
ENDSEC
0
SECTION
2
TABLES
0
TABLE
2
VPORT
5
8
100
AcDbSymbolTable
0
ENDTAB
0
TABLE
2
LTYPE
5
5
100
AcDbSymbolTable
0
LTYPE
5
14
100
AcDbSymbolTableRecord
100
AcDbLinetypeTableRecord
2
BYBLOCK
70
0
0
LTYPE
5
15
100
AcDbSymbolTableRecord
100
AcDbLinetypeTableRecord
2
BYLAYER
70
0
0
LTYPE
5
16
100
AcDbSymbolTableRecord
100
AcDbLinetypeTableRecord
2
DASHED
70
0
3
Dashed __ __ __ __ __ __ __ __ __ __ __ __ __ _
72
65
73
2
40
0.75
49
0.5
74
0
49
-0.25
74
0
0
ENDTAB
0
TABLE
2
LAYER
5
2
100
AcDbSymbolTable
70
2
0
LAYER
5
50
100
AcDbSymbolTableRecord
100
AcDbLayerTableRecord
2
0
70
0
62
7
6
CONTINUOUS
0
ENDTAB
0
TABLE
2
STYLE
5
3
100
AcDbSymbolTable
70
1
0
STYLE
5
11
100
AcDbSymbolTableRecord
100
AcDbTextStyleTableRecord
2
STANDARD
70
0
0
ENDTAB
0
TABLE
2
VIEW
5
6
100
AcDbSymbolTable
70
0
0
ENDTAB
0
TABLE
2
UCS
5
7
100
AcDbSymbolTable
70
0
0
ENDTAB
0
TABLE
2
APPID
5
9
100
AcDbSymbolTable
70
2
0
APPID
5
12
100
AcDbSymbolTableRecord
100
AcDbRegAppTableRecord
2
ACAD
70
0
0
ENDTAB
0
TABLE
2
DIMSTYLE
5
A
100
AcDbSymbolTable
70
1
0
ENDTAB
0
TABLE
2
BLOCK_RECORD
5
1
100
AcDbSymbolTable
70
1
0
BLOCK_RECORD
5
1F
100
AcDbSymbolTableRecord
100
AcDbBlockTableRecord
2
*MODEL_SPACE
0
BLOCK_RECORD
5
1B
100
AcDbSymbolTableRecord
100
AcDbBlockTableRecord
2
*PAPER_SPACE
0
ENDTAB
0
ENDSEC
0
SECTION
2
BLOCKS
0
BLOCK
5
20
100
AcDbEntity
100
AcDbBlockBegin
2
*MODEL_SPACE
0
ENDBLK
5
21
100
AcDbEntity
100
AcDbBlockEnd
0
BLOCK
5
1C
100
AcDbEntity
100
AcDbBlockBegin
2
*PAPER_SPACE
0
ENDBLK
5
1D
100
AcDbEntity
100
AcDbBlockEnd
0
ENDSEC
0
SECTION
2
ENTITIES
0
LWPOLYLINE
5
100
100
AcDbEntity
8
0
100
AcDbPolyline
90
140
70
1
43
0.0
10
1.6794241244642572
20
-108.52910068068532
42
0.41421356237310347
10
2.6794241244642647
20
-109.5291006806853
10
21.237420607259693
20
-109.52910068068508
42
-0.41421356237308982
10
21.737420607259693
20
-110.02910068068505
10
21.737420607259818
20
-117.91888313147702
42
0.41421356237308721
10
22.737420607259811
20
-118.91888313147696
10
29.168670607259706
20
-118.918883131477
42
0.41421356237308982
10
30.168670607259706
20
-117.918883131477
10
30.168670607259589
20
-110.02910068068499
42
-0.41421356237307944
10
30.668670607259571
20
-109.52910068068502
10
45.049920607259452
20
-109.52910068068483
42
-0.4142135623730846
10
45.549920607259445
20
-110.02910068068481
10
45.54992060725958
20
-123.86544819335231
42
0.41421356237309764
10
46.549920607259658
20
-124.86544819335229
10
75.980670607259611
20
-124.86544819335236
42
0.41421356237308982
10
76.980670607259611
20
-123.86544819335236
10
76.980670607259341
20
-107.272552680681
42
-0.41421356237310025
10
77.980670607259299
20
-106.27255268068099
10
89.980670607259185
20
-106.27255268068085
42
-0.41421356237310542
10
90.980670607259228
20
-107.27255268068085
10
90.980670607259455
20
-121.02910068068054
42
0.41421356237307422
10
91.980670607259441
20
-122.02910068068051
10
124.41867060725882
20
-122.02910068068016
42
0.41421356237310025
10
125.41867060725879
20
-121.02910068068013
10
125.4186706072586
20
-110.52910068068397
42
-0.41421356237309503
10
126.41867060725856
20
-109.52910068068397
10
149.32492060725826
20
-109.52910068068368
42
-0.41421356237309503
10
150.32492060725829
20
-110.52910068068365
10
150.32492060725849
20
-121.02910068067987
42
0.41421356237311063
10
151.32492060725849
20
-122.02910068067985
10
175.85617060725821
20
-122.0291006806798
42
0.41421356237310542
10
176.85617060725818
20
-121.02910068067959
10
176.85617060725801
20
-107.27255268067992
42
-0.41421356237310025
10
177.85617060725798
20
-106.27255268067992
10
185.85617060725787
20
-106.27255268067985
42
-0.41421356237307422
10
186.85617060725781
20
-107.27255268067979
10
186.85617060725809
20
-123.2725526806795
42
0.41421356237311585
10
187.85617060725812
20
-124.27255268067947
10
194.85617060725812
20
-124.27255268067941
42
0.41421356237310025
10
195.85617060725809
20
-123.27255268067942
10
195.85617060725784
20
-107.27255268067971
42
-0.41421356237310025
10
196.85617060725781
20
-106.27255268067971
10
204.85617060725772
20
-106.27255268067962
42
-0.41421356237308982
10
205.8561706072577
20
-107.27255268067958
10
205.85617060725778
20
-108.52910068068311
42
0.414213562373069
10
206.85617060725775
20
-109.52910068068307
10
209.3561706072577
20
-109.52910068068306
42
-0.41421356237310542
10
209.8561706072577
20
-110.02910068068309
10
209.85617060725789
20
-123.86544819335272
42
0.41421356237313145
10
210.85617060725795
20
-124.86544819335268
10
236.22823739999069
20
-124.86544819335276
42
0.41421356237311063
10
237.22823739999072
20
-123.86544819335283
10
237.22823739999069
20
-108.52788767727681
42
-0.41421356237309664
10
240.42823739999062
20
-105.32788767727686
10
246.94323739999027
20
-105.32788767727682
42
-0.41421356237309176
10
250.14323739999026
20
-108.52788767727675
10
250.14323739999037
20
-108.52910068068266
42
0.41421356237310025
10
251.14323739999023
20
-109.52910068068262
10
264.12492060725708
20
-109.52910068068246
42
-0.41421356237309503
10
264.62492060725708
20
-110.02910068068246
10
264.6249206072572
20
-117.91888313147759
42
0.41421356237312623
10
265.62492060725725
20
-118.91888313147753
10
269.67492060725715
20
-118.91888313147759
42
0.41421356237310542
10
270.67492060725715
20
-117.91888313147759
10
270.67492060725704
20
-110.0291006806824
42
-0.41421356237309503
10
271.17492060725704
20
-109.52910068068242
10
283.17492060725681
20
-109.52910068068226
42
-0.41421356237311585
10
283.67492060725687
20
-110.02910068068226
10
283.67492060725715
20
-123.86544819335293
42
0.41421356237311585
10
284.67492060725709
20
-124.86544819335292
10
304.01956390118039
20
-124.86544819335295
42
0.41421356237312101
10
305.01956390118045
20
-123.86544819335296
10
305.01956390118022
20
-47.329100680683382
42
0.41421356237312101
10
304.01956390118022
20
-46.329100680683382
10
290.22492060725671
20
-46.329100680683553
42
-0.41421356237308982
10
289.72492060725671
20
-45.829100680683553
10
289.72492060725654
20
-37.899428757777066
42
0.41421356237312362
10
288.72492060725654
20
-36.89942875777713
10
284.67492160725664
20
-36.899428757777109
42
0.41421356237311585
10
283.67492160725664
20
-37.899428757777095
10
283.67492160725681
20
-48.830100680683579
42
-0.41421356237309503
10
282.67492160725681
20
-49.830100680683557
10
277.38598875709891
20
-49.830100680683614
42
-0.11643382146585637
10
276.93877516159893
20
-49.724527871683534
10
275.3610663975993
20
-48.935673489683715
42
0.11643382146583622
10
274.91385280209931
20
-48.83010068068365
10
260.38598841241418
20
-48.830100680683813
42
0.11643382146585529
10
259.93877481691425
20
-48.935673489683893
10
258.36106605291468
20
-49.724527871683719
42
-0.11643382146586538
10
257.91385245741469
20
-49.83010068068382
10
252.6249196072572
20
-49.830100680683877
42
-0.41421356237308982
10
251.62491960725717
20
-48.830100680683913
10
251.62491960725689
20
-32.045987438740525
42
0.41421356237312884
10
250.62491960725686
20
-31.045987438740575
10
227.52492060725712
20
-31.045987438740404
42
0.41421356237310025
10
226.52492060725712
20
-32.045987438740411
10
226.52492060725734
20
-45.829100680684235
42
-0.41421356237310025
10
226.02492060725734
20
-46.329100680684235
10
214.02492060725749
20
-46.329100680684377
42
-0.41421356237311063
10
213.52492060725746
20
-45.829100680684377
10
213.52492060725729
20
-37.899428757776896
42
0.41421356237311191
10
212.52492060725734
20
-36.899428757776931
10
208.4749206072575
20
-36.899428757776896
42
0.41421356237311585
10
207.4749206072575
20
-37.899428757776889
10
207.47492060725756
20
-45.829100680684448
42
-0.41421356237310025
10
206.97492060725756
20
-46.329100680684448
10
194.97492060725767
20
-46.329100680684583
42
-0.41421356237309503
10
194.47492060725767
20
-45.829100680684576
10
194.47492060725745
20
-32.045987438740184
42
0.41421356237311324
10
193.47492060725745
20
-31.045987438740212
10
113.22492060725833
20
-31.045987438739719
42
0.4142135623730846
10
112.22492060725834
20
-32.045987438739722
10
112.22492060725854
20
-45.829100680685464
42
-0.41421356237310542
10
111.72492060725855
20
-46.329100680685471
10
99.724920607258696
20
-46.329100680685585
42
-0.41421356237308982
10
99.22492060725871
20
-45.829100680685606
10
99.224920607258582
20
-37.899428757776612
42
0.41421356237309243
10
98.224920607258582
20
-36.899428757776661
10
94.174920607258613
20
-36.899428757776633
42
0.41421356237307944
10
93.174920607258656
20
-37.899428757776626
10
93.174920607258798
20
-45.829100680685677
42
-0.41421356237310025
10
92.674920607258798
20
-46.329100680685677
10
80.67492060725894
20
-46.329100680685798
42
-0.41421356237308982
10
80.17492060725894
20
-45.829100680685819
10
80.174920607258699
20
-32.045987438739502
42
0.41421356237307161
10
79.174920607258699
20
-31.04598743873953
10
37.024920607259148
20
-31.045987438739267
42
0.41421356237309243
10
36.024920607259148
20
-32.045987438739274
10
36.024920607259368
20
-45.829100680686288
42
-0.41421356237309503
10
35.524920607259389
20
-46.329100680686288
10
23.524920607259496
20
-46.329100680686409
42
-0.41421356237309243
10
23.024920607259496
20
-45.829100680686423
10
23.024920607259372
20
-37.899428675990684
42
0.41421356237309503
10
22.024920607259361
20
-36.899428675990713
10
17.974920607259431
20
-36.899428675990727
42
0.41421356237309048
10
16.974920607259456
20
-37.89942867599072
10
16.974920607259577
20
-45.829100680686487
42
-0.41421356237310025
10
16.474920607259598
20
-46.329100680686494
10
2.6794241244640893
20
-46.329100680686636
42
0.4142135623730791
10
1.6794241244641117
20
-47.329100680686608
0
LWPOLYLINE
5
101
100
AcDbEntity
8
0
100
AcDbPolyline
90
16
70
1
43
0.0
10
30.104281897842213
20
-106.08968309022826
42
0.11643359513649545
10
29.657069101252382
20
-105.98411068068276
10
15.129204113267129
20
-105.98411068068209
42
0.11643359513658648
10
14.681991316677065
20
-106.08968309022768
10
11.114292988124427
20
-107.87352827113375
42
-0.11643359513652034
10
10.667080191534431
20
-107.97910068067932
10
6.8431706072600385
20
-107.97910068067937
42
-0.41421356237310053
10
5.8431706072600296
20
-106.97910068067938
10
5.8431706072599958
20
-88.979100680685718
42
-0.41421356237309082
10
6.8431706072599594
20
-87.979100680685747
10
40.219420607259352
20
-87.979100680685349
42
-0.41421356237309243
10
41.219420607259352
20
-88.979100680685335
10
41.219420607259394
20
-106.979100680679
42
-0.41421356237308982
10
40.219420607259437
20
-107.97910068067898
10
34.119193022984618
20
-107.97910068067905
42
-0.11643359513649199
10
33.671980226394716
20
-107.87352827113355
0
LWPOLYLINE
5
102
100
AcDbEntity
8
0
100
AcDbPolyline
90
8
70
1
43
0.0
10
256.9811706072573
20
-103.47910068068165
10
244.98117060725747
20
-103.47910068068181
42
-0.41421356237310542
10
244.48117060725741
20
-102.97910068068182
10
244.4811706072573
20
-90.979100680683132
42
-0.41421356237310542
10
244.98117060725724
20
-90.479100680683118
10
256.98117060725707
20
-90.479100680682961
42
-0.41421356237311585
10
257.48117060725713
20
-90.979100680682961
10
257.48117060725735
20
-102.97910068068165
42
-0.41421356237309503
0
CIRCLE
5
103
100
AcDbEntity
8
0
100
AcDbCircle
10
263.98148541206456
20
-103.39978952662067
30
-4.088396288182139e-13
40
3.7499999999999223
210
-2.2340068009556401e-16
220
-4.538036613155426e-15
230
1
0
CIRCLE
5
104
100
AcDbEntity
8
0
100
AcDbCircle
10
27.223842646835685
20
-51.623157825764771
30
-2.2787327580431338e-13
40
3.599999999999961
210
-2.234006800955642e-16
220
-4.538036613155426e-15
230
1
0
LWPOLYLINE
5
105
100
AcDbEntity
8
0
100
AcDbPolyline
90
20
70
1
43
0.0
10
255.0999206072571
20
-64.379100680683251
42
0.41421356237313145
10
256.0999206072571
20
-65.379100680683209
10
265.11003701650435
20
-65.379100680683123
42
0.41421356237310281
10
266.11003701650429
20
-64.379100680683138
10
266.11003701650418
20
-53.379100680683379
42
-0.41421356237310025
10
267.11003701650418
20
-52.379100680683379
10
285.46480419800952
20
-52.379100680683194
42
-0.41421356237308204
10
286.46480419800946
20
-53.379100680683166
10
286.46480419801003
20
-86.379100680682484
42
-0.41421356237310025
10
285.46480419801003
20
-87.37910068068247
10
247.86242060725741
20
-87.379100680682868
42
-0.4142135623730846
10
246.86242060725743
20
-86.379100680682924
10
246.86242060725706
20
-66.379100680683024
42
0.41421356237311585
10
245.86242060725709
20
-65.379100680683052
10
242.59992060725722
20
-65.379100680683109
42
-0.41421356237308982
10
242.09992060725722
20
-64.879100680683109
10
242.09992060725705
20
-52.879100680683358
42
-0.41421356237310542
10
242.59992060725705
20
-52.379100680683351
10
254.59992060725688
20
-52.37910068068323
42
-0.414213562373069
10
255.09992060725688
20
-52.879100680683223
0
CIRCLE
5
106
100
AcDbEntity
8
0
100
AcDbCircle
10
262.98117060725644
20
-90.979100683205473
30
-3.5332847758695607e-13
40
2.249999999999968
210
-2.2340068009556465e-16
220
-4.5102810375397963e-15
230
1
0
CIRCLE
5
107
100
AcDbEntity
8
0
100
AcDbCircle
10
261.41242060725637
20
-52.579100681550159
30
-1.8013368574543165e-13
40
2.249999999999968
210
-2.2340068009556465e-16
220
-4.5102810375397963e-15
230
1
0
LWPOLYLINE
5
108
100
AcDbEntity
8
0
100
AcDbPolyline
90
8
70
1
43
0.0
10
271.17492060725692
20
-90.479100680682834
10
283.17492060725675
20
-90.479100680682677
42
-0.41421356237311585
10
283.67492060725681
20
-90.979100680682677
10
283.67492060725692
20
-102.97910068068211
42
-0.41421356237310542
10
283.17492060725698
20
-103.47910068068211
10
271.17492060725715
20
-103.47910068068225
42
-0.41421356237310542
10
270.67492060725715
20
-102.97910068068227
10
270.67492060725698
20
-90.979100680682848
42
-0.41421356237310542
0
LWPOLYLINE
5
109
100
AcDbEntity
8
0
100
AcDbPolyline
90
8
70
1
43
0.0
10
89.699920607261006
20
-64.879100680684743
10
89.699920607260822
20
-52.879100680681603
42
-0.41421356237309503
10
90.199920607260808
20
-52.37910068068161
10
102.19992060726064
20
-52.379100680681475
42
-0.41421356237308982
10
102.69992060726062
20
-52.879100680681461
10
102.69992060726088
20
-64.879100680684616
42
-0.41421356237309503
10
102.19992060726088
20
-65.379100680684601
10
90.199920607261035
20
-65.379100680684758
42
-0.41421356237310025
0
LWPOLYLINE
5
110
100
AcDbEntity
8
0
100
AcDbPolyline
90
8
70
1
43
0.0
10
109.24992060726109
20
-52.37910068068188
10
121.24992060726098
20
-52.379100680681745
42
-0.41421356237309503
10
121.74992060726096
20
-52.879100680681731
10
121.74992060726115
20
-64.879100680684417
42
-0.41421356237310025
10
121.24992060726116
20
-65.379100680684402
10
109.24992060726129
20
-65.37910068068453
42
-0.41421356237308982
10
108.7499206072613
20
-64.879100680684559
10
108.74992060726112
20
-52.879100680681859
42
-0.41421356237310025
0
LWPOLYLINE
5
111
100
AcDbEntity
8
0
100
AcDbPolyline
90
7
70
1
43
0.0
10
218.78742060725756
20
-90.479100680683388
10
231.28742060725739
20
-90.47910068068326
10
231.28742060725756
20
-102.97910268068139
42
-0.41421356237310542
10
230.78742060725756
20
-103.47910268068141
10
218.7874206072577
20
-103.47910268068156
42
-0.41421356237307422
10
218.28742060725773
20
-102.97910268068156
10
218.28742060725759
20
-90.979100680683416
42
-0.41421356237311585
0
LWPOLYLINE
5
112
100
AcDbEntity
8
0
100
AcDbPolyline
90
8
70
1
43
0.0
10
147.34992060718903
20
-52.379100680682498
10
159.34992060718895
20
-52.379100680682399
42
-0.41421356237308982
10
159.84992060718892
20
-52.879100680682384
10
159.84992060718915
20
-64.87910068068399
42
-0.41421356237310542
10
159.34992060718915
20
-65.379100680684004
10
147.34992060718926
20
-65.379100680684118
42
-0.41421356237308982
10
146.84992060718926
20
-64.879100680684132
10
146.84992060718906
20
-52.879100680682505
42
-0.41421356237310025
0
LWPOLYLINE
5
113
100
AcDbEntity
8
0
100
AcDbPolyline
90
8
70
1
43
0.0
10
128.29992060725834
20
-52.379100680682036
10
140.2999206072582
20
-52.379100680681901
42
-0.41421356237308982
10
140.79992060725823
20
-52.879100680681887
10
140.7999206072584
20
-64.879100680684189
42
-0.41421356237310542
10
140.2999206072584
20
-65.379100680684203
10
128.29992060725854
20
-65.379100680684331
42
-0.41421356237309503
10
127.79992060725854
20
-64.879100680684331
10
127.79992060725834
20
-52.879100680682036
42
-0.41421356237310542
0
LWPOLYLINE
5
114
100
AcDbEntity
8
0
100
AcDbPolyline
90
8
70
1
43
0.0
10
166.39992060725788
20
-52.379100680682484
10
178.39992060725777
20
-52.37910068068237
42
-0.41421356237308982
10
178.89992060725777
20
-52.879100680682363
10
178.89992060725788
20
-64.879100680683791
42
-0.41421356237308982
10
178.39992060725791
20
-65.379100680683777
10
166.39992060725808
20
-65.379100680683919
42
-0.41421356237311063
10
165.89992060725805
20
-64.879100680683919
10
165.89992060725788
20
-52.879100680682491
42
-0.41421356237309503
0
LWPOLYLINE
5
115
100
AcDbEntity
8
0
100
AcDbPolyline
90
8
70
1
43
0.0
10
204.49992060726029
20
-52.37910068068814
10
216.49992060726015
20
-52.379100680688012
42
-0.414213562373069
10
216.99992060726009
20
-52.879100680688012
10
216.99992060726032
20
-64.879100680683393
42
-0.41421356237310025
10
216.49992060726032
20
-65.379100680683393
10
204.49992060726046
20
-65.379100680683521
42
-0.41421356237309503
10
203.99992060726046
20
-64.879100680683507
10
203.99992060726026
20
-52.879100680688147
42
-0.41421356237310025
0
LWPOLYLINE
5
116
100
AcDbEntity
8
0
100
AcDbPolyline
90
8
70
1
43
0.0
10
185.44992060726261
20
-52.379100680692417
10
197.44992060726241
20
-52.379100680692289
42
-0.41421356237310025
10
197.94992060726241
20
-52.879100680692304
10
197.94992060726258
20
-64.879100680683607
42
-0.41421356237309503
10
197.44992060726258
20
-65.379100680683592
10
185.44992060726281
20
-65.37910068068372
42
-0.41421356237308982
10
184.94992060726278
20
-64.87910068068372
10
184.94992060726261
20
-52.87910068069241
42
-0.41421356237309503
0
LWPOLYLINE
5
117
100
AcDbEntity
8
0
100
AcDbPolyline
90
8
70
1
43
0.0
10
232.57492060725727
20
-45.829100680684157
10
232.57492060725718
20
-33.829100680683069
42
-0.41421356237309243
10
233.07492060725713
20
-33.329100680683091
10
245.07492060725696
20
-33.329100680682934
42
-0.41421356237308982
10
245.57492060725696
20
-33.829100680682934
10
245.57492060725707
20
-45.829100680684022
42
-0.41421356237310542
10
245.0749206072571
20
-46.329100680684036
10
233.0749206072573
20
-46.329100680684164
42
-0.41421356237309503
0
LWPOLYLINE
5
118
100
AcDbEntity
8
0
100
AcDbPolyline
90
8
70
1
43
0.0
10
175.92492160725766
20
-33.32910068068233
10
187.92492160725757
20
-33.329100680682195
42
-0.41421356237311585
10
188.4249216072576
20
-33.829100680682203
10
188.42492160725777
20
-45.829100680684647
42
-0.41421356237310025
10
187.92492160725777
20
-46.329100680684647
10
175.92492160725783
20
-46.329100680684796
42
-0.41421356237308982
10
175.42492160725783
20
-45.829100680684796
10
175.42492160725769
20
-33.829100680682345
42
-0.4142135623730846
0
LWPOLYLINE
5
119
100
AcDbEntity
8
0
100
AcDbPolyline
90
8
70
1
43
0.0
10
61.624921607258912
20
-33.32910068068108
10
73.624921607258798
20
-33.329100680680945
42
-0.41421356237309503
10
74.124921607258784
20
-33.829100680680945
10
74.124921607258969
20
-45.829100680685883
42
-0.41421356237310025
10
73.624921607258983
20
-46.32910068068589
10
61.624921607259111
20
-46.329100680686025
42
-0.41421356237309503
10
61.124921607259111
20
-45.829100680686025
10
61.124921607258926
20
-33.829100680681073
42
-0.41421356237308982
0
LWPOLYLINE
5
120
100
AcDbEntity
8
0
100
AcDbPolyline
90
8
70
1
43
0.0
10
156.87491960722832
20
-33.329100680623306
10
168.87491960722821
20
-33.329100680623171
42
-0.41421356237309243
10
169.37491960722821
20
-33.829100680623171
10
169.37491960722838
20
-45.82910068068486
42
-0.41421356237310025
10
168.87491960722838
20
-46.32910068068486
10
156.87491960722849
20
-46.329100680684981
42
-0.414213562373069
10
156.37491960722852
20
-45.829100680685002
10
156.37491960722832
20
-33.829100680623299
42
-0.41421356237309764
0
LWPOLYLINE
5
121
100
AcDbEntity
8
0
100
AcDbPolyline
90
8
70
1
43
0.0
10
42.574919607259083
20
-33.329100680680867
10
54.574919607258956
20
-33.329100680680732
42
-0.41421356237309764
10
55.07491960725897
20
-33.829100680680725
10
55.074919607259162
20
-45.829100680686082
42
-0.41421356237309503
10
54.574919607259183
20
-46.329100680686082
10
42.574919607259304
20
-46.329100680686217
42
-0.41421356237309503
10
42.074919607259304
20
-45.829100680686224
10
42.074919607259105
20
-33.82910068068086
42
-0.41421356237309243
0
LWPOLYLINE
5
122
100
AcDbEntity
8
0
100
AcDbPolyline
90
8
70
1
43
0.0
10
137.82492060725812
20
-33.329100680682004
10
149.82492060725801
20
-33.329100680681883
42
-0.41421356237309503
10
150.32492060725798
20
-33.829100680681869
10
150.32492060725821
20
-45.829100680685066
42
-0.41421356237310025
10
149.82492060725821
20
-46.329100680685059
10
137.82492060725835
20
-46.329100680685187
42
-0.41421356237309503
10
137.32492060725835
20
-45.829100680685201
10
137.32492060725815
20
-33.829100680681989
42
-0.41421356237309243
0
LWPOLYLINE
5
123
100
AcDbEntity
8
0
100
AcDbPolyline
90
8
70
1
43
0.0
10
118.7749206072583
20
-33.329100680681826
10
130.77492060725817
20
-33.329100680681705
42
-0.41421356237309243
10
131.27492060725817
20
-33.829100680681691
10
131.27492060725837
20
-45.829100680685258
42
-0.41421356237309503
10
130.77492060725837
20
-46.329100680685251
10
118.77492060725854
20
-46.329100680685372
42
-0.41421356237308982
10
118.27492060725852
20
-45.829100680685393
10
118.27492060725831
20
-33.829100680681819
42
-0.41421356237309243
0
LWPOLYLINE
5
124
100
AcDbEntity
8
0
100
AcDbPolyline
90
8
70
1
43
0.0
10
152.11242060725817
20
-71.429100680684542
10
164.11242060725806
20
-71.4291006806844
42
-0.414213562373069
10
164.612420607258
20
-71.9291006806844
10
164.61242060725817
20
-83.929100680680932
42
-0.41421356237310542
10
164.11242060725817
20
-84.429100680680946
10
152.11242060725834
20
-84.429100680681088
42
-0.41421356237309503
10
151.61242060725837
20
-83.929100680681103
10
151.61242060725817
20
-71.929100680684542
42
-0.41421356237309503
0
LWPOLYLINE
5
125
100
AcDbEntity
8
0
100
AcDbPolyline
90
8
70
1
43
0.0
10
123.53742160725847
20
-90.479100680682507
10
135.53742160725835
20
-90.479100680682407
42
-0.41421356237309503
10
136.03742160725832
20
-90.979100680682393
10
136.03742160725855
20
-102.97910068068212
42
-0.41421356237309503
10
135.53742160725855
20
-103.47910068068211
10
123.53742160725869
20
-103.47910068068225
42
-0.4142135623730846
10
123.03742160725869
20
-102.97910068068228
10
123.03742160725848
20
-90.979100680682521
42
-0.41421356237310542
0
LWPOLYLINE
5
126
100
AcDbEntity
8
0
100
AcDbPolyline
90
8
70
1
43
0.0
10
133.06242060725836
20
-71.429100680684741
10
145.06242060725822
20
-71.429100680684627
42
-0.41421356237308982
10
145.56242060725822
20
-71.929100680684613
10
145.56242060725842
20
-83.929100680680762
42
-0.41421356237307422
10
145.06242060725842
20
-84.429100680680719
10
133.06242060725856
20
-84.429100680680875
42
-0.4142135623730846
10
132.56242060725856
20
-83.929100680680904
10
132.56242060725836
20
-71.929100680684726
42
-0.41421356237308982
0
LWPOLYLINE
5
127
100
AcDbEntity
8
0
100
AcDbPolyline
90
8
70
1
43
0.0
10
114.01242060725856
20
-71.42910068068494
10
126.01242060725841
20
-71.429100680684826
42
-0.41421356237308982
10
126.51242060725842
20
-71.929100680684812
10
126.51242060725862
20
-83.929098680680454
42
-0.41421356237309503
10
126.01242060725863
20
-84.42909868068044
10
114.01242060725876
20
-84.429098680680582
42
-0.4142135623730846
10
113.51242060725878
20
-83.92909868068061
10
113.51242060725855
20
-71.929100680684954
42
-0.41421356237310025
0
LWPOLYLINE
5
128
100
AcDbEntity
8
0
100
AcDbPolyline
90
8
70
1
43
0.0
10
302.32492060725696
20
-122.52910068068178
10
290.12492060725714
20
-122.52910068068196
42
-0.41421356237308204
10
289.7249206072571
20
-122.12910068068199
10
289.72492060725671
20
-109.9291006806822
42
-0.41421356237309503
10
290.12492060725668
20
-109.52910068068221
10
302.32492060725667
20
-109.52910068068205
42
-0.41421356237308204
10
302.72492060725671
20
-109.92910068068201
10
302.72492060725688
20
-122.12910068068182
42
-0.41421356237312101
0
LWPOLYLINE
5
129
100
AcDbEntity
8
0
100
AcDbPolyline
90
8
70
1
43
0.0
10
94.962419607258752
20
-71.429100680685153
10
106.9624196072586
20
-71.429100680685025
42
-0.41421356237308982
10
107.46241960725861
20
-71.929100680685011
10
107.46241960725881
20
-83.92910068068025
42
-0.41421356237309503
10
106.96241960725882
20
-84.429100680680236
10
94.962419607258951
20
-84.429100680680378
42
-0.4142135623730846
10
94.462419607258965
20
-83.929100680680406
10
94.462419607258781
20
-71.929100680685153
42
-0.41421356237310542
0
LWPOLYLINE
5
130
100
AcDbEntity
8
0
100
AcDbPolyline
90
8
70
1
43
0.0
10
290.22492060725676
20
-90.47910068068262
10
302.22492060725665
20
-90.479100680682464
42
-0.4142135623730846
10
302.72492060725665
20
-90.97910068068245
10
302.72492060725682
20
-102.97910068068221
42
-0.41421356237309503
10
302.22492060725682
20
-103.47910068068219
10
290.22492060725699
20
-103.47910068068238
42
-0.41421356237309503
10
289.72492060725693
20
-102.97910068068236
10
289.72492060725676
20
-90.979100680682592
42
-0.41421356237307422
0
LWPOLYLINE
5
131
100
AcDbEntity
8
0
100
AcDbPolyline
90
8
70
1
43
0.0
10
75.912420607258909
20
-71.429100680685352
10
87.912420607258781
20
-71.429100680685238
42
-0.41421356237308982
10
88.412420607258781
20
-71.929100680685224
10
88.41242060725898
20
-83.929100680680023
42
-0.41421356237311585
10
87.912420607258994
20
-84.429100680680037
10
75.912420607259094
20
-84.429100680680165
42
-0.41421356237308982
10
75.412420607259094
20
-83.929100680680165
10
75.412420607258923
20
-71.929100680685366
42
-0.41421356237310542
0
LWPOLYLINE
5
132
100
AcDbEntity
8
0
100
AcDbPolyline
90
8
70
1
43
0.0
10
290.22492060725665
20
-71.42910068068305
10
302.22492060725648
20
-71.429100680682922
42
-0.41421356237308982
10
302.72492060725648
20
-71.929100680682922
10
302.72492060725659
20
-83.929100680682637
42
-0.41421356237310542
10
302.22492060725665
20
-84.429100680682652
10
290.22492060725682
20
-84.429100680682836
42
-0.41421356237307422
10
289.72492060725688
20
-83.929100680682822
10
289.72492060725665
20
-71.929100680683064
42
-0.41421356237310542
0
LWPOLYLINE
5
133
100
AcDbEntity
8
0
100
AcDbPolyline
90
8
70
1
43
0.0
10
56.862420607259125
20
-71.429100680685579
10
68.862420607259025
20
-71.429100680685437
42
-0.41421356237309503
10
69.362420607259025
20
-71.929100680685437
10
69.362420607259196
20
-83.929100680679838
42
-0.41421356237308982
10
68.862420607259224
20
-84.429100680679824
10
56.862420607259338
20
-84.429100680679994
42
-0.41421356237310025
10
56.362420607259331
20
-83.92910068067998
10
56.362420607259139
20
-71.929100680685579
42
-0.41421356237309503
0
LWPOLYLINE
5
134
100
AcDbEntity
8
0
100
AcDbPolyline
90
8
70
1
43
0.0
10
8.737420607262564
20
-64.879100680685625
10
8.7374206072623775
20
-52.879100680680949
42
-0.41421356237310608
10
9.2374206072623579
20
-52.379100680680935
10
21.237420607259558
20
-52.379100680680807
42
-0.41421356237309243
10
21.737420607259558
20
-52.879100680680793
10
21.737420607259757
20
-64.879100680685468
42
-0.41421356237309503
10
21.237420607259775
20
-65.379100680685468
10
9.2374206072625675
20
-65.37910068068561
42
-0.41421356237309437
0
LWPOLYLINE
5
135
100
AcDbEntity
8
0
100
AcDbPolyline
90
8
70
1
43
0.0
10
290.22492060725665
20
-52.379100680683415
10
302.22492060725642
20
-52.379100680683294
42
-0.414213562373069
10
302.72492060725642
20
-52.879100680683287
10
302.72492060725659
20
-64.879100680683038
42
-0.41421356237310025
10
302.22492060725665
20
-65.379100680683024
10
290.22492060725676
20
-65.379100680683166
42
-0.41421356237309503
10
289.72492060725676
20
-64.879100680683152
10
289.72492060725665
20
-52.879100680683408
42
-0.41421356237310025
0
LWPOLYLINE
5
136
100
AcDbEntity
8
0
100
AcDbPolyline
90
8
70
1
43
0.0
10
199.73741960725766
20
-90.479100680683601
10
211.73741960725755
20
-90.479100680683459
42
-0.41421356237309503
10
212.23741960725758
20
-90.979100680683459
10
212.23741960725775
20
-102.97910068068104
42
-0.41421356237309503
10
211.73741960725775
20
-103.47910068068103
10
199.73741960725795
20
-103.47910068068119
42
-0.41421356237311585
10
199.23741960725792
20
-102.97910068068119
10
199.23741960725764
20
-90.979100680683587
42
-0.41421356237307422
0
LWPOLYLINE
5
137
100
AcDbEntity
8
0
100
AcDbPolyline
90
8
70
1
43
0.0
10
37.812420607259341
20
-71.429100680685764
10
49.812420607259199
20
-71.429100680685636
42
-0.41421356237310025
10
50.312420607259213
20
-71.929100680685636
10
50.312420607259384
20
-83.929100680679554
42
-0.41421356237310025
10
49.812420607259405
20
-84.429100680679568
10
37.81242060725954
20
-84.429100680679738
42
-0.41421356237309764
10
37.312420607259547
20
-83.929100680679753
10
37.312420607259369
20
-71.929100680685792
42
-0.41421356237311063
0
LWPOLYLINE
5
138
100
AcDbEntity
8
0
100
AcDbPolyline
90
8
70
1
43
0.0
10
32.549920607255999
20
-64.879100680685355
10
32.5499206072558
20
-52.879100680680921
42
-0.41421356237310025
10
33.049920607255778
20
-52.379100680680907
10
45.049920607255665
20
-52.379100680680779
42
-0.41421356237309503
10
45.549920607255672
20
-52.879100680680764
10
45.549920607255856
20
-64.879100680685227
42
-0.41421356237308982
10
45.049920607255878
20
-65.379100680685212
10
33.049920607255999
20
-65.37910068068534
42
-0.41421356237309503
0
LWPOLYLINE
5
139
100
AcDbEntity
8
0
100
AcDbPolyline
90
8
70
1
43
0.0
10
6.8561706072596103
20
-71.429100680686091
10
23.618670607259489
20
-71.429100680685906
42
-0.41421356237309243
10
24.118670607259489
20
-71.929100680685892
10
24.118670607259677
20
-83.929098680679147
42
-0.41421356237310025
10
23.618670607259698
20
-84.429098680679147
10
6.8561706072598145
20
-84.429098680679346
42
-0.41421356237309825
10
6.3561706072598145
20
-83.929098680679346
10
6.3561706072596209
20
-71.929100680686105
42
-0.41421356237309503
0
LWPOLYLINE
5
140
100
AcDbEntity
8
0
100
AcDbPolyline
90
8
70
1
43
0.0
10
52.099920607259065
20
-52.379100680681162
10
64.099920607258937
20
-52.37910068068102
42
-0.41421356237310542
10
64.599920607258952
20
-52.879100680681013
10
64.599920607259122
20
-64.879100680685013
42
-0.41421356237310025
10
64.099920607259151
20
-65.379100680685013
10
52.099920607259278
20
-65.379100680685141
42
-0.41421356237310542
10
51.599920607259271
20
-64.879100680685141
10
51.599920607259108
20
-52.879100680681155
42
-0.41421356237309503
0
LWPOLYLINE
5
141
100
AcDbEntity
8
0
100
AcDbPolyline
90
8
70
1
43
0.0
10
71.149920607250181
20
-52.379100680681319
10
83.149920607250067
20
-52.379100680681191
42
-0.41421356237310025
10
83.649920607250081
20
-52.879100680681177
10
83.649920607250266
20
-64.879100680684815
42
-0.41421356237310025
10
83.149920607250266
20
-65.379100680684815
10
71.149920607250408
20
-65.379100680684942
42
-0.41421356237310025
10
70.64992060725038
20
-64.879100680684957
10
70.649920607250209
20
-52.879100680681319
42
-0.41421356237308982
0
LWPOLYLINE
5
142
100
AcDbEntity
8
0
100
AcDbPolyline
90
8
70
1
43
0.0
10
47.337420607259311
20
-90.479100680685249
10
59.337420607259183
20
-90.479100680685107
42
-0.41421356237308982
10
59.83742060725919
20
-90.979100680685079
10
59.837420607259347
20
-102.97910068067928
42
-0.41421356237308982
10
59.337420607259368
20
-103.4791006806793
10
47.33742060725951
20
-103.47910068067947
42
-0.41421356237310542
10
46.837420607259489
20
-102.97910068067947
10
46.837420607259318
20
-90.979100680685264
42
-0.41421356237308982
0
LWPOLYLINE
5
143
100
AcDbEntity
8
0
100
AcDbPolyline
90
8
70
1
43
0.0
10
65.887420607259344
20
-102.97910068067969
10
65.887420607259173
20
-90.979100680685079
42
-0.41421356237311063
10
66.387420607259145
20
-90.47910068068505
10
78.387420607259017
20
-90.479100680684894
42
-0.41421356237312101
10
78.887420607259017
20
-90.979100680684937
10
78.887420607259187
20
-102.97910068067952
42
-0.41421356237308982
10
78.387420607259216
20
-103.47910068067952
10
66.387420607259344
20
-103.47910068067968
42
-0.41421356237310542
0
LWPOLYLINE
5
144
100
AcDbEntity
8
0
100
AcDbPolyline
90
8
70
1
43
0.0
10
85.437420607258915
20
-90.479100680684837
10
97.437420607258787
20
-90.479100680684681
42
-0.41421356237309503
10
97.937420607258773
20
-90.979100680684667
10
97.937420607258986
20
-102.97910068067966
42
-0.41421356237310542
10
97.437420607259
20
-103.47910068067968
10
85.437420607259128
20
-103.47910068067984
42
-0.4142135623730846
10
84.937420607259142
20
-102.97910068067986
10
84.937420607258929
20
-90.979100680684851
42
-0.41421356237310542
0
LWPOLYLINE
5
145
100
AcDbEntity
8
0
100
AcDbPolyline
90
8
70
1
43
0.0
10
104.48741960725876
20
-90.479100680684624
10
116.48741960725863
20
-90.479100680684482
42
-0.41421356237309503
10
116.98741960725862
20
-90.979100680684468
10
116.98741960725883
20
-102.97910068068003
42
-0.41421356237310542
10
116.48741960725884
20
-103.47910068068003
10
104.48741960725897
20
-103.47910068068019
42
-0.4142135623730846
10
103.98741960725899
20
-102.97910068068022
10
103.98741960725877
20
-90.979100680684667
42
-0.41421356237312623
0
LWPOLYLINE
5
146
100
AcDbEntity
8
0
100
AcDbPolyline
90
8
70
1
43
0.0
10
142.08742060725851
20
-102.9791006806806
10
142.08742060725831
20
-90.979100680684212
42
-0.4142135623730846
10
142.58742060725831
20
-90.47910068068424
10
154.58742060725817
20
-90.479100680684112
42
-0.41421356237309503
10
155.08742060725814
20
-90.979100680684098
10
155.08742060725837
20
-102.97910068068049
42
-0.4142135623730846
10
154.58742060725837
20
-103.47910068068046
10
142.58742060725851
20
-103.47910068068062
42
-0.41421356237310542
0
LWPOLYLINE
5
147
100
AcDbEntity
8
0
100
AcDbPolyline
90
8
70
1
43
0.0
10
161.63742060725824
20
-90.479100680684027
10
173.63742060725804
20
-90.479100680683899
42
-0.41421356237306384
10
174.13742060725804
20
-90.979100680683885
10
174.13742060725824
20
-102.97910068068077
42
-0.41421356237309503
10
173.63742060725824
20
-103.47910068068076
10
161.63742060725838
20
-103.4791006806809
42
-0.41421356237307422
10
161.13742060725841
20
-102.9791006806809
10
161.13742060725821
20
-90.979100680684027
42
-0.4142135623730846
0
LWPOLYLINE
5
148
100
AcDbEntity
8
0
100
AcDbPolyline
90
8
70
1
43
0.0
10
180.68742060725796
20
-90.479100680683786
10
192.68742060725776
20
-90.479100680683672
42
-0.4142135623730846
10
193.18742060725779
20
-90.979100680683658
10
193.18742060725796
20
-102.97910068068092
42
-0.4142135623730846
10
192.68742060725796
20
-103.47910068068089
10
180.6874206072581
20
-103.47910068068106
42
-0.41421356237307422
10
180.18742060725813
20
-102.97910068068106
10
180.18742060725793
20
-90.9791006806838
42
-0.41421356237307422
0
LWPOLYLINE
5
149
100
AcDbEntity
8
0
100
AcDbPolyline
90
8
70
1
43
0.0
10
54.481238165952803
20
-109.52910068068473
10
68.862420607259168
20
-109.52910068068459
42
-0.41421356237310025
10
69.362420607259182
20
-110.02910068068458
10
69.362420607259352
20
-122.02910068067905
42
-0.41421356237310025
10
68.862420607259367
20
-122.52910068067906
10
54.481238165952995
20
-122.52910068067926
42
-0.41421356237311063
10
53.981238165952988
20
-122.02910068067924
10
53.981238165952803
20
-110.02910068068473
42
-0.41421356237308982
0
LWPOLYLINE
5
150
100
AcDbEntity
8
0
100
AcDbPolyline
90
8
70
1
43
0.0
10
228.31242060725742
20
-71.429100680683717
10
240.31242060725725
20
-71.42910068068359
42
-0.41421356237308982
10
240.81242060725725
20
-71.92910068068359
10
240.81242060725742
20
-83.929098680681847
42
-0.41421356237310542
10
240.31242060725742
20
-84.429098680681847
10
228.31242060725756
20
-84.429098680682003
42
-0.41421356237307422
10
227.81242060725759
20
-83.929098680682003
10
227.81242060725745
20
-71.929100680683732
42
-0.41421356237311063
0
LWPOLYLINE
5
151
100
AcDbEntity
8
0
100
AcDbPolyline
90
8
70
1
43
0.0
10
209.26242060725755
20
-71.429100680683916
10
221.26242060725744
20
-71.429100680683774
42
-0.414213562373069
10
221.76242060725741
20
-71.929100680683774
10
221.76242060725755
20
-83.929098680681577
42
-0.41421356237310542
10
221.26242060725758
20
-84.429098680681577
10
209.26242060725775
20
-84.429098680681705
42
-0.41421356237309503
10
208.76242060725775
20
-83.929098680681705
10
208.76242060725755
20
-71.929100680683945
42
-0.41421356237311585
0
LWPOLYLINE
5
152
100
AcDbEntity
8
0
100
AcDbPolyline
90
8
70
1
43
0.0
10
223.5499206072559
20
-52.379100680680502
10
235.54992060725573
20
-52.379100680680359
42
-0.41421356237308982
10
236.04992060725576
20
-52.879100680680359
10
236.04992060725593
20
-64.879100680683166
42
-0.41421356237311063
10
235.54992060725593
20
-65.37910068068318
10
223.54992060725607
20
-65.379100680683308
42
-0.41421356237308982
10
223.04992060725607
20
-64.879100680683322
10
223.0499206072559
20
-52.879100680680509
42
-0.41421356237310542
0
LWPOLYLINE
5
153
100
AcDbEntity
8
0
100
AcDbPolyline
90
8
70
1
43
0.0
10
190.21242060725774
20
-71.42910068068413
10
202.21242060725757
20
-71.429100680684002
42
-0.41421356237308982
10
202.71242060725757
20
-71.929100680683987
10
202.71242060725774
20
-83.929100680681387
42
-0.41421356237309503
10
202.21242060725774
20
-84.429100680681373
10
190.21242060725797
20
-84.429100680681529
42
-0.41421356237311585
10
189.71242060725791
20
-83.929100680681529
10
189.71242060725774
20
-71.92910068068413
42
-0.41421356237310025
0
LWPOLYLINE
5
154
100
AcDbEntity
8
0
100
AcDbPolyline
90
8
70
1
43
0.0
10
171.16242060725793
20
-71.429100680684328
10
183.16242060725779
20
-71.429100680684201
42
-0.41421356237309503
10
183.66242060725779
20
-71.929100680684201
10
183.66242060725796
20
-83.929100680681273
42
-0.41421356237310542
10
183.16242060725796
20
-84.429100680681287
10
171.1624206072581
20
-84.429100680681444
42
-0.41421356237307422
10
170.66242060725813
20
-83.929100680681444
10
170.6624206072579
20
-71.929100680684314
42
-0.41421356237309503
0
LWPOLYLINE
5
155
100
AcDbEntity
8
0
100
AcDbPolyline
90
8
70
1
43
0.0
10
233.16867060725755
20
-122.5291006806811
10
218.78742060725779
20
-122.52910068068125
42
-0.41421356237306384
10
218.28742060725779
20
-122.02910068068127
10
218.28742060725767
20
-110.02910068068297
42
-0.41421356237309503
10
218.78742060725762
20
-109.52910068068299
10
233.16867060725741
20
-109.52910068068279
42
-0.41421356237307422
10
233.66867060725738
20
-110.0291006806828
10
233.66867060725758
20
-122.02910068068108
42
-0.4142135623730846
0
CIRCLE
5
156
100
AcDbEntity
8
0
100
AcDbCircle
10
25.903172733418153
20
-115.94868096025174
30
-5.1986193128072955e-13
40
2.2499999999999547
210
-2.2340068009556435e-16
220
-4.5102810375397963e-15
230
1
0
CIRCLE
5
157
100
AcDbEntity
8
0
100
AcDbCircle
10
19.950048733417976
20
-48.748679712847107
30
-2.1621593404574924e-13
40
2.2499999999999547
210
-2.2340068009556435e-16
220
-4.5102810375397963e-15
230
1
0
ENDSEC
0
SECTION
2
OBJECTS
0
DICTIONARY
5
C
100
AcDbDictionary
3
ACAD_GROUP
350
D
3
ACAD_MLINESTYLE
350
17
0
DICTIONARY
5
D
100
AcDbDictionary
0
DICTIONARY
5
1A
330
C
100
AcDbDictionary
0
DICTIONARY
5
17
100
AcDbDictionary
0
ENDSEC
0
EOF
