0
SECTION
2
HEADER
9
$INSUNITS
70
4
9
$ACADVER
1
AC1014
9
$HANDSEED
5
FFFF
0
ENDSEC
0
SECTION
2
TABLES
0
TABLE
2
VPORT
5
8
100
AcDbSymbolTable
0
ENDTAB
0
TABLE
2
LTYPE
5
5
100
AcDbSymbolTable
0
LTYPE
5
14
100
AcDbSymbolTableRecord
100
AcDbLinetypeTableRecord
2
BYBLOCK
70
0
0
LTYPE
5
15
100
AcDbSymbolTableRecord
100
AcDbLinetypeTableRecord
2
BYLAYER
70
0
0
LTYPE
5
16
100
AcDbSymbolTableRecord
100
AcDbLinetypeTableRecord
2
DASHED
70
0
3
Dashed __ __ __ __ __ __ __ __ __ __ __ __ __ _
72
65
73
2
40
0.75
49
0.5
74
0
49
-0.25
74
0
0
ENDTAB
0
TABLE
2
LAYER
5
2
100
AcDbSymbolTable
70
2
0
LAYER
5
50
100
AcDbSymbolTableRecord
100
AcDbLayerTableRecord
2
0
70
0
62
7
6
CONTINUOUS
0
ENDTAB
0
TABLE
2
STYLE
5
3
100
AcDbSymbolTable
70
1
0
STYLE
5
11
100
AcDbSymbolTableRecord
100
AcDbTextStyleTableRecord
2
STANDARD
70
0
0
ENDTAB
0
TABLE
2
VIEW
5
6
100
AcDbSymbolTable
70
0
0
ENDTAB
0
TABLE
2
UCS
5
7
100
AcDbSymbolTable
70
0
0
ENDTAB
0
TABLE
2
APPID
5
9
100
AcDbSymbolTable
70
2
0
APPID
5
12
100
AcDbSymbolTableRecord
100
AcDbRegAppTableRecord
2
ACAD
70
0
0
ENDTAB
0
TABLE
2
DIMSTYLE
5
A
100
AcDbSymbolTable
70
1
0
ENDTAB
0
TABLE
2
BLOCK_RECORD
5
1
100
AcDbSymbolTable
70
1
0
BLOCK_RECORD
5
1F
100
AcDbSymbolTableRecord
100
AcDbBlockTableRecord
2
*MODEL_SPACE
0
BLOCK_RECORD
5
1B
100
AcDbSymbolTableRecord
100
AcDbBlockTableRecord
2
*PAPER_SPACE
0
ENDTAB
0
ENDSEC
0
SECTION
2
BLOCKS
0
BLOCK
5
20
100
AcDbEntity
100
AcDbBlockBegin
2
*MODEL_SPACE
0
ENDBLK
5
21
100
AcDbEntity
100
AcDbBlockEnd
0
BLOCK
5
1C
100
AcDbEntity
100
AcDbBlockBegin
2
*PAPER_SPACE
0
ENDBLK
5
1D
100
AcDbEntity
100
AcDbBlockEnd
0
ENDSEC
0
SECTION
2
ENTITIES
0
ARC
5
100
100
AcDbEntity
8
0
100
AcDbCircle
10
-303.60419211891838
20
-32.588752961000964
30
1.2073675392798622e-14
40
1.4000000000005408
210
-1.52841800386571e-30
220
3.8857805861880691e-16
230
1
100
AcDbArc
50
153.85569789140209
51
180
0
LINE
5
101
100
AcDbEntity
8
0
100
AcDbLine
10
-305.00419211891892
20
-32.588752961000857
30
1.2073675392798577e-14
11
-305.00419211891887
21
-123.60821371561539
31
4.7600812180803587e-14
0
ARC
5
102
100
AcDbEntity
8
0
100
AcDbCircle
10
-303.60419211891889
20
-123.60821371561536
30
4.7600812180803587e-14
40
1.3999999999999346
210
-4.9303806576315543e-30
220
3.8857805861880484e-16
230
1
100
AcDbArc
50
180
51
270
0
LINE
5
103
100
AcDbEntity
8
0
100
AcDbLine
10
-303.60419211891889
20
-125.0082137156153
30
4.8144821462869892e-14
11
-269.88454887033856
21
-125.00821371561541
31
4.9821258230053931e-14
0
ARC
5
104
100
AcDbEntity
8
0
100
AcDbCircle
10
-269.88454887033862
20
-124.00821371561541
30
4.9821258230053875e-14
40
0.99999999999999645
210
4.5523495194450452e-30
220
5.5220263365471185e-29
230
1
100
AcDbArc
50
270.00000000000324
51
360
0
LINE
5
105
100
AcDbEntity
8
0
100
AcDbLine
10
-268.88454887033856
20
-124.00821371561547
30
4.98212582300539e-14
11
-268.88454887033851
21
-121.70821473661535
31
4.8953896492065496e-14
0
ARC
5
106
100
AcDbEntity
8
0
100
AcDbCircle
10
-268.33454887033849
20
-121.70821473661535
30
4.7600812180803587e-14
40
0.54999999999999716
210
-5.4346241339799962e-32
220
3.8857805861881194e-16
230
1
100
AcDbArc
50
90
51
180
0
LINE
5
107
100
AcDbEntity
8
0
100
AcDbLine
10
-268.33454887033849
20
-121.15821473661535
30
4.7387094248563243e-14
11
-266.93454887033852
21
-121.15821473661535
31
4.7600812180803587e-14
0
ARC
5
108
100
AcDbEntity
8
0
100
AcDbCircle
10
-266.93454887033852
20
-121.70821473661535
30
4.7600812180803587e-14
40
0.54999999999999716
210
1.7928656936841253e-30
220
3.8857805861880484e-16
230
1
100
AcDbArc
50
0
51
90
0
LINE
5
109
100
AcDbEntity
8
0
100
AcDbLine
10
-266.38454887033851
20
-121.70821473661533
30
4.760081218080358e-14
11
-266.38454887033851
21
-124.00821371561534
31
4.6247727869541677e-14
0
ARC
5
110
100
AcDbEntity
8
0
100
AcDbCircle
10
-265.38454887033851
20
-124.00821371561535
30
4.9821258230053906e-14
40
1.0000000000000142
210
-3.5735303605121729e-15
220
3.8857805861886316e-16
230
1
100
AcDbArc
50
180
51
270
0
LINE
5
111
100
AcDbEntity
8
0
100
AcDbLine
10
-265.38454887033851
20
-125.00821371561537
30
5.0209836288672717e-14
11
-250.70433654873796
21
-125.00821371561544
31
4.7600812180803618e-14
0
ARC
5
112
100
AcDbEntity
8
0
100
AcDbCircle
10
-250.70433654873801
20
-124.00821371561541
30
4.98212582300539e-14
40
1.000000000000032
210
1.8538591413617377e-28
220
-2.2204460492502105e-15
230
1
100
AcDbArc
50
270.00000000000324
51
360
0
LINE
5
113
100
AcDbEntity
8
0
100
AcDbLine
10
-249.70433654873801
20
-124.00821371561543
30
4.98212582300539e-14
11
-249.70433654715632
21
-107.01721616632068
31
4.3159920082302961e-14
0
ARC
5
114
100
AcDbEntity
8
0
100
AcDbCircle
10
-248.70433654715629
20
-107.01721616632071
30
4.3159920082302961e-14
40
0.99999999999999645
210
-1.0920022784675627e-31
220
4.0245584642661752e-16
230
1
100
AcDbArc
50
90
51
180
0
LINE
5
115
100
AcDbEntity
8
0
100
AcDbLine
10
-248.70433654715629
20
-106.01721616632071
30
4.2757464235876341e-14
11
-238.78933654715649
21
-106.01721616632082
31
4.0939474033052698e-14
0
ARC
5
116
100
AcDbEntity
8
0
100
AcDbCircle
10
-238.78933654715649
20
-107.01721616632071
30
4.3159920082302961e-14
40
1.0000000000000142
210
-9.8607613152625215e-31
220
3.8857805861880469e-16
230
1
100
AcDbArc
50
0
51
90
0
LINE
5
117
100
AcDbEntity
8
0
100
AcDbLine
10
-237.78933654715647
20
-107.01721616632072
30
4.3159920082302967e-14
11
-237.78933654873811
21
-124.00821371561541
31
4.98212582300539e-14
0
ARC
5
118
100
AcDbEntity
8
0
100
AcDbCircle
10
-236.78933654873813
20
-124.0082137156154
30
4.98212582300539e-14
40
0.99999999999997868
210
-6.9025329206840018e-30
220
3.8857805861880484e-16
230
1
100
AcDbArc
50
180
51
270
0
LINE
5
119
100
AcDbEntity
8
0
100
AcDbLine
10
-236.78933654873813
20
-125.00821371561537
30
5.0209836288672698e-14
11
-205.43425174635695
21
-125.00821371561544
31
4.9821258230053925e-14
0
ARC
5
120
100
AcDbEntity
8
0
100
AcDbCircle
10
-205.43425174635695
20
-124.00821371561537
30
4.98212582300539e-14
40
1.0000000000000675
210
-1.3025559508661447e-32
220
2.3665827156628757e-29
230
1
100
AcDbArc
50
270
51
355.30645428395542
0
ARC
5
121
100
AcDbEntity
8
0
100
AcDbCircle
10
-205.43425174659779
20
-124.17186619376832
30
4.7600812180803587e-14
40
1.000000000351172
210
-2.2786420609631155e-15
220
2.1537578259948715e-16
230
1
100
AcDbArc
50
4.6935457924177921
51
90.000000000003254
0
LINE
5
122
100
AcDbEntity
8
0
100
AcDbLine
10
-205.43425174659785
20
-123.17186619376838
30
4.719835633437698e-14
11
-209.84104882499531
21
-123.17186619376835
31
4.98212582300539e-14
0
ARC
5
123
100
AcDbEntity
8
0
100
AcDbCircle
10
-209.84104882499531
20
-122.62186619376835
30
4.7600812180803593e-14
40
0.54999999999999716
210
-1.4342925549473016e-29
220
4.0245584642661545e-16
230
1
100
AcDbArc
50
180
51
270
0
LINE
5
124
100
AcDbEntity
8
0
100
AcDbLine
10
-210.39104882499529
20
-122.62186619376835
30
4.7600812180803587e-14
11
-210.39104882499529
21
-109.72186619376836
31
4.2604808569990382e-14
0
ARC
5
125
100
AcDbEntity
8
0
100
AcDbCircle
10
-209.84104882499531
20
-109.72186619376836
30
4.3159920082302961e-14
40
0.54999999999997939
210
-1.8558961282282306e-32
220
3.7470027081099344e-16
230
1
100
AcDbArc
50
90
51
180
0
LINE
5
126
100
AcDbEntity
8
0
100
AcDbLine
10
-209.84104882499531
20
-109.17186619376838
30
4.2953834933356923e-14
11
-205.13454882499525
21
-109.17186619376834
31
4.0939474033052635e-14
0
ARC
5
127
100
AcDbEntity
8
0
100
AcDbCircle
10
-205.13454882499528
20
-108.62186619376831
30
4.0939474033052635e-14
40
0.55000000000001492
210
1.5518742158909212e-29
220
1.0024299553769688e-42
230
1
100
AcDbArc
50
270.00000000000296
51
360
0
LINE
5
128
100
AcDbEntity
8
0
100
AcDbLine
10
-204.58454882499527
20
-108.62186619376835
30
4.0939474033052654e-14
11
-204.58454882499521
21
-107.72186619376836
31
4.2812975387107599e-14
0
ARC
5
129
100
AcDbEntity
8
0
100
AcDbCircle
10
-204.03454882499523
20
-107.72186619376838
30
4.0939474033052647e-14
40
0.54999999999996163
210
8.0311379678629242e-30
220
3.7470027081099127e-16
230
1
100
AcDbArc
50
90
51
180
0
LINE
5
130
100
AcDbEntity
8
0
100
AcDbLine
10
-204.03454882499523
20
-107.17186619376841
30
4.0733388884106617e-14
11
-196.84079882499577
21
-107.17186619376832
31
4.3159920082302948e-14
0
ARC
5
131
100
AcDbEntity
8
0
100
AcDbCircle
10
-196.84079882499577
20
-107.72186619376838
30
3.8719027983802334e-14
40
0.54999999999999716
210
-0
220
3.8857805861880479e-16
230
1
100
AcDbArc
50
0
51
90
0
LINE
5
132
100
AcDbEntity
8
0
100
AcDbLine
10
-196.29079882499579
20
-107.72186619376838
30
3.8719027983802334e-14
11
-196.29079882499579
21
-122.62487100804509
31
4.6768144912334719e-14
0
ARC
5
133
100
AcDbEntity
8
0
100
AcDbCircle
10
-196.84079882499583
20
-122.62487100804506
30
4.7600812180803587e-14
40
0.55000000000003291
210
1.3607850615062454e-29
220
3.8857805861879e-16
230
1
100
AcDbArc
50
275.99188191554214
51
360
0
SPLINE
5
134
100
AcDbEntity
8
0
100
AcDbSpline
70
0
71
3
72
14
73
10
74
0
42
0.000000001
43
0.0000000001
44
0.0000000001
40
0.0075380937946250342
40
0.0075380937946250342
40
0.0075380937946250342
40
0.0075380937946250342
40
0.039064447338693437
40
0.039064447338693437
40
0.078128894677383903
40
0.078128894677383903
40
0.10963622112753099
40
0.10963622112753099
40
0.14114335952783311
40
0.14114335952783311
40
0.14114335952783311
40
0.14114335952783311
10
-197.61816975420544
20
-124.08340403306028
30
4.7600812180803587e-14
10
-197.61029148208985
20
-123.97892205358117
30
4.98212582300539e-14
10
-197.58602718993575
20
-123.87616330429837
30
4.7600812180803587e-14
10
-197.49669444426928
20
-123.65847773546824
30
4.7600812180803587e-14
10
-197.42420135460662
20
-123.54881977742586
30
4.98212582300539e-14
10
-197.25895709300758
20
-123.3813926683613
30
4.5380366131553274e-14
10
-197.17386519822699
20
-123.31873021361019
30
4.7600812180803587e-14
10
-196.98731473443036
20
-123.22219432612428
30
4.7600812180803587e-14
10
-196.88701549621891
20
-123.18892059998799
30
4.5380366131553274e-14
10
-196.78338564240789
20
-123.17186629820878
30
4.98212582300539e-14
0
ARC
5
135
100
AcDbEntity
8
0
100
AcDbCircle
10
-196.6210005074629
20
-124.0082137156154
30
4.98212582300539e-14
40
1.0000000452432765
210
-2.2433776202850941e-15
220
2.2052204448545133e-16
230
1
100
AcDbArc
50
184.31215737269582
51
270
0
LINE
5
136
100
AcDbEntity
8
0
100
AcDbLine
10
-196.6210005074629
20
-125.0082137156154
30
5.0211018904595346e-14
11
-186.76954882499442
21
-125.00821371561543
31
4.7600812180803593e-14
0
ARC
5
137
100
AcDbEntity
8
0
100
AcDbCircle
10
-186.76954882499442
20
-124.00821371561543
30
4.98212582300539e-14
40
0.99999999999999645
210
-4.872682505988251e-33
220
-2.2204460492503131e-15
230
1
100
AcDbArc
50
270
51
360
0
LINE
5
138
100
AcDbEntity
8
0
100
AcDbLine
10
-185.76954882499444
20
-124.00821371561545
30
4.9821258230053906e-14
11
-185.76954882499524
21
-122.17186599284562
31
4.9092674370143641e-14
0
LINE
5
139
100
AcDbEntity
8
0
100
AcDbLine
10
-185.76954882499524
20
-122.17186599284562
30
4.9092674370143641e-14
11
-185.76954882499524
21
-108.32186619376836
31
4.2327252813834093e-14
0
ARC
5
140
100
AcDbEntity
8
0
100
AcDbCircle
10
-184.76954882499527
20
-108.32186619376839
30
4.3159920082302961e-14
40
0.99999999999999645
210
-5.8548270309372047e-32
220
4.1633363423443518e-16
230
1
100
AcDbArc
50
90
51
180
0
LINE
5
141
100
AcDbEntity
8
0
100
AcDbLine
10
-184.76954882499527
20
-107.32186619376839
30
4.2743586448068527e-14
11
-178.95254882499523
21
-107.32186619376834
31
4.0939474033052641e-14
0
ARC
5
142
100
AcDbEntity
8
0
100
AcDbCircle
10
-178.95254882499523
20
-108.32186619376833
30
4.3159920082302961e-14
40
0.99999999999997868
210
-0
220
3.8857805861880479e-16
230
1
100
AcDbArc
50
0
51
90
0
LINE
5
143
100
AcDbEntity
8
0
100
AcDbLine
10
-177.95254882499523
20
-108.32186619376833
30
4.3159920082302961e-14
11
-177.95254882499529
21
-122.17186599284567
31
4.8433479449272454e-14
0
LINE
5
144
100
AcDbEntity
8
0
100
AcDbLine
10
-177.95254882499529
20
-122.17186599284567
30
4.8433479449272454e-14
11
-177.95254882499532
21
-124.00821371561541
31
4.829470157119431e-14
0
ARC
5
145
100
AcDbEntity
8
0
100
AcDbCircle
10
-176.95254882499535
20
-124.00821371561543
30
4.98212582300539e-14
40
0.99999999999997868
210
-1.5265566588596159e-15
220
3.8857805861883191e-16
230
1
100
AcDbArc
50
180
51
270
0
LINE
5
146
100
AcDbEntity
8
0
100
AcDbLine
10
-176.95254882499535
20
-125.0082137156154
30
5.0209836288672692e-14
11
-91.409548824995539
21
-125.00821371561548
31
4.7600812180803618e-14
0
ARC
5
147
100
AcDbEntity
8
0
100
AcDbCircle
10
-91.409548824995568
20
-124.00821371561543
30
4.98212582300539e-14
40
1.0000000000000497
210
9.2718551316616114e-29
220
-2.2204460492501711e-15
230
1
100
AcDbArc
50
270.00000000000159
51
360
0
LINE
5
148
100
AcDbEntity
8
0
100
AcDbLine
10
-90.409548824995539
20
-124.00821371561547
30
4.9821258230053912e-14
11
-90.409548824995312
21
-122.17186599284645
31
4.9162063309182713e-14
0
LINE
5
149
100
AcDbEntity
8
0
100
AcDbLine
10
-90.409548824995312
20
-122.17186599284645
30
4.9162063309182713e-14
11
-90.409548824995312
21
-108.32186619376827
31
4.2327252813834093e-14
0
ARC
5
150
100
AcDbEntity
8
0
100
AcDbCircle
10
-89.409548824995227
20
-108.32186619376829
30
4.0939474033052647e-14
40
0.99999999999999645
210
-5.8548270309372047e-32
220
4.1633363423443518e-16
230
1
100
AcDbArc
50
90
51
180
0
LINE
5
151
100
AcDbEntity
8
0
100
AcDbLine
10
-89.409548824995227
20
-107.3218661937683
30
4.0523140398818214e-14
11
-79.147048824995267
21
-107.32186619376827
31
4.0939474033052641e-14
0
ARC
5
152
100
AcDbEntity
8
0
100
AcDbCircle
10
-79.147048824995252
20
-108.32186619376829
30
4.0939474033052647e-14
40
1.0000000000000053
210
-0
220
3.7470027081099033e-16
230
1
100
AcDbArc
50
0
51
90.00000000000081
0
LINE
5
153
100
AcDbEntity
8
0
100
AcDbLine
10
-78.147048824995252
20
-108.32186619376829
30
4.0939474033052647e-14
11
-78.147048824995295
21
-122.17186599284653
31
4.8711035205428743e-14
0
LINE
5
154
100
AcDbEntity
8
0
100
AcDbLine
10
-78.147048824995295
20
-122.17186599284653
30
4.8711035205428743e-14
11
-78.147048824995352
21
-124.00821371561541
31
4.8364090510233382e-14
0
ARC
5
155
100
AcDbEntity
8
0
100
AcDbCircle
10
-77.14704882499538
20
-124.00821371561543
30
4.98212582300539e-14
40
0.99999999999997868
210
-1.4571677198205422e-15
220
3.8857805861883072e-16
230
1
100
AcDbArc
50
180
51
270
0
LINE
5
156
100
AcDbEntity
8
0
100
AcDbLine
10
-77.14704882499538
20
-125.00821371561541
30
5.0209836288672698e-14
11
-27.759548870338548
21
-125.00821371561541
31
4.7600812180803587e-14
0
ARC
5
157
100
AcDbEntity
8
0
100
AcDbCircle
10
-27.759548870338552
20
-124.00821371561543
30
4.9821258230053906e-14
40
0.99999999999997868
210
2.1397063610385584e-29
220
-2.2204460492503683e-15
230
1
100
AcDbArc
50
-89.999999999999801
51
0
0
LINE
5
158
100
AcDbEntity
8
0
100
AcDbLine
10
-26.759548870338556
20
-124.00821371561543
30
4.98212582300539e-14
11
-26.759548870338513
21
-121.7082147366186
31
4.8953896492065496e-14
0
ARC
5
159
100
AcDbEntity
8
0
100
AcDbCircle
10
-26.209548870338509
20
-121.70821473661863
30
4.5380366131553274e-14
40
0.54999999999999716
210
5.1446841350812704e-31
220
3.8857805861881194e-16
230
1
100
AcDbArc
50
89.999999999998892
51
180
0
LINE
5
160
100
AcDbEntity
8
0
100
AcDbLine
10
-26.209548870338498
20
-121.15821473661865
30
4.516664819931293e-14
11
-24.80954887033851
21
-121.15821473661865
31
4.98212582300539e-14
0
ARC
5
161
100
AcDbEntity
8
0
100
AcDbCircle
10
-24.809548870338517
20
-121.70821473661867
30
4.7600812180803587e-14
40
0.5500000000000016
210
1.7928656936841126e-30
220
3.8857805861880479e-16
230
1
100
AcDbArc
50
0
51
89.999999999999261
0
LINE
5
162
100
AcDbEntity
8
0
100
AcDbLine
10
-24.259548870338516
20
-121.70821473661866
30
4.760081218080358e-14
11
-24.259548870338548
21
-124.00821371561543
31
4.6282422339061213e-14
0
ARC
5
163
100
AcDbEntity
8
0
100
AcDbCircle
10
-23.259548870338552
20
-124.00821371561545
30
4.98212582300539e-14
40
0.99999999999999645
210
-3.538835890992692e-15
220
4.0245584642667619e-16
230
1
100
AcDbArc
50
180
51
270.00000000000023
0
LINE
5
164
100
AcDbEntity
8
0
100
AcDbLine
10
-23.259548870338548
20
-125.00821371561544
30
5.0223714076480506e-14
11
-3.0640523421996013
21
-125.00821371561545
31
4.7600812180803587e-14
0
ARC
5
165
100
AcDbEntity
8
0
100
AcDbCircle
10
-3.0640523421996004
20
-123.60821371561543
30
4.7600812180803587e-14
40
1.4000000000000234
210
-4.0315499855578729e-31
220
3.1970854420667807e-46
230
1
100
AcDbArc
50
-90.000000000000057
51
0
0
LINE
5
166
100
AcDbEntity
8
0
100
AcDbLine
10
-1.6640523421996003
20
-123.60821371561539
30
4.7600812180803561e-14
11
-1.6640523421996221
21
-32.588752961001184
31
1.2073675392798577e-14
0
ARC
5
167
100
AcDbEntity
8
0
100
AcDbCircle
10
-3.0640523421996302
20
-32.588752961001177
30
1.2073675392798577e-14
40
1.4000000000000081
210
1.1885739085361155e-30
220
3.7470027081099023e-16
230
1
100
AcDbArc
50
0
51
90.000001357010902
0
LINE
5
168
100
AcDbEntity
8
0
100
AcDbLine
10
-3.0640523753576616
20
-31.188752961001171
30
1.1549095013663187e-14
11
-17.734549052477643
21
-31.188752961001157
31
1.2073675392798574e-14
0
ARC
5
169
100
AcDbEntity
8
0
100
AcDbCircle
10
-17.734549052477643
20
-32.18875296100115
30
1.2073675392798579e-14
40
0.99999999999999645
210
-4.855691805713993e-31
220
5.9164567891576082e-30
230
1
100
AcDbArc
50
90
51
180
0
LINE
5
170
100
AcDbEntity
8
0
100
AcDbLine
10
-18.734549052477643
20
-32.188752961001143
30
1.2073675392798574e-14
11
-18.734549052477679
21
-34.588810651580324
31
1.3010426069826053e-14
0
ARC
5
171
100
AcDbEntity
8
0
100
AcDbCircle
10
-19.284549052477679
20
-34.588810651580324
30
1.3183898417423734e-14
40
0.5500000000000016
210
1.9595461761438736e-31
220
3.8857805861880528e-16
230
1
100
AcDbArc
50
-90.000000000000369
51
0
0
LINE
5
172
100
AcDbEntity
8
0
100
AcDbLine
10
-19.284549052477683
20
-35.138810651580329
30
1.3397616349664078e-14
11
-20.684549052477688
21
-35.1388106515803
31
1.3183898417423726e-14
0
ARC
5
173
100
AcDbEntity
8
0
100
AcDbCircle
10
-20.684549052477678
20
-34.588810651580303
30
1.2628786905111156e-14
40
0.5500000000000016
210
2.689298540526169e-30
220
3.8857805861880479e-16
230
1
100
AcDbArc
50
180
51
269.99999999999886
0
LINE
5
174
100
AcDbEntity
8
0
100
AcDbLine
10
-21.234549052477682
20
-34.588810651580296
30
1.2628786905111154e-14
11
-21.23454905247765
21
-32.188752961001185
31
1.169203622808368e-14
0
ARC
5
175
100
AcDbEntity
8
0
100
AcDbCircle
10
-22.234549052477661
20
-32.188752961001171
30
1.2073675392798579e-14
40
1.0000000000000098
210
3.8163916471490116e-16
220
4.0245584642661555e-16
230
1
100
AcDbArc
50
0
51
89.999999999999588
0
LINE
5
176
100
AcDbEntity
8
0
100
AcDbLine
10
-22.234549052477654
20
-31.188752961001164
30
1.1671219546371958e-14
11
-93.934458195570983
21
-31.18875296100116
31
1.2073675392798543e-14
0
ARC
5
177
100
AcDbEntity
8
0
100
AcDbCircle
10
-93.934458195570983
20
-32.188752961001164
30
1.1518563880485998e-14
40
1.0000000000000053
210
2.0923227863640665e-30
220
-5.5511151231254179e-16
230
1
100
AcDbArc
50
90
51
180
0
LINE
5
178
100
AcDbEntity
8
0
100
AcDbLine
10
-94.934458195570969
20
-32.188752961001171
30
1.1518563880486001e-14
11
-94.934458195570983
21
-34.588756695536034
31
1.2975731600306517e-14
0
ARC
5
179
100
AcDbEntity
8
0
100
AcDbCircle
10
-95.484458195570994
20
-34.588756695536041
30
1.2628786905111156e-14
40
0.5500000000000016
210
-2.3671429861922805e-32
220
3.8857805861880528e-16
230
1
100
AcDbArc
50
-90
51
0
0
LINE
5
180
100
AcDbEntity
8
0
100
AcDbLine
10
-95.484458195570994
20
-35.138756695536046
30
1.28425048373515e-14
11
-96.884458192507168
21
-35.138756695536046
31
1.3183898417423734e-14
0
ARC
5
181
100
AcDbEntity
8
0
100
AcDbCircle
10
-96.884458192507168
20
-34.588756695536041
30
1.2628786905111156e-14
40
0.54999999999999716
210
0
220
3.8857805861880484e-16
230
1
100
AcDbArc
50
180
51
270
0
LINE
5
182
100
AcDbEntity
8
0
100
AcDbLine
10
-97.434458192507165
20
-34.588756695536041
30
1.2628786905111156e-14
11
-97.434458192507208
21
-32.18875296100115
31
1.2802259252708836e-14
0
ARC
5
183
100
AcDbEntity
8
0
100
AcDbCircle
10
-98.434458192507179
20
-32.18875296100115
30
1.1518563880485996e-14
40
0.99999999999997868
210
-1.2836953722228686e-15
220
3.7470027081098915e-16
230
1
100
AcDbArc
50
0
51
90
0
LINE
5
184
100
AcDbEntity
8
0
100
AcDbLine
10
-98.434458192507179
20
-31.188752961001157
30
1.1143863609675006e-14
11
-208.23454887033836
21
-31.188752961001139
31
1.1518563880486001e-14
0
ARC
5
185
100
AcDbEntity
8
0
100
AcDbCircle
10
-208.23454887033833
20
-32.188752961001164
30
1.207367539279859e-14
40
1.0000000000000275
210
-6.3533399617781304e-30
220
5.5511151231257285e-16
230
1
100
AcDbArc
50
90.000000000001634
51
180
0
LINE
5
186
100
AcDbEntity
8
0
100
AcDbLine
10
-209.23454887033836
20
-32.188752961001121
30
1.2073675392798571e-14
11
-209.23454887033844
21
-34.588810651577752
31
1.2975731600306517e-14
0
ARC
5
187
100
AcDbEntity
8
0
100
AcDbCircle
10
-209.78454887033845
20
-34.588810651577745
30
1.3183898417423734e-14
40
0.5500000000000016
210
-5.5186647133714296e-32
220
4.0245584642661782e-16
230
1
100
AcDbArc
50
270
51
360
0
LINE
5
188
100
AcDbEntity
8
0
100
AcDbLine
10
-209.78454887033845
20
-35.138810651577749
30
1.3405249132958375e-14
11
-211.18454887033838
21
-35.138810651577728
31
1.3739009929736304e-14
0
ARC
5
189
100
AcDbEntity
8
0
100
AcDbCircle
10
-211.18454887033838
20
-34.588810651577724
30
1.3183898417423734e-14
40
0.54999999999999716
210
2.6892985405261907e-30
220
3.8857805861880479e-16
230
1
100
AcDbArc
50
180
51
270
0
LINE
5
190
100
AcDbEntity
8
0
100
AcDbLine
10
-211.73454887033839
20
-34.588810651577717
30
1.3183898417423732e-14
11
-211.73454887033839
21
-32.188752961001157
31
1.169203622808368e-14
0
ARC
5
191
100
AcDbEntity
8
0
100
AcDbCircle
10
-212.73454887033836
20
-32.18875296100115
30
1.2073675392798584e-14
40
0.99999999999997868
210
3.8163916471491339e-16
220
4.0245584642661944e-16
230
1
100
AcDbArc
50
0
51
90
0
LINE
5
192
100
AcDbEntity
8
0
100
AcDbLine
10
-212.73454887033836
20
-31.188752961001139
30
1.1671219546371958e-14
11
-284.4345488703384
21
-31.188752961001093
31
1.1518563880485923e-14
0
ARC
5
193
100
AcDbEntity
8
0
100
AcDbCircle
10
-284.4345488703384
20
-32.1887529610011
30
1.1518563880485998e-14
40
1.0000000000000098
210
-1.5228025145512179e-29
220
7.2969633732943413e-29
230
1
100
AcDbArc
50
90
51
180
0
LINE
5
194
100
AcDbEntity
8
0
100
AcDbLine
10
-285.4345488703384
20
-32.188752961001093
30
1.1518563880485991e-14
11
-285.4345488703384
21
-34.588810651576722
31
1.3010426069826053e-14
0
ARC
5
195
100
AcDbEntity
8
0
100
AcDbCircle
10
-285.98454887033841
20
-34.588810651576715
30
1.3183898417423734e-14
40
0.5500000000000016
210
-5.5186647133714296e-32
220
4.0245584642661782e-16
230
1
100
AcDbArc
50
270
51
360
0
LINE
5
196
100
AcDbEntity
8
0
100
AcDbLine
10
-285.98454887033841
20
-35.138810651576719
30
1.3405249132958375e-14
11
-287.38454887033834
21
-35.138810651576698
31
1.2628786905111149e-14
0
ARC
5
197
100
AcDbEntity
8
0
100
AcDbCircle
10
-287.38454887033834
20
-34.588810651576701
30
1.3183898417423734e-14
40
0.54999999999999716
210
2.6892985405261907e-30
220
3.8857805861880479e-16
230
1
100
AcDbArc
50
180
51
270
0
LINE
5
198
100
AcDbEntity
8
0
100
AcDbLine
10
-287.93454887033835
20
-34.588810651576686
30
1.3183898417423732e-14
11
-287.93454887033835
21
-32.188752961001157
31
1.1726730697603216e-14
0
ARC
5
199
100
AcDbEntity
8
0
100
AcDbCircle
10
-288.93454887033835
20
-32.188752961001178
30
1.1518563880486013e-14
40
1.0000000000000142
210
-2.0816681711720901e-16
220
4.024558464266153e-16
230
1
100
AcDbArc
50
0
51
89.999999999996746
0
LINE
5
200
100
AcDbEntity
8
0
100
AcDbLine
10
-288.93454887033829
20
-31.188752961001128
30
1.1116108034059374e-14
11
-294.20170671563818
21
-31.188752961001043
31
1.1518563880485961e-14
0
LINE
5
201
100
AcDbEntity
8
0
100
AcDbLine
10
-294.20170671563818
20
-31.188752961001043
30
1.1518563880485961e-14
11
-294.20170922692012
21
-31.971866188322512
31
1.1267028976469362e-14
0
LINE
5
202
100
AcDbEntity
8
0
100
AcDbLine
10
-294.20170922692012
20
-31.971866188322512
30
1.1267028976469362e-14
11
-304.86095411297134
21
-31.971866188322629
31
1.1833966728283649e-14
0
LWPOLYLINE
5
203
100
AcDbEntity
8
0
100
AcDbPolyline
90
40
70
1
43
0.0
10
-15.227798824995292
20
-90.121866192411687
42
0.41421356237308909
10
-14.677798824995305
20
-89.57186619241169
10
-14.6777988249953
20
-87.721866192411028
42
-0.41421356237309503
10
-14.127798824995303
20
-87.171866192411031
10
-7.2277988249951868
20
-87.171866192411059
42
-0.41421356237309442
10
-6.677798824995187
20
-87.721866192411056
10
-6.6777988249951958
20
-89.571866192411349
42
0.41421356237311102
10
-6.1277988249951774
20
-90.121866192411346
10
-5.8777988249950521
20
-90.12186619241136
42
-0.41421356237310569
10
-5.3277988249950319
20
-90.671866192411358
10
-5.3277988249950514
20
-103.57186619241187
42
-0.41421356237308909
10
-5.8777988249950202
20
-104.12186619241189
10
-6.1277988249953141
20
-104.12186619241189
42
0.41421356237308793
10
-6.6777988249952802
20
-104.6718661924119
10
-6.6777988249953024
20
-106.26186619538774
42
-0.41421356237308082
10
-7.2277988249952907
20
-106.81186619538775
10
-13.815798824995246
20
-106.81186619538785
42
-0.41421356237309037
10
-14.365798824995256
20
-106.26186619538787
10
-14.365798824995002
20
-104.9218661941736
42
0.41421356237307144
10
-14.915798824995253
20
-104.37186619417362
10
-29.815798824995241
20
-104.37186619417362
42
0.41421356237308082
10
-30.365798824995245
20
-104.92186619417362
10
-30.365798824995245
20
-106.26186619538811
42
-0.41421356237309037
10
-30.915798824995235
20
-106.81186619538809
10
-37.503798824995172
20
-106.81186619538819
42
-0.41421356237309037
10
-38.053798824995184
20
-106.26186619538821
10
-38.053798824995191
20
-104.67186619241188
42
0.41421356237311868
10
-38.603798824995195
20
-104.12186619241184
10
-41.153798824994972
20
-104.1218661924119
42
-0.41421356237309975
10
-41.703798824994976
20
-103.5718661924119
10
-41.703798824994969
20
-90.671866192411443
42
-0.41421356237314239
10
-41.153798824994901
20
-90.121866192411431
10
-38.603798824995302
20
-90.121866192411758
42
0.41421356237313761
10
-38.053798824995241
20
-89.571866192411733
10
-38.053798824995241
20
-87.721866192410999
42
-0.41421356237309503
10
-37.503798824995243
20
-87.171866192411017
10
-30.60379882499528
20
-87.171866192411017
42
-0.41421356237309503
10
-30.053798824995276
20
-87.721866192410999
10
-30.053798824995283
20
-89.571866192412202
42
0.41421356237310214
10
-29.503798824995261
20
-90.12186619241217
0
LWPOLYLINE
5
204
100
AcDbEntity
8
0
100
AcDbPolyline
90
8
70
1
43
0.0
10
-246.05954882499526
20
-46.421866193768338
10
-246.0595488249952
20
-33.521866193768339
42
-0.41421356237312579
10
-245.50954882499522
20
-32.971866193768349
10
-232.60954882499527
20
-32.971866193768335
42
-0.41421356237313056
10
-232.05954882499526
20
-33.521866193768332
10
-232.05954882499529
20
-46.421866193768338
42
-0.41421356237313289
10
-232.6095488249953
20
-46.971866193768328
10
-245.50954882499525
20
-46.971866193768335
42
-0.41421356237313289
0
LWPOLYLINE
5
205
100
AcDbEntity
8
0
100
AcDbPolyline
90
8
70
1
43
0.0
10
-227.00954882499528
20
-46.421866193768324
10
-227.00954882499525
20
-33.521866193768325
42
-0.41421356237312346
10
-226.45954882499524
20
-32.971866193768335
10
-213.55954882499526
20
-32.971866193768328
42
-0.41421356237313056
10
-213.00954882499525
20
-33.521866193768318
10
-213.00954882499528
20
-46.421866193768309
42
-0.41421356237313761
10
-213.55954882499529
20
-46.971866193768307
10
-226.45954882499527
20
-46.971866193768321
42
-0.41421356237313289
0
LWPOLYLINE
5
206
100
AcDbEntity
8
0
100
AcDbPolyline
90
8
70
1
43
0.0
10
-207.95954882499527
20
-46.421866193768309
10
-207.95954882499524
20
-33.521866193768318
42
-0.41421356237313056
10
-207.40954882499523
20
-32.971866193768314
10
-194.50954882499525
20
-32.971866193768314
42
-0.41421356237313289
10
-193.95954882499524
20
-33.521866193768311
10
-193.95954882499527
20
-46.421866193768309
42
-0.41421356237313289
10
-194.50954882499528
20
-46.9718661937683
10
-207.40954882499526
20
-46.971866193768321
42
-0.41421356237313761
0
LWPOLYLINE
5
207
100
AcDbEntity
8
0
100
AcDbPolyline
90
8
70
1
43
0.0
10
-53.465798824995247
20
-109.72186619376829
10
-53.465798824995268
20
-122.62186619376827
42
-0.41421356237307144
10
-54.015798824995258
20
-123.17186619376828
10
-69.297048824995244
20
-123.1718661937683
42
-0.41421356237310453
10
-69.847048824995255
20
-122.62186619376828
10
-69.847048824995227
20
-109.72186619376829
42
-0.41421356237307611
10
-69.297048824995244
20
-109.17186619376832
10
-54.015798824995244
20
-109.17186619376832
42
-0.41421356237312346
0
LWPOLYLINE
5
208
100
AcDbEntity
8
0
100
AcDbPolyline
90
8
70
1
43
0.0
10
-251.10954882499527
20
-109.72186619376841
10
-251.1095488249953
20
-122.62186619376835
42
-0.41421356237312346
10
-251.65954882499534
20
-123.17186619376838
10
-264.55954882499532
20
-123.17186619376835
42
-0.41421356237309503
10
-265.10954882499527
20
-122.62186619376835
10
-265.10954882499527
20
-109.72186619376841
42
-0.41421356237311396
10
-264.5595488249952
20
-109.17186619376838
10
-251.65954882499528
20
-109.17186619376838
42
-0.41421356237314239
0
LWPOLYLINE
5
209
100
AcDbEntity
8
0
100
AcDbPolyline
90
8
70
1
43
0.0
10
-107.39704882499527
20
-71.071866193768273
10
-94.497048824995247
20
-71.07186619376823
42
-0.41421356237309037
10
-93.94704882499525
20
-71.621866193768255
10
-93.94704882499525
20
-84.52186619376829
42
-0.4142135623730856
10
-94.497048824995233
20
-85.071866193768273
10
-107.39704882499524
20
-85.071866193768301
42
-0.41421356237312346
10
-107.94704882499524
20
-84.521866193768318
10
-107.94704882499531
20
-71.62186619376827
42
-0.41421356237309975
0
LWPOLYLINE
5
210
100
AcDbEntity
8
0
100
AcDbPolyline
90
8
70
1
43
0.0
10
-244.51579882499527
20
-104.12186619376834
10
-257.41579882499525
20
-104.12186619376841
42
-0.41421356237311396
10
-257.96579882499526
20
-103.57186619376839
10
-257.9657988249952
20
-90.671866193768381
42
-0.41421356237311396
10
-257.41579882499519
20
-90.121866193768355
10
-244.51579882499522
20
-90.121866193768355
42
-0.41421356237314239
10
-243.96579882499523
20
-90.671866193768381
10
-243.96579882499532
20
-103.57186619376836
42
-0.41421356237310453
0
LWPOLYLINE
5
211
100
AcDbEntity
8
0
100
AcDbPolyline
90
8
70
1
43
0.0
10
-60.32204882499525
20
-103.57186619376827
42
0.41421356237307611
10
-59.772048824995252
20
-104.12186619376827
10
-46.872048824995254
20
-104.12186619376827
42
0.41421356237307611
10
-46.322048824995257
20
-103.57186619376827
10
-46.322048824995257
20
-90.671866193768281
42
0.41421356237310453
10
-46.872048824995254
20
-90.12186619376827
10
-59.772048824995252
20
-90.121866193768284
42
0.41421356237306667
10
-60.32204882499525
20
-90.671866193768267
0
LWPOLYLINE
5
212
100
AcDbEntity
8
0
100
AcDbPolyline
90
8
70
1
43
0.0
10
-289.20954882499524
20
-71.621866193768383
42
0.41421356237313761
10
-289.75954882499525
20
-71.071866193768372
10
-302.65954882499523
20
-71.071866193768386
42
0.41421356237310453
10
-303.20954882499518
20
-71.621866193768383
10
-303.20954882499524
20
-84.521866193768346
42
0.41421356237311396
10
-302.65954882499523
20
-85.0718661937684
10
-289.75954882499525
20
-85.071866193768372
42
0.4142135623730383
10
-289.20954882499524
20
-84.521866193768403
0
LWPOLYLINE
5
213
100
AcDbEntity
8
0
100
AcDbPolyline
90
8
70
1
43
0.0
10
-289.20954882499524
20
-90.671866193768409
42
0.41421356237314239
10
-289.75954882499525
20
-90.121866193768398
10
-302.65954882499523
20
-90.121866193768369
42
0.41421356237309503
10
-303.20954882499524
20
-90.671866193768409
10
-303.2095488249953
20
-103.5718661937684
42
0.4142135623730856
10
-302.65954882499523
20
-104.12186619376837
10
-289.75954882499525
20
-104.12186619376841
42
0.41421356237310453
10
-289.20954882499524
20
-103.5718661937684
0
LWPOLYLINE
5
214
100
AcDbEntity
8
0
100
AcDbPolyline
90
8
70
1
43
0.0
10
-270.15954882499523
20
-90.671866193768381
42
0.41421356237314239
10
-270.70954882499518
20
-90.121866193768355
10
-283.60954882499522
20
-90.121866193768369
42
0.41421356237309503
10
-284.15954882499523
20
-90.671866193768409
10
-284.15954882499528
20
-103.57186619376841
42
0.41421356237311396
10
-283.60954882499522
20
-104.12186619376838
10
-270.7095488249953
20
-104.12186619376838
42
0.41421356237311396
10
-270.15954882499523
20
-103.57186619376839
0
LWPOLYLINE
5
215
100
AcDbEntity
8
0
100
AcDbPolyline
90
8
70
1
43
0.0
10
-5.8407988249952503
20
-109.72186619376825
42
0.41421356237309442
10
-6.3907988249952492
20
-109.17186619376824
10
-21.672048824995244
20
-109.17186619376824
42
0.41421356237307611
10
-22.222048824995273
20
-109.72186619376828
10
-22.222048824995241
20
-122.62186619376827
42
0.41421356237309742
10
-21.672048824995251
20
-123.17186619376825
10
-6.3907988249952483
20
-123.17186619376825
42
0.41421356237309037
10
-5.84079882499526
20
-122.62186619376823
0
LWPOLYLINE
5
216
100
AcDbEntity
8
0
100
AcDbPolyline
90
8
70
1
43
0.0
10
-193.67204882499524
20
-103.57186619376833
42
0.41421356237313289
10
-193.12204882499526
20
-104.12186619376833
10
-180.22204882499528
20
-104.12186619376833
42
0.41421356237310453
10
-179.67204882499527
20
-103.57186619376834
10
-179.67204882499522
20
-90.671866193768338
42
0.41421356237314239
10
-180.22204882499523
20
-90.121866193768341
10
-193.12204882499518
20
-90.121866193768341
42
0.41421356237309503
10
-193.67204882499522
20
-90.671866193768324
0
LWPOLYLINE
5
217
100
AcDbEntity
8
0
100
AcDbPolyline
90
8
70
1
43
0.0
10
-103.47204882499526
20
-90.671866193768295
42
0.41421356237309503
10
-104.02204882499525
20
-90.121866193768312
10
-116.92204882499526
20
-90.121866193768312
42
0.41421356237300988
10
-117.47204882499528
20
-90.671866193768295
10
-117.47204882499526
20
-103.57186619376832
42
0.4142135623730856
10
-116.92204882499524
20
-104.12186619376828
10
-104.02204882499527
20
-104.12186619376827
42
0.41421356237306667
10
-103.47204882499526
20
-103.5718661937683
0
LWPOLYLINE
5
218
100
AcDbEntity
8
0
100
AcDbPolyline
90
8
70
1
43
0.0
10
-8.2220488249952464
20
-52.571866193768209
42
0.4142135623730791
10
-8.7720488249952453
20
-52.021866193768211
10
-21.67204882499524
20
-52.02186619376824
42
0.41421356237310686
10
-22.222048824995241
20
-52.571866193768244
10
-22.222048824995248
20
-65.471866193768221
42
0.41421356237310686
10
-21.672048824995251
20
-66.021866193768219
10
-8.7720488249952471
20
-66.021866193768204
42
0.41421356237309442
10
-8.2220488249952499
20
-65.471866193768221
0
LWPOLYLINE
5
219
100
AcDbEntity
8
0
100
AcDbPolyline
90
8
70
1
43
0.0
10
-227.29704882499522
20
-71.621866193768355
42
0.41421356237313289
10
-227.84704882499523
20
-71.071866193768358
10
-240.7470488249952
20
-71.071866193768344
42
0.41421356237309975
10
-241.29704882499524
20
-71.621866193768341
10
-241.29704882499524
20
-84.521866193768346
42
0.41421356237313289
10
-240.74704882499526
20
-85.071866193768372
10
-227.84704882499526
20
-85.071866193768315
42
0.41421356237310453
10
-227.29704882499527
20
-84.521866193768332
0
LWPOLYLINE
5
220
100
AcDbEntity
8
0
100
AcDbPolyline
90
8
70
1
43
0.0
10
-217.77204882499521
20
-90.671866193768352
42
0.41421356237314239
10
-218.32204882499525
20
-90.121866193768369
10
-231.2220488249952
20
-90.121866193768327
42
0.4142135623730856
10
-231.77204882499524
20
-90.671866193768352
10
-231.77204882499527
20
-103.57186619376836
42
0.41421356237313289
10
-231.22204882499528
20
-104.12186619376833
10
-218.32204882499528
20
-104.12186619376838
42
0.41421356237311396
10
-217.7720488249953
20
-103.57186619376836
0
LWPOLYLINE
5
221
100
AcDbEntity
8
0
100
AcDbPolyline
90
8
70
1
43
0.0
10
-289.20954882499524
20
-52.571866193768372
42
0.41421356237311396
10
-289.75954882499525
20
-52.021866193768332
10
-302.65954882499528
20
-52.021866193768361
42
0.41421356237314239
10
-303.2095488249953
20
-52.571866193768386
10
-303.20954882499524
20
-65.471866193768392
42
0.41421356237312812
10
-302.65954882499523
20
-66.021866193768346
10
-289.75954882499525
20
-66.021866193768389
42
0.41421356237313289
10
-289.20954882499524
20
-65.471866193768378
0
LWPOLYLINE
5
222
100
AcDbEntity
8
0
100
AcDbPolyline
90
8
70
1
43
0.0
10
-122.23454882499526
20
-65.471866193768292
42
0.4142135623730856
10
-121.68454882499526
20
-66.021866193768304
10
-108.78454882499526
20
-66.021866193768275
42
0.41421356237309037
10
-108.23454882499522
20
-65.471866193768292
10
-108.23454882499526
20
-52.57186619376828
42
0.41421356237308082
10
-108.78454882499526
20
-52.02186619376829
10
-121.68454882499526
20
-52.02186619376829
42
0.41421356237307144
10
-122.23454882499524
20
-52.57186619376828
0
LWPOLYLINE
5
223
100
AcDbEntity
8
0
100
AcDbPolyline
90
8
70
1
43
0.0
10
-69.847048824995255
20
-84.521866193768261
42
0.41421356237307611
10
-69.297048824995244
20
-85.071866193768258
10
-56.39704882499526
20
-85.071866193768258
42
0.41421356237307611
10
-55.847048824995262
20
-84.521866193768261
10
-55.847048824995262
20
-71.621866193768241
42
0.41421356237309975
10
-56.39704882499526
20
-71.071866193768258
10
-69.297048824995244
20
-71.071866193768258
42
0.41421356237307611
10
-69.847048824995255
20
-71.621866193768255
0
LWPOLYLINE
5
224
100
AcDbEntity
8
0
100
AcDbPolyline
90
8
70
1
43
0.0
10
-65.084548824995238
20
-65.47186619376825
42
0.41421356237307611
10
-64.534548824995255
20
-66.021866193768247
10
-51.63454882499525
20
-66.021866193768261
42
0.41421356237309037
10
-51.084548824995238
20
-65.47186619376825
10
-51.084548824995252
20
-52.571866193768244
42
0.41421356237310919
10
-51.634548824995257
20
-52.02186619376824
10
-64.534548824995255
20
-52.021866193768254
42
0.41421356237307144
10
-65.084548824995238
20
-52.571866193768244
0
LWPOLYLINE
5
225
100
AcDbEntity
8
0
100
AcDbPolyline
90
8
70
1
43
0.0
10
-24.60329882499525
20
-84.521866193768261
42
0.41421356237308793
10
-24.053298824995252
20
-85.071866193768244
10
-6.3907988249952554
20
-85.071866193768244
42
0.41421356237309154
10
-5.8407988249952485
20
-84.521866193768247
10
-5.8407988249952458
20
-71.621866193768227
42
0.41421356237310802
10
-6.3907988249952474
20
-71.07186619376823
10
-24.053298824995256
20
-71.071866193768244
42
0.4142135623730856
10
-24.60329882499525
20
-71.621866193768241
0
LWPOLYLINE
5
226
100
AcDbEntity
8
0
100
AcDbPolyline
90
8
70
1
43
0.0
10
-222.53454882499528
20
-52.571866193768322
42
0.41421356237311396
10
-223.0845488249953
20
-52.02186619376829
10
-235.98454882499527
20
-52.021866193768332
42
0.41421356237314239
10
-236.53454882499528
20
-52.571866193768351
10
-236.53454882499523
20
-65.471866193768349
42
0.41421356237313289
10
-235.98454882499524
20
-66.021866193768332
10
-223.08454882499524
20
-66.021866193768332
42
0.41421356237312346
10
-222.53454882499526
20
-65.471866193768335
0
LWPOLYLINE
5
227
100
AcDbEntity
8
0
100
AcDbPolyline
90
8
70
1
43
0.0
10
-78.82204882499525
20
-90.121866193768284
42
0.41421356237307611
10
-79.372048824995261
20
-90.671866193768281
10
-79.372048824995261
20
-103.5718661937683
42
0.4142135623730856
10
-78.82204882499525
20
-104.12186619376828
10
-65.922048824995258
20
-104.12186619376827
42
0.4142135623730856
10
-65.372048824995261
20
-103.57186619376826
10
-65.372048824995261
20
-90.671866193768281
42
0.41421356237312812
10
-65.922048824995258
20
-90.12186619376827
0
LWPOLYLINE
5
228
100
AcDbEntity
8
0
100
AcDbPolyline
90
8
70
1
43
0.0
10
-126.99704882499523
20
-84.521866193768304
42
0.41421356237307611
10
-126.44704882499524
20
-85.071866193768301
10
-113.54704882499522
20
-85.071866193768315
42
0.41421356237310453
10
-112.99704882499523
20
-84.521866193768304
10
-112.99704882499525
20
-71.62186619376827
42
0.41421356237309037
10
-113.54704882499526
20
-71.071866193768287
10
-126.44704882499525
20
-71.071866193768301
42
0.4142135623730856
10
-126.99704882499525
20
-71.621866193768284
0
LWPOLYLINE
5
229
100
AcDbEntity
8
0
100
AcDbPolyline
90
8
70
1
43
0.0
10
-74.897048824995267
20
-71.621866193768241
42
0.41421356237310919
10
-75.447048824995278
20
-71.071866193768273
10
-88.347048824995241
20
-71.071866193768273
42
0.41421356237307611
10
-88.897048824995224
20
-71.62186619376827
10
-88.89704882499521
20
-84.52186619376829
42
0.41421356237309503
10
-88.347048824995198
20
-85.071866193768258
10
-75.447048824995264
20
-85.071866193768273
42
0.41421356237307611
10
-74.897048824995267
20
-84.521866193768304
0
LWPOLYLINE
5
230
100
AcDbEntity
8
0
100
AcDbPolyline
90
8
70
1
43
0.0
10
-70.13454882499525
20
-52.571866193768251
42
0.41421356237309037
10
-70.684548824995247
20
-52.021866193768261
10
-83.584548824995267
20
-52.021866193768275
42
0.41421356237307611
10
-84.13454882499525
20
-52.571866193768258
10
-84.13454882499525
20
-65.471866193768264
42
0.41421356237309037
10
-83.584548824995267
20
-66.021866193768261
10
-70.684548824995247
20
-66.021866193768247
42
0.41421356237306667
10
-70.13454882499525
20
-65.471866193768278
0
LWPOLYLINE
5
231
100
AcDbEntity
8
0
100
AcDbPolyline
90
8
70
1
43
0.0
10
-132.04704882499524
20
-71.621866193768284
42
0.4142135623730856
10
-132.59704882499523
20
-71.071866193768315
10
-145.49704882499526
20
-71.071866193768301
42
0.41421356237309975
10
-146.04704882499527
20
-71.621866193768284
10
-146.04704882499522
20
-84.521866193768318
42
0.41421356237312346
10
-145.49704882499523
20
-85.071866193768315
10
-132.59704882499523
20
-85.071866193768301
42
0.41421356237307611
10
-132.04704882499524
20
-84.521866193768304
0
LWPOLYLINE
5
232
100
AcDbEntity
8
0
100
AcDbPolyline
90
8
70
1
43
0.0
10
-98.422048824995272
20
-103.57186619376827
42
0.41421356237309503
10
-97.872048824995261
20
-104.12186619376824
10
-84.972048824995255
20
-104.12186619376828
42
0.4142135623730856
10
-84.422048824995244
20
-103.5718661937683
10
-84.422048824995244
20
-90.671866193768295
42
0.41421356237312346
10
-84.972048824995241
20
-90.121866193768312
10
-97.872048824995261
20
-90.121866193768284
42
0.41421356237309503
10
-98.422048824995272
20
-90.671866193768295
0
LWPOLYLINE
5
233
100
AcDbEntity
8
0
100
AcDbPolyline
90
8
70
1
43
0.0
10
-151.09704882499526
20
-71.621866193768312
42
0.41421356237308082
10
-151.64704882499524
20
-71.071866193768287
10
-164.54704882499522
20
-71.071866193768315
42
0.41421356237310919
10
-165.0970488249952
20
-71.621866193768312
10
-165.09704882499523
20
-84.521866193768318
42
0.41421356237311396
10
-164.54704882499522
20
-85.071866193768329
10
-151.64704882499524
20
-85.071866193768315
42
0.41421356237307611
10
-151.09704882499526
20
-84.521866193768332
0
LWPOLYLINE
5
234
100
AcDbEntity
8
0
100
AcDbPolyline
90
8
70
1
43
0.0
10
-222.24704882499523
20
-84.521866193768346
42
0.41421356237313289
10
-221.69704882499525
20
-85.071866193768358
10
-208.79704882499527
20
-85.071866193768329
42
0.41421356237310453
10
-208.24704882499526
20
-84.521866193768332
10
-208.24704882499526
20
-71.621866193768341
42
0.41421356237313761
10
-208.79704882499524
20
-71.071866193768329
10
-221.69704882499519
20
-71.071866193768344
42
0.41421356237309503
10
-222.24704882499523
20
-71.621866193768327
0
LWPOLYLINE
5
235
100
AcDbEntity
8
0
100
AcDbPolyline
90
8
70
1
43
0.0
10
-127.28454882499527
20
-52.571866193768287
42
0.41421356237309975
10
-127.83454882499527
20
-52.021866193768318
10
-140.73454882499527
20
-52.021866193768304
42
0.4142135623730856
10
-141.28454882499526
20
-52.571866193768301
10
-141.28454882499528
20
-65.471866193768292
42
0.41421356237305718
10
-140.7345488249953
20
-66.02186619376829
10
-127.83454882499527
20
-66.02186619376829
42
0.4142135623730856
10
-127.28454882499527
20
-65.471866193768292
0
LWPOLYLINE
5
236
100
AcDbEntity
8
0
100
AcDbPolyline
90
8
70
1
43
0.0
10
-36.797048824995244
20
-71.621866193768241
42
0.4142135623730927
10
-37.347048824995248
20
-71.071866193768244
10
-50.247048824995261
20
-71.071866193768244
42
0.41421356237308082
10
-50.797048824995258
20
-71.621866193768255
10
-50.797048824995258
20
-84.52186619376829
42
0.4142135623730856
10
-50.247048824995261
20
-85.071866193768273
10
-37.347048824995262
20
-85.071866193768273
42
0.41421356237310214
10
-36.797048824995258
20
-84.521866193768261
0
LWPOLYLINE
5
237
100
AcDbEntity
8
0
100
AcDbPolyline
90
8
70
1
43
0.0
10
-32.034548824995241
20
-52.571866193768244
42
0.41421356237307377
10
-32.584548824995238
20
-52.02186619376824
10
-45.484548824995237
20
-52.02186619376824
42
0.41421356237307144
10
-46.034548824995234
20
-52.571866193768244
10
-46.034548824995241
20
-65.47186619376825
42
0.41421356237309037
10
-45.484548824995258
20
-66.021866193768261
10
-32.584548824995252
20
-66.021866193768247
42
0.41421356237308082
10
-32.034548824995255
20
-65.47186619376825
0
LWPOLYLINE
5
238
100
AcDbEntity
8
0
100
AcDbPolyline
90
8
70
1
43
0.0
10
-255.58454882499521
20
-65.471866193768349
42
0.41421356237313289
10
-255.03454882499523
20
-66.021866193768346
10
-242.13454882499522
20
-66.021866193768361
42
0.41421356237309037
10
-241.58454882499518
20
-65.471866193768335
10
-241.58454882499527
20
-52.571866193768344
42
0.4142135623730856
10
-242.13454882499531
20
-52.021866193768318
10
-255.03454882499526
20
-52.021866193768354
42
0.41421356237313289
10
-255.58454882499524
20
-52.571866193768351
0
LWPOLYLINE
5
239
100
AcDbEntity
8
0
100
AcDbPolyline
90
8
70
1
43
0.0
10
-160.62204882499526
20
-90.671866193768324
42
0.41421356237309503
10
-161.17204882499524
20
-90.121866193768327
10
-174.07204882499516
20
-90.121866193768312
42
0.4142135623730856
10
-174.6220488249952
20
-90.671866193768338
10
-174.62204882499523
20
-103.57186619376832
42
0.41421356237311396
10
-174.07204882499525
20
-104.12186619376833
10
-161.17204882499533
20
-104.12186619376831
42
0.41421356237304774
10
-160.62204882499529
20
-103.57186619376833
0
LWPOLYLINE
5
240
100
AcDbEntity
8
0
100
AcDbPolyline
90
8
70
1
43
0.0
10
-155.57204882499525
20
-103.57186619376833
42
0.41421356237312346
10
-155.02204882499527
20
-104.12186619376831
10
-142.12204882499526
20
-104.12186619376833
42
0.4142135623730856
10
-141.57204882499525
20
-103.57186619376833
10
-141.57204882499525
20
-90.671866193768324
42
0.41421356237311396
10
-142.12204882499523
20
-90.121866193768341
10
-155.02204882499527
20
-90.121866193768327
42
0.4142135623730856
10
-155.57204882499525
20
-90.671866193768324
0
LWPOLYLINE
5
241
100
AcDbEntity
8
0
100
AcDbPolyline
90
8
70
1
43
0.0
10
-146.33454882499524
20
-52.571866193768301
42
0.41421356237309975
10
-146.88454882499525
20
-52.021866193768325
10
-159.78454882499526
20
-52.021866193768311
42
0.41421356237307144
10
-160.33454882499524
20
-52.571866193768301
10
-160.33454882499527
20
-65.471866193768307
42
0.41421356237304774
10
-159.78454882499528
20
-66.021866193768318
10
-146.88454882499525
20
-66.02186619376829
42
0.41421356237308082
10
-146.33454882499524
20
-65.471866193768307
0
LWPOLYLINE
5
242
100
AcDbEntity
8
0
100
AcDbPolyline
90
8
70
1
43
0.0
10
-189.19704882499525
20
-71.621866193768327
42
0.41421356237313761
10
-189.74704882499523
20
-71.071866193768315
10
-202.64704882499518
20
-71.071866193768329
42
0.41421356237309975
10
-203.19704882499522
20
-71.621866193768327
10
-203.19704882499522
20
-84.521866193768332
42
0.41421356237311396
10
-202.64704882499524
20
-85.071866193768372
10
-189.74704882499526
20
-85.071866193768358
42
0.41421356237311396
10
-189.19704882499525
20
-84.521866193768332
0
LWPOLYLINE
5
243
100
AcDbEntity
8
0
100
AcDbPolyline
90
8
70
1
43
0.0
10
-170.14704882499524
20
-71.621866193768312
42
0.41421356237313289
10
-170.69704882499522
20
-71.071866193768315
10
-183.59704882499517
20
-71.071866193768315
42
0.41421356237309503
10
-184.14704882499521
20
-71.621866193768312
10
-184.14704882499521
20
-84.521866193768346
42
0.41421356237313289
10
-183.59704882499523
20
-85.071866193768358
10
-170.69704882499525
20
-85.071866193768315
42
0.41421356237310453
10
-170.14704882499524
20
-84.521866193768318
0
LWPOLYLINE
5
244
100
AcDbEntity
8
0
100
AcDbPolyline
90
8
70
1
43
0.0
10
-217.48454882499522
20
-65.471866193768335
42
0.41421356237312812
10
-216.93454882499523
20
-66.021866193768332
10
-204.03454882499523
20
-66.021866193768332
42
0.41421356237309037
10
-203.48454882499522
20
-65.471866193768321
10
-203.48454882499527
20
-52.571866193768322
42
0.41421356237311396
10
-204.03454882499528
20
-52.021866193768304
10
-216.93454882499526
20
-52.021866193768325
42
0.41421356237313289
10
-217.48454882499527
20
-52.571866193768329
0
LWPOLYLINE
5
245
100
AcDbEntity
8
0
100
AcDbPolyline
90
8
70
1
43
0.0
10
-198.4345488249952
20
-65.471866193768335
42
0.41421356237312812
10
-197.88454882499522
20
-66.021866193768332
10
-184.98454882499522
20
-66.021866193768332
42
0.41421356237309037
10
-184.4345488249952
20
-65.471866193768321
10
-184.43454882499526
20
-52.571866193768308
42
0.41421356237311396
10
-184.98454882499527
20
-52.02186619376829
10
-197.88454882499525
20
-52.021866193768318
42
0.41421356237313289
10
-198.43454882499526
20
-52.571866193768315
0
LWPOLYLINE
5
246
100
AcDbEntity
8
0
100
AcDbPolyline
90
8
70
1
43
0.0
10
-212.72204882499526
20
-103.57186619376839
42
0.41421356237311396
10
-212.17204882499527
20
-104.12186619376841
10
-199.2720488249953
20
-104.12186619376834
42
0.41421356237312346
10
-198.72204882499528
20
-103.57186619376833
10
-198.72204882499523
20
-90.671866193768324
42
0.41421356237312346
10
-199.27204882499524
20
-90.121866193768355
10
-212.17204882499519
20
-90.121866193768355
42
0.41421356237309503
10
-212.72204882499523
20
-90.671866193768338
0
LWPOLYLINE
5
247
100
AcDbEntity
8
0
100
AcDbPolyline
90
8
70
1
43
0.0
10
-122.52204882499525
20
-90.671866193768281
42
0.4142135623730856
10
-123.07204882499525
20
-90.121866193768312
10
-135.97204882499526
20
-90.121866193768312
42
0.41421356237305718
10
-136.5220488249953
20
-90.671866193768295
10
-136.52204882499524
20
-103.57186619376832
42
0.41421356237309503
10
-135.97204882499526
20
-104.12186619376827
10
-123.07204882499526
20
-104.12186619376828
42
0.41421356237309503
10
-122.52204882499524
20
-103.5718661937683
0
LWPOLYLINE
5
248
100
AcDbEntity
8
0
100
AcDbPolyline
90
8
70
1
43
0.0
10
-165.38454882499525
20
-52.571866193768301
42
0.41421356237311396
10
-165.93454882499526
20
-52.021866193768261
10
-178.8345488249953
20
-52.021866193768318
42
0.41421356237313289
10
-179.38454882499528
20
-52.571866193768315
10
-179.38454882499525
20
-65.471866193768321
42
0.41421356237313289
10
-178.83454882499524
20
-66.02186619376829
10
-165.9345488249952
20
-66.021866193768318
42
0.41421356237313289
10
-165.38454882499522
20
-65.471866193768307
0
LWPOLYLINE
5
249
100
AcDbEntity
8
0
100
AcDbPolyline
90
8
70
1
43
0.0
10
-3.4595488249952409
20
-33.521866193768219
42
0.41421356237308971
10
-4.0095488249952416
20
-32.971866193768214
10
-16.909548824995245
20
-32.971866193768228
42
0.4142135623730856
10
-17.459548824995245
20
-33.521866193768219
10
-17.459548824995242
20
-46.42186619376821
42
0.41421356237310569
10
-16.909548824995248
20
-46.971866193768221
10
-4.0095488249952451
20
-46.971866193768214
42
0.41421356237309503
10
-3.4595488249952466
20
-46.421866193768224
0
CIRCLE
5
250
100
AcDbEntity
8
0
100
AcDbCircle
10
-262.96579882499594
20
-91.121866203313644
30
3.6498581934552021e-14
40
1.1000000000000001
210
-3.4308271493515173e-32
220
3.8857805861880479e-16
230
1
0
CIRCLE
5
251
100
AcDbEntity
8
0
100
AcDbCircle
10
-261.39704882499598
20
-52.721866203313787
30
2.095545958979983e-14
40
1.1000000000000001
210
-3.4308271493515173e-32
220
3.8857805861880479e-16
230
1
0
CIRCLE
5
252
100
AcDbEntity
8
0
100
AcDbCircle
10
-27.305031059764111
20
-51.84523448992956
30
2.0400348077487251e-14
40
3.6000000000000014
210
-2.3687177445586302e-35
220
3.8857805861880469e-16
230
1
0
CIRCLE
5
253
100
AcDbEntity
8
0
100
AcDbCircle
10
-264.06267382499533
20
-103.62186619078591
30
3.8719027983802334e-14
40
3.75
210
1.0995044849369065e-33
220
3.8857805861880479e-16
230
1
0
LWPOLYLINE
5
254
100
AcDbEntity
8
0
100
AcDbPolyline
90
8
70
1
43
0.0
10
-102.63454882499528
20
-52.021866193768275
10
-89.734548824995244
20
-52.021866193768275
42
-0.41421356237306667
10
-89.184548824995261
20
-52.571866193768273
10
-89.184548824995289
20
-65.471866193768278
42
-0.41421356237306667
10
-89.734548824995258
20
-66.021866193768275
10
-102.63454882499528
20
-66.021866193768247
42
-0.4142135623730856
10
-103.18454882499526
20
-65.471866193768264
10
-103.18454882499529
20
-52.57186619376828
42
-0.41421356237309037
0
LWPOLYLINE
5
255
100
AcDbEntity
8
0
100
AcDbPolyline
90
8
70
1
43
0.0
10
-270.15954882499523
20
-109.72186619376841
10
-270.15954882499528
20
-122.6218661937684
42
-0.41421356237309503
10
-270.7095488249953
20
-123.17186619376839
10
-283.60954882499527
20
-123.17186619376838
42
-0.41421356237311396
10
-284.15954882499528
20
-122.62186619376837
10
-284.15954882499528
20
-109.72186619376842
42
-0.41421356237313289
10
-283.60954882499527
20
-109.17186619376841
10
-270.70954882499524
20
-109.17186619376838
42
-0.41421356237314239
0
LWPOLYLINE
5
256
100
AcDbEntity
8
0
100
AcDbPolyline
90
8
70
1
43
0.0
10
-289.20954882499524
20
-109.72186619376842
10
-289.2095488249953
20
-122.6218661937684
42
-0.41421356237309503
10
-289.75954882499531
20
-123.17186619376838
10
-302.65954882499528
20
-123.17186619376838
42
-0.41421356237311396
10
-303.2095488249953
20
-122.62186619376837
10
-303.2095488249953
20
-109.72186619376841
42
-0.41421356237307611
10
-302.65954882499523
20
-109.17186619376841
10
-289.75954882499525
20
-109.17186619376842
42
-0.41421356237313289
0
LWPOLYLINE
5
257
100
AcDbEntity
8
0
100
AcDbPolyline
90
8
70
1
43
0.0
10
-217.77204882499524
20
-109.72186619376834
10
-217.7720488249953
20
-122.62186619376835
42
-0.4142135623730856
10
-218.32204882499528
20
-123.17186619376834
10
-233.65354882499531
20
-123.17186619376838
42
-0.41421356237313289
10
-234.20354882499532
20
-122.62186619376837
10
-234.20354882499532
20
-109.72186619376841
42
-0.41421356237312346
10
-233.65354882499526
20
-109.17186619376837
10
-218.32204882499519
20
-109.17186619376842
42
-0.4142135623730856
0
LWPOLYLINE
5
258
100
AcDbEntity
8
0
100
AcDbPolyline
90
8
70
1
43
0.0
10
-124.90329882499526
20
-109.72186619376834
10
-124.90329882499525
20
-122.62186619376833
42
-0.4142135623730856
10
-125.45329882499527
20
-123.17186619376832
10
-150.25954882499522
20
-123.17186619376835
42
-0.41421356237309503
10
-150.80954882499523
20
-122.62186619376834
10
-150.80954882499523
20
-109.72186619376836
42
-0.41421356237309503
10
-150.25954882499525
20
-109.17186619376835
10
-125.45329882499527
20
-109.17186619376834
42
-0.41421356237307611
0
LWPOLYLINE
5
259
100
AcDbEntity
8
0
100
AcDbPolyline
90
8
70
1
43
0.0
10
-29.653298824995254
20
-109.72186619376828
10
-29.653298824995243
20
-122.62186619376823
42
-0.41421356237309037
10
-30.203298824995247
20
-123.17186619376827
10
-45.484548824995258
20
-123.1718661937683
42
-0.41421356237310453
10
-46.034548824995255
20
-122.62186619376828
10
-46.034548824995241
20
-109.72186619376829
42
-0.4142135623730856
10
-45.48454882499523
20
-109.1718661937683
10
-30.203298824995258
20
-109.17186619376828
42
-0.41421356237309503
0
LWPOLYLINE
5
260
100
AcDbEntity
8
0
100
AcDbPolyline
90
8
70
1
43
0.0
10
-36.509548824995235
20
-46.421866193768238
10
-36.50954882499525
20
-33.52186619376824
42
-0.41421356237310214
10
-35.959548824995238
20
-32.971866193768236
10
-23.059548824995243
20
-32.971866193768228
42
-0.4142135623730927
10
-22.509548824995242
20
-33.521866193768226
10
-22.509548824995239
20
-46.421866193768231
42
-0.41421356237309975
10
-23.059548824995243
20
-46.971866193768228
10
-35.959548824995238
20
-46.971866193768236
42
-0.41421356237309742
0
LWPOLYLINE
5
261
100
AcDbEntity
8
0
100
AcDbPolyline
90
8
70
1
43
0.0
10
-55.559548824995247
20
-46.421866193768238
10
-55.559548824995261
20
-33.521866193768247
42
-0.4142135623730856
10
-55.00954882499525
20
-32.971866193768243
10
-42.109548824995244
20
-32.971866193768228
42
-0.41421356237309975
10
-41.559548824995247
20
-33.52186619376824
10
-41.559548824995247
20
-46.421866193768238
42
-0.41421356237307611
10
-42.109548824995244
20
-46.971866193768236
10
-55.00954882499525
20
-46.97186619376825
42
-0.41421356237308082
0
LWPOLYLINE
5
262
100
AcDbEntity
8
0
100
AcDbPolyline
90
8
70
1
43
0.0
10
-74.609548824995244
20
-46.42186619376826
10
-74.609548824995244
20
-33.521866193768247
42
-0.41421356237307849
10
-74.059548824995247
20
-32.97186619376825
10
-61.159548824995255
20
-32.971866193768243
42
-0.41421356237309975
10
-60.609548824995258
20
-33.521866193768247
10
-60.609548824995258
20
-46.421866193768238
42
-0.41421356237308082
10
-61.159548824995255
20
-46.97186619376825
10
-74.059548824995247
20
-46.971866193768257
42
-0.41421356237307611
0
LWPOLYLINE
5
263
100
AcDbEntity
8
0
100
AcDbPolyline
90
8
70
1
43
0.0
10
-93.659548824995255
20
-46.421866193768267
10
-93.659548824995227
20
-33.521866193768261
42
-0.41421356237308082
10
-93.109548824995244
20
-32.971866193768264
10
-80.209548824995267
20
-32.971866193768264
42
-0.41421356237311635
10
-79.659548824995255
20
-33.521866193768254
10
-79.659548824995284
20
-46.421866193768253
42
-0.41421356237306667
10
-80.209548824995252
20
-46.97186619376825
10
-93.109548824995215
20
-46.971866193768292
42
-0.41421356237309037
0
LWPOLYLINE
5
264
100
AcDbEntity
8
0
100
AcDbPolyline
90
8
70
1
43
0.0
10
-112.70954882499527
20
-46.421866193768267
10
-112.70954882499524
20
-33.521866193768275
42
-0.41421356237308321
10
-112.15954882499526
20
-32.971866193768278
10
-99.25954882499525
20
-32.97186619376825
42
-0.41421356237305718
10
-98.709548824995267
20
-33.521866193768268
10
-98.709548824995309
20
-46.42186619376826
42
-0.41421356237308082
10
-99.259548824995264
20
-46.971866193768264
10
-112.15954882499528
20
-46.971866193768307
42
-0.41421356237308082
0
LWPOLYLINE
5
265
100
AcDbEntity
8
0
100
AcDbPolyline
90
8
70
1
43
0.0
10
-131.75954882499528
20
-46.421866193768281
10
-131.75954882499525
20
-33.521866193768282
42
-0.41421356237308321
10
-131.20954882499527
20
-32.971866193768285
10
-118.30954882499526
20
-32.971866193768292
42
-0.41421356237309037
10
-117.75954882499526
20
-33.521866193768282
10
-117.75954882499525
20
-46.421866193768281
42
-0.41421356237308082
10
-118.30954882499526
20
-46.971866193768264
10
-131.2095488249953
20
-46.971866193768307
42
-0.41421356237307611
0
LWPOLYLINE
5
266
100
AcDbEntity
8
0
100
AcDbPolyline
90
8
70
1
43
0.0
10
-150.80954882499526
20
-46.421866193768288
10
-150.80954882499523
20
-33.52186619376829
42
-0.4142135623730856
10
-150.25954882499525
20
-32.9718661937683
10
-137.35954882499527
20
-32.9718661937683
42
-0.41421356237309037
10
-136.80954882499526
20
-33.52186619376829
10
-136.80954882499526
20
-46.421866193768281
42
-0.41421356237309037
10
-137.35954882499527
20
-46.971866193768285
10
-150.25954882499525
20
-46.971866193768307
42
-0.41421356237307144
0
LWPOLYLINE
5
267
100
AcDbEntity
8
0
100
AcDbPolyline
90
8
70
1
43
0.0
10
-169.85954882499527
20
-46.421866193768295
10
-169.85954882499524
20
-33.521866193768297
42
-0.41421356237313289
10
-169.30954882499523
20
-32.9718661937683
10
-156.40954882499526
20
-32.971866193768321
42
-0.41421356237309975
10
-155.85954882499524
20
-33.521866193768297
10
-155.85954882499524
20
-46.421866193768295
42
-0.41421356237310919
10
-156.40954882499526
20
-46.971866193768285
10
-169.30954882499526
20
-46.9718661937683
42
-0.41421356237313761
0
LWPOLYLINE
5
268
100
AcDbEntity
8
0
100
AcDbPolyline
90
8
70
1
43
0.0
10
-188.90954882499528
20
-46.421866193768302
10
-188.90954882499526
20
-33.521866193768311
42
-0.41421356237313056
10
-188.35954882499524
20
-32.971866193768307
10
-175.45954882499524
20
-32.971866193768314
42
-0.41421356237313056
10
-174.90954882499523
20
-33.521866193768304
10
-174.90954882499526
20
-46.421866193768295
42
-0.41421356237313761
10
-175.45954882499527
20
-46.971866193768292
10
-188.35954882499527
20
-46.9718661937683
42
-0.41421356237313289
0
LWPOLYLINE
5
269
100
AcDbEntity
8
0
100
AcDbPolyline
90
16
70
1
43
0.0
10
-284.30954882499532
20
-49.558866193768353
10
-284.30954882499532
20
-33.521866193768339
42
-0.41421356237309503
10
-283.75954882499536
20
-32.971866193768363
10
-251.50954882499522
20
-32.971866193768342
42
-0.41421356237309503
10
-250.95954882499527
20
-33.521866193768304
10
-250.95954882499524
20
-49.558866193768395
42
-0.414213562373069
10
-251.45954882499527
20
-50.058866193768381
10
-259.33454882499541
20
-50.058866193768353
42
-0.41421356237309503
10
-259.63454882499542
20
-49.758866193768341
10
-259.63454882499542
20
-47.271866192411096
42
0.41421356237304302
10
-259.93454882499537
20
-46.971866192411099
10
-275.58454882499541
20
-46.971866192411099
42
0.41421356237308637
10
-275.88454882499542
20
-47.271866192411103
10
-275.88454882499548
20
-49.758866193768384
42
-0.41421356237309503
10
-276.18454882499549
20
-50.058866193768388
10
-283.80954882499532
20
-50.058866193768374
42
-0.41421356237310025
0
LWPOLYLINE
5
270
100
AcDbEntity
8
0
100
AcDbPolyline
90
8
70
1
43
0.0
10
-303.2095488249953
20
-46.421866193768366
10
-303.20954882499518
20
-33.521866193768368
42
-0.4142135623730927
10
-302.65954882499523
20
-32.971866193768371
10
-289.75954882499525
20
-32.971866193768363
42
-0.41421356237313289
10
-289.20954882499524
20
-33.521866193768361
10
-289.20954882499524
20
-46.421866193768359
42
-0.41421356237313761
10
-289.75954882499525
20
-46.971866193768356
10
-302.65954882499528
20
-46.971866193768371
42
-0.41421356237313761
0
CIRCLE
5
271
100
AcDbEntity
8
0
100
AcDbCircle
10
-19.984549824995163
20
-48.971866125557327
30
1.8179902028236938e-14
40
1.0999999999999981
210
-3.1134184190818194e-32
220
3.8857805861880479e-16
230
1
0
CIRCLE
5
272
100
AcDbEntity
8
0
100
AcDbCircle
10
-25.93767382499523
20
-116.17186737296338
30
4.5380366131553274e-14
40
1.0999999999999981
210
-3.1134184190818194e-32
220
3.8857805861880479e-16
230
1
0
LWPOLYLINE
5
273
100
AcDbEntity
8
0
100
AcDbPolyline
90
48
70
1
43
0.0
10
-282.37789882499476
20
-76.684866202220817
42
0.41421356237312812
10
-281.8278988249948
20
-76.13486620222082
10
-281.82789882499503
20
-62.22186619241144
42
-0.41421356237310453
10
-281.27789882499508
20
-61.671866192411429
10
-280.07789882499503
20
-61.671866192411422
42
0.41421356237312812
10
-279.52789882499502
20
-61.121866192411403
10
-279.52789882499502
20
-60.821866191541332
42
0.41421356237313761
10
-280.07789882499503
20
-60.271866191541328
10
-284.47789882499501
20
-60.271866191541356
42
-0.41421356237309975
10
-285.02789882499502
20
-59.721866191541352
10
-285.02789882499508
20
-52.571866193768351
42
-0.41421356237309503
10
-284.47789882499507
20
-52.021866193768354
10
-265.8970488249949
20
-52.021866193768346
42
-0.41421356237309503
10
-265.34704882499489
20
-52.571866193768344
10
-265.34704882499489
20
-70.271866193363664
42
0.41421356237313761
10
-264.79704882499493
20
-70.821866193363675
10
-257.86529882499519
20
-70.821866193363647
42
0.41421356237312812
10
-257.31529882499524
20
-70.27186619336365
10
-257.31529882499524
20
-68.641866192411371
42
-0.41421356237309037
10
-256.76529882499523
20
-68.091866192411388
10
-249.86529882499522
20
-68.091866192411388
42
-0.41421356237309503
10
-249.31529882499521
20
-68.641866192411385
10
-249.31529882499521
20
-70.521866193769185
42
0.41421356237306195
10
-248.76529882499526
20
-71.071866193769225
10
-246.84704882499489
20
-71.071866193769353
42
-0.41421356237307611
10
-246.29704882499493
20
-71.62186619376935
10
-246.29704882499496
20
-84.321866202221187
42
-0.41421356237310453
10
-246.847048824995
20
-84.87186620222117
10
-248.76529882499517
20
-84.871866202221099
42
0.41421356237311396
10
-249.31529882499524
20
-85.421866202221111
10
-249.31529882499521
20
-86.971866194982397
42
-0.4142135623730856
10
-249.86529882499522
20
-87.52186619498238
10
-256.70329882499584
20
-87.521866194982607
42
-0.41421356237309503
10
-257.25329882499585
20
-86.97186619498261
10
-257.25329882499585
20
-85.621866192411119
42
0.41421356237309503
10
-257.80329882499586
20
-85.071866192411122
10
-272.7032988249959
20
-85.071866192411136
42
0.41421356237310453
10
-273.25329882499591
20
-85.621866192411147
10
-273.25329882499591
20
-86.971866194983164
42
-0.4142135623730856
10
-273.80329882499586
20
-87.521866194983147
10
-281.22789882499387
20
-87.521866194983374
42
-0.4142135623730856
10
-281.77789882499388
20
-86.971866194983392
10
-281.77789882499388
20
-84.834866202220837
42
0.41421356237310453
10
-282.32789882499389
20
-84.284866202220826
10
-284.4778988249949
20
-84.284866202220854
42
-0.41421356237309503
10
-285.02789882499491
20
-83.734866202220843
10
-285.02789882499496
20
-77.234866202220843
42
-0.41421356237309975
10
-284.47789882499495
20
-76.684866202220832
0
ENDSEC
0
SECTION
2
OBJECTS
0
DICTIONARY
5
C
100
AcDbDictionary
3
ACAD_GROUP
350
D
3
ACAD_MLINESTYLE
350
17
0
DICTIONARY
5
D
100
AcDbDictionary
0
DICTIONARY
5
1A
330
C
100
AcDbDictionary
0
DICTIONARY
5
17
100
AcDbDictionary
0
ENDSEC
0
EOF
