0
SECTION
2
HEADER
9
$INSUNITS
70
4
9
$ACADVER
1
AC1014
9
$HANDSEED
5
FFFF
0
ENDSEC
0
SECTION
2
TABLES
0
TABLE
2
VPORT
5
8
100
AcDbSymbolTable
0
ENDTAB
0
TABLE
2
LTYPE
5
5
100
AcDbSymbolTable
0
LTYPE
5
14
100
AcDbSymbolTableRecord
100
AcDbLinetypeTableRecord
2
BYBLOCK
70
0
0
LTYPE
5
15
100
AcDbSymbolTableRecord
100
AcDbLinetypeTableRecord
2
BYLAYER
70
0
0
LTYPE
5
16
100
AcDbSymbolTableRecord
100
AcDbLinetypeTableRecord
2
DASHED
70
0
3
Dashed __ __ __ __ __ __ __ __ __ __ __ __ __ _
72
65
73
2
40
0.75
49
0.5
74
0
49
-0.25
74
0
0
ENDTAB
0
TABLE
2
LAYER
5
2
100
AcDbSymbolTable
70
2
0
LAYER
5
50
100
AcDbSymbolTableRecord
100
AcDbLayerTableRecord
2
0
70
0
62
7
6
CONTINUOUS
0
ENDTAB
0
TABLE
2
STYLE
5
3
100
AcDbSymbolTable
70
1
0
STYLE
5
11
100
AcDbSymbolTableRecord
100
AcDbTextStyleTableRecord
2
STANDARD
70
0
0
ENDTAB
0
TABLE
2
VIEW
5
6
100
AcDbSymbolTable
70
0
0
ENDTAB
0
TABLE
2
UCS
5
7
100
AcDbSymbolTable
70
0
0
ENDTAB
0
TABLE
2
APPID
5
9
100
AcDbSymbolTable
70
2
0
APPID
5
12
100
AcDbSymbolTableRecord
100
AcDbRegAppTableRecord
2
ACAD
70
0
0
ENDTAB
0
TABLE
2
DIMSTYLE
5
A
100
AcDbSymbolTable
70
1
0
ENDTAB
0
TABLE
2
BLOCK_RECORD
5
1
100
AcDbSymbolTable
70
1
0
BLOCK_RECORD
5
1F
100
AcDbSymbolTableRecord
100
AcDbBlockTableRecord
2
*MODEL_SPACE
0
BLOCK_RECORD
5
1B
100
AcDbSymbolTableRecord
100
AcDbBlockTableRecord
2
*PAPER_SPACE
0
ENDTAB
0
ENDSEC
0
SECTION
2
BLOCKS
0
BLOCK
5
20
100
AcDbEntity
100
AcDbBlockBegin
2
*MODEL_SPACE
0
ENDBLK
5
21
100
AcDbEntity
100
AcDbBlockEnd
0
BLOCK
5
1C
100
AcDbEntity
100
AcDbBlockBegin
2
*PAPER_SPACE
0
ENDBLK
5
1D
100
AcDbEntity
100
AcDbBlockEnd
0
ENDSEC
0
SECTION
2
ENTITIES
0
LWPOLYLINE
5
100
100
AcDbEntity
8
0
100
AcDbPolyline
90
106
70
1
43
0.0
10
303.31246642717144
20
-44.472481432468918
42
0.4142135623717787
10
301.81246642717826
20
-42.97248143246896
10
3.5624863704711629
20
-42.972481431152893
42
0.41421356236594092
10
2.0624863704644016
20
-44.472481431080212
10
2.0624863692014399
20
-68.073048662107581
42
0.41421354931941584
10
3.5624863028866196
20
-69.573048662150953
10
19.794043383179861
20
-69.57304938602887
42
-0.4142135591205709
10
21.294043298521647
20
-71.073049454029885
10
21.294043137897241
20
-75.073035241507
42
0.41421356562561584
10
22.794043071001834
20
-76.573035307296863
10
24.556543070980624
20
-76.573035385898962
42
-0.41421355912058222
10
26.056542986322469
20
-78.073035453899962
10
26.056542582720716
20
-87.123021244223821
42
0.41421356237310375
10
27.556542515825328
20
-88.623021311119288
10
29.319099383658283
20
-88.623021389723931
42
-0.41421356444797541
10
30.81909933032059
20
-90.123021453687755
10
30.819099018141955
20
-97.12302145368767
42
-0.41421356559284211
10
29.319098937688789
20
-98.623021389723874
10
15.319098937688873
20
-98.62302076536659
42
-0.41421356029822776
10
13.819099018141973
20
-97.123020695539552
10
13.819099421743712
20
-88.073034907041745
42
0.41421356237308815
10
12.319099488639154
20
-86.57303484014632
10
10.55654262501122
20
-86.573034761541663
42
-0.41421356562561656
10
9.0565426741438397
20
-85.073034695751829
10
9.056542870293768
20
-81.0730489082747
42
0.41421355912057578
10
7.5565429371891737
20
-79.573048840273714
10
3.5624864363015849
20
-79.573048662150981
42
0.41421357542677073
10
2.062486369406165
20
-81.073048662107624
10
2.062486368121494
20
-105.43797596251861
42
0.41421356238155899
10
3.5624863687017272
20
-106.93797596256198
10
19.794112372079887
20
-106.93797596256188
42
-0.41421356237309892
10
21.294112372079908
20
-108.43797596256188
10
21.294112372079901
20
-113.17332364621153
42
0.41421356237310025
10
22.794112372079919
20
-114.67332364621154
10
26.606612372079923
20
-114.67332364621159
42
0.41421356237309681
10
28.106612372079951
20
-113.17332364621153
10
28.106612372079901
20
-108.43797596256184
42
-0.41421356237309337
10
29.606612372079898
20
-106.93797596256184
10
43.606612372079887
20
-106.93797596256178
42
-0.41421356237309853
10
45.106612372079908
20
-108.43797596256179
10
45.106612372079901
20
-113.17332364621151
42
0.41421356237309681
10
46.606612372079937
20
-114.67332364621151
10
50.419112372079923
20
-114.67332364621156
42
0.41421356237309337
10
51.919112372079937
20
-113.17332364621151
10
51.919112372079901
20
-108.43797596256179
42
-0.41421356237309503
10
53.419112372079908
20
-106.93797596256178
10
69.799862471008836
20
-106.93797596256169
42
-0.41421356237309337
10
71.299862471008851
20
-108.43797596256168
10
71.299862471008865
20
-122.91607631912112
42
0.4142135623763416
10
72.799862471025548
20
-124.41607631912109
10
121.85661220339301
20
-124.41607632331909
42
0.41421355074493937
10
123.35661220337633
20
-122.9160763781104
10
123.3566127488377
20
-109.17297562519794
42
-0.41421356237310197
10
124.85661280837247
20
-107.67297568473266
10
150.7628628083724
20
-107.67297671294743
42
-0.41421356237309853
10
152.26286274883768
20
-109.1729767724822
10
152.26286220337636
20
-122.91607625868613
42
0.41421357400123693
10
153.76286220339301
20
-124.41607631822089
10
193.29461247102554
20
-124.41607631778137
42
0.41421356236985196
10
194.79461247100886
20
-122.91607631778133
10
194.7946124710088
20
-116.17332441491142
42
-0.41421356237309503
10
196.2946124710088
20
-114.67332441491141
10
214.72546247100883
20
-114.67332441491139
42
0.41421356237312279
10
216.22546247100883
20
-113.17332441491138
10
216.22546247100877
20
-107.51832441491143
42
-0.41421356237309853
10
217.72546247100877
20
-106.0183244149114
10
233.23751247100884
20
-106.0183244149114
42
-0.41421356237309503
10
234.73751247100881
20
-107.51832441491139
10
234.73751247100887
20
-113.17332442004803
42
0.41421356237310197
10
236.23751247100887
20
-114.67332442004802
10
236.24264918779346
20
-114.67332442004802
42
0.41421356237310197
10
237.74264918779346
20
-113.17332442004799
10
237.74264918779338
20
-107.51832441491138
42
-0.41421356237309503
10
239.2426491877934
20
-106.01832441491138
10
257.51598647100826
20
-106.01832441491135
42
0.41421356237310897
10
259.01598647100826
20
-104.51832441491136
10
259.01598647100826
20
-103.62297594738618
42
-0.99999999999999989
10
269.01598647100826
20
-103.62297594738614
10
269.0159864710082
20
-105.4379759625612
42
0.41421356237311935
10
270.5159864710082
20
-106.93797596256117
10
301.8124664271719
20
-106.93797596256115
42
0.41421356237312279
10
303.31246642717184
20
-105.43797596256114
10
303.31246642717184
20
-100.12297618679277
42
0.41421355074822064
10
301.81246648670657
20
-98.622976186792755
10
289.16286241147412
20
-98.622975684732111
42
-0.41421356237309503
10
287.66286247100885
20
-97.122975625197384
10
287.66286286790722
20
-87.12297562519737
42
-0.41421356237309159
10
289.16286292744195
20
-85.622975684732126
10
301.81246636763694
20
-85.622976186792798
42
0.41421357399796954
10
303.31246642717167
20
-84.122976186792783
10
303.31246642717173
20
-81.072976186792815
42
0.41421355074821714
10
301.81246648670646
20
-79.572976186792772
10
289.16286241147407
20
-79.572975684732114
42
-0.41421356237309681
10
287.66286247100879
20
-78.072975625197373
10
287.66286274883771
20
-71.072975625197373
42
-0.41421356237309337
10
289.16286280837244
20
-69.572975684732114
10
301.81246636763694
20
-69.5729761867928
42
0.41421357399796432
10
303.31246642717156
20
-68.072976186792786
10
303.31246642717156
20
-62.018039982682311
42
0.4142135493109409
10
301.81246649406705
20
-60.518039982682296
10
289.16315329583313
20
-60.518039418561543
42
-0.4142135623730846
10
287.66315336272862
20
-59.018039351666147
10
287.66315378617537
20
-49.523068442536541
42
-0.41421356237309503
10
289.16315385307075
20
-48.023068509431965
10
301.81246636027606
20
-48.023069073552719
42
0.41421357543524234
10
303.31246642717144
20
-46.523069073552691
0
ARC
5
101
100
AcDbEntity
8
0
100
AcDbCircle
10
149.00029370198837
20
-62.023004105789042
30
4.7739590058881725e-14
40
1.499999999999996
210
-2.9107113379098051e-25
220
7.9103390504542265e-16
230
1
100
AcDbArc
50
89.999997444782466
51
179.99999743867906
0
LINE
5
102
100
AcDbEntity
8
0
100
AcDbLine
10
147.50030536421576
20
-62.023004038894143
30
4.8849813083506888e-14
11
147.50030533968516
21
-62.573055081338403
31
4.9274820335121206e-14
0
LINE
5
103
100
AcDbEntity
8
0
100
AcDbLine
10
147.50029367745779
20
-62.573055081337891
30
5.1070259132757201e-14
11
147.50029300398901
21
-78.072581343570846
31
6.3282712403633923e-14
0
ARC
5
104
100
AcDbEntity
8
0
100
AcDbCircle
10
146.00029298622621
20
-78.072581275569831
30
5.9952043329758453e-14
40
1.5000000000000044
210
-1.4275303102181099e-24
220
7.7715611723761096e-16
230
1
100
AcDbArc
50
269.99999812327042
51
359.99999743867909
0
LINE
5
105
100
AcDbEntity
8
0
100
AcDbLine
10
146.00029293709355
20
-79.572581275569831
30
6.1117777505614868e-14
11
132.00029293709352
21
-79.572580652318138
31
6.3282711899053749e-14
0
ARC
5
106
100
AcDbEntity
8
0
100
AcDbCircle
10
132.00029298622621
20
-78.072580651212576
30
6.106226635438361e-14
40
1.5000000000000049
210
-4.6921610988534386e-26
220
7.9103390504542473e-16
230
1
100
AcDbArc
50
179.99999758516347
51
269.99999812326928
0
LINE
5
107
100
AcDbEntity
8
0
100
AcDbLine
10
130.50029298622621
20
-78.072580585422727
30
6.1062266302271231e-14
11
130.50029331605162
21
-62.023003280745485
31
4.9404924595819466e-14
0
ARC
5
108
100
AcDbEntity
8
0
100
AcDbCircle
10
129.00029331605162
20
-62.023003213850096
30
4.7739590058881738e-14
40
1.5000000000000231
210
-1.1102229893474538e-15
220
7.9103395455795295e-16
230
1
100
AcDbArc
50
-2.5613209387547816e-06
51
89.999997444782466
0
LINE
5
109
100
AcDbEntity
8
0
100
AcDbLine
10
129.00029338294706
20
-60.523003213850075
30
4.6553039201313583e-14
11
127.23773370770944
21
-60.52300313635088
31
4.8849813022502318e-14
0
ARC
5
110
100
AcDbEntity
8
0
100
AcDbCircle
10
127.23773375684209
20
-59.023003135245304
30
4.7739590058881731e-14
40
1.5000000000000049
210
7.8026684086972697e-25
220
7.9103390504542473e-16
230
1
100
AcDbArc
50
179.99999758516347
51
269.99999812327093
0
LINE
5
111
100
AcDbEntity
8
0
100
AcDbLine
10
125.73773375684209
20
-59.023003069455449
30
4.7739590008010124e-14
11
125.73773418051115
21
-49.523047004619016
31
3.8996583739958623e-14
0
ARC
5
112
100
AcDbEntity
8
0
100
AcDbCircle
10
127.23773418051113
20
-49.523047071514455
30
4.1078251911130792e-14
40
1.5000000000000049
210
5.3611462263299716e-25
220
7.9103390504542325e-16
230
1
100
AcDbArc
50
89.999997444782466
51
179.99999743867906
0
LINE
5
113
100
AcDbEntity
8
0
100
AcDbLine
10
127.23773424740656
20
-48.023047071514455
30
3.9891701053562656e-14
11
160.28773424740649
21
-48.023048545443572
31
3.7747584028395404e-14
0
ARC
5
114
100
AcDbEntity
8
0
100
AcDbCircle
10
160.28773418051105
20
-49.523048545443586
30
4.1078251911130792e-14
40
1.4999999999999871
210
-2.9106239258688895e-25
220
7.9103390504542473e-16
230
1
100
AcDbArc
50
-2.5613209387547816e-06
51
89.999997444782466
0
LINE
5
115
100
AcDbEntity
8
0
100
AcDbLine
10
161.78773418051105
20
-49.523048612339018
30
4.1078251964483942e-14
11
161.78773377460482
21
-59.023004677175436
31
4.7600812180803587e-14
0
ARC
5
116
100
AcDbEntity
8
0
100
AcDbCircle
10
160.28773375684204
20
-59.023004609174443
30
4.5519144009631418e-14
40
1.5000000000000044
210
-1.0139492073188335e-24
220
7.7715611723761096e-16
230
1
100
AcDbArc
50
269.99999812327042
51
359.99999743867909
0
LINE
5
117
100
AcDbEntity
8
0
100
AcDbLine
10
160.28773370770938
20
-60.523004609174443
30
4.6684878185487839e-14
11
149.00029376888381
21
-60.523004105789049
31
4.6553039201313595e-14
0
SPLINE
5
118
100
AcDbEntity
8
0
100
AcDbSpline
70
0
71
3
72
10
73
6
74
0
42
0.000000001
43
0.0000000001
44
0.0000000001
40
0
40
0
40
0
40
0
40
0.045927756277066717
40
0.045927756277066717
40
0.091855512554132962
40
0.091855512554132962
40
0.091855512554132962
40
0.091855512554132962
10
24.389158512192289
20
-47.751496706529018
30
3.6637359812630166e-14
10
24.263780405843466
20
-47.839346865385522
30
3.8857805861880479e-14
10
24.1256888081871
20
-47.907487074572479
30
3.7747582837255322e-14
10
23.833689592667309
20
-47.999605140046882
30
3.8857805861880479e-14
10
23.681495408144862
20
-48.023042453222203
30
3.7747582837255322e-14
10
23.528402887221311
20
-48.02304244639474
30
3.6637359812630166e-14
0
ARC
5
119
100
AcDbEntity
8
0
100
AcDbCircle
10
27.25834370577747
20
-51.846344240309882
30
4.2188474935755885e-14
40
4.9999999999999609
210
7.7233918223945501e-19
220
7.9697622245026072e-16
230
1
100
AcDbArc
50
54.981764965703611
51
125.01822992386259
0
SPLINE
5
120
100
AcDbEntity
8
0
100
AcDbSpline
70
0
71
3
72
10
73
6
74
0
42
0.000000001
43
0.0000000001
44
0.0000000001
40
0
40
0
40
0
40
0
40
0.045927756277065926
40
0.045927756277065926
40
0.091855512554132657
40
0.091855512554132657
40
0.091855512554132657
40
0.091855512554132657
10
30.988284865348792
20
-48.023042779082715
30
3.8857805861880479e-14
10
30.835192344425238
20
-48.023042772255252
30
3.7747582837255322e-14
10
30.682998161993261
20
-47.999605445505125
30
3.9968028886505635e-14
10
30.390998954689845
20
-47.907487353986191
30
3.7747582837255322e-14
10
30.25290736311117
20
-47.839347132482317
30
3.8857805861880479e-14
10
30.127529264598042
20
-47.751496962442843
30
3.7747582837255322e-14
0
LINE
5
121
100
AcDbEntity
8
0
100
AcDbLine
10
30.988284865348792
20
-48.023042779082715
30
3.8857805861880479e-14
11
45.987734247406571
21
-48.023043448012402
31
3.6637360342025758e-14
0
ARC
5
122
100
AcDbEntity
8
0
100
AcDbCircle
10
45.987734180511154
20
-49.523043448012388
30
4.1078251911130792e-14
40
1.5000000000000049
210
-2.9106707644850782e-25
220
7.9103390504542473e-16
230
1
100
AcDbArc
50
-2.5613209387547816e-06
51
89.99999744478329
0
LINE
5
123
100
AcDbEntity
8
0
100
AcDbLine
10
47.487734180511154
20
-49.523043514907812
30
4.1078251964483942e-14
11
47.48773377460487
21
-59.022999579744273
31
4.649058915617843e-14
0
ARC
5
124
100
AcDbEntity
8
0
100
AcDbCircle
10
45.987733756842118
20
-59.022999511743286
30
4.7739590058881731e-14
40
1.5000000000000044
210
-6.0035429935371566e-25
220
7.7715611723761096e-16
230
1
100
AcDbArc
50
269.99999812327064
51
359.99999743867909
0
LINE
5
125
100
AcDbEntity
8
0
100
AcDbLine
10
45.987733707709459
20
-60.522999511743294
30
4.8905324234738152e-14
11
30.487733689946694
21
-60.522998820490571
31
4.7739589488127109e-14
0
LINE
5
126
100
AcDbEntity
8
0
100
AcDbLine
10
30.487733689946694
20
-60.522998820490571
30
4.7739589488127109e-14
11
30.487733404507942
21
-60.523042756759679
31
4.7739625528386398e-14
0
LINE
5
127
100
AcDbEntity
8
0
100
AcDbLine
10
30.487733404507942
20
-60.523042756759679
30
4.7739625528386398e-14
11
8.1752337077682427
21
-60.523041762795856
31
4.9960035297495044e-14
0
ARC
5
128
100
AcDbEntity
8
0
100
AcDbCircle
10
8.1752337569009015
20
-59.02304176169028
30
4.7739590058881731e-14
40
1.5000000000000038
210
-4.6916927126909636e-26
220
7.9103390504542473e-16
230
1
100
AcDbArc
50
179.99999758516347
51
269.99999812327064
0
LINE
5
129
100
AcDbEntity
8
0
100
AcDbLine
10
6.6752337569008988
20
-59.023041695900424
30
4.7739590006769353e-14
11
6.6752341805719251
21
-49.523041694794863
31
4.0245584642661925e-14
0
ARC
5
130
100
AcDbEntity
8
0
100
AcDbCircle
10
8.1752341805719126
20
-49.52304176169028
30
4.1078251911130792e-14
40
1.5000000000000049
210
5.3609661903988869e-25
220
7.9103390504542315e-16
230
1
100
AcDbArc
50
89.999997444784242
51
179.99999743867906
0
LINE
5
131
100
AcDbEntity
8
0
100
AcDbLine
10
8.175234247467305
20
-48.023041761690273
30
3.9891701053562656e-14
11
23.528402887221315
21
-48.02304244639474
31
3.6637359812630172e-14
0
LWPOLYLINE
5
132
100
AcDbEntity
8
0
100
AcDbPolyline
90
8
70
1
43
0.0
10
218.93773418051103
20
-49.523051161054624
10
218.93773375684196
20
-59.02300722589105
42
-0.41421355868881782
10
217.43773370770936
20
-60.523007157890049
10
203.43773370770933
20
-60.523006533532744
42
-0.4142135656256174
10
201.93773375684199
20
-59.023006467742903
10
201.93773418051109
20
-49.523050402906478
42
-0.41421356237309681
10
203.43773424740652
20
-48.023050469801902
10
217.43773424740647
20
-48.023051094159193
42
-0.41421356237310375
0
LWPOLYLINE
5
133
100
AcDbEntity
8
0
100
AcDbPolyline
90
8
70
1
43
0.0
10
237.98773423224517
20
-49.523052014663634
10
237.98773380857611
20
-59.023008075462897
42
-0.41421356957887556
10
236.4877337077092
20
-60.523008011499073
10
222.48773370770931
20
-60.52300738714181
42
-0.41421355631217416
10
220.98773380857622
20
-59.023007317314764
10
220.98773423224526
20
-49.523051256515522
42
-0.41421356237309681
10
222.4877342991407
20
-48.023051323410932
10
236.48773429914056
20
-48.023051947768195
42
-0.41421356237310025
0
LWPOLYLINE
5
134
100
AcDbEntity
8
0
100
AcDbPolyline
90
8
70
1
43
0.0
10
199.88773418051102
20
-49.523050311482741
10
199.88773375684195
20
-59.023006376319167
42
-0.41421355868881782
10
198.38773370770934
20
-60.523006308318159
10
184.38773370770943
20
-60.523005683960882
42
-0.41421356562561573
10
182.88773375684204
20
-59.023005618171055
10
182.88773418051113
20
-49.523049553334602
42
-0.41421356237309337
10
184.38773424740657
20
-48.02304962023004
10
198.38773424740646
20
-48.023050244587324
42
-0.41421356237310197
0
LWPOLYLINE
5
135
100
AcDbEntity
8
0
100
AcDbPolyline
90
8
70
1
43
0.0
10
180.83773418051106
20
-49.52304946191088
10
180.837733756842
20
-59.023005526747305
42
-0.41421355868881959
10
179.33773370770936
20
-60.523005458746304
10
165.33773370770942
20
-60.52300483438902
42
-0.41421356562561573
10
163.83773375684203
20
-59.023004768599193
10
163.83773418051112
20
-49.523048703762747
42
-0.41421356237309503
10
165.33773424740656
20
-48.023048770658178
10
179.33773424740644
20
-48.023049395015434
42
-0.41421356237310025
0
LWPOLYLINE
5
136
100
AcDbEntity
8
0
100
AcDbPolyline
90
8
70
1
43
0.0
10
123.68773418051111
20
-49.523046913195287
10
123.68773375684208
20
-59.023002978031734
42
-0.41421355868882304
10
122.18773370770941
20
-60.523002910030741
10
108.18773370770947
20
-60.523002285673456
42
-0.41421356562561917
10
106.68773375684209
20
-59.023002219883608
10
106.6877341805111
20
-49.523046155047169
42
-0.41421356237309853
10
108.18773424740654
20
-48.023046221942579
10
122.18773424740654
20
-48.023046846299877
42
-0.41421356237309681
0
LWPOLYLINE
5
137
100
AcDbEntity
8
0
100
AcDbPolyline
90
8
70
1
43
0.0
10
104.63773418051112
20
-49.523046063623433
10
104.6377337568421
20
-59.023002128459837
42
-0.41421355868882304
10
103.13773370770943
20
-60.523002060458843
10
89.137733707709472
20
-60.523001436101573
42
-0.41421356562561573
10
87.63773375684211
20
-59.023001370311725
10
87.637734180511146
20
-49.5230453054753
42
-0.41421356237309853
10
89.13773424740657
20
-48.02304537237071
10
103.13773424740657
20
-48.023045996728015
42
-0.41421356237309503
0
LWPOLYLINE
5
138
100
AcDbEntity
8
0
100
AcDbPolyline
90
8
70
1
43
0.0
10
85.587734180511148
20
-49.523045214051564
10
85.587733756842098
20
-59.023001278888003
42
-0.41421355868881615
10
84.087733707709447
20
-60.523001210886989
10
70.087733707709447
20
-60.523000586529733
42
-0.41421356562561218
10
68.587733756842113
20
-59.023000520739885
10
68.58773418051112
20
-49.523044455903431
42
-0.41421356237309337
10
70.087734247406559
20
-48.02304452279887
10
84.087734247406559
20
-48.023045147156111
42
-0.41421356237309503
0
LWPOLYLINE
5
139
100
AcDbEntity
8
0
100
AcDbPolyline
90
8
70
1
43
0.0
10
66.537734180511166
20
-49.523044364479709
10
66.537733756842115
20
-59.023000429316141
42
-0.41421355868882476
10
65.03773370770945
20
-60.523000361315141
10
51.037733707709492
20
-60.522999736957857
42
-0.41421356562561396
10
49.537733756842144
20
-59.022999671168009
10
49.537734180511144
20
-49.523043606331569
42
-0.41421356237309503
10
51.037734247406583
20
-48.023043673226994
10
65.037734247406547
20
-48.023044297584235
42
-0.41421356237310025
0
LWPOLYLINE
5
140
100
AcDbEntity
8
0
100
AcDbPolyline
90
8
70
1
43
0.0
10
240.44699762481204
20
-59.019977165520643
10
240.44699804848321
20
-49.519977165520679
42
-0.41421356237309337
10
241.94699811537862
20
-48.019977232416117
10
255.94699811537851
20
-48.01997785677338
42
-0.41421356237310197
10
257.44699804848312
20
-49.519977923668804
10
257.44699762481213
20
-59.019977923668776
42
-0.41421356237307599
10
255.94699755791669
20
-60.519977856773373
10
241.94699755791663
20
-60.519977232416117
42
-0.41421356237309853
0
LWPOLYLINE
5
141
100
AcDbEntity
8
0
100
AcDbPolyline
90
8
70
1
43
0.0
10
265.35023427480928
20
-48.023053231363306
10
279.35023427480922
20
-48.023053855720605
42
-0.41421356237310025
10
280.85023420791379
20
-49.523053922616008
10
280.85023378426399
20
-59.022579411562397
42
-0.41421356424420042
10
279.35023370713333
20
-60.522579344014275
10
265.35023370713338
20
-60.522578719656977
42
-0.41421356024709954
10
263.85023378426399
20
-59.022578653414271
10
263.85023420791384
20
-49.523053164467896
42
-0.41421356237309159
0
LWPOLYLINE
5
142
100
AcDbEntity
8
0
100
AcDbPolyline
90
8
70
1
43
0.0
10
168.60029300398895
20
-78.072582284566437
10
168.60029329838369
20
-71.073056023439079
42
-0.41421356605737575
10
170.1002933830419
20
-69.573056089228913
10
184.1002933830419
20
-69.573056713586197
42
-0.4142135591205709
10
185.60029329838369
20
-71.073056781587184
10
185.60029298622618
20
-78.072583042714555
42
-0.41421355868882653
10
184.10029293709351
20
-79.572582974713555
10
170.10029293709349
20
-79.57258233259347
42
-0.41421356562560718
0
LWPOLYLINE
5
143
100
AcDbEntity
8
0
100
AcDbPolyline
90
8
70
1
43
0.0
10
111.45029300398896
20
-78.072579735850852
10
111.45029329838368
20
-71.07305347472348
42
-0.41421356605736881
10
112.9502933830419
20
-69.573053540513328
10
126.95029338304192
20
-69.573054164870598
42
-0.41421355912057789
10
128.45029329838374
20
-71.073054232871598
10
128.45029298622623
20
-78.07258049399897
42
-0.41421355868882476
10
126.95029293709356
20
-79.572580425997984
10
112.95029293709356
20
-79.572579783877941
42
-0.41421356562561762
0
LWPOLYLINE
5
144
100
AcDbEntity
8
0
100
AcDbPolyline
90
8
70
1
43
0.0
10
73.350293003988995
20
-78.072578036707142
10
73.350293298383761
20
-71.073051775579742
42
-0.41421356605737403
10
74.850293383041986
20
-69.57305184136959
10
88.850293383041958
20
-69.573052465726875
42
-0.41421355912056923
10
90.350293298383747
20
-71.073052533727889
10
90.35029298622625
20
-78.072578794855275
42
-0.41421355868882304
10
88.85029293709357
20
-79.57257872685426
10
74.850292937093627
20
-79.572578084734232
42
-0.41421356562561928
0
LWPOLYLINE
5
145
100
AcDbEntity
8
0
100
AcDbPolyline
90
8
70
1
43
0.0
10
52.250293316146497
20
-71.073050834584137
10
52.250292986226242
20
-78.072577095711523
42
-0.41421355868881615
10
50.750292937093626
20
-79.572577027710537
10
36.75029293709364
20
-79.572576403353267
42
-0.41421356562562173
10
35.250292986226256
20
-78.072576337563405
10
35.250293298383767
20
-71.073050076436019
42
-0.41421356605737059
10
36.750293383041978
20
-69.573050142225867
10
50.750293383041935
20
-69.573050748820407
42
-0.414213559120576
0
LWPOLYLINE
5
146
100
AcDbEntity
8
0
100
AcDbPolyline
90
8
70
1
43
0.0
10
54.300293003989012
20
-78.07257718713528
10
54.300293298383764
20
-71.073050926007909
42
-0.41421356605737059
10
55.800293383041961
20
-69.573050991797743
10
69.800293383041947
20
-69.573051616155027
42
-0.41421355912057267
10
71.30029329838375
20
-71.073051684156027
10
71.300292986226239
20
-78.072577945283371
42
-0.41421355868881959
10
69.800292937093616
20
-79.572577877282399
10
55.800292937093623
20
-79.57257723516237
42
-0.41421356562561584
0
LWPOLYLINE
5
147
100
AcDbEntity
8
0
100
AcDbPolyline
90
8
70
1
43
0.0
10
187.65029300398902
20
-78.072583134138313
10
187.6502932983837
20
-71.073056873010913
42
-0.41421356605737403
10
189.15029338304191
20
-69.573056938800747
10
203.15029338304191
20
-69.573057563158073
42
-0.4142135591205709
10
204.6502932983837
20
-71.07305763115906
10
204.65029298622613
20
-78.072583892286431
42
-0.41421355868882653
10
203.15029293709347
20
-79.572583824285431
10
189.1502929370935
20
-79.572583182165332
42
-0.41421356562561062
0
LWPOLYLINE
5
148
100
AcDbEntity
8
0
100
AcDbPolyline
90
8
70
1
43
0.0
10
149.550293003989
20
-78.072581434994589
10
149.55029329838371
20
-71.073055173867189
42
-0.41421356605736881
10
151.05029338304189
20
-69.573055239657037
10
165.05029338304195
20
-69.573055864014336
42
-0.4142135591205709
10
166.55029329838371
20
-71.073055932015322
10
166.5502929862262
20
-78.072582193142722
42
-0.41421355868882304
10
165.05029293709353
20
-79.572582125141707
10
151.05029293709353
20
-79.572581483021636
42
-0.41421356562561062
0
LWPOLYLINE
5
149
100
AcDbEntity
8
0
100
AcDbPolyline
90
8
70
1
43
0.0
10
92.400293003988949
20
-78.07257888627899
10
92.400293298383716
20
-71.073052625151604
42
-0.41421356605737059
10
93.900293383041912
20
-69.573052690941452
10
107.90029338304193
20
-69.573053315298722
42
-0.41421355912057267
10
109.40029329838374
20
-71.073053383299722
10
109.40029298622625
20
-78.072579644427094
42
-0.41421355868882476
10
107.90029293709358
20
-79.572579576426094
10
93.900292937093525
20
-79.572578934306108
42
-0.41421356562560541
0
LWPOLYLINE
5
150
100
AcDbEntity
8
0
100
AcDbPolyline
90
8
70
1
43
0.0
10
206.70029300398892
20
-78.07258398371016
10
206.70029329838366
20
-71.073057722582774
42
-0.41421356605736703
10
208.20029338304184
20
-69.573057788372651
10
222.2002933830419
20
-69.573058412729935
42
-0.4142135591205709
10
223.70029329838366
20
-71.073058480730921
10
223.70029298622615
20
-78.072584741858307
42
-0.41421355868882476
10
222.20029293709348
20
-79.572584673857307
10
208.20029293709342
20
-79.572584031737208
42
-0.41421356562561584
0
LWPOLYLINE
5
151
100
AcDbEntity
8
0
100
AcDbPolyline
90
8
70
1
43
0.0
10
225.7502930039887
20
-78.072584833282022
10
225.7502933501178
20
-71.073058572154665
42
-0.41421355516731984
10
227.25029338304176
20
-69.573058641981646
10
241.25029338304165
20
-69.57305926633893
42
-0.41421356843402113
10
242.7502933501178
20
-71.073059330302783
10
242.7502930379602
20
-78.072585591430141
42
-0.41421356957887556
10
241.25029293709329
20
-79.572585527466316
10
227.25029293709338
20
-79.572584937080606
42
-0.41421355631217904
0
LWPOLYLINE
5
152
100
AcDbEntity
8
0
100
AcDbPolyline
90
8
70
1
43
0.0
10
256.70654300315402
20
-78.06919702792085
10
256.70654328743871
20
-71.073059952708931
42
-0.41421356721367653
10
258.20654338205588
20
-69.573060022535941
10
272.20654338205583
20
-69.573060646893197
42
-0.41421355638764817
10
273.70654328743859
20
-71.07306071085705
10
273.70654297543217
20
-78.069197786068997
42
-0.41421355753251521
10
272.20654293625853
20
-79.569197722105159
10
258.20654293625864
20
-79.569197070026149
42
-0.41421356835853529
0
LWPOLYLINE
5
153
100
AcDbEntity
8
0
100
AcDbPolyline
90
8
70
1
43
0.0
10
61.775349463973626
20
-87.12302283717365
10
61.775349018025267
20
-97.122549079674741
42
-0.41421356559283601
10
60.275348937572119
20
-98.622549015710916
10
46.275348937572161
20
-98.622548391353661
42
-0.41421356029821904
10
44.775349018025288
20
-97.122548321526637
10
44.77534946397364
20
-87.123022079025517
42
-0.41421356237309503
10
46.275349530869065
20
-85.623022145920928
10
60.275349530869036
20
-85.623022770278197
42
-0.41421356237309681
0
LWPOLYLINE
5
154
100
AcDbEntity
8
0
100
AcDbPolyline
90
8
70
1
43
0.0
10
80.825349463973609
20
-87.123023686745512
10
80.82534901802525
20
-97.122549929246617
42
-0.41421356559283773
10
79.325348937572102
20
-98.622549865282792
10
65.325348937572144
20
-98.622549240925537
42
-0.41421356029822254
10
63.825349018025278
20
-97.122549171098484
10
63.825349463973609
20
-87.123022928597379
42
-0.41421356237309159
10
65.325349530869047
20
-85.623022995492818
10
79.325349530869033
20
-85.623023619850073
42
-0.41421356237310025
0
LWPOLYLINE
5
155
100
AcDbEntity
8
0
100
AcDbPolyline
90
8
70
1
43
0.0
10
99.875349463973578
20
-87.123024536317359
10
99.875349018025204
20
-97.122550778818507
42
-0.41421356559283079
10
98.375348937572056
20
-98.622550714854654
10
84.375348937572113
20
-98.622550090497398
42
-0.41421356029821732
10
82.875349018025233
20
-97.122550020670388
10
82.875349463973606
20
-87.123023778169227
42
-0.41421356237309159
10
84.375349530869045
20
-85.623023845064665
10
98.375349530869002
20
-85.623024469421907
42
-0.41421356237309159
0
LWPOLYLINE
5
156
100
AcDbEntity
8
0
100
AcDbPolyline
90
8
70
1
43
0.0
10
118.92534946397356
20
-87.123025385889221
10
118.9253490180252
20
-97.122551628390298
42
-0.41421356559283773
10
117.42534893757207
20
-98.622551564426502
10
103.4253489375721
20
-98.622550940069246
42
-0.41421356029822082
10
101.92534901802523
20
-97.122550870242193
10
101.92534946397356
20
-87.123024627741103
42
-0.41421356237309853
10
103.42534953086898
20
-85.623024694636513
10
117.42534953086901
20
-85.623025318993797
42
-0.41421356237308815
0
LWPOLYLINE
5
157
100
AcDbEntity
8
0
100
AcDbPolyline
90
8
70
1
43
0.0
10
137.97534946397354
20
-87.123026235461097
10
137.97534901802518
20
-97.122552477962202
42
-0.41421356559283429
10
136.47534893757202
20
-98.622552413998349
10
122.47534893757212
20
-98.622551789641108
42
-0.41421356029822776
10
120.97534901802521
20
-97.122551719814055
10
120.97534946397357
20
-87.123025477312979
42
-0.41421356237309503
10
122.475349530869
20
-85.623025544208403
10
136.47534953086898
20
-85.623026168565616
42
-0.41421356237309503
0
LWPOLYLINE
5
158
100
AcDbEntity
8
0
100
AcDbPolyline
90
8
70
1
43
0.0
10
157.02534946397355
20
-87.123027085032945
10
157.0253490180252
20
-97.122553327534064
42
-0.41421356559283773
10
155.52534893757203
20
-98.622553263570239
10
141.52534893757209
20
-98.622552639212969
42
-0.41421356029822426
10
140.02534901802522
20
-97.122552569385917
10
140.02534946397358
20
-87.123026326884826
42
-0.41421356237309503
10
141.52534953086902
20
-85.62302639378025
10
155.52534953086899
20
-85.62302701813752
42
-0.41421356237309159
0
LWPOLYLINE
5
159
100
AcDbEntity
8
0
100
AcDbPolyline
90
8
70
1
43
0.0
10
176.07534946397351
20
-87.123027934604806
10
176.07534901802518
20
-97.12255417710594
42
-0.41421356559283079
10
174.57534893757207
20
-98.622554113142115
10
160.57534893757204
20
-98.622553488784845
42
-0.41421356029821382
10
159.07534901802518
20
-97.122553418957821
10
159.07534946397354
20
-87.123027176456702
42
-0.41421356237309853
10
160.57534953086898
20
-85.623027243352112
10
174.575349530869
20
-85.623027867709411
42
-0.4142135623730846
0
LWPOLYLINE
5
160
100
AcDbEntity
8
0
100
AcDbPolyline
90
8
70
1
43
0.0
10
195.12534946397352
20
-87.123028784176711
10
195.12534901802519
20
-97.122555026677801
42
-0.41421356559282735
10
193.62534893757208
20
-98.622554962713963
10
179.62534893757203
20
-98.622554338356707
42
-0.41421356029821382
10
178.12534901802519
20
-97.122554268529697
10
178.12534946397349
20
-87.12302802602855
42
-0.41421356237309503
10
179.62534953086896
20
-85.623028092923974
10
193.62534953086893
20
-85.62302871728123
42
-0.41421356237309853
0
LWPOLYLINE
5
161
100
AcDbEntity
8
0
100
AcDbPolyline
90
8
70
1
43
0.0
10
214.1753494639735
20
-87.123029633748544
10
214.1753490180252
20
-97.122555876249635
42
-0.41421356559283429
10
212.67534893757204
20
-98.622555812285825
10
198.67534893757195
20
-98.622555187928526
42
-0.41421356029821732
10
197.17534901802512
20
-97.122555118101502
10
197.1753494639735
20
-87.123028875600411
42
-0.41421356237309503
10
198.67534953086891
20
-85.623028942495836
10
212.67534953086894
20
-85.62302956685312
42
-0.41421356237309853
0
LWPOLYLINE
5
162
100
AcDbEntity
8
0
100
AcDbPolyline
90
8
70
1
43
0.0
10
233.22534948438721
20
-87.123030483320434
10
233.22534903843882
20
-97.122556725821511
42
-0.41421356957887728
10
231.72534893757188
20
-98.622556661857686
10
217.72534893757197
20
-98.622556037500445
42
-0.41421355631217416
10
216.22534903843888
20
-97.122555967673406
10
216.22534948438727
20
-87.123029725172287
42
-0.41421356237309853
10
217.72534955128268
20
-85.623029792067697
10
231.72534955128265
20
-85.623030416424967
42
-0.41421356237309503
0
LWPOLYLINE
5
163
100
AcDbEntity
8
0
100
AcDbPolyline
90
8
70
1
43
0.0
10
259.4190994217717
20
-87.123031651481696
42
0.41421356237308815
10
257.91909948866709
20
-85.6230315845863
10
243.9190994886672
20
-85.623030960228988
42
0.41421356237309853
10
242.4190994217719
20
-87.123030893333578
10
242.41909897596474
20
-97.119386624688673
42
0.41421356237309503
10
243.91909890906933
20
-98.61938669158414
10
257.91909890906931
20
-98.619387315941395
42
0.41421356237309853
10
259.41909897596486
20
-97.119387382836806
0
CIRCLE
5
164
100
AcDbEntity
8
0
100
AcDbCircle
10
38.987862471008768
20
-87.597975962561932
30
6.8833827526759706e-14
40
3.2500000000000022
210
-3.8499977707591149e-25
220
7.7715611723760958e-16
230
1
0
LWPOLYLINE
5
165
100
AcDbEntity
8
0
100
AcDbPolyline
90
10
70
1
43
0.0
10
268.61286266147278
20
-92.324166367494826
42
0.38517041117884487
10
267.26286260132633
20
-90.831685146255296
42
-2.1088835553961949
10
270.82157162850802
20
-87.272975832243645
42
0.38517036525057902
10
272.31405271858824
20
-88.622975772097035
10
284.11286280837243
20
-88.622976240389875
42
-0.41421356237309503
10
285.61286274883764
20
-90.122976299924602
10
285.6128624710089
20
-97.122976299924602
42
-0.41421356237309503
10
284.11286241147411
20
-98.62297624038986
10
270.11286241147405
20
-98.622975684732168
42
-0.41421356237309503
10
268.61286247100884
20
-97.122975625197441
0
ENDSEC
0
SECTION
2
OBJECTS
0
DICTIONARY
5
C
100
AcDbDictionary
3
ACAD_GROUP
350
D
3
ACAD_MLINESTYLE
350
17
0
DICTIONARY
5
D
100
AcDbDictionary
0
DICTIONARY
5
1A
330
C
100
AcDbDictionary
0
DICTIONARY
5
17
100
AcDbDictionary
0
ENDSEC
0
EOF
