0
SECTION
2
HEADER
9
$INSUNITS
70
4
9
$ACADVER
1
AC1014
9
$HANDSEED
5
FFFF
0
ENDSEC
0
SECTION
2
TABLES
0
TABLE
2
VPORT
5
8
100
AcDbSymbolTable
0
ENDTAB
0
TABLE
2
LTYPE
5
5
100
AcDbSymbolTable
0
LTYPE
5
14
100
AcDbSymbolTableRecord
100
AcDbLinetypeTableRecord
2
BYBLOCK
70
0
0
LTYPE
5
15
100
AcDbSymbolTableRecord
100
AcDbLinetypeTableRecord
2
BYLAYER
70
0
0
LTYPE
5
16
100
AcDbSymbolTableRecord
100
AcDbLinetypeTableRecord
2
DASHED
70
0
3
Dashed __ __ __ __ __ __ __ __ __ __ __ __ __ _
72
65
73
2
40
0.75
49
0.5
74
0
49
-0.25
74
0
0
ENDTAB
0
TABLE
2
LAYER
5
2
100
AcDbSymbolTable
70
2
0
LAYER
5
50
100
AcDbSymbolTableRecord
100
AcDbLayerTableRecord
2
0
70
0
62
7
6
CONTINUOUS
0
ENDTAB
0
TABLE
2
STYLE
5
3
100
AcDbSymbolTable
70
1
0
STYLE
5
11
100
AcDbSymbolTableRecord
100
AcDbTextStyleTableRecord
2
STANDARD
70
0
0
ENDTAB
0
TABLE
2
VIEW
5
6
100
AcDbSymbolTable
70
0
0
ENDTAB
0
TABLE
2
UCS
5
7
100
AcDbSymbolTable
70
0
0
ENDTAB
0
TABLE
2
APPID
5
9
100
AcDbSymbolTable
70
2
0
APPID
5
12
100
AcDbSymbolTableRecord
100
AcDbRegAppTableRecord
2
ACAD
70
0
0
ENDTAB
0
TABLE
2
DIMSTYLE
5
A
100
AcDbSymbolTable
70
1
0
ENDTAB
0
TABLE
2
BLOCK_RECORD
5
1
100
AcDbSymbolTable
70
1
0
BLOCK_RECORD
5
1F
100
AcDbSymbolTableRecord
100
AcDbBlockTableRecord
2
*MODEL_SPACE
0
BLOCK_RECORD
5
1B
100
AcDbSymbolTableRecord
100
AcDbBlockTableRecord
2
*PAPER_SPACE
0
ENDTAB
0
ENDSEC
0
SECTION
2
BLOCKS
0
BLOCK
5
20
100
AcDbEntity
100
AcDbBlockBegin
2
*MODEL_SPACE
0
ENDBLK
5
21
100
AcDbEntity
100
AcDbBlockEnd
0
BLOCK
5
1C
100
AcDbEntity
100
AcDbBlockBegin
2
*PAPER_SPACE
0
ENDBLK
5
1D
100
AcDbEntity
100
AcDbBlockEnd
0
ENDSEC
0
SECTION
2
ENTITIES
0
LWPOLYLINE
5
100
100
AcDbEntity
8
0
100
AcDbPolyline
90
30
70
1
43
0.0
10
-249.17627381077085
20
-33.840458518134547
10
-249.17627396790735
20
-46.833594099138111
42
-0.38533659480970023
10
-249.62656198395382
20
-47.331116674137952
42
0.38533659828208655
10
-250.07685000000026
20
-47.828639255184683
10
-250.07685000000032
20
-49.834593913007367
42
-0.41421356237309503
10
-250.57685000000032
20
-50.334593913007367
10
-257.35135000000014
20
-50.334593913007382
42
-0.41421356237309503
10
-257.85135000000014
20
-49.834593913007375
10
-257.85135000000014
20
-48.084593913004653
42
0.41421356237301699
10
-258.35135000000014
20
-47.584593913004632
10
-273.35135000000042
20
-47.584593913004632
42
0.41421356237307422
10
-273.85135000000042
20
-48.084593913004639
10
-273.85135000000042
20
-49.834593913007375
42
-0.41421356237309503
10
-274.35135000000042
20
-50.334593913007375
10
-282.02585000000028
20
-50.334593913007382
42
-0.41421356237309503
10
-282.52585000000028
20
-49.834593913007375
10
-282.52585000000028
20
-31.834293913007365
42
-0.41421356237309503
10
-282.02585000000028
20
-31.334293913007368
10
-274.62685000000027
20
-31.334293913007365
42
-0.41421356237309243
10
-274.12685000000027
20
-31.834293913007365
10
-274.12685000000027
20
-32.834293914364643
42
0.41421356237304818
10
-273.62685000000027
20
-33.334293914364636
10
-258.07585000000029
20
-33.334293992718223
42
0.41421356237307683
10
-257.57585000000029
20
-32.83429391436465
10
-257.57585000000029
20
-31.834293913007375
42
-0.41421356237309764
10
-257.07585000000029
20
-31.334293913007372
10
-250.57684998354057
20
-31.334293913007357
42
-0.41421356237309764
10
-250.07684998354054
20
-31.834293913007372
10
-250.07684998354057
20
-32.845413335937849
42
0.38533663887456648
10
-249.62656189715551
20
-33.342935924013119
42
-0.38533664234695636
0
LWPOLYLINE
5
101
100
AcDbEntity
8
0
100
AcDbPolyline
90
38
70
1
43
0.0
10
-266.20785000000041
20
-104.73459391300739
42
0.41421356237310542
10
-266.70785000000035
20
-105.2345939130074
10
-266.70785000000041
20
-106.98459391300739
42
-0.41421356237307422
10
-267.20785000000041
20
-107.48459391300736
10
-273.98185000000035
20
-107.48459391300736
42
-0.41421356237309503
10
-274.48185000000035
20
-106.98459391300736
10
-274.48185000000029
20
-104.98379371486146
42
0.41421355883085315
10
-274.9818499939534
20
-104.48379371486143
10
-281.87627247639375
20
-104.48379363148142
42
-0.41421356237307622
10
-282.37627247034686
20
-103.98379362543452
10
-282.37627231313422
20
-90.984393787491925
42
-0.41421356237310875
10
-281.87627230708728
20
-90.484393793538828
10
-274.98185000604724
20
-90.484393913007381
42
0.41421356591531583
10
-274.48185000000035
20
-89.984393876918872
10
-274.48185000000029
20
-88.984393913007352
42
-0.41421356237307422
10
-273.98185000000029
20
-88.484393913007381
10
-267.48285000000027
20
-88.484393913007381
42
-0.41421356237309503
10
-266.98285000000027
20
-88.984393913007395
10
-266.98285000000027
20
-89.984393913007409
42
0.41421356237300139
10
-266.48285000000021
20
-90.484393913007395
10
-250.93285000000031
20
-90.484393913007381
42
0.4142135623730846
10
-250.43285000000026
20
-89.984393913007366
10
-250.43285000000029
20
-88.984393913007338
42
-0.4142135623730846
10
-249.93285000000029
20
-88.484393913007352
10
-243.43285000000031
20
-88.484393913007324
42
-0.41421356237309503
10
-242.93285000000029
20
-88.984393913007338
10
-242.93285000000029
20
-89.984394270561268
42
0.37086423205558128
10
-242.50768615649892
20
-90.47876209888399
42
-0.3708642354949509
10
-242.0825223129975
20
-90.973129933253617
10
-242.08252247034639
20
-103.98379411274065
42
-0.37086418335883842
10
-242.50768623517334
20
-104.4781619231069
42
0.37086418679811539
10
-242.93285000000029
20
-104.97252973952007
10
-242.93285000000029
20
-106.98459391300736
42
-0.41421356237309503
10
-243.43285000000031
20
-107.48459391300736
10
-250.20785000000041
20
-107.48459391300736
42
-0.41421356237309503
10
-250.70785000000041
20
-106.98459391300736
10
-250.70785000000041
20
-105.2345939130074
42
0.41421356237310542
10
-251.20785000000041
20
-104.73459391300737
0
LWPOLYLINE
5
102
100
AcDbEntity
8
0
100
AcDbPolyline
90
40
70
1
43
0.0
10
-28.082500000000298
20
-104.73459391300739
42
0.41421356237310542
10
-28.582500000000287
20
-105.2345939130074
10
-28.582500000000266
20
-106.98459391300739
42
-0.41421356237306384
10
-29.082500000000255
20
-107.48459391300736
10
-35.857250000000306
20
-107.48459391300734
42
-0.41421356237309503
10
-36.357250000000299
20
-106.98459391300736
10
-36.357250000000278
20
-104.98334484642362
42
0.41421358117641993
10
-36.857250032099607
20
-104.48334484642362
10
-39.420755252040806
20
-104.48334501099711
42
-0.41421356237310542
10
-39.920755284140121
20
-103.98334504309643
10
-39.920756118722203
20
-90.983345043096477
42
-0.41421356237312623
10
-39.420756150821447
20
-90.483345010997169
10
-36.857249967901055
20
-90.483344846423947
42
0.41421354356977036
10
-36.357250000000292
20
-89.983344846423961
10
-36.357250000000313
20
-87.984393911387883
42
-0.41421356237307683
10
-35.857250000000306
20
-87.484393911387912
10
-29.357750000000298
20
-87.484393911387912
42
-0.41421356237309503
10
-28.857750000000301
20
-87.984393911387912
10
-28.857750000000276
20
-89.984393913007409
42
0.41421356237310025
10
-28.357750000000284
20
-90.484393913007395
10
-12.80725000000027
20
-90.484393913007452
42
0.41421356237310281
10
-12.307250000000284
20
-89.984393913007381
10
-12.307250000000295
20
-87.984393911387869
42
-0.41421356237309243
10
-11.807250000000291
20
-87.484393911387869
10
-5.3076500000002893
20
-87.484393911387855
42
-0.41421356237309503
10
-4.8076500000002893
20
-87.984393911387855
10
-4.8076500000002902
20
-89.983342756788772
42
0.41421358117639295
10
-4.3076499679010274
20
-90.483342756788758
10
-4.0447561508214847
20
-90.483342739911379
42
-0.41421356237305534
10
-3.544756118722252
20
-90.983342707812085
10
-3.5447552841401886
20
-103.98334270780751
42
-0.41421356237307549
10
-4.0447552520408614
20
-104.48334273990682
10
-4.3076500320995939
20
-104.48334275678418
42
0.41421354356973167
10
-4.8076500000002884
20
-104.98334275678428
10
-4.8076500000002822
20
-106.98459391300736
42
-0.41421356237309503
10
-5.3076500000002893
20
-107.48459391300736
10
-12.082500000000298
20
-107.48459391300734
42
-0.41421356237309503
10
-12.582500000000298
20
-106.98459391300733
10
-12.582500000000298
20
-105.2345939130074
42
0.41421356237309503
10
-13.082500000000296
20
-104.73459391300739
0
CIRCLE
5
103
100
AcDbEntity
8
0
100
AcDbCircle
10
-326.95762087772152
20
-27.458942709978604
30
-1.9428902930940239e-15
40
2.5000000000000129
210
-4.835206280281862e-33
220
-8.3266726846886765e-17
230
1
0
CIRCLE
5
104
100
AcDbEntity
8
0
100
AcDbCircle
10
-19.557632879049226
20
-27.459846361372549
30
-1.9428902930940239e-15
40
2.4999999999999996
210
-1.716115792436017e-32
220
-8.3266726846886765e-17
230
1
0
LWPOLYLINE
5
105
100
AcDbEntity
8
0
100
AcDbPolyline
90
8
70
1
43
0.0
10
-330.28885000000031
20
-8.08439391436462
10
-330.28885000000031
20
-21.083393914364621
42
-0.41421356237309503
10
-330.78885000000025
20
-21.583393914364617
10
-343.78885000000031
20
-21.583393914364592
42
-0.41421356237309503
10
-344.28885000000031
20
-21.083393914364621
10
-344.28885000000031
20
-8.0843939143646164
42
-0.41421356237309243
10
-343.78885000000031
20
-7.58439391436462
10
-330.78885000000025
20
-7.5843939143646502
42
-0.41421356237309437
0
LWPOLYLINE
5
106
100
AcDbEntity
8
0
100
AcDbPolyline
90
8
70
1
43
0.0
10
-268.37685000000027
20
-8.0843939143646217
10
-268.37685000000027
20
-21.083393914364628
42
-0.41421356237309243
10
-268.87685000000027
20
-21.583393914364621
10
-281.8758500000003
20
-21.583393914364631
42
-0.41421356237309503
10
-282.3758500000003
20
-21.083393914364624
10
-282.3758500000003
20
-8.0843939143646182
42
-0.41421356237309176
10
-281.8758500000003
20
-7.5843939143646244
10
-268.87685000000027
20
-7.5843939143646164
42
-0.4142135623730937
0
LWPOLYLINE
5
107
100
AcDbEntity
8
0
100
AcDbPolyline
90
8
70
1
43
0.0
10
-77.876550000000279
20
-8.0843939143646324
10
-77.876550000000279
20
-21.083393914364631
42
-0.41421356237309503
10
-78.376550000000279
20
-21.583393914364631
10
-91.375850000000284
20
-21.583393914364638
42
-0.41421356237309503
10
-91.875850000000284
20
-21.083393914364631
10
-91.875850000000284
20
-8.0843939143646324
42
-0.41421356237309437
10
-91.375850000000284
20
-7.5843939143646324
10
-78.376550000000279
20
-7.5843939143646359
42
-0.41421356237309437
0
LWPOLYLINE
5
108
100
AcDbEntity
8
0
100
AcDbPolyline
90
8
70
1
43
0.0
10
-28.36885000000029
20
-123.53334276134322
10
-43.751272933164472
20
-123.53334276134322
42
-0.41421356237309503
10
-44.251272933164472
20
-123.03334276134323
10
-44.251272933164493
20
-110.03429391300739
42
-0.41421356237310025
10
-43.751272933164472
20
-109.53429391300737
10
-28.36885000000029
20
-109.53429391300737
42
-0.41421356237309764
10
-27.868850000000286
20
-110.03429391300739
10
-27.8688500000003
20
-123.03334276134323
42
-0.41421356237309503
0
LWPOLYLINE
5
109
100
AcDbEntity
8
0
100
AcDbPolyline
90
8
70
1
43
0.0
10
-262.82585000000029
20
-7.5843939143646182
10
-249.82685000000029
20
-7.5843939143646164
42
-0.4142135623730937
10
-249.32685000000026
20
-8.0843939143646217
10
-249.32685000000026
20
-21.083393914364628
42
-0.41421356237309243
10
-249.82685000000029
20
-21.583393914364621
10
-262.82585000000029
20
-21.583393914364631
42
-0.41421356237309503
10
-263.32585000000029
20
-21.083393914364624
10
-263.32585000000029
20
-8.08439391436462
42
-0.41421356237309309
0
LWPOLYLINE
5
110
100
AcDbEntity
8
0
100
AcDbPolyline
90
8
70
1
43
0.0
10
-158.05085000000028
20
-7.5843939143646342
10
-145.05185000000031
20
-7.5843939143646208
42
-0.41421356237309437
10
-144.55185000000031
20
-8.0843939143646271
10
-144.55185000000031
20
-21.083393914364628
42
-0.41421356237309503
10
-145.05185000000031
20
-21.583393914364628
10
-158.05085000000028
20
-21.583393914364635
42
-0.41421356237309503
10
-158.55085000000028
20
-21.083393914364628
10
-158.55085000000028
20
-8.0843939143646271
42
-0.4142135623730937
0
LWPOLYLINE
5
111
100
AcDbEntity
8
0
100
AcDbPolyline
90
8
70
1
43
0.0
10
-139.00085000000027
20
-7.5843939143646342
10
-126.0018500000003
20
-7.5843939143646217
42
-0.41421356237309503
10
-125.50185000000029
20
-8.0843939143646288
10
-125.5018500000003
20
-21.083393914364635
42
-0.41421356237309243
10
-126.0018500000003
20
-21.583393914364631
10
-139.00085000000027
20
-21.583393914364638
42
-0.41421356237309503
10
-139.50085000000027
20
-21.083393914364631
10
-139.50085000000027
20
-8.0843939143646271
42
-0.41421356237309437
0
LWPOLYLINE
5
112
100
AcDbEntity
8
0
100
AcDbPolyline
90
10
70
1
43
0.0
10
-123.11885000000029
20
-110.03429391436464
10
-123.11885000000029
20
-123.03429391300737
42
-0.4142135623730846
10
-123.61885000000029
20
-123.53429391300736
10
-136.81985000000029
20
-123.53429391300737
42
-0.019901800152056125
10
-136.84370380104946
20
-123.53334406962915
10
-148.52627293316428
20
-123.53334276134325
42
-0.4142135623730846
10
-149.02627293316431
20
-123.03334276134325
10
-149.02627293316428
20
-110.03429391436462
42
-0.41421356237309503
10
-148.52627293316428
20
-109.53429391436461
10
-123.61885000000031
20
-109.53429391436461
42
-0.41421356237309503
0
CIRCLE
5
113
100
AcDbEntity
8
0
100
AcDbCircle
10
-337.28994117045312
20
-97.483294721755769
30
-6.9388939039072284e-15
40
1.1000000000000005
210
1.5063912175064729e-32
220
-9.7144514654701222e-17
230
1
0
LWPOLYLINE
5
114
100
AcDbEntity
8
0
100
AcDbPolyline
90
8
70
1
43
0.0
10
-30.751550000000279
20
-66.383593914364639
10
-43.750850000000284
20
-66.383593914364639
42
-0.41421356237309503
10
-44.250850000000284
20
-65.883593914364639
10
-44.250850000000284
20
-52.884293914364648
42
-0.41421356237309503
10
-43.750850000000284
20
-52.384293914364648
10
-30.751550000000279
20
-52.384293914364648
42
-0.41421356237309503
10
-30.251550000000282
20
-52.884293914364648
10
-30.251550000000272
20
-65.883593914364639
42
-0.41421356237308982
0
LWPOLYLINE
5
115
100
AcDbEntity
8
0
100
AcDbPolyline
90
8
70
1
43
0.0
10
-226.01385000000028
20
-85.433593913007329
10
-239.01385000000028
20
-85.43359391436465
42
-0.41421356237309503
10
-239.51385000000028
20
-84.933593914364636
10
-239.51385000000028
20
-71.934293914364645
42
-0.41421356237310025
10
-239.01385000000028
20
-71.43429391436463
10
-226.01385000000028
20
-71.434293914364616
42
-0.41421356237309503
10
-225.51385000000028
20
-71.93429391436463
10
-225.51385000135758
20
-84.933593914364636
42
-0.41421356237309503
0
LWPOLYLINE
5
116
100
AcDbEntity
8
0
100
AcDbPolyline
90
8
70
1
43
0.0
10
-220.46385000000029
20
-84.933593914364636
10
-220.46385000000029
20
-71.934293914364645
42
-0.41421356237310025
10
-219.96385000000029
20
-71.43429391436463
10
-206.96385000000032
20
-71.434293914364616
42
-0.41421356237309503
10
-206.46385000000032
20
-71.93429391436463
10
-206.46385000000032
20
-84.933593914364636
42
-0.41421356237309503
10
-206.96385000000032
20
-85.43359391436465
10
-219.96385000000029
20
-85.43359391436465
42
-0.41421356237309503
0
LWPOLYLINE
5
117
100
AcDbEntity
8
0
100
AcDbPolyline
90
8
70
1
43
0.0
10
-201.41385000000028
20
-84.933593914364636
10
-201.41385000000028
20
-71.934293914364645
42
-0.41421356237310025
10
-200.91385000000028
20
-71.43429391436463
10
-187.91385000000025
20
-71.434293914364616
42
-0.41421356237309503
10
-187.41385000000025
20
-71.93429391436463
10
-187.41385000000025
20
-84.933593914364636
42
-0.41421356237309503
10
-187.91385000000025
20
-85.43359391436465
10
-200.91385000000028
20
-85.43359391436465
42
-0.41421356237309503
0
LWPOLYLINE
5
118
100
AcDbEntity
8
0
100
AcDbPolyline
90
8
70
1
43
0.0
10
-182.36385000000027
20
-84.933593914364636
10
-182.36385000000027
20
-71.934293914364645
42
-0.41421356237310025
10
-181.86385000000027
20
-71.43429391436463
10
-168.86385000000024
20
-71.434293914364616
42
-0.41421356237309503
10
-168.36385000000024
20
-71.93429391436463
10
-168.36385000000024
20
-84.933593914364636
42
-0.41421356237309503
10
-168.86385000000024
20
-85.43359391436465
10
-181.86385000000027
20
-85.43359391436465
42
-0.41421356237309503
0
LWPOLYLINE
5
119
100
AcDbEntity
8
0
100
AcDbPolyline
90
8
70
1
43
0.0
10
-163.31385000000029
20
-84.933593914364636
10
-163.31385000000029
20
-71.934293914364645
42
-0.41421356237310025
10
-162.81385000000029
20
-71.43429391436463
10
-149.81385000000029
20
-71.434293914364616
42
-0.41421356237309503
10
-149.31385000000029
20
-71.93429391436463
10
-149.31385000000029
20
-84.933593914364636
42
-0.41421356237309503
10
-149.81385000000029
20
-85.43359391436465
10
-162.81385000000029
20
-85.43359391436465
42
-0.41421356237309503
0
LWPOLYLINE
5
120
100
AcDbEntity
8
0
100
AcDbPolyline
90
8
70
1
43
0.0
10
-144.26385000000028
20
-84.933593914364636
10
-144.26385000000025
20
-71.934293914364645
42
-0.41421356237309503
10
-143.76385000000025
20
-71.434293914364645
10
-130.76385000000028
20
-71.43429391436463
42
-0.41421356237309503
10
-130.26385000000028
20
-71.934293914364645
10
-130.26385000000028
20
-84.933593914364636
42
-0.41421356237309503
10
-130.76385000000028
20
-85.43359391436465
10
-143.76385000000025
20
-85.433593914364664
42
-0.41421356237309503
0
LWPOLYLINE
5
121
100
AcDbEntity
8
0
100
AcDbPolyline
90
8
70
1
43
0.0
10
-125.21385000000029
20
-84.933593914364636
10
-125.21385000000031
20
-71.934293914364645
42
-0.41421356237309503
10
-124.71385000000029
20
-71.434293914364645
10
-111.71385000000028
20
-71.43429391436463
42
-0.41421356237309503
10
-111.21385000000026
20
-71.934293914364645
10
-111.21385000000026
20
-84.933593914364636
42
-0.41421356237309503
10
-111.71385000000028
20
-85.43359391436465
10
-124.71385000000026
20
-85.433593914364664
42
-0.41421356237309503
0
LWPOLYLINE
5
122
100
AcDbEntity
8
0
100
AcDbPolyline
90
8
70
1
43
0.0
10
-106.16385000000029
20
-84.933593914364636
10
-106.16385000000029
20
-71.934293914364645
42
-0.41421356237309503
10
-105.66385000000031
20
-71.434293914364645
10
-92.66405000000033
20
-71.43429391436463
42
-0.41421356237309503
10
-92.164050000000316
20
-71.934293914364645
10
-92.164050000000316
20
-84.933593914364636
42
-0.41421356237309503
10
-92.66405000000033
20
-85.43359391436465
10
-105.66385000000031
20
-85.433593914364621
42
-0.41421356237309503
0
LWPOLYLINE
5
123
100
AcDbEntity
8
0
100
AcDbPolyline
90
8
70
1
43
0.0
10
-87.113350000000281
20
-84.933593914364636
10
-87.113350000000267
20
-71.934293914364645
42
-0.41421356237309503
10
-86.613350000000281
20
-71.434293914364645
10
-73.614050000000276
20
-71.434293914364645
42
-0.41421356237309503
10
-73.114050000000276
20
-71.934293914364645
10
-73.114050000000276
20
-84.933593914364636
42
-0.41421356237309503
10
-73.614050000000276
20
-85.43359391436465
10
-86.613350000000281
20
-85.43359391436465
42
-0.41421356237309503
0
LWPOLYLINE
5
124
100
AcDbEntity
8
0
100
AcDbPolyline
90
8
70
1
43
0.0
10
-68.063350000000298
20
-84.933593914364636
10
-68.063350000000298
20
-71.934293914364645
42
-0.41421356237309503
10
-67.563350000000298
20
-71.434293914364645
10
-54.564050000000307
20
-71.434293914364645
42
-0.41421356237309503
10
-54.064050000000307
20
-71.934293914364645
10
-54.064050000000293
20
-84.933593914364636
42
-0.41421356237309503
10
-54.564050000000307
20
-85.43359391436465
10
-67.563350000000298
20
-85.433593914364621
42
-0.41421356237309503
0
CIRCLE
5
125
100
AcDbEntity
8
0
100
AcDbCircle
10
-257.80112181420708
20
-59.383820140649313
30
-4.7184478546569153e-15
40
1.2999999999999898
210
1.823673630285482e-32
220
-6.9388939039072296e-17
230
1
0
LWPOLYLINE
5
126
100
AcDbEntity
8
0
100
AcDbPolyline
90
8
70
1
43
0.0
10
-4.5575226253030356
20
-85.433346186300909
10
-22.319750000000287
20
-85.433346186300867
42
-0.41421356237309243
10
-22.81975000000028
20
-84.933346186300867
10
-22.819750000000283
20
-71.934293914364616
42
-0.4142135623730846
10
-22.319750000000287
20
-71.434293914364645
10
-4.5575226253030543
20
-71.434293914364645
42
-0.41421356237309537
10
-4.0575226253030543
20
-71.934293914364645
10
-4.0575226253030001
20
-84.933346186300895
42
-0.41421356237307033
0
LWPOLYLINE
5
127
100
AcDbEntity
8
0
100
AcDbPolyline
90
8
70
1
43
0.0
10
-330.78885000000025
20
-47.33359391436462
10
-343.78885000000031
20
-47.333593914364585
42
-0.41421356237309503
10
-344.28885000000031
20
-46.833593914364613
10
-344.28885000000031
20
-33.834293914364643
42
-0.41421356237309243
10
-343.78885000000031
20
-33.33429391436465
10
-330.78885000000025
20
-33.334293914364672
42
-0.41421356237309503
10
-330.28885000000031
20
-33.834293914364643
10
-330.28885000000031
20
-46.833593914364613
42
-0.41421356237309503
0
LWPOLYLINE
5
128
100
AcDbEntity
8
0
100
AcDbPolyline
90
8
70
1
43
0.0
10
-325.2388500000003
20
-46.833593914364613
10
-325.2388500000003
20
-33.834293914364643
42
-0.41421356237309243
10
-324.7388500000003
20
-33.33429391436465
10
-311.73885000000035
20
-33.334293914364636
42
-0.41421356237309503
10
-311.23885000000035
20
-33.834293914364643
10
-311.23885000000024
20
-46.833593914364613
42
-0.41421356237309503
10
-311.7388500000003
20
-47.333593914364613
10
-324.7388500000003
20
-47.333593914364585
42
-0.41421356237309503
0
LWPOLYLINE
5
129
100
AcDbEntity
8
0
100
AcDbPolyline
90
8
70
1
43
0.0
10
-306.18885000000029
20
-46.833593914364613
10
-306.18885000000029
20
-33.834293914364643
42
-0.41421356237309243
10
-305.68885000000029
20
-33.33429391436465
10
-292.68885000000034
20
-33.334293914364643
42
-0.41421356237309503
10
-292.18885000000034
20
-33.83429391436465
10
-292.18885000000023
20
-46.833593914364613
42
-0.41421356237309503
10
-292.68885000000023
20
-47.333593914364613
10
-305.68885000000023
20
-47.333593914364656
42
-0.41421356237309503
0
LWPOLYLINE
5
130
100
AcDbEntity
8
0
100
AcDbPolyline
90
8
70
1
43
0.0
10
-225.22585000000026
20
-46.83359391436462
10
-225.22585000000032
20
-33.83429391436465
42
-0.41421356237309503
10
-224.72585000000032
20
-33.33429391436465
10
-211.72685000000024
20
-33.334293914364643
42
-0.41421356237309503
10
-211.22685000000021
20
-33.83429391436465
10
-211.2268500000003
20
-46.83359391436462
42
-0.41421356237309503
10
-211.7268500000003
20
-47.33359391436462
10
-224.72585000000024
20
-47.333593914364663
42
-0.41421356237309503
0
LWPOLYLINE
5
131
100
AcDbEntity
8
0
100
AcDbPolyline
90
8
70
1
43
0.0
10
-206.17585000000025
20
-46.83359391436462
10
-206.17585000000031
20
-33.83429391436465
42
-0.41421356237309243
10
-205.67585000000031
20
-33.334293914364657
10
-192.67685000000029
20
-33.33429391436465
42
-0.41421356237309503
10
-192.17685000000029
20
-33.834293914364657
10
-192.17685000000029
20
-46.83359391436462
42
-0.41421356237309503
10
-192.67685000000029
20
-47.33359391436462
10
-205.67585000000022
20
-47.333593914364663
42
-0.41421356237309503
0
LWPOLYLINE
5
132
100
AcDbEntity
8
0
100
AcDbPolyline
90
8
70
1
43
0.0
10
-187.12585000000024
20
-46.83359391436462
10
-187.1258500000003
20
-33.83429391436465
42
-0.41421356237309243
10
-186.6258500000003
20
-33.334293914364657
10
-173.62685000000027
20
-33.33429391436465
42
-0.41421356237309503
10
-173.12685000000027
20
-33.834293914364657
10
-173.12685000000027
20
-46.83359391436462
42
-0.41421356237309503
10
-173.62685000000027
20
-47.33359391436462
10
-186.62585000000021
20
-47.333593914364663
42
-0.41421356237309503
0
LWPOLYLINE
5
133
100
AcDbEntity
8
0
100
AcDbPolyline
90
8
70
1
43
0.0
10
-168.07585000000029
20
-46.83359391436462
10
-168.07585000000029
20
-33.83429391436465
42
-0.41421356237309243
10
-167.57585000000029
20
-33.334293914364657
10
-154.57685000000032
20
-33.33429391436465
42
-0.41421356237309503
10
-154.07685000000032
20
-33.834293914364657
10
-154.07685000000029
20
-46.83359391436462
42
-0.41421356237309503
10
-154.57685000000029
20
-47.33359391436462
10
-167.57585000000029
20
-47.333593914364627
42
-0.41421356237309503
0
LWPOLYLINE
5
134
100
AcDbEntity
8
0
100
AcDbPolyline
90
8
70
1
43
0.0
10
-149.02585000000028
20
-46.83359391436462
10
-149.02585000000028
20
-33.83429391436465
42
-0.41421356237309243
10
-148.52585000000028
20
-33.334293914364657
10
-135.52685000000031
20
-33.33429391436465
42
-0.41421356237309503
10
-135.02685000000031
20
-33.834293914364657
10
-135.02685000000028
20
-46.83359391436462
42
-0.41421356237309503
10
-135.52685000000028
20
-47.33359391436462
10
-148.52585000000028
20
-47.333593914364627
42
-0.41421356237309503
0
LWPOLYLINE
5
135
100
AcDbEntity
8
0
100
AcDbPolyline
90
8
70
1
43
0.0
10
-129.97585000000032
20
-46.83359391436462
10
-129.97585000000029
20
-33.83429391436465
42
-0.41421356237309243
10
-129.47585000000029
20
-33.334293914364657
10
-116.47485000000029
20
-33.33429391436465
42
-0.41421356237309503
10
-115.97485000000027
20
-33.834293914364657
10
-115.97485000000032
20
-46.83359391436462
42
-0.41421356237309503
10
-116.47485000000032
20
-47.33359391436462
10
-129.47585000000032
20
-47.333593914364613
42
-0.41421356237309503
0
LWPOLYLINE
5
136
100
AcDbEntity
8
0
100
AcDbPolyline
90
8
70
1
43
0.0
10
-110.9258500000003
20
-46.83359391436462
10
-110.92585000000028
20
-33.834293914364657
42
-0.41421356237309503
10
-110.42585000000028
20
-33.334293914364665
10
-97.425150000000329
20
-33.33429391436465
42
-0.41421356237309503
10
-96.925150000000315
20
-33.834293914364657
10
-96.925150000000286
20
-46.83359391436462
42
-0.41421356237309503
10
-97.425150000000286
20
-47.33359391436462
10
-110.42585000000031
20
-47.333593914364613
42
-0.41421356237309503
0
LWPOLYLINE
5
137
100
AcDbEntity
8
0
100
AcDbPolyline
90
8
70
1
43
0.0
10
-91.875850000000284
20
-46.83359391436462
10
-91.87585000000027
20
-33.834293914364657
42
-0.41421356237309503
10
-91.37585000000027
20
-33.334293914364665
10
-78.376550000000279
20
-33.334293914364665
42
-0.41421356237309503
10
-77.876550000000279
20
-33.834293914364657
10
-77.876550000000279
20
-46.83359391436462
42
-0.41421356237309503
10
-78.376550000000279
20
-47.33359391436462
10
-91.375850000000298
20
-47.333593914364613
42
-0.41421356237309503
0
LWPOLYLINE
5
138
100
AcDbEntity
8
0
100
AcDbPolyline
90
8
70
1
43
0.0
10
-72.825850000000287
20
-46.833593914364627
10
-72.825850000000301
20
-33.834293914364657
42
-0.41421356237309503
10
-72.325850000000301
20
-33.334293914364665
10
-59.326550000000267
20
-33.334293914364665
42
-0.41421356237309503
10
-58.826550000000275
20
-33.834293914364657
10
-58.826550000000275
20
-46.833593914364627
42
-0.41421356237309503
10
-59.326550000000267
20
-47.333593914364627
10
-72.325850000000301
20
-47.33359391436462
42
-0.41421356237309503
0
LWPOLYLINE
5
139
100
AcDbEntity
8
0
100
AcDbPolyline
90
8
70
1
43
0.0
10
-53.77585000000029
20
-46.833593914364627
10
-53.77585000000029
20
-33.834293914364657
42
-0.41421356237309503
10
-53.27585000000029
20
-33.334293914364665
10
-40.276550000000277
20
-33.334293914364665
42
-0.41421356237309503
10
-39.776550000000277
20
-33.834293914364657
10
-39.776550000000277
20
-46.833593914364627
42
-0.41421356237309503
10
-40.276550000000277
20
-47.333593914364627
10
-53.27585000000029
20
-47.333593914364627
42
-0.41421356237309503
0
LWPOLYLINE
5
140
100
AcDbEntity
8
0
100
AcDbPolyline
90
8
70
1
43
0.0
10
-34.725850000000278
20
-46.833593914364627
10
-34.725850000000278
20
-33.834293914364657
42
-0.41421356237309243
10
-34.225850000000278
20
-33.334293914364665
10
-21.226550000000248
20
-33.334293914364665
42
-0.41421356237309503
10
-20.726550000000252
20
-33.834293914364657
10
-20.726550000000266
20
-46.833593914364627
42
-0.41421356237309503
10
-21.226550000000266
20
-47.333593914364627
10
-34.225850000000278
20
-47.333593914364627
42
-0.41421356237309503
0
LWPOLYLINE
5
141
100
AcDbEntity
8
0
100
AcDbPolyline
90
8
70
1
43
0.0
10
-15.676050000000281
20
-46.833593914364627
10
-15.676050000000261
20
-33.834293914364657
42
-0.41421356237309503
10
-15.176050000000263
20
-33.334293914364665
10
-2.1765000000002921
20
-33.334293914364665
42
-0.41421356237309537
10
-1.6765000000002914
20
-33.834293914364657
10
-1.6765000000002934
20
-46.833593914364627
42
-0.41421356237309503
10
-2.1765000000002916
20
-47.333593914364627
10
-15.176050000000263
20
-47.333593914364648
42
-0.41421356237309503
0
LWPOLYLINE
5
142
100
AcDbEntity
8
0
100
AcDbPolyline
90
8
70
1
43
0.0
10
-306.18885000000029
20
-21.083393914364624
10
-306.18885000000029
20
-8.0843939143646182
42
-0.41421356237309243
10
-305.68885000000029
20
-7.5843939143646217
10
-292.68885000000029
20
-7.5843939143646164
42
-0.41421356237309309
10
-292.18885000000029
20
-8.08439391436462
10
-292.18885000000029
20
-21.083393914364628
42
-0.41421356237309243
10
-292.68885000000029
20
-21.583393914364621
10
-305.68885000000029
20
-21.583393914364631
42
-0.41421356237309503
0
LWPOLYLINE
5
143
100
AcDbEntity
8
0
100
AcDbPolyline
90
8
70
1
43
0.0
10
-244.27585000000028
20
-21.083393914364624
10
-244.27585000000028
20
-8.0843939143646217
42
-0.4142135623730937
10
-243.77585000000028
20
-7.5843939143646253
10
-230.77685000000028
20
-7.5843939143646182
42
-0.41421356237309437
10
-230.27685000000025
20
-8.0843939143646235
10
-230.27685000000025
20
-21.083393914364628
42
-0.41421356237309243
10
-230.77685000000028
20
-21.583393914364621
10
-243.77585000000028
20
-21.583393914364631
42
-0.41421356237309503
0
LWPOLYLINE
5
144
100
AcDbEntity
8
0
100
AcDbPolyline
90
8
70
1
43
0.0
10
-225.22585000000026
20
-21.083393914364624
10
-225.22585000000026
20
-8.0843939143646217
42
-0.41421356237309309
10
-224.72585000000026
20
-7.5843939143646271
10
-211.72685000000027
20
-7.58439391436462
42
-0.41421356237309437
10
-211.22685000000024
20
-8.0843939143646253
10
-211.22685000000024
20
-21.083393914364628
42
-0.41421356237309503
10
-211.72685000000027
20
-21.583393914364628
10
-224.72585000000026
20
-21.583393914364631
42
-0.41421356237309503
0
LWPOLYLINE
5
145
100
AcDbEntity
8
0
100
AcDbPolyline
90
8
70
1
43
0.0
10
-196.65085000000028
20
-21.083393914364624
10
-196.65085000000028
20
-8.0843939143646217
42
-0.41421356237309243
10
-196.15085000000025
20
-7.584393914364628
10
-183.15185000000028
20
-7.5843939143646208
42
-0.41421356237309503
10
-182.65185000000028
20
-8.0843939143646288
10
-182.65185000000028
20
-21.083393914364631
42
-0.41421356237309243
10
-183.15185000000028
20
-21.583393914364628
10
-196.15085000000025
20
-21.583393914364631
42
-0.41421356237309503
0
LWPOLYLINE
5
146
100
AcDbEntity
8
0
100
AcDbPolyline
90
8
70
1
43
0.0
10
-177.60085000000029
20
-21.083393914364624
10
-177.60085000000029
20
-8.0843939143646253
42
-0.41421356237309309
10
-177.10085000000026
20
-7.584393914364628
10
-164.10185000000027
20
-7.5843939143646208
42
-0.41421356237309503
10
-163.60185000000027
20
-8.0843939143646288
10
-163.60185000000027
20
-21.083393914364628
42
-0.41421356237309503
10
-164.10185000000027
20
-21.583393914364628
10
-177.10085000000026
20
-21.583393914364631
42
-0.41421356237309503
0
LWPOLYLINE
5
147
100
AcDbEntity
8
0
100
AcDbPolyline
90
8
70
1
43
0.0
10
-110.9258500000003
20
-21.083393914364631
10
-110.9258500000003
20
-8.0843939143646288
42
-0.4142135623730937
10
-110.4258500000003
20
-7.5843939143646306
10
-97.425150000000315
20
-7.5843939143646244
42
-0.41421356237309309
10
-96.925150000000301
20
-8.0843939143646288
10
-96.925150000000315
20
-21.083393914364631
42
-0.41421356237309503
10
-97.425150000000315
20
-21.583393914364631
10
-110.4258500000003
20
-21.583393914364638
42
-0.41421356237309503
0
LWPOLYLINE
5
148
100
AcDbEntity
8
0
100
AcDbPolyline
90
8
70
1
43
0.0
10
-53.775850000000283
20
-21.083393914364631
10
-53.775850000000283
20
-8.0843939143646324
42
-0.4142135623730937
10
-53.275850000000283
20
-7.5843939143646333
10
-40.276550000000285
20
-7.5843939143646368
42
-0.4142135623730937
10
-39.776550000000285
20
-8.0843939143646324
10
-39.776550000000285
20
-21.083393914364635
42
-0.41421356237309503
10
-40.276550000000285
20
-21.583393914364635
10
-53.275850000000283
20
-21.583393914364631
42
-0.41421356237309503
0
LWPOLYLINE
5
149
100
AcDbEntity
8
0
100
AcDbPolyline
90
8
70
1
43
0.0
10
-15.676050000000281
20
-21.083393914364635
10
-15.676050000000279
20
-8.0843939143646342
42
-0.41421356237309437
10
-15.176050000000281
20
-7.5843939143646359
10
-2.176500000000281
20
-7.5843939143646359
42
-0.41421356237309404
10
-1.6765000000002803
20
-8.0843939143646342
10
-1.6765000000002823
20
-21.083393914364635
42
-0.41421356237309503
10
-2.1765000000002805
20
-21.583393914364635
10
-15.176050000000281
20
-21.583393914364635
42
-0.41421356237309503
0
CIRCLE
5
150
100
AcDbEntity
8
0
100
AcDbCircle
10
-118.2142066697603
20
-14.581592829283379
30
-1.3877787807814457e-15
40
1.1000000000000005
210
1.5063912175064729e-32
220
-9.7144514654701222e-17
230
1
0
CIRCLE
5
151
100
AcDbEntity
8
0
100
AcDbCircle
10
-8.5974751102895457
20
-27.44043995294458
30
-2.2204460492503131e-15
40
1.1000000000000005
210
1.5063912175064729e-32
220
-9.7144514654701222e-17
230
1
0
LWPOLYLINE
5
152
100
AcDbEntity
8
0
100
AcDbPolyline
90
8
70
1
43
0.0
10
-19.938550000000284
20
-52.384293914364633
10
-6.939010000000283
20
-52.384293914364633
42
-0.41421356237309631
10
-6.4390100000002803
20
-52.884293914364633
10
-6.4390100000002839
20
-65.883593914364639
42
-0.41421356237308982
10
-6.9390100000002821
20
-66.383593914364639
10
-19.938550000000284
20
-66.383593914364639
42
-0.41421356237309503
10
-20.438550000000284
20
-65.883593914364639
10
-20.438550000000291
20
-52.884293914364648
42
-0.41421356237309503
0
LWPOLYLINE
5
153
100
AcDbEntity
8
0
100
AcDbPolyline
90
8
70
1
43
0.0
10
-62.800850000000288
20
-52.384293914364633
10
-49.80155000000029
20
-52.384293914364648
42
-0.41421356237309503
10
-49.30155000000029
20
-52.884293914364648
10
-49.30155000000029
20
-65.883593914364639
42
-0.41421356237308982
10
-49.80155000000029
20
-66.383593914364639
10
-62.800850000000281
20
-66.383593914364639
42
-0.41421356237309503
10
-63.300850000000281
20
-65.883593914364639
10
-63.300850000000295
20
-52.884293914364648
42
-0.41421356237309503
0
LWPOLYLINE
5
154
100
AcDbEntity
8
0
100
AcDbPolyline
90
8
70
1
43
0.0
10
-81.850850000000278
20
-52.384293914364633
10
-68.851550000000287
20
-52.384293914364648
42
-0.41421356237309503
10
-68.351550000000302
20
-52.884293914364648
10
-68.351550000000302
20
-65.883593914364639
42
-0.41421356237308982
10
-68.851550000000287
20
-66.383593914364639
10
-81.850850000000278
20
-66.383593914364639
42
-0.41421356237309503
10
-82.350850000000278
20
-65.883593914364639
10
-82.350850000000278
20
-52.884293914364648
42
-0.41421356237309503
0
LWPOLYLINE
5
155
100
AcDbEntity
8
0
100
AcDbPolyline
90
8
70
1
43
0.0
10
-100.90085000000029
20
-52.384293914364626
10
-87.901550000000299
20
-52.384293914364633
42
-0.41421356237309503
10
-87.401550000000299
20
-52.884293914364648
10
-87.401550000000299
20
-65.883593914364639
42
-0.41421356237308982
10
-87.901550000000285
20
-66.383593914364639
10
-100.90085000000029
20
-66.383593914364639
42
-0.41421356237309503
10
-101.40085000000029
20
-65.883593914364639
10
-101.4008500000003
20
-52.884293914364648
42
-0.41421356237309503
0
LWPOLYLINE
5
156
100
AcDbEntity
8
0
100
AcDbPolyline
90
8
70
1
43
0.0
10
-119.9508500000003
20
-52.384293914364626
10
-106.95185000000029
20
-52.384293914364633
42
-0.41421356237309503
10
-106.45185000000028
20
-52.884293914364648
10
-106.45185000000029
20
-65.883593914364639
42
-0.41421356237308982
10
-106.95185000000029
20
-66.383593914364639
10
-119.9508500000003
20
-66.383593914364639
42
-0.41421356237309503
10
-120.4508500000003
20
-65.883593914364639
10
-120.4508500000003
20
-52.884293914364626
42
-0.41421356237308982
0
LWPOLYLINE
5
157
100
AcDbEntity
8
0
100
AcDbPolyline
90
8
70
1
43
0.0
10
-139.00085000000027
20
-52.384293914364626
10
-126.0018500000003
20
-52.384293914364626
42
-0.41421356237309503
10
-125.50185000000029
20
-52.884293914364633
10
-125.5018500000003
20
-65.883593914364639
42
-0.41421356237308982
10
-126.0018500000003
20
-66.383593914364639
10
-139.00085000000027
20
-66.383593914364639
42
-0.41421356237309503
10
-139.50085000000027
20
-65.883593914364639
10
-139.50085000000027
20
-52.884293914364626
42
-0.41421356237308982
0
LWPOLYLINE
5
158
100
AcDbEntity
8
0
100
AcDbPolyline
90
8
70
1
43
0.0
10
-158.05085000000028
20
-52.384293914364626
10
-145.05185000000031
20
-52.384293914364626
42
-0.41421356237309503
10
-144.55185000000031
20
-52.884293914364633
10
-144.55185000000031
20
-65.883593914364639
42
-0.41421356237308982
10
-145.05185000000031
20
-66.383593914364639
10
-158.05085000000028
20
-66.383593914364639
42
-0.41421356237309503
10
-158.55085000000028
20
-65.883593914364639
10
-158.55085000000028
20
-52.884293914364626
42
-0.41421356237308982
0
LWPOLYLINE
5
159
100
AcDbEntity
8
0
100
AcDbPolyline
90
8
70
1
43
0.0
10
-177.10085000000026
20
-52.384293914364626
10
-164.10185000000027
20
-52.384293914364626
42
-0.41421356237309503
10
-163.60185000000027
20
-52.884293914364633
10
-163.60185000000027
20
-65.883593914364639
42
-0.41421356237308982
10
-164.10185000000027
20
-66.383593914364639
10
-177.10085000000026
20
-66.383593914364639
42
-0.41421356237309503
10
-177.60085000000029
20
-65.883593914364639
10
-177.60085000000029
20
-52.884293914364626
42
-0.41421356237308982
0
LWPOLYLINE
5
160
100
AcDbEntity
8
0
100
AcDbPolyline
90
8
70
1
43
0.0
10
-196.15085000000025
20
-52.384293914364626
10
-183.15185000000028
20
-52.384293914364626
42
-0.41421356237309503
10
-182.65185000000028
20
-52.884293914364633
10
-182.65185000000028
20
-65.883593914364624
42
-0.41421356237309503
10
-183.15185000000028
20
-66.383593914364624
10
-196.15085000000022
20
-66.383593914364639
42
-0.41421356237309503
10
-196.65085000000022
20
-65.883593914364624
10
-196.65085000000028
20
-52.884293914364626
42
-0.41421356237308982
0
LWPOLYLINE
5
161
100
AcDbEntity
8
0
100
AcDbPolyline
90
8
70
1
43
0.0
10
-215.20085000000026
20
-52.384293914364626
10
-202.20185000000029
20
-52.384293914364626
42
-0.41421356237309503
10
-201.70185000000029
20
-52.884293914364633
10
-201.70185000000029
20
-65.883593914364624
42
-0.41421356237309503
10
-202.20185000000029
20
-66.383593914364624
10
-215.20085000000026
20
-66.383593914364639
42
-0.41421356237309503
10
-215.70085000000029
20
-65.883593914364624
10
-215.70085000000029
20
-52.884293914364626
42
-0.41421356237308982
0
LWPOLYLINE
5
162
100
AcDbEntity
8
0
100
AcDbPolyline
90
8
70
1
43
0.0
10
-234.25085000000027
20
-52.384293913007404
10
-221.25185000000027
20
-52.384293914364626
42
-0.41421356237309503
10
-220.75185000000027
20
-52.884293914364633
10
-220.75185000000027
20
-65.883593914364624
42
-0.41421356237309503
10
-221.25185000000027
20
-66.383593914364624
10
-234.25085000000027
20
-66.383593914364639
42
-0.41421356237309503
10
-234.7508500000003
20
-65.883593914364624
10
-234.75085000135749
20
-52.884293914364626
42
-0.41421356237308982
0
LWPOLYLINE
5
163
100
AcDbEntity
8
0
100
AcDbPolyline
90
8
70
1
43
0.0
10
-330.28885000000031
20
-52.884293914364626
10
-330.28885000000031
20
-65.883593914364624
42
-0.41421356237308982
10
-330.78885000000025
20
-66.38359391436461
10
-343.78885000000031
20
-66.383593914364582
42
-0.41421356237309503
10
-344.28885000000031
20
-65.88359391436461
10
-344.28885000000031
20
-52.884293914364626
42
-0.41421356237309503
10
-343.78885000000031
20
-52.384293914364626
10
-330.78885000000025
20
-52.384293914364655
42
-0.41421356237309503
0
LWPOLYLINE
5
164
100
AcDbEntity
8
0
100
AcDbPolyline
90
8
70
1
43
0.0
10
-311.2388500000003
20
-52.884293914364626
10
-311.2388500000003
20
-65.883593914364624
42
-0.41421356237308982
10
-311.7388500000003
20
-66.38359391436461
10
-324.7388500000003
20
-66.383593914364582
42
-0.41421356237309503
10
-325.2388500000003
20
-65.88359391436461
10
-325.2388500000003
20
-52.884293914364626
42
-0.41421356237309503
10
-324.7388500000003
20
-52.384293914364626
10
-311.7388500000003
20
-52.384293914364619
42
-0.41421356237309503
0
LWPOLYLINE
5
165
100
AcDbEntity
8
0
100
AcDbPolyline
90
8
70
1
43
0.0
10
-305.68885000000029
20
-52.384293914364619
10
-292.68885000000029
20
-52.384293914364619
42
-0.41421356237309503
10
-292.18885000000029
20
-52.884293914364626
10
-292.18885000000023
20
-65.883593914364624
42
-0.41421356237308982
10
-292.68885000000023
20
-66.38359391436461
10
-305.68885000000029
20
-66.383593914364624
42
-0.41421356237309503
10
-306.18885000000029
20
-65.88359391436461
10
-306.18885000000029
20
-52.884293914364626
42
-0.41421356237309503
0
CIRCLE
5
166
100
AcDbEntity
8
0
100
AcDbCircle
10
-296.29008669275856
20
-74.424893048826647
30
-6.9388939039072284e-15
40
1.1000000000000005
210
1.5063912175064729e-32
220
-9.7144514654701222e-17
230
1
0
LWPOLYLINE
5
167
100
AcDbEntity
8
0
100
AcDbPolyline
90
8
70
1
43
0.0
10
-77.588350000000275
20
-103.98379391436463
10
-77.588350000000275
20
-90.984393913007409
42
-0.41421356237309503
10
-77.088350000000275
20
-90.484393913007395
10
-64.089050000000299
20
-90.484393913007395
42
-0.41421356237309503
10
-63.589050000000292
20
-90.984393913007409
10
-63.589050000000285
20
-103.98379391436463
42
-0.41421356237309503
10
-64.089050000000299
20
-104.48379391436463
10
-77.088350000000275
20
-104.48379391436461
42
-0.41421356237309503
0
LWPOLYLINE
5
168
100
AcDbEntity
8
0
100
AcDbPolyline
90
8
70
1
43
0.0
10
-96.638350000000287
20
-103.98379391436463
10
-96.638350000000287
20
-90.984393913007409
42
-0.41421356237309503
10
-96.138350000000287
20
-90.484393913007395
10
-83.13905000000031
20
-90.484393913007395
42
-0.41421356237309503
10
-82.639050000000296
20
-90.984393913007409
10
-82.639050000000296
20
-103.98379391436463
42
-0.41421356237309503
10
-83.13905000000031
20
-104.48379391436463
10
-96.138350000000287
20
-104.48379391436463
42
-0.41421356237309503
0
LWPOLYLINE
5
169
100
AcDbEntity
8
0
100
AcDbPolyline
90
8
70
1
43
0.0
10
-115.6888500000003
20
-103.98379391436463
10
-115.6888500000003
20
-90.984393913007409
42
-0.41421356237309503
10
-115.18885000000029
20
-90.484393913007395
10
-102.1888500000003
20
-90.484393913007381
42
-0.41421356237309503
10
-101.6888500000003
20
-90.984393913007381
10
-101.6888500000003
20
-103.98379391436463
42
-0.41421356237309503
10
-102.1888500000003
20
-104.48379391436463
10
-115.18885000000029
20
-104.48379391436463
42
-0.41421356237309503
0
LWPOLYLINE
5
170
100
AcDbEntity
8
0
100
AcDbPolyline
90
8
70
1
43
0.0
10
-134.73885000000027
20
-103.98379391436463
10
-134.73885000000027
20
-90.984393913007409
42
-0.41421356237309503
10
-134.23885000000024
20
-90.484393913007395
10
-121.2388500000003
20
-90.484393913007381
42
-0.41421356237309503
10
-120.7388500000003
20
-90.984393913007381
10
-120.7388500000003
20
-103.98379391436463
42
-0.41421356237309503
10
-121.2388500000003
20
-104.48379391436463
10
-134.23885000000027
20
-104.48379391436463
42
-0.41421356237309503
0
LWPOLYLINE
5
171
100
AcDbEntity
8
0
100
AcDbPolyline
90
8
70
1
43
0.0
10
-215.98885000000027
20
-90.984393913007381
10
-215.98885000000027
20
-103.98379391436463
42
-0.41421356237309503
10
-216.4888500000003
20
-104.48379391436463
10
-229.48885000000024
20
-104.48379391436463
42
-0.41421356237309503
10
-229.98885000000027
20
-103.98379391436463
10
-229.98885000000027
20
-90.984393913007381
42
-0.41421356237309503
10
-229.48885000000024
20
-90.484393913007381
10
-216.4888500000003
20
-90.484393913007381
42
-0.41421356237309503
0
LWPOLYLINE
5
172
100
AcDbEntity
8
0
100
AcDbPolyline
90
8
70
1
43
0.0
10
-45.03905000000028
20
-104.48379391300742
10
-58.038350000000285
20
-104.48379391436461
42
-0.41421356237309503
10
-58.538350000000285
20
-103.98379391436463
10
-58.538350000000307
20
-90.984393913007409
42
-0.41421356237309503
10
-58.038350000000293
20
-90.484393913007395
10
-45.03905000000028
20
-90.484393913007395
42
-0.41421356237309503
10
-44.53905000000028
20
-90.984393913007409
10
-44.539050001357481
20
-103.98379391436463
42
-0.41421356237309503
0
LWPOLYLINE
5
173
100
AcDbEntity
8
0
100
AcDbPolyline
90
8
70
1
43
0.0
10
-153.28885000000025
20
-90.484393913007452
10
-140.28885000000028
20
-90.484393913007381
42
-0.41421356237309503
10
-139.78885000000028
20
-90.984393913007381
10
-139.78885000000028
20
-103.98379391436463
42
-0.41421356237309503
10
-140.28885000000028
20
-104.48379391436463
10
-153.28885000000028
20
-104.48379391436463
42
-0.41421356237309503
10
-153.78885000000028
20
-103.98379391436463
10
-153.7888500000002
20
-90.984393913007381
42
-0.41421356237309503
0
LWPOLYLINE
5
174
100
AcDbEntity
8
0
100
AcDbPolyline
90
8
70
1
43
0.0
10
-172.33885000000029
20
-90.484393913007452
10
-159.33885000000029
20
-90.484393913007381
42
-0.41421356237309503
10
-158.83885000000029
20
-90.984393913007381
10
-158.83885000000029
20
-103.98379391436463
42
-0.41421356237309503
10
-159.33885000000029
20
-104.48379391436463
10
-172.33885000000029
20
-104.48379391436463
42
-0.41421356237309503
10
-172.83885000000029
20
-103.98379391436463
10
-172.83885000000024
20
-90.984393913007381
42
-0.41421356237309503
0
LWPOLYLINE
5
175
100
AcDbEntity
8
0
100
AcDbPolyline
90
8
70
1
43
0.0
10
-191.38885000000028
20
-90.484393913007452
10
-178.38885000000028
20
-90.484393913007381
42
-0.41421356237309503
10
-177.88885000000025
20
-90.984393913007381
10
-177.88885000000025
20
-103.98379391436463
42
-0.41421356237309503
10
-178.38885000000028
20
-104.48379391436463
10
-191.38885000000028
20
-104.48379391436463
42
-0.41421356237309503
10
-191.88885000000028
20
-103.98379391436463
10
-191.88885000000022
20
-90.984393913007381
42
-0.41421356237309503
0
LWPOLYLINE
5
176
100
AcDbEntity
8
0
100
AcDbPolyline
90
8
70
1
43
0.0
10
-210.43885000000029
20
-90.484393913007452
10
-197.43885000000031
20
-90.484393913007381
42
-0.41421356237309503
10
-196.93885000000029
20
-90.984393913007381
10
-196.93885000000029
20
-103.98379391436463
42
-0.41421356237309503
10
-197.43885000000031
20
-104.48379391436463
10
-210.43885000000029
20
-104.48379391436463
42
-0.41421356237309503
10
-210.93885000000029
20
-103.98379391436463
10
-210.93885000000023
20
-90.984393913007381
42
-0.41421356237309503
0
LWPOLYLINE
5
177
100
AcDbEntity
8
0
100
AcDbPolyline
90
8
70
1
43
0.0
10
-48.513350000000308
20
-71.43429391436463
10
-35.514050000000296
20
-71.434293914364645
42
-0.41421356237309503
10
-35.014050000000296
20
-71.934293914364645
10
-35.014050000000282
20
-84.93359391436465
42
-0.41421356237309503
10
-35.514050000000296
20
-85.433593914364664
10
-48.513350000000287
20
-85.43359391436465
42
-0.41421356237309503
10
-49.013350000000287
20
-84.933593914364636
10
-49.013350000000322
20
-71.934293914364659
42
-0.41421356237310025
0
CIRCLE
5
178
100
AcDbEntity
8
0
100
AcDbCircle
10
-24.164059049437668
20
-116.53357216052723
30
-1.0269562977782698e-14
40
1.1000000000000005
210
1.5063912175064729e-32
220
-9.7144514654701222e-17
230
1
0
LWPOLYLINE
5
179
100
AcDbEntity
8
0
100
AcDbPolyline
90
8
70
1
43
0.0
10
-324.7388500000003
20
-109.53429391436461
10
-311.73885000000035
20
-109.53429391436461
42
-0.41421356237311585
10
-311.23885000000035
20
-110.03429391436467
10
-311.23885000000024
20
-123.0337539143646
42
-0.41421356237310542
10
-311.7388500000003
20
-123.53375391436461
10
-324.7388500000003
20
-123.53375391436458
42
-0.41421356237309503
10
-325.2388500000003
20
-123.03375391436461
10
-325.23885000000035
20
-110.03429391436462
42
-0.41421356237309503
0
LWPOLYLINE
5
180
100
AcDbEntity
8
0
100
AcDbPolyline
90
8
70
1
43
0.0
10
-343.78885000000031
20
-109.53429391436461
10
-330.78885000000025
20
-109.53429391436465
42
-0.41421356237309503
10
-330.28885000000031
20
-110.03429391436462
10
-330.28885000000031
20
-123.03375391436461
42
-0.41421356237309503
10
-330.78885000000025
20
-123.53375391436461
10
-343.78885000000025
20
-123.53375391436458
42
-0.41421356237309503
10
-344.28885000000025
20
-123.03375391436461
10
-344.28885000000037
20
-110.03429391436464
42
-0.41421356237310542
0
LWPOLYLINE
5
181
100
AcDbEntity
8
0
100
AcDbPolyline
90
8
70
1
43
0.0
10
-239.80127293316428
20
-110.03429391300726
10
-239.80127293316428
20
-123.03334307938002
42
-0.41421357586497687
10
-240.30127295619639
20
-123.53334307938
10
-255.68185002303238
20
-123.53334237088649
42
-0.41421354888120288
10
-256.18185000000028
20
-123.03334237088649
10
-256.18185000000028
20
-110.03429391300726
42
-0.41421356237309503
10
-255.68185000000028
20
-109.53429391300725
10
-240.30127293316428
20
-109.53429391300725
42
-0.41421356237309503
0
CIRCLE
5
182
100
AcDbEntity
8
0
100
AcDbCircle
10
-170.74414070690631
20
-115.07161828625242
30
-9.1593399531575415e-15
40
1.1000000000000005
210
1.5063912175064729e-32
220
-9.7144514654701222e-17
230
1
0
LWPOLYLINE
5
183
100
AcDbEntity
8
0
100
AcDbPolyline
90
8
70
1
43
0.0
10
-67.563772933164486
20
-109.53429391300743
10
-52.182850000000286
20
-109.53429391300737
42
-0.41421356237309503
10
-51.682850000000286
20
-110.03429391300739
10
-51.682850000000293
20
-123.03334276134325
42
-0.41421356237309503
10
-52.1828500000003
20
-123.53334276134326
10
-67.563772933164501
20
-123.53334276134322
42
-0.41421356237309503
10
-68.063772933164501
20
-123.03334276134323
10
-68.063772933164429
20
-110.03429391300739
42
-0.41421356237310025
0
LWPOLYLINE
5
184
100
AcDbEntity
8
0
100
AcDbPolyline
90
8
70
1
43
0.0
10
-4.0577600000002771
20
-110.0342939130074
10
-4.0577600000002629
20
-123.03334276134325
42
-0.41421356237309437
10
-4.5577600000002692
20
-123.53334276134326
10
-19.938772933164461
20
-123.53334276134326
42
-0.41421356237310542
10
-20.438772933164479
20
-123.03334276134325
10
-20.43877293316449
20
-110.0342939130074
42
-0.41421356237309503
10
-19.938772933164483
20
-109.53429391300739
10
-4.5577600000002843
20
-109.53429391300739
42
-0.41421356237309537
0
LWPOLYLINE
5
185
100
AcDbEntity
8
0
100
AcDbPolyline
90
8
70
1
43
0.0
10
-253.30085000000028
20
-52.384293913007397
10
-240.30185000000029
20
-52.384293914364626
42
-0.41421356237309503
10
-239.80185000000029
20
-52.884293914364633
10
-239.80185000000029
20
-65.883593913007388
42
-0.41421356237308982
10
-240.30185000000029
20
-66.383593913007374
10
-253.30085000000028
20
-66.383593913007374
42
-0.41421356237309503
10
-253.80085000000031
20
-65.883593913007374
10
-253.8008500013575
20
-52.884293914364619
42
-0.41421356237308982
0
LWPOLYLINE
5
186
100
AcDbEntity
8
0
100
AcDbPolyline
90
8
70
1
43
0.0
10
-264.11377295619741
20
-123.53334198247695
10
-279.49485002303237
20
-123.53334127396039
42
-0.41421354888120288
10
-279.99485000000027
20
-123.03334127396039
10
-279.99485000000027
20
-110.03429391300726
42
-0.41421356237310542
10
-279.49485000000027
20
-109.53429391300723
10
-264.11377293316531
20
-109.53429391300723
42
-0.41421356237309503
10
-263.61377293316531
20
-110.03429391300725
10
-263.61377293316525
20
-123.03334198247691
42
-0.4142135758649873
0
LWPOLYLINE
5
187
100
AcDbEntity
8
0
100
AcDbPolyline
90
8
70
1
43
0.0
10
-230.77685000000031
20
-47.333593914364627
10
-243.77585000000025
20
-47.33359391436462
42
-0.41421356237309503
10
-244.27585000000025
20
-46.833593914364613
10
-244.27585000000033
20
-33.83429391436465
42
-0.41421356237309503
10
-243.77585000000033
20
-33.33429391436465
10
-230.77685000000025
20
-33.334293914364643
42
-0.41421356237309503
10
-230.27685000000022
20
-33.83429391436465
10
-230.27685000000031
20
-46.83359391436462
42
-0.41421356237309503
0
LWPOLYLINE
5
188
100
AcDbEntity
8
0
100
AcDbPolyline
90
48
70
1
43
0.0
10
-263.61400740722331
20
-70.933359405214944
42
0.41421356239453067
10
-263.114007375124
20
-71.433359373152243
10
-256.03225737380467
20
-71.433358918513946
42
0.41421356237308982
10
-255.53225740590398
20
-70.933358886414737
10
-255.53225753301723
20
-68.953358885057398
42
-0.41421356237310542
10
-255.03225756511654
20
-68.453358852958075
10
-248.03225756511662
20
-68.453358403567734
42
-0.41421356237309503
10
-247.53225753301732
20
-68.95335837146844
10
-247.53225740590409
20
-70.933358372826206
42
0.41421356237308982
10
-247.03225737380475
20
-71.433358340726897
10
-245.01400737380575
20
-71.433358211158108
42
-0.41421356237308982
10
-244.51400734170645
20
-71.933358179058814
10
-244.51400651996408
20
-84.733358187510646
42
-0.41421356237309503
10
-245.01400648786478
20
-85.233358219609954
10
-247.03225648786386
20
-85.2333583491788
42
0.41421356237306384
10
-247.53225645576458
20
-85.733358381278109
10
-247.53225639798583
20
-86.633358372825612
42
-0.41421356237309503
10
-248.03225636588652
20
-87.13335840492492
10
-254.97025636588731
20
-87.133358850335043
42
-0.4142135623730846
10
-255.47025639798662
20
-86.633358882434365
10
-255.47025644292572
20
-85.933358881077012
42
0.41421356237309503
10
-255.97025647502502
20
-85.433358913176335
10
-270.970256475025
20
-85.433359876155663
42
0.41421356237303258
10
-271.47025644292574
20
-85.933359908254999
10
-271.47025639798665
20
-86.633359909612466
42
-0.41421356237312623
10
-271.97025636588734
20
-87.133359941711831
10
-279.49485636588639
20
-87.133360424780875
42
-0.41421356237309503
10
-279.9948563979857
20
-86.633360456880155
10
-279.99485649344899
20
-85.146360465331966
42
0.4142135623730534
10
-280.49485652554824
20
-84.646360497431218
10
-282.74485652554824
20
-84.646360641878175
42
-0.41421356237309503
10
-283.24485655764755
20
-84.146360673977483
10
-283.24485698135845
20
-77.546360673977432
42
-0.41421356237310025
10
-282.74485701345776
20
-77.046360641878124
10
-280.54485701345783
20
-77.046360500641157
42
0.41421356237308982
10
-280.04485704555714
20
-76.546360468541863
10
-280.0448579451724
20
-62.53336045873251
42
-0.41421356237310542
10
-279.5448579772717
20
-62.033360426633195
10
-278.24485797727181
20
-62.033360343174984
42
0.41421356237297535
10
-277.74485800937106
20
-61.533360311075853
10
-277.74485803505041
20
-61.133360310205774
42
0.41421356237320428
10
-278.24485806714966
20
-60.633360342304883
10
-282.74485806714978
20
-60.633360631198777
42
-0.41421356237309503
10
-283.24485809924909
20
-60.13336066329807
10
-283.24485856468903
20
-52.883360663294425
42
-0.4142135623945567
10
-282.74485859675173
20
-52.383360631195117
10
-264.11400859674814
20
-52.383359436484767
42
-0.41421356237310025
10
-263.61400856468543
20
-52.883359404422109
0
LWPOLYLINE
5
189
100
AcDbEntity
8
0
100
AcDbPolyline
90
8
70
1
43
0.0
10
-324.7388500000003
20
-90.484393275165672
10
-311.7388500000003
20
-90.484393914364617
42
-0.41421356237309503
10
-311.2388500000003
20
-90.984393914364631
10
-311.2388500000003
20
-103.98379391436461
42
-0.41421356237311585
10
-311.73885000000035
20
-104.48379391436461
10
-324.7388500000003
20
-104.48379391436458
42
-0.41421356237309503
10
-325.2388500000003
20
-103.98379391436461
10
-325.23885063919926
20
-90.984393914364631
42
-0.41421356237309503
0
LWPOLYLINE
5
190
100
AcDbEntity
8
0
100
AcDbPolyline
90
8
70
1
43
0.0
10
-72.825850000000287
20
-21.083393914364631
42
0.41421356237309503
10
-72.325850000000287
20
-21.583393914364631
10
-59.326550000000289
20
-21.583393914364631
42
0.41421356237309243
10
-58.826550000000282
20
-21.083393914364635
10
-58.826550000000289
20
-8.0843939143646342
42
0.41421356237309503
10
-59.326550000000289
20
-7.5843939143646359
10
-72.325850000000287
20
-7.5843939143646333
42
0.4142135623730937
10
-72.825850000000287
20
-8.0843939143646324
0
CIRCLE
5
191
100
AcDbEntity
8
0
100
AcDbCircle
10
-337.28987912657078
20
-27.458669721783295
30
-1.9428902930940239e-15
40
1.1000000000000005
210
1.5063912175064729e-32
220
-9.7144514654701222e-17
230
1
0
LWPOLYLINE
5
192
100
AcDbEntity
8
0
100
AcDbPolyline
90
8
70
1
43
0.0
10
-324.7388500000003
20
-7.5843939143646182
10
-311.7388500000003
20
-7.5843939143646155
42
-0.41421356237309503
10
-311.2388500000003
20
-8.0843939143646217
10
-311.2388500000003
20
-21.083393914364624
42
-0.41421356237309243
10
-311.7388500000003
20
-21.583393914364617
10
-324.7388500000003
20
-21.583393914364592
42
-0.41421356237309503
10
-325.2388500000003
20
-21.083393914364621
10
-325.2388500000003
20
-8.0843939143646182
42
-0.41421356237309309
0
LWPOLYLINE
5
193
100
AcDbEntity
8
0
100
AcDbPolyline
90
8
70
1
43
0.0
10
-292.68885000000023
20
-123.53375391436461
10
-305.68885000000023
20
-123.53375391436461
42
-0.41421356237309503
10
-306.18885000000023
20
-123.03375391436461
10
-306.18885000000029
20
-110.03429391436464
42
-0.41421356237310542
10
-305.68885000000029
20
-109.53429391436461
10
-292.68885000000034
20
-109.53429391436461
42
-0.41421356237309503
10
-292.18885000000034
20
-110.03429391436462
10
-292.18885000000023
20
-123.0337539143646
42
-0.41421356237310542
0
LWPOLYLINE
5
194
100
AcDbEntity
8
0
100
AcDbPolyline
90
8
70
1
43
0.0
10
-216.48877293316428
20
-123.53334276134325
10
-231.86985000000024
20
-123.53334276134325
42
-0.41421356237309503
10
-232.36985000000027
20
-123.03334276134323
10
-232.36985000000027
20
-110.03429391300726
42
-0.4142135623730846
10
-231.86985000000024
20
-109.53429391300728
10
-216.48877293316431
20
-109.53429391300728
42
-0.4142135623730846
10
-215.98877293316428
20
-110.03429391300726
10
-215.98877293316428
20
-123.03334276134322
42
-0.41421356237310542
0
CIRCLE
5
195
100
AcDbEntity
8
0
100
AcDbCircle
10
-203.93907371815357
20
-14.582839874523629
30
-1.3877787807814457e-15
40
1.1000000000000005
210
1.5063912175064729e-32
220
-9.7144514654701222e-17
230
1
0
LWPOLYLINE
5
196
100
AcDbEntity
8
0
100
AcDbPolyline
90
96
70
1
43
0.0
10
-126.75237429876232
20
2.5251060847279785
42
0.41421356237309431
10
-124.25237429876232
20
0.025106084727984923
10
-21.222934600000283
20
0.025106084727977707
42
0.41421356237309359
10
-18.722934600000297
20
2.525106084727974
10
-18.72293460000029
20
4.6251059992528187
42
-0.41421356237309587
10
-17.722934600000286
20
5.6251059992528161
10
-13.722934600000283
20
5.6251059992528107
42
-0.4142135623730962
10
-12.722934600000276
20
4.6251059992528081
10
-12.722934600000269
20
2.5251060847279798
42
0.41421356237309537
10
-10.222934600000269
20
0.025106084727977193
10
-1.4729346000002785
20
0.025106084727988531
42
-0.41421356237309365
10
0.52706539999971092
20
-1.9748939152719913
10
0.52706539999973601
20
-123.73170091203369
42
-0.41421356237309548
10
-1.4729346000002774
20
-125.73170091203369
10
-39.009739553020367
20
-125.73170091112631
42
0.41421356237309503
10
-40.009738829703998
20
-126.73170091112631
10
-40.009739553020381
20
-128.9320427613433
42
-0.4142135623730846
10
-41.009739553020367
20
-129.93204276134324
10
-45.009739553020353
20
-129.93204276134327
42
-0.41421356237310281
10
-46.009739553020374
20
-128.93204276134324
10
-46.009739553020381
20
-126.73170091112631
42
0.41421356237310025
10
-47.009739553020381
20
-125.73170091112631
10
-75.081850000000287
20
-125.73170091112631
42
-0.41421356237310025
10
-76.081850000000287
20
-124.7317009111263
10
-76.081850000000287
20
-108.28429391300737
42
0.41421356237309503
10
-77.081850000000287
20
-107.28429391300736
10
-87.876024482165292
20
-107.28429391300733
42
0.41421356237308982
10
-88.876024482165278
20
-108.2842939130073
10
-88.876024483479625
20
-124.73170091244064
42
-0.41421356237310025
10
-89.876024482165292
20
-125.7317009111263
10
-175.08185000000026
20
-125.73170091244063
42
-0.41421356237310025
10
-176.08185000000026
20
-124.73170091244066
10
-176.08185000000026
20
-108.28429391300732
42
0.41421356237309503
10
-177.08185000000029
20
-107.28429391300735
10
-183.08202440573001
20
-107.28429391300733
42
0.41421355883089478
10
-184.08202440573001
20
-108.2842939009135
10
-184.08202458468722
20
-123.08169987490712
42
-0.41421356234998924
10
-185.08202459670227
20
-124.08169986281325
10
-193.50752463738229
20
-124.08169976157787
42
-0.41421356239619561
10
-194.50752462536727
20
-123.08169974948402
10
-194.5075244464098
20
-108.28429392510117
42
0.41421356591530051
10
-195.5075244464098
20
-107.28429391300735
10
-202.05685000000028
20
-107.28429391300733
42
0.41421356237309503
10
-203.05685000000028
20
-108.28429391300732
10
-203.05685000000025
20
-108.53429391436462
42
-0.41421356237308982
10
-204.05685000000028
20
-109.53429391436461
10
-208.05685000000034
20
-109.53429391436461
42
0.41421356237309503
10
-208.55685000000028
20
-110.03429391436462
10
-208.55685000000028
20
-123.03375391436462
42
0.41421356237309503
10
-208.05685000000028
20
-123.53375391436461
10
-203.55685000000028
20
-123.5337539143646
42
-0.41421356237310542
10
-203.05685000000028
20
-124.03375391436462
10
-203.05685000000034
20
-125.2317009111263
42
-0.41421356237310542
10
-203.55685000000028
20
-125.7317009111263
10
-212.49923890916403
20
-125.73170091112631
42
0.41421356237309503
10
-213.49923890916403
20
-126.73170091112631
10
-213.49923890916409
20
-128.93170090976915
42
-0.414213562373069
10
-214.49923890916406
20
-129.93170090976912
10
-218.49923890916409
20
-129.93170090976915
42
-0.41421356237305862
10
-219.49923890916406
20
-128.93170090976915
10
-219.49923890916406
20
-126.73170091112627
42
0.41421356237308982
10
-220.49923890916406
20
-125.7317009111263
10
-299.2442388911312
20
-125.7317009111263
42
0.41421356237309503
10
-300.2442388911312
20
-126.7317009111263
10
-300.2442388911312
20
-128.93170090976903
42
-0.414213562373069
10
-301.2442388911312
20
-129.93170090976903
10
-305.2442388911312
20
-129.93170090976903
42
-0.41421356237305862
10
-306.2442388911312
20
-128.93170090976903
10
-306.2442388911312
20
-126.7317009111263
42
0.41421356237309503
10
-307.2442388911312
20
-125.7317009111263
10
-344.61585000000025
20
-125.73170091112627
42
-0.41421356237310802
10
-346.61585000000031
20
-123.73170091112628
10
-346.61585000000036
20
-1.9748939143646047
42
-0.4142135623731053
10
-344.61585000000025
20
0.025106085635393384
10
-335.8663744641521
20
0.025106084727998801
42
0.41421356237309398
10
-333.3663744641521
20
2.5251060847279891
10
-333.36637446415216
20
4.6251059992535097
42
-0.41421356237307833
10
-332.3663744641521
20
5.625105999253516
10
-328.36637436905733
20
5.6251059992535648
42
-0.41421356237302609
10
-327.36637436905733
20
4.6251059992535017
10
-327.36637436905733
20
2.5251060847279945
42
0.41421356237309459
10
-324.86637436905733
20
0.02510608472799802
10
-265.36937441182914
20
0.025106084727993805
42
0.4142135623730942
10
-262.86937441182909
20
2.525106084727986
10
-262.86937449937977
20
4.6251059992533534
42
-0.4142135623731063
10
-261.86937441182909
20
5.6251060868040312
10
-257.869374411656
20
5.6251059992533623
42
-0.41421356237310658
10
-256.86937441165594
20
4.6251059992533445
10
-256.86937441165594
20
2.5251060847279905
42
0.41421356237309476
10
-254.36937441165597
20
0.02510608472799334
10
-135.25237429876233
20
0.025106084727985478
42
0.41421356237309415
10
-132.75237429876233
20
2.5251060847279772
10
-132.75237438589531
20
4.6251059992530728
42
-0.41421356237309664
10
-131.75237429876233
20
5.6251060863860367
10
-127.75237429876229
20
5.6251059992530177
42
-0.4142135623730952
10
-126.75237429876233
20
4.6251059992530559
0
ENDSEC
0
SECTION
2
OBJECTS
0
DICTIONARY
5
C
100
AcDbDictionary
3
ACAD_GROUP
350
D
3
ACAD_MLINESTYLE
350
17
0
DICTIONARY
5
D
100
AcDbDictionary
0
DICTIONARY
5
1A
330
C
100
AcDbDictionary
0
DICTIONARY
5
17
100
AcDbDictionary
0
ENDSEC
0
EOF
