0
SECTION
2
HEADER
9
$INSUNITS
70
4
9
$ACADVER
1
AC1014
9
$HANDSEED
5
FFFF
0
ENDSEC
0
SECTION
2
TABLES
0
TABLE
2
VPORT
5
8
100
AcDbSymbolTable
0
ENDTAB
0
TABLE
2
LTYPE
5
5
100
AcDbSymbolTable
0
LTYPE
5
14
100
AcDbSymbolTableRecord
100
AcDbLinetypeTableRecord
2
BYBLOCK
70
0
0
LTYPE
5
15
100
AcDbSymbolTableRecord
100
AcDbLinetypeTableRecord
2
BYLAYER
70
0
0
LTYPE
5
16
100
AcDbSymbolTableRecord
100
AcDbLinetypeTableRecord
2
DASHED
70
0
3
Dashed __ __ __ __ __ __ __ __ __ __ __ __ __ _
72
65
73
2
40
0.75
49
0.5
74
0
49
-0.25
74
0
0
ENDTAB
0
TABLE
2
LAYER
5
2
100
AcDbSymbolTable
70
2
0
LAYER
5
50
100
AcDbSymbolTableRecord
100
AcDbLayerTableRecord
2
0
70
0
62
7
6
CONTINUOUS
0
ENDTAB
0
TABLE
2
STYLE
5
3
100
AcDbSymbolTable
70
1
0
STYLE
5
11
100
AcDbSymbolTableRecord
100
AcDbTextStyleTableRecord
2
STANDARD
70
0
0
ENDTAB
0
TABLE
2
VIEW
5
6
100
AcDbSymbolTable
70
0
0
ENDTAB
0
TABLE
2
UCS
5
7
100
AcDbSymbolTable
70
0
0
ENDTAB
0
TABLE
2
APPID
5
9
100
AcDbSymbolTable
70
2
0
APPID
5
12
100
AcDbSymbolTableRecord
100
AcDbRegAppTableRecord
2
ACAD
70
0
0
ENDTAB
0
TABLE
2
DIMSTYLE
5
A
100
AcDbSymbolTable
70
1
0
ENDTAB
0
TABLE
2
BLOCK_RECORD
5
1
100
AcDbSymbolTable
70
1
0
BLOCK_RECORD
5
1F
100
AcDbSymbolTableRecord
100
AcDbBlockTableRecord
2
*MODEL_SPACE
0
BLOCK_RECORD
5
1B
100
AcDbSymbolTableRecord
100
AcDbBlockTableRecord
2
*PAPER_SPACE
0
ENDTAB
0
ENDSEC
0
SECTION
2
BLOCKS
0
BLOCK
5
20
100
AcDbEntity
100
AcDbBlockBegin
2
*MODEL_SPACE
0
ENDBLK
5
21
100
AcDbEntity
100
AcDbBlockEnd
0
BLOCK
5
1C
100
AcDbEntity
100
AcDbBlockBegin
2
*PAPER_SPACE
0
ENDBLK
5
1D
100
AcDbEntity
100
AcDbBlockEnd
0
ENDSEC
0
SECTION
2
ENTITIES
0
ARC
5
100
100
AcDbEntity
8
0
100
AcDbCircle
10
25.82021780050939
20
-87.483882392215691
30
-6.66133814775094e-15
40
1.5000000000000009
210
1.2690781564604747e-16
220
-2.7755574657881131e-17
230
1
100
AcDbArc
50
179.99999743867906
51
269.99999744478475
0
LINE
5
101
100
AcDbEntity
8
0
100
AcDbLine
10
25.820217733614012
20
-88.983882392215691
30
-6.7029715012482168e-15
11
27.582774730630813
21
-88.98388244656789
31
-6.8850204077026831e-15
0
ARC
5
102
100
AcDbEntity
8
0
100
AcDbCircle
10
27.582774775894727
20
-90.483882470820319
30
-6.6613381477509392e-15
40
1.5000000000000044
210
1.2690781573714057e-16
220
-2.7755574508200873e-17
230
1
100
AcDbArc
50
73.38067566264634
51
90.000001728954118
0
SPLINE
5
103
100
AcDbEntity
8
0
100
AcDbSpline
70
0
71
3
72
14
73
10
74
0
42
0.000000001
43
0.0000000001
44
0.0000000001
40
0
40
0
40
0
40
0
40
0.058596671008039163
40
0.058596671008039163
40
0.11719334201607901
40
0.11719334201607901
40
0.15216575736061411
40
0.15216575736061411
40
0.18713817270514913
40
0.18713817270514913
40
0.18713817270514913
40
0.18713817270514913
10
29.664888319100747
20
-88.476170523221143
30
-6.6613381477509392e-15
10
29.551996422355806
20
-88.635563734482687
30
-6.6613381477509392e-15
10
29.409050795137226
20
-88.771382761991774
30
-8.8817841970012523e-15
10
29.079144041199491
20
-88.980582757914362
30
-6.6613381477509392e-15
10
28.895337002861044
20
-89.051963660344057
30
-6.6613381477509392e-15
10
28.588242497478799
20
-89.106485903472532
30
-6.6613381477509392e-15
10
28.471477442025865
20
-89.113414447066148
30
-6.6613381477509392e-15
10
28.238708987384786
20
-89.10009131460032
30
-6.6613381477509392e-15
10
28.123497072339461
20
-89.079884941277911
30
-6.6613381477509392e-15
10
28.011792127563329
20
-89.046543223472213
30
-8.8817841970012523e-15
0
ARC
5
104
100
AcDbEntity
8
0
100
AcDbCircle
10
32.521072278794684
20
-90.499092466447578
30
-6.66133814775094e-15
40
3.5000000000000115
210
1.269078154236383e-16
220
-2.7755574257655944e-17
230
1
100
AcDbArc
50
-112.808947430066
51
144.69156995874471
0
SPLINE
5
105
100
AcDbEntity
8
0
100
AcDbSpline
70
0
71
3
72
18
73
14
74
0
42
0.000000001
43
0.0000000001
44
0.0000000001
40
0
40
0
40
0
40
0
40
0.058596671008038219
40
0.058596671008038219
40
0.11719334201607684
40
0.11719334201607684
40
0.17579001302411404
40
0.17579001302411404
40
0.23438668403215307
40
0.23438668403215307
40
0.26525488177014006
40
0.26525488177014006
40
0.29612307950812666
40
0.29612307950812666
40
0.29612307950812666
40
0.29612307950812666
10
29.082774569668608
20
-95.108105525026687
30
-6.6613381477509392e-15
10
29.082774578379382
20
-94.91278328833323
30
-8.8817841970012523e-15
10
29.120925363153813
20
-94.71932844038281
30
-6.6613381477509392e-15
10
29.269233698275844
20
-94.357931508573643
30
-6.6613381477509392e-15
10
29.377973340105392
20
-94.193444576359553
30
-6.6613381477509392e-15
10
29.652382315551719
20
-93.915410731689079
30
-6.6613381477509392e-15
10
29.815428149798787
20
-93.804521974327912
30
-6.6613381477509392e-15
10
30.174847789130609
20
-93.65148398084159
30
-8.8817841970012523e-15
10
30.36778534656451
20
-93.61079787134625
30
-8.8817841970012523e-15
10
30.665975898052075
20
-93.606884518049384
30
-6.6613381477509392e-15
10
30.768727465357173
20
-93.616124126129264
30
-8.8817841970012523e-15
10
30.970714968065742
20
-93.655490907645571
30
-8.8817841970012523e-15
10
31.069415930050326
20
-93.685513816306155
30
-6.6613381477509392e-15
10
31.164263882406406
20
-93.72540165427975
30
-6.6613381477509392e-15
0
LINE
5
106
100
AcDbEntity
8
0
100
AcDbLine
10
29.082774569668608
20
-95.108105525026687
30
-6.6613381477509392e-15
11
29.082774351556964
21
-97.483882513463215
31
-6.7272791756921009e-15
0
ARC
5
107
100
AcDbEntity
8
0
100
AcDbCircle
10
27.582774463716241
20
-97.483882470820248
30
-6.6613381477509392e-15
40
1.4999999999999964
210
1.2690781564610903e-16
220
-2.7755574220976855e-17
230
1
100
AcDbArc
50
269.99999316061445
51
359.99999852122068
0
LINE
5
108
100
AcDbEntity
8
0
100
AcDbLine
10
27.582774284661546
20
-98.983882470820234
30
-6.7029714863589642e-15
11
13.582774284661648
21
-98.98388182221089
31
-4.8846287113760401e-15
0
ARC
5
109
100
AcDbEntity
8
0
100
AcDbCircle
10
13.58277446371628
20
-97.483881846463305
30
-4.4408920985006262e-15
40
1.5000000000000018
210
1.2690781564610866e-16
220
-2.7755574228220779e-17
230
1
100
AcDbArc
50
179.99999658490543
51
269.99999316061673
0
LINE
5
110
100
AcDbEntity
8
0
100
AcDbLine
10
12.082774463716282
20
-97.483881755315508
30
-4.2505303725016041e-15
11
12.082774569654283
21
-95.108426201131778
31
-4.3749599937703224e-15
0
SPLINE
5
111
100
AcDbEntity
8
0
100
AcDbSpline
70
0
71
3
72
18
73
14
74
0
42
0.000000001
43
0.0000000001
44
0.0000000001
40
0
40
0
40
0
40
0
40
0.058596671008038614
40
0.058596671008038614
40
0.11719334201607684
40
0.11719334201607684
40
0.17579001302411565
40
0.17579001302411565
40
0.23438668403215362
40
0.23438668403215362
40
0.26524517426545263
40
0.26524517426545263
40
0.29610366449875375
40
0.29610366449875375
40
0.29610366449875375
40
0.29610366449875375
10
10.001463882427377
20
-93.725647090095308
30
-4.4408920985006262e-15
10
10.18152221293037
20
-93.649951820999974
30
-4.4408920985006262e-15
10
10.374644056921188
20
-93.610149635783444
30
-4.4408920985006262e-15
10
10.765274272861591
20
-93.60681212442023
30
-4.4408920985006262e-15
10
10.959048007036865
20
-93.643308706701234
30
-6.6613381477509392e-15
10
11.321698842893184
20
-93.788523980830576
30
-4.4408920985006262e-15
10
11.48710880492346
20
-93.895854335509782
30
-4.4408920985006262e-15
10
11.767476955650322
20
-94.167877872443185
30
-4.4408920985006262e-15
10
11.879754672013508
20
-94.329970361419981
30
-4.4408920985006262e-15
10
11.998910191901029
20
-94.603311874711068
30
-4.4408920985006262e-15
10
12.030206303584944
20
-94.701582317296186
30
-4.4408920985006262e-15
10
12.072194063044776
20
-94.902975194884945
30
-4.4408920985006262e-15
10
12.082774574241588
20
-95.00556456702077
30
-4.4408920985006262e-15
10
12.082774569654276
20
-95.108426201131778
30
-4.4408920985006262e-15
0
ARC
5
112
100
AcDbEntity
8
0
100
AcDbCircle
10
8.6450722788978887
20
-90.499162653766092
30
-4.4408920985006254e-15
40
3.4999999999999871
210
1.269078157612348e-16
220
-2.7755574570169774e-17
230
1
100
AcDbArc
50
152.7069321618564
51
292.80154583841551
0
LINE
5
113
100
AcDbEntity
8
0
100
AcDbLine
10
5.5347177668634062
20
-88.894265520157006
30
-4.00161895906589e-15
11
7.1532269847599004
21
-85.757530247078506
31
-4.5592316774713232e-15
0
ARC
5
114
100
AcDbEntity
8
0
100
AcDbCircle
10
5.8202179081736549
20
-85.069717189817467
30
-4.4408920985005915e-15
40
1.5000000000000293
210
8.5483618216797981e-17
220
-6.3812978569854231e-18
230
1
100
AcDbArc
50
332.70693216185703
51
359.99999743867909
0
LINE
5
115
100
AcDbEntity
8
0
100
AcDbLine
10
7.3202179081737455
20
-85.069717256712849
30
-4.6312538238264548e-15
11
7.3202182172661541
21
-81.433909968050756
31
-4.3399782185746525e-15
0
ARC
5
116
100
AcDbEntity
8
0
100
AcDbCircle
10
5.8202180703195729
20
-81.433909892009311
30
-4.4408920985006262e-15
40
1.5000001469465838
210
-6.7275914767054196e-17
220
-2.7755564425021856e-17
230
1
100
AcDbArc
50
-2.8316468151294709e-06
51
89.999991831838997
0
LINE
5
117
100
AcDbEntity
8
0
100
AcDbLine
10
5.8202182841615278
20
-79.933909892009339
30
-4.3992587642352994e-15
11
1.6765277115912847
21
-79.933909707213488
31
-3.9150253738393924e-15
0
ARC
5
118
100
AcDbEntity
8
0
100
AcDbCircle
10
1.6765277784866677
20
-78.433909707213488
30
-4.4408920985006262e-15
40
1.4999999999999987
210
1.2690781564615991e-16
220
-2.7755573961837092e-17
230
1
100
AcDbArc
50
180
51
269.99999744478458
0
LINE
5
119
100
AcDbEntity
8
0
100
AcDbLine
10
0.17652777848666923
20
-78.433909707206752
30
-4.2505303750311994e-15
11
0.1765277785180884
21
-71.433909707206737
31
-4.2466030807717523e-15
0
ARC
5
120
100
AcDbEntity
8
0
100
AcDbCircle
10
1.6765277785180885
20
-71.433909707213473
30
-2.2204460492503131e-15
40
1.499999999999996
210
1.2690781564613901e-16
220
-2.7755574244292203e-17
230
1
100
AcDbArc
50
89.999997444784412
51
180
0
LINE
5
121
100
AcDbEntity
8
0
100
AcDbLine
10
1.6765278454134762
20
-69.933909707213473
30
-2.1788126963734225e-15
11
18.057718730151976
21
-69.933910446910261
31
-4.2993472226451363e-15
0
ARC
5
122
100
AcDbEntity
8
0
100
AcDbCircle
10
18.057718516309965
20
-71.43391043776424
30
-6.6613381477509392e-15
40
1.5000000000000011
210
1.2690781564610898e-16
220
-2.7755574190914148e-17
230
1
100
AcDbArc
50
-2.8316468151294709e-06
51
89.999991831836823
0
LINE
5
123
100
AcDbEntity
8
0
100
AcDbLine
10
19.557718516309965
20
-71.433910513805671
30
-6.8516998733306762e-15
11
19.557718484869483
21
-75.4338963012828
31
-4.5519139786874391e-15
0
ARC
5
124
100
AcDbEntity
8
0
100
AcDbCircle
10
21.057718337922907
20
-75.433896359032147
30
-4.4408920985006254e-15
40
1.4999998530534253
210
-7.4014595110580332e-17
220
-2.7755566484128244e-17
230
1
100
AcDbArc
50
179.9999979086902
51
270.00000305773074
0
LINE
5
125
100
AcDbEntity
8
0
100
AcDbLine
10
21.057718417974112
20
-76.933896359032147
30
-4.4825254699890805e-15
11
22.820218417952898
21
-76.933896446780238
31
-4.664567125755846e-15
0
ARC
5
126
100
AcDbEntity
8
0
100
AcDbCircle
10
22.820218204110937
20
-78.433896437634203
30
-6.6613381477509392e-15
40
1.5000000000000011
210
1.2690781564610898e-16
220
-2.7755574190914148e-17
230
1
100
AcDbArc
50
-2.8316468151294709e-06
51
89.999991831838727
0
LINE
5
127
100
AcDbEntity
8
0
100
AcDbLine
10
24.320218204110937
20
-78.433896513675634
30
-6.8516998733306762e-15
11
24.32021780050939
21
-87.48388232532028
31
-6.4709764224251485e-15
0
ARC
5
128
100
AcDbEntity
8
0
100
AcDbCircle
10
253.4702182658032
20
-75.178448733638447
30
-3.5527136788004997e-14
40
1.5000000000000231
210
1.2690781564618249e-16
220
-2.7755574657876331e-17
230
1
100
AcDbArc
50
-2.5613209387547816e-06
51
89.999997444782466
0
LINE
5
129
100
AcDbEntity
8
0
100
AcDbLine
10
253.47021833269864
20
-73.678448733638433
30
-3.5485503434507733e-14
11
251.53251238787036
21
-73.678448647222694
31
-3.5281226759803191e-14
0
ARC
5
130
100
AcDbEntity
8
0
100
AcDbCircle
10
251.53251254395994
20
-70.178448647222709
30
-3.5527136788005009e-14
40
3.5000000000000138
210
1.269078156460987e-16
220
-2.7755574657894792e-17
230
1
100
AcDbArc
50
20.420385886214198
51
269.99999744477878
0
SPLINE
5
131
100
AcDbEntity
8
0
100
AcDbSpline
70
0
71
3
72
14
73
10
74
0
42
0.000000001
43
0.0000000001
44
0.0000000001
40
0
40
0
40
0
40
0
40
0.058596671008039843
40
0.058596671008039843
40
0.1171933420160825
40
0.1171933420160825
40
0.14989233258367968
40
0.14989233258367968
40
0.18259132315127663
40
0.18259132315127663
40
0.18259132315127663
40
0.18259132315127663
10
256.21830201677278
20
-69.933921092392637
30
-3.5527136788005009e-14
10
256.02297978007931
20
-69.933921083681852
30
-3.5527136788005009e-14
10
255.82952493212886
20
-69.895770298907422
30
-3.3306690738754696e-14
10
255.46812800031969
20
-69.747461963785383
30
-3.5527136788005009e-14
10
255.30364106810561
20
-69.638722321955839
30
-3.5527136788005009e-14
10
255.08704784401164
20
-69.424952934337995
30
-3.5527136788005009e-14
10
255.01804743683775
20
-69.34016005053364
30
-3.5527136788005009e-14
10
254.89964492663927
20
-69.157124776500311
30
-3.5527136788005009e-14
10
254.85059474846256
20
-69.059426417482086
30
-3.3306690738754696e-14
10
254.8125652217557
20
-68.957279358841646
30
-3.5527136788005009e-14
0
LINE
5
132
100
AcDbEntity
8
0
100
AcDbLine
10
256.21830201677278
20
-69.933921092392637
30
-3.5527136788005009e-14
11
270.72269656617874
21
-69.933921739243999
31
-3.7367857835493178e-14
0
SPLINE
5
133
100
AcDbEntity
8
0
100
AcDbSpline
70
0
71
3
72
14
73
10
74
0
42
0.000000001
43
0.0000000001
44
0.0000000001
40
0
40
0
40
0
40
0
40
0.058596671008039912
40
0.058596671008039912
40
0.11719334201607789
40
0.11719334201607789
40
0.14989347640519643
40
0.14989347640519643
40
0.18259361079431682
40
0.18259361079431682
40
0.18259361079431682
40
0.18259361079431682
10
272.12844140630887
20
-68.957258755442083
30
-3.7747582837255322e-14
10
272.06029516861003
20
-69.140307564327657
30
-3.7747582837255322e-14
10
271.9570469433105
20
-69.308295851261391
30
-3.7747582837255322e-14
10
271.69196958351995
20
-69.595240267332187
30
-3.7747582837255322e-14
10
271.53267473306681
20
-69.711453051454839
30
-3.7747582837255322e-14
10
271.25676698142252
20
-69.839855578608891
30
-3.7747582837255322e-14
10
271.15322479277984
20
-69.874937561973468
30
-3.7747582837255322e-14
10
270.94037346062169
20
-69.922040651295418
30
-3.7747582837255322e-14
10
270.83169701414243
20
-69.933921744105092
30
-3.7747582837255322e-14
10
270.72269656617874
20
-69.933921739243999
30
-3.7747582837255322e-14
0
ARC
5
134
100
AcDbEntity
8
0
100
AcDbCircle
10
275.40851254385672
20
-70.178378459904195
30
-3.7747582837255322e-14
40
3.5000000000000089
210
1.269078154188723e-16
220
-2.7755575219499553e-17
230
1
100
AcDbArc
50
-90.000002555221243
51
159.58048024051374
0
LINE
5
135
100
AcDbEntity
8
0
100
AcDbLine
10
275.40851238776713
20
-73.678378459904209
30
-3.7844727330714581e-14
11
273.47021833270168
21
-73.678378373462195
31
-3.7501598168502135e-14
0
ARC
5
136
100
AcDbEntity
8
0
100
AcDbCircle
10
273.47021826580618
20
-75.178378373462124
30
-3.7747582837255291e-14
40
1.4999999999999343
210
1.2690780957052534e-16
220
-1.6398978482848263e-16
230
1
100
AcDbArc
50
89.999997444780305
51
179.99999743867906
0
LINE
5
137
100
AcDbEntity
8
0
100
AcDbLine
10
271.97021826580624
20
-75.178378306566799
30
-3.7557221111929336e-14
11
271.97021835012595
21
-78.430058845839184
31
-3.7837835107683942e-14
0
ARC
5
138
100
AcDbEntity
8
0
100
AcDbCircle
10
270.47021812079134
20
-78.430058803196175
30
-3.5527136788005009e-14
40
1.5000000000000036
210
1.2690781564610903e-16
220
-2.7755574693725812e-17
230
1
100
AcDbArc
50
270.00000620472122
51
359.99999829245274
0
LINE
5
139
100
AcDbEntity
8
0
100
AcDbLine
10
270.47021828323057
20
-79.930058803196175
30
-3.5568770170660402e-14
11
269.29867519932924
21
-79.930058750948973
31
-3.7598904862765087e-14
0
SPLINE
5
140
100
AcDbEntity
8
0
100
AcDbSpline
70
0
71
3
72
16
73
12
74
0
42
0.000000001
43
0.0000000001
44
0.0000000001
40
0
40
0
40
0
40
0
40
0.0585966710080396
40
0.0585966710080396
40
0.11719334201607799
40
0.11719334201607799
40
0.17579001302411953
40
0.17579001302411953
40
0.21103732812887935
40
0.21103732812887935
40
0.24628464323363886
40
0.24628464323363886
40
0.24628464323363886
40
0.24628464323363886
10
267.80202905859801
20
-81.530311080955698
30
-3.7747582837255322e-14
10
267.78897471904423
20
-81.335425575168955
30
-3.7747582837255322e-14
10
267.81411065898118
20
-81.139853478238152
30
-3.5527136788005009e-14
10
267.9379334444622
20
-80.769352435886773
30
-3.7747582837255322e-14
10
268.03543647668852
20
-80.597965682369733
30
-3.7747582837255322e-14
10
268.29064951348425
20
-80.302213403532804
30
-3.7747582837255322e-14
10
268.44591954232015
20
-80.180675431196065
30
-3.7747582837255322e-14
10
268.7248952148733
20
-80.039166679968488
30
-3.5527136788005009e-14
10
268.83555975798885
20
-79.998511232748882
30
-3.7747582837255322e-14
10
269.06409891436954
20
-79.943862887399732
30
-3.5527136788005009e-14
10
269.18118414898004
20
-79.930058745709204
30
-3.7747582837255322e-14
10
269.29867519932924
20
-79.930058750948959
30
-3.7747582837255322e-14
0
ARC
5
141
100
AcDbEntity
8
0
100
AcDbCircle
10
264.30985488631438
20
-81.764233184304786
30
-3.5527136788005016e-14
40
3.5
210
1.2690781568661866e-16
220
-2.7755574825052945e-17
230
1
100
AcDbArc
50
-183.83221868054363
51
3.8322135701121836
0
SPLINE
5
142
100
AcDbEntity
8
0
100
AcDbSpline
70
0
71
3
72
16
73
12
74
0
42
0.000000001
43
0.0000000001
44
0.0000000001
40
0
40
0
40
0
40
0
40
0.058596671008040009
40
0.058596671008040009
40
0.11719334201607856
40
0.11719334201607856
40
0.17579001302411923
40
0.17579001302411923
40
0.21103732812887879
40
0.21103732812887879
40
0.24628464323363883
40
0.24628464323363883
40
0.24628464323363883
40
0.24628464323363883
10
259.32103473689659
20
-79.930058305976843
30
-3.5527136788005009e-14
10
259.51635697359006
20
-79.930058314687614
30
-3.5527136788005009e-14
10
259.70981182154054
20
-79.968209099462058
30
-3.5527136788005009e-14
10
260.07120875334971
20
-80.116517434584082
30
-3.5527136788005009e-14
10
260.23569568556377
20
-80.225257076413627
30
-3.5527136788005009e-14
10
260.51372953023429
20
-80.499666051859975
30
-3.5527136788005009e-14
10
260.62461828759541
20
-80.662711886107047
30
-3.7747582837255322e-14
10
260.74716531192632
20
-80.950521509605068
30
-3.5527136788005009e-14
10
260.78033359832409
20
-81.063655815936244
30
-3.5527136788005009e-14
10
260.81958535371416
20
-81.295336387731624
30
-3.7747582837255322e-14
10
260.82553324638621
20
-81.413082424031643
30
-3.5527136788005009e-14
10
260.81768073489519
20
-81.530310769475221
30
-3.5527136788005009e-14
0
LINE
5
143
100
AcDbEntity
8
0
100
AcDbLine
10
259.32103473689659
20
-79.930058305976843
30
-3.5527136788005009e-14
11
256.47021828323068
21
-79.930058154586817
31
-3.5165345894860355e-14
0
ARC
5
144
100
AcDbEntity
8
0
100
AcDbCircle
10
256.47021812079146
20
-78.430058178839218
30
-3.5527136788005009e-14
40
1.4999999999999885
210
1.2690781564611078e-16
220
-2.775557422822248e-17
230
1
100
AcDbArc
50
179.99999658490543
51
270.00000620472127
0
LINE
5
145
100
AcDbEntity
8
0
100
AcDbLine
10
254.97021812079146
20
-78.430058087691393
30
-3.5336775062005986e-14
11
254.97021826580323
21
-75.178448800533829
31
-3.5717498513330989e-14
0
CIRCLE
5
146
100
AcDbEntity
8
0
100
AcDbCircle
10
199.17687827859453
20
-109.54860255514852
30
-2.886579864025407e-14
40
3.4999999999999751
210
1.2690781564610893e-16
220
-2.775557437485781e-17
230
1
0
CIRCLE
5
147
100
AcDbEntity
8
0
100
AcDbCircle
10
180.15862827867667
20
-109.54865846233443
30
-2.6645352591003757e-14
40
3.5000000000000107
210
1.2690781564610893e-16
220
-2.775557437485781e-17
230
1
0
LWPOLYLINE
5
148
100
AcDbEntity
8
0
100
AcDbPolyline
90
4
70
1
43
0.0
10
84.876888567897964
20
-113.04893855825398
10
80.082638567918863
20
-113.04895265171825
42
-0.99999999999999989
10
80.082617990299752
20
-106.04895265174849
10
84.876867938124931
20
-106.04893855828435
42
-1.0000000074505806
0
CIRCLE
5
149
100
AcDbEntity
8
0
100
AcDbCircle
10
279.54985488631439
20
-81.764233184304743
30
-3.7747582837255322e-14
40
3.4999999999999751
210
1.2690781564610893e-16
220
-2.775557437485781e-17
230
1
0
LWPOLYLINE
5
150
100
AcDbEntity
8
0
100
AcDbPolyline
90
8
70
1
43
0.0
10
345.7891152778609
20
-109.26979194105931
42
0.41421356237309159
10
344.28911527784419
20
-107.76979194107602
10
330.28911611074943
20
-107.76979194123199
42
0.41421356236982076
10
328.78911611076626
20
-109.26979194123199
10
328.78911611076626
20
-116.52896111214409
42
0.41421356237636936
10
330.28911611078297
20
-118.02896111214407
10
344.28911527795844
20
-118.02896111198814
42
0.41421356237308116
10
345.78911527794173
20
-116.52896111197144
0
LWPOLYLINE
5
151
100
AcDbEntity
8
0
100
AcDbPolyline
90
8
70
1
43
0.0
10
306.18911386027713
20
-118.02896111241255
10
291.66252382932981
20
-118.02896111257438
42
-0.4142135623730846
10
290.16252382931316
20
-116.52896111259111
10
290.16252382923227
20
-109.26979194167902
42
-0.41421356237309503
10
291.66252382921562
20
-107.76979194166232
10
306.18911386024371
20
-107.7697919415005
42
-0.41421356237635198
10
307.68911386026042
20
-109.2697919415005
10
307.68911386026042
20
-116.52896111241259
42
-0.41421356236983115
0
LWPOLYLINE
5
152
100
AcDbEntity
8
0
100
AcDbPolyline
90
8
70
1
43
0.0
10
247.82652777869123
20
-14.619790671890058
42
0.41421356237177609
10
249.32652777868446
20
-16.119790671890051
10
263.32652552816393
20
-16.119790671952892
42
0.41421356237441354
10
264.82652552817063
20
-14.61979067195289
10
264.82652552817063
20
-7.5873731883426911
42
0.41421356237635487
10
263.32652552815398
20
-6.0873731883426965
10
249.32652777867452
20
-6.0873731884986535
42
0.41421356236983525
10
247.82652777869129
20
-7.5873731884986562
0
LWPOLYLINE
5
153
100
AcDbEntity
8
0
100
AcDbPolyline
90
8
70
1
43
0.0
10
111.64652552824018
20
-7.5873731900558683
10
111.6465255282086
20
-14.619790671272062
42
-0.41421356237309592
10
110.14652552820186
20
-16.119790671265331
10
96.926527840766553
20
-16.119790671205998
42
-0.41421356237177964
10
95.426527840773275
20
-14.619790671205999
10
95.426527840773247
20
-7.5873731901964128
42
-0.41421356236983509
10
96.926527840756549
20
-6.087373190196411
10
110.14652552822342
20
-6.087373190049135
42
-0.41421356237768003
0
LWPOLYLINE
5
154
100
AcDbEntity
8
0
100
AcDbPolyline
90
8
70
1
43
0.0
10
93.37652559026013
20
-7.5873731902526664
10
93.376525590260144
20
-14.619790671183324
42
-0.41421356237441004
10
91.876525590253408
20
-16.119790671183324
10
77.876527778752006
20
-16.119790671120484
42
-0.41421356237177787
10
76.376527778758742
20
-14.619790671120491
10
76.3765277787587
20
-7.5873731904086306
42
-0.41421356236983525
10
77.876527778741988
20
-6.0873731904086279
10
91.876525590243403
20
-6.0873731902526469
42
-0.41421356237635848
0
LWPOLYLINE
5
155
100
AcDbEntity
8
0
100
AcDbPolyline
90
8
70
1
43
0.0
10
266.87652784070576
20
-14.619790671975563
10
266.87652784070576
20
-7.5873731882864384
42
-0.41421356236983509
10
268.37652784068905
20
-6.0873731882864366
10
282.37652552814637
20
-6.0873731881304893
42
-0.41421356237634788
10
283.87652552816303
20
-7.5873731881304716
10
283.87652552816303
20
-14.619790672038398
42
-0.41421356237441392
10
282.37652552815632
20
-16.119790672038402
10
268.376527840699
20
-16.119790671975512
42
-0.41421356237177659
0
LWPOLYLINE
5
156
100
AcDbEntity
8
0
100
AcDbPolyline
90
8
70
1
43
0.0
10
228.77652777869866
20
-14.619790671804552
42
0.41421356237177609
10
230.2765277786919
20
-16.119790671804545
10
244.27652552817133
20
-16.119790671867385
42
0.41421356237441392
10
245.77652552817801
20
-14.619790671867383
10
245.77652552817801
20
-7.5873731885549116
42
0.41421356237634788
10
244.27652552816139
20
-6.0873731885549169
10
230.27652777868195
20
-6.087373188710874
42
0.41421356236983509
10
228.77652777869869
20
-7.5873731887108757
0
LWPOLYLINE
5
157
100
AcDbEntity
8
0
100
AcDbPolyline
90
8
70
1
43
0.0
10
345.78911527672801
20
-7.587373187424058
10
345.7891152768064
20
-14.619790672299599
42
-0.41421356237766183
10
344.28911527679975
20
-16.119790672316306
10
330.28902784067486
20
-16.119790672253448
42
-0.41421356237177609
10
328.78902784068157
20
-14.619790672253465
10
328.78902784068151
20
-7.5873731875967252
42
-0.41421356236982143
10
330.28902784066474
20
-6.0873731875967234
10
344.28911527671141
20
-6.0873731874408579
42
-0.41421356237309176
0
LWPOLYLINE
5
158
100
AcDbEntity
8
0
100
AcDbPolyline
90
8
70
1
43
0.0
10
74.326525528245611
20
-7.587373190464886
10
74.326525528245611
20
-14.619790671097817
42
-0.41421356237441048
10
72.826525528238875
20
-16.119790671097821
10
58.826527840781608
20
-16.119790671034977
42
-0.41421356237177964
10
57.326527840788344
20
-14.619790671034988
10
57.326527840788316
20
-7.5873731906208501
42
-0.41421356236983153
10
58.826527840771604
20
-6.0873731906208484
10
72.826525528228842
20
-6.0873731904648487
42
-0.41421356237636026
0
LWPOLYLINE
5
159
100
AcDbEntity
8
0
100
AcDbPolyline
90
8
70
1
43
0.0
10
290.68902777867424
20
-14.619790672082448
10
290.68902777867419
20
-7.5873731880211635
42
-0.41421356236983525
10
292.18902777865748
20
-6.0873731880211608
10
306.18902552813688
20
-6.0873731878652162
42
-0.41421356237634788
10
307.68902552815354
20
-7.5873731878651984
10
307.68902552815359
20
-14.619790672145283
42
-0.4142135623744066
10
306.18902552814689
20
-16.119790672145285
10
292.18902777866742
20
-16.119790672082395
42
-0.41421356237177659
0
LWPOLYLINE
5
160
100
AcDbEntity
8
0
100
AcDbPolyline
90
8
70
1
43
0.0
10
225.22652559020085
20
-16.119790671781871
10
211.29685001130809
20
-16.119790671719343
42
-0.41421356237309892
10
209.79685001131483
20
-14.619790671712622
10
209.79685001134644
20
-7.5873731889155742
42
-0.41421356236851198
10
211.2968500113297
20
-6.0873731889223128
10
225.22652559019082
20
-6.0873731887671481
42
-0.41421356237635487
10
226.7265255902075
20
-7.5873731887671303
10
226.72652559020753
20
-14.619790671781876
42
-0.4142135623744066
0
LWPOLYLINE
5
161
100
AcDbEntity
8
0
100
AcDbPolyline
90
8
70
1
43
0.0
10
121.1888500113343
20
-123.52912486420806
10
121.18885001117542
20
-109.26979194356157
42
-0.41421356237309503
10
122.68885001115871
20
-107.76979194354485
10
149.59627294446722
20
-107.76979194324508
42
-0.41421356237309853
10
151.09627294448393
20
-109.26979194322837
10
151.09627294464281
20
-123.52912486387483
42
-0.41421356237309503
10
149.59627294465952
20
-125.02912486389155
10
122.68885001135104
20
-125.02912486419135
42
-0.41421356237309853
0
LWPOLYLINE
5
162
100
AcDbEntity
8
0
100
AcDbPolyline
90
8
70
1
43
0.0
10
55.276525590275163
20
-7.5873731906771047
10
55.276525590275156
20
-14.619790671012309
42
-0.41421356237440837
10
53.776525590268434
20
-16.119790671012311
10
39.496527778756629
20
-16.119790670948216
42
-0.41421356237309548
10
37.996527778763365
20
-14.619790670941484
10
37.996527778794956
20
-7.5873731908294513
42
-0.41421356236852025
10
39.496527778778258
20
-6.0873731908361881
10
53.776525590258444
20
-6.0873731906770949
42
-0.41421356237635681
0
LWPOLYLINE
5
163
100
AcDbEntity
8
0
100
AcDbPolyline
90
20
70
1
43
0.0
10
198.22085001140869
20
-7.5873731890914229
10
198.22085001137714
20
-14.61979067166066
42
-0.41421356237309853
10
196.72085001137043
20
-16.119790671653927
10
187.44366162301026
20
-16.119790671612282
42
0.41421356237441526
10
185.44366162300128
20
-18.11979067161236
10
185.44366162300156
20
-24.830211816897894
42
-0.41421356237311369
10
182.4436616230015
20
-27.830211816898011
10
172.57635724546051
20
-27.830211816897755
42
0.41421354931096305
10
169.57635724546049
20
-30.830211683106935
10
169.57635682165005
20
-40.333341227877845
42
-0.41421365922280551
10
168.07635628300864
20
-41.833341185234772
10
135.02635628300905
20
-41.833339677908008
42
-0.41421363454034404
10
133.52635597116682
20
-40.333339620158632
10
133.52635696182284
20
-18.119790671361265
42
0.41421356237177775
10
131.52635938283316
20
-16.119790671361297
10
125.22152777872273
20
-16.119790671333003
42
-0.41421356237309548
10
123.72152777872947
20
-14.619790671326264
10
123.72152777876101
20
-7.5873731898744641
42
-0.41421356236851892
10
125.22152777874432
20
-6.0873731898812036
10
196.72085001139206
20
-6.0873731890847393
42
-0.41421356237767026
0
LWPOLYLINE
5
164
100
AcDbEntity
8
0
100
AcDbPolyline
90
8
70
1
43
0.0
10
326.73902552814616
20
-7.5873731876529789
10
326.73902552814627
20
-14.61979067223079
42
-0.4142135623744001
10
325.23902552813956
20
-16.119790672230792
10
311.2390277786601
20
-16.119790672167937
42
-0.41421356237178353
10
309.73902777866681
20
-14.619790672167953
10
309.73902777866681
20
-7.5873731878089421
42
-0.41421356236983509
10
311.2390277786501
20
-6.0873731878089412
10
325.23902552812945
20
-6.0873731876529957
42
-0.41421356237636892
0
LWPOLYLINE
5
165
100
AcDbEntity
8
0
100
AcDbPolyline
90
8
70
1
43
0.0
10
16.396525528277891
20
-7.5873731911169662
10
16.396525528246315
20
-14.619790670844532
42
-0.41421356237309592
10
14.896525528239577
20
-16.119790670837798
10
1.6765277787663726
20
-16.11979067077846
42
-0.41421356237309548
10
0.17652777877310399
20
-14.619790670771728
10
0.17652777880469039
20
-7.5873731912507747
42
-0.41421356236851425
10
1.6765277787879636
20
-6.087373191257508
10
14.896525528261169
20
-6.0873731911102267
42
-0.41421356237767376
0
LWPOLYLINE
5
166
100
AcDbEntity
8
0
100
AcDbPolyline
90
15
70
1
43
0.0
10
1.6765278455844881
20
-31.833916813539172
10
13.980411518906845
20
-31.833917371400563
42
0.41421360241216393
10
15.980411801456654
20
-29.833917371400513
10
15.980411608100631
20
-27.457989878359662
42
-0.99999997419043196
10
23.130411637902949
20
-27.457989973977
10
23.130411637902899
20
-29.833917868656354
42
0.41421351965522635
10
25.13041154870908
20
-31.833917859510272
10
34.726356729037192
20
-31.833918287459937
42
-0.41421353546585982
10
36.226356515195221
20
-33.333918363501326
10
36.226356203029752
20
-40.333626822402124
42
-0.41421353189411281
10
34.726356283080968
20
-41.833626746360714
10
34.726356283068
20
-41.833917342241747
10
1.6765277117622788
20
-41.833916813539176
42
-0.41421354931226928
10
0.17652777865768549
20
-40.333916813532447
10
0.17652777868910785
20
-33.33391681353244
42
-0.41421357543391757
0
LWPOLYLINE
5
167
100
AcDbEntity
8
0
100
AcDbPolyline
90
8
70
1
43
0.0
10
344.28911521040965
20
-60.878903035535402
10
330.2888286385749
20
-60.878902411165654
42
-0.4142135602761397
10
328.78882874046189
20
-59.378902320017851
10
328.78882905241602
20
-52.383931410888273
42
-0.41421355080497008
10
330.28882908431973
20
-50.883931502036077
10
344.28911534412242
20
-50.88393212640581
42
-0.41421354930769611
10
345.78911527722704
20
-52.383932126389098
10
345.78911527730497
20
-59.37890303551869
42
-0.41421357543848197
0
LWPOLYLINE
5
168
100
AcDbEntity
8
0
100
AcDbPolyline
90
14
70
1
43
0.0
10
344.28911521019751
20
-41.82890303553539
10
311.23882948814634
20
-41.828901561594243
42
-0.4142135602761518
10
309.73882959003328
20
-40.328901470446453
10
309.73882990198751
20
-33.333930561316855
42
-0.41421355080498046
10
311.23882993389128
20
-31.833930652464669
10
321.37991151890651
20
-31.833931080473313
42
0.41421360475833774
10
323.37991178407879
20
-29.833931080473256
10
323.37991160810031
20
-27.457989863565988
42
-0.99999997212248048
10
330.52991163790267
20
-27.457989973969191
10
330.52991163790284
20
-29.833931577729075
42
0.41421352709122361
10
332.52991154870892
20
-31.833931601981462
10
344.28911534391023
20
-31.833932126405816
42
-0.4142135493076935
10
345.78911527701479
20
-33.333932126389094
10
345.78911527709272
20
-40.328903035518678
42
-0.4142135754384681
0
LWPOLYLINE
5
169
100
AcDbEntity
8
0
100
AcDbPolyline
90
8
70
1
43
0.0
10
188.62635666205691
20
-33.333925160072845
10
188.62635552174072
20
-40.333342077449231
42
-0.41421340539968327
10
187.1263562830089
20
-41.833342034806194
10
173.12635628300922
20
-41.833341410449243
42
-0.41421372881769064
10
171.62635552174092
20
-40.333341319301475
10
171.6263558338934
20
-33.333924401925074
42
-0.41421371934651297
10
173.12635672895243
20
-31.833924493073109
10
187.12635672895263
20
-31.833924289266385
42
-0.41421339592851103
0
LWPOLYLINE
5
170
100
AcDbEntity
8
0
100
AcDbPolyline
90
8
70
1
43
0.0
10
190.67635634990424
20
-40.333342168872967
10
190.67635651511009
20
-33.333925251496545
42
-0.41421359285207487
10
192.1763567289521
20
-31.833925309245934
10
206.1763567289521
20
-31.833925933602906
42
-0.41421353546585032
10
207.67635651511006
20
-33.333926009644287
10
207.67635620295761
20
-40.333342927020695
42
-0.41421353189411975
10
206.17635628300883
20
-41.833342850979307
10
192.17635628300883
20
-41.833342079675724
42
-0.41421358928033153
0
LWPOLYLINE
5
171
100
AcDbEntity
8
0
100
AcDbPolyline
90
8
70
1
43
0.0
10
177.88902473049268
20
-88.983889149764622
10
191.88902473049274
20
-88.983889798374008
42
-0.41421357953798316
10
193.38902477575664
20
-90.483889841016975
10
193.38902446359927
20
-97.483416086449708
42
-0.41421358900913241
10
191.88902428454463
20
-98.983416043806699
10
177.88902428454458
20
-98.983415419449742
42
-0.41421354520820991
10
176.38902446359924
20
-97.483415328301959
10
176.38902475150417
20
-90.483889082869183
42
-0.41421353573705205
0
LWPOLYLINE
5
172
100
AcDbEntity
8
0
100
AcDbPolyline
90
8
70
1
43
0.0
10
101.68902473049289
20
-88.983885751478823
10
115.68902473049283
20
-88.98388640008821
42
-0.41421357953798316
10
117.18902477575674
20
-90.483886442731205
10
117.18902446359937
20
-97.483412688163952
42
-0.41421358900913241
10
115.68902428454467
20
-98.983412645520929
10
101.68902428454473
20
-98.983412021163986
42
-0.41421354520820303
10
100.18902446359944
20
-97.483411930016189
10
100.18902475150439
20
-90.483885684583413
42
-0.41421353573705205
0
LWPOLYLINE
5
173
100
AcDbEntity
8
0
100
AcDbPolyline
90
8
70
1
43
0.0
10
82.63902473049292
20
-88.983884901907402
10
96.639024730492878
20
-88.983885550516803
42
-0.41421357953797272
10
98.139024775756752
20
-90.483885593159755
10
98.139024463599398
20
-97.483411838592545
42
-0.41421358900912891
10
96.639024284544703
20
-98.983411795949507
10
82.639024284544746
20
-98.983411171592564
42
-0.41421354520819609
10
81.139024463599455
20
-97.483411080444796
10
81.139024751504394
20
-90.483884835011992
42
-0.41421353573704861
0
LWPOLYLINE
5
174
100
AcDbEntity
8
0
100
AcDbPolyline
90
8
70
1
43
0.0
10
158.83902473049275
20
-88.9838883001932
10
172.8390247304927
20
-88.983888948802573
42
-0.41421357953799004
10
174.33902477575663
20
-90.483888991445539
10
174.33902446359929
20
-97.483415236878287
42
-0.41421358900913241
10
172.83902428454465
20
-98.983415194235278
10
158.83902428454465
20
-98.983414569878335
42
-0.41421354520822035
10
157.33902446359929
20
-97.483414478730523
10
157.33902475150427
20
-90.483888233297733
42
-0.41421353573704517
0
LWPOLYLINE
5
175
100
AcDbEntity
8
0
100
AcDbPolyline
90
8
70
1
43
0.0
10
196.93902473049266
20
-88.983889999336029
10
210.93902473049272
20
-88.983890647945444
42
-0.41421357953796922
10
212.43902477575656
20
-90.48389069058841
10
212.43902446359922
20
-97.483416936021143
42
-0.41421358900913241
10
210.93902428454456
20
-98.983416893378134
10
196.93902428454447
20
-98.983416269021163
42
-0.41421354520820303
10
195.4390244635992
20
-97.48341617787338
10
195.43902475150415
20
-90.483889932440633
42
-0.4142135357370556
0
LWPOLYLINE
5
176
100
AcDbEntity
8
0
100
AcDbPolyline
90
8
70
1
43
0.0
10
120.7390247304928
20
-88.983886601050258
10
134.73902473049276
20
-88.983887249659659
42
-0.41421357953798316
10
136.23902477575669
20
-90.483887292302626
10
136.23902446359932
20
-97.483413537735387
42
-0.41421358900913935
10
134.7390242845446
20
-98.983413495092364
10
120.73902428454473
20
-98.983412870735421
42
-0.41421354520821346
10
119.23902446359938
20
-97.48341277958761
10
119.2390247515043
20
-90.483886534154834
42
-0.41421353573703823
0
LWPOLYLINE
5
177
100
AcDbEntity
8
0
100
AcDbPolyline
90
8
70
1
43
0.0
10
60.039024663597573
20
-90.48388389401687
10
60.039024463599489
20
-97.483410139449603
42
-0.41421358900913585
10
58.539024284544823
20
-98.983410096806622
10
44.539024284544901
20
-98.983409472449665
42
-0.4142135452082169
10
43.039024463599546
20
-97.483409381301868
10
43.0390247757569
20
-90.483883135869107
42
-0.41421353573705194
10
44.539024730493011
20
-88.983883227016932
10
58.539024730492983
20
-88.983883963533202
42
-0.41421357953797333
0
LWPOLYLINE
5
178
100
AcDbEntity
8
0
100
AcDbPolyline
90
8
70
1
43
0.0
10
63.589024730492973
20
-88.983884052335966
10
77.589024730492937
20
-88.983884700945339
42
-0.41421357953797094
10
79.089024775756812
20
-90.483884743588305
10
79.089024463599443
20
-97.483410989021053
42
-0.41421358900913585
10
77.589024284544763
20
-98.983410946378058
10
63.589024284544848
20
-98.983410322021101
42
-0.41421354520821513
10
62.0890244635995
20
-97.483410230873318
10
62.089024751504461
20
-90.483883985440556
42
-0.41421353573705383
0
LWPOLYLINE
5
179
100
AcDbEntity
8
0
100
AcDbPolyline
90
8
70
1
43
0.0
10
139.7890247304928
20
-88.983887450621708
10
153.78902473049277
20
-88.983888099231109
42
-0.41421357953797616
10
155.28902477575664
20
-90.483888141874075
10
155.28902446359928
20
-97.483414387306837
42
-0.41421358900913585
10
153.78902428454461
20
-98.983414344663828
10
139.78902428454467
20
-98.983413720306885
42
-0.41421354520820647
10
138.28902446359936
20
-97.483413629159088
10
138.28902475150429
20
-90.483887383726298
42
-0.41421353573704517
0
LWPOLYLINE
5
180
100
AcDbEntity
8
0
100
AcDbPolyline
90
8
70
1
43
0.0
10
209.72635634990414
20
-40.33334301844441
10
209.72635651510998
20
-33.333926101067995
42
-0.41421359285207571
10
211.226356728952
20
-31.833926158817377
10
225.22635672895208
20
-31.833926783174348
42
-0.41421353546585638
10
226.72635651511007
20
-33.333926859215723
10
226.72635620295756
20
-40.333343776592145
42
-0.41421353189411625
10
225.22635628300878
20
-41.833343700550728
10
211.2263562830087
20
-41.833342929247124
42
-0.41421358928032975
0
LWPOLYLINE
5
181
100
AcDbEntity
8
0
100
AcDbPolyline
90
8
70
1
43
0.0
10
166.86396835096107
20
-78.433443344338954
10
166.86396851617178
20
-71.433917083211583
42
-0.41421359285207832
10
168.3639687300138
20
-69.933917140960958
10
182.36396873001382
20
-69.933917765317943
42
-0.41421353546585465
10
183.86396851617178
20
-71.433917841359346
10
183.86396820401441
20
-78.433444102486675
42
-0.41421353189411453
10
182.36396828406561
20
-79.933444026445258
10
168.36396828406561
20
-79.933443255141654
42
-0.41421358928032109
0
LWPOLYLINE
5
182
100
AcDbEntity
8
0
100
AcDbPolyline
90
8
70
1
43
0.0
10
163.60140950064846
20
-50.883909831536371
10
177.60140950064849
20
-50.883910446747308
42
-0.41421353546585465
10
179.10140928680644
20
-52.38391052278871
10
179.10140897462983
20
-59.383866586519567
42
-0.41421353189411281
10
177.60140905468106
20
-60.883866510478136
10
163.60140905468108
20
-60.883865886121164
42
-0.4142135892803217
10
162.10140897462992
20
-59.383865828371817
10
162.10140929595246
20
-52.383909764640954
42
-0.41421359285207682
0
LWPOLYLINE
5
183
100
AcDbEntity
8
0
100
AcDbPolyline
90
8
70
1
43
0.0
10
109.71396835096114
20
-78.433440795624648
10
109.71396851617192
20
-71.433914534497262
42
-0.41421359285207487
10
111.21396873001389
20
-69.933914592246651
10
125.2139687300139
20
-69.933915216603594
42
-0.41421353546586503
10
126.71396851617192
20
-71.433915292645025
10
126.71396820401456
20
-78.433441553772383
42
-0.41421353189411625
10
125.21396828406574
20
-79.933441477730952
10
111.21396828406574
20
-79.933440706427419
42
-0.41421358928032453
0
LWPOLYLINE
5
184
100
AcDbEntity
8
0
100
AcDbPolyline
90
8
70
1
43
0.0
10
71.613968350961244
20
-78.433439096481777
10
71.613968516171994
20
-71.433912835354377
42
-0.41421359285208526
10
73.113968730014022
20
-69.933912893103752
10
87.113968730013994
20
-69.933913517460724
42
-0.41421353546586337
10
88.613968516172008
20
-71.433913593502155
10
88.613968204014654
20
-78.433439854629526
42
-0.41421353189411453
10
87.113968284065834
20
-79.933439778588081
10
73.113968284065891
20
-79.933439007284534
42
-0.41421358928033319
0
LWPOLYLINE
5
185
100
AcDbEntity
8
0
100
AcDbPolyline
90
8
70
1
43
0.0
10
50.513968663118604
20
-71.433911894359241
10
50.513968204014688
20
-78.433438155486613
42
-0.41421353189411103
10
49.013968284065925
20
-79.93343807944521
10
35.013968284065953
20
-79.933437455088239
42
-0.41421358928033647
10
33.513968204014716
20
-78.433437397338878
10
33.513968516172071
20
-71.433911136211492
42
-0.41421359285207832
10
35.013968730014071
20
-69.933911193960881
10
49.013968730014028
20
-69.933911671371277
42
-0.41421353546585843
0
LWPOLYLINE
5
186
100
AcDbEntity
8
0
100
AcDbPolyline
90
8
70
1
43
0.0
10
21.938909433813961
20
-52.383903513824322
10
21.93890897468895
20
-59.383903513824293
42
-0.41421353189411797
10
20.438909054740147
20
-60.883903437782891
10
6.4389090547401757
20
-60.883902813425919
42
-0.41421358928032864
10
4.9389089746889745
20
-59.383902755676559
10
4.9389092868674576
20
-52.383902755676566
42
-0.41421359285207637
10
6.4389095007094408
20
-50.883902813425941
10
20.438909500709428
20
-50.883903290836372
42
-0.41421353546585926
0
LWPOLYLINE
5
187
100
AcDbEntity
8
0
100
AcDbPolyline
90
8
70
1
43
0.0
10
52.563968350961275
20
-78.433438246910342
10
52.563968516172032
20
-71.433911985782956
42
-0.41421359285208009
10
54.063968730014025
20
-69.933912043532317
10
68.063968730013997
20
-69.933912667889288
42
-0.41421353546585638
10
69.563968516171983
20
-71.433912743930691
10
69.563968204014643
20
-78.433439005058034
42
-0.41421353189411103
10
68.063968284065879
20
-79.933438929016631
10
54.063968284065893
20
-79.933438157713084
42
-0.41421358928032631
0
LWPOLYLINE
5
188
100
AcDbEntity
8
0
100
AcDbPolyline
90
8
70
1
43
0.0
10
87.401409500648583
20
-50.883906433250594
10
101.40140950064853
20
-50.883907048461538
42
-0.41421353546586503
10
102.90140928680655
20
-52.383907124502954
10
102.90140897463003
20
-59.383863188233796
42
-0.41421353189411281
10
101.40140905468122
20
-60.883863112192373
10
87.401409054681309
20
-60.883862487835401
42
-0.41421358928033908
10
85.901408974630044
20
-59.38386243008604
10
85.901409295952618
20
-52.383906366355191
42
-0.41421359285208204
0
LWPOLYLINE
5
189
100
AcDbEntity
8
0
100
AcDbPolyline
90
8
70
1
43
0.0
10
125.50140950064851
20
-50.883908132393493
10
139.50140950064846
20
-50.883908747604423
42
-0.41421353546585982
10
141.00140928680648
20
-52.383908823645832
10
141.00140897462995
20
-59.383864887376674
42
-0.41421353189411103
10
139.50140905468115
20
-60.883864811335258
10
125.5014090546812
20
-60.883864186978293
42
-0.41421358928033558
10
124.00140897462997
20
-59.383864129228925
10
124.00140929595254
20
-52.383908065498083
42
-0.41421359285207859
0
LWPOLYLINE
5
190
100
AcDbEntity
8
0
100
AcDbPolyline
90
8
70
1
43
0.0
10
182.65140950064841
20
-50.883910681107793
10
196.65140950064838
20
-50.883911296318736
42
-0.41421353546586159
10
198.15140928680637
20
-52.383911372360139
10
198.15140897462982
20
-59.383867436091002
42
-0.41421353189411281
10
196.65140905468104
20
-60.883867360049571
10
182.6514090546811
20
-60.8838667356926
42
-0.41421358928032864
10
181.1514089746299
20
-59.383866677943253
10
181.15140929595245
20
-52.383910614212382
42
-0.4142135928520716
0
LWPOLYLINE
5
191
100
AcDbEntity
8
0
100
AcDbPolyline
90
8
70
1
43
0.0
10
185.91396835096108
20
-78.433444193910404
10
185.91396851617176
20
-71.433917932783004
42
-0.41421359285207832
10
187.41396873001378
20
-69.933917990532379
10
201.41396873001381
20
-69.933918614889365
42
-0.41421353546586159
10
202.91396851617179
20
-71.433918690930767
10
202.9139682040144
20
-78.433444952058139
42
-0.41421353189411453
10
201.41396828406559
20
-79.933444876016722
10
187.41396828406562
20
-79.933444104713075
42
-0.41421358928032798
0
LWPOLYLINE
5
192
100
AcDbEntity
8
0
100
AcDbPolyline
90
8
70
1
43
0.0
10
201.70140950064842
20
-50.883911530679235
10
215.7014095006484
20
-50.8839121458902
42
-0.41421353546585465
10
217.20140928680635
20
-52.383912221931595
10
217.2014089746298
20
-59.383868285662452
42
-0.41421353189411453
10
215.70140905468099
20
-60.883868209621035
10
201.70140905468099
20
-60.883867585264042
42
-0.4142135892803217
10
200.20140897462983
20
-59.383867527514695
10
200.20140929595243
20
-52.383911463783839
42
-0.41421359285207859
0
LWPOLYLINE
5
193
100
AcDbEntity
8
0
100
AcDbPolyline
90
8
70
1
43
0.0
10
147.81396835096112
20
-78.433442494767533
10
147.81396851617185
20
-71.433916233640133
42
-0.41421359285207487
10
149.31396873001384
20
-69.933916291389522
10
163.31396873001384
20
-69.933916915746494
42
-0.41421353546586159
10
164.81396851617183
20
-71.433916991787896
10
164.81396820401446
20
-78.433443252915268
42
-0.41421353189411103
10
163.31396828406568
20
-79.933443176873823
10
149.31396828406571
20
-79.933442405570261
42
-0.41421358928032281
0
LWPOLYLINE
5
194
100
AcDbEntity
8
0
100
AcDbPolyline
90
8
70
1
43
0.0
10
144.55140950064848
20
-50.883908981964922
10
158.55140950064839
20
-50.883909597175865
42
-0.41421353546585982
10
160.0514092868064
20
-52.383909673217261
10
160.05140897462985
20
-59.383865736948124
42
-0.41421353189411281
10
158.55140905468107
20
-60.883865660906693
10
144.55140905468116
20
-60.883865036549736
42
-0.41421358928032864
10
143.05140897462994
20
-59.383864978800389
10
143.05140929595251
20
-52.383908915069512
42
-0.41421359285207682
0
LWPOLYLINE
5
195
100
AcDbEntity
8
0
100
AcDbPolyline
90
8
70
1
43
0.0
10
90.663968350961142
20
-78.433439946053198
10
90.663968516171963
20
-71.433913684925813
42
-0.41421359285207654
10
92.163968730013934
20
-69.933913742675188
10
106.16396873001393
20
-69.933914367032145
42
-0.41421353546586337
10
107.66396851617196
20
-71.433914443073562
10
107.66396820401461
20
-78.433440704200919
42
-0.41421353189411797
10
106.16396828406579
20
-79.933440628159502
10
92.163968284065746
20
-79.933439856855998
42
-0.41421358928031593
0
LWPOLYLINE
5
196
100
AcDbEntity
8
0
100
AcDbPolyline
90
8
70
1
43
0.0
10
68.351409500648614
20
-50.883905583679152
10
82.351409500648543
20
-50.883906198890102
42
-0.41421353546586337
10
83.851409286806572
20
-52.383906274931505
10
83.851408974630047
20
-59.383862338662368
42
-0.41421353189410937
10
82.35140905468127
20
-60.883862262620944
10
68.351409054681312
20
-60.88386163826398
42
-0.41421358928033208
10
66.85140897463009
20
-59.383861580514612
10
66.851409295952621
20
-52.383905516783756
42
-0.41421359285208031
0
LWPOLYLINE
5
197
100
AcDbEntity
8
0
100
AcDbPolyline
90
8
70
1
43
0.0
10
49.301409500648667
20
-50.883904734107723
10
63.301409500648596
20
-50.883905349318667
42
-0.41421353546586337
10
64.801409286806631
20
-52.383905425360069
10
64.801408974630107
20
-59.383861489090926
42
-0.41421353189411975
10
63.301409054681287
20
-60.883861413049516
10
49.301409054681358
20
-60.883860788692544
42
-0.41421358928032692
10
47.801408974630164
20
-59.383860730943177
10
47.801409295952695
20
-52.383904667212313
42
-0.41421359285207682
0
LWPOLYLINE
5
198
100
AcDbEntity
8
0
100
AcDbPolyline
90
8
70
1
43
0.0
10
57.326356349904444
20
-40.333336221872898
10
57.326356515110326
20
-33.333919304496483
42
-0.4142135928520731
10
58.826356728952298
20
-31.833919362245851
10
72.826356728952291
20
-31.833919986602808
42
-0.41421353546585982
10
74.326356515110319
20
-33.333920062644211
10
74.32635620295784
20
-40.333336980020611
42
-0.41421353189411797
10
72.826356283009034
20
-41.833336903979216
10
58.826356283009027
20
-41.833336132675655
42
-0.41421358928032453
0
LWPOLYLINE
5
199
100
AcDbEntity
8
0
100
AcDbPolyline
90
8
70
1
43
0.0
10
55.276356662056934
20
-33.333919213072775
10
55.276356202957871
20
-40.333336130449183
42
-0.41421353189411625
10
53.776356283009079
20
-41.833336054407788
10
39.776356283009108
20
-41.833335430050823
42
-0.41421358928033208
10
38.276356202957899
20
-40.333335372301448
10
38.276356515110372
20
-33.33391845492504
42
-0.41421359285206877
10
39.776356728952337
20
-31.833918512674426
10
53.776356728952351
20
-31.833918990084801
42
-0.41421353546585754
0
LWPOLYLINE
5
200
100
AcDbEntity
8
0
100
AcDbPolyline
90
8
70
1
43
0.0
10
45.751409433753274
20
-52.383904575788627
10
45.751408974630145
20
-59.38386063951949
42
-0.41421353189411625
10
44.251409054681332
20
-60.883860563478073
10
30.2514090546814
20
-60.883859939121109
42
-0.41421358928033208
10
28.751408974630181
20
-59.383859881371741
10
28.751409286806702
20
-52.383903817640871
42
-0.41421359285207227
10
30.25140950064867
20
-50.883903875390246
10
44.251409500648663
20
-50.883904352800585
42
-0.41421353546586187
0
LWPOLYLINE
5
201
100
AcDbEntity
8
0
100
AcDbPolyline
90
8
70
1
43
0.0
10
106.45140950064855
20
-50.88390728282203
10
120.45140950064848
20
-50.883907898032973
42
-0.41421353546586159
10
121.95140928680649
20
-52.38390797407439
10
121.95140897462997
20
-59.383864037805267
42
-0.41421353189411281
10
120.45140905468116
20
-60.883863961763836
10
106.45140905468125
20
-60.883863337406865
42
-0.41421358928033558
10
104.95140897463001
20
-59.383863279657504
10
104.95140929595257
20
-52.383907215926641
42
-0.41421359285208376
0
LWPOLYLINE
5
202
100
AcDbEntity
8
0
100
AcDbPolyline
90
8
70
1
43
0.0
10
128.76396835096114
20
-78.433441645196083
10
128.7639685161719
20
-71.433915384068712
42
-0.41421359285207832
10
130.26396873001389
20
-69.933915441818073
10
144.26396873001389
20
-69.933916066175044
42
-0.41421353546585982
10
145.7639685161719
20
-71.433916142216447
10
145.76396820401453
20
-78.433442403343804
42
-0.41421353189412147
10
144.2639682840657
20
-79.933442327302387
10
130.2639682840657
20
-79.93344155599884
42
-0.41421358928032109
0
LWPOLYLINE
5
203
100
AcDbEntity
8
0
100
AcDbPolyline
90
8
70
1
43
0.0
10
204.96396835096101
20
-78.433445043481839
10
204.96396851617169
20
-71.433918782354453
42
-0.41421359285207654
10
206.46396873001373
20
-69.933918840103829
10
220.46396873001379
20
-69.933919464460828
42
-0.41421353546585465
10
221.96396851617175
20
-71.433919540502217
10
221.96396820401435
20
-78.433445801629588
42
-0.41421353189411453
10
220.46396828406557
20
-79.933445725588172
10
206.46396828406549
20
-79.933444954284511
42
-0.41421358928032281
0
LWPOLYLINE
5
204
100
AcDbEntity
8
0
100
AcDbPolyline
90
8
70
1
43
0.0
10
224.01396835096077
20
-78.433445893053261
10
224.01396894415524
20
-71.433919631925932
42
-0.41421350276163232
10
225.51396873001357
20
-69.9339197230737
10
239.51396873001352
20
-69.933920347430657
42
-0.41421361251340427
10
241.01396894415512
20
-71.433920390073652
10
241.01396863199773
20
-78.433446651201024
42
-0.41421362198456207
10
239.5139682840653
20
-79.933446608557986
10
225.5139682840653
20
-79.933446265238103
42
-0.41421351223276687
0
LWPOLYLINE
5
205
100
AcDbEntity
8
0
100
AcDbPolyline
90
8
70
1
43
0.0
10
228.77635634990401
20
-40.333343868015838
10
228.77635694309356
20
-33.333926950639437
42
-0.41421350276163399
10
230.27635672895195
20
-31.833927041787248
10
244.2763567289519
20
-31.833927666144195
42
-0.41421361251339389
10
245.77635694309348
20
-33.333927708787179
10
245.77635663094102
20
-40.333344626163587
42
-0.41421362198456901
10
244.2763562830086
20
-41.833344583520578
10
230.27635628300857
20
-41.833344240200702
42
-0.41421351223277209
0
LWPOLYLINE
5
206
100
AcDbEntity
8
0
100
AcDbPolyline
90
8
70
1
43
0.0
10
215.98902473049262
20
-88.983890848907492
10
229.98902473049256
20
-88.983891497516851
42
-0.41421361251340427
10
231.48902494463417
20
-90.483891540159846
10
231.48902463247683
20
-97.483417785592579
42
-0.4142136219845638
10
229.9890242845444
20
-98.983417742949555
10
215.98902428454448
20
-98.983417118592612
42
-0.41421351223278235
10
214.48902463247686
20
-97.483417027444844
10
214.48902492038184
20
-90.483890782012082
42
-0.41421350276162433
0
LWPOLYLINE
5
207
100
AcDbEntity
8
0
100
AcDbPolyline
90
8
70
1
43
0.0
10
220.75140950064824
20
-50.883912380250678
10
234.75140950064812
20
-50.883913028860036
42
-0.41421361251340949
10
236.25140971478976
20
-52.383913071503031
10
236.25140940261326
20
-59.383869135233887
42
-0.41421362198455863
10
234.75140905468083
20
-60.883869092590864
10
220.75140905468095
20
-60.883868468233906
42
-0.41421351223278058
10
219.25140940261332
20
-59.383868377086145
10
219.25140969053746
20
-52.383912313355282
42
-0.41421350276162955
0
LWPOLYLINE
5
208
100
AcDbEntity
8
0
100
AcDbPolyline
90
8
70
1
43
0.0
10
326.73902466240975
20
-90.483895788017023
10
326.73902438542609
20
-97.47934045210846
42
-0.41421357394118913
10
325.23902428353921
20
-98.979340409465451
10
311.23902428353892
20
-98.979339785108493
42
-0.41421356027613621
10
309.73902438542598
20
-97.479339693960711
10
309.73902469740131
20
-90.483895029869231
42
-0.41421355080496652
10
311.23902472930507
20
-88.983895121017085
10
325.23902472930507
20
-88.983895780365643
42
-0.41421356447006769
0
LWPOLYLINE
5
209
100
AcDbEntity
8
0
100
AcDbPolyline
90
8
70
1
43
0.0
10
290.68882870547037
20
-59.378900620874987
10
290.68882905241617
20
-52.383929711745374
42
-0.41421355080498046
10
292.18882908431993
20
-50.883929802893199
10
306.18882908431993
20
-50.883930427250171
42
-0.41421356447004493
10
307.68882905241611
20
-52.383930469893144
10
307.68882874046193
20
-59.378901379022729
42
-0.41421357394120828
10
306.18882863857493
20
-60.878901336379741
10
292.18882863857493
20
-60.878900747014377
42
-0.41421356027612888
0
LWPOLYLINE
5
210
100
AcDbEntity
8
0
100
AcDbPolyline
90
8
70
1
43
0.0
10
309.73882870547021
20
-59.378901470446436
10
309.73882905241607
20
-52.383930561316838
42
-0.41421355080498218
10
311.23882908431983
20
-50.883930652464649
10
325.23882908431978
20
-50.883931276821613
42
-0.41421356447005014
10
326.73882905241601
20
-52.38393131946458
10
326.73882874046183
20
-59.378902228594171
42
-0.41421357394119435
10
325.23882863857494
20
-60.878902185951191
10
311.23882863857483
20
-60.878901596585855
42
-0.41421356027612888
0
LWPOLYLINE
5
211
100
AcDbEntity
8
0
100
AcDbPolyline
90
8
70
1
43
0.0
10
290.68882955504182
20
-40.328900620875004
10
290.68882990198756
20
-33.333929711745419
42
-0.41421355080498307
10
292.18882993389138
20
-31.833929802893223
10
306.18882993389138
20
-31.833930427250202
42
-0.41421356447004148
10
307.68882990198756
20
-33.333930469893154
10
307.68882959003338
20
-40.328901379022746
42
-0.41421357394121172
10
306.18882948814638
20
-41.828901336379772
10
292.18882948814633
20
-41.828900747014401
42
-0.4142135602761306
0
LWPOLYLINE
5
212
100
AcDbEntity
8
0
100
AcDbPolyline
90
8
70
1
43
0.0
10
114.47635597116685
20
-40.333338770587204
42
0.41421363454033056
10
115.97635628300901
20
-41.833338828336572
10
129.97635628300895
20
-41.833339452693536
42
0.41421348663411656
10
131.47635634990434
20
-40.333339528734975
10
131.47635628331929
20
-33.333922611358524
42
0.41421349020585574
10
129.97635672895223
20
-31.833922544463146
10
115.97635672895231
20
-31.833921910960218
42
0.41421363811207929
10
114.47635666205687
20
-33.333921853210803
0
LWPOLYLINE
5
213
100
AcDbEntity
8
0
100
AcDbPolyline
90
8
70
1
43
0.0
10
95.426356202957777
20
-40.33333792101574
42
0.41421358928032875
10
96.926356283008971
20
-41.83333797876513
10
110.92635628300897
20
-41.833338603122094
42
0.41421353189411975
10
112.42635634990435
20
-40.333338679163489
10
112.42635651511024
20
-33.333921761787089
42
0.41421353546585726
10
110.92635672895224
20
-31.833921694891707
10
96.926356728952271
20
-31.833921061388732
42
0.41421359285207654
10
95.426356662056847
20
-33.333921003639361
0
LWPOLYLINE
5
214
100
AcDbEntity
8
0
100
AcDbPolyline
90
8
70
1
43
0.0
10
91.876356283009017
20
-41.833337762696701
10
77.876356283009017
20
-41.833337129193701
42
-0.41421358928032692
10
76.376356202957808
20
-40.333337071444333
10
76.376356515110302
20
-33.333920154067911
42
-0.4142135928520731
10
77.876356728952288
20
-31.833920211817297
10
91.876356728952274
20
-31.833920836174254
42
-0.41421353546585377
10
93.376356515110274
20
-33.333920912215653
10
93.376356212103829
20
-40.333337829592075
42
-0.41421353189411286
0
LWPOLYLINE
5
215
100
AcDbEntity
8
0
100
AcDbPolyline
90
8
70
1
43
0.0
10
326.7391139222749
20
-109.26979194128826
10
326.73911392227478
20
-116.52896111220034
42
-0.41421356236981727
10
325.23911392229161
20
-118.02896111220034
10
311.23911611079012
20
-118.02896111235628
42
-0.41421356237635548
10
309.73911611077347
20
-116.52896111235631
10
309.73911611077341
20
-109.26979194144423
42
-0.41421356236983459
10
311.23911611075675
20
-107.76979194144423
10
325.23911392225807
20
-107.76979194128819
42
-0.4142135623763728
0
LWPOLYLINE
5
216
100
AcDbEntity
8
0
100
AcDbPolyline
90
10
70
1
43
0.0
10
50.182866110875828
20
-122.02080565745797
10
50.182866110875793
20
-109.26979194433599
42
-0.41421356236983636
10
51.682866110859095
20
-107.76979194433595
10
70.446024493487712
20
-107.76979194412692
42
-0.41421356237309337
10
71.946024493504424
20
-109.2697919441102
10
71.946024493663288
20
-123.52920479119911
42
-0.41421356237636242
10
70.446024493663288
20
-125.02920479121585
10
53.526705624748502
20
-125.02920479121583
42
-0.17311530383750923
10
52.576923181289473
20
-124.69020147945272
10
50.733083667416807
20
-123.18180234569485
42
-0.22496664155169316
0
SPLINE
5
217
100
AcDbEntity
8
0
100
AcDbSpline
70
0
71
3
72
18
73
14
74
0
42
0.000000001
43
0.0000000001
44
0.0000000001
40
0
40
0
40
0
40
0
40
0.058596671008036096
40
0.058596671008036096
40
0.1171933420160729
40
0.1171933420160729
40
0.17579001302410813
40
0.17579001302410813
40
0.2343866840321418
40
0.2343866840321418
40
0.2652553244514545
40
0.2652553244514545
40
0.29612396487076542
40
0.29612396487076542
40
0.29612396487076542
40
0.29612396487076542
10
274.35132943433968
20
-37.957373107956855
30
-3.5527136788005009e-14
10
274.35132944305047
20
-37.762050871263405
30
-3.5527136788005009e-14
10
274.38948022782489
20
-37.568596023312992
30
-3.7747582837255322e-14
10
274.53778856294696
20
-37.207199091503838
30
-3.5527136788005009e-14
10
274.64652820477647
20
-37.042712159289749
30
-3.7747582837255322e-14
10
274.92093718022272
20
-36.764678314619296
30
-3.7747582837255322e-14
10
275.08398301446982
20
-36.653789557258129
30
-3.7747582837255322e-14
10
275.44340265380163
20
-36.500751563771786
30
-3.5527136788005009e-14
10
275.63634021123551
20
-36.460065454276474
30
-3.5527136788005009e-14
10
275.9345322382004
20
-36.456152081615926
30
-3.7747582837255322e-14
10
276.03728527323875
20
-36.46539197412374
30
-3.5527136788005009e-14
10
276.23927555677693
20
-36.504759914746927
30
-3.5527136788005009e-14
10
276.33797780913812
20
-36.534783692023865
30
-3.7747582837255322e-14
10
276.43282688688998
20
-36.574672660396139
30
-3.7747582837255322e-14
0
LINE
5
218
100
AcDbEntity
8
0
100
AcDbLine
10
274.35132943433968
20
-37.957373107956855
30
-3.5527136788005009e-14
11
274.3513295578627
21
-40.329993172989219
31
-3.5592990237164841e-14
0
ARC
5
219
100
AcDbEntity
8
0
100
AcDbCircle
10
272.8513293285281
20
-40.329993130346239
30
-3.7747582837255322e-14
40
1.5000000000000036
210
1.2690781564610903e-16
220
-2.7755574693722808e-17
230
1
100
AcDbArc
50
270.00000620472122
51
359.99999829245274
0
LINE
5
220
100
AcDbEntity
8
0
100
AcDbLine
10
272.85132949096732
20
-41.829993130346239
30
-3.7789216219910715e-14
11
258.85132949096737
21
-41.829992481736859
31
-3.5970873400880423e-14
0
ARC
5
221
100
AcDbEntity
8
0
100
AcDbCircle
10
258.85132932852821
20
-40.329992505989274
30
-3.3306690738754696e-14
40
1.4999999999999885
210
1.2690781564611078e-16
220
-2.7755574228222456e-17
230
1
100
AcDbArc
50
179.99999658490543
51
270.00000620471911
0
LINE
5
222
100
AcDbEntity
8
0
100
AcDbLine
10
257.35132932852821
20
-40.329992414841456
30
-3.3116329012755673e-14
11
257.35132943432438
21
-37.957716600990857
31
-3.3240846844564915e-14
0
SPLINE
5
223
100
AcDbEntity
8
0
100
AcDbSpline
70
0
71
3
72
18
73
14
74
0
42
0.000000001
43
0.0000000001
44
0.0000000001
40
0
40
0
40
0
40
0
40
0.058596671008039544
40
0.058596671008039544
40
0.11719334201607409
40
0.11719334201607409
40
0.17579001302411301
40
0.17579001302411301
40
0.23438668403214902
40
0.23438668403214902
40
0.26524473161001205
40
0.26524473161001205
40
0.29610277918787459
40
0.29610277918787459
40
0.29610277918787459
40
0.29610277918787459
10
255.27002688691033
20
-36.574934068061957
30
-3.3306690738754696e-14
10
255.45008566299447
20
-36.499239858890945
30
-3.3306690738754696e-14
10
255.64320774127964
20
-36.459438810497183
30
-3.3306690738754696e-14
10
256.03383797685973
20
-36.456103598599668
30
-3.3306690738754696e-14
10
256.22761149619248
20
-36.492601321539503
30
-3.3306690738754696e-14
10
256.59026147722506
20
-36.637818730429863
30
-3.3306690738754696e-14
10
256.75567080744662
20
-36.745150058801784
30
-3.5527136788005009e-14
10
257.03603735688756
20
-37.017175246132567
30
-3.5527136788005009e-14
10
257.14831411908267
20
-37.17926839603534
30
-3.5527136788005009e-14
10
257.2674674403134
20
-37.452609258144122
30
-3.5527136788005009e-14
10
257.29876266684914
20
-37.550878421809188
30
-3.5527136788005009e-14
10
257.34074923126093
20
-37.752268534058764
30
-3.5527136788005009e-14
10
257.35132943891165
20
-37.854856442398003
30
-3.5527136788005009e-14
10
257.35132943432438
20
-37.957716600990878
30
-3.5527136788005009e-14
0
ARC
5
224
100
AcDbEntity
8
0
100
AcDbCircle
10
253.9136542762775
20
-33.348441647316932
30
-3.5527136788005009e-14
40
3.5000000000000107
210
1.2690781554119645e-16
220
-2.7755574218694492e-17
230
1
100
AcDbArc
50
35.302505301907004
51
292.80120856374566
0
SPLINE
5
225
100
AcDbEntity
8
0
100
AcDbSpline
70
0
71
3
72
14
73
10
74
0
42
0.000000001
43
0.0000000001
44
0.0000000001
40
0
40
0
40
0
40
0
40
0.058596671008037816
40
0.058596671008037816
40
0.11719334201607851
40
0.11719334201607851
40
0.15214943150617985
40
0.15214943150617985
40
0.18710552099628239
40
0.18710552099628239
40
0.18710552099628239
40
0.18710552099628239
10
258.4227727634846
20
-31.896451706547026
30
-3.3306690738754696e-14
10
258.23559199909732
20
-31.952256165063755
30
-3.3306690738754696e-14
10
258.03930093318411
20
-31.97096653697518
30
-3.5527136788005009e-14
10
257.65059546932019
20
-31.932092806126423
30
-3.5527136788005009e-14
10
257.46189730746494
20
-31.874880357420988
30
-3.5527136788005009e-14
10
257.18661570151772
20
-31.728368228030686
30
-3.3306690738754696e-14
10
257.09048469547628
20
-31.661824594767957
30
-3.5527136788005009e-14
10
256.91557159557169
20
-31.507833273110695
30
-3.3306690738754696e-14
10
256.83738370426539
20
-31.420908713270439
30
-3.3306690738754696e-14
10
256.77004740338987
20
-31.325815062060673
30
-3.5527136788005009e-14
0
ARC
5
226
100
AcDbEntity
8
0
100
AcDbCircle
10
258.85132964053116
20
-33.333928316143208
30
-3.3306690738754696e-14
40
1.5000000000000062
210
1.2690781564610915e-16
220
-2.7755574208453524e-17
230
1
100
AcDbArc
50
89.999988684848077
51
106.6009695949957
0
LINE
5
227
100
AcDbEntity
8
0
100
AcDbLine
10
258.85132993676115
20
-31.833928316143233
30
-3.3265057415035922e-14
11
272.85132993676109
21
-31.833928916247739
31
-3.5083400175129602e-14
0
ARC
5
228
100
AcDbEntity
8
0
100
AcDbCircle
10
272.85132964053105
20
-33.333928940500179
30
-3.5527136788005009e-14
40
1.5000000000000067
210
1.2690781551796489e-16
220
-2.7755574730437273e-17
230
1
100
AcDbArc
50
73.389171626559289
51
89.999988684846087
0
SPLINE
5
229
100
AcDbEntity
8
0
100
AcDbSpline
70
0
71
3
72
14
73
10
74
0
42
0.000000001
43
0.0000000001
44
0.0000000001
40
0
40
0
40
0
40
0
40
0.058596671008038829
40
0.058596671008038829
40
0.11719334201607698
40
0.11719334201607698
40
0.15216640672979875
40
0.15216640672979875
40
0.18713947144352164
40
0.18713947144352164
40
0.18713947144352164
40
0.18713947144352164
10
274.93315293171082
20
-31.32589771008757
30
-3.5527136788005009e-14
10
274.82028604700042
20
-31.485308633435704
30
-3.7747582837255322e-14
10
274.67736173312335
20
-31.621150089100709
30
-3.5527136788005009e-14
10
274.3474878091543
20
-31.83040184864651
30
-3.7747582837255322e-14
10
274.16369197357068
20
-31.901811591655033
30
-3.7747582837255322e-14
10
273.85660389596615
20
-31.956382399522955
30
-3.5527136788005009e-14
10
273.73983773139781
20
-31.963329142789728
30
-3.7747582837255322e-14
10
273.50706292430425
20
-31.950041283539328
30
-3.7747582837255322e-14
10
273.39184581694087
20
-31.929851865498744
30
-3.5527136788005009e-14
10
273.28013385516448
20
-31.896526093170088
30
-3.5527136788005009e-14
0
ARC
5
230
100
AcDbEntity
8
0
100
AcDbCircle
10
277.7896542761743
20
-33.348371459998397
30
-3.7747582837255322e-14
40
3.5000000000000071
210
1.1775403150277389e-16
220
-4.9521692246813754e-17
230
1
100
AcDbArc
50
-112.80928472388109
51
144.70056033156268
0
SPLINE
5
231
100
AcDbEntity
8
0
100
AcDbSpline
70
0
71
3
72
16
73
12
74
0
42
0.000000001
43
0.0000000001
44
0.0000000001
40
0
40
0
40
0
40
0
40
0.058596671008038004
40
0.058596671008038004
40
0.11719334201607626
40
0.11719334201607626
40
0.17579001302411409
40
0.17579001302411409
40
0.21798599714552921
40
0.21798599714552921
40
0.26018198126694503
40
0.26018198126694503
40
0.26018198126694503
40
0.26018198126694503
10
250.45793108578752
20
-49.143119565532828
30
-3.3306690738754696e-14
10
250.4888856376856
20
-49.335973375097808
30
-3.3306690738754696e-14
10
250.48187560975694
20
-49.533029509442471
30
-3.3306690738754696e-14
10
250.39271554115007
20
-49.913363029860768
30
-3.5527136788005009e-14
10
250.31141791932379
20
-50.093004220181392
30
-3.5527136788005009e-14
10
250.0845394993371
20
-50.411012533173505
30
-3.3306690738754696e-14
10
249.94112778253009
20
-50.546339323044869
30
-3.3306690738754696e-14
10
249.65677312661271
20
-50.725286180372706
30
-3.3306690738754696e-14
10
249.52778299356481
20
-50.783086040265708
30
-3.3306690738754696e-14
10
249.25749764553277
20
-50.861055340593573
30
-3.3306690738754696e-14
10
249.11754087462293
20
-50.880838679640533
30
-3.3306690738754696e-14
10
248.97688759421817
20
-50.88083867336784
30
-3.3306690738754696e-14
0
ARC
5
232
100
AcDbEntity
8
0
100
AcDbCircle
10
253.91369907669358
20
-48.588441647251059
30
-3.5527136788005009e-14
40
3.5000000000000093
210
1.2690781554425446e-16
220
-2.7755573287662911e-17
230
1
100
AcDbArc
50
-48.749072577649819
51
189.11864647779151
0
SPLINE
5
233
100
AcDbEntity
8
0
100
AcDbSpline
70
0
71
3
72
12
73
8
74
0
42
0.000000001
43
0.0000000001
44
0.0000000001
40
0
40
0
40
0
40
0
40
0.058596671008038892
40
0.058596671008038892
40
0.094075143947208437
40
0.094075143947208437
40
0.1295536168863784
40
0.1295536168863784
40
0.1295536168863784
40
0.1295536168863784
10
255.71058114213798
20
-52.364213114092223
30
-3.3306690738754696e-14
10
255.70841621746177
20
-52.168902875630216
30
-3.5527136788005009e-14
10
255.74442042327095
20
-51.97503705157019
30
-3.5527136788005009e-14
10
255.86024982828914
20
-51.68362950738603
30
-3.5527136788005009e-14
10
255.91677633942317
20
-51.579281814775079
30
-3.5527136788005009e-14
10
256.0531598253408
20
-51.386039100449601
30
-3.3306690738754696e-14
10
256.13253952451112
20
-51.297820333886904
30
-3.5527136788005009e-14
10
256.22145202322776
20
-51.219843619159384
30
-3.5527136788005009e-14
0
ARC
5
234
100
AcDbEntity
8
0
100
AcDbCircle
10
254.21067328396219
20
-52.380838906778642
30
-3.3306690738754696e-14
40
1.4999999999999878
210
1.2690781564610974e-16
220
-2.775557424331241e-17
230
1
100
AcDbArc
50
-2.9575586647481235e-06
51
0.63507150507980004
0
LINE
5
235
100
AcDbEntity
8
0
100
AcDbLine
10
255.71067328396219
20
-52.380838983439403
30
-3.3497052464351622e-14
11
255.71067297178365
21
-59.38083898343934
31
-3.5721425768510756e-14
0
ARC
5
236
100
AcDbEntity
8
0
100
AcDbCircle
10
254.21067297178365
20
-59.380838906778585
30
-3.3306690738754696e-14
40
1.5000000000000231
210
1.26907815646109e-16
220
-2.7755574244289879e-17
230
1
100
AcDbArc
50
269.99999744478458
51
359.99999704244129
0
LINE
5
237
100
AcDbEntity
8
0
100
AcDbLine
10
254.21067290488827
20
-60.880838906778607
30
-3.3348324091631587e-14
11
240.21067290488821
21
-60.880838292186972
31
-3.1529981302379778e-14
0
ARC
5
238
100
AcDbEntity
8
0
100
AcDbCircle
10
240.21067297178362
20
-59.380838282421621
30
-3.3306690738754696e-14
40
1.4999999999999869
210
1.2690781564610794e-16
220
-2.7755574245271983e-17
230
1
100
AcDbArc
50
179.9999979086902
51
269.99999744478356
0
LINE
5
239
100
AcDbEntity
8
0
100
AcDbLine
10
238.71067297178365
20
-59.380838225291591
30
-3.3116329013699857e-14
11
238.71067328396219
21
-52.38083822529164
31
-3.311240175824895e-14
0
ARC
5
240
100
AcDbEntity
8
0
100
AcDbCircle
10
240.21067328396214
20
-52.380838282421678
30
-3.3306690738754696e-14
40
1.5000000000000049
210
1.26907815646109e-16
220
-2.775557424429321e-17
230
1
100
AcDbArc
50
89.99999744478464
51
179.9999979086902
0
LINE
5
241
100
AcDbEntity
8
0
100
AcDbLine
10
240.21067335085752
20
-50.880838282421678
30
-3.3265057385877806e-14
11
248.97688759421817
21
-50.88083867336784
31
-3.3306690738754696e-14
0
SPLINE
5
242
100
AcDbEntity
8
0
100
AcDbSpline
70
0
71
3
72
10
73
6
74
0
42
0.000000001
43
0.0000000001
44
0.0000000001
40
0
40
0
40
0
40
0
40
0.055576932362527989
40
0.055576932362527989
40
0.11115386472505745
40
0.11115386472505745
40
0.11115386472505745
40
0.11115386472505745
10
262.11390941914533
20
-54.596743517925077
30
-3.5527136788005009e-14
10
262.11390941088348
20
-54.781999959133501
30
-3.5527136788005009e-14
10
262.07958945368347
20
-54.965663476733951
30
-3.5527136788005009e-14
10
261.94579096306995
20
-55.311174344792235
30
-3.5527136788005009e-14
10
261.84746289205458
20
-55.470050830182558
30
-3.5527136788005009e-14
10
261.72269305929609
20
-55.606990371012188
30
-3.5527136788005009e-14
0
LINE
5
243
100
AcDbEntity
8
0
100
AcDbLine
10
262.11390941914533
20
-54.596743517925077
30
-3.5527136788005009e-14
11
262.11390943315769
21
-52.383914224891015
31
-3.5465718442441285e-14
0
ARC
5
244
100
AcDbEntity
8
0
100
AcDbCircle
10
263.61390951783073
20
-52.383914286386776
30
-3.5527136788005009e-14
40
1.5000000000000036
210
1.2690781564610898e-16
220
-2.7755574525135412e-17
230
1
100
AcDbArc
50
90.000000679056811
51
179.99999774112726
0
LINE
5
245
100
AcDbEntity
8
0
100
AcDbLine
10
263.61390950005307
20
-50.883914286386769
30
-3.548550342396118e-14
11
272.8533936143952
21
-50.883914698439355
31
-3.6699699545939976e-14
0
SPLINE
5
246
100
AcDbEntity
8
0
100
AcDbSpline
70
0
71
3
72
16
73
12
74
0
42
0.000000001
43
0.0000000001
44
0.0000000001
40
0
40
0
40
0
40
0
40
0.058596671008037733
40
0.058596671008037733
40
0.11719334201607473
40
0.11719334201607473
40
0.1757900130241144
40
0.1757900130241144
40
0.21803403204184951
40
0.21803403204184951
40
0.26027805105958868
40
0.26027805105958868
40
0.26027805105958868
40
0.26027805105958868
10
274.33428529988043
20
-49.145251726887324
30
-3.5527136788005009e-14
10
274.36536275682676
20
-49.338085769049698
30
-3.5527136788005009e-14
10
274.35847831992038
20
-49.53514633106785
30
-3.5527136788005009e-14
10
274.26956066702201
20
-49.915536598544278
30
-3.7747582837255322e-14
10
274.18837755225564
20
-50.095229565716778
30
-3.7747582837255322e-14
10
273.96170185428213
20
-50.413382410330755
30
-3.5527136788005009e-14
10
273.81837641429536
20
-50.548800573171007
30
-3.7747582837255322e-14
10
273.5340004032434
20
-50.728013988942074
30
-3.5527136788005009e-14
10
273.40488966131255
20
-50.785942015119346
30
-3.7747582837255322e-14
10
273.13432151499705
20
-50.864086298270379
30
-3.7747582837255322e-14
10
272.99420701112098
20
-50.88391470471916
30
-3.7747582837255322e-14
10
272.8533936143952
20
-50.883914698439327
30
-3.7747582837255322e-14
0
ARC
5
247
100
AcDbEntity
8
0
100
AcDbCircle
10
277.78969907659035
20
-48.588371459932532
30
-3.7747582837255329e-14
40
3.5000000000000075
210
1.2690781559121484e-16
220
-2.7755574218465538e-17
230
1
100
AcDbArc
50
-55.608673849619358
51
189.15516274489372
0
SPLINE
5
248
100
AcDbEntity
8
0
100
AcDbSpline
70
0
71
3
72
12
73
8
74
0
42
0.000000001
43
0.0000000001
44
0.0000000001
40
0
40
0
40
0
40
0
40
0.058596671008037414
40
0.058596671008037414
40
0.1022583970849732
40
0.1022583970849732
40
0.14592012316190778
40
0.14592012316190778
40
0.14592012316190778
40
0.14592012316190778
10
279.11390950309351
20
-52.714366481113558
30
-3.7747582837255322e-14
10
279.11390951180431
20
-52.519044244420101
30
-3.7747582837255322e-14
10
279.15206029657872
20
-52.325589396469695
30
-3.7747582837255322e-14
10
279.28146843839829
20
-52.01024835130039
30
-3.5527136788005009e-14
10
279.35602519007421
20
-51.884361318578257
30
-3.7747582837255322e-14
10
279.53905004139597
20
-51.658024385913002
30
-3.7747582837255322e-14
10
279.64654766358899
20
-51.558774622936447
30
-3.7747582837255322e-14
10
279.76664637514256
20
-51.476568021586047
30
-3.7747582837255322e-14
0
LINE
5
249
100
AcDbEntity
8
0
100
AcDbLine
10
279.11390950309351
20
-52.714366481113558
30
-3.7747582837255322e-14
11
279.11390948684237
21
-53.078766117511094
31
-3.7757696956455496e-14
0
SPLINE
5
250
100
AcDbEntity
8
0
100
AcDbSpline
70
0
71
3
72
14
73
10
74
0
42
0.000000001
43
0.0000000001
44
0.0000000001
40
0
40
0
40
0
40
0
40
0.058596671008038129
40
0.058596671008038129
40
0.1171933420160787
40
0.1171933420160787
40
0.16058160150483319
40
0.16058160150483319
40
0.20396986099358755
40
0.20396986099358755
40
0.20396986099358755
40
0.20396986099358755
10
280.29469310668395
20
-54.54440628437596
30
-3.7747582837255322e-14
10
280.10384503834155
20
-54.502839579468144
30
-3.7747582837255322e-14
10
279.92294048332724
20
-54.424393403337554
30
-3.7747582837255322e-14
10
279.60138354984781
20
-54.202573108686629
30
-3.7747582837255322e-14
10
279.46380543092869
20
-54.061319713084551
30
-3.7747582837255322e-14
10
279.27821379495816
20
-53.776501192548423
30
-3.7747582837255322e-14
10
279.21719439862926
20
-53.644543601119778
30
-3.7747582837255322e-14
10
279.13482659688145
20
-53.367263892421434
30
-3.7747582837255322e-14
10
279.11390948039246
20
-53.223393649140277
30
-3.7747582837255322e-14
10
279.11390948684243
20
-53.078766117511094
30
-3.7747582837255322e-14
0
ARC
5
251
100
AcDbEntity
8
0
100
AcDbCircle
10
279.54985488631434
20
-57.964233184304717
30
-3.7747582837255322e-14
40
3.4999999999999898
210
1.2690781560014837e-16
220
-2.775557490832149e-17
230
1
100
AcDbArc
50
-117.89071609574542
51
77.71286959153116
0
SPLINE
5
252
100
AcDbEntity
8
0
100
AcDbSpline
70
0
71
3
72
10
73
6
74
0
42
0.000000001
43
0.0000000001
44
0.0000000001
40
0
40
0
40
0
40
0
40
0.03655385772751072
40
0.03655385772751072
40
0.073107715455020872
40
0.073107715455020872
40
0.073107715455020872
40
0.073107715455020872
10
277.21092191609682
20
-60.883440381065419
30
-3.7747582837255322e-14
10
277.33276810852186
20
-60.883440386499394
30
-3.7747582837255322e-14
10
277.45416163265162
20
-60.898286886521653
30
-3.7747582837255322e-14
10
277.69067142721769
20
-60.957015887093988
30
-3.7747582837255322e-14
10
277.80490904624276
20
-61.000680205055346
30
-3.7747582837255322e-14
10
277.91260176033529
20
-61.057678222037204
30
-3.7747582837255322e-14
0
LINE
5
253
100
AcDbEntity
8
0
100
AcDbLine
10
277.21092191609682
20
-60.883440381065419
30
-3.7747582837255322e-14
11
266.64878888030847
21
-60.883439910026752
31
-3.640716559204587e-14
0
SPLINE
5
254
100
AcDbEntity
8
0
100
AcDbSpline
70
0
71
3
72
10
73
6
74
0
42
0.000000001
43
0.0000000001
44
0.0000000001
40
0
40
0
40
0
40
0
40
0.036553879601844641
40
0.036553879601844641
40
0.07310775920369196
40
0.07310775920369196
40
0.07310775920369196
40
0.07310775920369196
10
265.94710863528354
20
-61.057677892310139
30
-3.5527136788005009e-14
10
266.05480140234198
20
-61.000679819531584
30
-3.5527136788005009e-14
10
266.1690390846116
20
-60.957015460540532
30
-3.5527136788005009e-14
10
266.40554901741376
20
-60.898286411556157
30
-3.5527136788005009e-14
10
266.52694261496907
20
-60.883439904592755
30
-3.5527136788005009e-14
10
266.64878888030853
20
-60.883439910026731
30
-3.5527136788005009e-14
0
ARC
5
255
100
AcDbEntity
8
0
100
AcDbCircle
10
264.30985488631438
20
-57.96423318430476
30
-3.5527136788005003e-14
40
3.5000000000000093
210
4.3747419497627329e-17
220
4.8014423086406584e-17
230
1
100
AcDbArc
50
137.6623845147947
51
297.89072763456551
0
SPLINE
5
256
100
AcDbEntity
8
0
100
AcDbSpline
70
0
71
3
72
18
73
14
74
0
42
0.000000001
43
0.0000000001
44
0.0000000001
40
0
40
0
40
0
40
0
40
0.058596671008036123
40
0.058596671008036123
40
0.1171933420160729
40
0.1171933420160729
40
0.17579001302410896
40
0.17579001302410896
40
0.23438668403214727
40
0.23438668403214727
40
0.26525488734173314
40
0.26525488734173314
40
0.29612309065132031
40
0.29612309065132031
40
0.29612309065132031
40
0.29612309065132031
10
267.20777422714593
20
-95.107405374912091
30
-3.7747582837255322e-14
10
267.20777423585668
20
-94.912083138218634
30
-3.7747582837255322e-14
10
267.24592502063109
20
-94.718628290268214
30
-3.5527136788005009e-14
10
267.39423335575316
20
-94.357231358459074
30
-3.7747582837255322e-14
10
267.50297299758267
20
-94.192744426244985
30
-3.5527136788005009e-14
10
267.77738197302904
20
-93.914710581574511
30
-3.7747582837255322e-14
10
267.94042780727608
20
-93.803821824213372
30
-3.7747582837255322e-14
10
268.29984744660794
20
-93.650783830727008
30
-3.7747582837255322e-14
10
268.49278500404182
20
-93.61009772123171
30
-3.7747582837255322e-14
10
268.79097557409978
20
-93.606184367691128
30
-3.7747582837255322e-14
10
268.89372715987781
20
-93.615423979350794
30
-3.7747582837255322e-14
10
269.095714697586
20
-93.654790775455524
30
-3.7747582837255322e-14
10
269.19441567581134
20
-93.684813695048476
30
-3.7747582837255322e-14
10
269.28926364233172
20
-93.724701547249211
30
-3.7747582837255322e-14
0
LINE
5
257
100
AcDbEntity
8
0
100
AcDbLine
10
267.20777422714593
20
-95.107405374912091
30
-3.7747582837255322e-14
11
267.20777435065895
21
-97.480248864461387
31
-3.7813442486133845e-14
0
ARC
5
258
100
AcDbEntity
8
0
100
AcDbCircle
10
265.70777412132435
20
-97.480248821818407
30
-3.5527136788005009e-14
40
1.5000000000000124
210
1.26907815646109e-16
220
-2.7755574693722648e-17
230
1
100
AcDbArc
50
270.00000620472122
51
359.99999829245274
0
LINE
5
259
100
AcDbEntity
8
0
100
AcDbLine
10
265.70777428376357
20
-98.980248821818421
30
-3.5568770170660402e-14
11
251.70777428376363
21
-98.980248173209048
31
-3.5970873400880417e-14
0
ARC
5
260
100
AcDbEntity
8
0
100
AcDbCircle
10
251.70777412132438
20
-97.480248197461464
30
-3.5527136788005009e-14
40
1.4999999999999885
210
1.2690781564611041e-16
220
-2.7755574641814241e-17
230
1
100
AcDbArc
50
179.99999658490543
51
270.00000620472235
0
LINE
5
261
100
AcDbEntity
8
0
100
AcDbLine
10
250.20777412132441
20
-97.480248106313624
30
-3.5336775062005986e-14
11
250.20777422713155
21
-95.107726338192123
31
-3.324084001825691e-14
0
SPLINE
5
262
100
AcDbEntity
8
0
100
AcDbSpline
70
0
71
3
72
18
73
14
74
0
42
0.000000001
43
0.0000000001
44
0.0000000001
40
0
40
0
40
0
40
0
40
0.05859667100804334
40
0.05859667100804334
40
0.11719334201608181
40
0.11719334201608181
40
0.17579001302412106
40
0.17579001302412106
40
0.2343866840321619
40
0.2343866840321619
40
0.26524516869417342
40
0.26524516869417342
40
0.29610365335618655
40
0.29610365335618655
40
0.29610365335618655
40
0.29610365335618655
10
248.12646364235263
20
-93.724947184087199
30
-3.5527136788005009e-14
10
248.30652197846379
20
-93.64925192833212
30
-3.3306690738754696e-14
10
248.4996438254035
20
-93.609449757423718
30
-3.5527136788005009e-14
10
248.8902740415912
20
-93.606112275001692
30
-3.5527136788005009e-14
10
249.08404777306254
20
-93.642608871639098
30
-3.5527136788005009e-14
10
249.44669859816003
20
-93.787824172636704
30
-3.5527136788005009e-14
10
249.6121085522384
20
-93.895154539570896
30
-3.5527136788005009e-14
10
249.89247668281143
20
-94.167178097276349
30
-3.5527136788005009e-14
10
250.00475438716546
20
-94.329270594571639
30
-3.5527136788005009e-14
10
250.12390987938048
20
-94.602612099667027
30
-3.5527136788005009e-14
10
250.15520597992378
20
-94.70088252615561
30
-3.5527136788005009e-14
10
250.19719372434253
20
-94.902275368939684
30
-3.5527136788005009e-14
10
250.20777423171887
20
-95.004864722652073
30
-3.5527136788005009e-14
10
250.20777422713155
20
-95.107726338192123
30
-3.5527136788005009e-14
0
ARC
5
263
100
AcDbEntity
8
0
100
AcDbCircle
10
246.77007227786859
20
-90.498462647264986
30
-3.3306690738754696e-14
40
3.5000000000000115
210
1.2690781545570835e-16
220
-2.7755574263516022e-17
230
1
100
AcDbArc
50
136.84777869609604
51
292.80154159345636
0
LINE
5
264
100
AcDbEntity
8
0
100
AcDbLine
10
244.2166850264494
20
-88.10467620225991
30
-3.2916205023219296e-14
11
248.97917009295679
21
-83.024662202151816
31
-3.3770088608922264e-14
0
ARC
5
265
100
AcDbEntity
8
0
100
AcDbCircle
10
251.53255734437604
20
-85.418448647156865
30
-3.5527136788005009e-14
40
3.5000000000000204
210
1.269078160226669e-16
220
-2.775557453941992e-17
230
1
100
AcDbArc
50
-24.399016830154221
51
136.84777869609701
0
SPLINE
5
266
100
AcDbEntity
8
0
100
AcDbSpline
70
0
71
3
72
18
73
14
74
0
42
0.000000001
43
0.0000000001
44
0.0000000001
40
0
40
0
40
0
40
0
40
0.058596671008036789
40
0.058596671008036789
40
0.11719334201607476
40
0.11719334201607476
40
0.17579001302411534
40
0.17579001302411534
40
0.23438668403215446
40
0.23438668403215446
40
0.2673421468004718
40
0.2673421468004718
40
0.30029760956878926
40
0.30029760956878926
40
0.30029760956878926
40
0.30029760956878926
10
256.08601102427366
20
-88.983892661362219
30
-3.5527136788005009e-14
10
255.89068878758019
20
-88.983892652651448
30
-3.5527136788005009e-14
10
255.69723393962977
20
-88.945741867877061
30
-3.5527136788005009e-14
10
255.33583700782063
20
-88.797433532755022
30
-3.5527136788005009e-14
10
255.17135007560654
20
-88.688693890925464
30
-3.5527136788005009e-14
10
254.89331623093605
20
-88.414284915479143
30
-3.5527136788005009e-14
10
254.78242747357487
20
-88.251239081232058
30
-3.5527136788005009e-14
10
254.62938948008852
20
-87.891819441900225
30
-3.5527136788005009e-14
10
254.58870337059324
20
-87.698881884466317
30
-3.5527136788005009e-14
10
254.5846987165925
20
-87.393734381951859
30
-3.5527136788005009e-14
10
254.59532786024201
20
-87.284065570015997
30
-3.5527136788005009e-14
10
254.64034472003905
20
-87.069023881159652
30
-3.5527136788005009e-14
10
254.6745965249244
20
-86.964300240713754
30
-3.5527136788005009e-14
10
254.71997496713115
20
-86.86425945710063
30
-3.5527136788005009e-14
0
LINE
5
267
100
AcDbEntity
8
0
100
AcDbLine
10
256.08601102427366
20
-88.983892661362219
30
-3.5527136788005009e-14
11
265.7077747295703
21
-88.983893066210911
31
-3.6748213813744022e-14
0
ARC
5
268
100
AcDbEntity
8
0
100
AcDbCircle
10
265.70777443334026
20
-90.483893090463312
30
-3.5527136788005009e-14
40
1.5000000000000098
210
1.2690781587117171e-16
220
-2.7755573901520843e-17
230
1
100
AcDbArc
50
73.388950136977471
51
89.999988684846087
0
SPLINE
5
269
100
AcDbEntity
8
0
100
AcDbSpline
70
0
71
3
72
14
73
10
74
0
42
0.000000001
43
0.0000000001
44
0.0000000001
40
0
40
0
40
0
40
0
40
0.058596671008040821
40
0.058596671008040821
40
0.11719334201607906
40
0.11719334201607906
40
0.15216571038579171
40
0.15216571038579171
40
0.18713807875550939
40
0.18713807875550939
40
0.18713807875550939
40
0.18713807875550939
10
267.78959746639083
20
-88.475881235754514
30
-3.7747582837255322e-14
10
267.67672849037746
20
-88.635290678387719
30
-3.7747582837255322e-14
10
267.53380239440793
20
-88.771130259016289
30
-3.5527136788005009e-14
10
267.20392572529244
20
-88.98037769092646
30
-3.5527136788005009e-14
10
267.02012895289988
20
-89.051785022710362
30
-3.5527136788005009e-14
10
266.71304244475539
20
-89.106351395798796
30
-3.7747582837255322e-14
10
266.59627854576405
20
-89.113296738101383
30
-3.5527136788005009e-14
10
266.36350848627001
20
-89.100007166655303
30
-3.5527136788005009e-14
10
266.248293813239
20
-89.079817441404316
30
-3.5527136788005009e-14
10
266.13658420457102
20
-89.046491900782087
30
-3.7747582837255322e-14
0
ARC
5
270
100
AcDbEntity
8
0
100
AcDbCircle
10
270.64607227776554
20
-90.498392459946459
30
-3.7747582837255322e-14
40
3.4999999999999853
210
1.1775444573028362e-16
220
-4.952106091023459e-17
230
1
100
AcDbArc
50
-112.80895167525702
51
144.69980866795086
0
SPLINE
5
271
100
AcDbEntity
8
0
100
AcDbSpline
70
0
71
3
72
16
73
12
74
0
42
0.000000001
43
0.0000000001
44
0.0000000001
40
0
40
0
40
0
40
0
40
0.058596671008041369
40
0.058596671008041369
40
0.11719334201607884
40
0.11719334201607884
40
0.17579001302412076
40
0.17579001302412076
40
0.21401706815919855
40
0.21401706815919855
40
0.25224412329427753
40
0.25224412329427753
40
0.25224412329427753
40
0.25224412329427753
10
251.74180584373846
20
-107.76979194210709
30
-3.7747582837255322e-14
10
251.54648360704499
20
-107.76979194210926
30
-3.7747582837255322e-14
10
251.35302875739271
20
-107.73164116596449
30
-3.5527136788005009e-14
10
250.99163181896779
20
-107.58333284696366
30
-3.5527136788005009e-14
10
250.82714488190302
20
-107.47459321247156
30
-3.5527136788005009e-14
10
250.54911102499173
20
-107.20018424942778
30
-3.5527136788005009e-14
10
250.43822226035735
20
-107.03713842012723
30
-3.5527136788005009e-14
10
250.31178410211152
20
-106.74019025336739
30
-3.5527136788005009e-14
10
250.27700670887367
20
-106.61706740519483
30
-3.5527136788005009e-14
10
250.23941751172319
20
-106.36500776321427
30
-3.5527136788005009e-14
10
250.23675844458973
20
-106.2370951673352
30
-3.5527136788005009e-14
10
250.2502992140906
20
-106.11039315363463
30
-3.5527136788005009e-14
0
LINE
5
272
100
AcDbEntity
8
0
100
AcDbLine
10
251.74180584373846
20
-107.76979194210709
30
-3.7747582837255322e-14
11
256.1828706560101
21
-107.76979194205762
31
-3.8311188671722139e-14
0
ARC
5
273
100
AcDbEntity
8
0
100
AcDbCircle
10
256.18287065602681
20
-109.26979194205762
30
-3.7747582837255322e-14
40
1.4999999999999858
210
1.2690781564615902e-16
220
-2.7755573959853264e-17
230
1
100
AcDbArc
50
0
51
90.000000000638352
0
LINE
5
274
100
AcDbEntity
8
0
100
AcDbLine
10
257.68287065602681
20
-109.26979194204091
30
-3.7937944560724097e-14
11
257.68287065618563
21
-123.52905101555396
31
-3.8143356765015853e-14
0
ARC
5
275
100
AcDbEntity
8
0
100
AcDbCircle
10
256.18287065618563
20
-123.52905101557069
30
-3.5527136788005009e-14
40
1.5000000000000036
210
1.2690781564617828e-16
220
-2.7755573959854906e-17
230
1
100
AcDbArc
50
-89.999999999361648
51
0
0
LINE
5
276
100
AcDbEntity
8
0
100
AcDbLine
10
256.18287065620234
20
-125.02905101557069
30
-3.5568770148946911e-14
11
239.80161611093507
21
-125.02905101575321
31
-3.3448227556128033e-14
0
ARC
5
277
100
AcDbEntity
8
0
100
AcDbCircle
10
239.80161611091836
20
-123.52905101575318
30
-3.3306690738754696e-14
40
1.4999999999999858
210
1.2690781564614357e-16
220
-2.7755573959851785e-17
230
1
100
AcDbArc
50
180
51
270.00000000063835
0
LINE
5
278
100
AcDbEntity
8
0
100
AcDbLine
10
238.30161611091839
20
-123.52905101576992
30
-3.3116329015285947e-14
11
238.3016161107596
21
-109.26979194225683
31
-3.2910916819265972e-14
0
ARC
5
279
100
AcDbEntity
8
0
100
AcDbCircle
10
239.80161611075954
20
-109.26979194224012
30
-3.5527136788005009e-14
40
1.5000000000000036
210
1.2690781564617828e-16
220
-2.7755573959854906e-17
230
1
100
AcDbArc
50
90.000000000638352
51
180
0
LINE
5
280
100
AcDbEntity
8
0
100
AcDbLine
10
239.80161611074283
20
-107.76979194224012
30
-3.5485503427063108e-14
11
241.79842831287627
21
-107.76979194221788
31
-3.5780547862832641e-14
0
SPLINE
5
281
100
AcDbEntity
8
0
100
AcDbSpline
70
0
71
3
72
16
73
12
74
0
42
0.000000001
43
0.0000000001
44
0.0000000001
40
0
40
0
40
0
40
0
40
0.058596671008037109
40
0.058596671008037109
40
0.11719334201607426
40
0.11719334201607426
40
0.17579001302411087
40
0.17579001302411087
40
0.21401706815918886
40
0.21401706815918886
40
0.25224412329426588
40
0.25224412329426588
40
0.25224412329426588
40
0.25224412329426588
10
243.28993494248706
20
-106.11039315371221
30
-3.3306690738754696e-14
10
243.31069102775183
20
-106.3046094276735
30
-3.3306690738754696e-14
10
243.29331391649617
20
-106.50102301319863
30
-3.5527136788005009e-14
10
243.18424951191594
20
-106.87613374383866
30
-3.5527136788005009e-14
10
243.0936049337439
20
-107.05124462591753
30
-3.5527136788005009e-14
10
242.85029524863796
20
-107.35686449065375
30
-3.5527136788005009e-14
10
242.69995631490772
20
-107.48445158082856
30
-3.5527136788005009e-14
10
242.41812560148412
20
-107.64172926702015
30
-3.3306690738754696e-14
10
242.29939555484458
20
-107.68939349729315
30
-3.3306690738754696e-14
10
242.05275758511794
20
-107.7535551895005
30
-3.3306690738754696e-14
10
241.92585182999323
20
-107.76979194221637
30
-3.5527136788005009e-14
10
241.7984283128763
20
-107.76979194221781
30
-3.5527136788005009e-14
0
ARC
5
282
100
AcDbEntity
8
0
100
AcDbCircle
10
246.7701170782847
20
-105.73846264719901
30
-3.3306690738754703e-14
40
3.5000000000000435
210
6.2932128168470289e-16
220
-8.1448997929797274e-17
230
1
100
AcDbArc
50
-6.1001030077805556
51
186.10010300905779
0
SPLINE
5
283
100
AcDbEntity
8
0
100
AcDbSpline
70
0
71
3
72
16
73
12
74
0
42
0.000000001
43
0.0000000001
44
0.0000000001
40
0
40
0
40
0
40
0
40
0.058596671008037095
40
0.058596671008037095
40
0.11719334201607975
40
0.11719334201607975
40
0.17579001302411756
40
0.17579001302411756
40
0.21401813123716876
40
0.21401813123716876
40
0.25224624945021901
40
0.25224624945021901
40
0.25224624945021901
40
0.25224624945021901
10
275.61779834217447
20
-107.76979194184108
30
-3.9968028886505635e-14
10
275.422476105481
20
-107.76979194184324
30
-3.9968028886505635e-14
10
275.22902125582874
20
-107.73164116569846
30
-3.7747582837255322e-14
10
274.86762431740379
20
-107.58333284669763
30
-3.9968028886505635e-14
10
274.70313738033906
20
-107.47459321220553
30
-3.7747582837255322e-14
10
274.42510352342771
20
-107.20018424916177
30
-3.9968028886505635e-14
10
274.31421475879341
20
-107.03713841986121
30
-3.7747582837255322e-14
10
274.18777521231738
20
-106.74018699275324
30
-3.7747582837255322e-14
10
274.15299727868535
20
-106.61706057021283
30
-3.7747582837255322e-14
10
274.1154088154538
20
-106.36499365323078
30
-3.7747582837255322e-14
10
274.11275102815506
20
-106.23707744330417
30
-3.7747582837255322e-14
10
274.12629396296489
20
-106.11037209725291
30
-3.7747582837255322e-14
0
LINE
5
284
100
AcDbEntity
8
0
100
AcDbLine
10
275.61779834217447
20
-107.76979194184108
30
-3.9968028886505635e-14
11
280.66252382921556
21
-107.76979194178489
31
-4.0608243978598712e-14
0
ARC
5
285
100
AcDbEntity
8
0
100
AcDbCircle
10
280.66252382923227
20
-109.26979194178487
30
-3.9968028886505635e-14
40
1.4999999999999858
210
1.2690781564609591e-16
220
-2.7755574373443561e-17
230
1
100
AcDbArc
50
0
51
90.000000000638352
0
LINE
5
286
100
AcDbEntity
8
0
100
AcDbLine
10
282.16252382923227
20
-109.26979194176816
30
-4.0158390609974315e-14
11
282.16252382939115
21
-123.52905101528123
31
-4.0363802814266166e-14
0
ARC
5
287
100
AcDbEntity
8
0
100
AcDbCircle
10
280.66252382939115
20
-123.52905101529794
30
-3.9968028886505635e-14
40
1.5000000000000036
210
1.2690781564617828e-16
220
-2.7755573959854906e-17
230
1
100
AcDbArc
50
-89.999999999361648
51
0
0
LINE
5
288
100
AcDbEntity
8
0
100
AcDbLine
10
280.66252382940786
20
-125.02905101529794
30
-4.0009662247447537e-14
11
263.61411617294715
21
-125.02905101548791
31
-3.7804452710586258e-14
0
ARC
5
289
100
AcDbEntity
8
0
100
AcDbCircle
10
263.61411617293044
20
-123.52905101548787
30
-3.7747582837255322e-14
40
1.4999999999999858
210
1.2690781564615902e-16
220
-2.7755573959853264e-17
230
1
100
AcDbArc
50
180
51
270.00000000063835
0
LINE
5
290
100
AcDbEntity
8
0
100
AcDbLine
10
262.11411617293044
20
-123.52905101550459
30
-3.7557221113786548e-14
11
262.11411617277156
21
-109.26979194199154
31
-3.7351808909494792e-14
0
ARC
5
291
100
AcDbEntity
8
0
100
AcDbCircle
10
263.61411617277156
20
-109.26979194197483
30
-3.7747582837255322e-14
40
1.5000000000000036
210
1.2690781564617828e-16
220
-2.7755573959854906e-17
230
1
100
AcDbArc
50
90.000000000638352
51
180
0
LINE
5
292
100
AcDbEntity
8
0
100
AcDbLine
10
263.61411617275485
20
-107.76979194197482
30
-3.7705949476313421e-14
11
265.67443581423396
21
-107.76979194195187
31
-3.8009053502487566e-14
0
SPLINE
5
293
100
AcDbEntity
8
0
100
AcDbSpline
70
0
71
3
72
16
73
12
74
0
42
0.000000001
43
0.0000000001
44
0.0000000001
40
0
40
0
40
0
40
0
40
0.058596671008039912
40
0.058596671008039912
40
0.11719334201608034
40
0.11719334201608034
40
0.17579001302411873
40
0.17579001302411873
40
0.21401813123717395
40
0.21401813123717395
40
0.25224624945022572
40
0.25224624945022572
40
0.25224624945022572
40
0.25224624945022572
10
267.16594019340653
20
-106.11037209733044
30
-3.7747582837255322e-14
10
267.18669902048975
20
-106.30458807825136
30
-3.7747582837255322e-14
10
267.16932468207648
20
-106.50100190907578
30
-3.7747582837255322e-14
10
267.06026557307928
20
-106.8761141793796
30
-3.5527136788005009e-14
10
266.96962346701912
20
-107.0512263411029
30
-3.7747582837255322e-14
10
266.72631809648215
20
-107.3568496406984
30
-3.7747582837255322e-14
10
266.57598096395935
20
-107.48443885324889
30
-3.7747582837255322e-14
10
266.2941493765677
20
-107.64172224500669
30
-3.7747582837255322e-14
10
266.17541650614243
20
-107.68938906864641
30
-3.7747582837255322e-14
10
265.92877213043539
20
-107.7535542861478
30
-3.7747582837255322e-14
10
265.80186287494411
20
-107.76979194195044
30
-3.7747582837255322e-14
10
265.67443581423396
20
-107.76979194195187
30
-3.7747582837255322e-14
0
ARC
5
294
100
AcDbEntity
8
0
100
AcDbCircle
10
270.64611707818153
20
-105.73839245988053
30
-3.7747582837255316e-14
40
3.4999999999999827
210
-1.4996756658102234e-18
220
-1.4030705077567503e-17
230
1
100
AcDbArc
50
-6.1009118727582408
51
186.10091187403435
0
SPLINE
5
295
100
AcDbEntity
8
0
100
AcDbSpline
70
0
71
3
72
16
73
12
74
0
42
0.000000001
43
0.0000000001
44
0.0000000001
40
0
40
0
40
0
40
0
40
0.058596671008039329
40
0.058596671008039329
40
0.11719334201607794
40
0.11719334201607794
40
0.17579001302411698
40
0.17579001302411698
40
0.21400646575347793
40
0.21400646575347793
40
0.25222291848283895
40
0.25222291848283895
40
0.25222291848283895
40
0.25222291848283895
10
13.616880605029557
20
-107.76979194476004
30
-6.6613381477509392e-15
10
13.421558368336093
20
-107.76979194476223
30
-6.6613381477509392e-15
10
13.22810351868384
20
-107.73164116861743
30
-4.4408920985006262e-15
10
12.866706580258924
20
-107.58333284961662
30
-6.6613381477509392e-15
10
12.702219643194152
20
-107.47459321512453
30
-4.4408920985006262e-15
10
12.424185786282834
20
-107.20018425208073
30
-6.6613381477509392e-15
10
12.313297021648511
20
-107.0371384227802
30
-4.4408920985006262e-15
10
12.186872708652201
20
-106.74022277248162
30
-4.4408920985006262e-15
10
12.152100706248889
20
-106.61713557216906
30
-4.4408920985006262e-15
10
12.114504194993055
20
-106.36514848591295
30
-4.4408920985006262e-15
10
12.111832367824132
20
-106.2372719346164
30
-6.6613381477509392e-15
10
12.125351547303199
20
-106.11060315744211
30
-4.4408920985006262e-15
0
LINE
5
296
100
AcDbEntity
8
0
100
AcDbLine
10
13.616880605029557
20
-107.76979194476004
30
-6.6613381477509392e-15
11
20.439121182716406
21
-107.76979194468403
31
-7.5271337972753161e-15
0
ARC
5
297
100
AcDbEntity
8
0
100
AcDbCircle
10
20.439121182733125
20
-109.26979194468403
30
-6.6613381477509392e-15
40
1.4999999999999991
210
1.2690781564614539e-16
220
-2.7755573959853159e-17
230
1
100
AcDbArc
50
0
51
90.000000000638622
0
LINE
5
298
100
AcDbEntity
8
0
100
AcDbLine
10
21.939121182733125
20
-109.26979194466732
30
-6.8516998712196931e-15
11
21.939121182869755
21
-121.53302812817515
31
-7.0017113148416793e-15
0
ARC
5
299
100
AcDbEntity
8
0
100
AcDbCircle
10
18.93912118286973
20
-121.53302812820857
30
-6.6613381477509392e-15
40
3.0000000000000249
210
1.2690781564606323e-16
220
-2.7755574788448085e-17
230
1
100
AcDbArc
50
-89.999999999999943
51
0
0
LINE
5
300
100
AcDbEntity
8
0
100
AcDbLine
10
18.939121182869734
20
-124.5330281282086
30
-6.7446048721162849e-15
11
7.4891242623646148
21
-124.5330281282086
31
-5.2082440494149607e-15
0
ARC
5
301
100
AcDbEntity
8
0
100
AcDbCircle
10
7.4891242623646122
20
-123.03302812820861
30
-4.4408920985006262e-15
40
1.4999999999999991
210
1.2690781564611384e-16
220
-2.7755573961267581e-17
230
1
100
AcDbArc
50
180
51
270.00000000000011
0
LINE
5
302
100
AcDbEntity
8
0
100
AcDbLine
10
5.9891242623646139
20
-123.03302812820861
30
-4.2505303750314558e-15
11
5.9891242623646086
21
-118.67925016146742
31
-4.3200504884284971e-15
0
ARC
5
303
100
AcDbEntity
8
0
100
AcDbCircle
10
4.4891242623646068
20
-118.67925016146744
30
-4.4408920985006246e-15
40
1.5000000000000024
210
-8.0561073381417907e-17
220
-2.7755573961269371e-17
230
1
100
AcDbArc
50
0
51
89.999999999999929
0
LINE
5
304
100
AcDbEntity
8
0
100
AcDbLine
10
4.4891242623646086
20
-117.17925016146744
30
-4.3992587375587246e-15
11
4.057866110894536
21
-117.17925016146738
31
-4.3861620685179803e-15
0
ARC
5
305
100
AcDbEntity
8
0
100
AcDbCircle
10
4.0578661108945324
20
-115.67925016146742
30
-4.4408920985006262e-15
40
1.4999999999999987
210
1.2690781564611389e-16
220
-2.7755573961267581e-17
230
1
100
AcDbArc
50
180
51
270.00000000000011
0
LINE
5
306
100
AcDbEntity
8
0
100
AcDbLine
10
2.5578661108945338
20
-115.67925016146742
30
-4.2505303750314558e-15
11
2.5578661108945266
21
-110.76979194484984
31
-4.3046272654337698e-15
0
ARC
5
307
100
AcDbEntity
8
0
100
AcDbCircle
10
5.5578661108945386
20
-110.76979194484984
30
-4.4408920985006262e-15
40
3.0000000000000107
210
1.2690781590947029e-16
220
-2.7755574909763577e-17
230
1
100
AcDbArc
50
113.96302860989724
51
180
0
SPLINE
5
308
100
AcDbEntity
8
0
100
AcDbSpline
70
0
71
3
72
14
73
10
74
0
42
0.000000001
43
0.0000000001
44
0.0000000001
40
0
40
0
40
0
40
0
40
0.058596671008038573
40
0.058596671008038573
40
0.11719334201607809
40
0.11719334201607809
40
0.15914681364288352
40
0.15914681364288352
40
0.20110028526968818
40
0.20110028526968818
40
0.20110028526968818
40
0.20110028526968818
10
5.2046781224466532
20
-106.38210882879531
30
-4.4408920985006262e-15
10
5.2405586038732466
20
-106.57410718087036
30
-4.4408920985006262e-15
10
5.238594500772269
20
-106.77127817993824
30
-4.4408920985006262e-15
10
5.1591982324632779
20
-107.15376914344768
30
-4.4408920985006262e-15
10
5.0825251388546082
20
-107.33543228580436
30
-4.4408920985006262e-15
10
4.8949140740309609
20
-107.61317155474204
30
-4.4408920985006262e-15
10
4.8008127983910924
20
-107.71754114830934
30
-4.4408920985006262e-15
10
4.5864391907043451
20
-107.8971806390069
30
-4.4408920985006262e-15
10
4.4672162474776931
20
-107.97157117568213
30
-4.4408920985006262e-15
10
4.3394248928243186
20
-108.02836877465018
30
-4.4408920985006262e-15
0
ARC
5
309
100
AcDbEntity
8
0
100
AcDbCircle
10
8.6451170793140104
20
-105.73916265370023
30
-4.4408920985006254e-15
40
3.4999999999999991
210
-1.499625232342585e-18
220
-1.4050830133196092e-17
230
1
100
AcDbArc
50
-6.0920359371287667
51
190.58528530241051
0
ARC
5
310
100
AcDbEntity
8
0
100
AcDbCircle
10
175.15867408493406
20
-127.23323836055701
30
-2.664535259100376e-14
40
1.499999999999968
210
1.2690781564612291e-16
220
-2.7755574269998859e-17
230
1
100
AcDbArc
50
-89.999999999362771
51
2.3567864403541509e-05
0
LINE
5
311
100
AcDbEntity
8
0
100
AcDbLine
10
176.65867408493392
20
-127.23323774336997
30
-2.6835714297342546e-14
11
176.65867307909275
21
-124.78865990237171
31
-2.657750180568746e-14
0
ARC
5
312
100
AcDbEntity
8
0
100
AcDbCircle
10
180.15867307909275
20
-124.78865846226854
30
-2.6645352591003757e-14
40
3.5000000000000142
210
1.269078156461092e-16
220
-2.7755574269996705e-17
230
1
100
AcDbArc
50
0
51
180.00002356786436
0
LINE
5
313
100
AcDbEntity
8
0
100
AcDbLine
10
183.65867307909275
20
-124.78865846226853
30
-2.7089529945765141e-14
11
183.65867307911984
21
-127.23323836046231
31
-2.8933649358361942e-14
0
ARC
5
314
100
AcDbEntity
8
0
100
AcDbCircle
10
185.15867307911981
20
-127.23323836044558
30
-2.6645352591003751e-14
40
1.4999999999999858
210
-1.5255311782385004e-15
220
-2.7755573978274389e-17
230
1
100
AcDbArc
50
180
51
270.00000000063835
0
LINE
5
315
100
AcDbEntity
8
0
100
AcDbLine
10
185.15867307913652
20
-128.73323836044557
30
-2.6686985951945655e-14
11
191.65185032439734
21
-128.73323836170667
31
-2.7469387531802828e-14
0
ARC
5
316
100
AcDbEntity
8
0
100
AcDbCircle
10
191.65185032438063
20
-127.23323836037326
30
-2.886579864025407e-14
40
1.5000000013333903
210
1.269078156354283e-16
220
9.3094073814136952e-16
230
1
100
AcDbArc
50
-89.999999999361648
51
0
0
LINE
5
317
100
AcDbEntity
8
0
100
AcDbLine
10
193.15185032438058
20
-127.23323836035652
30
-2.905616036372275e-14
11
193.15185032426132
21
-116.53907038609586
31
-2.8568975866533854e-14
0
ARC
5
318
100
AcDbEntity
8
0
100
AcDbCircle
10
194.65185032426143
20
-116.53907038607912
30
-2.886579864025407e-14
40
1.5000000000000036
210
1.2690781564615528e-16
220
-2.7755573961267624e-17
230
1
100
AcDbArc
50
90
51
180
0
LINE
5
319
100
AcDbEntity
8
0
100
AcDbLine
10
194.65185032426143
20
-115.03907038607912
30
-2.8824165279312169e-14
11
212.98911611081107
21
-115.03907038607909
31
-3.1192940986147216e-14
0
ARC
5
320
100
AcDbEntity
8
0
100
AcDbCircle
10
212.98911611081112
20
-113.53907038607913
30
-3.1086244689504396e-14
40
1.499999999999968
210
1.2690781564611751e-16
220
-7.1130864428551577e-17
230
1
100
AcDbArc
50
-90.000000000002188
51
0
0
LINE
5
321
100
AcDbEntity
8
0
100
AcDbLine
10
214.48911611081104
20
-113.53907038607906
30
-3.1276606412973568e-14
11
214.48911611081104
21
-109.26979194250541
31
-3.0967748413574347e-14
0
ARC
5
322
100
AcDbEntity
8
0
100
AcDbCircle
10
215.98911611081104
20
-109.26979194250541
30
-3.1086244689504383e-14
40
1.5000000000000036
210
1.2690781564610203e-16
220
-2.7755573959854906e-17
230
1
100
AcDbArc
50
90.000000000638352
51
180
0
LINE
5
323
100
AcDbEntity
8
0
100
AcDbLine
10
215.98911611079433
20
-107.76979194250541
30
-3.1044611328562482e-14
11
232.37037065601939
21
-107.76979194232291
31
-3.3165153921376727e-14
0
ARC
5
324
100
AcDbEntity
8
0
100
AcDbCircle
10
232.37037065603613
20
-109.26979194232291
30
-3.3306690738754696e-14
40
1.4999999999999858
210
1.2690781564615902e-16
220
-2.7755573959853264e-17
230
1
100
AcDbArc
50
0
51
90.000000000639432
0
LINE
5
325
100
AcDbEntity
8
0
100
AcDbLine
10
233.8703706560361
20
-109.2697919423062
30
-3.3497052462223471e-14
11
233.87037065623628
21
-127.23323794329551
31
-3.38052765082208e-14
0
ARC
5
326
100
AcDbEntity
8
0
100
AcDbCircle
10
235.37037065623625
20
-127.23323794327879
30
-3.5527136788005016e-14
40
1.4999999999999858
210
1.1479068531897982e-15
220
-2.7755573946012835e-17
230
1
100
AcDbArc
50
180
51
269.99999981502066
0
LINE
5
327
100
AcDbEntity
8
0
100
AcDbLine
10
235.3703706513935
20
-128.73323794327877
30
-3.5568770148326525e-14
11
289.98731123764372
21
-128.73323788747544
31
-4.0238007365814763e-14
0
ARC
5
328
100
AcDbEntity
8
0
100
AcDbCircle
10
289.98731124248638
20
-127.23323811960717
30
-4.2188474935755999e-14
40
1.4999997678682675
210
1.2690781991538897e-16
220
1.3003119141135484e-15
230
1
100
AcDbArc
50
269.9999998150239
51
300.00908044951103
0
LINE
5
329
100
AcDbEntity
8
0
100
AcDbLine
10
290.73751710948608
20
-128.5321573461643
30
-4.2319734173647464e-14
11
299.50071203963984
21
-123.47087245958271
31
-4.0939667946935697e-14
0
ARC
5
330
100
AcDbEntity
8
0
100
AcDbCircle
10
300.25091790663953
20
-124.76979168613965
30
-4.2188474935755949e-14
40
1.5000000000000036
210
1.269078156461004e-16
220
-2.7755573959857914e-17
230
1
100
AcDbArc
50
90.000000000638352
51
120.00908044951457
0
LINE
5
331
100
AcDbEntity
8
0
100
AcDbLine
10
300.25091790662282
20
-123.26979168613965
30
-4.2146841574814047e-14
11
306.23716166827728
21
-123.26979168607296
31
-4.2948176055470808e-14
0
ARC
5
332
100
AcDbEntity
8
0
100
AcDbCircle
10
306.23716166829394
20
-124.76979168607299
30
-4.2188474935755949e-14
40
1.5000000000000036
210
1.2690781538447416e-16
220
-2.7755575026488151e-17
230
1
100
AcDbArc
50
59.991215955675365
51
90.000000000636177
0
LINE
5
333
100
AcDbEntity
8
0
100
AcDbLine
10
306.98736081565426
20
-123.47086857853358
30
-4.2247628712885794e-14
11
315.75067386232263
21
-128.53216122742344
31
-4.3441086936782381e-14
0
ARC
5
334
100
AcDbEntity
8
0
100
AcDbCircle
10
316.50087300968312
20
-127.23323811988362
30
-4.44089209850064e-14
40
1.5000000000004436
210
4.2988166623080518e-16
220
4.9682478124054578e-16
230
1
100
AcDbArc
50
239.9912159556776
51
269.99999999999562
0
LINE
5
335
100
AcDbEntity
8
0
100
AcDbLine
10
316.500873009683
20
-128.73323811988405
30
-4.4450554346568549e-14
11
324.74443400054611
21
-128.73323811988402
31
-4.5455093303502163e-14
0
ARC
5
336
100
AcDbEntity
8
0
100
AcDbCircle
10
324.74443400054611
20
-127.23323811988429
30
-4.6629367034256764e-14
40
1.4999999999997193
210
1.2690781566712953e-16
220
7.8284915383654597e-16
230
1
100
AcDbArc
50
270
51
296.58603616071741
0
LINE
5
337
100
AcDbEntity
8
0
100
AcDbLine
10
325.41574573419894
20
-128.57463312369907
30
-4.6751792928673471e-14
11
329.78523720590931
21
-126.38788657498458
31
-4.4902749197261921e-14
0
ARC
5
338
100
AcDbEntity
8
0
100
AcDbCircle
10
330.45654893956214
20
-127.72928157879966
30
-4.6629367034256575e-14
40
1.4999999999999989
210
1.2690781564591655e-16
220
-2.7755574885839839e-17
230
1
100
AcDbArc
50
89.991215955672871
51
116.5860361607123
0
LINE
5
339
100
AcDbEntity
8
0
100
AcDbLine
10
330.45677890530396
20
-126.22928159642774
30
-4.6587762856867069e-14
11
347.12068165726225
21
-126.23183634763089
31
-4.874421744123494e-14
0
ARC
5
340
100
AcDbEntity
8
0
100
AcDbCircle
10
347.12091162300408
20
-124.73183636525901
30
-4.8849813083506894e-14
40
1.4999999999999634
210
1.2692286049742036e-16
220
7.0377637068536722e-17
230
1
100
AcDbArc
50
-90.008784044327129
51
0
0
LINE
5
341
100
AcDbEntity
8
0
100
AcDbLine
10
348.62091162300408
20
-124.73183636525896
30
-4.9040174806976079e-14
11
348.62091162300055
21
-0.76979061785653613
31
-4.5409175376450617e-14
0
ARC
5
342
100
AcDbEntity
8
0
100
AcDbCircle
10
347.12091162300061
20
-0.76979061785658076
30
-4.4408920985006255e-14
40
1.4999999999999147
210
6.668362609629478e-16
220
-2.7755574375401227e-17
230
1
100
AcDbArc
50
0
51
89.999999999743793
0
LINE
5
343
100
AcDbEntity
8
0
100
AcDbLine
10
347.12091162300732
20
0.73020938214340503
30
-4.4367287623443975e-14
11
-0.87358836233214276
21
0.73020938370542288
31
-2.4569913496357295e-16
0
ARC
5
344
100
AcDbEntity
8
0
100
AcDbCircle
10
-0.87358836233885129
20
-0.76979061629458134
30
0
40
1.500000000000004
210
1.2690781564689409e-16
220
1.6379942330848059e-16
230
1
100
AcDbArc
50
89.999999999743764
51
180
0
LINE
5
345
100
AcDbEntity
8
0
100
AcDbLine
10
-2.3735883623388498
20
-0.76979061625126444
30
1.9036172347025825e-16
11
-2.3735883659493142
21
-125.03302812816528
31
-3.4489975251989762e-15
0
ARC
5
346
100
AcDbEntity
8
0
100
AcDbCircle
10
-0.87358836592762013
20
-125.03302812820857
30
-4.440892098500627e-15
40
1.500000000021694
210
6.6126304885740269e-16
220
-2.7755573976689112e-17
230
1
100
AcDbArc
50
180
51
269.99999999999955
0
LINE
5
347
100
AcDbEntity
8
0
100
AcDbLine
10
-0.87358836592763167
20
-126.5330281282086
30
-4.4825254594425277e-15
11
19.462604211928902
21
-126.53302812820854
31
-7.021713877115013e-15
0
ARC
5
348
100
AcDbEntity
8
0
100
AcDbCircle
10
19.462604211928909
20
-129.53302812820854
30
-6.6613381477509392e-15
40
2.9999999999999889
210
1.2690781558221029e-16
220
-2.7755574568754113e-17
230
1
100
AcDbArc
50
39.293883287062791
51
90.000000000000142
0
ARC
5
349
100
AcDbEntity
8
0
100
AcDbCircle
10
24.106051150044191
20
-125.73323859023316
30
-6.6613381477509392e-15
40
2.9999999999999698
210
2.0959951567092576e-18
220
-1.2989061714638305e-16
230
1
100
AcDbArc
50
219.29388328706236
51
270.00000000000034
0
LINE
5
350
100
AcDbEntity
8
0
100
AcDbLine
10
24.106051150044209
20
-128.7332385902331
30
-6.7446048721162849e-15
11
33.30162426235529
21
-128.73323859023304
31
-7.82832824504843e-15
0
ARC
5
351
100
AcDbEntity
8
0
100
AcDbCircle
10
33.301624262355276
20
-127.2332385902331
30
-8.8817841970012555e-15
40
1.4999999999999503
210
1.2690781564608763e-16
220
7.0230396796857536e-16
230
1
100
AcDbArc
50
-89.999999999999503
51
0
0
LINE
5
352
100
AcDbEntity
8
0
100
AcDbLine
10
34.801624262355261
20
-127.23323859023309
30
-9.0721459204703958e-15
11
34.801624262355276
21
-125.57922588979352
31
-8.8358761248519689e-15
0
ARC
5
353
100
AcDbEntity
8
0
100
AcDbCircle
10
33.301624262355261
20
-125.57922588979353
30
-6.6613381477509361e-15
40
1.5000000000000169
210
1.4496919847340057e-15
220
-2.7755573961250944e-17
230
1
100
AcDbArc
50
0
51
89.99999999999946
0
LINE
5
354
100
AcDbEntity
8
0
100
AcDbLine
10
33.301624262355276
20
-124.07922588979352
30
-6.6197047868090377e-15
11
31.301624262355283
21
-124.07922588979348
31
-6.4075225164587221e-15
0
ARC
5
355
100
AcDbEntity
8
0
100
AcDbCircle
10
31.301624262355276
20
-122.57922588979353
30
-6.6613381477509392e-15
40
1.4999999999999991
210
1.2690781564611349e-16
220
-2.7755573961267581e-17
230
1
100
AcDbArc
50
180
51
270.00000000000023
0
LINE
5
356
100
AcDbEntity
8
0
100
AcDbLine
10
29.801624262355276
20
-122.57922588979353
30
-6.4709764242817689e-15
11
29.801624262355272
21
-118.67923076740239
31
-6.5530915433052545e-15
0
ARC
5
357
100
AcDbEntity
8
0
100
AcDbCircle
10
28.301624262355279
20
-118.67923076740239
30
-8.8817841970012507e-15
40
1.4999999999999947
210
-1.55246176913067e-15
220
-2.7755573961266545e-17
230
1
100
AcDbArc
50
0
51
90
0
LINE
5
358
100
AcDbEntity
8
0
100
AcDbLine
10
28.301624262355279
20
-117.17923076740237
30
-8.8401508360593524e-15
11
27.870366172907254
21
-117.17923076740236
31
-8.8270541748896886e-15
0
ARC
5
359
100
AcDbEntity
8
0
100
AcDbCircle
10
27.870366172907254
20
-115.67923076740237
30
-8.8817841970012523e-15
40
1.4999999999999991
210
1.2690781564611349e-16
220
-2.7755573961267581e-17
230
1
100
AcDbArc
50
180
51
270
0
LINE
5
360
100
AcDbEntity
8
0
100
AcDbLine
10
26.370366172907254
20
-115.67923076740237
30
-8.691422473532082e-15
11
26.370366172907246
21
-109.26979194460124
31
-8.7038865406598925e-15
0
ARC
5
361
100
AcDbEntity
8
0
100
AcDbCircle
10
27.870366172907239
20
-109.26979194460124
30
-8.8817841970012523e-15
40
1.5000000000000049
210
1.2690781564602484e-16
220
-2.775557406992963e-17
230
1
100
AcDbArc
50
96.107031650488764
51
180
0
SPLINE
5
362
100
AcDbEntity
8
0
100
AcDbSpline
70
0
71
3
72
16
73
12
74
0
42
0.000000001
43
0.0000000001
44
0.0000000001
40
0
40
0
40
0
40
0
40
0.05859667100803935
40
0.05859667100803935
40
0.11719334201607842
40
0.11719334201607842
40
0.1757900130241174
40
0.1757900130241174
40
0.20624498196821772
40
0.20624498196821772
40
0.23669995091231785
40
0.23669995091231785
40
0.23669995091231785
40
0.23669995091231785
10
29.042180632466923
20
-106.12249982092382
30
-6.6613381477509392e-15
10
29.063577198768037
20
-106.31664657752167
30
-6.6613381477509392e-15
10
29.046848023487808
20
-106.51311641049575
30
-6.6613381477509392e-15
10
28.939021459990446
20
-106.88858483365821
30
-8.8817841970012523e-15
10
28.848954952490359
20
-107.06399374107504
30
-6.6613381477509392e-15
10
28.606654633259893
20
-107.37041446473543
30
-8.8817841970012523e-15
10
28.456737344645227
20
-107.49849673184862
30
-6.6613381477509392e-15
10
28.198007842089631
20
-107.64400383682313
30
-6.6613381477509392e-15
10
28.104700781047445
20
-107.6846553069812
30
-8.8817841970012523e-15
10
27.911311308345191
20
-107.74648541470116
30
-6.6613381477509392e-15
10
27.811727467268263
20
-107.76750465024168
30
-8.8817841970012523e-15
10
27.710787021241963
20
-107.77830460159299
30
-8.8817841970012523e-15
0
ARC
5
363
100
AcDbEntity
8
0
100
AcDbCircle
10
32.521117079210811
20
-105.73909246638168
30
-6.66133814775094e-15
40
3.4999999999999858
210
1.2690781554349245e-16
220
-2.7755573936267297e-17
230
1
100
AcDbArc
50
-6.092844789942129
51
186.28908509068683
0
SPLINE
5
364
100
AcDbEntity
8
0
100
AcDbSpline
70
0
71
3
72
16
73
12
74
0
42
0.000000001
43
0.0000000001
44
0.0000000001
40
0
40
0
40
0
40
0
40
0.058596671008039274
40
0.058596671008039274
40
0.11719334201607873
40
0.11719334201607873
40
0.17579001302411795
40
0.17579001302411795
40
0.21400752881310742
40
0.21400752881310742
40
0.25222504460209566
40
0.25222504460209566
40
0.25222504460209566
40
0.25222504460209566
10
37.492873113460391
20
-107.76979194449403
30
-8.8817841970012523e-15
10
37.297550876766927
20
-107.76979194449621
30
-8.8817841970012523e-15
10
37.104096027114679
20
-107.73164116835142
30
-6.6613381477509392e-15
10
36.742699088689761
20
-107.58333284935061
30
-8.8817841970012523e-15
10
36.578212151625003
20
-107.47459321485849
30
-8.8817841970012523e-15
10
36.300178294713675
20
-107.2001842518147
30
-8.8817841970012523e-15
10
36.189289530079357
20
-107.03713842251418
30
-8.8817841970012523e-15
10
36.0628638288768
20
-106.74021951192371
30
-6.6613381477509392e-15
10
36.028091285848767
20
-106.61712873738099
30
-8.8817841970012523e-15
10
35.990495507497599
20
-106.36513437627033
30
-8.8817841970012523e-15
10
35.987824959384518
20
-106.2372542108852
30
-8.8817841970012523e-15
10
36.001346303173833
20
-106.11058210106032
30
-8.8817841970012523e-15
0
LINE
5
365
100
AcDbEntity
8
0
100
AcDbLine
10
37.492873113460391
20
-107.76979194449403
30
-8.8817841970012523e-15
11
44.251620656192728
21
-107.76979194441876
31
-9.7395220841508304e-15
0
ARC
5
366
100
AcDbEntity
8
0
100
AcDbCircle
10
44.25162065620944
20
-109.26979194441871
30
-1.1102230246251565e-14
40
1.4999999999999947
210
1.2690781564613657e-16
220
-2.7755573961268872e-17
230
1
100
AcDbArc
50
0
51
90.000000000638352
0
LINE
5
367
100
AcDbEntity
8
0
100
AcDbLine
10
45.751620656209433
20
-109.26979194441873
30
-1.129259196972077e-14
11
45.751620656209454
21
-121.78125536303158
31
-1.1449493099925933e-14
0
ARC
5
368
100
AcDbEntity
8
0
100
AcDbCircle
10
47.251620656209425
20
-121.78125536303159
30
-1.1102230246251551e-14
40
1.499999999999968
210
-2.3150856911625964e-16
220
-2.7755574186078215e-17
230
1
100
AcDbArc
50
180
51
230.00000000000347
0
LINE
5
369
100
AcDbEntity
8
0
100
AcDbLine
10
46.287439241679706
20
-122.93032202771009
30
-1.1011761093615828e-14
11
52.784859567355923
21
-128.38230502658814
31
-1.2078126584023623e-14
0
ARC
5
370
100
AcDbEntity
8
0
100
AcDbCircle
10
53.749040981885727
20
-127.2332383619094
30
-1.1102230246251584e-14
40
1.5000000000002098
210
-3.3005653401054894e-16
220
-5.7234447935082302e-16
230
1
100
AcDbArc
50
230.00000000000685
51
270.00000000063477
0
LINE
5
371
100
AcDbEntity
8
0
100
AcDbLine
10
53.749040981902347
20
-128.73323836190968
30
-1.1143863607193467e-14
11
75.082680264888921
21
-128.73323836170687
31
-1.3809635807437408e-14
0
ARC
5
372
100
AcDbEntity
8
0
100
AcDbCircle
10
75.082680264872181
20
-127.23323836167198
30
-1.3322676295501872e-14
40
1.5000000000348734
210
1.2690781564940349e-16
220
-3.2463967461472723e-16
230
1
100
AcDbArc
50
-89.999999999360583
51
0.00016842943895986707
0
LINE
5
373
100
AcDbEntity
8
0
100
AcDbLine
10
76.582680264865729
20
-127.23323395218223
30
-1.3513037896582269e-14
11
76.582673079540371
21
-124.78896294047686
31
-1.3254833238120455e-14
0
ARC
5
374
100
AcDbEntity
8
0
100
AcDbCircle
10
80.08267307952535
20
-124.7889526516675
30
-1.3322676295501877e-14
40
3.5000000000000027
210
1.2690781564610851e-16
220
-2.775557436762777e-17
230
1
100
AcDbArc
50
90.00016843010242
51
180.00016842943896
0
LINE
5
375
100
AcDbEntity
8
0
100
AcDbLine
10
80.082662790715887
20
-121.28895265168262
30
-1.3225530479485264e-14
11
84.876912790695059
21
-121.28893855821838
31
-1.3931103699488402e-14
0
ARC
5
376
100
AcDbEntity
8
0
100
AcDbCircle
10
84.876923079504536
20
-124.78893855820326
30
-1.5543122344752198e-14
40
3.5000000000000027
210
1.2690781564614389e-16
220
-2.7755574781215741e-17
230
1
100
AcDbArc
50
0.00016842943895986707
51
90.000168430102647
0
LINE
5
377
100
AcDbEntity
8
0
100
AcDbLine
10
88.376923079489416
20
-124.78892826939372
30
-1.5987299413939958e-14
11
88.376930264942473
21
-127.23324277099694
31
-1.5610966619123092e-14
0
ARC
5
378
100
AcDbEntity
8
0
100
AcDbCircle
10
89.876930264936007
20
-127.23323836150718
30
-1.5543122344752195e-14
40
1.5000000000000189
210
-4.5229434654025052e-17
220
-2.775607998481387e-17
230
1
100
AcDbArc
50
180.00016842943896
51
270.00000000063835
0
LINE
5
379
100
AcDbEntity
8
0
100
AcDbLine
10
89.876930264952719
20
-128.73323836150718
30
-1.5584755705694093e-14
11
175.15867408495075
21
-128.73323836055698
31
-2.6686985952410878e-14
0
ENDSEC
0
SECTION
2
OBJECTS
0
DICTIONARY
5
C
100
AcDbDictionary
3
ACAD_GROUP
350
D
3
ACAD_MLINESTYLE
350
17
0
DICTIONARY
5
D
100
AcDbDictionary
0
DICTIONARY
5
1A
330
C
100
AcDbDictionary
0
DICTIONARY
5
17
100
AcDbDictionary
0
ENDSEC
0
EOF
