0
SECTION
2
HEADER
9
$INSUNITS
70
4
9
$ACADVER
1
AC1014
9
$HANDSEED
5
FFFF
0
ENDSEC
0
SECTION
2
TABLES
0
TABLE
2
VPORT
5
8
100
AcDbSymbolTable
0
ENDTAB
0
TABLE
2
LTYPE
5
5
100
AcDbSymbolTable
0
LTYPE
5
14
100
AcDbSymbolTableRecord
100
AcDbLinetypeTableRecord
2
BYBLOCK
70
0
0
LTYPE
5
15
100
AcDbSymbolTableRecord
100
AcDbLinetypeTableRecord
2
BYLAYER
70
0
0
LTYPE
5
16
100
AcDbSymbolTableRecord
100
AcDbLinetypeTableRecord
2
DASHED
70
0
3
Dashed __ __ __ __ __ __ __ __ __ __ __ __ __ _
72
65
73
2
40
0.75
49
0.5
74
0
49
-0.25
74
0
0
ENDTAB
0
TABLE
2
LAYER
5
2
100
AcDbSymbolTable
70
2
0
LAYER
5
50
100
AcDbSymbolTableRecord
100
AcDbLayerTableRecord
2
0
70
0
62
7
6
CONTINUOUS
0
ENDTAB
0
TABLE
2
STYLE
5
3
100
AcDbSymbolTable
70
1
0
STYLE
5
11
100
AcDbSymbolTableRecord
100
AcDbTextStyleTableRecord
2
STANDARD
70
0
0
ENDTAB
0
TABLE
2
VIEW
5
6
100
AcDbSymbolTable
70
0
0
ENDTAB
0
TABLE
2
UCS
5
7
100
AcDbSymbolTable
70
0
0
ENDTAB
0
TABLE
2
APPID
5
9
100
AcDbSymbolTable
70
2
0
APPID
5
12
100
AcDbSymbolTableRecord
100
AcDbRegAppTableRecord
2
ACAD
70
0
0
ENDTAB
0
TABLE
2
DIMSTYLE
5
A
100
AcDbSymbolTable
70
1
0
ENDTAB
0
TABLE
2
BLOCK_RECORD
5
1
100
AcDbSymbolTable
70
1
0
BLOCK_RECORD
5
1F
100
AcDbSymbolTableRecord
100
AcDbBlockTableRecord
2
*MODEL_SPACE
0
BLOCK_RECORD
5
1B
100
AcDbSymbolTableRecord
100
AcDbBlockTableRecord
2
*PAPER_SPACE
0
ENDTAB
0
ENDSEC
0
SECTION
2
BLOCKS
0
BLOCK
5
20
100
AcDbEntity
100
AcDbBlockBegin
2
*MODEL_SPACE
0
ENDBLK
5
21
100
AcDbEntity
100
AcDbBlockEnd
0
BLOCK
5
1C
100
AcDbEntity
100
AcDbBlockBegin
2
*PAPER_SPACE
0
ENDBLK
5
1D
100
AcDbEntity
100
AcDbBlockEnd
0
ENDSEC
0
SECTION
2
ENTITIES
0
LWPOLYLINE
5
100
100
AcDbEntity
8
0
100
AcDbPolyline
90
16
70
1
43
0.0
10
251.83284986755075
20
-94.009248572430181
42
0.41421356236879231
10
250.83284986650233
20
-95.009248571367038
10
250.83284985430259
20
-106.48459416070656
42
-0.41421356237308982
10
249.83284985323948
20
-107.48459415964342
10
243.08252236592375
20
-107.48459415246698
42
-0.41421356237310025
10
242.08252236698684
20
-106.48459415140383
10
242.08252238667347
20
-87.966880499184597
42
-0.41421356236876106
10
243.08252238772184
20
-86.96688050024774
10
246.45989603896422
20
-86.966880503788374
42
0.41421356237309503
10
247.45989604001261
20
-85.966880504836723
10
247.45989606175539
20
-65.226880529505337
42
-0.41421356237310542
10
247.95989606227954
20
-64.72688053002949
10
254.95989607101794
20
-64.726880537367947
42
-0.41421356237310025
10
255.45989607049378
20
-65.226880537892129
10
255.45989604136807
20
-93.009248576232778
42
-0.41421356237311585
10
254.45989604031965
20
-94.009248575184444
0
CIRCLE
5
101
100
AcDbEntity
8
0
100
AcDbCircle
10
296.21764076274832
20
-74.411678926096329
30
6.106226635438361e-15
40
2.3250000000000153
210
-1.811837870043115e-17
220
-8.4135468240629302e-26
230
1
0
CIRCLE
5
102
100
AcDbEntity
8
0
100
AcDbCircle
10
24.09161299663544
20
-116.52035774849269
30
1.1102230246251565e-15
40
2.325000000000002
210
-1.8118378700431156e-17
220
-8.4135468240629302e-26
230
1
0
CIRCLE
5
103
100
AcDbEntity
8
0
100
AcDbCircle
10
118.14176080337093
20
-14.568378517236045
30
2.7755575615628914e-15
40
2.3249999999999975
210
-1.8118378700431165e-17
220
-1.875330448097578e-25
230
1
0
CIRCLE
5
104
100
AcDbEntity
8
0
100
AcDbCircle
10
337.21749513790382
20
-97.470080642613382
30
6.6613381477509392e-15
40
2.3250000000000153
210
-1.8118378700431199e-17
220
-8.4135468240629256e-26
230
1
0
CIRCLE
5
105
100
AcDbEntity
8
0
100
AcDbCircle
10
203.86662780450817
20
-14.569625653612627
30
4.4408920985006262e-15
40
2.3250000000000153
210
-1.811837870043115e-17
220
-8.4135468240629302e-26
230
1
0
CIRCLE
5
106
100
AcDbEntity
8
0
100
AcDbCircle
10
8.5250291522044925
20
-27.427225524360885
30
5.5511151231257827e-16
40
2.3249999999999984
210
-1.8118378700431159e-17
220
-8.4135468240629325e-26
230
1
0
CIRCLE
5
107
100
AcDbEntity
8
0
100
AcDbCircle
10
170.6716947029129
20
-115.05840403005094
30
3.8857805861880479e-15
40
2.3250000000000153
210
-1.811837870043115e-17
220
-8.4135468240629302e-26
230
1
0
CIRCLE
5
108
100
AcDbEntity
8
0
100
AcDbCircle
10
337.21743316846619
20
-27.445455642640933
30
6.6613381477509392e-15
40
2.3250000000000153
210
-1.8118378700431199e-17
220
-8.4135468240629256e-26
230
1
0
LWPOLYLINE
5
109
100
AcDbEntity
8
0
100
AcDbPolyline
90
34
70
1
43
0.0
10
-0.43483966494535686
20
0.039130760969815215
42
0.41421354544306616
10
-2.4348396384028597
20
-1.9608691499672113
10
-2.4348450220740228
20
-122.85669360279378
42
0.41421352594159444
10
-2.1848350641399605
20
-123.10670361409194
10
48.137718103258081
20
-123.10671211439652
10
75.009904053626627
20
-123.10673721767799
42
0.4142138356791113
10
76.009904987800013
20
-122.10673721872675
10
76.009905005632362
20
-105.09687018813563
42
-0.41421356237309503
10
77.009905006680711
20
-104.09687018918397
10
87.804155006694401
20
-104.09687020050015
42
-0.41421356237310025
10
88.804155005646066
20
-105.0968702015485
10
88.804154987813689
20
-122.10675103702498
42
0.41421328906709254
10
89.804154053640275
20
-123.10675103807286
10
175.08590405391215
20
-123.10683070601577
42
0.41421383567912951
10
176.08590498808564
20
-122.10683070706452
10
176.08590500591802
20
-105.09687035019664
42
-0.41421356237310542
10
177.08590500696641
20
-104.09687035124497
10
183.0859050069663
20
-104.09687035753507
42
-0.41421356237308982
10
184.08590500591799
20
-105.09687035858343
10
184.08590498808553
20
-122.10684004670186
42
0.41421328906711335
10
185.0859040539122
20
-123.10684004774981
10
194.10415405396637
20
-123.10684847235913
42
0.41421383567908787
10
195.10415498813981
20
-122.10684847340788
10
195.10415500597225
20
-105.09687038099436
42
-0.41421356237310025
10
196.10415500702064
20
-104.09687038204271
10
202.60415500702061
20
-104.09687038885698
42
-0.41421356237308982
10
203.60415500597225
20
-105.09687038990535
10
203.60415498813975
20
-122.10685828013195
42
0.41421328906709776
10
204.60415405396643
20
-123.10685828117985
10
211.13095567764628
20
-123.10686437834437
10
348.29415496481994
20
-123.10687209586749
42
0.41421361732170198
10
348.54416997726838
20
-122.85685706464882
10
348.54415409862617
20
-1.9608643715031882
42
0.4142135277911731
10
346.5441540720837
20
0.039135365814112477
0
CIRCLE
5
110
100
AcDbEntity
8
0
100
AcDbCircle
10
241.64945274723848
20
-116.52026340157579
30
4.9960036108132044e-15
40
0.85090000000000943
210
-1.8118378706960983e-17
220
-1.8753304480281579e-25
230
1
0
SPLINE
5
111
100
AcDbEntity
8
0
100
AcDbSpline
70
0
71
3
72
8
73
4
74
0
42
0.000000001
43
0.0000000001
44
0.0000000001
40
0
40
0
40
0
40
0
40
1
40
1
40
1
40
1
10
18.06015973778392
20
-24.977082439938442
30
5.5511151231257827e-16
10
18.942078241161578
20
-24.467782848333421
30
5.5511151231257827e-16
10
20.028739241156831
20
-24.467779655074999
30
5.5511151231257827e-16
10
20.910660737771487
20
-24.977074063465619
30
1.1102230246251565e-15
0
SPLINE
5
112
100
AcDbEntity
8
0
100
AcDbSpline
70
0
71
3
72
8
73
4
74
0
42
0.000000001
43
0.0000000001
44
0.0000000001
40
0
40
0
40
0
40
0
40
1
40
1
40
1
40
1
10
20.910660737771487
20
-24.977074063465619
30
1.1102230246251565e-15
10
21.792583234383383
20
-25.486367471853285
30
1.1102230246251565e-15
10
22.335725000147061
20
-26.42755187578274
30
1.1102230246251565e-15
10
22.335416992855023
20
-27.445965876692242
30
1.1102230246251565e-15
0
SPLINE
5
113
100
AcDbEntity
8
0
100
AcDbSpline
70
0
71
3
72
8
73
4
74
0
42
0.000000001
43
0.0000000001
44
0.0000000001
40
0
40
0
40
0
40
0
40
1
40
1
40
1
40
1
10
22.335416992855023
20
-27.445965876692242
30
1.1102230246251565e-15
10
22.335730985563082
20
-28.464379875773961
30
1.1102230246251565e-15
10
21.792594751328597
20
-29.405566471836355
30
1.1102230246251565e-15
10
20.910675247950785
20
-29.9148660634443
30
5.5511151231257827e-16
0
SPLINE
5
114
100
AcDbEntity
8
0
100
AcDbSpline
70
0
71
3
72
8
73
4
74
0
42
0.000000001
43
0.0000000001
44
0.0000000001
40
0
40
0
40
0
40
0
40
1
40
1
40
1
40
1
10
20.910675247950785
20
-29.9148660634443
30
5.5511151231257827e-16
10
20.028756744570131
20
-30.424164655049285
30
1.1102230246251565e-15
10
18.942095744574885
20
-30.424167848307707
30
1.1102230246251565e-15
10
18.060174247963211
20
-29.914874439917121
30
5.5511151231257827e-16
0
SPLINE
5
115
100
AcDbEntity
8
0
100
AcDbSpline
70
0
71
3
72
8
73
4
74
0
42
0.000000001
43
0.0000000001
44
0.0000000001
40
0
40
0
40
0
40
0
40
1
40
1
40
1
40
1
10
18.060174247963211
20
-29.914874439917121
30
5.5511151231257827e-16
10
17.178251751348405
20
-29.405580031529446
30
1.1102230246251565e-15
10
16.635109985587636
20
-28.464396627599999
30
5.5511151231257827e-16
10
16.635416992879591
20
-27.445982626693404
30
1.1102230246251565e-15
0
SPLINE
5
116
100
AcDbEntity
8
0
100
AcDbSpline
70
0
71
3
72
8
73
4
74
0
42
0.000000001
43
0.0000000001
44
0.0000000001
40
0
40
0
40
0
40
0
40
1
40
1
40
1
40
1
10
16.635416992879591
20
-27.445982626693404
30
1.1102230246251565e-15
10
16.635104000171619
20
-26.427568627608792
30
1.1102230246251565e-15
10
17.178240234403187
20
-25.486381031546369
30
5.5511151231257827e-16
10
18.06015973778392
20
-24.977082439938442
30
5.5511151231257827e-16
0
LWPOLYLINE
5
117
100
AcDbEntity
8
0
100
AcDbPolyline
90
8
70
1
43
0.0
10
28.448371012551309
20
-108.78688011728258
10
28.448371036914921
20
-85.546880141951249
42
-0.41421356237310025
10
28.948371037439102
20
-85.046880142475402
10
35.948371037439138
20
-85.046880149813859
42
-0.41421356237309764
10
36.448371036914956
20
-85.54688015033804
10
36.448371012551249
20
-108.78688012566943
42
-0.41421356237308982
10
35.94837101202706
20
-109.28688012514526
10
28.948371012027089
20
-109.28688011780672
42
-0.41421356237308204
0
LWPOLYLINE
5
118
100
AcDbEntity
8
0
100
AcDbPolyline
90
8
70
1
43
0.0
10
12.072371011958921
20
-109.28688010011471
10
5.0723709944820659
20
-109.2868800927762
42
-0.41421356237310086
10
4.5723709950062412
20
-108.78688009225201
10
4.572371019369954
20
-85.546880103286895
42
-0.41421356237308915
10
5.0723710198941365
20
-85.046880103811077
10
12.072371037371063
20
-85.046880111149562
42
-0.41421356237310025
10
12.572371036846889
20
-85.546880111673744
10
12.572371012483121
20
-108.78688010063888
42
-0.41421356237308854
0
LWPOLYLINE
5
119
100
AcDbEntity
8
0
100
AcDbPolyline
90
8
70
1
43
0.0
10
257.84114613075349
20
-27.896880601363982
10
257.84114610586562
20
-51.636880576695503
42
-0.41421356237308982
10
257.34114610534147
20
-52.136880576171329
10
250.34114608786456
20
-52.136880568832879
42
-0.41421356237310025
10
249.84114608838871
20
-51.636880568308698
10
249.84114611327658
20
-27.896880592977304
42
-0.41421356237309243
10
250.34114611380076
20
-27.396880593501475
10
257.34114613127764
20
-27.3968806008398
42
-0.41421356237309764
0
LWPOLYLINE
5
120
100
AcDbEntity
8
0
100
AcDbPolyline
90
16
70
1
43
0.0
10
283.90790509344379
20
-50.636880617656487
10
283.9079050821594
20
-61.400860593022983
42
-0.41421356237308982
10
283.40790508163525
20
-61.900860592498802
10
261.6679050815917
20
-61.900860569707625
42
-0.41421356237310025
10
261.16790508211585
20
-61.400860569183436
10
261.16790509247573
20
-51.518870572797788
42
-0.41421356237308982
10
261.66790509299989
20
-51.018870573321962
10
273.21714610658171
20
-51.018870585429639
42
0.41421356237311585
10
273.71714610710592
20
-50.518870585953835
10
273.71714613082167
20
-27.896880631641601
42
-0.41421356237308982
10
274.21714613134588
20
-27.396880632165779
10
281.21714613134588
20
-27.396880639504104
42
-0.41421356237310025
10
281.71714613082167
20
-27.896880640028286
10
281.71714610803087
20
-49.636880615359793
42
0.41421356237305862
10
282.21714610750638
20
-50.136880615883975
10
283.407905093968
20
-50.136880617132306
42
-0.41421356237310025
0
SPLINE
5
121
100
AcDbEntity
8
0
100
AcDbSpline
70
0
71
3
72
8
73
4
74
0
42
0.000000001
43
0.0000000001
44
0.0000000001
40
0
40
0
40
0
40
0
40
1
40
1
40
1
40
1
10
325.45968873256896
20
-24.974856116698078
30
6.6613381477509392e-15
10
326.3418402349094
20
-24.465203524408409
30
6.6613381477509392e-15
10
327.42895223490461
20
-24.465200329824668
30
6.6613381477509392e-15
10
328.31110673255665
20
-24.974847737530574
30
6.6613381477509392e-15
0
SPLINE
5
122
100
AcDbEntity
8
0
100
AcDbSpline
70
0
71
3
72
8
73
4
74
0
42
0.000000001
43
0.0000000001
44
0.0000000001
40
0
40
0
40
0
40
0
40
1
40
1
40
1
40
1
10
328.31110673255665
20
-24.974847737530574
30
6.6613381477509392e-15
10
329.19326223020568
20
-25.484494145233544
30
6.6613381477509392e-15
10
329.73627899770912
20
-26.426270549530329
30
6.6613381477509392e-15
10
329.7354039915279
20
-27.44506255210602
30
6.6613381477509392e-15
0
SPLINE
5
123
100
AcDbEntity
8
0
100
AcDbSpline
70
0
71
3
72
8
73
4
74
0
42
0.000000001
43
0.0000000001
44
0.0000000001
40
0
40
0
40
0
40
0
40
1
40
1
40
1
40
1
10
329.7354039915279
20
-27.44506255210602
30
6.6613381477509392e-15
10
329.73628498534373
20
-28.463853549521527
30
6.6613381477509392e-15
10
329.19327375285468
20
-29.405634145216624
30
6.106226635438361e-15
10
328.31112125051141
20
-29.915285737509233
30
6.106226635438361e-15
0
SPLINE
5
124
100
AcDbEntity
8
0
100
AcDbSpline
70
0
71
3
72
8
73
4
74
0
42
0.000000001
43
0.0000000001
44
0.0000000001
40
0
40
0
40
0
40
0
40
1
40
1
40
1
40
1
10
328.31112125051141
20
-29.915285737509233
30
6.106226635438361e-15
10
327.42896974816807
20
-30.424937329798929
30
6.106226635438361e-15
10
326.34185774817286
20
-30.42494052438267
30
6.106226635438361e-15
10
325.45970325052372
20
-29.915294116676748
30
6.106226635438361e-15
0
SPLINE
5
125
100
AcDbEntity
8
0
100
AcDbSpline
70
0
71
3
72
8
73
4
74
0
42
0.000000001
43
0.0000000001
44
0.0000000001
40
0
40
0
40
0
40
0
40
1
40
1
40
1
40
1
10
325.45970325052372
20
-29.915294116676748
30
6.106226635438361e-15
10
324.57754875287463
20
-29.405647708970861
30
6.106226635438361e-15
10
324.03453098536835
20
-28.463870304676998
30
6.6613381477509392e-15
10
324.03540599155247
20
-27.445079302101302
30
6.106226635438361e-15
0
SPLINE
5
126
100
AcDbEntity
8
0
100
AcDbSpline
70
0
71
3
72
8
73
4
74
0
42
0.000000001
43
0.0000000001
44
0.0000000001
40
0
40
0
40
0
40
0
40
1
40
1
40
1
40
1
10
324.03540599155247
20
-27.445079302101302
30
6.106226635438361e-15
10
324.03452499773374
20
-26.426287304685797
30
6.106226635438361e-15
10
324.57753723022563
20
-25.484507708987788
30
6.6613381477509392e-15
10
325.45968873256896
20
-24.974856116698078
30
6.6613381477509392e-15
0
CIRCLE
5
127
100
AcDbEntity
8
0
100
AcDbCircle
10
254.19070274718433
20
-116.52022654789997
30
4.9960036108132044e-15
40
0.85090000000000943
210
-1.8118378706960983e-17
220
-1.8753304480281579e-25
230
1
0
CIRCLE
5
128
100
AcDbEntity
8
0
100
AcDbCircle
10
53.530702748050672
20
-116.52081620671302
30
1.6653345369377348e-15
40
0.85090000000000054
210
-1.8118378706960983e-17
220
1.9262108335441255e-26
230
1
0
CIRCLE
5
129
100
AcDbEntity
8
0
100
AcDbCircle
10
5.9057027482562763
20
-116.5209561573807
30
5.5511151231257827e-16
40
0.85089999999999943
210
-1.8118378706960986e-17
220
-1.8753304480281579e-25
230
1
0
LWPOLYLINE
5
130
100
AcDbEntity
8
0
100
AcDbPolyline
90
4
70
1
43
0.0
10
60.991958686291014
20
-118.54157943329768
10
58.61070868630128
20
-118.54158643083103
42
-0.99999999999999989
10
58.610696809756192
20
-114.50001612645255
10
60.991946809745897
20
-114.50000912891915
42
-0.99999999999999989
0
LWPOLYLINE
5
131
100
AcDbEntity
8
0
100
AcDbPolyline
90
4
70
1
43
0.0
10
37.179458686613664
20
-118.54172422592998
10
34.798208686623994
20
-118.54173122346339
42
-0.99999999999999989
10
34.798196809639094
20
-114.50001128448793
10
37.179446809628786
20
-114.50000428695454
42
-0.99999999999999989
0
LWPOLYLINE
5
132
100
AcDbEntity
8
0
100
AcDbPolyline
90
4
70
1
43
0.0
10
272.9232086835633
20
-118.54033976818448
10
270.54195868357351
20
-118.54034676571793
42
-0.99999999999999989
10
270.54194681065388
20
-114.50001023062367
10
272.92319681064362
20
-114.50000323309028
42
-0.99999999999999989
0
CIRCLE
5
133
100
AcDbEntity
8
0
100
AcDbCircle
10
42.25945274809925
20
-116.52084932837106
30
1.6653345369377348e-15
40
0.85090000000000054
210
-1.8118378706960983e-17
220
1.9262108335441255e-26
230
1
0
CIRCLE
5
134
100
AcDbEntity
8
0
100
AcDbCircle
10
217.83695274734134
20
-116.52033337690963
30
4.4408920985006262e-15
40
0.85090000000000943
210
-1.8118378706960983e-17
220
-1.8753304480281579e-25
230
1
0
CIRCLE
5
135
100
AcDbEntity
8
0
100
AcDbCircle
10
265.46195274713568
20
-116.52019342624195
30
5.5511151231257827e-15
40
0.85090000000000943
210
-1.8118378706960983e-17
220
-1.8753304480281579e-25
230
1
0
CIRCLE
5
136
100
AcDbEntity
8
0
100
AcDbCircle
10
66.071952747996477
20
-116.52077935303721
30
1.6653345369377348e-15
40
0.85090000000000054
210
-1.8118378706960983e-17
220
1.9262108335441255e-26
230
1
0
CIRCLE
5
137
100
AcDbEntity
8
0
100
AcDbCircle
10
18.446952748202115
20
-116.52091930370487
30
1.1102230246251565e-15
40
0.85090000000000054
210
-1.8118378706960986e-17
220
1.9262108335441261e-26
230
1
0
LWPOLYLINE
5
138
100
AcDbEntity
8
0
100
AcDbPolyline
90
4
70
1
43
0.0
10
225.29820868415635
20
-118.54061155961645
10
222.91695868416662
20
-118.54061855714977
42
-0.99999999999999989
10
222.91694681047218
20
-114.50001834052696
10
225.29819681046183
20
-114.50001134299349
42
-0.99999999999999989
0
LWPOLYLINE
5
139
100
AcDbEntity
8
0
100
AcDbPolyline
90
4
70
1
43
0.0
10
13.366958686934996
20
-118.54186857465569
10
10.985708686945321
20
-118.54187557218906
42
-0.99999999999999989
10
10.985696809523395
20
-114.50000688642989
10
13.36694680951306
20
-114.4999998888965
42
-0.99999999999999989
0
LWPOLYLINE
5
140
100
AcDbEntity
8
0
100
AcDbPolyline
90
4
70
1
43
0.0
10
249.11070868381844
20
-118.54046161829439
10
246.7294586412558
20
-118.54046861582786
42
-0.99999998946328783
10
246.72944681060429
20
-114.50002833118141
10
249.11069681059405
20
-114.50002133364804
42
-0.99999999999999989
0
CIRCLE
5
141
100
AcDbEntity
8
0
100
AcDbCircle
10
29.71820274815347
20
-116.52088618204685
30
5.5511151231257827e-16
40
0.85090000000000054
210
-1.8118378706960983e-17
220
1.9262108335441255e-26
230
1
0
CIRCLE
5
142
100
AcDbEntity
8
0
100
AcDbCircle
10
230.37820274728719
20
-116.52029652323381
30
4.9960036108132044e-15
40
0.85090000000000943
210
-1.8118378706960983e-17
220
-1.8753304480281579e-25
230
1
0
CIRCLE
5
143
100
AcDbEntity
8
0
100
AcDbCircle
10
278.0032027470815
20
-116.52015657256612
30
5.5511151231257827e-15
40
0.85090000000000943
210
-1.8118378706960983e-17
220
-1.8753304480281579e-25
230
1
0
CIRCLE
5
144
100
AcDbEntity
8
0
100
AcDbCircle
10
337.21695274682594
20
-116.51998256723603
30
6.6613381477509392e-15
40
1.9939000000000093
210
-1.8118378691602271e-17
220
-1.8753304481914403e-25
230
1
0
CIRCLE
5
145
100
AcDbEntity
8
0
100
AcDbCircle
10
304.19695274696841
20
-116.52007959969895
30
6.106226635438361e-15
40
0.85090000000000943
210
-1.8118378706960983e-17
220
-1.8753304480281579e-25
230
1
0
CIRCLE
5
146
100
AcDbEntity
8
0
100
AcDbCircle
10
318.16689676664106
20
-97.470038547585318
30
6.106226635438361e-15
40
1.9938999999999738
210
-1.8118378691602203e-17
220
1.9262108319112947e-26
230
1
0
CIRCLE
5
147
100
AcDbEntity
8
0
100
AcDbCircle
10
253.55564676692001
20
-97.470228413991123
30
4.9960036108132044e-15
40
0.85090000000000943
210
-1.8118378706960983e-17
220
-1.8753304480281579e-25
230
1
0
CIRCLE
5
148
100
AcDbEntity
8
0
100
AcDbCircle
10
208.94689676711263
20
-97.470359501116519
30
4.4408920985006262e-15
40
0.85090000000000943
210
-1.8118378706960983e-17
220
-1.8753304480281579e-25
230
1
0
CIRCLE
5
149
100
AcDbEntity
8
0
100
AcDbCircle
10
184.8168967672168
20
-97.470430409454778
30
3.8857805861880479e-15
40
1.9939000000000093
210
-1.8118378691602222e-17
220
-1.8753304481914407e-25
230
1
0
CIRCLE
5
150
100
AcDbEntity
8
0
100
AcDbCircle
10
160.68689676732092
20
-97.470501317793065
30
3.3306690738754696e-15
40
0.85090000000000943
210
-1.8118378706960983e-17
220
-1.8753304480281579e-25
230
1
0
CIRCLE
5
151
100
AcDbEntity
8
0
100
AcDbCircle
10
132.74689676744154
20
-97.470583422184774
30
2.7755575615628914e-15
40
0.85089999999999166
210
-1.8118378706960983e-17
220
-8.4135468233687273e-26
230
1
0
CIRCLE
5
152
100
AcDbEntity
8
0
100
AcDbCircle
10
108.61689676754573
20
-97.470654330523018
30
2.2204460492503131e-15
40
1.9938999999999916
210
-1.8118378691602237e-17
220
-1.8753304481914407e-25
230
1
0
CIRCLE
5
153
100
AcDbEntity
8
0
100
AcDbCircle
10
89.566896767627995
20
-97.470710310790082
30
2.2204460492503131e-15
40
1.9938999999999916
210
-1.8118378691602237e-17
220
-1.8753304481914407e-25
230
1
0
CIRCLE
5
154
100
AcDbEntity
8
0
100
AcDbCircle
10
56.546896767770605
20
-97.470807343253
30
1.6653345369377348e-15
40
0.85090000000000054
210
-1.8118378706960983e-17
220
1.9262108335441255e-26
230
1
0
CIRCLE
5
155
100
AcDbEntity
8
0
100
AcDbCircle
10
232.44184078674414
20
-78.420290458869431
30
4.4408920985006262e-15
40
1.9939000000000093
210
-1.8118378691602222e-17
220
-1.8753304481914407e-25
230
1
0
CIRCLE
5
156
100
AcDbEntity
8
0
100
AcDbCircle
10
208.31184078684831
20
-78.420361367207704
30
4.4408920985006262e-15
40
0.85090000000000943
210
-1.8118378706960983e-17
220
-1.8753304480281579e-25
230
1
0
CIRCLE
5
157
100
AcDbEntity
8
0
100
AcDbCircle
10
189.26184078693055
20
-78.420417347474782
30
3.8857805861880479e-15
40
0.85090000000000943
210
-1.8118378706960983e-17
220
-1.8753304480281579e-25
230
1
0
CIRCLE
5
158
100
AcDbEntity
8
0
100
AcDbCircle
10
175.60928480672243
20
-59.370457466748448
30
3.3306690738754696e-15
40
0.85090000000000943
210
-1.8118378706960983e-17
220
-1.8753304480281579e-25
230
1
0
CIRCLE
5
159
100
AcDbEntity
8
0
100
AcDbCircle
10
170.21184078701276
20
-78.420473327741846
30
3.8857805861880479e-15
40
0.85090000000000943
210
-1.8118378706960983e-17
220
-1.8753304480281579e-25
230
1
0
CIRCLE
5
160
100
AcDbEntity
8
0
100
AcDbCircle
10
142.27184078713339
20
-78.420555432133526
30
2.7755575615628914e-15
40
0.85089999999999166
210
-1.8118378706960983e-17
220
-8.4135468233687273e-26
230
1
0
CIRCLE
5
161
100
AcDbEntity
8
0
100
AcDbCircle
10
123.2218407872156
20
-78.420611412400604
30
3.3306690738754696e-15
40
0.85089999999999166
210
-1.8118378706960983e-17
220
-8.4135468233687273e-26
230
1
0
CIRCLE
5
162
100
AcDbEntity
8
0
100
AcDbCircle
10
113.06184078725947
20
-78.420641268543022
30
2.7755575615628914e-15
40
0.85089999999999166
210
-1.8118378706960983e-17
220
-8.4135468233687273e-26
230
1
0
CIRCLE
5
163
100
AcDbEntity
8
0
100
AcDbCircle
10
74.961840787424009
20
-78.42075322907715
30
1.6653345369377348e-15
40
0.85090000000000054
210
-1.8118378706960983e-17
220
1.9262108335441255e-26
230
1
0
CIRCLE
5
164
100
AcDbEntity
8
0
100
AcDbCircle
10
60.991840787484307
20
-78.42079428127299
30
1.6653345369377348e-15
40
1.9939000000000004
210
-1.8118378691602231e-17
220
-8.4135468250015556e-26
230
1
0
CIRCLE
5
165
100
AcDbEntity
8
0
100
AcDbCircle
10
36.861840787588505
20
-78.420865189611277
30
1.1102230246251565e-15
40
0.85090000000000054
210
-1.8118378706960983e-17
220
1.9262108335441255e-26
230
1
0
CIRCLE
5
166
100
AcDbEntity
8
0
100
AcDbCircle
10
32.099284807341995
20
-59.370879184760312
30
1.1102230246251565e-15
40
0.85090000000000054
210
-1.8118378706960983e-17
220
1.9262108335441255e-26
230
1
0
CIRCLE
5
167
100
AcDbEntity
8
0
100
AcDbCircle
10
51.149284807259797
20
-59.370823204493249
30
1.6653345369377348e-15
40
0.85090000000000054
210
-1.8118378706960983e-17
220
1.9262108335441255e-26
230
1
0
CIRCLE
5
168
100
AcDbEntity
8
0
100
AcDbCircle
10
70.199284807177463
20
-59.370767224226206
30
1.6653345369377348e-15
40
0.85090000000000054
210
-1.8118378706960983e-17
220
1.9262108335441255e-26
230
1
0
CIRCLE
5
169
100
AcDbEntity
8
0
100
AcDbCircle
10
132.42928480690881
20
-59.370584355353785
30
2.7755575615628914e-15
40
1.9938999999999916
210
-1.8118378691602237e-17
220
-1.8753304481914407e-25
230
1
0
CIRCLE
5
170
100
AcDbEntity
8
0
100
AcDbCircle
10
146.3992848068485
20
-59.370543303157952
30
3.3306690738754696e-15
40
0.85089999999999166
210
-1.8118378706960983e-17
220
-8.4135468233687273e-26
230
1
0
CIRCLE
5
171
100
AcDbEntity
8
0
100
AcDbCircle
10
213.70928480655792
20
-59.370345506214328
30
4.4408920985006262e-15
40
0.85090000000000943
210
-1.8118378706960983e-17
220
-1.8753304480281579e-25
230
1
0
CIRCLE
5
172
100
AcDbEntity
8
0
100
AcDbCircle
10
251.80928480639341
20
-59.3702335456802
30
4.9960036108132044e-15
40
0.85090000000000943
210
-1.8118378706960983e-17
220
-1.8753304480281579e-25
230
1
0
CIRCLE
5
173
100
AcDbEntity
8
0
100
AcDbCircle
10
342.29678480600273
20
-59.369967639411634
30
6.6613381477509392e-15
40
0.85090000000000943
210
-1.8118378706961032e-17
220
-1.8753304480281574e-25
230
1
0
CIRCLE
5
174
100
AcDbEntity
8
0
100
AcDbCircle
10
313.08678480612889
20
-59.370053475821152
30
6.106226635438361e-15
40
0.85090000000000943
210
-1.8118378706960983e-17
220
-1.8753304480281579e-25
230
1
0
CIRCLE
5
175
100
AcDbEntity
8
0
100
AcDbCircle
10
342.29672882573573
20
-40.319967639493925
30
6.6613381477509392e-15
40
0.85090000000000943
210
-1.8118378706961032e-17
220
-1.8753304480281574e-25
230
1
0
CIRCLE
5
176
100
AcDbEntity
8
0
100
AcDbCircle
10
318.16672882583987
20
-40.320038547832198
30
6.6613381477509392e-15
40
1.9939000000000093
210
-1.8118378691602222e-17
220
-1.8753304481914407e-25
230
1
0
CIRCLE
5
177
100
AcDbEntity
8
0
100
AcDbCircle
10
294.03672882594401
20
-40.320109456170499
30
6.106226635438361e-15
40
0.85090000000000943
210
-1.8118378706960983e-17
220
-1.8753304480281579e-25
230
1
0
CIRCLE
5
178
100
AcDbEntity
8
0
100
AcDbCircle
10
223.2342288262497
20
-40.320317516163087
30
4.4408920985006262e-15
40
0.85090000000000943
210
-1.8118378706960983e-17
220
-1.8753304480281579e-25
230
1
0
CIRCLE
5
179
100
AcDbEntity
8
0
100
AcDbCircle
10
204.18422882633197
20
-40.320373496430157
30
3.8857805861880479e-15
40
0.85090000000000943
210
-1.8118378706960983e-17
220
-1.8753304480281579e-25
230
1
0
CIRCLE
5
180
100
AcDbEntity
8
0
100
AcDbCircle
10
174.97422882645807
20
-40.32045933283964
30
3.8857805861880479e-15
40
0.85090000000000943
210
-1.8118378706960983e-17
220
-1.8753304480281579e-25
230
1
0
CIRCLE
5
181
100
AcDbEntity
8
0
100
AcDbCircle
10
147.03422882657873
20
-40.320541437231327
30
2.7755575615628914e-15
40
0.85089999999999166
210
-1.8118378706960983e-17
220
-8.4135468233687273e-26
230
1
0
CIRCLE
5
182
100
AcDbEntity
8
0
100
AcDbCircle
10
122.90422882668284
20
-40.320612345569621
30
2.7755575615628914e-15
40
1.9938999999999916
210
-1.8118378691602237e-17
220
-1.8753304481914407e-25
230
1
0
CIRCLE
5
183
100
AcDbEntity
8
0
100
AcDbCircle
10
98.774228826787038
20
-40.320683253907887
30
2.2204460492503131e-15
40
0.85089999999999166
210
-1.8118378706960983e-17
220
-8.4135468233687273e-26
230
1
0
CIRCLE
5
184
100
AcDbEntity
8
0
100
AcDbCircle
10
70.834228826907719
20
-40.320765358299589
30
2.2204460492503131e-15
40
0.85090000000000054
210
-1.8118378706960983e-17
220
1.9262108335441255e-26
230
1
0
CIRCLE
5
185
100
AcDbEntity
8
0
100
AcDbCircle
10
46.704228827011882
20
-40.320836266637855
30
1.1102230246251565e-15
40
1.9939000000000004
210
-1.8118378691602231e-17
220
-8.4135468250015556e-26
230
1
0
CIRCLE
5
186
100
AcDbEntity
8
0
100
AcDbCircle
10
27.654228827094109
20
-40.32089224690494
30
1.1102230246251565e-15
40
1.9939000000000004
210
-1.8118378691602231e-17
220
-8.4135468250015556e-26
230
1
0
CIRCLE
5
187
100
AcDbEntity
8
0
100
AcDbCircle
10
342.29665515223365
20
-14.568389639599273
30
6.6613381477509392e-15
40
0.85090000000000943
210
-1.8118378706961032e-17
220
-1.8753304480281574e-25
230
1
0
CIRCLE
5
188
100
AcDbEntity
8
0
100
AcDbCircle
10
318.16665515233785
20
-14.568460547937551
30
6.106226635438361e-15
40
1.9939000000000093
210
-1.8118378691602222e-17
220
-1.8753304481914407e-25
230
1
0
CIRCLE
5
189
100
AcDbEntity
8
0
100
AcDbCircle
10
294.03665515244205
20
-14.568531456275831
30
6.106226635438361e-15
40
0.85090000000000943
210
-1.8118378706960983e-17
220
-1.8753304480281579e-25
230
1
0
CIRCLE
5
190
100
AcDbEntity
8
0
100
AcDbCircle
10
270.22415515254482
20
-14.568601431609657
30
5.5511151231257827e-15
40
0.85090000000000943
210
-1.8118378706960983e-17
220
-1.8753304480281579e-25
230
1
0
CIRCLE
5
191
100
AcDbEntity
8
0
100
AcDbCircle
10
237.20415515268741
20
-14.568698464072579
30
4.4408920985006262e-15
40
1.9939000000000093
210
-1.8118378691602222e-17
220
-1.8753304481914407e-25
230
1
0
CIRCLE
5
192
100
AcDbEntity
8
0
100
AcDbCircle
10
213.07415515279158
20
-14.568769372410856
30
4.4408920985006262e-15
40
0.85090000000000943
210
-1.8118378706960983e-17
220
-1.8753304480281579e-25
230
1
0
CIRCLE
5
193
100
AcDbEntity
8
0
100
AcDbCircle
10
175.60915515295332
20
-14.568879466936075
30
3.8857805861880479e-15
40
0.85090000000000943
210
-1.8118378706960983e-17
220
-1.8753304480281579e-25
230
1
0
CIRCLE
5
194
100
AcDbEntity
8
0
100
AcDbCircle
10
151.47915515305749
20
-14.568950375274358
30
3.3306690738754696e-15
40
1.9938999999999916
210
-1.8118378691602237e-17
220
-1.8753304481914407e-25
230
1
0
CIRCLE
5
195
100
AcDbEntity
8
0
100
AcDbCircle
10
127.34915515316163
20
-14.569021283612635
30
2.7755575615628914e-15
40
0.85089999999999166
210
-1.8118378706960983e-17
220
-8.4135468233687273e-26
230
1
0
CIRCLE
5
196
100
AcDbEntity
8
0
100
AcDbCircle
10
89.884155153323334
20
-14.569131378137858
30
2.2204460492503131e-15
40
0.85089999999999166
210
-1.8118378706960983e-17
220
-8.4135468233687273e-26
230
1
0
CIRCLE
5
197
100
AcDbEntity
8
0
100
AcDbCircle
10
65.754155153427547
20
-14.569202286476139
30
1.6653345369377348e-15
40
1.9939000000000004
210
-1.8118378691602231e-17
220
-8.4135468250015556e-26
230
1
0
CIRCLE
5
198
100
AcDbEntity
8
0
100
AcDbCircle
10
41.624155153531753
20
-14.569273194814427
30
1.6653345369377348e-15
40
0.85090000000000054
210
-1.8118378706960983e-17
220
1.9262108335441255e-26
230
1
0
CIRCLE
5
199
100
AcDbEntity
8
0
100
AcDbCircle
10
60.67415515344949
20
-14.569217214547365
30
1.6653345369377348e-15
40
0.85090000000000054
210
-1.8118378706960983e-17
220
1.9262108335441255e-26
230
1
0
CIRCLE
5
200
100
AcDbEntity
8
0
100
AcDbCircle
10
84.804155153345278
20
-14.569146306209076
30
2.2204460492503131e-15
40
1.9938999999999916
210
-1.8118378691602237e-17
220
-1.8753304481914407e-25
230
1
0
CIRCLE
5
201
100
AcDbEntity
8
0
100
AcDbCircle
10
108.93415515324114
20
-14.569075397870799
30
2.7755575615628914e-15
40
0.85089999999999166
210
-1.8118378706960983e-17
220
-8.4135468233687273e-26
230
1
0
CIRCLE
5
202
100
AcDbEntity
8
0
100
AcDbCircle
10
146.39915515307939
20
-14.568965303345571
30
3.3306690738754696e-15
40
0.85089999999999166
210
-1.8118378706960983e-17
220
-8.4135468233687273e-26
230
1
0
CIRCLE
5
203
100
AcDbEntity
8
0
100
AcDbCircle
10
170.52915515297525
20
-14.568894395007296
30
3.8857805861880479e-15
40
1.9939000000000093
210
-1.8118378691602222e-17
220
-1.8753304481914407e-25
230
1
0
CIRCLE
5
204
100
AcDbEntity
8
0
100
AcDbCircle
10
189.57915515289301
20
-14.568838414740233
30
3.8857805861880479e-15
40
1.9939000000000093
210
-1.8118378691602222e-17
220
-1.8753304481914407e-25
230
1
0
CIRCLE
5
205
100
AcDbEntity
8
0
100
AcDbCircle
10
232.12415515270936
20
-14.56871339214379
30
4.4408920985006262e-15
40
0.85090000000000943
210
-1.8118378706960983e-17
220
-1.8753304480281579e-25
230
1
0
CIRCLE
5
206
100
AcDbEntity
8
0
100
AcDbCircle
10
256.25415515260511
20
-14.568642483805503
30
4.9960036108132044e-15
40
1.9939000000000093
210
-1.8118378691602222e-17
220
-1.8753304481914407e-25
230
1
0
CIRCLE
5
207
100
AcDbEntity
8
0
100
AcDbCircle
10
280.38415515250097
20
-14.568571575467224
30
6.106226635438361e-15
40
0.85090000000000943
210
-1.8118378706960983e-17
220
-1.8753304480281579e-25
230
1
0
CIRCLE
5
208
100
AcDbEntity
8
0
100
AcDbCircle
10
313.08665515235981
20
-14.568475476008771
30
6.106226635438361e-15
40
0.85090000000000943
210
-1.8118378706960983e-17
220
-1.8753304480281579e-25
230
1
0
CIRCLE
5
209
100
AcDbEntity
8
0
100
AcDbCircle
10
337.21665515225567
20
-14.568404567670489
30
6.6613381477509392e-15
40
1.9939000000000093
210
-1.8118378691602271e-17
220
-1.8753304481914403e-25
230
1
0
CIRCLE
5
210
100
AcDbEntity
8
0
100
AcDbCircle
10
8.6042298271763968
20
-40.320948227169069
30
5.5511151231257827e-16
40
1.9939000000000004
210
-1.8118378691602234e-17
220
-8.4135468250015556e-26
230
1
0
CIRCLE
5
211
100
AcDbEntity
8
0
100
AcDbCircle
10
41.624228827033804
20
-40.320851194709093
30
1.1102230246251565e-15
40
0.85090000000000054
210
-1.8118378706960983e-17
220
1.9262108335441255e-26
230
1
0
CIRCLE
5
212
100
AcDbEntity
8
0
100
AcDbCircle
10
65.754228826929591
20
-40.320780286370805
30
1.6653345369377348e-15
40
1.9939000000000004
210
-1.8118378691602231e-17
220
-8.4135468250015556e-26
230
1
0
CIRCLE
5
213
100
AcDbEntity
8
0
100
AcDbCircle
10
89.884228826825407
20
-40.320709378032532
30
1.6653345369377348e-15
40
0.85089999999999166
210
-1.8118378706960983e-17
220
-8.4135468233687273e-26
230
1
0
CIRCLE
5
214
100
AcDbEntity
8
0
100
AcDbCircle
10
117.82422882670481
20
-40.320627273640838
30
2.7755575615628914e-15
40
0.85089999999999166
210
-1.8118378706960983e-17
220
-8.4135468233687273e-26
230
1
0
CIRCLE
5
215
100
AcDbEntity
8
0
100
AcDbCircle
10
141.9542288266006
20
-40.320556365302558
30
2.7755575615628914e-15
40
1.9938999999999916
210
-1.8118378691602237e-17
220
-1.8753304481914407e-25
230
1
0
CIRCLE
5
216
100
AcDbEntity
8
0
100
AcDbCircle
10
166.08422882649646
20
-40.320485456964271
30
3.3306690738754696e-15
40
0.85090000000000943
210
-1.8118378706960983e-17
220
-1.8753304480281579e-25
230
1
0
CIRCLE
5
217
100
AcDbEntity
8
0
100
AcDbCircle
10
194.0242288263758
20
-40.320403352572598
30
3.8857805861880479e-15
40
0.85090000000000943
210
-1.8118378706960983e-17
220
-1.8753304480281579e-25
230
1
0
CIRCLE
5
218
100
AcDbEntity
8
0
100
AcDbCircle
10
218.15422882627163
20
-40.320332444234296
30
4.4408920985006262e-15
40
1.9939000000000093
210
-1.8118378691602222e-17
220
-1.8753304481914407e-25
230
1
0
CIRCLE
5
219
100
AcDbEntity
8
0
100
AcDbCircle
10
242.28422882616744
20
-40.320261535896016
30
4.9960036108132044e-15
40
0.85090000000000943
210
-1.8118378706960983e-17
220
-1.8753304480281579e-25
230
1
0
CIRCLE
5
220
100
AcDbEntity
8
0
100
AcDbCircle
10
313.08672882586177
20
-40.320053475903435
30
6.106226635438361e-15
40
0.85090000000000943
210
-1.8118378706960983e-17
220
-1.8753304480281579e-25
230
1
0
CIRCLE
5
221
100
AcDbEntity
8
0
100
AcDbCircle
10
337.21672882575763
20
-40.319982567565155
30
6.6613381477509392e-15
40
1.9939000000000093
210
-1.8118378691602271e-17
220
-1.8753304481914403e-25
230
1
0
CIRCLE
5
222
100
AcDbEntity
8
0
100
AcDbCircle
10
304.19678480616722
20
-59.370079599945775
30
6.106226635438361e-15
40
0.85090000000000943
210
-1.8118378706960983e-17
220
-1.8753304480281579e-25
230
1
0
CIRCLE
5
223
100
AcDbEntity
8
0
100
AcDbCircle
10
337.21678480602463
20
-59.369982567482836
30
6.6613381477509392e-15
40
1.9939000000000093
210
-1.8118378691602271e-17
220
-1.8753304481914403e-25
230
1
0
CIRCLE
5
224
100
AcDbEntity
8
0
100
AcDbCircle
10
246.72928480641534
20
-59.37024847375141
30
4.9960036108132044e-15
40
1.9939000000000093
210
-1.8118378691602222e-17
220
-1.8753304481914407e-25
230
1
0
CIRCLE
5
225
100
AcDbEntity
8
0
100
AcDbCircle
10
222.59928480651953
20
-59.37031938208969
30
4.4408920985006262e-15
40
0.85090000000000943
210
-1.8118378706960983e-17
220
-1.8753304480281579e-25
230
1
0
CIRCLE
5
226
100
AcDbEntity
8
0
100
AcDbCircle
10
151.47928480682654
20
-59.370528375086728
30
3.3306690738754696e-15
40
1.9938999999999916
210
-1.8118378691602237e-17
220
-1.8753304481914407e-25
230
1
0
CIRCLE
5
227
100
AcDbEntity
8
0
100
AcDbCircle
10
127.34928480693074
20
-59.370599283425001
30
2.7755575615628914e-15
40
0.85089999999999166
210
-1.8118378706960983e-17
220
-8.4135468233687273e-26
230
1
0
CIRCLE
5
228
100
AcDbEntity
8
0
100
AcDbCircle
10
75.279284807155562
20
-59.370752296154976
30
1.6653345369377348e-15
40
1.9939000000000004
210
-1.8118378691602231e-17
220
-8.4135468250015556e-26
230
1
0
CIRCLE
5
229
100
AcDbEntity
8
0
100
AcDbCircle
10
56.229284807237804
20
-59.370808276422053
30
1.6653345369377348e-15
40
1.9939000000000004
210
-1.8118378691602231e-17
220
-8.4135468250015556e-26
230
1
0
CIRCLE
5
230
100
AcDbEntity
8
0
100
AcDbCircle
10
37.179284807320009
20
-59.370864256689096
30
1.1102230246251565e-15
40
1.9939000000000004
210
-1.8118378691602231e-17
220
-8.4135468250015556e-26
230
1
0
CIRCLE
5
231
100
AcDbEntity
8
0
100
AcDbCircle
10
8.2867848074448052
20
-59.370949160094149
30
5.5511151231257827e-16
40
0.85089999999999943
210
-1.8118378706960986e-17
220
-1.8753304480281579e-25
230
1
0
CIRCLE
5
232
100
AcDbEntity
8
0
100
AcDbCircle
10
66.071840787462321
20
-78.420779353201794
30
2.2204460492503131e-15
40
0.85090000000000054
210
-1.8118378706960983e-17
220
1.9262108335441255e-26
230
1
0
CIRCLE
5
233
100
AcDbEntity
8
0
100
AcDbCircle
10
85.121840787380108
20
-78.420723372934717
30
2.2204460492503131e-15
40
0.85089999999999166
210
-1.8118378706960983e-17
220
-8.4135468233687273e-26
230
1
0
CIRCLE
5
234
100
AcDbEntity
8
0
100
AcDbCircle
10
104.17184078729787
20
-78.420667392667667
30
2.7755575615628914e-15
40
0.85089999999999166
210
-1.8118378706960983e-17
220
-8.4135468233687273e-26
230
1
0
CIRCLE
5
235
100
AcDbEntity
8
0
100
AcDbCircle
10
108.299284807013
20
-59.370655263692058
30
2.7755575615628914e-15
40
0.85089999999999166
210
-1.8118378706960983e-17
220
-8.4135468233687273e-26
230
1
0
CIRCLE
5
236
100
AcDbEntity
8
0
100
AcDbCircle
10
137.19184078715531
20
-78.420570360204749
30
2.7755575615628914e-15
40
1.9938999999999916
210
-1.8118378691602237e-17
220
-1.8753304481914407e-25
230
1
0
CIRCLE
5
237
100
AcDbEntity
8
0
100
AcDbCircle
10
161.32184078705114
20
-78.420499451866462
30
3.3306690738754696e-15
40
0.85090000000000943
210
-1.8118378706960983e-17
220
-1.8753304480281579e-25
230
1
0
CIRCLE
5
238
100
AcDbEntity
8
0
100
AcDbCircle
10
170.52928480674436
20
-59.370472394819657
30
3.8857805861880479e-15
40
1.9939000000000093
210
-1.8118378691602222e-17
220
-1.8753304481914407e-25
230
1
0
CIRCLE
5
239
100
AcDbEntity
8
0
100
AcDbCircle
10
194.65928480664019
20
-59.370401486481398
30
3.8857805861880479e-15
40
0.85090000000000943
210
-1.8118378706960983e-17
220
-1.8753304480281579e-25
230
1
0
CIRCLE
5
240
100
AcDbEntity
8
0
100
AcDbCircle
10
199.42184078688669
20
-78.420387491332349
30
3.8857805861880479e-15
40
0.85090000000000943
210
-1.8118378706960983e-17
220
-1.8753304480281579e-25
230
1
0
CIRCLE
5
241
100
AcDbEntity
8
0
100
AcDbCircle
10
227.36184078676604
20
-78.42030538694064
30
4.4408920985006262e-15
40
0.85090000000000943
210
-1.8118378706960983e-17
220
-1.8753304480281579e-25
230
1
0
CIRCLE
5
242
100
AcDbEntity
8
0
100
AcDbCircle
10
51.46689676779252
20
-97.470822271324224
30
1.1102230246251565e-15
40
1.9939000000000004
210
-1.8118378691602231e-17
220
-8.4135468250015556e-26
230
1
0
CIRCLE
5
243
100
AcDbEntity
8
0
100
AcDbCircle
10
75.596896767688307
20
-97.470751362985965
30
2.2204460492503131e-15
40
0.85090000000000054
210
-1.8118378706960983e-17
220
1.9262108335441255e-26
230
1
0
CIRCLE
5
244
100
AcDbEntity
8
0
100
AcDbCircle
10
103.5368967675677
20
-97.470669258594228
30
2.2204460492503131e-15
40
0.85089999999999166
210
-1.8118378706960983e-17
220
-8.4135468233687273e-26
230
1
0
CIRCLE
5
245
100
AcDbEntity
8
0
100
AcDbCircle
10
127.6668967674635
20
-97.470598350255969
30
2.7755575615628914e-15
40
1.9938999999999916
210
-1.8118378691602237e-17
220
-1.8753304481914407e-25
230
1
0
CIRCLE
5
246
100
AcDbEntity
8
0
100
AcDbCircle
10
151.7968967673593
20
-97.470527441917696
30
3.3306690738754696e-15
40
0.85089999999999166
210
-1.8118378706960983e-17
220
-8.4135468233687273e-26
230
1
0
CIRCLE
5
247
100
AcDbEntity
8
0
100
AcDbCircle
10
179.7368967672387
20
-97.470445337526002
30
3.8857805861880479e-15
40
0.85090000000000943
210
-1.8118378706960983e-17
220
-1.8753304480281579e-25
230
1
0
CIRCLE
5
248
100
AcDbEntity
8
0
100
AcDbCircle
10
203.86689676713451
20
-97.470374429187729
30
4.4408920985006262e-15
40
1.9939000000000093
210
-1.8118378691602222e-17
220
-1.8753304481914407e-25
230
1
0
CIRCLE
5
249
100
AcDbEntity
8
0
100
AcDbCircle
10
222.91689676705232
20
-97.470318448920651
30
4.4408920985006262e-15
40
1.9939000000000093
210
-1.8118378691602222e-17
220
-1.8753304481914407e-25
230
1
0
CIRCLE
5
250
100
AcDbEntity
8
0
100
AcDbCircle
10
313.08689676666302
20
-97.470053475656584
30
6.106226635438361e-15
40
0.85090000000000943
210
-1.8118378706960983e-17
220
-1.8753304480281579e-25
230
1
0
CIRCLE
5
251
100
AcDbEntity
8
0
100
AcDbCircle
10
299.11695274699036
20
-116.52009452777014
30
5.5511151231257827e-15
40
1.9939000000000093
210
-1.8118378691602222e-17
220
-1.8753304481914407e-25
230
1
0
CIRCLE
5
252
100
AcDbEntity
8
0
100
AcDbCircle
10
323.24695274688622
20
-116.52002361943187
30
6.6613381477509392e-15
40
0.85090000000000943
210
-1.8118378706961032e-17
220
-1.8753304480281574e-25
230
1
0
CIRCLE
5
253
100
AcDbEntity
8
0
100
AcDbCircle
10
342.29695274680398
20
-116.5199676391648
30
7.2164496600635175e-15
40
0.85090000000000943
210
-1.8118378706961032e-17
220
-1.8753304480281574e-25
230
1
0
CIRCLE
5
254
100
AcDbEntity
8
0
100
AcDbCircle
10
313.08695274693008
20
-116.52005347557431
30
6.106226635438361e-15
40
0.85090000000000943
210
-1.8118378706960983e-17
220
-1.8753304480281579e-25
230
1
0
CIRCLE
5
255
100
AcDbEntity
8
0
100
AcDbCircle
10
323.2468967666191
20
-97.470023619514109
30
6.106226635438361e-15
40
0.85090000000000943
210
-1.8118378706961032e-17
220
-1.8753304480281574e-25
230
1
0
CIRCLE
5
256
100
AcDbEntity
8
0
100
AcDbCircle
10
258.63564676689811
20
-97.470213485919913
30
4.9960036108132044e-15
40
1.9939000000000093
210
-1.8118378691602222e-17
220
-1.8753304481914407e-25
230
1
0
CIRCLE
5
257
100
AcDbEntity
8
0
100
AcDbCircle
10
217.83689676707425
20
-97.470333376991874
30
4.4408920985006262e-15
40
0.85090000000000943
210
-1.8118378706960983e-17
220
-1.8753304480281579e-25
230
1
0
CIRCLE
5
258
100
AcDbEntity
8
0
100
AcDbCircle
10
189.89689676719485
20
-97.470415481383583
30
3.8857805861880479e-15
40
0.85090000000000943
210
-1.8118378706960983e-17
220
-1.8753304480281579e-25
230
1
0
CIRCLE
5
259
100
AcDbEntity
8
0
100
AcDbCircle
10
165.76689676729902
20
-97.47048638972187
30
3.3306690738754696e-15
40
1.9939000000000093
210
-1.8118378691602222e-17
220
-1.8753304481914407e-25
230
1
0
CIRCLE
5
260
100
AcDbEntity
8
0
100
AcDbCircle
10
141.63689676740316
20
-97.470557298060129
30
3.3306690738754696e-15
40
0.85089999999999166
210
-1.8118378706960983e-17
220
-8.4135468233687273e-26
230
1
0
CIRCLE
5
261
100
AcDbEntity
8
0
100
AcDbCircle
10
113.69689676752381
20
-97.470639402451823
30
2.2204460492503131e-15
40
0.85089999999999166
210
-1.8118378706960983e-17
220
-8.4135468233687273e-26
230
1
0
CIRCLE
5
262
100
AcDbEntity
8
0
100
AcDbCircle
10
94.646896767606066
20
-97.470695382718873
30
2.2204460492503131e-15
40
0.85089999999999166
210
-1.8118378706960983e-17
220
-8.4135468233687273e-26
230
1
0
CIRCLE
5
263
100
AcDbEntity
8
0
100
AcDbCircle
10
65.436896767732136
20
-97.470781219128384
30
1.6653345369377348e-15
40
0.85090000000000054
210
-1.8118378706960983e-17
220
1.9262108335441255e-26
230
1
0
CIRCLE
5
264
100
AcDbEntity
8
0
100
AcDbCircle
10
237.52184078672218
20
-78.420275530798207
30
4.4408920985006262e-15
40
0.85090000000000943
210
-1.8118378706960983e-17
220
-1.8753304480281579e-25
230
1
0
CIRCLE
5
265
100
AcDbEntity
8
0
100
AcDbCircle
10
213.39184078682635
20
-78.42034643913648
30
4.4408920985006262e-15
40
1.9939000000000093
210
-1.8118378691602222e-17
220
-1.8753304481914407e-25
230
1
0
CIRCLE
5
266
100
AcDbEntity
8
0
100
AcDbCircle
10
180.37184078696893
20
-78.420443471599398
30
3.3306690738754696e-15
40
0.85090000000000943
210
-1.8118378706960983e-17
220
-1.8753304480281579e-25
230
1
0
CIRCLE
5
267
100
AcDbEntity
8
0
100
AcDbCircle
10
184.49928480668405
20
-59.370431342623817
30
3.8857805861880479e-15
40
0.85090000000000943
210
-1.8118378706960983e-17
220
-1.8753304480281579e-25
230
1
0
CIRCLE
5
268
100
AcDbEntity
8
0
100
AcDbCircle
10
175.29184078699086
20
-78.420458399670622
30
3.3306690738754696e-15
40
1.9939000000000093
210
-1.8118378691602222e-17
220
-1.8753304481914407e-25
230
1
0
CIRCLE
5
269
100
AcDbEntity
8
0
100
AcDbCircle
10
151.161840787095
20
-78.420529308008909
30
3.3306690738754696e-15
40
0.85089999999999166
210
-1.8118378706960983e-17
220
-8.4135468233687273e-26
230
1
0
CIRCLE
5
270
100
AcDbEntity
8
0
100
AcDbCircle
10
118.45928480696914
20
-59.370625407549618
30
2.7755575615628914e-15
40
0.85089999999999166
210
-1.8118378706960983e-17
220
-8.4135468233687273e-26
230
1
0
CIRCLE
5
271
100
AcDbEntity
8
0
100
AcDbCircle
10
118.14184078723758
20
-78.420626340471813
30
2.7755575615628914e-15
40
1.9938999999999916
210
-1.8118378691602237e-17
220
-1.8753304481914407e-25
230
1
0
CIRCLE
5
272
100
AcDbEntity
8
0
100
AcDbCircle
10
94.011840787341683
20
-78.420697248810086
30
2.2204460492503131e-15
40
0.85089999999999166
210
-1.8118378706960983e-17
220
-8.4135468233687273e-26
230
1
0
CIRCLE
5
273
100
AcDbEntity
8
0
100
AcDbCircle
10
55.911840787506229
20
-78.420809209344213
30
1.6653345369377348e-15
40
0.85090000000000054
210
-1.8118378706960983e-17
220
1.9262108335441255e-26
230
1
0
CIRCLE
5
274
100
AcDbEntity
8
0
100
AcDbCircle
10
41.941840787566598
20
-78.420850261540053
30
1.1102230246251565e-15
40
1.9939000000000004
210
-1.8118378691602231e-17
220
-8.4135468250015556e-26
230
1
0
CIRCLE
5
275
100
AcDbEntity
8
0
100
AcDbCircle
10
18.446784807400906
20
-59.370919303951709
30
1.1102230246251565e-15
40
0.85090000000000054
210
-1.8118378706960986e-17
220
1.9262108335441261e-26
230
1
0
CIRCLE
5
276
100
AcDbEntity
8
0
100
AcDbCircle
10
61.309284807215853
20
-59.37079334835083
30
1.6653345369377348e-15
40
0.85090000000000054
210
-1.8118378706960983e-17
220
1.9262108335441255e-26
230
1
0
CIRCLE
5
277
100
AcDbEntity
8
0
100
AcDbCircle
10
89.24928480709525
20
-59.370711243959136
30
2.2204460492503131e-15
40
0.85089999999999166
210
-1.8118378706960983e-17
220
-8.4135468233687273e-26
230
1
0
CIRCLE
5
278
100
AcDbEntity
8
0
100
AcDbCircle
10
94.329284807073336
20
-59.370696315887912
30
2.2204460492503131e-15
40
1.9938999999999916
210
-1.8118378691602237e-17
220
-1.8753304481914407e-25
230
1
0
CIRCLE
5
279
100
AcDbEntity
8
0
100
AcDbCircle
10
156.55928480680461
20
-59.370513447015512
30
3.3306690738754696e-15
40
0.85089999999999166
210
-1.8118378706960983e-17
220
-8.4135468233687273e-26
230
1
0
CIRCLE
5
280
100
AcDbEntity
8
0
100
AcDbCircle
10
208.62928480657988
20
-59.370360434285551
30
4.4408920985006262e-15
40
1.9939000000000093
210
-1.8118378691602222e-17
220
-1.8753304481914407e-25
230
1
0
CIRCLE
5
281
100
AcDbEntity
8
0
100
AcDbCircle
10
232.7592848064757
20
-59.370289525947264
30
4.4408920985006262e-15
40
0.85090000000000943
210
-1.8118378706960983e-17
220
-1.8753304480281579e-25
230
1
0
CIRCLE
5
282
100
AcDbEntity
8
0
100
AcDbCircle
10
332.13678480604653
20
-59.369997495554074
30
6.6613381477509392e-15
40
0.85090000000000943
210
-1.8118378706961032e-17
220
-1.8753304480281574e-25
230
1
0
CIRCLE
5
283
100
AcDbEntity
8
0
100
AcDbCircle
10
318.16678480610699
20
-59.370038547749921
30
6.106226635438361e-15
40
1.9938999999999738
210
-1.8118378691602203e-17
220
1.9262108319112947e-26
230
1
0
CIRCLE
5
284
100
AcDbEntity
8
0
100
AcDbCircle
10
294.03678480621113
20
-59.370109456088201
30
6.106226635438361e-15
40
0.85090000000000943
210
-1.8118378706960983e-17
220
-1.8753304480281579e-25
230
1
0
CIRCLE
5
285
100
AcDbEntity
8
0
100
AcDbCircle
10
323.24672882581802
20
-40.320023619761002
30
6.6613381477509392e-15
40
0.85090000000000943
210
-1.8118378706961032e-17
220
-1.8753304480281574e-25
230
1
0
CIRCLE
5
286
100
AcDbEntity
8
0
100
AcDbCircle
10
299.11672882592205
20
-40.320094528099297
30
6.106226635438361e-15
40
1.9939000000000093
210
-1.8118378691602222e-17
220
-1.8753304481914407e-25
230
1
0
CIRCLE
5
287
100
AcDbEntity
8
0
100
AcDbCircle
10
232.12422882621129
20
-40.320291392038442
30
4.9960036108132044e-15
40
0.85090000000000943
210
-1.8118378706960983e-17
220
-1.8753304480281579e-25
230
1
0
CIRCLE
5
288
100
AcDbEntity
8
0
100
AcDbCircle
10
199.1042288263539
20
-40.32038842450136
30
3.8857805861880479e-15
40
1.9939000000000093
210
-1.8118378691602222e-17
220
-1.8753304481914407e-25
230
1
0
CIRCLE
5
289
100
AcDbEntity
8
0
100
AcDbCircle
10
180.05422882643614
20
-40.320444404768423
30
3.8857805861880479e-15
40
1.9939000000000093
210
-1.8118378691602222e-17
220
-1.8753304481914407e-25
230
1
0
CIRCLE
5
290
100
AcDbEntity
8
0
100
AcDbCircle
10
155.92422882654029
20
-40.320515313106696
30
3.3306690738754696e-15
40
0.85089999999999166
210
-1.8118378706960983e-17
220
-8.4135468233687273e-26
230
1
0
CIRCLE
5
291
100
AcDbEntity
8
0
100
AcDbCircle
10
127.98422882666091
20
-40.320597417498405
30
2.7755575615628914e-15
40
0.85089999999999166
210
-1.8118378706960983e-17
220
-8.4135468233687273e-26
230
1
0
CIRCLE
5
292
100
AcDbEntity
8
0
100
AcDbCircle
10
103.85422882676514
20
-40.320668325836678
30
2.2204460492503131e-15
40
1.9938999999999916
210
-1.8118378691602237e-17
220
-1.8753304481914407e-25
230
1
0
CIRCLE
5
293
100
AcDbEntity
8
0
100
AcDbCircle
10
79.724228826869293
20
-40.320739234174951
30
2.2204460492503131e-15
40
0.85089999999999166
210
-1.8118378706960971e-17
220
-8.4135468233687285e-26
230
1
0
CIRCLE
5
294
100
AcDbEntity
8
0
100
AcDbCircle
10
51.784228826989967
20
-40.320821338566653
30
1.6653345369377348e-15
40
0.85090000000000054
210
-1.8118378706960983e-17
220
1.9262108335441255e-26
230
1
0
CIRCLE
5
295
100
AcDbEntity
8
0
100
AcDbCircle
10
22.574228827116013
20
-40.320907174976142
30
1.1102230246251565e-15
40
0.85090000000000054
210
-1.8118378706960983e-17
220
1.9262108335441255e-26
230
1
0
CIRCLE
5
296
100
AcDbEntity
8
0
100
AcDbCircle
10
3.5242298271983836
20
-40.320963155240278
30
5.5511151231257827e-16
40
0.85089999999999999
210
-1.8118378706960986e-17
220
-8.4135468233687273e-26
230
1
0
CIRCLE
5
297
100
AcDbEntity
8
0
100
AcDbCircle
10
323.24665515231595
20
-14.568445619866335
30
6.106226635438361e-15
40
0.85090000000000943
210
-1.8118378706961032e-17
220
-1.8753304480281574e-25
230
1
0
CIRCLE
5
298
100
AcDbEntity
8
0
100
AcDbCircle
10
299.11665515242009
20
-14.568516528204613
30
6.106226635438361e-15
40
1.9939000000000093
210
-1.8118378691602222e-17
220
-1.8753304481914407e-25
230
1
0
CIRCLE
5
299
100
AcDbEntity
8
0
100
AcDbCircle
10
275.30415515252292
20
-14.568586503538443
30
5.5511151231257827e-15
40
1.9939000000000093
210
-1.8118378691602222e-17
220
-1.8753304481914407e-25
230
1
0
CIRCLE
5
300
100
AcDbEntity
8
0
100
AcDbCircle
10
242.28415515266545
20
-14.568683536001352
30
4.9960036108132044e-15
40
0.85090000000000943
210
-1.8118378706960983e-17
220
-1.8753304480281579e-25
230
1
0
CIRCLE
5
301
100
AcDbEntity
8
0
100
AcDbCircle
10
218.15415515276965
20
-14.568754444339637
30
4.4408920985006262e-15
40
1.9939000000000093
210
-1.8118378691602222e-17
220
-1.8753304481914407e-25
230
1
0
CIRCLE
5
302
100
AcDbEntity
8
0
100
AcDbCircle
10
184.49915515291494
20
-14.568853342811451
30
3.8857805861880479e-15
40
0.85090000000000943
210
-1.8118378706960983e-17
220
-1.8753304480281579e-25
230
1
0
CIRCLE
5
303
100
AcDbEntity
8
0
100
AcDbCircle
10
156.55915515303553
20
-14.568935447203142
30
3.3306690738754696e-15
40
0.85089999999999166
210
-1.8118378706960983e-17
220
-8.4135468233687273e-26
230
1
0
CIRCLE
5
304
100
AcDbEntity
8
0
100
AcDbCircle
10
132.42915515313973
20
-14.56900635554142
30
2.7755575615628914e-15
40
1.9938999999999916
210
-1.8118378691602237e-17
220
-1.8753304481914407e-25
230
1
0
CIRCLE
5
305
100
AcDbEntity
8
0
100
AcDbCircle
10
103.85415515326308
20
-14.569090325942016
30
2.7755575615628914e-15
40
1.9938999999999916
210
-1.8118378691602237e-17
220
-1.8753304481914407e-25
230
1
0
CIRCLE
5
306
100
AcDbEntity
8
0
100
AcDbCircle
10
70.834155153405675
20
-14.569187358404925
30
1.6653345369377348e-15
40
0.85090000000000054
210
-1.8118378706960983e-17
220
1.9262108335441255e-26
230
1
0
CIRCLE
5
307
100
AcDbEntity
8
0
100
AcDbCircle
10
46.704155153509831
20
-14.569258266743212
30
1.6653345369377348e-15
40
1.9939000000000004
210
-1.8118378691602231e-17
220
-8.4135468250015556e-26
230
1
0
CIRCLE
5
308
100
AcDbEntity
8
0
100
AcDbCircle
10
51.784155153487852
20
-14.569243338671994
30
1.6653345369377348e-15
40
0.85090000000000054
210
-1.8118378706960983e-17
220
1.9262108335441255e-26
230
1
0
CIRCLE
5
309
100
AcDbEntity
8
0
100
AcDbCircle
10
79.724155153367292
20
-14.569161234280294
30
1.6653345369377348e-15
40
0.85089999999999166
210
-1.8118378706960971e-17
220
-8.4135468233687285e-26
230
1
0
CIRCLE
5
310
100
AcDbEntity
8
0
100
AcDbCircle
10
98.774155153285022
20
-14.56910525401323
30
2.2204460492503131e-15
40
0.85089999999999166
210
-1.8118378706960983e-17
220
-8.4135468233687273e-26
230
1
0
CIRCLE
5
311
100
AcDbEntity
8
0
100
AcDbCircle
10
137.50915515311777
20
-14.568991427470205
30
2.7755575615628914e-15
40
0.85089999999999166
210
-1.8118378706960983e-17
220
-8.4135468233687273e-26
230
1
0
CIRCLE
5
312
100
AcDbEntity
8
0
100
AcDbCircle
10
165.44915515299718
20
-14.568909323078511
30
3.8857805861880479e-15
40
0.85090000000000943
210
-1.8118378706960983e-17
220
-1.8753304480281579e-25
230
1
0
CIRCLE
5
313
100
AcDbEntity
8
0
100
AcDbCircle
10
194.65915515287108
20
-14.568823486669018
30
3.8857805861880479e-15
40
0.85090000000000943
210
-1.8118378706960983e-17
220
-1.8753304480281579e-25
230
1
0
CIRCLE
5
314
100
AcDbEntity
8
0
100
AcDbCircle
10
223.23415515274775
20
-14.568739516268423
30
4.9960036108132044e-15
40
0.85090000000000943
210
-1.8118378706960983e-17
220
-1.8753304480281579e-25
230
1
0
CIRCLE
5
315
100
AcDbEntity
8
0
100
AcDbCircle
10
251.17415515262707
20
-14.568657411876721
30
4.9960036108132044e-15
40
0.85090000000000943
210
-1.8118378706960983e-17
220
-1.8753304480281579e-25
230
1
0
CIRCLE
5
316
100
AcDbEntity
8
0
100
AcDbCircle
10
261.33415515258321
20
-14.568627555734286
30
5.5511151231257827e-15
40
0.85090000000000943
210
-1.8118378706960983e-17
220
-1.8753304480281579e-25
230
1
0
CIRCLE
5
317
100
AcDbEntity
8
0
100
AcDbCircle
10
304.19665515239814
20
-14.568501600133395
30
6.106226635438361e-15
40
0.85090000000000943
210
-1.8118378706960983e-17
220
-1.8753304480281579e-25
230
1
0
CIRCLE
5
318
100
AcDbEntity
8
0
100
AcDbCircle
10
332.13665515227763
20
-14.568419495741704
30
6.6613381477509392e-15
40
0.85090000000000943
210
-1.8118378706961032e-17
220
-1.8753304480281574e-25
230
1
0
CIRCLE
5
319
100
AcDbEntity
8
0
100
AcDbCircle
10
13.684229827154486
20
-40.320933299097838
30
1.1102230246251565e-15
40
0.85090000000000054
210
-1.8118378706960986e-17
220
1.9262108335441261e-26
230
1
0
CIRCLE
5
320
100
AcDbEntity
8
0
100
AcDbCircle
10
32.734228827072258
20
-40.320877318833716
30
1.6653345369377348e-15
40
0.85090000000000054
210
-1.8118378706960983e-17
220
1.9262108335441255e-26
230
1
0
CIRCLE
5
321
100
AcDbEntity
8
0
100
AcDbCircle
10
60.674228826951506
20
-40.320795214442022
30
1.6653345369377348e-15
40
0.85090000000000054
210
-1.8118378706960983e-17
220
1.9262108335441255e-26
230
1
0
CIRCLE
5
322
100
AcDbEntity
8
0
100
AcDbCircle
10
84.80422882684735
20
-40.320724306103735
30
1.6653345369377348e-15
40
1.9938999999999916
210
-1.8118378691602237e-17
220
-1.8753304481914407e-25
230
1
0
CIRCLE
5
323
100
AcDbEntity
8
0
100
AcDbCircle
10
108.93422882674318
20
-40.320653397765476
30
2.2204460492503131e-15
40
0.85089999999999166
210
-1.8118378706960983e-17
220
-8.4135468233687273e-26
230
1
0
CIRCLE
5
324
100
AcDbEntity
8
0
100
AcDbCircle
10
136.87422882662253
20
-40.320571293373774
30
2.7755575615628914e-15
40
0.85089999999999166
210
-1.8118378706960983e-17
220
-8.4135468233687273e-26
230
1
0
CIRCLE
5
325
100
AcDbEntity
8
0
100
AcDbCircle
10
161.00422882651839
20
-40.320500385035487
30
3.3306690738754696e-15
40
1.9939000000000093
210
-1.8118378691602246e-17
220
-1.8753304481914405e-25
230
1
0
CIRCLE
5
326
100
AcDbEntity
8
0
100
AcDbCircle
10
185.13422882641419
20
-40.320429476697214
30
3.8857805861880479e-15
40
0.85090000000000943
210
-1.8118378706960983e-17
220
-1.8753304480281579e-25
230
1
0
CIRCLE
5
327
100
AcDbEntity
8
0
100
AcDbCircle
10
213.07422882629362
20
-40.320347372305534
30
4.4408920985006262e-15
40
0.85090000000000943
210
-1.8118378706960983e-17
220
-1.8753304480281579e-25
230
1
0
CIRCLE
5
328
100
AcDbEntity
8
0
100
AcDbCircle
10
237.20422882618942
20
-40.32027646396724
30
4.9960036108132044e-15
40
1.9939000000000093
210
-1.8118378691602222e-17
220
-1.8753304481914407e-25
230
1
0
CIRCLE
5
329
100
AcDbEntity
8
0
100
AcDbCircle
10
304.19672882590015
20
-40.320079600028073
30
6.106226635438361e-15
40
0.85090000000000943
210
-1.8118378706960983e-17
220
-1.8753304480281579e-25
230
1
0
CIRCLE
5
330
100
AcDbEntity
8
0
100
AcDbCircle
10
332.13672882577958
20
-40.31999749563635
30
6.106226635438361e-15
40
0.85090000000000943
210
-1.8118378706961032e-17
220
-1.8753304480281574e-25
230
1
0
CIRCLE
5
331
100
AcDbEntity
8
0
100
AcDbCircle
10
299.11678480618923
20
-59.370094528016999
30
6.106226635438361e-15
40
1.9939000000000093
210
-1.8118378691602222e-17
220
-1.8753304481914407e-25
230
1
0
CIRCLE
5
332
100
AcDbEntity
8
0
100
AcDbCircle
10
323.24678480608492
20
-59.370023619678697
30
6.106226635438361e-15
40
0.85090000000000943
210
-1.8118378706961032e-17
220
-1.8753304480281574e-25
230
1
0
CIRCLE
5
333
100
AcDbEntity
8
0
100
AcDbCircle
10
241.64928480643732
20
-59.370263401822641
30
4.9960036108132044e-15
40
0.85090000000000943
210
-1.8118378706960983e-17
220
-1.8753304480281579e-25
230
1
0
CIRCLE
5
334
100
AcDbEntity
8
0
100
AcDbCircle
10
227.67928480649766
20
-59.370304454018481
30
4.4408920985006262e-15
40
1.9939000000000093
210
-1.8118378691602222e-17
220
-1.8753304481914407e-25
230
1
0
CIRCLE
5
335
100
AcDbEntity
8
0
100
AcDbCircle
10
203.54928480660178
20
-59.370375362356747
30
4.4408920985006262e-15
40
0.85090000000000943
210
-1.8118378706960983e-17
220
-1.8753304480281579e-25
230
1
0
CIRCLE
5
336
100
AcDbEntity
8
0
100
AcDbCircle
10
137.50928480688688
20
-59.370569427282561
30
2.7755575615628914e-15
40
0.85089999999999166
210
-1.8118378706960983e-17
220
-8.4135468233687273e-26
230
1
0
CIRCLE
5
337
100
AcDbEntity
8
0
100
AcDbCircle
10
99.409284807051392
20
-59.370681387816703
30
2.2204460492503131e-15
40
0.85089999999999166
210
-1.8118378706960983e-17
220
-8.4135468233687273e-26
230
1
0
CIRCLE
5
338
100
AcDbEntity
8
0
100
AcDbCircle
10
80.359284807133633
20
-59.370737368083766
30
1.6653345369377348e-15
40
0.85089999999999166
210
-1.8118378706960983e-17
220
-8.4135468233687273e-26
230
1
0
CIRCLE
5
339
100
AcDbEntity
8
0
100
AcDbCircle
10
42.25928480729803
20
-59.370849328617894
30
1.1102230246251565e-15
40
0.85090000000000054
210
-1.8118378706960983e-17
220
1.9262108335441255e-26
230
1
0
CIRCLE
5
340
100
AcDbEntity
8
0
100
AcDbCircle
10
13.366784807422821
20
-59.370934232022925
30
1.1102230246251565e-15
40
1.9939000000000004
210
-1.8118378691602234e-17
220
-8.4135468250015556e-26
230
1
0
CIRCLE
5
341
100
AcDbEntity
8
0
100
AcDbCircle
10
47.02184078754469
20
-78.420835333468844
30
1.6653345369377348e-15
40
0.85090000000000054
210
-1.8118378706960983e-17
220
1.9262108335441255e-26
230
1
0
CIRCLE
5
342
100
AcDbEntity
8
0
100
AcDbCircle
10
80.041840787402066
20
-78.42073830100594
30
1.6653345369377348e-15
40
1.9938999999999916
210
-1.8118378691602225e-17
220
-1.8753304481914407e-25
230
1
0
CIRCLE
5
343
100
AcDbEntity
8
0
100
AcDbCircle
10
99.091840787319839
20
-78.420682320738877
30
2.2204460492503131e-15
40
1.9938999999999916
210
-1.8118378691602237e-17
220
-1.8753304481914407e-25
230
1
0
CIRCLE
5
344
100
AcDbEntity
8
0
100
AcDbCircle
10
113.37928480699102
20
-59.37064033562087
30
2.7755575615628914e-15
40
1.9938999999999916
210
-1.8118378691602237e-17
220
-1.8753304481914407e-25
230
1
0
CIRCLE
5
345
100
AcDbEntity
8
0
100
AcDbCircle
10
132.11184078717721
20
-78.420585288275959
30
2.7755575615628914e-15
40
0.85089999999999166
210
-1.8118378706960983e-17
220
-8.4135468233687273e-26
230
1
0
CIRCLE
5
346
100
AcDbEntity
8
0
100
AcDbCircle
10
156.24184078707304
20
-78.420514379937686
30
3.3306690738754696e-15
40
1.9938999999999916
210
-1.8118378691602237e-17
220
-1.8753304481914407e-25
230
1
0
CIRCLE
5
347
100
AcDbEntity
8
0
100
AcDbCircle
10
165.44928480676629
20
-59.370487322890888
30
3.8857805861880479e-15
40
0.85090000000000943
210
-1.8118378706960983e-17
220
-1.8753304480281579e-25
230
1
0
CIRCLE
5
348
100
AcDbEntity
8
0
100
AcDbCircle
10
189.57928480666212
20
-59.370416414552601
30
3.8857805861880479e-15
40
1.9939000000000093
210
-1.8118378691602222e-17
220
-1.8753304481914407e-25
230
1
0
CIRCLE
5
349
100
AcDbEntity
8
0
100
AcDbCircle
10
194.34184078690859
20
-78.420402419403544
30
3.8857805861880479e-15
40
1.9939000000000093
210
-1.8118378691602222e-17
220
-1.8753304481914407e-25
230
1
0
CIRCLE
5
350
100
AcDbEntity
8
0
100
AcDbCircle
10
218.47184078680445
20
-78.420331511065285
30
4.4408920985006262e-15
40
0.85090000000000943
210
-1.8118378706960983e-17
220
-1.8753304480281579e-25
230
1
0
CIRCLE
5
351
100
AcDbEntity
8
0
100
AcDbCircle
10
46.386896767814356
20
-97.470837199395461
30
1.1102230246251565e-15
40
0.85090000000000054
210
-1.8118378706960983e-17
220
1.9262108335441255e-26
230
1
0
CIRCLE
5
352
100
AcDbEntity
8
0
100
AcDbCircle
10
70.51689676771025
20
-97.470766291057174
30
1.6653345369377348e-15
40
1.9939000000000004
210
-1.8118378691602231e-17
220
-8.4135468250015556e-26
230
1
0
CIRCLE
5
353
100
AcDbEntity
8
0
100
AcDbCircle
10
84.486896767649938
20
-97.470725238861291
30
2.2204460492503131e-15
40
0.85089999999999166
210
-1.8118378706960983e-17
220
-8.4135468233687273e-26
230
1
0
CIRCLE
5
354
100
AcDbEntity
8
0
100
AcDbCircle
10
122.5868967674854
20
-97.470613278327178
30
2.7755575615628914e-15
40
0.85089999999999166
210
-1.8118378706960983e-17
220
-8.4135468233687273e-26
230
1
0
CIRCLE
5
355
100
AcDbEntity
8
0
100
AcDbCircle
10
146.71689676738123
20
-97.470542369988934
30
3.3306690738754696e-15
40
1.9938999999999916
210
-1.8118378691602237e-17
220
-1.8753304481914407e-25
230
1
0
CIRCLE
5
356
100
AcDbEntity
8
0
100
AcDbCircle
10
170.84689676727714
20
-97.470471461650618
30
3.3306690738754696e-15
40
0.85090000000000943
210
-1.8118378706960983e-17
220
-1.8753304480281579e-25
230
1
0
CIRCLE
5
357
100
AcDbEntity
8
0
100
AcDbCircle
10
198.78689676715649
20
-97.470389357258952
30
4.4408920985006262e-15
40
0.85090000000000943
210
-1.8118378706960983e-17
220
-1.8753304480281579e-25
230
1
0
CIRCLE
5
358
100
AcDbEntity
8
0
100
AcDbCircle
10
227.99689676703036
20
-97.470303520849455
30
4.4408920985006262e-15
40
0.85090000000000943
210
-1.8118378706960983e-17
220
-1.8753304480281579e-25
230
1
0
CIRCLE
5
359
100
AcDbEntity
8
0
100
AcDbCircle
10
263.71564676687615
20
-97.47019855784869
30
4.9960036108132044e-15
40
0.85090000000000943
210
-1.8118378706960983e-17
220
-1.8753304480281579e-25
230
1
0
CIRCLE
5
360
100
AcDbEntity
8
0
100
AcDbCircle
10
294.03695274701226
20
-116.52010945584138
30
5.5511151231257827e-15
40
0.85090000000000943
210
-1.8118378706960983e-17
220
-1.8753304480281579e-25
230
1
0
CIRCLE
5
361
100
AcDbEntity
8
0
100
AcDbCircle
10
318.16695274690812
20
-116.52003854750308
30
6.106226635438361e-15
40
1.9939000000000093
210
-1.8118378691602222e-17
220
-1.8753304481914407e-25
230
1
0
CIRCLE
5
362
100
AcDbEntity
8
0
100
AcDbCircle
10
332.13695274684778
20
-116.51999749530725
30
6.6613381477509392e-15
40
0.85090000000000943
210
-1.8118378706961032e-17
220
-1.8753304480281574e-25
230
1
0
CIRCLE
5
363
100
AcDbEntity
8
0
100
AcDbCircle
10
267.84290506945513
20
-66.956870562284777
30
4.9960036108132044e-15
40
0.85089999999999166
210
-1.8118378693018147e-17
220
-8.4403122681156861e-26
230
1
0
CIRCLE
5
364
100
AcDbEntity
8
0
100
AcDbCircle
10
8.6041551536742471
20
-14.569370227277336
30
5.5511151231257827e-16
40
1.374999999999992
210
-1.8118378693936424e-17
220
-1.8780069924932271e-25
230
1
0
CIRCLE
5
365
100
AcDbEntity
8
0
100
AcDbCircle
10
13.684155153688769
20
-14.569370235503783
30
1.1102230246251565e-15
40
0.85089999999999166
210
-1.8118378693018147e-17
220
-8.4403122681156861e-26
230
1
0
CIRCLE
5
366
100
AcDbEntity
8
0
100
AcDbCircle
10
3.5241551536597635
20
-14.569370219050878
30
5.5511151231257827e-16
40
0.85089999999999166
210
-1.8118378693018147e-17
220
-8.4403122681156861e-26
230
1
0
CIRCLE
5
367
100
AcDbEntity
8
0
100
AcDbCircle
10
37.496655022456451
20
-95.531870143013279
30
1.6653345369377348e-15
40
0.85089999999999166
210
-1.8118378693018147e-17
220
-8.4403122681156861e-26
230
1
0
CIRCLE
5
368
100
AcDbEntity
8
0
100
AcDbCircle
10
25.590646767904175
20
-97.470898311186986
30
1.1102230246251565e-15
40
0.85090000000000054
210
-1.8118378706960983e-17
220
1.9262108335441255e-26
230
1
0
CIRCLE
5
369
100
AcDbEntity
8
0
100
AcDbCircle
10
20.828090787657743
20
-78.420912306336049
30
1.1102230246251565e-15
40
0.85090000000000054
210
-1.8118378706960983e-17
220
1.9262108335441255e-26
230
1
0
CIRCLE
5
370
100
AcDbEntity
8
0
100
AcDbCircle
10
5.9055907877221578
20
-78.420956157545262
30
5.5511151231257827e-16
40
0.85089999999999943
210
-1.8118378706960986e-17
220
-1.8753304480281579e-25
230
1
0
CIRCLE
5
371
100
AcDbEntity
8
0
100
AcDbCircle
10
20.510646767926165
20
-97.470913239258209
30
1.1102230246251565e-15
40
1.9939000000000004
210
-1.8118378691602234e-17
220
-8.4135468250015556e-26
230
1
0
LWPOLYLINE
5
372
100
AcDbEntity
8
0
100
AcDbPolyline
90
4
70
1
43
0.0
10
15.748096577812314
20
-80.391300598719951
10
10.985596577832906
20
-80.391314593786689
42
-0.99999999999999989
10
10.985584997567585
20
-76.450567865161361
10
15.748084997546989
20
-76.450553870094581
42
-0.99999999999999989
0
CIRCLE
5
373
100
AcDbEntity
8
0
100
AcDbCircle
10
15.430646767948076
20
-97.470928167329419
30
1.1102230246251565e-15
40
0.85090000000000054
210
-1.8118378706960986e-17
220
1.9262108335441261e-26
230
1
0
CIRCLE
5
374
100
AcDbEntity
8
0
100
AcDbCircle
10
270.85922882604405
20
-40.320177565495428
30
5.5511151231257827e-15
40
0.85090000000000943
210
-1.8118378706960983e-17
220
-1.8753304480281579e-25
230
1
0
CIRCLE
5
375
100
AcDbEntity
8
0
100
AcDbCircle
10
265.779228826066
20
-40.320192493566644
30
5.5511151231257827e-15
40
1.9939000000000093
210
-1.8118378691602222e-17
220
-1.8753304481914407e-25
230
1
0
CIRCLE
5
376
100
AcDbEntity
8
0
100
AcDbCircle
10
260.69922882608796
20
-40.320207421637861
30
4.9960036108132044e-15
40
0.85090000000000943
210
-1.8118378706960983e-17
220
-1.8753304480281579e-25
230
1
0
CIRCLE
5
377
100
AcDbEntity
8
0
100
AcDbCircle
10
206.56570274738999
20
-116.52036649856763
30
4.4408920985006262e-15
40
0.85090000000000943
210
-1.8118378706960983e-17
220
-1.8753304480281579e-25
230
1
0
CIRCLE
5
378
100
AcDbEntity
8
0
100
AcDbCircle
10
130.04820274772032
20
-116.52059135264034
30
3.3306690738754696e-15
40
1.9938999999999916
210
-1.8118378691602237e-17
220
-1.8753304481914407e-25
230
1
0
LWPOLYLINE
5
379
100
AcDbEntity
8
0
100
AcDbPolyline
90
4
70
1
43
0.0
10
136.87445522034534
20
-117.36201187734244
10
135.12820522035292
20
-117.3620170088669
42
-0.99999999999999989
10
135.12820027504381
20
-115.67913584027133
10
136.87445027503631
20
-115.67913070874683
42
-0.99999999999999989
0
CIRCLE
5
380
100
AcDbEntity
8
0
100
AcDbCircle
10
147.03445274764701
20
-116.52054143690221
30
3.3306690738754696e-15
40
0.85089999999999166
210
-1.8118378706960983e-17
220
-8.4135468233687273e-26
230
1
0
CIRCLE
5
381
100
AcDbEntity
8
0
100
AcDbCircle
10
124.96820274774223
20
-116.52060628071155
30
2.7755575615628914e-15
40
0.85089999999999166
210
-1.8118378706960983e-17
220
-8.4135468233687273e-26
230
1
0
CIRCLE
5
382
100
AcDbEntity
8
0
100
AcDbCircle
10
141.95445274766888
20
-116.52055636497343
30
3.3306690738754696e-15
40
1.9938999999999916
210
-1.8118378691602237e-17
220
-1.8753304481914407e-25
230
1
0
CIRCLE
5
383
100
AcDbEntity
8
0
100
AcDbCircle
10
258.31809078663235
20
-78.420214419006669
30
4.9960036108132044e-15
40
0.85090000000000943
210
-1.8118378706960983e-17
220
-1.8753304480281579e-25
230
1
0
LWPOLYLINE
5
384
100
AcDbEntity
8
0
100
AcDbPolyline
90
31
70
1
43
0.0
10
275.88184986756556
20
-94.009178410626021
42
0.414213562373069
10
274.88184986650248
20
-95.009178409562892
10
274.88184985430257
20
-106.48459418627367
42
-0.41421356237308982
10
273.88184985323949
20
-107.48459418521053
10
267.58284985323917
20
-107.48459417851393
42
-0.41421356237310025
10
266.58284985430225
20
-106.48459417745079
10
266.58284987398883
20
-87.966880538503432
42
-0.41421356236876106
10
267.5828498750372
20
-86.96688053956656
10
270.33589603903232
20
-86.966880542452685
42
0.41421356237307422
10
271.33589604008074
20
-85.966880543501034
10
271.33589604277699
20
-83.394870544810004
42
0.41421356237315748
10
270.83589604330126
20
-82.894870544285794
10
261.66790504589233
20
-82.89487053467451
42
-0.41421356237308588
10
261.16790504641648
20
-82.394870534150343
10
261.16790505375491
20
-75.394870534150328
42
-0.41421356237310025
10
261.66790505427906
20
-74.894870534674496
10
271.335903220906
20
-74.894870544809976
10
271.33589606182352
20
-65.226880554535782
42
-0.41421356237308982
10
271.83589606234773
20
-64.726880555059964
10
278.83589606234773
20
-64.726880562398421
42
-0.41421356237310025
10
279.33589606182358
20
-65.226880562922602
10
279.33589605221232
20
-74.394870561899197
42
0.41421356237305862
10
279.83589605168817
20
-74.894870562423378
10
283.40790505432261
20
-74.894870566168109
42
-0.41421356237310025
10
283.90790505379846
20
-75.39487056669229
10
283.90790504645997
20
-82.394870566692305
42
-0.41421356237307422
10
283.40790504593582
20
-82.894870566168095
10
279.83589604330126
20
-82.894870562423392
42
0.41421356237311585
10
279.33589604277705
20
-83.394870561899211
10
279.33589603269797
20
-93.009178414283355
42
-0.41421356237742379
10
278.33589603163483
20
-94.00917841323502
0
ENDSEC
0
SECTION
2
OBJECTS
0
DICTIONARY
5
C
100
AcDbDictionary
3
ACAD_GROUP
350
D
3
ACAD_MLINESTYLE
350
17
0
DICTIONARY
5
D
100
AcDbDictionary
0
DICTIONARY
5
1A
330
C
100
AcDbDictionary
0
DICTIONARY
5
17
100
AcDbDictionary
0
ENDSEC
0
EOF
