0
SECTION
2
HEADER
9
$INSUNITS
70
4
9
$ACADVER
1
AC1014
9
$HANDSEED
5
FFFF
0
ENDSEC
0
SECTION
2
TABLES
0
TABLE
2
VPORT
5
8
100
AcDbSymbolTable
0
ENDTAB
0
TABLE
2
LTYPE
5
5
100
AcDbSymbolTable
0
LTYPE
5
14
100
AcDbSymbolTableRecord
100
AcDbLinetypeTableRecord
2
BYBLOCK
70
0
0
LTYPE
5
15
100
AcDbSymbolTableRecord
100
AcDbLinetypeTableRecord
2
BYLAYER
70
0
0
LTYPE
5
16
100
AcDbSymbolTableRecord
100
AcDbLinetypeTableRecord
2
DASHED
70
0
3
Dashed __ __ __ __ __ __ __ __ __ __ __ __ __ _
72
65
73
2
40
0.75
49
0.5
74
0
49
-0.25
74
0
0
ENDTAB
0
TABLE
2
LAYER
5
2
100
AcDbSymbolTable
70
2
0
LAYER
5
50
100
AcDbSymbolTableRecord
100
AcDbLayerTableRecord
2
0
70
0
62
7
6
CONTINUOUS
0
ENDTAB
0
TABLE
2
STYLE
5
3
100
AcDbSymbolTable
70
1
0
STYLE
5
11
100
AcDbSymbolTableRecord
100
AcDbTextStyleTableRecord
2
STANDARD
70
0
0
ENDTAB
0
TABLE
2
VIEW
5
6
100
AcDbSymbolTable
70
0
0
ENDTAB
0
TABLE
2
UCS
5
7
100
AcDbSymbolTable
70
0
0
ENDTAB
0
TABLE
2
APPID
5
9
100
AcDbSymbolTable
70
2
0
APPID
5
12
100
AcDbSymbolTableRecord
100
AcDbRegAppTableRecord
2
ACAD
70
0
0
ENDTAB
0
TABLE
2
DIMSTYLE
5
A
100
AcDbSymbolTable
70
1
0
ENDTAB
0
TABLE
2
BLOCK_RECORD
5
1
100
AcDbSymbolTable
70
1
0
BLOCK_RECORD
5
1F
100
AcDbSymbolTableRecord
100
AcDbBlockTableRecord
2
*MODEL_SPACE
0
BLOCK_RECORD
5
1B
100
AcDbSymbolTableRecord
100
AcDbBlockTableRecord
2
*PAPER_SPACE
0
ENDTAB
0
ENDSEC
0
SECTION
2
BLOCKS
0
BLOCK
5
20
100
AcDbEntity
100
AcDbBlockBegin
2
*MODEL_SPACE
0
ENDBLK
5
21
100
AcDbEntity
100
AcDbBlockEnd
0
BLOCK
5
1C
100
AcDbEntity
100
AcDbBlockBegin
2
*PAPER_SPACE
0
ENDBLK
5
1D
100
AcDbEntity
100
AcDbBlockEnd
0
ENDSEC
0
SECTION
2
ENTITIES
0
LWPOLYLINE
5
100
100
AcDbEntity
8
0
100
AcDbPolyline
90
16
70
1
43
0.0
10
-276.48442169873238
20
-50.139287082808124
10
-283.85942169873226
20
-50.139287082808139
42
-0.41421356237309503
10
-284.35942169873226
20
-49.639287082808124
10
-284.35942169873232
20
-33.602287082808118
42
-0.41421356237309742
10
-283.80942169873236
20
-33.052287082808142
10
-251.55942169873225
20
-33.052287082807986
42
-0.41421356237309503
10
-251.0094216987323
20
-33.602287082807948
10
-251.00942169873218
20
-49.639287082808025
42
-0.41421356237307422
10
-251.50942169873221
20
-50.139287082808018
10
-259.13442169873235
20
-50.139287082808082
42
-0.41421356237309503
10
-259.68442169873236
20
-49.589287082808085
10
-259.68442169873236
20
-47.352287081450761
42
0.41421356237301699
10
-259.98442169873238
20
-47.052287081450793
10
-275.63442169873235
20
-47.052287081450842
42
0.41421356237308637
10
-275.93442169873236
20
-47.352287081450854
10
-275.93442169873242
20
-49.58928708280817
42
-0.41421356237308082
0
CIRCLE
5
101
100
AcDbEntity
8
0
100
AcDbCircle
10
-39.084421698943849
20
-27.669173852101622
30
-3.1155633628543455e-14
40
1.0999999999999941
210
4.2686089137957638e-17
220
-1.1796119636642298e-15
230
1
0
LINE
5
102
100
AcDbEntity
8
0
100
AcDbLine
10
-45.007452705734153
20
-31.269173850044499
30
-3.5041414214731503e-14
11
-147.46114421182415
21
-31.269173850043007
31
-3.0668066806587971e-14
0
ARC
5
103
100
AcDbEntity
8
0
100
AcDbCircle
10
-147.46114421182415
20
-30.269173850040364
30
-2.9490299091605721e-14
40
1.0000000000000004
210
5.1972237643556637e-17
220
-1.1843352426292512e-15
230
1
100
AcDbArc
50
209.67768627771946
51
270
0
LINE
5
104
100
AcDbEntity
8
0
100
AcDbLine
10
-148.32996861573386
20
-30.764294194169857
30
-3.0031532816110484e-14
11
-151.0514950885516
21
-25.988629765297169
31
-2.4286128663675299e-14
0
ARC
5
105
100
AcDbEntity
8
0
100
AcDbCircle
10
-153.38417521593681
20
-27.669173850795087
30
-2.5604518505417673e-14
40
2.8749999999999769
210
1.9630111628984965e-16
220
-1.0569776598088782e-15
230
1
100
AcDbArc
50
35.770293086800777
51
144.2297069132008
0
LINE
5
106
100
AcDbEntity
8
0
100
AcDbLine
10
-155.71685534332207
20
-25.988629765297226
30
-2.3549738548123164e-14
11
-158.43838181615399
21
-30.764294194171683
31
-2.8588242884097781e-14
0
ARC
5
107
100
AcDbEntity
8
0
100
AcDbCircle
10
-159.30720622006268
20
-30.269173850040406
30
-2.8935187579293142e-14
40
1.0000000000000009
210
4.2686089137957644e-17
220
-1.1657341758564142e-15
230
1
100
AcDbArc
50
270
51
330.32231372216279
0
LINE
5
108
100
AcDbEntity
8
0
100
AcDbLine
10
-159.30720622006268
20
-31.26917385004041
30
-3.0100921755149557e-14
11
-261.76139419255617
21
-31.269173850041337
31
-2.5672042003565592e-14
0
ARC
5
109
100
AcDbEntity
8
0
100
AcDbCircle
10
-261.76139419255617
20
-30.269173850040815
30
-2.4494295480792516e-14
40
0.99999999999999523
210
4.5943758337003535e-17
220
-1.1877708223899734e-15
230
1
100
AcDbArc
50
209.67769597614461
51
270
0
LINE
5
110
100
AcDbEntity
8
0
100
AcDbLine
10
-262.63021851265711
20
-30.764294341235725
30
-2.5042468099201194e-14
11
-265.35175011265676
21
-25.988622794504671
31
-1.9220736113823023e-14
0
ARC
5
111
100
AcDbEntity
8
0
100
AcDbCircle
10
-267.68442521801143
20
-27.669173850845898
30
-2.1163626406917059e-14
40
2.8750000000193019
210
2.0059370977061906e-17
220
-1.1839463495581585e-15
230
1
100
AcDbArc
50
35.770464306025879
51
144.22955931350285
0
LINE
5
112
100
AcDbEntity
8
0
100
AcDbLine
10
-270.01710101615379
20
-25.988623756123424
30
-1.9108846449608717e-14
11
-272.73863190886209
21
-30.764294320948373
31
-2.4424906541753444e-14
0
ARC
5
113
100
AcDbEntity
8
0
100
AcDbCircle
10
-273.6074562405243
20
-30.269173850040865
30
-2.3939183968479938e-14
40
1.0000000000000009
210
4.2686089137957632e-17
220
-1.1657341758564142e-15
230
1
100
AcDbArc
50
270
51
330.32230536173529
0
LINE
5
114
100
AcDbEntity
8
0
100
AcDbLine
10
-273.6074562405243
20
-31.269173850040865
30
-2.5104918144336352e-14
11
-294.25157958937518
21
-31.269173850040865
31
-2.3613078591348115e-14
0
LINE
5
115
100
AcDbEntity
8
0
100
AcDbLine
10
-294.25157958937518
20
-31.269173850040865
30
-2.3613078591348115e-14
11
-294.25158210065712
21
-32.05228707736233
31
-2.5413698923060224e-14
0
LINE
5
116
100
AcDbEntity
8
0
100
AcDbLine
10
-294.25158210065712
20
-32.05228707736233
30
-2.5413698923060224e-14
11
-304.91082698670834
21
-32.052287077362514
31
-2.403929400349315e-14
0
ARC
5
117
100
AcDbEntity
8
0
100
AcDbCircle
10
-303.65406499265544
20
-32.669173850040814
30
-2.5604518505417969e-14
40
1.4000000000004611
210
5.4532114297247685e-16
220
-1.4263324387121625e-15
230
1
100
AcDbArc
50
153.85569789140237
51
180
0
LINE
5
118
100
AcDbEntity
8
0
100
AcDbLine
10
-305.05406499265592
20
-32.669173850040721
30
-2.5544757980624541e-14
11
-305.05406499265547
21
-123.68863460465521
31
-1.321859288694327e-13
0
ARC
5
119
100
AcDbEntity
8
0
100
AcDbCircle
10
-303.65406499265555
20
-123.68863460465519
30
-1.3385126340637044e-13
40
1.3999999999998991
210
1.18952466924134e-15
220
-1.1934897514720291e-15
230
1
100
AcDbArc
50
180
51
270
0
LINE
5
120
100
AcDbEntity
8
0
100
AcDbLine
10
-303.65406499265555
20
-125.08863460465513
30
-1.3552214905843122e-13
11
-273.60788567785835
21
-125.08863460465498
31
-1.3513381729485678e-13
0
ARC
5
121
100
AcDbEntity
8
0
100
AcDbCircle
10
-273.60788567785835
20
-126.08863460465513
30
-1.3385126340637044e-13
40
0.99999999999999922
210
4.9922682126098682e-17
220
-1.1876102396242779e-15
230
1
100
AcDbArc
50
29.869644401213293
51
90
0
LINE
5
122
100
AcDbEntity
8
0
100
AcDbLine
10
-272.74072494923183
20
-125.5906062211989
30
-1.3330309078796176e-13
11
-270.02507756350059
21
-130.31905713670818
31
-1.3961054534661343e-13
0
ARC
5
123
100
AcDbEntity
8
0
100
AcDbCircle
10
-267.68442521593568
20
-128.64963460546014
30
-1.4051260155412137e-13
40
2.8749999999999751
210
8.1984108976888972e-16
220
-6.09136839149742e-16
230
1
100
AcDbArc
50
215.49758964846373
51
324.50241035153647
0
LINE
5
124
100
AcDbEntity
8
0
100
AcDbLine
10
-265.34377286837071
20
-130.31905713670821
30
-1.4254743219144217e-13
11
-262.62812548263986
21
-125.59060622119893
31
-1.3516965324811281e-13
0
ARC
5
125
100
AcDbEntity
8
0
100
AcDbCircle
10
-261.76096475401334
20
-126.08863460465513
30
-1.3607170945562075e-13
40
0.99999999999999645
210
4.2686089137957663e-17
220
-1.1657341758564154e-15
230
1
100
AcDbArc
50
90
51
150.13035559878813
0
LINE
5
126
100
AcDbEntity
8
0
100
AcDbLine
10
-261.76096475401334
20
-125.08863460465513
30
-1.3490597527976433e-13
11
-250.75420942247462
21
-125.08863460465503
31
-1.3654154479482254e-13
0
ARC
5
127
100
AcDbEntity
8
0
100
AcDbCircle
10
-250.75420942247467
20
-124.088634604655
30
-1.3607170945562075e-13
40
1.0000000000000142
210
4.2686089137908538e-17
220
-4.6983533920177799e-16
230
1
100
AcDbArc
50
270.00000000000324
51
360
0
LINE
5
128
100
AcDbEntity
8
0
100
AcDbLine
10
-249.75420942247467
20
-124.08863460465503
30
-1.3611439554475873e-13
11
-249.75420942089303
21
-107.09763705536028
31
-1.1608769501236793e-13
0
ARC
5
129
100
AcDbEntity
8
0
100
AcDbCircle
10
-248.75420942089303
20
-107.09763705536031
30
-1.1386724896311762e-13
40
0.99999999999999645
210
4.2686089137957706e-17
220
-1.179611963664233e-15
230
1
100
AcDbArc
50
90
51
180
0
LINE
5
130
100
AcDbEntity
8
0
100
AcDbLine
10
-248.75420942089303
20
-106.09763705536031
30
-1.1268763699945339e-13
11
-238.83920942089321
21
-106.09763705536039
31
-1.1651092758617085e-13
0
ARC
5
131
100
AcDbEntity
8
0
100
AcDbCircle
10
-238.83920942089327
20
-107.09763705536025
30
-1.1386724896311762e-13
40
1.0000000000000142
210
4.2686089137946027e-17
220
-1.1657341758564154e-15
230
1
100
AcDbArc
50
0
51
89.999999999996746
0
LINE
5
132
100
AcDbEntity
8
0
100
AcDbLine
10
-237.83920942089324
20
-107.09763705536027
30
-1.1390993505225559e-13
11
-237.8392094224748
21
-124.08863460465496
31
-1.3412881916252672e-13
0
ARC
5
133
100
AcDbEntity
8
0
100
AcDbCircle
10
-236.83920942247482
20
-124.08863460465494
30
-1.3607170945562075e-13
40
0.99999999999997868
210
1.9428902930940863e-15
220
-1.1796119636641947e-15
230
1
100
AcDbArc
50
180
51
270.00000000000159
0
LINE
5
134
100
AcDbEntity
8
0
100
AcDbLine
10
-236.8392094224748
20
-125.08863460465491
30
-1.3725132141928495e-13
11
-205.48412462009364
21
-125.08863460465484
31
-1.3741013540042332e-13
0
ARC
5
135
100
AcDbEntity
8
0
100
AcDbCircle
10
-205.48412462009364
20
-124.0886346046548
30
-1.3607170945562075e-13
40
1.0000000000000497
210
4.26860891379577e-17
220
-1.3384259448025089e-15
230
1
100
AcDbArc
50
270
51
355.30645428395542
0
ARC
5
136
100
AcDbEntity
8
0
100
AcDbCircle
10
-205.48412462033454
20
-124.25228708280775
30
-1.360717094556207e-13
40
1.0000000003512091
210
2.3282163198999768e-16
220
-1.1501237515155374e-15
230
1
100
AcDbArc
50
4.6935457924174813
51
90
0
LINE
5
137
100
AcDbEntity
8
0
100
AcDbLine
10
-205.48412462033454
20
-123.25228708280777
30
-1.3490597527976433e-13
11
-209.890921698732
21
-123.25228708280778
31
-1.3588360052271941e-13
0
ARC
5
138
100
AcDbEntity
8
0
100
AcDbCircle
10
-209.890921698732
20
-122.70228708280777
30
-1.3607170945562077e-13
40
0.54999999999999716
210
4.2686089137986203e-17
220
-1.1796119636642493e-15
230
1
100
AcDbArc
50
180
51
270
0
LINE
5
139
100
AcDbEntity
8
0
100
AcDbLine
10
-210.44092169873198
20
-122.70228708280777
30
-1.3604823210659488e-13
11
-210.44092169873204
21
-109.80228708280779
31
-1.2080614286702485e-13
0
ARC
5
140
100
AcDbEntity
8
0
100
AcDbCircle
10
-209.89092169873203
20
-109.80228708280778
30
-1.1830814106161824e-13
40
0.54999999999997939
210
4.2686089137957761e-17
220
-1.1934897514720352e-15
230
1
100
AcDbArc
50
90
51
180
0
LINE
5
141
100
AcDbEntity
8
0
100
AcDbLine
10
-209.89092169873203
20
-109.25228708280781
30
-1.1765172169830866e-13
11
-205.18442169873197
21
-109.25228708280777
31
-1.2072948918939628e-13
0
ARC
5
142
100
AcDbEntity
8
0
100
AcDbCircle
10
-205.18442169873194
20
-108.70228708280779
30
-1.2052858711086861e-13
40
0.54999999999997939
210
4.2686089137997784e-17
220
-3.652765064139909e-16
230
1
100
AcDbArc
50
-90.000000000002956
51
0
0
LINE
5
143
100
AcDbEntity
8
0
100
AcDbLine
10
-204.63442169873204
20
-108.70228708280776
30
-1.2055206445989443e-13
11
-204.63442169873196
21
-107.80228708280777
31
-1.1948775302528247e-13
0
ARC
5
144
100
AcDbEntity
8
0
100
AcDbCircle
10
-204.08442169873206
20
-107.80228708280775
30
-1.1830814106161822e-13
40
0.54999999999994387
210
4.2686089137961342e-17
220
-1.1657341758563939e-15
230
1
100
AcDbArc
50
89.999999999994088
51
180
0
LINE
5
145
100
AcDbEntity
8
0
100
AcDbLine
10
-204.084421698732
20
-107.25228708280781
30
-1.1766698726489726e-13
11
-196.89067169873255
21
-107.25228708280773
31
-1.1639476806610402e-13
0
ARC
5
146
100
AcDbEntity
8
0
100
AcDbCircle
10
-196.89067169873255
20
-107.80228708280774
30
-1.1830814106161824e-13
40
0.54999999999999716
210
4.2686089137957521e-17
220
-1.1796119636642292e-15
230
1
100
AcDbArc
50
0
51
90
0
LINE
5
147
100
AcDbEntity
8
0
100
AcDbLine
10
-196.34067169873254
20
-107.80228708280774
30
-1.1833161841064412e-13
11
-196.34067169873248
21
-122.70529189708444
31
-1.3607170945562075e-13
0
ARC
5
148
100
AcDbEntity
8
0
100
AcDbCircle
10
-196.89067169873252
20
-122.70529189708444
30
-1.3385126340637036e-13
40
0.55000000000003291
210
4.2686089138023779e-17
220
-1.1657341758564862e-15
230
1
100
AcDbArc
50
-84.008118084457891
51
0
0
SPLINE
5
149
100
AcDbEntity
8
0
100
AcDbSpline
70
0
71
3
72
14
73
10
74
0
42
0.000000001
43
0.0000000001
44
0.0000000001
40
0.0075380937946250342
40
0.0075380937946250342
40
0.0075380937946250342
40
0.0075380937946250342
40
0.039064447338693437
40
0.039064447338693437
40
0.078128894677383903
40
0.078128894677383903
40
0.10963622112753099
40
0.10963622112753099
40
0.14114335952783311
40
0.14114335952783311
40
0.14114335952783311
40
0.14114335952783311
10
-197.66804262794216
20
-124.16382492209965
30
-1.3829215550487106e-13
10
-197.66016435582654
20
-124.05934294262055
30
-1.3829215550487106e-13
10
-197.63590006367247
20
-123.95658419333773
30
-1.3607170945562075e-13
10
-197.54656731800597
20
-123.7388986245076
30
-1.3385126340637044e-13
10
-197.47407422834331
20
-123.62924066646522
30
-1.3607170945562075e-13
10
-197.30882996674427
20
-123.46181355740065
30
-1.3607170945562075e-13
10
-197.22373807196368
20
-123.39915110264954
30
-1.3829215550487106e-13
10
-197.03718760816707
20
-123.30261521516366
30
-1.3607170945562075e-13
10
-196.9368883699556
20
-123.26934148902735
30
-1.3607170945562075e-13
10
-196.83325851614455
20
-123.25228718724814
30
-1.3607170945562075e-13
0
ARC
5
150
100
AcDbEntity
8
0
100
AcDbCircle
10
-196.67087338119958
20
-124.08863460465477
30
-1.3829215550487106e-13
40
1.000000045243312
210
8.7651918797047262e-17
220
-1.1624342177630039e-15
230
1
100
AcDbArc
50
184.31215737269568
51
270
0
LINE
5
151
100
AcDbEntity
8
0
100
AcDbLine
10
-196.67087338119958
20
-125.08863460465477
30
-1.3945804623371041e-13
11
-186.81942169873111
21
-125.08863460465476
31
-1.3871267544952717e-13
0
ARC
5
152
100
AcDbEntity
8
0
100
AcDbCircle
10
-186.81942169873111
20
-124.08863460465476
30
-1.3829215550487106e-13
40
0.99999999999999645
210
4.2686089137957737e-17
220
-4.2051994465611175e-16
230
1
100
AcDbArc
50
270
51
360
0
LINE
5
153
100
AcDbEntity
8
0
100
AcDbLine
10
-185.81942169873113
20
-124.08863460465477
30
-1.3833484159400904e-13
11
-185.81942169873196
21
-122.25228688188496
31
-1.3392065234540951e-13
0
LINE
5
154
100
AcDbEntity
8
0
100
AcDbLine
10
-185.81942169873196
20
-122.25228688188496
30
-1.3392065234540951e-13
11
-185.81942169873201
21
-108.4022870828077
31
-1.1969591984239969e-13
0
ARC
5
155
100
AcDbEntity
8
0
100
AcDbCircle
10
-184.81942169873204
20
-108.40228708280769
30
-1.1608769501236793e-13
40
0.99999999999999645
210
4.2686089137957583e-17
220
-1.1518563880485977e-15
230
1
100
AcDbArc
50
90
51
180
0
LINE
5
156
100
AcDbEntity
8
0
100
AcDbLine
10
-184.81942169873204
20
-107.40228708280769
30
-1.1493583862431933e-13
11
-179.00242169873198
21
-107.40228708280767
31
-1.185564460421337e-13
0
ARC
5
157
100
AcDbEntity
8
0
100
AcDbCircle
10
-179.00242169873198
20
-108.4022870828076
30
-1.1830814106161824e-13
40
0.99999999999997868
210
4.2686089137952473e-17
220
-1.1796119636642292e-15
230
1
100
AcDbArc
50
0
51
90
0
LINE
5
158
100
AcDbEntity
8
0
100
AcDbLine
10
-178.00242169873201
20
-108.4022870828076
30
-1.183508271507562e-13
11
-178.00242169873198
21
-122.25228688188496
31
-1.3690437672408962e-13
0
LINE
5
159
100
AcDbEntity
8
0
100
AcDbLine
10
-178.00242169873198
20
-122.25228688188496
30
-1.3690437672408962e-13
11
-178.00242169873201
21
-124.08863460465471
31
-1.3825746103535153e-13
0
ARC
5
160
100
AcDbEntity
8
0
100
AcDbCircle
10
-177.00242169873204
20
-124.08863460465471
30
-1.4051260155412137e-13
40
0.99999999999997868
210
2.2551405187698973e-15
220
-1.1657341758564148e-15
230
1
100
AcDbArc
50
180
51
270
0
LINE
5
161
100
AcDbEntity
8
0
100
AcDbLine
10
-177.00242169873204
20
-125.08863460465469
30
-1.4167833572997774e-13
11
-91.459421698732243
21
-125.0886346046544
31
-1.4416409767724936e-13
0
ARC
5
162
100
AcDbEntity
8
0
100
AcDbCircle
10
-91.459421698732257
20
-124.08863460465435
30
-1.4051260155412137e-13
40
1.0000000000000497
210
4.2686089138001426e-17
220
-3.6514961231278005e-15
230
1
100
AcDbArc
50
270.0000000000008
51
360
0
LINE
5
163
100
AcDbEntity
8
0
100
AcDbLine
10
-90.459421698732228
20
-124.08863460465439
30
-1.4055528764325938e-13
11
-90.459421698732015
21
-122.25228688188537
31
-1.3610640392514028e-13
0
LINE
5
164
100
AcDbEntity
8
0
100
AcDbLine
10
-90.459421698732015
20
-122.25228688188537
30
-1.3610640392514028e-13
11
-90.459421698732072
21
-108.40228708280719
31
-1.2191636589165e-13
0
ARC
5
165
100
AcDbEntity
8
0
100
AcDbCircle
10
-89.459421698731987
20
-108.40228708280721
30
-1.2274903316011887e-13
40
0.99999999999999645
210
4.2686089137957583e-17
220
-1.1518563880485977e-15
230
1
100
AcDbArc
50
90
51
180
0
LINE
5
166
100
AcDbEntity
8
0
100
AcDbLine
10
-89.459421698731987
20
-107.40228708280722
30
-1.2159717677207027e-13
11
-79.196921698732027
21
-107.40228708280718
31
-1.2096665310064679e-13
0
ARC
5
167
100
AcDbEntity
8
0
100
AcDbCircle
10
-79.196921698732012
20
-108.40228708280716
30
-1.2274903316011887e-13
40
1.0000000000000053
210
4.2686089137951333e-17
220
-1.1934897514720437e-15
230
1
100
AcDbArc
50
0
51
90.00000000000081
0
LINE
5
168
100
AcDbEntity
8
0
100
AcDbLine
10
-78.196921698732012
20
-108.40228708280716
30
-1.2279171924925682e-13
11
-78.196921698731998
21
-122.25228688188538
31
-1.3690437672408962e-13
0
LINE
5
169
100
AcDbEntity
8
0
100
AcDbLine
10
-78.196921698731998
20
-122.25228688188538
30
-1.3690437672408962e-13
11
-78.196921698732041
21
-124.08863460465427
31
-1.4040851814556277e-13
0
ARC
5
170
100
AcDbEntity
8
0
100
AcDbCircle
10
-77.196921698732069
20
-124.08863460465429
30
-1.4273304760337169e-13
40
0.99999999999997868
210
2.3245294578089503e-15
220
-1.1796119636642704e-15
230
1
100
AcDbArc
50
180
51
270
0
LINE
5
171
100
AcDbEntity
8
0
100
AcDbLine
10
-77.196921698732069
20
-125.08863460465427
30
-1.4391265956703589e-13
11
-45.007881569373787
21
-125.08863460465415
31
-1.4410707183959865e-13
0
ARC
5
172
100
AcDbEntity
8
0
100
AcDbCircle
10
-45.007881569373794
20
-126.0886356256571
30
-1.44953493652622e-13
40
0.99999999999999556
210
4.9922654477201807e-17
220
-1.1876102407865329e-15
230
1
100
AcDbArc
50
29.869643067303947
51
89.999999999999588
0
LINE
5
173
100
AcDbEntity
8
0
100
AcDbLine
10
-44.140720829152677
20
-125.59060726238937
30
-1.4440532103421333e-13
11
-41.425074780520859
21
-130.31905610465753
31
-1.5057399771478686e-13
0
ARC
5
174
100
AcDbEntity
8
0
100
AcDbCircle
10
-39.084421696867992
20
-128.64963460545897
30
-1.4717393970187234e-13
40
2.8750000000000164
210
-3.9461871173719273e-16
220
-1.4833836209780209e-15
230
1
100
AcDbArc
50
215.49756438539035
51
324.50241035153311
0
LINE
5
175
100
AcDbEntity
8
0
100
AcDbLine
10
-36.74376934930315
20
-130.31905713670716
30
-1.4922871965916684e-13
11
-34.028122549955356
21
-125.59060724220103
31
-1.4405143744511406e-13
0
ARC
5
176
100
AcDbEntity
8
0
100
AcDbCircle
10
-33.16096182132889
20
-126.08863562565723
30
-1.44953493652622e-13
40
0.99999999999999645
210
4.2686089137957823e-17
220
-1.1657341758564317e-15
230
1
100
AcDbArc
50
89.99999999999919
51
150.13035559878671
0
LINE
5
177
100
AcDbEntity
8
0
100
AcDbLine
10
-33.160961821328875
20
-125.08863562565723
30
-1.4378775947676559e-13
11
-3.1139252159363062
21
-125.088634604654
31
-1.4401563808624087e-13
0
ARC
5
178
100
AcDbEntity
8
0
100
AcDbCircle
10
-3.1139252159363102
20
-123.68863460465403
30
-1.44953493652622e-13
40
1.3999999999999879
210
4.2686089137952609e-17
220
6.6989683312939265e-16
230
1
100
AcDbArc
50
-89.999999999999844
51
0
0
LINE
5
179
100
AcDbEntity
8
0
100
AcDbLine
10
-1.7139252159363105
20
-123.68863460465397
30
-1.4501325417741506e-13
11
-1.7139252159367071
21
-32.669173850039783
31
-3.8372083288606973e-14
0
ARC
5
180
100
AcDbEntity
8
0
100
AcDbCircle
10
-3.1139252159367148
20
-32.669173850039797
30
-3.8372083288606973e-14
40
1.4000000000000077
210
1.1225420247285552e-29
220
-1.1796119636642298e-15
230
1
100
AcDbArc
50
0
51
90.000001357011115
0
LINE
5
181
100
AcDbEntity
8
0
100
AcDbLine
10
-3.1139252490947515
20
-31.269173850039785
30
-3.6720626538061647e-14
11
-33.161390696373928
21
-31.269173850044673
31
-3.4869028450910071e-14
0
ARC
5
182
100
AcDbEntity
8
0
100
AcDbCircle
10
-33.161390696373935
20
-30.269173850039913
30
-3.3931191190106347e-14
40
1.0000000000000016
210
3.991486221627789e-17
220
-1.1912064181972323e-15
230
1
100
AcDbArc
50
209.67768557030047
51
270.0000000000004
0
LINE
5
183
100
AcDbEntity
8
0
100
AcDbLine
10
-34.03021510639681
20
-30.764294183442221
30
-3.4486302702418925e-14
11
-36.751741205284915
21
-25.988630273660917
31
-2.8727020762175925e-14
0
ARC
5
184
100
AcDbEntity
8
0
100
AcDbCircle
10
-39.084421698943842
20
-27.669173850744365
30
-3.0600522116230865e-14
40
2.8749999999953566
210
4.7334921585019173e-17
220
-1.1805219628688484e-15
230
1
100
AcDbArc
50
35.770280599085112
51
144.22968552151028
0
LINE
5
185
100
AcDbEntity
8
0
100
AcDbLine
10
-41.417101198884907
20
-25.988628894330539
30
-2.8505843518992272e-14
11
-44.138628312294124
21
-30.764294212541444
31
-3.4694469519536142e-14
0
ARC
5
186
100
AcDbEntity
8
0
100
AcDbCircle
10
-45.007452705734167
20
-30.269173850039962
30
-3.3931191190106347e-14
40
1.000000000004535
210
4.2686089137957268e-17
220
-1.1102230246201212e-15
230
1
100
AcDbArc
50
270.0000000000008
51
330.3223125107167
0
CIRCLE
5
187
100
AcDbEntity
8
0
100
AcDbCircle
10
-153.38417521593684
20
-27.669173852152351
30
-2.5604518505417673e-14
40
1.0999999999999941
210
4.2686089137957638e-17
220
-1.1796119636642298e-15
230
1
0
CIRCLE
5
188
100
AcDbEntity
8
0
100
AcDbCircle
10
-39.084421696867992
20
-128.64984702706681
30
-1.4939438575112263e-13
40
1.0999999999999941
210
4.2686089137957441e-17
220
-1.1796119636642298e-15
230
1
0
CIRCLE
5
189
100
AcDbEntity
8
0
100
AcDbCircle
10
-267.68442521801143
20
-27.669173852203087
30
-2.1163626406917047e-14
40
1.0999999999999941
210
4.2686089137957638e-17
220
-1.1796119636642298e-15
230
1
0
CIRCLE
5
190
100
AcDbEntity
8
0
100
AcDbCircle
10
-267.68442521593573
20
-128.64963460681741
30
-1.4051260155412137e-13
40
1.0999999999999941
210
4.2686089137957441e-17
220
-1.1796119636642298e-15
230
1
0
LWPOLYLINE
5
191
100
AcDbEntity
8
0
100
AcDbPolyline
90
40
70
1
43
0.0
10
-15.277671698732135
20
-90.202287081450322
42
0.41421356237308676
10
-14.727671698732154
20
-89.652287081450325
10
-14.727671698732156
20
-87.802287081449634
42
-0.41421356237309387
10
-14.177671698732162
20
-87.252287081449651
10
-7.2776716987320453
20
-87.252287081449666
42
-0.41421356237309503
10
-6.7276716987320455
20
-87.802287081449663
10
-6.7276716987320464
20
-89.652287081449941
42
0.41421356237310336
10
-6.1776716987320253
20
-90.20228708144991
10
-5.9276716987319
20
-90.202287081449967
42
-0.41421356237310686
10
-5.3776716987318789
20
-90.752287081449964
10
-5.3776716987318443
20
-103.65228708145047
42
-0.41421356237307849
10
-5.9276716987318103
20
-104.20228708145046
10
-6.1776716987321043
20
-104.20228708145045
42
0.41421356237308676
10
-6.7276716987320686
20
-104.7522870814505
10
-6.7276716987320837
20
-106.34228708442636
42
-0.41421356237308909
10
-7.2776716987320702
20
-106.89228708442636
10
-13.865671698732026
20
-106.89228708442648
42
-0.41421356237309154
10
-14.415671698732035
20
-106.3422870844265
10
-14.415671698731787
20
-105.00228708321222
42
0.41421356237308204
10
-14.96567169873204
20
-104.45228708321223
10
-29.865671698732026
20
-104.45228708321231
42
0.4142135623730927
10
-30.415671698732019
20
-105.00228708321231
10
-30.415671698732019
20
-106.34228708442677
42
-0.41421356237309742
10
-30.965671698732002
20
-106.89228708442678
10
-37.553671698731947
20
-106.89228708442691
42
-0.41421356237309037
10
-38.103671698731958
20
-106.34228708442693
10
-38.103671698731965
20
-104.75228708145059
42
0.41421356237310919
10
-38.653671698731983
20
-104.20228708145061
10
-41.203671698731753
20
-104.20228708145063
42
-0.41421356237310453
10
-41.753671698731765
20
-103.65228708145065
10
-41.753671698731807
20
-90.752287081450191
42
-0.41421356237313289
10
-41.203671698731739
20
-90.202287081450194
10
-38.653671698732154
20
-90.202287081450464
42
0.41421356237313761
10
-38.103671698732072
20
-89.652287081450453
10
-38.103671698732093
20
-87.802287081449734
42
-0.41421356237309503
10
-37.553671698732096
20
-87.252287081449737
10
-30.653671698732129
20
-87.252287081449694
42
-0.41421356237309742
10
-30.103671698732125
20
-87.802287081449691
10
-30.103671698732121
20
-89.652287081450879
42
0.41421356237311868
10
-29.553671698732103
20
-90.202287081450891
0
LWPOLYLINE
5
192
100
AcDbEntity
8
0
100
AcDbPolyline
90
8
70
1
43
0.0
10
-246.10942169873223
20
-46.50228708280796
10
-246.10942169873223
20
-33.602287082807969
42
-0.41421356237313522
10
-245.55942169873222
20
-33.052287082807965
10
-232.65942169873227
20
-33.052287082807894
42
-0.41421356237311396
10
-232.10942169873232
20
-33.602287082807891
10
-232.10942169873232
20
-46.502287082807896
42
-0.41421356237312812
10
-232.6594216987323
20
-47.052287082807894
10
-245.55942169873225
20
-47.052287082807965
42
-0.41421356237311868
0
LWPOLYLINE
5
193
100
AcDbEntity
8
0
100
AcDbPolyline
90
8
70
1
43
0.0
10
-227.05942169873228
20
-46.502287082807861
10
-227.05942169873228
20
-33.602287082807869
42
-0.41421356237313056
10
-226.5094216987323
20
-33.052287082807879
10
-213.60942169873229
20
-33.052287082807815
42
-0.41421356237313056
10
-213.05942169873231
20
-33.602287082807806
10
-213.05942169873231
20
-46.502287082807797
42
-0.41421356237313761
10
-213.60942169873229
20
-47.052287082807794
10
-226.5094216987323
20
-47.052287082807858
42
-0.41421356237313289
0
LWPOLYLINE
5
194
100
AcDbEntity
8
0
100
AcDbPolyline
90
8
70
1
43
0.0
10
-208.00942169873227
20
-46.502287082807776
10
-208.00942169873227
20
-33.602287082807784
42
-0.41421356237312812
10
-207.45942169873229
20
-33.05228708280778
10
-194.55942169873228
20
-33.052287082807752
42
-0.41421356237315415
10
-194.0094216987323
20
-33.602287082807713
10
-194.0094216987323
20
-46.502287082807719
42
-0.41421356237313289
10
-194.55942169873228
20
-47.052287082807709
10
-207.45942169873229
20
-47.052287082807773
42
-0.41421356237313289
0
LWPOLYLINE
5
195
100
AcDbEntity
8
0
100
AcDbPolyline
90
8
70
1
43
0.0
10
-53.515671698732007
20
-109.80228708280706
10
-53.515671698731978
20
-122.702287082807
42
-0.41421356237309037
10
-54.065671698731961
20
-123.25228708280703
10
-69.346921698731947
20
-123.25228708280711
42
-0.41421356237310453
10
-69.896921698731944
20
-122.7022870828071
10
-69.896921698731973
20
-109.80228708280713
42
-0.41421356237305718
10
-69.346921698732004
20
-109.25228708280714
10
-54.065671698732004
20
-109.25228708280706
42
-0.41421356237311396
0
LWPOLYLINE
5
196
100
AcDbEntity
8
0
100
AcDbPolyline
90
8
70
1
43
0.0
10
-251.15942169873196
20
-109.80228708280799
10
-251.15942169873196
20
-122.70228708280794
42
-0.41421356237310453
10
-251.70942169873197
20
-123.25228708280795
10
-264.60942169873198
20
-123.25228708280798
42
-0.41421356237309503
10
-265.15942169873193
20
-122.70228708280798
10
-265.15942169873193
20
-109.80228708280805
42
-0.41421356237310453
10
-264.60942169873198
20
-109.25228708280804
10
-251.70942169873197
20
-109.25228708280798
42
-0.41421356237314239
0
LWPOLYLINE
5
197
100
AcDbEntity
8
0
100
AcDbPolyline
90
8
70
1
43
0.0
10
-107.44692169873218
20
-71.152287082807305
10
-94.546921698732149
20
-71.152287082807248
42
-0.41421356237310453
10
-93.99692169873218
20
-71.702287082807246
10
-93.996921698732109
20
-84.602287082807251
42
-0.41421356237307611
10
-94.546921698732106
20
-85.152287082807248
10
-107.4469216987321
20
-85.15228708280732
42
-0.41421356237313289
10
-107.99692169873211
20
-84.602287082807351
10
-107.99692169873219
20
-71.702287082807302
42
-0.41421356237310453
0
LWPOLYLINE
5
198
100
AcDbEntity
8
0
100
AcDbPolyline
90
8
70
1
43
0.0
10
-244.56567169873199
20
-104.20228708280794
10
-257.46567169873197
20
-104.20228708280804
42
-0.41421356237311396
10
-258.01567169873198
20
-103.65228708280802
10
-258.01567169873204
20
-90.752287082808024
42
-0.41421356237306667
10
-257.46567169873202
20
-90.202287082807999
10
-244.56567169873205
20
-90.202287082807956
42
-0.41421356237314239
10
-244.01567169873204
20
-90.752287082807968
10
-244.01567169873204
20
-103.65228708280793
42
-0.41421356237311396
0
LWPOLYLINE
5
199
100
AcDbEntity
8
0
100
AcDbPolyline
90
8
70
1
43
0.0
10
-60.371921698732038
20
-103.65228708280708
42
0.4142135623730856
10
-59.821921698732041
20
-104.20228708280709
10
-46.921921698732035
20
-104.20228708280702
42
0.41421356237307611
10
-46.371921698732038
20
-103.65228708280702
10
-46.371921698732095
20
-90.75228708280703
42
0.41421356237309503
10
-46.921921698732099
20
-90.202287082807004
10
-59.821921698732091
20
-90.202287082807104
42
0.41421356237306667
10
-60.371921698732081
20
-90.752287082807072
0
LWPOLYLINE
5
200
100
AcDbEntity
8
0
100
AcDbPolyline
90
8
70
1
43
0.0
10
-289.25942169873213
20
-71.702287082808155
42
0.41421356237313761
10
-289.80942169873208
20
-71.152287082808158
10
-302.70942169873211
20
-71.152287082808229
42
0.41421356237309037
10
-303.25942169873207
20
-71.702287082808226
10
-303.25942169873207
20
-84.602287082808203
42
0.41421356237311396
10
-302.709421698732
20
-85.152287082808229
10
-289.80942169873202
20
-85.152287082808158
42
0.41421356237300988
10
-289.25942169873207
20
-84.602287082808175
0
LWPOLYLINE
5
201
100
AcDbEntity
8
0
100
AcDbPolyline
90
8
70
1
43
0.0
10
-289.25942169873201
20
-90.752287082808181
42
0.41421356237314239
10
-289.80942169873202
20
-90.202287082808169
10
-302.70942169873206
20
-90.202287082808226
42
0.41421356237310453
10
-303.25942169873201
20
-90.752287082808238
10
-303.25942169873201
20
-103.65228708280821
42
0.4142135623730856
10
-302.709421698732
20
-104.20228708280818
10
-289.80942169873197
20
-104.20228708280817
42
0.41421356237306667
10
-289.25942169873201
20
-103.65228708280816
0
LWPOLYLINE
5
202
100
AcDbEntity
8
0
100
AcDbPolyline
90
8
70
1
43
0.0
10
-270.209421698732
20
-90.752287082808067
42
0.41421356237314239
10
-270.75942169873201
20
-90.202287082808056
10
-283.65942169873205
20
-90.202287082808141
42
0.41421356237310453
10
-284.209421698732
20
-90.752287082808166
10
-284.209421698732
20
-103.65228708280816
42
0.41421356237311396
10
-283.65942169873199
20
-104.20228708280814
10
-270.75942169873196
20
-104.20228708280806
42
0.41421356237309503
10
-270.209421698732
20
-103.65228708280807
0
LWPOLYLINE
5
203
100
AcDbEntity
8
0
100
AcDbPolyline
90
8
70
1
43
0.0
10
-5.8906716987320173
20
-109.8022870828068
42
0.41421356237307144
10
-6.4406716987320189
20
-109.25228708280683
10
-21.721921698732011
20
-109.2522870828069
42
0.41421356237311635
10
-22.271921698732037
20
-109.80228708280691
10
-22.271921698731951
20
-122.70228708280689
42
0.41421356237308793
10
-21.721921698731954
20
-123.25228708280689
10
-6.4406716987319612
20
-123.25228708280679
42
0.41421356237308909
10
-5.8906716987319738
20
-122.70228708280681
0
LWPOLYLINE
5
204
100
AcDbEntity
8
0
100
AcDbPolyline
90
8
70
1
43
0.0
10
-193.72192169873202
20
-103.65228708280769
42
0.41421356237311396
10
-193.17192169873204
20
-104.20228708280773
10
-180.27192169873203
20
-104.20228708280763
42
0.41421356237304774
10
-179.72192169873207
20
-103.65228708280766
10
-179.72192169873207
20
-90.752287082807669
42
0.41421356237314239
10
-180.27192169873206
20
-90.202287082807658
10
-193.17192169873206
20
-90.202287082807715
42
0.4142135623730856
10
-193.72192169873202
20
-90.752287082807698
0
LWPOLYLINE
5
205
100
AcDbEntity
8
0
100
AcDbPolyline
90
8
70
1
43
0.0
10
-103.52192169873209
20
-90.7522870828073
42
0.41421356237309503
10
-104.0719216987321
20
-90.202287082807288
10
-116.97192169873207
20
-90.202287082807388
42
0.4142135623730856
10
-117.5219216987321
20
-90.752287082807356
10
-117.52192169873203
20
-103.65228708280736
42
0.4142135623730856
10
-116.97192169873203
20
-104.20228708280732
10
-104.07192169873204
20
-104.20228708280726
42
0.41421356237307611
10
-103.52192169873204
20
-103.65228708280726
0
LWPOLYLINE
5
206
100
AcDbEntity
8
0
100
AcDbPolyline
90
8
70
1
43
0.0
10
-8.2719216987322479
20
-52.652287082806851
42
0.41421356237308027
10
-8.8219216987322486
20
-52.102287082806853
10
-21.721921698732242
20
-52.102287082806939
42
0.41421356237308321
10
-22.271921698732239
20
-52.652287082806922
10
-22.271921698732193
20
-65.552287082806913
42
0.41421356237310453
10
-21.721921698732196
20
-66.102287082806896
10
-8.8219216987321953
20
-66.102287082806839
42
0.41421356237307672
10
-8.2719216987321982
20
-65.552287082806856
0
LWPOLYLINE
5
207
100
AcDbEntity
8
0
100
AcDbPolyline
90
8
70
1
43
0.0
10
-227.34692169873213
20
-71.702287082807871
42
0.41421356237313289
10
-227.89692169873211
20
-71.152287082807874
10
-240.79692169873215
20
-71.152287082807931
42
0.41421356237310919
10
-241.34692169873207
20
-71.702287082807942
10
-241.34692169873205
20
-84.602287082807948
42
0.41421356237311396
10
-240.79692169873209
20
-85.152287082807945
10
-227.89692169873206
20
-85.15228708280786
42
0.41421356237305718
10
-227.34692169873213
20
-84.602287082807862
0
LWPOLYLINE
5
208
100
AcDbEntity
8
0
100
AcDbPolyline
90
8
70
1
43
0.0
10
-217.82192169873207
20
-90.75228708280784
42
0.41421356237312346
10
-218.37192169873205
20
-90.202287082807857
10
-231.27192169873209
20
-90.202287082807885
42
0.41421356237310453
10
-231.82192169873204
20
-90.752287082807896
10
-231.82192169873204
20
-103.65228708280789
42
0.41421356237313289
10
-231.27192169873206
20
-104.20228708280787
10
-218.37192169873202
20
-104.20228708280786
42
0.41421356237311396
10
-217.8219216987321
20
-103.65228708280782
0
LWPOLYLINE
5
209
100
AcDbEntity
8
0
100
AcDbPolyline
90
8
70
1
43
0.0
10
-289.25942169873218
20
-52.652287082808158
42
0.41421356237311396
10
-289.80942169873219
20
-52.102287082808125
10
-302.70942169873223
20
-52.102287082808218
42
0.41421356237313761
10
-303.25942169873218
20
-52.652287082808215
10
-303.25942169873213
20
-65.552287082808206
42
0.41421356237312812
10
-302.70942169873211
20
-66.102287082808189
10
-289.80942169873208
20
-66.102287082808147
42
0.41421356237312812
10
-289.25942169873213
20
-65.552287082808164
0
LWPOLYLINE
5
210
100
AcDbEntity
8
0
100
AcDbPolyline
90
8
70
1
43
0.0
10
-122.28442169873217
20
-65.552287082807382
42
0.41421356237307144
10
-121.73442169873219
20
-66.102287082807379
10
-108.83442169873219
20
-66.102287082807308
42
0.41421356237308082
10
-108.28442169873216
20
-65.552287082807325
10
-108.28442169873225
20
-52.65228708280732
42
0.41421356237307144
10
-108.83442169873221
20
-52.102287082807337
10
-121.73442169873223
20
-52.102287082807393
42
0.41421356237310453
10
-122.2844216987322
20
-52.652287082807376
0
LWPOLYLINE
5
211
100
AcDbEntity
8
0
100
AcDbPolyline
90
8
70
1
43
0.0
10
-69.8969216987321
20
-84.602287082807123
42
0.4142135623730856
10
-69.346921698732103
20
-85.152287082807149
10
-56.446921698732126
20
-85.152287082807078
42
0.41421356237307611
10
-55.896921698732129
20
-84.602287082807081
10
-55.896921698732179
20
-71.702287082807075
42
0.41421356237309037
10
-56.446921698732169
20
-71.152287082807078
10
-69.34692169873216
20
-71.152287082807135
42
0.41421356237307144
10
-69.896921698732157
20
-71.702287082807132
0
LWPOLYLINE
5
212
100
AcDbEntity
8
0
100
AcDbPolyline
90
8
70
1
43
0.0
10
-65.134421698732183
20
-65.552287082807112
42
0.41421356237307611
10
-64.584421698732186
20
-66.102287082807109
10
-51.684421698732194
20
-66.102287082807067
42
0.4142135623730856
10
-51.134421698732183
20
-65.552287082807055
10
-51.134421698732247
20
-52.652287082807057
42
0.41421356237310453
10
-51.684421698732244
20
-52.102287082807052
10
-64.584421698732243
20
-52.102287082807123
42
0.41421356237306667
10
-65.13442169873224
20
-52.652287082807099
0
LWPOLYLINE
5
213
100
AcDbEntity
8
0
100
AcDbPolyline
90
8
70
1
43
0.0
10
-24.653171698732113
20
-84.602287082806953
42
0.41421356237310214
10
-24.103171698732115
20
-85.152287082806936
10
-6.4406716987321246
20
-85.152287082806851
42
0.41421356237303059
10
-5.8906716987321186
20
-84.602287082806882
10
-5.8906716987321692
20
-71.702287082806862
42
0.41421356237310392
10
-6.4406716987321744
20
-71.152287082806851
10
-24.103171698732165
20
-71.15228708280695
42
0.41421356237308321
10
-24.653171698732166
20
-71.702287082806933
0
LWPOLYLINE
5
214
100
AcDbEntity
8
0
100
AcDbPolyline
90
8
70
1
43
0.0
10
-222.58442169873229
20
-52.652287082807838
42
0.41421356237311396
10
-223.13442169873227
20
-52.102287082807806
10
-236.03442169873227
20
-52.102287082807905
42
0.41421356237312812
10
-236.58442169873223
20
-52.652287082807902
10
-236.58442169873214
20
-65.552287082807908
42
0.41421356237313761
10
-236.03442169873216
20
-66.102287082807891
10
-223.13442169873215
20
-66.102287082807834
42
0.41421356237312346
10
-222.5844216987322
20
-65.552287082807851
0
LWPOLYLINE
5
215
100
AcDbEntity
8
0
100
AcDbPolyline
90
8
70
1
43
0.0
10
-78.871921698732081
20
-90.202287082807175
42
0.41421356237307611
10
-79.421921698732078
20
-90.752287082807172
10
-79.421921698732035
20
-103.65228708280716
42
0.41421356237307611
10
-78.871921698732038
20
-104.20228708280716
10
-65.971921698732032
20
-104.20228708280709
42
0.4142135623730856
10
-65.421921698732035
20
-103.65228708280708
10
-65.421921698732092
20
-90.752287082807115
42
0.41421356237313761
10
-65.971921698732089
20
-90.202287082807089
0
LWPOLYLINE
5
216
100
AcDbEntity
8
0
100
AcDbPolyline
90
8
70
1
43
0.0
10
-127.04692169873209
20
-84.602287082807408
42
0.41421356237309503
10
-126.49692169873208
20
-85.152287082807419
10
-113.5969216987321
20
-85.152287082807362
42
0.41421356237309503
10
-113.04692169873208
20
-84.602287082807351
10
-113.04692169873218
20
-71.702287082807331
42
0.41421356237309037
10
-113.59692169873215
20
-71.152287082807348
10
-126.49692169873217
20
-71.152287082807405
42
0.4142135623730856
10
-127.04692169873215
20
-71.702287082807402
0
LWPOLYLINE
5
217
100
AcDbEntity
8
0
100
AcDbPolyline
90
8
70
1
43
0.0
10
-74.946921698732169
20
-71.70228708280716
42
0.41421356237312346
10
-75.49692169873218
20
-71.152287082807163
10
-88.396921698732157
20
-71.152287082807234
42
0.41421356237307611
10
-88.946921698732154
20
-71.702287082807231
10
-88.946921698732083
20
-84.602287082807223
42
0.41421356237309503
10
-88.396921698732044
20
-85.152287082807177
10
-75.496921698732123
20
-85.152287082807163
42
0.41421356237306667
10
-74.946921698732126
20
-84.602287082807209
0
LWPOLYLINE
5
218
100
AcDbEntity
8
0
100
AcDbPolyline
90
8
70
1
43
0.0
10
-70.184421698732237
20
-52.652287082807149
42
0.41421356237309037
10
-70.734421698732234
20
-52.102287082807159
10
-83.63442169873224
20
-52.102287082807223
42
0.41421356237307611
10
-84.184421698732237
20
-52.652287082807199
10
-84.18442169873218
20
-65.552287082807197
42
0.41421356237308082
10
-83.634421698732183
20
-66.102287082807194
10
-70.734421698732191
20
-66.102287082807138
42
0.41421356237307144
10
-70.184421698732194
20
-65.55228708280714
0
LWPOLYLINE
5
219
100
AcDbEntity
8
0
100
AcDbPolyline
90
8
70
1
43
0.0
10
-132.09692169873216
20
-71.70228708280743
42
0.4142135623730856
10
-132.64692169873214
20
-71.152287082807447
10
-145.54692169873215
20
-71.15228708280749
42
0.41421356237310919
10
-146.09692169873216
20
-71.702287082807501
10
-146.09692169873207
20
-84.602287082807521
42
0.41421356237312346
10
-145.54692169873206
20
-85.152287082807504
10
-132.64692169873206
20
-85.152287082807447
42
0.41421356237310453
10
-132.09692169873207
20
-84.602287082807436
0
LWPOLYLINE
5
220
100
AcDbEntity
8
0
100
AcDbPolyline
90
8
70
1
43
0.0
10
-98.471921698732032
20
-103.65228708280723
42
0.41421356237309503
10
-97.921921698732035
20
-104.20228708280719
10
-85.021921698732029
20
-104.20228708280719
42
0.41421356237307611
10
-84.471921698732032
20
-103.65228708280719
10
-84.471921698732075
20
-90.752287082807214
42
0.41421356237311396
10
-85.021921698732058
20
-90.202287082807203
10
-97.921921698732092
20
-90.20228708280726
42
0.41421356237309503
10
-98.471921698732103
20
-90.752287082807271
0
LWPOLYLINE
5
221
100
AcDbEntity
8
0
100
AcDbPolyline
90
8
70
1
43
0.0
10
-151.14692169873217
20
-71.702287082807516
42
0.41421356237309975
10
-151.69692169873215
20
-71.152287082807518
10
-164.59692169873216
20
-71.152287082807575
42
0.41421356237303358
10
-165.14692169873206
20
-71.702287082807587
10
-165.14692169873206
20
-84.602287082807592
42
0.4142135623730856
10
-164.59692169873205
20
-85.15228708280759
10
-151.69692169873207
20
-85.152287082807533
42
0.4142135623730856
10
-151.14692169873209
20
-84.602287082807536
0
LWPOLYLINE
5
222
100
AcDbEntity
8
0
100
AcDbPolyline
90
8
70
1
43
0.0
10
-222.29692169873206
20
-84.602287082807862
42
0.41421356237311396
10
-221.74692169873208
20
-85.152287082807888
10
-208.84692169873207
20
-85.152287082807788
42
0.41421356237310453
10
-208.29692169873212
20
-84.602287082807777
10
-208.29692169873215
20
-71.702287082807786
42
0.41421356237313761
10
-208.84692169873216
20
-71.152287082807788
10
-221.74692169873214
20
-71.152287082807845
42
0.4142135623730856
10
-222.29692169873209
20
-71.702287082807842
0
LWPOLYLINE
5
223
100
AcDbEntity
8
0
100
AcDbPolyline
90
8
70
1
43
0.0
10
-127.33442169873223
20
-52.652287082807412
42
0.41421356237308082
10
-127.88442169873224
20
-52.102287082807422
10
-140.78442169873225
20
-52.102287082807479
42
0.41421356237308082
10
-141.33442169873223
20
-52.652287082807462
10
-141.33442169873217
20
-65.552287082807453
42
0.41421356237305718
10
-140.78442169873222
20
-66.102287082807464
10
-127.88442169873218
20
-66.102287082807408
42
0.4142135623730856
10
-127.33442169873217
20
-65.552287082807396
0
LWPOLYLINE
5
224
100
AcDbEntity
8
0
100
AcDbPolyline
90
8
70
1
43
0.0
10
-36.84692169873216
20
-71.70228708280699
42
0.41421356237309975
10
-37.396921698732164
20
-71.152287082806993
10
-50.296921698732177
20
-71.15228708280705
42
0.41421356237307611
10
-50.846921698732174
20
-71.702287082807047
10
-50.846921698732118
20
-84.602287082807081
42
0.41421356237308082
10
-50.296921698732113
20
-85.15228708280705
10
-37.396921698732115
20
-85.152287082807021
42
0.41421356237305718
10
-36.846921698732118
20
-84.60228708280701
0
LWPOLYLINE
5
225
100
AcDbEntity
8
0
100
AcDbPolyline
90
8
70
1
43
0.0
10
-32.084421698732235
20
-52.652287082806978
42
0.4142135623730927
10
-32.63442169873224
20
-52.102287082806988
10
-45.534421698732245
20
-52.102287082807031
42
0.4142135623730856
10
-46.084421698732228
20
-52.652287082807021
10
-46.084421698732186
20
-65.552287082807027
42
0.41421356237309503
10
-45.534421698732189
20
-66.102287082807038
10
-32.63442169873219
20
-66.102287082806967
42
0.4142135623730927
10
-32.0844216987322
20
-65.55228708280697
0
LWPOLYLINE
5
226
100
AcDbEntity
8
0
100
AcDbPolyline
90
8
70
1
43
0.0
10
-255.6344216987321
20
-65.552287082807993
42
0.41421356237313761
10
-255.08442169873209
20
-66.10228708280799
10
-242.18442169873211
20
-66.102287082807933
42
0.41421356237310919
10
-241.6344216987321
20
-65.552287082807922
10
-241.63442169873221
20
-52.652287082807938
42
0.4142135623730856
10
-242.18442169873225
20
-52.102287082807919
10
-255.0844216987322
20
-52.102287082808012
42
0.41421356237311868
10
-255.63442169873215
20
-52.652287082807987
0
LWPOLYLINE
5
227
100
AcDbEntity
8
0
100
AcDbPolyline
90
8
70
1
43
0.0
10
-160.67192169873209
20
-90.752287082807555
42
0.41421356237309503
10
-161.2219216987321
20
-90.202287082807558
10
-174.12192169873205
20
-90.202287082807615
42
0.41421356237310453
10
-174.67192169873201
20
-90.752287082807626
10
-174.67192169873201
20
-103.65228708280759
42
0.41421356237311396
10
-174.12192169873202
20
-104.20228708280762
10
-161.22192169873205
20
-104.20228708280753
42
0.41421356237309503
10
-160.67192169873209
20
-103.65228708280755
0
LWPOLYLINE
5
228
100
AcDbEntity
8
0
100
AcDbPolyline
90
8
70
1
43
0.0
10
-155.62192169873202
20
-103.65228708280753
42
0.41421356237311396
10
-155.07192169873201
20
-104.20228708280753
10
-142.17192169873201
20
-104.20228708280747
42
0.4142135623730856
10
-141.62192169873202
20
-103.65228708280748
10
-141.62192169873205
20
-90.752287082807484
42
0.41421356237311396
10
-142.17192169873204
20
-90.202287082807487
10
-155.07192169873207
20
-90.202287082807544
42
0.41421356237309503
10
-155.62192169873208
20
-90.752287082807541
0
LWPOLYLINE
5
229
100
AcDbEntity
8
0
100
AcDbPolyline
90
8
70
1
43
0.0
10
-146.38442169873221
20
-52.652287082807504
42
0.41421356237309975
10
-146.93442169873222
20
-52.102287082807514
10
-159.83442169873223
20
-52.102287082807564
42
0.41421356237302409
10
-160.38442169873218
20
-52.652287082807554
10
-160.38442169873213
20
-65.552287082807553
42
0.41421356237309037
10
-159.83442169873217
20
-66.102287082807564
10
-146.93442169873214
20
-66.102287082807464
42
0.41421356237308082
10
-146.38442169873215
20
-65.552287082807496
0
LWPOLYLINE
5
230
100
AcDbEntity
8
0
100
AcDbPolyline
90
8
70
1
43
0.0
10
-189.24692169873214
20
-71.7022870828077
42
0.41421356237313289
10
-189.79692169873215
20
-71.152287082807703
10
-202.69692169873213
20
-71.15228708280776
42
0.41421356237309037
10
-203.24692169873208
20
-71.702287082807757
10
-203.24692169873205
20
-84.602287082807777
42
0.41421356237313289
10
-202.69692169873207
20
-85.152287082807788
10
-189.79692169873206
20
-85.152287082807732
42
0.41421356237311396
10
-189.24692169873211
20
-84.602287082807692
0
LWPOLYLINE
5
231
100
AcDbEntity
8
0
100
AcDbPolyline
90
8
70
1
43
0.0
10
-170.19692169873213
20
-71.702287082807615
42
0.41421356237313289
10
-170.74692169873214
20
-71.152287082807618
10
-183.64692169873211
20
-71.152287082807661
42
0.41421356237309503
10
-184.19692169873207
20
-71.702287082807686
10
-184.19692169873204
20
-84.602287082807692
42
0.41421356237313289
10
-183.64692169873206
20
-85.152287082807703
10
-170.74692169873205
20
-85.152287082807618
42
0.41421356237310453
10
-170.1969216987321
20
-84.602287082807607
0
LWPOLYLINE
5
232
100
AcDbEntity
8
0
100
AcDbPolyline
90
8
70
1
43
0.0
10
-217.53442169873213
20
-65.552287082807808
42
0.41421356237312812
10
-216.98442169873215
20
-66.102287082807806
10
-204.08442169873214
20
-66.102287082807734
42
0.41421356237309975
10
-203.53442169873216
20
-65.552287082807752
10
-203.53442169873227
20
-52.65228708280776
42
0.41421356237311396
10
-204.08442169873226
20
-52.102287082807734
10
-216.98442169873226
20
-52.10228708280782
42
0.41421356237313289
10
-217.53442169873222
20
-52.65228708280781
0
LWPOLYLINE
5
233
100
AcDbEntity
8
0
100
AcDbPolyline
90
8
70
1
43
0.0
10
-198.48442169873212
20
-65.552287082807737
42
0.41421356237312812
10
-197.93442169873214
20
-66.102287082807734
10
-185.03442169873213
20
-66.102287082807663
42
0.41421356237310453
10
-184.48442169873215
20
-65.552287082807666
10
-184.48442169873226
20
-52.652287082807668
42
0.41421356237311396
10
-185.03442169873225
20
-52.102287082807656
10
-197.93442169873225
20
-52.102287082807742
42
0.41421356237313289
10
-198.48442169873221
20
-52.652287082807732
0
LWPOLYLINE
5
234
100
AcDbEntity
8
0
100
AcDbPolyline
90
8
70
1
43
0.0
10
-212.77192169873203
20
-103.65228708280782
42
0.41421356237313289
10
-212.22192169873205
20
-104.20228708280781
10
-199.32192169873204
20
-104.20228708280773
42
0.41421356237306667
10
-198.77192169873209
20
-103.6522870828077
10
-198.77192169873209
20
-90.752287082807726
42
0.41421356237313289
10
-199.32192169873207
20
-90.202287082807743
10
-212.22192169873207
20
-90.202287082807814
42
0.4142135623730856
10
-212.77192169873203
20
-90.752287082807783
0
LWPOLYLINE
5
235
100
AcDbEntity
8
0
100
AcDbPolyline
90
8
70
1
43
0.0
10
-122.57192169873207
20
-90.752287082807356
42
0.41421356237312346
10
-123.12192169873207
20
-90.202287082807388
10
-136.02192169873206
20
-90.202287082807459
42
0.41421356237309503
10
-136.5719216987321
20
-90.752287082807456
10
-136.57192169873201
20
-103.65228708280742
42
0.41421356237311396
10
-136.021921698732
20
-104.2022870828074
10
-123.12192169873201
20
-104.20228708280735
42
0.4142135623730856
10
-122.571921698732
20
-103.65228708280736
0
LWPOLYLINE
5
236
100
AcDbEntity
8
0
100
AcDbPolyline
90
8
70
1
43
0.0
10
-165.43442169873225
20
-52.652287082807582
42
0.41421356237311396
10
-165.98442169873223
20
-52.10228708280755
10
-178.88442169873227
20
-52.102287082807656
42
0.41421356237312346
10
-179.43442169873222
20
-52.652287082807646
10
-179.43442169873214
20
-65.552287082807638
42
0.41421356237313761
10
-178.88442169873215
20
-66.102287082807621
10
-165.98442169873212
20
-66.102287082807578
42
0.41421356237313289
10
-165.43442169873217
20
-65.552287082807581
0
LWPOLYLINE
5
237
100
AcDbEntity
8
0
100
AcDbPolyline
90
8
70
1
43
0.0
10
-3.5094216987323215
20
-33.602287082806839
42
0.41421356237309326
10
-4.0594216987323239
20
-33.052287082806842
10
-16.959421698732324
20
-33.052287082806906
42
0.41421356237309975
10
-17.509421698732325
20
-33.60228708280691
10
-17.509421698732265
20
-46.502287082806902
42
0.41421356237308909
10
-16.959421698732267
20
-47.052287082806899
10
-4.0594216987322698
20
-47.052287082806849
42
0.4142135623730912
10
-3.5094216987322739
20
-46.502287082806845
0
CIRCLE
5
238
100
AcDbEntity
8
0
100
AcDbCircle
10
-263.01567169873277
20
-91.202287092353316
30
-9.4993457544489956e-14
40
1.0999999999999999
210
4.2686089137957693e-17
220
-1.179611963664229e-15
230
1
0
CIRCLE
5
239
100
AcDbEntity
8
0
100
AcDbCircle
10
-261.44692169873292
20
-52.80228709235346
30
-5.1694759584108851e-14
40
1.0999999999999999
210
4.2686089137957693e-17
220
-1.179611963664229e-15
230
1
0
LWPOLYLINE
5
240
100
AcDbEntity
8
0
100
AcDbPolyline
90
8
70
1
43
0.0
10
-102.68442169873225
20
-52.102287082807294
10
-89.784421698732217
20
-52.102287082807244
42
-0.41421356237306667
10
-89.234421698732248
20
-52.652287082807241
10
-89.234421698732191
20
-65.552287082807226
42
-0.41421356237309503
10
-89.784421698732189
20
-66.102287082807237
10
-102.68442169873219
20
-66.102287082807266
42
-0.41421356237307611
10
-103.23442169873219
20
-65.552287082807268
10
-103.23442169873229
20
-52.652287082807298
42
-0.41421356237310453
0
LWPOLYLINE
5
241
100
AcDbEntity
8
0
100
AcDbPolyline
90
8
70
1
43
0.0
10
-270.20942169873194
20
-109.80228708280808
10
-270.20942169873194
20
-122.70228708280806
42
-0.41421356237309503
10
-270.75942169873196
20
-123.25228708280805
10
-283.65942169873193
20
-123.25228708280811
42
-0.41421356237312346
10
-284.20942169873194
20
-122.7022870828081
10
-284.20942169873194
20
-109.80228708280816
42
-0.41421356237314239
10
-283.65942169873199
20
-109.25228708280814
10
-270.75942169873196
20
-109.2522870828081
42
-0.41421356237313289
0
LWPOLYLINE
5
242
100
AcDbEntity
8
0
100
AcDbPolyline
90
8
70
1
43
0.0
10
-289.25942169873196
20
-109.80228708280818
10
-289.25942169873196
20
-122.70228708280813
42
-0.41421356237304774
10
-289.80942169873197
20
-123.25228708280811
10
-302.70942169873194
20
-123.25228708280818
42
-0.41421356237312346
10
-303.25942169873196
20
-122.70228708280817
10
-303.25942169873201
20
-109.80228708280821
42
-0.41421356237312346
10
-302.709421698732
20
-109.25228708280821
10
-289.80942169873197
20
-109.25228708280819
42
-0.41421356237312346
0
LWPOLYLINE
5
243
100
AcDbEntity
8
0
100
AcDbPolyline
90
8
70
1
43
0.0
10
-217.82192169873198
20
-109.80228708280778
10
-217.82192169873198
20
-122.7022870828078
42
-0.41421356237309503
10
-218.37192169873197
20
-123.25228708280778
10
-233.703421698732
20
-123.25228708280791
42
-0.41421356237311396
10
-234.25342169873201
20
-122.70228708280789
10
-234.25342169873204
20
-109.80228708280791
42
-0.41421356237313289
10
-233.703421698732
20
-109.2522870828079
10
-218.37192169873191
20
-109.25228708280787
42
-0.4142135623730856
0
LWPOLYLINE
5
244
100
AcDbEntity
8
0
100
AcDbPolyline
90
8
70
1
43
0.0
10
-124.95317169873202
20
-109.80228708280741
10
-124.95317169873195
20
-122.70228708280739
42
-0.41421356237307611
10
-125.50317169873195
20
-123.25228708280738
10
-150.30942169873191
20
-123.2522870828075
42
-0.41421356237309503
10
-150.85942169873192
20
-122.70228708280752
10
-150.85942169873201
20
-109.80228708280755
42
-0.41421356237309503
10
-150.309421698732
20
-109.25228708280754
10
-125.50317169873202
20
-109.25228708280741
42
-0.41421356237311396
0
LWPOLYLINE
5
245
100
AcDbEntity
8
0
100
AcDbPolyline
90
8
70
1
43
0.0
10
-29.703171698732017
20
-109.80228708280694
10
-29.703171698731929
20
-122.70228708280689
42
-0.41421356237308082
10
-30.253171698731954
20
-123.25228708280692
10
-45.534421698731947
20
-123.25228708280703
42
-0.41421356237310919
10
-46.084421698731958
20
-122.702287082807
10
-46.084421698732015
20
-109.80228708280706
42
-0.41421356237307144
10
-45.534421698731997
20
-109.25228708280704
10
-30.253171698732029
20
-109.25228708280696
42
-0.41421356237308082
0
LWPOLYLINE
5
246
100
AcDbEntity
8
0
100
AcDbPolyline
90
8
70
1
43
0.0
10
-36.559421698732258
20
-46.502287082807001
10
-36.559421698732322
20
-33.602287082807003
42
-0.41421356237310453
10
-36.009421698732318
20
-33.052287082806991
10
-23.109421698732326
20
-33.052287082806934
42
-0.41421356237310214
10
-22.559421698732322
20
-33.602287082806924
10
-22.559421698732272
20
-46.50228708280693
42
-0.41421356237310686
10
-23.109421698732262
20
-47.052287082806934
10
-36.009421698732254
20
-47.052287082806991
42
-0.41421356237311163
0
LWPOLYLINE
5
247
100
AcDbEntity
8
0
100
AcDbPolyline
90
8
70
1
43
0.0
10
-55.609421698732277
20
-46.502287082807079
10
-55.609421698732326
20
-33.602287082807088
42
-0.4142135623730856
10
-55.059421698732336
20
-33.052287082807084
10
-42.159421698732316
20
-33.05228708280702
42
-0.41421356237311163
10
-41.609421698732319
20
-33.602287082807017
10
-41.60942169873227
20
-46.502287082807008
42
-0.41421356237308082
10
-42.159421698732267
20
-47.052287082807013
10
-55.059421698732265
20
-47.052287082807077
42
-0.41421356237308082
0
LWPOLYLINE
5
248
100
AcDbEntity
8
0
100
AcDbPolyline
90
8
70
1
43
0.0
10
-74.65942169873226
20
-46.502287082807179
10
-74.659421698732316
20
-33.60228708280718
42
-0.41421356237309503
10
-74.109421698732319
20
-33.052287082807169
10
-61.209421698732321
20
-33.052287082807105
42
-0.41421356237309975
10
-60.659421698732324
20
-33.602287082807109
10
-60.659421698732274
20
-46.502287082807101
42
-0.41421356237308082
10
-61.209421698732271
20
-47.052287082807105
10
-74.109421698732248
20
-47.052287082807169
42
-0.41421356237307611
0
LWPOLYLINE
5
249
100
AcDbEntity
8
0
100
AcDbPolyline
90
8
70
1
43
0.0
10
-93.709421698732257
20
-46.502287082807257
10
-93.709421698732299
20
-33.602287082807258
42
-0.41421356237308321
10
-93.159421698732302
20
-33.052287082807254
10
-80.259421698732325
20
-33.052287082807204
42
-0.41421356237310686
10
-79.709421698732314
20
-33.602287082807194
10
-79.709421698732271
20
-46.502287082807186
42
-0.41421356237306667
10
-80.259421698732254
20
-47.052287082807183
10
-93.159421698732245
20
-47.052287082807268
42
-0.41421356237309037
0
LWPOLYLINE
5
250
100
AcDbEntity
8
0
100
AcDbPolyline
90
8
70
1
43
0.0
10
-112.75942169873227
20
-46.502287082807342
10
-112.75942169873231
20
-33.602287082807351
42
-0.41421356237307849
10
-112.20942169873231
20
-33.052287082807347
10
-99.309421698732322
20
-33.052287082807268
42
-0.41421356237306667
10
-98.759421698732325
20
-33.60228708280728
10
-98.759421698732297
20
-46.502287082807271
42
-0.41421356237309503
10
-99.30942169873228
20
-47.052287082807283
10
-112.20942169873227
20
-47.052287082807354
42
-0.4142135623730856
0
LWPOLYLINE
5
251
100
AcDbEntity
8
0
100
AcDbPolyline
90
8
70
1
43
0.0
10
-131.80942169873225
20
-46.502287082807428
10
-131.80942169873231
20
-33.602287082807436
42
-0.4142135623730927
10
-131.2594216987323
20
-33.052287082807432
10
-118.35942169873232
20
-33.052287082807403
42
-0.41421356237309037
10
-117.80942169873231
20
-33.602287082807372
10
-117.80942169873227
20
-46.502287082807356
42
-0.41421356237309037
10
-118.35942169873228
20
-47.052287082807361
10
-131.2594216987323
20
-47.052287082807425
42
-0.41421356237306667
0
LWPOLYLINE
5
252
100
AcDbEntity
8
0
100
AcDbPolyline
90
8
70
1
43
0.0
10
-150.85942169873223
20
-46.502287082807513
10
-150.85942169873226
20
-33.602287082807521
42
-0.41421356237310214
10
-150.30942169873228
20
-33.052287082807524
10
-137.40942169873233
20
-33.052287082807467
42
-0.41421356237309037
10
-136.85942169873232
20
-33.602287082807457
10
-136.85942169873226
20
-46.502287082807442
42
-0.41421356237311868
10
-137.40942169873227
20
-47.05228708280746
10
-150.30942169873225
20
-47.05228708280751
42
-0.41421356237307611
0
LWPOLYLINE
5
253
100
AcDbEntity
8
0
100
AcDbPolyline
90
8
70
1
43
0.0
10
-169.90942169873227
20
-46.502287082807605
10
-169.90942169873227
20
-33.602287082807614
42
-0.41421356237313289
10
-169.35942169873229
20
-33.052287082807609
10
-156.45942169873229
20
-33.05228708280756
42
-0.41421356237309037
10
-155.90942169873227
20
-33.60228708280755
10
-155.90942169873222
20
-46.502287082807534
42
-0.41421356237310919
10
-156.45942169873226
20
-47.052287082807531
10
-169.35942169873226
20
-47.052287082807595
42
-0.41421356237314705
0
LWPOLYLINE
5
254
100
AcDbEntity
8
0
100
AcDbPolyline
90
8
70
1
43
0.0
10
-188.95942169873229
20
-46.502287082807683
10
-188.95942169873229
20
-33.602287082807692
42
-0.41421356237312812
10
-188.4094216987323
20
-33.052287082807695
10
-175.50942169873227
20
-33.052287082807659
42
-0.41421356237315415
10
-174.95942169873229
20
-33.602287082807628
10
-174.95942169873229
20
-46.502287082807626
42
-0.41421356237313761
10
-175.50942169873227
20
-47.052287082807624
10
-188.4094216987323
20
-47.05228708280768
42
-0.41421356237313289
0
LWPOLYLINE
5
255
100
AcDbEntity
8
0
100
AcDbPolyline
90
8
70
1
43
0.0
10
-303.25942169873224
20
-46.502287082808216
10
-303.25942169873224
20
-33.602287082808225
42
-0.41421356237309503
10
-302.70942169873223
20
-33.052287082808228
10
-289.80942169873225
20
-33.052287082808164
42
-0.41421356237313289
10
-289.25942169873224
20
-33.602287082808161
10
-289.25942169873224
20
-46.502287082808145
42
-0.41421356237314239
10
-289.80942169873225
20
-47.052287082808149
10
-302.70942169873229
20
-47.052287082808213
42
-0.41421356237313289
0
CIRCLE
5
256
100
AcDbEntity
8
0
100
AcDbCircle
10
-20.034422698732179
20
-49.052287014596018
30
-5.7245874707234634e-14
40
1.0999999999999974
210
4.2686089137957712e-17
220
-1.1657341758564148e-15
230
1
0
CIRCLE
5
257
100
AcDbEntity
8
0
100
AcDbCircle
10
-25.987546698731965
20
-116.25228826200203
30
-1.3607170945562075e-13
40
1.0999999999999974
210
4.2686089137957712e-17
220
-1.1657341758564148e-15
230
1
0
LWPOLYLINE
5
258
100
AcDbEntity
8
0
100
AcDbPolyline
90
48
70
1
43
0.0
10
-282.42777169873159
20
-76.765287091260575
42
0.41421356237312812
10
-281.87777169873158
20
-76.215287091260564
10
-281.87777169873198
20
-62.302287081451198
42
-0.41421356237309975
10
-281.32777169873196
20
-61.752287081451193
10
-280.12777169873192
20
-61.752287081451158
42
0.41421356237313289
10
-279.57777169873191
20
-61.202287081451168
10
-279.57777169873191
20
-60.902287080581075
42
0.41421356237312346
10
-280.12777169873192
20
-60.3522870805811
10
-284.52777169873195
20
-60.352287080581128
42
-0.41421356237309975
10
-285.07777169873191
20
-59.802287080581124
10
-285.07777169873202
20
-52.65228708280813
42
-0.41421356237309975
10
-284.52777169873201
20
-52.102287082808125
10
-265.94692169873184
20
-52.102287082808033
42
-0.41421356237309503
10
-265.39692169873183
20
-52.65228708280803
10
-265.39692169873177
20
-70.352287082403365
42
0.41421356237313289
10
-264.84692169873176
20
-70.902287082403348
10
-257.91517169873208
20
-70.902287082403305
42
0.41421356237312812
10
-257.36517169873207
20
-70.352287082403308
10
-257.36517169873207
20
-68.722287081451043
42
-0.41421356237309037
10
-256.81517169873212
20
-68.17228708145106
10
-249.91517169873208
20
-68.172287081451032
42
-0.41421356237309503
10
-249.3651716987321
20
-68.722287081451029
10
-249.3651716987321
20
-70.602287082808814
42
0.41421356237305251
10
-248.81517169873212
20
-71.15228708280884
10
-246.89692169873177
20
-71.15228708280894
42
-0.41421356237307144
10
-246.34692169873179
20
-71.702287082808937
10
-246.34692169873176
20
-84.402287091260774
42
-0.41421356237309503
10
-246.8969216987318
20
-84.952287091260743
10
-248.815171698732
20
-84.9522870912607
42
0.41421356237311396
10
-249.36517169873207
20
-85.50228709126074
10
-249.36517169873201
20
-87.052287084022026
42
-0.41421356237307611
10
-249.91517169873202
20
-87.602287084021981
10
-256.75317169873267
20
-87.602287084022223
42
-0.41421356237309503
10
-257.30317169873268
20
-87.052287084022225
10
-257.30317169873268
20
-85.702287081450748
42
0.41421356237309503
10
-257.85317169873269
20
-85.152287081450751
10
-272.75317169873267
20
-85.152287081450851
42
0.41421356237309503
10
-273.30317169873268
20
-85.70228708145082
10
-273.30317169873268
20
-87.052287084022851
42
-0.4142135623730856
10
-273.85317169873269
20
-87.602287084022819
10
-281.2777716987307
20
-87.602287084023089
42
-0.4142135623730856
10
-281.82777169873071
20
-87.052287084023106
10
-281.82777169873071
20
-84.915287091260581
42
0.41421356237310453
10
-282.37777169873073
20
-84.365287091260569
10
-284.52777169873173
20
-84.365287091260569
42
-0.4142135623730856
10
-285.07777169873174
20
-83.815287091260586
10
-285.07777169873179
20
-77.315287091260572
42
-0.4142135623730856
10
-284.52777169873178
20
-76.765287091260589
0
ENDSEC
0
SECTION
2
OBJECTS
0
DICTIONARY
5
C
100
AcDbDictionary
3
ACAD_GROUP
350
D
3
ACAD_MLINESTYLE
350
17
0
DICTIONARY
5
D
100
AcDbDictionary
0
DICTIONARY
5
1A
330
C
100
AcDbDictionary
0
DICTIONARY
5
17
100
AcDbDictionary
0
ENDSEC
0
EOF
