0
SECTION
2
HEADER
9
$INSUNITS
70
4
9
$ACADVER
1
AC1014
9
$HANDSEED
5
FFFF
0
ENDSEC
0
SECTION
2
TABLES
0
TABLE
2
VPORT
5
8
100
AcDbSymbolTable
0
ENDTAB
0
TABLE
2
LTYPE
5
5
100
AcDbSymbolTable
0
LTYPE
5
14
100
AcDbSymbolTableRecord
100
AcDbLinetypeTableRecord
2
BYBLOCK
70
0
0
LTYPE
5
15
100
AcDbSymbolTableRecord
100
AcDbLinetypeTableRecord
2
BYLAYER
70
0
0
LTYPE
5
16
100
AcDbSymbolTableRecord
100
AcDbLinetypeTableRecord
2
DASHED
70
0
3
Dashed __ __ __ __ __ __ __ __ __ __ __ __ __ _
72
65
73
2
40
0.75
49
0.5
74
0
49
-0.25
74
0
0
ENDTAB
0
TABLE
2
LAYER
5
2
100
AcDbSymbolTable
70
2
0
LAYER
5
50
100
AcDbSymbolTableRecord
100
AcDbLayerTableRecord
2
0
70
0
62
7
6
CONTINUOUS
0
ENDTAB
0
TABLE
2
STYLE
5
3
100
AcDbSymbolTable
70
1
0
STYLE
5
11
100
AcDbSymbolTableRecord
100
AcDbTextStyleTableRecord
2
STANDARD
70
0
0
ENDTAB
0
TABLE
2
VIEW
5
6
100
AcDbSymbolTable
70
0
0
ENDTAB
0
TABLE
2
UCS
5
7
100
AcDbSymbolTable
70
0
0
ENDTAB
0
TABLE
2
APPID
5
9
100
AcDbSymbolTable
70
2
0
APPID
5
12
100
AcDbSymbolTableRecord
100
AcDbRegAppTableRecord
2
ACAD
70
0
0
ENDTAB
0
TABLE
2
DIMSTYLE
5
A
100
AcDbSymbolTable
70
1
0
ENDTAB
0
TABLE
2
BLOCK_RECORD
5
1
100
AcDbSymbolTable
70
1
0
BLOCK_RECORD
5
1F
100
AcDbSymbolTableRecord
100
AcDbBlockTableRecord
2
*MODEL_SPACE
0
BLOCK_RECORD
5
1B
100
AcDbSymbolTableRecord
100
AcDbBlockTableRecord
2
*PAPER_SPACE
0
ENDTAB
0
ENDSEC
0
SECTION
2
BLOCKS
0
BLOCK
5
20
100
AcDbEntity
100
AcDbBlockBegin
2
*MODEL_SPACE
0
ENDBLK
5
21
100
AcDbEntity
100
AcDbBlockEnd
0
BLOCK
5
1C
100
AcDbEntity
100
AcDbBlockBegin
2
*PAPER_SPACE
0
ENDBLK
5
1D
100
AcDbEntity
100
AcDbBlockEnd
0
ENDSEC
0
SECTION
2
ENTITIES
0
LWPOLYLINE
5
100
100
AcDbEntity
8
0
100
AcDbPolyline
90
75
70
1
43
0.0
10
196.89067169883728
20
-109.2522870833637
10
209.89092169883679
20
-109.25228708336368
42
-0.41421356237309503
10
210.4409216988368
20
-109.80228708336368
10
210.4409216988368
20
-122.70228708336369
42
-0.4142135623730856
10
209.89092169883679
20
-123.25228708336367
10
205.05942169883684
20
-123.25228708336371
42
0.41421356237311396
10
204.50942169883689
20
-123.80228708336369
10
204.50942169883686
20
-125.18863460656796
42
0.41421356237312623
10
205.00942169883686
20
-125.68863460656802
10
262.10555719310992
20
-125.68863460656797
42
-0.26855890584471825
10
262.97271792173638
20
-126.19060622311174
10
265.34377286847632
20
-130.31905713781617
42
0.51506045740031936
10
270.0250775636062
20
-130.31905713781617
10
272.39613251034632
20
-126.19060622311176
42
-0.2685589058447177
10
273.26329323897278
20
-125.68863460656799
10
304.65406499276048
20
-125.68863460656814
42
0.414213562373069
10
305.65406499276048
20
-124.68863460656819
10
305.65406499276042
20
-31.669173851953722
42
0.41421356237306772
10
304.65406499276037
20
-30.66917385195373
10
273.26553179017424
20
-30.669173851953744
42
-0.26945705346998861
10
272.39670745851197
20
-30.164294322861245
10
270.01710101625901
20
-25.988623757230961
42
0.51205126868037498
10
265.35175011276198
20
-25.988622795612155
10
262.97214298177772
20
-30.164294343148633
42
-0.26945704720854086
10
262.10331866167672
20
-30.669173851953744
10
158.96528188569471
20
-30.669173851953396
42
-0.26945709259788686
10
158.09645748178599
20
-30.164294196084672
10
155.71685534342689
20
-25.988629766405182
42
0.51205302453576529
10
151.05149508865642
20
-25.988629766405165
10
148.67189295029408
20
-30.164294196068631
42
-0.26945709260281497
10
147.80306854637627
20
-30.669173851953321
10
44.665528354559605
20
-30.669173851953275
42
-0.26945708692815645
10
43.796703961119583
20
-30.164294214454749
10
41.417101198989393
20
-25.988628895438985
42
0.51205297549820605
10
36.751741205389393
20
-25.988630274769392
10
34.372139431158679
20
-30.164294185355566
42
-0.26945709590925154
10
33.503315021135805
20
-30.669173851953268
10
2.1139252160411237
20
-30.669173851953371
42
0.41421356237309498
10
1.1139252160411275
20
-31.669173851953374
10
1.1139252160410946
20
-124.68863460656804
42
0.41421356237310136
10
2.1139252160410944
20
-125.68863460656802
10
33.505553674041472
20
-125.68863460656803
42
-0.26855890584471825
10
34.372714402667938
20
-126.19060622311181
10
36.743769349407991
20
-130.31905713781612
42
0.51506059687412953
10
41.425074780625721
20
-130.31905610576644
10
43.796128995224713
20
-126.1906062433021
42
-0.26855891208533755
10
44.663289735446874
20
-125.68863460656803
10
77.196921698836775
20
-125.688634606568
42
0.41421356237309764
10
78.196921698836789
20
-124.688634606568
10
78.196921698836732
20
-109.80228708336362
42
-0.41421356237308082
10
78.746921698836715
20
-109.25228708336364
10
89.909421698836795
20
-109.25228708336363
42
-0.41421356237311396
10
90.459421698836749
20
-109.80228708336358
10
90.459421698836735
20
-124.68863460656799
42
0.41421356237309503
10
91.459421698836735
20
-125.68863460656799
10
147.80530719310977
20
-125.688634606568
42
-0.26855890584472897
10
148.67246792173626
20
-126.19060622311181
10
151.04352286847626
20
-130.31905713781615
42
0.51506124520666496
10
155.72483172133059
20
-130.31905130836725
10
158.09588253263794
20
-126.19060633714545
42
-0.26855894109142631
10
158.96304332675629
20
-125.68863460656799
10
177.00242169883677
20
-125.68863460656797
42
0.41421356237307422
10
178.00242169883674
20
-124.68863460656794
10
178.00242169883674
20
-109.80228708336367
42
-0.41421356237312346
10
178.5524216988367
20
-109.2522870833637
10
185.26942169883677
20
-109.25228708336368
42
-0.41421356237310453
10
185.81942169883675
20
-109.80228708336369
10
185.81942169883678
20
-124.68863460656794
42
0.41421356237307422
10
186.81942169883681
20
-125.68863460656797
10
196.85942169883685
20
-125.68863460656794
42
0.41421356237304302
10
197.35942169883685
20
-125.18863460656797
10
197.35942169883685
20
-123.80228708336369
42
0.39272177318738299
10
196.85004669883705
20
-123.25378949050204
42
-0.39272177318733648
10
196.3406716988373
20
-122.70529189764045
10
196.3406716988373
20
-109.80228708336368
42
-0.41421356237309503
0
LWPOLYLINE
5
101
100
AcDbEntity
8
0
100
AcDbPolyline
90
30
70
1
43
0.0
10
43.871921698836772
20
-88.609393864550142
42
0.19891236737964499
10
43.725475089430063
20
-88.255840473956866
10
42.018368308243495
20
-86.548733692770355
42
0.19891236737967891
10
41.664814917650226
20
-86.402287083363603
10
34.846921698836759
20
-86.402287083363632
42
-0.41421356237309503
10
34.346921698836759
20
-85.902287083363618
10
34.346921698836759
20
-69.102287083363592
42
0.41421356237310025
10
33.846921698836766
20
-68.602287083363578
10
30.084421698836749
20
-68.602287083363592
42
-0.41421356237309503
10
29.584421698836749
20
-68.102287083363592
10
29.584421698836749
20
-50.102287083363578
42
-0.41421356237309503
10
30.084421698836749
20
-49.602287083363585
10
247.55942169883679
20
-49.602287083363585
42
-0.099019513592770655
10
247.75172939114444
20
-49.640748621825104
10
250.56711400652904
20
-50.813825544902159
42
0.0990195135927735
10
250.75942169883675
20
-50.852287083363699
10
257.13442169883677
20
-50.852287083363699
42
-0.41421356237309503
10
257.63442169883677
20
-51.352287083363706
10
257.63442169883672
20
-66.852287083363692
42
-0.41421356237308982
10
257.13442169883672
20
-67.352287083363677
10
244.34692169883681
20
-67.352287083363706
42
0.4142135623730222
10
243.84692169883687
20
-67.852287083363706
10
243.84692169883681
20
-87.152287083363717
42
-0.4142135623730846
10
243.34692169883681
20
-87.652287083363717
10
234.82192169883689
20
-87.652287083363731
42
0.4142135623730846
10
234.32192169883683
20
-88.152287083363717
10
234.32192169883689
20
-107.25228708336368
42
-0.41421356237310542
10
233.82192169883689
20
-107.75228708336371
10
44.371921698836765
20
-107.75228708336374
42
-0.41421356237309503
10
43.871921698836765
20
-107.25228708336374
0
CIRCLE
5
102
100
AcDbEntity
8
0
100
AcDbCircle
10
153.38417521604123
20
-128.64963460792524
30
5.1625370645069779e-14
40
1.0999999999999945
210
-1.4468227766215335e-32
220
4.0245584642661925e-16
230
1
0
CIRCLE
5
103
100
AcDbEntity
8
0
100
AcDbCircle
10
267.68442521604135
20
-128.64963460792535
30
5.1625370645069779e-14
40
1.0999999999999945
210
-1.4468227766215335e-32
220
4.0245584642661925e-16
230
1
0
LWPOLYLINE
5
104
100
AcDbEntity
8
0
100
AcDbPolyline
90
16
70
1
43
0.0
10
251.0094216988368
20
-48.889287083363733
10
251.00942169883677
20
-33.602287083363642
42
-0.4142135623730927
10
251.55942169883673
20
-33.052287083363687
10
283.80942169883684
20
-33.052287083363716
42
-0.41421356237309503
10
284.3594216988368
20
-33.602287083363677
10
284.3594216988368
20
-49.639287083363698
42
-0.41421356237310025
10
283.8594216988368
20
-50.139287083363719
10
276.23442169883697
20
-50.139287083363733
42
-0.41421356237308637
10
275.93442169883696
20
-49.839287083363729
10
275.9344216988369
20
-47.352287082006448
42
0.41421356237311241
10
275.63442169883683
20
-47.052287082006458
10
259.98442169883685
20
-47.052287082006465
42
0.41421356237303436
10
259.6844216988369
20
-47.352287082006448
10
259.6844216988369
20
-49.089287083363686
42
-0.41421356237309503
10
259.38442169883689
20
-49.389287083363698
10
251.50942169883677
20
-49.389287083363726
42
-0.4142135623730222
0
CIRCLE
5
105
100
AcDbEntity
8
0
100
AcDbCircle
10
39.084421696972839
20
-128.64984702817569
30
5.1625370645069779e-14
40
1.0999999999999988
210
-1.1386739855195864e-32
220
4.024558464266193e-16
230
1
0
LWPOLYLINE
5
106
100
AcDbEntity
8
0
100
AcDbPolyline
90
24
70
1
43
0.0
10
257.36517169883672
20
-70.552287083363709
42
0.41421356237313406
10
257.96517169883668
20
-71.152287083363703
10
272.84692169883681
20
-71.152287083363703
42
0.4142135623731254
10
273.44692169883677
20
-70.552287083363694
10
273.44692169883677
20
-68.802287091816808
42
-0.41421356237309503
10
274.04692169883674
20
-68.2022870918168
10
280.61677169883643
20
-68.202287091816899
42
-0.41421356237310375
10
281.21677169883645
20
-68.802287091816908
10
281.21677169883617
20
-86.302287083363737
42
-0.41421356237311396
10
280.66677169883621
20
-86.852287083363748
10
273.90317169883735
20
-86.852287083363706
42
-0.41421356237309503
10
273.30317169883739
20
-86.252287083363726
10
273.30317169883739
20
-85.75228708200649
42
0.41421356237313839
10
272.70317169883742
20
-85.15228708200641
10
257.90317169883735
20
-85.152287082006467
42
0.41421356237309503
10
257.30317169883733
20
-85.752287082006461
10
257.30317169883739
20
-86.25228708336374
42
-0.41421356237310375
10
256.70317169883737
20
-86.852287083363763
10
249.91517169883667
20
-86.852287083363748
42
-0.41421356237309503
10
249.36517169883672
20
-86.30228708336378
10
249.36517169883672
20
-69.302287082006458
42
-0.41421356237309936
10
249.96517169883671
20
-68.70228708200645
10
256.76517169883675
20
-68.702287082006436
42
-0.41421356237311241
10
257.36517169883672
20
-69.302287082006458
0
LWPOLYLINE
5
107
100
AcDbEntity
8
0
100
AcDbPolyline
90
8
70
1
43
0.0
10
289.80942169883679
20
-71.152287083363717
10
302.70942169883676
20
-71.152287083363717
42
-0.41421356237302881
10
303.25942169883672
20
-71.702287083363728
10
303.25942169883672
20
-84.602287083363748
42
-0.41421356237305718
10
302.70942169883671
20
-85.152287083363717
10
289.80942169883679
20
-85.152287083363717
42
-0.41421356237311396
10
289.25942169883672
20
-84.60228708336372
10
289.25942169883672
20
-71.7022870833637
42
-0.41421356237314705
0
LWPOLYLINE
5
108
100
AcDbEntity
8
0
100
AcDbPolyline
90
8
70
1
43
0.0
10
278.94692169883712
20
-65.902287091816873
10
265.99692169883662
20
-65.902287091816703
42
-0.41421356237309975
10
265.44692169883666
20
-65.352287091816692
10
265.4469216988366
20
-52.652287083363696
42
-0.41421356237316598
10
265.99692169883673
20
-52.102287083363706
10
278.94692169883717
20
-52.10228708336372
42
-0.41421356237309503
10
279.49692169883713
20
-52.652287083363717
10
279.49692169883713
20
-65.352287091816876
42
-0.41421356237309037
0
LWPOLYLINE
5
109
100
AcDbEntity
8
0
100
AcDbPolyline
90
8
70
1
43
0.0
10
233.70342169883682
20
-123.25228708336374
10
218.37192169883679
20
-123.25228708336367
42
-0.4142135623730856
10
217.82192169883677
20
-122.70228708336369
10
217.82192169883672
20
-109.80228708336367
42
-0.41421356237309503
10
218.37192169883667
20
-109.2522870833637
10
233.70342169883682
20
-109.2522870833637
42
-0.41421356237311396
10
234.25342169883677
20
-109.80228708336369
10
234.25342169883686
20
-122.7022870833637
42
-0.41421356237312346
0
LWPOLYLINE
5
110
100
AcDbEntity
8
0
100
AcDbPolyline
90
8
70
1
43
0.0
10
4.0594216988367346
20
-33.052287082006309
10
16.959421698836735
20
-33.052287083363566
42
-0.41421356237309387
10
17.509421698836736
20
-33.602287083363564
10
17.509421698836739
20
-46.502287083363569
42
-0.41421356237309859
10
16.959421698836735
20
-47.052287083363581
10
4.0594216988367364
20
-47.052287083363566
42
-0.41421356237308676
10
3.5094216988367393
20
-46.502287083363569
10
3.5094216988367313
20
-33.602287082006299
42
-0.41421356237308643
0
CIRCLE
5
111
100
AcDbEntity
8
0
100
AcDbCircle
10
153.38417521604165
20
-27.669173853260347
30
1.1102230246251565e-14
40
1.0999999999999945
210
-2.2171947543765192e-32
220
4.0245584642661925e-16
230
1
0
CIRCLE
5
112
100
AcDbEntity
8
0
100
AcDbCircle
10
39.084421699048328
20
-27.669173853210083
30
1.1102230246251565e-14
40
1.0999999999999988
210
-2.0631203588255508e-32
220
4.024558464266193e-16
230
1
0
LWPOLYLINE
5
113
100
AcDbEntity
8
0
100
AcDbPolyline
90
8
70
1
43
0.0
10
264.6094216988368
20
-123.25228708336371
42
0.41421356237310453
10
265.15942169883681
20
-122.70228708336373
10
265.15942169883675
20
-109.80228708336371
42
0.41421356237309503
10
264.60942169883674
20
-109.25228708336375
10
251.70942169883676
20
-109.25228708336374
42
0.41421356237314239
10
251.15942169883678
20
-109.80228708336372
10
251.15942169883681
20
-122.7022870833637
42
0.41421356237307611
10
251.70942169883685
20
-123.25228708336374
0
LWPOLYLINE
5
114
100
AcDbEntity
8
0
100
AcDbPolyline
90
8
70
1
43
0.0
10
289.80942169883673
20
-90.202287083363757
42
0.41421356237314239
10
289.25942169883677
20
-90.752287083363754
10
289.25942169883677
20
-103.65228708336375
42
0.41421356237307611
10
289.80942169883679
20
-104.20228708336374
10
302.70942169883676
20
-104.20228708336374
42
0.41421356237312346
10
303.25942169883677
20
-103.65228708336373
10
303.25942169883672
20
-90.75228708336374
42
0.41421356237311396
10
302.70942169883676
20
-90.202287083363743
0
LWPOLYLINE
5
115
100
AcDbEntity
8
0
100
AcDbPolyline
90
8
70
1
43
0.0
10
270.75942169883672
20
-90.202287083363728
42
0.41421356237314239
10
270.20942169883676
20
-90.752287083363711
10
270.20942169883676
20
-103.65228708336372
42
0.41421356237307611
10
270.75942169883677
20
-104.20228708336374
10
283.65942169883675
20
-104.20228708336376
42
0.41421356237312346
10
284.20942169883676
20
-103.65228708336373
10
284.20942169883676
20
-90.75228708336374
42
0.41421356237311396
10
283.65942169883675
20
-90.202287083363743
0
LWPOLYLINE
5
116
100
AcDbEntity
8
0
100
AcDbPolyline
90
8
70
1
43
0.0
10
270.75942169883672
20
-109.25228708336374
42
0.41421356237314239
10
270.20942169883676
20
-109.80228708336372
10
270.20942169883676
20
-122.70228708336373
42
0.41421356237310453
10
270.75942169883677
20
-123.25228708336375
10
283.65942169883675
20
-123.25228708336371
42
0.41421356237310453
10
284.20942169883682
20
-122.70228708336373
10
284.20942169883676
20
-109.80228708336375
42
0.41421356237311396
10
283.65942169883675
20
-109.25228708336374
0
LWPOLYLINE
5
117
100
AcDbEntity
8
0
100
AcDbPolyline
90
8
70
1
43
0.0
10
6.4406716988367414
20
-109.25228708336361
42
0.41421356237308499
10
5.8906716988367283
20
-109.80228708336361
10
5.8906716988367522
20
-122.7022870833636
42
0.41421356237308143
10
6.4406716988367441
20
-123.25228708336363
10
21.721921698836738
20
-123.25228708336354
42
0.41421356237307849
10
22.271921698836735
20
-122.70228708336359
10
22.271921698836763
20
-109.80228708336362
42
0.4142135623730856
10
21.721921698836745
20
-109.2522870833636
0
LWPOLYLINE
5
118
100
AcDbEntity
8
0
100
AcDbPolyline
90
8
70
1
43
0.0
10
8.8219216988367375
20
-52.102287083363557
42
0.4142135623730791
10
8.271921698836735
20
-52.652287083363554
10
8.2719216988367421
20
-65.552287083363566
42
0.41421356237310453
10
8.8219216988367393
20
-66.102287083363592
10
21.721921698836741
20
-66.102287083363592
42
0.4142135623730856
10
22.271921698836739
20
-65.552287083363595
10
22.271921698836735
20
-52.652287083363582
42
0.41421356237309742
10
21.721921698836741
20
-52.102287083363578
0
LWPOLYLINE
5
119
100
AcDbEntity
8
0
100
AcDbPolyline
90
8
70
1
43
0.0
10
99.309421698836758
20
-33.052287083363609
42
0.41421356237307611
10
98.759421698836746
20
-33.602287083363613
10
98.759421698836789
20
-46.502287083363612
42
0.41421356237307611
10
99.309421698836772
20
-47.052287083363602
10
112.20942169883676
20
-47.052287083363638
42
0.4142135623730856
10
112.75942169883676
20
-46.502287083363626
10
112.75942169883675
20
-33.602287083363613
42
0.41421356237309037
10
112.20942169883674
20
-33.052287083363623
0
LWPOLYLINE
5
120
100
AcDbEntity
8
0
100
AcDbPolyline
90
8
70
1
43
0.0
10
55.059421698836744
20
-47.052287083363595
42
0.41421356237307611
10
55.609421698836741
20
-46.502287083363598
10
55.609421698836741
20
-33.602287083363585
42
0.41421356237307849
10
55.059421698836744
20
-33.052287083363595
10
42.159421698836738
20
-33.052287083363574
42
0.41421356237310453
10
41.609421698836741
20
-33.602287083363578
10
41.609421698836741
20
-46.502287083363598
42
0.41421356237307611
10
42.159421698836738
20
-47.052287083363581
0
LWPOLYLINE
5
121
100
AcDbEntity
8
0
100
AcDbPolyline
90
8
70
1
43
0.0
10
289.80942169883679
20
-52.102287083363692
42
0.41421356237311396
10
289.25942169883677
20
-52.652287083363703
10
289.25942169883672
20
-65.552287083363723
42
0.41421356237315182
10
289.80942169883679
20
-66.10228708336372
10
302.70942169883676
20
-66.102287083363706
42
0.41421356237312812
10
303.25942169883672
20
-65.552287083363723
10
303.25942169883677
20
-52.652287083363717
42
0.41421356237311396
10
302.70942169883682
20
-52.102287083363734
0
LWPOLYLINE
5
122
100
AcDbEntity
8
0
100
AcDbPolyline
90
8
70
1
43
0.0
10
289.80942169883673
20
-33.052287083363723
42
0.41421356237313289
10
289.25942169883672
20
-33.602287083363706
10
289.25942169883677
20
-46.502287083363711
42
0.41421356237313761
10
289.80942169883679
20
-47.052287083363716
10
302.70942169883676
20
-47.052287083363701
42
0.41421356237313289
10
303.25942169883683
20
-46.502287083363719
10
303.25942169883672
20
-33.602287083363713
42
0.41421356237311163
10
302.70942169883676
20
-33.052287083363716
0
LWPOLYLINE
5
123
100
AcDbEntity
8
0
100
AcDbPolyline
90
8
70
1
43
0.0
10
150.30942169883676
20
-47.052287083363645
42
0.4142135623730856
10
150.85942169883674
20
-46.50228708336364
10
150.85942169883671
20
-33.602287083363635
42
0.41421356237310214
10
150.30942169883673
20
-33.052287083363638
10
137.40942169883675
20
-33.052287083363638
42
0.41421356237307849
10
136.85942169883677
20
-33.602287083363635
10
136.85942169883677
20
-46.502287083363626
42
0.41421356237311868
10
137.40942169883678
20
-47.052287083363623
0
LWPOLYLINE
5
124
100
AcDbEntity
8
0
100
AcDbPolyline
90
8
70
1
43
0.0
10
36.009421698836732
20
-47.052287083363581
42
0.4142135623730856
10
36.559421698836729
20
-46.502287083363584
10
36.559421698836736
20
-33.602287083363578
42
0.41421356237309975
10
36.009421698836739
20
-33.052287083363588
10
23.109421698836741
20
-33.052287083363574
42
0.4142135623730927
10
22.559421698836736
20
-33.602287083363571
10
22.559421698836729
20
-46.502287083363584
42
0.41421356237308082
10
23.109421698836737
20
-47.052287083363574
0
LWPOLYLINE
5
125
100
AcDbEntity
8
0
100
AcDbPolyline
90
8
70
1
43
0.0
10
24.103171698836753
20
-85.152287083363547
42
0.41421356237309037
10
24.65317169883674
20
-84.602287083363564
10
24.65317169883674
20
-71.702287083363586
42
0.41421356237307377
10
24.103171698836732
20
-71.152287083363589
10
6.4406716988367396
20
-71.152287083363589
42
0.41421356237310686
10
5.890671698836738
20
-71.702287083363572
10
5.8906716988367416
20
-84.602287083363578
42
0.41421356237307672
10
6.4406716988367352
20
-85.152287083363589
0
LWPOLYLINE
5
126
100
AcDbEntity
8
0
100
AcDbPolyline
90
8
70
1
43
0.0
10
74.109421698836726
20
-47.052287083363609
42
0.41421356237309503
10
74.659421698836738
20
-46.502287083363612
10
74.659421698836738
20
-33.602287083363592
42
0.4142135623730856
10
74.109421698836741
20
-33.052287083363595
10
61.209421698836749
20
-33.052287083363581
42
0.41421356237310453
10
60.659421698836752
20
-33.602287083363585
10
60.659421698836752
20
-46.502287083363598
42
0.41421356237307611
10
61.209421698836749
20
-47.052287083363581
0
LWPOLYLINE
5
127
100
AcDbEntity
8
0
100
AcDbPolyline
90
8
70
1
43
0.0
10
289.80942169883679
20
-109.25228708336377
42
0.41421356237314239
10
289.25942169883677
20
-109.80228708336377
10
289.25942169883677
20
-122.70228708336373
42
0.41421356237309503
10
289.80942169883679
20
-123.25228708336375
10
302.70942169883676
20
-123.25228708336374
42
0.41421356237307611
10
303.25942169883683
20
-122.70228708336374
10
303.25942169883677
20
-109.80228708336375
42
0.41421356237311396
10
302.70942169883676
20
-109.25228708336375
0
LWPOLYLINE
5
128
100
AcDbEntity
8
0
100
AcDbPolyline
90
8
70
1
43
0.0
10
213.60942169883674
20
-33.05228708336368
42
0.41421356237313289
10
213.05942169883676
20
-33.602287083363663
10
213.05942169883679
20
-46.502287083363676
42
0.41421356237313761
10
213.6094216988368
20
-47.052287083363673
10
226.50942169883677
20
-47.052287083363666
42
0.41421356237312812
10
227.05942169883679
20
-46.502287083363697
10
227.05942169883673
20
-33.602287083363677
42
0.41421356237312812
10
226.50942169883675
20
-33.052287083363673
0
LWPOLYLINE
5
129
100
AcDbEntity
8
0
100
AcDbPolyline
90
8
70
1
43
0.0
10
80.259421698836761
20
-33.052287083363602
42
0.41421356237310686
10
79.709421698836749
20
-33.602287083363599
10
79.709421698836749
20
-46.502287083363612
42
0.41421356237307144
10
80.259421698836761
20
-47.052287083363595
10
93.159421698836724
20
-47.05228708336363
42
0.41421356237310453
10
93.709421698836749
20
-46.502287083363612
10
93.709421698836735
20
-33.602287083363606
42
0.41421356237309037
10
93.159421698836724
20
-33.052287083363609
0
LWPOLYLINE
5
130
100
AcDbEntity
8
0
100
AcDbPolyline
90
8
70
1
43
0.0
10
257.46567169883679
20
-104.20228708336373
42
0.41421356237313289
10
258.01567169883674
20
-103.65228708336372
10
258.01567169883674
20
-90.75228708336374
42
0.41421356237307611
10
257.46567169883679
20
-90.202287083363743
10
244.56567169883672
20
-90.202287083363728
42
0.41421356237314239
10
244.01567169883677
20
-90.752287083363711
10
244.01567169883677
20
-103.65228708336372
42
0.41421356237307611
10
244.56567169883681
20
-104.2022870833637
0
LWPOLYLINE
5
131
100
AcDbEntity
8
0
100
AcDbPolyline
90
8
70
1
43
0.0
10
150.30942169883673
20
-123.25228708336365
42
0.41421356237309503
10
150.85942169883674
20
-122.70228708336364
10
150.85942169883674
20
-109.80228708336368
42
0.41421356237307611
10
150.30942169883676
20
-109.2522870833637
10
125.50317169883677
20
-109.25228708336365
42
0.41421356237309503
10
124.95317169883677
20
-109.80228708336364
10
124.95317169883675
20
-122.70228708336363
42
0.41421356237307611
10
125.50317169883675
20
-123.25228708336368
0
LWPOLYLINE
5
132
100
AcDbEntity
8
0
100
AcDbPolyline
90
8
70
1
43
0.0
10
30.253171698836749
20
-109.25228708336363
42
0.41421356237309503
10
29.703171698836751
20
-109.80228708336362
10
29.70317169883673
20
-122.70228708336359
42
0.41421356237308321
10
30.253171698836745
20
-123.25228708336363
10
45.534421698836745
20
-123.25228708336363
42
0.41421356237310453
10
46.084421698836742
20
-122.70228708336361
10
46.084421698836742
20
-109.80228708336362
42
0.41421356237308082
10
45.534421698836731
20
-109.25228708336361
0
LWPOLYLINE
5
133
100
AcDbEntity
8
0
100
AcDbPolyline
90
8
70
1
43
0.0
10
69.346921698836738
20
-123.25228708336363
42
0.41421356237310453
10
69.896921698836735
20
-122.70228708336361
10
69.896921698836721
20
-109.80228708336364
42
0.41421356237307611
10
69.346921698836724
20
-109.25228708336363
10
54.065671698836724
20
-109.25228708336361
42
0.41421356237309037
10
53.515671698836734
20
-109.80228708336361
10
53.515671698836769
20
-122.7022870833636
42
0.41421356237309037
10
54.065671698836752
20
-123.25228708336365
0
LWPOLYLINE
5
134
100
AcDbEntity
8
0
100
AcDbPolyline
90
8
70
1
43
0.0
10
245.55942169883676
20
-47.05228708336368
42
0.41421356237313761
10
246.10942169883671
20
-46.502287083363697
10
246.10942169883671
20
-33.602287083363692
42
0.41421356237311163
10
245.55942169883676
20
-33.052287083363687
10
232.65942169883675
20
-33.052287083363694
42
0.41421356237313056
10
232.10942169883677
20
-33.602287083363677
10
232.1094216988368
20
-46.502287083363683
42
0.41421356237313761
10
232.65942169883681
20
-47.052287083363673
0
LWPOLYLINE
5
135
100
AcDbEntity
8
0
100
AcDbPolyline
90
8
70
1
43
0.0
10
118.35942169883674
20
-33.05228708336363
42
0.41421356237307849
10
117.80942169883676
20
-33.60228708336362
10
117.80942169883676
20
-46.502287083363612
42
0.41421356237311396
10
118.35942169883677
20
-47.052287083363609
10
131.25942169883677
20
-47.052287083363638
42
0.41421356237308082
10
131.80942169883676
20
-46.502287083363633
10
131.80942169883676
20
-33.60228708336362
42
0.41421356237309037
10
131.25942169883675
20
-33.052287083363623
0
LWPOLYLINE
5
136
100
AcDbEntity
8
0
100
AcDbPolyline
90
8
70
1
43
0.0
10
175.50942169883672
20
-33.052287083363659
42
0.41421356237313289
10
174.95942169883674
20
-33.602287083363642
10
174.95942169883676
20
-46.502287083363647
42
0.41421356237313761
10
175.50942169883677
20
-47.052287083363652
10
188.40942169883678
20
-47.052287083363638
42
0.41421356237312812
10
188.95942169883679
20
-46.502287083363655
10
188.95942169883676
20
-33.602287083363656
42
0.41421356237313289
10
188.40942169883675
20
-33.052287083363659
0
LWPOLYLINE
5
137
100
AcDbEntity
8
0
100
AcDbPolyline
90
8
70
1
43
0.0
10
169.35942169883677
20
-47.052287083363638
42
0.41421356237313289
10
169.90942169883678
20
-46.502287083363647
10
169.90942169883675
20
-33.602287083363649
42
0.41421356237313522
10
169.35942169883674
20
-33.052287083363645
10
156.45942169883674
20
-33.052287083363645
42
0.4142135623730927
10
155.90942169883672
20
-33.602287083363642
10
155.90942169883675
20
-46.50228708336364
42
0.41421356237311396
10
156.45942169883676
20
-47.052287083363638
0
LWPOLYLINE
5
138
100
AcDbEntity
8
0
100
AcDbPolyline
90
8
70
1
43
0.0
10
194.55942169883673
20
-33.052287083363666
42
0.41421356237313056
10
194.00942169883675
20
-33.602287083363649
10
194.00942169883677
20
-46.502287083363655
42
0.41421356237313761
10
194.55942169883679
20
-47.052287083363652
10
207.45942169883676
20
-47.052287083363652
42
0.41421356237313289
10
208.00942169883677
20
-46.502287083363669
10
208.00942169883672
20
-33.602287083363663
42
0.41421356237313056
10
207.45942169883674
20
-33.052287083363666
0
CIRCLE
5
139
100
AcDbEntity
8
0
100
AcDbCircle
10
267.68442521811659
20
-27.669173853310607
30
1.1657341758564144e-14
40
1.0999999999999945
210
-2.2171947543765192e-32
220
4.0245584642661925e-16
230
1
0
LWPOLYLINE
5
140
100
AcDbEntity
8
0
100
AcDbPolyline
90
24
70
1
43
0.0
10
29.803671698836766
20
-90.202287083363601
42
0.41421356237309076
10
30.103671698836774
20
-89.902287083363589
10
30.10367169883677
20
-88.052287082006373
42
-0.41421356237313406
10
30.403671698836767
20
-87.752287082006376
10
37.803671698836737
20
-87.752287082006362
42
-0.41421356237309503
10
38.103671698836742
20
-88.052287082006359
10
38.103671698836685
20
-105.33328708336387
42
-0.41421356237309975
10
37.553671698836716
20
-105.88328708336384
10
30.715671698836733
20
-105.88328708336361
42
-0.41421356237308637
10
30.415671698836736
20
-105.5832870833636
10
30.415671698836739
20
-104.50228708200639
42
0.41421356237310375
10
30.115671698836735
20
-104.20228708200636
10
14.715671698836738
20
-104.20228708200638
42
0.41421356237312101
10
14.415671698836736
20
-104.5022870820064
10
14.415671698836745
20
-105.58328708336362
42
-0.41421356237312756
10
14.115671698836753
20
-105.88328708336361
10
7.2776716988367287
20
-105.88328708336356
42
-0.4142135623730927
10
6.7276716988367804
20
-105.33328708336359
10
6.7276716988366836
20
-87.552287082006387
42
-0.41421356237307771
10
7.0276716988366772
20
-87.252287082006404
10
14.427671698836805
20
-87.252287082006376
42
-0.41421356237308854
10
14.727671698836811
20
-87.552287082006387
10
14.727671698836804
20
-89.902287083363603
42
0.414213562373069
10
15.027671698836809
20
-90.202287083363601
0
ENDSEC
0
SECTION
2
OBJECTS
0
DICTIONARY
5
C
100
AcDbDictionary
3
ACAD_GROUP
350
D
3
ACAD_MLINESTYLE
350
17
0
DICTIONARY
5
D
100
AcDbDictionary
0
DICTIONARY
5
1A
330
C
100
AcDbDictionary
0
DICTIONARY
5
17
100
AcDbDictionary
0
ENDSEC
0
EOF
