0
SECTION
2
HEADER
9
$INSUNITS
70
4
9
$ACADVER
1
AC1014
9
$HANDSEED
5
FFFF
0
ENDSEC
0
SECTION
2
TABLES
0
TABLE
2
VPORT
5
8
100
AcDbSymbolTable
0
ENDTAB
0
TABLE
2
LTYPE
5
5
100
AcDbSymbolTable
0
LTYPE
5
14
100
AcDbSymbolTableRecord
100
AcDbLinetypeTableRecord
2
BYBLOCK
70
0
0
LTYPE
5
15
100
AcDbSymbolTableRecord
100
AcDbLinetypeTableRecord
2
BYLAYER
70
0
0
LTYPE
5
16
100
AcDbSymbolTableRecord
100
AcDbLinetypeTableRecord
2
DASHED
70
0
3
Dashed __ __ __ __ __ __ __ __ __ __ __ __ __ _
72
65
73
2
40
0.75
49
0.5
74
0
49
-0.25
74
0
0
ENDTAB
0
TABLE
2
LAYER
5
2
100
AcDbSymbolTable
70
2
0
LAYER
5
50
100
AcDbSymbolTableRecord
100
AcDbLayerTableRecord
2
0
70
0
62
7
6
CONTINUOUS
0
ENDTAB
0
TABLE
2
STYLE
5
3
100
AcDbSymbolTable
70
1
0
STYLE
5
11
100
AcDbSymbolTableRecord
100
AcDbTextStyleTableRecord
2
STANDARD
70
0
0
ENDTAB
0
TABLE
2
VIEW
5
6
100
AcDbSymbolTable
70
0
0
ENDTAB
0
TABLE
2
UCS
5
7
100
AcDbSymbolTable
70
0
0
ENDTAB
0
TABLE
2
APPID
5
9
100
AcDbSymbolTable
70
2
0
APPID
5
12
100
AcDbSymbolTableRecord
100
AcDbRegAppTableRecord
2
ACAD
70
0
0
ENDTAB
0
TABLE
2
DIMSTYLE
5
A
100
AcDbSymbolTable
70
1
0
ENDTAB
0
TABLE
2
BLOCK_RECORD
5
1
100
AcDbSymbolTable
70
1
0
BLOCK_RECORD
5
1F
100
AcDbSymbolTableRecord
100
AcDbBlockTableRecord
2
*MODEL_SPACE
0
BLOCK_RECORD
5
1B
100
AcDbSymbolTableRecord
100
AcDbBlockTableRecord
2
*PAPER_SPACE
0
ENDTAB
0
ENDSEC
0
SECTION
2
BLOCKS
0
BLOCK
5
20
100
AcDbEntity
100
AcDbBlockBegin
2
*MODEL_SPACE
0
ENDBLK
5
21
100
AcDbEntity
100
AcDbBlockEnd
0
BLOCK
5
1C
100
AcDbEntity
100
AcDbBlockBegin
2
*PAPER_SPACE
0
ENDBLK
5
1D
100
AcDbEntity
100
AcDbBlockEnd
0
ENDSEC
0
SECTION
2
ENTITIES
0
LWPOLYLINE
5
100
100
AcDbEntity
8
0
100
AcDbPolyline
90
16
70
1
43
0.0
10
259.68442169883667
20
-47.352287082007429
10
259.68442169883667
20
-48.752287083364664
42
-0.41421356237307771
10
259.38442169883666
20
-49.052287083364661
10
251.50942169883655
20
-49.052287083364718
42
-0.4142135623730222
10
251.00942169883655
20
-48.552287083364689
10
251.0094216988366
20
-33.602287083364601
42
-0.4142135623730927
10
251.55942169883656
20
-33.052287083364639
10
283.80942169883673
20
-33.052287083364781
42
-0.41421356237309503
10
284.35942169883668
20
-33.602287083364743
10
284.35942169883663
20
-48.552287083364767
42
-0.41421356237313145
10
283.85942169883657
20
-49.052287083364774
10
276.48442169883674
20
-49.05228708336476
42
-0.41421356237308637
10
276.18442169883673
20
-48.752287083364756
10
276.18442169883673
20
-47.352287082007471
42
0.41421356237307771
10
275.88442169883672
20
-47.052287082007481
10
259.98442169883668
20
-47.052287082007453
42
0.41421356237312101
0
LWPOLYLINE
5
101
100
AcDbEntity
8
0
100
AcDbPolyline
90
40
70
1
43
0.0
10
38.403671698836376
20
-104.20228708200652
42
0.41421356237311241
10
38.103671698836365
20
-104.50228708200652
10
38.103671698836322
20
-105.34228708336379
42
-0.41421356237311396
10
37.553671698836361
20
-105.89228708336378
10
30.715671698836363
20
-105.8922870833638
42
-0.41421356237309076
10
30.415671698836363
20
-105.59228708336379
10
30.41567169883637
20
-104.50228708200652
42
0.41421356237308637
10
30.115671698836366
20
-104.20228708200651
10
14.715671698836374
20
-104.20228708200652
42
0.41421356237312101
10
14.415671698836372
20
-104.50228708200648
10
14.415671698836359
20
-105.59228708336376
42
-0.4142135623731189
10
14.115671698836376
20
-105.89228708336375
10
7.277671698836369
20
-105.89228708336366
42
-0.4142135623730992
10
6.7276716988364074
20
-105.34228708336366
10
6.7276716988364038
20
-104.50228708200646
42
0.41421356237312101
10
6.4276716988364013
20
-104.20228708200641
10
5.6776716988364262
20
-104.20228708200645
42
-0.41421356237307877
10
5.3776716988364353
20
-103.90228708200644
10
5.3776716988364708
20
-90.502287082006433
42
-0.41421356237309614
10
5.677671698836483
20
-90.202287082006464
10
6.4276716988364591
20
-90.202287082006464
42
0.41421356237310153
10
6.7276716988365131
20
-89.90228708200641
10
6.7276716988364571
20
-87.552287082006458
42
-0.41421356237310264
10
7.0276716988364587
20
-87.252287082006461
10
14.427671698836487
20
-87.252287082006475
42
-0.41421356237308637
10
14.727671698836494
20
-87.552287082006487
10
14.727671698836478
20
-89.90228708200658
42
0.41421356237308637
10
15.027671698836475
20
-90.202287082006592
10
29.803671698836443
20
-90.202287083363771
42
0.41421356237306473
10
30.103671698836457
20
-89.902287082006822
10
30.10367169883645
20
-87.552287082006558
42
-0.41421356237315143
10
30.403671698836447
20
-87.252287082006546
10
37.803671698836439
20
-87.252287082006546
42
-0.41421356237305174
10
38.103671698836422
20
-87.552287082006586
10
38.103671698836401
20
-89.902287082006893
42
0.41421356237308204
10
38.403671698836419
20
-90.202287082006961
10
41.45367169883643
20
-90.202287082006563
42
-0.41421356237308637
10
41.753671698836435
20
-90.502287082006575
10
41.753671698836399
20
-103.90228708200659
42
-0.414213562373069
10
41.453671698836402
20
-104.20228708200661
0
LWPOLYLINE
5
102
100
AcDbEntity
8
0
100
AcDbPolyline
90
8
70
1
43
0.0
10
46.371921698836374
20
-103.65228708336386
42
0.4142135623730856
10
46.921921698836371
20
-104.20228708336387
10
59.821921698836377
20
-104.20228708336393
42
0.41421356237309503
10
60.371921698836374
20
-103.6522870833639
10
60.371921698836417
20
-90.75228708336391
42
0.41421356237307144
10
59.821921698836427
20
-90.202287083363913
10
46.921921698836407
20
-90.202287083363842
42
0.41421356237309037
10
46.371921698836417
20
-90.752287083363854
0
LWPOLYLINE
5
103
100
AcDbEntity
8
0
100
AcDbPolyline
90
48
70
1
43
0.0
10
273.3031716988371
20
-86.252287083364934
10
273.3031716988371
20
-85.752287082007484
42
0.41421356237309503
10
272.70317169883708
20
-85.152287082007504
10
257.90317169883707
20
-85.152287082007462
42
0.41421356237311241
10
257.3031716988371
20
-85.752287082007427
10
257.3031716988371
20
-86.25228708336472
42
-0.41421356237307771
10
256.70317169883714
20
-86.852287083364686
10
249.96517169883643
20
-86.852287083364587
42
-0.41421356237309503
10
249.36517169883643
20
-86.252287083364592
10
249.36517169883643
20
-85.552287091817036
42
0.41421356237310375
10
248.76517169883641
20
-84.952287091817055
10
246.89692169883699
20
-84.952287091817041
42
-0.41421356237309503
10
246.34692169883698
20
-84.402287091817044
10
246.34692169883704
20
-71.702287083365306
42
-0.41421356237307144
10
246.89692169883699
20
-71.152287083365323
10
248.76517169883644
20
-71.152287083365195
42
0.41421356237311241
10
249.36517169883641
20
-70.552287083365201
10
249.36517169883641
20
-68.772287082007381
42
-0.41421356237311241
10
249.96517169883643
20
-68.172287082007415
10
256.76517169883647
20
-68.172287082007415
42
-0.41421356237310802
10
257.36517169883643
20
-68.772287082007423
10
257.36517169883643
20
-70.552287083364689
42
0.41421356237305601
10
257.96517169883646
20
-71.152287083364669
10
264.84692169883692
20
-71.152287083364698
42
0.41421356237313289
10
265.39692169883688
20
-70.6022870833647
10
265.39692169883699
20
-52.652287082494666
42
-0.41421356237309037
10
265.946921698837
20
-52.102287082494676
10
284.47777169883648
20
-52.102287081137476
42
-0.41421356237310802
10
285.0777716988365
20
-52.702287081137491
10
285.0777716988365
20
-59.752287081137496
42
-0.41421356237308637
10
284.47777169883648
20
-60.35228708113749
10
280.17777169883635
20
-60.352287081137462
42
0.41421356237312101
10
279.57777169883639
20
-60.952287081137413
10
279.57777169883639
20
-61.152287082007547
42
0.41421356237312101
10
280.17777169883635
20
-61.75228708200752
10
281.37777169883634
20
-61.752287082007513
42
-0.41421356237313667
10
281.87777169883634
20
-62.25228708200752
10
281.87777169883611
20
-76.21528709181689
42
0.41421356237312812
10
282.42777169883607
20
-76.765287091816873
10
284.52777169883649
20
-76.765287091816916
42
-0.41421356237309503
10
285.0777716988365
20
-77.315287091816913
10
285.07777169883644
20
-83.815287091816955
42
-0.41421356237309503
10
284.52777169883643
20
-84.365287091816953
10
282.37777169883594
20
-84.365287091816938
42
0.41421356237305718
10
281.82777169883593
20
-84.915287091816907
10
281.82777169883599
20
-86.252287083365019
42
-0.41421356237310375
10
281.22777169883597
20
-86.852287083365042
10
273.90317169883707
20
-86.852287083364928
42
-0.41421356237309503
0
LWPOLYLINE
5
104
100
AcDbEntity
8
0
100
AcDbPolyline
90
8
70
1
43
0.0
10
289.80942169883656
20
-52.102287083364786
10
302.70942169883659
20
-52.102287083364864
42
-0.41421356237312812
10
303.25942169883655
20
-52.652287083364854
10
303.25942169883655
20
-65.552287083364845
42
-0.41421356237313289
10
302.70942169883654
20
-66.102287083364828
10
289.80942169883656
20
-66.102287083364814
42
-0.41421356237310453
10
289.25942169883649
20
-65.552287083364803
10
289.25942169883655
20
-52.652287083364804
42
-0.41421356237306667
0
CIRCLE
5
105
100
AcDbEntity
8
0
100
AcDbCircle
10
267.68442521811653
20
-27.669173853311616
30
3.0531133177191805e-15
40
1.0999999999999945
210
-2.3755012412442722e-32
220
1.1102230246251565e-16
230
1
0
LWPOLYLINE
5
106
100
AcDbEntity
8
0
100
AcDbPolyline
90
8
70
1
43
0.0
10
118.35942169883663
20
-33.052287083364128
42
0.41421356237309975
10
117.8094216988366
20
-33.602287083364118
10
117.80942169883659
20
-46.502287083364124
42
0.41421356237311868
10
118.35942169883658
20
-47.052287083364128
10
131.2594216988366
20
-47.052287083364192
42
0.4142135623730856
10
131.80942169883662
20
-46.502287083364173
10
131.80942169883662
20
-33.60228708336416
42
0.41421356237308082
10
131.25942169883663
20
-33.052287083364163
0
LWPOLYLINE
5
107
100
AcDbEntity
8
0
100
AcDbPolyline
90
8
70
1
43
0.0
10
97.921921698836371
20
-104.20228708336403
42
0.41421356237309503
10
98.471921698836397
20
-103.65228708336404
10
98.471921698836425
20
-90.752287083364081
42
0.4142135623730856
10
97.921921698836428
20
-90.202287083364055
10
85.021921698836394
20
-90.202287083364013
42
0.41421356237310453
10
84.471921698836411
20
-90.752287083363996
10
84.471921698836368
20
-103.652287083364
42
0.4142135623730856
10
85.021921698836366
20
-104.20228708336397
0
LWPOLYLINE
5
108
100
AcDbEntity
8
0
100
AcDbPolyline
90
8
70
1
43
0.0
10
6.4406716988363524
20
-109.2522870833637
42
0.41421356237309387
10
5.890671698836357
20
-109.80228708336369
10
5.8906716988363161
20
-122.70228708336369
42
0.41421356237309503
10
6.4406716988363133
20
-123.25228708336368
10
21.721921698836301
20
-123.2522870833637
42
0.4142135623730927
10
22.271921698836302
20
-122.70228708336374
10
22.271921698836369
20
-109.80228708336377
42
0.41421356237306434
10
21.721921698836365
20
-109.25228708336375
0
LWPOLYLINE
5
109
100
AcDbEntity
8
0
100
AcDbPolyline
90
8
70
1
43
0.0
10
150.30942169883656
20
-47.052287083364263
42
0.41421356237308082
10
150.85942169883657
20
-46.502287083364251
10
150.85942169883657
20
-33.602287083364239
42
0.41421356237308793
10
150.30942169883662
20
-33.052287083364241
10
137.40942169883664
20
-33.052287083364206
42
0.41421356237310453
10
136.85942169883663
20
-33.602287083364203
10
136.8594216988366
20
-46.502287083364195
42
0.41421356237311868
10
137.40942169883658
20
-47.052287083364199
0
LWPOLYLINE
5
110
100
AcDbEntity
8
0
100
AcDbPolyline
90
8
70
1
43
0.0
10
175.5094216988366
20
-33.052287083364355
42
0.41421356237313289
10
174.95942169883662
20
-33.602287083364338
10
174.95942169883659
20
-46.502287083364351
42
0.41421356237311868
10
175.50942169883655
20
-47.052287083364355
10
188.40942169883661
20
-47.052287083364384
42
0.41421356237312812
10
188.95942169883659
20
-46.502287083364408
10
188.95942169883665
20
-33.602287083364395
42
0.41421356237313289
10
188.40942169883664
20
-33.052287083364391
0
LWPOLYLINE
5
111
100
AcDbEntity
8
0
100
AcDbPolyline
90
8
70
1
43
0.0
10
170.74692169883647
20
-71.152287083364342
42
0.41421356237313289
10
170.19692169883649
20
-71.70228708336434
10
170.19692169883643
20
-84.602287083364331
42
0.41421356237309503
10
170.74692169883645
20
-85.152287083364314
10
183.64692169883639
20
-85.152287083364399
42
0.41421356237313289
10
184.19692169883643
20
-84.602287083364374
10
184.19692169883646
20
-71.702287083364382
42
0.41421356237303358
10
183.64692169883648
20
-71.152287083364385
0
LWPOLYLINE
5
112
100
AcDbEntity
8
0
100
AcDbPolyline
90
8
70
1
43
0.0
10
197.9344216988365
20
-66.102287083364416
42
0.41421356237312812
10
198.48442169883651
20
-65.552287083364433
10
198.48442169883654
20
-52.652287083364449
42
0.41421356237310453
10
197.93442169883656
20
-52.102287083364438
10
185.03442169883658
20
-52.102287083364374
42
0.41421356237307611
10
184.48442169883657
20
-52.652287083364378
10
184.48442169883648
20
-65.552287083364376
42
0.4142135623730856
10
185.03442169883652
20
-66.102287083364388
0
LWPOLYLINE
5
113
100
AcDbEntity
8
0
100
AcDbPolyline
90
8
70
1
43
0.0
10
270.75942169883632
20
-109.25228708336476
42
0.41421356237312346
10
270.20942169883631
20
-109.80228708336475
10
270.20942169883631
20
-122.70228708336474
42
0.41421356237309503
10
270.75942169883632
20
-123.25228708336473
10
283.6594216988363
20
-123.25228708336479
42
0.41421356237311396
10
284.20942169883637
20
-122.70228708336478
10
284.20942169883637
20
-109.80228708336482
42
0.41421356237311396
10
283.65942169883635
20
-109.25228708336478
0
LWPOLYLINE
5
114
100
AcDbEntity
8
0
100
AcDbPolyline
90
8
70
1
43
0.0
10
32.63442169883654
20
-52.102287083363791
42
0.41421356237307611
10
32.084421698836529
20
-52.652287083363795
10
32.084421698836508
20
-65.55228708336378
42
0.41421356237309037
10
32.634421698836498
20
-66.102287083363791
10
45.53442169883651
20
-66.102287083363848
42
0.41421356237309037
10
46.084421698836493
20
-65.552287083363851
10
46.084421698836536
20
-52.652287083363838
42
0.41421356237308082
10
45.534421698836532
20
-52.102287083363841
0
LWPOLYLINE
5
115
100
AcDbEntity
8
0
100
AcDbPolyline
90
8
70
1
43
0.0
10
155.07192169883638
20
-104.20228708336425
42
0.41421356237312346
10
155.62192169883639
20
-103.65228708336429
10
155.62192169883642
20
-90.75228708336428
42
0.4142135623730856
10
155.07192169883643
20
-90.202287083364268
10
142.1719216988364
20
-90.202287083364212
42
0.41421356237311396
10
141.62192169883642
20
-90.752287083364237
10
141.62192169883636
20
-103.65228708336423
42
0.41421356237307611
10
142.17192169883637
20
-104.20228708336421
0
LWPOLYLINE
5
116
100
AcDbEntity
8
0
100
AcDbPolyline
90
8
70
1
43
0.0
10
69.346921698836312
20
-123.25228708336395
42
0.41421356237310919
10
69.896921698836309
20
-122.70228708336393
10
69.896921698836337
20
-109.80228708336395
42
0.41421356237308082
10
69.346921698836354
20
-109.25228708336394
10
54.06567169883634
20
-109.25228708336388
42
0.41421356237305718
10
53.515671698836364
20
-109.80228708336386
10
53.515671698836336
20
-122.70228708336387
42
0.41421356237307611
10
54.065671698836304
20
-123.25228708336388
0
LWPOLYLINE
5
117
100
AcDbEntity
8
0
100
AcDbPolyline
90
8
70
1
43
0.0
10
80.259421698836633
20
-33.052287083363971
42
0.41421356237310686
10
79.709421698836621
20
-33.602287083363962
10
79.709421698836579
20
-46.502287083363981
42
0.41421356237307144
10
80.259421698836576
20
-47.052287083363964
10
93.159421698836553
20
-47.052287083364035
42
0.41421356237310919
10
93.709421698836593
20
-46.50228708336401
10
93.709421698836607
20
-33.602287083364011
42
0.41421356237308082
10
93.15942169883661
20
-33.052287083364014
0
LWPOLYLINE
5
118
100
AcDbEntity
8
0
100
AcDbPolyline
90
8
70
1
43
0.0
10
216.98442169883651
20
-66.102287083364502
42
0.41421356237312812
10
217.53442169883652
20
-65.552287083364519
10
217.53442169883655
20
-52.65228708336452
42
0.41421356237310453
10
216.98442169883657
20
-52.102287083364516
10
204.08442169883659
20
-52.102287083364452
42
0.41421356237307611
10
203.53442169883658
20
-52.652287083364449
10
203.5344216988365
20
-65.552287083364462
42
0.4142135623730856
10
204.08442169883654
20
-66.102287083364473
0
LWPOLYLINE
5
119
100
AcDbEntity
8
0
100
AcDbPolyline
90
8
70
1
43
0.0
10
132.64692169883648
20
-71.152287083364186
42
0.41421356237307611
10
132.09692169883647
20
-71.702287083364183
10
132.09692169883644
20
-84.602287083364189
42
0.4142135623730856
10
132.64692169883642
20
-85.152287083364158
10
145.54692169883646
20
-85.152287083364214
42
0.41421356237311396
10
146.09692169883644
20
-84.602287083364246
10
146.0969216988365
20
-71.702287083364226
42
0.41421356237310453
10
145.54692169883648
20
-71.152287083364229
0
LWPOLYLINE
5
120
100
AcDbEntity
8
0
100
AcDbPolyline
90
8
70
1
43
0.0
10
227.89692169883648
20
-71.15228708336457
42
0.41421356237313761
10
227.34692169883652
20
-71.702287083364553
10
227.34692169883644
20
-84.602287083364558
42
0.41421356237305718
10
227.89692169883642
20
-85.152287083364527
10
240.79692169883643
20
-85.152287083364627
42
0.41421356237311396
10
241.34692169883647
20
-84.602287083364615
10
241.3469216988365
20
-71.70228708336461
42
0.41421356237302881
10
240.79692169883651
20
-71.152287083364612
0
LWPOLYLINE
5
121
100
AcDbEntity
8
0
100
AcDbPolyline
90
8
70
1
43
0.0
10
126.49692169883645
20
-85.152287083364158
42
0.4142135623730856
10
127.04692169883643
20
-84.60228708336416
10
127.04692169883648
20
-71.702287083364169
42
0.4142135623730856
10
126.49692169883649
20
-71.152287083364158
10
113.59692169883647
20
-71.152287083364129
42
0.41421356237309975
10
113.04692169883648
20
-71.702287083364112
10
113.04692169883643
20
-84.602287083364132
42
0.41421356237309503
10
113.59692169883644
20
-85.152287083364087
0
LWPOLYLINE
5
122
100
AcDbEntity
8
0
100
AcDbPolyline
90
8
70
1
43
0.0
10
107.44692169883646
20
-85.152287083364087
42
0.41421356237309503
10
107.99692169883647
20
-84.602287083364104
10
107.9969216988365
20
-71.702287083364084
42
0.41421356237310919
10
107.44692169883649
20
-71.152287083364087
10
94.546921698836485
20
-71.15228708336403
42
0.41421356237307611
10
93.996921698836488
20
-71.702287083364027
10
93.996921698836445
20
-84.602287083364033
42
0.41421356237307611
10
94.546921698836442
20
-85.15228708336403
0
LWPOLYLINE
5
123
100
AcDbEntity
8
0
100
AcDbPolyline
90
8
70
1
43
0.0
10
8.8219216988365421
20
-52.102287083363692
42
0.41421356237308027
10
8.2719216988365378
20
-52.652287083363689
10
8.2719216988365005
20
-65.552287083363694
42
0.41421356237309154
10
8.8219216988365048
20
-66.102287083363692
10
21.721921698836496
20
-66.102287083363734
42
0.41421356237309503
10
22.271921698836493
20
-65.552287083363751
10
22.27192169883654
20
-52.652287083363746
42
0.41421356237309037
10
21.721921698836553
20
-52.102287083363741
0
LWPOLYLINE
5
124
100
AcDbEntity
8
0
100
AcDbPolyline
90
8
70
1
43
0.0
10
24.103171698836444
20
-85.152287083363774
42
0.4142135623730856
10
24.653171698836424
20
-84.602287083363763
10
24.653171698836481
20
-71.702287083363743
42
0.41421356237308793
10
24.103171698836476
20
-71.152287083363746
10
6.4406716988364803
20
-71.152287083363689
42
0.41421356237310686
10
5.8906716988364849
20
-71.702287083363686
10
5.8906716988364352
20
-84.602287083363706
42
0.41421356237308737
10
6.4406716988364288
20
-85.152287083363689
0
LWPOLYLINE
5
125
100
AcDbEntity
8
0
100
AcDbPolyline
90
8
70
1
43
0.0
10
213.60942169883663
20
-33.052287083364504
42
0.41421356237313289
10
213.05942169883664
20
-33.602287083364487
10
213.05942169883662
20
-46.502287083364493
42
0.41421356237311868
10
213.60942169883657
20
-47.052287083364497
10
226.5094216988366
20
-47.052287083364526
42
0.41421356237312812
10
227.05942169883659
20
-46.50228708336455
10
227.05942169883662
20
-33.602287083364544
42
0.41421356237312812
10
226.50942169883663
20
-33.052287083364547
0
LWPOLYLINE
5
126
100
AcDbEntity
8
0
100
AcDbPolyline
90
8
70
1
43
0.0
10
212.22192169883635
20
-104.20228708336452
42
0.41421356237312346
10
212.77192169883637
20
-103.65228708336451
10
212.77192169883642
20
-90.752287083364507
42
0.41421356237305718
10
212.22192169883641
20
-90.202287083364496
10
199.32192169883643
20
-90.202287083364467
42
0.41421356237312346
10
198.77192169883642
20
-90.75228708336445
10
198.77192169883639
20
-103.65228708336444
42
0.41421356237309503
10
199.32192169883638
20
-104.20228708336445
0
LWPOLYLINE
5
127
100
AcDbEntity
8
0
100
AcDbPolyline
90
8
70
1
43
0.0
10
218.37192169883639
20
-90.202287083364538
42
0.41421356237312346
10
217.82192169883641
20
-90.752287083364521
10
217.82192169883638
20
-103.65228708336453
42
0.41421356237305718
10
218.37192169883636
20
-104.20228708336452
10
231.27192169883637
20
-104.2022870833646
42
0.41421356237312346
10
231.82192169883638
20
-103.65228708336458
10
231.82192169883643
20
-90.752287083364592
42
0.41421356237311396
10
231.27192169883642
20
-90.202287083364581
0
LWPOLYLINE
5
128
100
AcDbEntity
8
0
100
AcDbPolyline
90
8
70
1
43
0.0
10
30.253171698836354
20
-109.2522870833638
42
0.4142135623730927
10
29.703171698836361
20
-109.80228708336381
10
29.703171698836293
20
-122.70228708336377
42
0.41421356237307144
10
30.253171698836304
20
-123.25228708336377
10
45.534421698836312
20
-123.25228708336385
42
0.41421356237310453
10
46.084421698836309
20
-122.70228708336384
10
46.084421698836366
20
-109.80228708336385
42
0.41421356237309503
10
45.53442169883634
20
-109.25228708336384
0
LWPOLYLINE
5
129
100
AcDbEntity
8
0
100
AcDbPolyline
90
8
70
1
43
0.0
10
189.79692169883648
20
-71.152287083364428
42
0.41421356237313289
10
189.2469216988365
20
-71.702287083364411
10
189.24692169883645
20
-84.60228708336443
42
0.41421356237309503
10
189.79692169883646
20
-85.152287083364385
10
202.69692169883641
20
-85.152287083364484
42
0.41421356237312346
10
203.24692169883645
20
-84.602287083364459
10
203.24692169883647
20
-71.702287083364453
42
0.41421356237303358
10
202.69692169883649
20
-71.152287083364456
0
LWPOLYLINE
5
130
100
AcDbEntity
8
0
100
AcDbPolyline
90
8
70
1
43
0.0
10
123.12192169883642
20
-90.202287083364169
42
0.41421356237315182
10
122.57192169883641
20
-90.752287083364166
10
122.57192169883636
20
-103.65228708336416
42
0.4142135623730856
10
123.12192169883637
20
-104.20228708336413
10
136.02192169883637
20
-104.20228708336418
42
0.41421356237313289
10
136.57192169883638
20
-103.65228708336419
10
136.57192169883643
20
-90.752287083364195
42
0.41421356237305718
10
136.02192169883642
20
-90.202287083364197
0
LWPOLYLINE
5
131
100
AcDbEntity
8
0
100
AcDbPolyline
90
8
70
1
43
0.0
10
64.584421698836508
20
-66.102287083363919
42
0.41421356237307611
10
65.134421698836491
20
-65.552287083363922
10
65.134421698836547
20
-52.652287083363916
42
0.41421356237307611
10
64.58442169883655
20
-52.102287083363912
10
51.684421698836552
20
-52.102287083363869
42
0.4142135623730856
10
51.134421698836555
20
-52.652287083363866
10
51.134421698836491
20
-65.552287083363865
42
0.4142135623730856
10
51.684421698836488
20
-66.102287083363876
0
LWPOLYLINE
5
132
100
AcDbEntity
8
0
100
AcDbPolyline
90
8
70
1
43
0.0
10
75.496921698836502
20
-71.152287083363973
42
0.41421356237310919
10
74.946921698836505
20
-71.702287083363956
10
74.946921698836448
20
-84.602287083363962
42
0.41421356237308082
10
75.496921698836445
20
-85.152287083363944
10
88.396921698836408
20
-85.152287083364016
42
0.41421356237309503
10
88.94692169883642
20
-84.602287083364018
10
88.946921698836462
20
-71.702287083364013
42
0.41421356237306667
10
88.396921698836479
20
-71.152287083364016
0
LWPOLYLINE
5
133
100
AcDbEntity
8
0
100
AcDbPolyline
90
8
70
1
43
0.0
10
194.55942169883662
20
-33.052287083364426
42
0.41421356237313056
10
194.00942169883663
20
-33.602287083364416
10
194.0094216988366
20
-46.502287083364422
42
0.41421356237311868
10
194.55942169883656
20
-47.052287083364419
10
207.45942169883659
20
-47.052287083364462
42
0.41421356237313761
10
208.00942169883658
20
-46.502287083364479
10
208.0094216988366
20
-33.602287083364466
42
0.41421356237313522
10
207.45942169883662
20
-33.052287083364469
0
LWPOLYLINE
5
134
100
AcDbEntity
8
0
100
AcDbPolyline
90
8
70
1
43
0.0
10
70.734421698836542
20
-52.10228708336394
42
0.41421356237310453
10
70.184421698836545
20
-52.652287083363937
10
70.184421698836502
20
-65.552287083363936
42
0.41421356237307611
10
70.734421698836499
20
-66.102287083363933
10
83.634421698836476
20
-66.102287083363976
42
0.41421356237312346
10
84.184421698836502
20
-65.552287083363993
10
84.184421698836545
20
-52.65228708336398
42
0.41421356237311396
10
83.634421698836547
20
-52.102287083363983
0
LWPOLYLINE
5
135
100
AcDbEntity
8
0
100
AcDbPolyline
90
8
70
1
43
0.0
10
169.3594216988366
20
-47.052287083364313
42
0.41421356237313289
10
169.90942169883658
20
-46.502287083364322
10
169.90942169883664
20
-33.602287083364324
42
0.41421356237313522
10
169.35942169883663
20
-33.05228708336432
10
156.45942169883662
20
-33.052287083364277
42
0.41421356237311635
10
155.90942169883658
20
-33.602287083364274
10
155.90942169883658
20
-46.502287083364273
42
0.41421356237310453
10
156.45942169883656
20
-47.05228708336427
0
LWPOLYLINE
5
136
100
AcDbEntity
8
0
100
AcDbPolyline
90
8
70
1
43
0.0
10
37.396921698836479
20
-71.152287083363802
42
0.41421356237310686
10
36.846921698836482
20
-71.7022870833638
10
36.846921698836439
20
-84.602287083363805
42
0.41421356237307611
10
37.396921698836429
20
-85.152287083363802
10
50.296921698836442
20
-85.152287083363873
42
0.4142135623730856
10
50.846921698836439
20
-84.602287083363876
10
50.846921698836482
20
-71.702287083363842
42
0.41421356237307144
10
50.296921698836492
20
-71.152287083363859
0
LWPOLYLINE
5
137
100
AcDbEntity
8
0
100
AcDbPolyline
90
8
70
1
43
0.0
10
146.93442169883656
20
-52.102287083364246
42
0.41421356237311396
10
146.38442169883655
20
-52.652287083364236
10
146.38442169883649
20
-65.552287083364234
42
0.41421356237309975
10
146.93442169883647
20
-66.102287083364232
10
159.83442169883648
20
-66.102287083364303
42
0.41421356237312346
10
160.38442169883652
20
-65.552287083364277
10
160.38442169883652
20
-52.652287083364293
42
0.41421356237307611
10
159.83442169883654
20
-52.102287083364295
0
LWPOLYLINE
5
138
100
AcDbEntity
8
0
100
AcDbPolyline
90
8
70
1
43
0.0
10
270.75942169883638
20
-90.202287083364737
42
0.41421356237314239
10
270.20942169883642
20
-90.752287083364735
10
270.20942169883637
20
-103.65228708336473
42
0.41421356237309503
10
270.75942169883638
20
-104.20228708336474
10
283.6594216988363
20
-104.20228708336481
42
0.41421356237315182
10
284.20942169883637
20
-103.65228708336477
10
284.20942169883642
20
-90.752287083364791
42
0.41421356237313289
10
283.65942169883641
20
-90.20228708336478
0
LWPOLYLINE
5
139
100
AcDbEntity
8
0
100
AcDbPolyline
90
8
70
1
43
0.0
10
255.08442169883651
20
-66.102287083364644
42
0.41421356237313289
10
255.63442169883649
20
-65.552287083364661
10
255.63442169883655
20
-52.652287083364662
42
0.41421356237312812
10
255.08442169883654
20
-52.102287083364658
10
242.18442169883662
20
-52.102287083364594
42
0.41421356237311868
10
241.63442169883655
20
-52.652287083364612
10
241.63442169883649
20
-65.552287083364604
42
0.41421356237309037
10
242.1844216988365
20
-66.102287083364615
0
LWPOLYLINE
5
140
100
AcDbEntity
8
0
100
AcDbPolyline
90
8
70
1
43
0.0
10
289.80942169883645
20
-71.152287083364797
42
0.41421356237313761
10
289.25942169883649
20
-71.702287083364794
10
289.25942169883643
20
-84.6022870833648
42
0.41421356237309503
10
289.80942169883645
20
-85.152287083364783
10
302.70942169883642
20
-85.152287083364854
42
0.41421356237311396
10
303.25942169883649
20
-84.602287083364871
10
303.25942169883649
20
-71.702287083364851
42
0.4142135623730856
10
302.70942169883648
20
-71.152287083364854
0
LWPOLYLINE
5
141
100
AcDbEntity
8
0
100
AcDbPolyline
90
8
70
1
43
0.0
10
264.60942169883634
20
-123.25228708336471
42
0.41421356237310453
10
265.1594216988363
20
-122.70228708336472
10
265.15942169883635
20
-109.80228708336472
42
0.41421356237309503
10
264.60942169883634
20
-109.25228708336475
10
251.70942169883634
20
-109.25228708336469
42
0.41421356237312346
10
251.15942169883635
20
-109.80228708336466
10
251.15942169883635
20
-122.70228708336464
42
0.41421356237309503
10
251.70942169883634
20
-123.25228708336465
0
LWPOLYLINE
5
142
100
AcDbEntity
8
0
100
AcDbPolyline
90
8
70
1
43
0.0
10
161.22192169883644
20
-90.202287083364311
42
0.41421356237309503
10
160.67192169883643
20
-90.752287083364308
10
160.67192169883637
20
-103.6522870833643
42
0.41421356237311396
10
161.22192169883641
20
-104.2022870833643
10
174.12192169883633
20
-104.20228708336437
42
0.41421356237310453
10
174.67192169883634
20
-103.65228708336437
10
174.6719216988364
20
-90.752287083364379
42
0.41421356237311396
10
174.12192169883639
20
-90.20228708336434
0
LWPOLYLINE
5
143
100
AcDbEntity
8
0
100
AcDbPolyline
90
8
70
1
43
0.0
10
245.55942169883656
20
-47.052287083364618
42
0.41421356237313289
10
246.10942169883657
20
-46.502287083364628
10
246.1094216988366
20
-33.602287083364615
42
0.41421356237313056
10
245.55942169883662
20
-33.052287083364618
10
232.65942169883664
20
-33.052287083364583
42
0.41421356237313056
10
232.10942169883666
20
-33.602287083364565
10
232.10942169883663
20
-46.502287083364571
42
0.41421356237311868
10
232.65942169883658
20
-47.052287083364568
0
LWPOLYLINE
5
144
100
AcDbEntity
8
0
100
AcDbPolyline
90
8
70
1
43
0.0
10
165.98442169883654
20
-52.102287083364295
42
0.41421356237311396
10
165.43442169883656
20
-52.652287083364307
10
165.4344216988365
20
-65.552287083364305
42
0.41421356237313289
10
165.98442169883651
20
-66.102287083364317
10
178.88442169883655
20
-66.102287083364345
42
0.41421356237312346
10
179.43442169883653
20
-65.552287083364376
10
179.43442169883656
20
-52.652287083364364
42
0.41421356237312812
10
178.88442169883658
20
-52.102287083364367
0
LWPOLYLINE
5
145
100
AcDbEntity
8
0
100
AcDbPolyline
90
8
70
1
43
0.0
10
79.421921698836414
20
-90.752287083363981
42
0.41421356237307611
10
78.871921698836417
20
-90.202287083363984
10
65.971921698836425
20
-90.202287083363927
42
0.41421356237313761
10
65.421921698836414
20
-90.752287083363953
10
65.421921698836371
20
-103.65228708336394
42
0.41421356237307611
10
65.971921698836383
20
-104.2022870833639
10
78.871921698836374
20
-104.20228708336397
42
0.41421356237307611
10
79.421921698836371
20
-103.65228708336397
0
LWPOLYLINE
5
146
100
AcDbEntity
8
0
100
AcDbPolyline
90
8
70
1
43
0.0
10
36.009421698836555
20
-47.052287083363794
42
0.41421356237308321
10
36.559421698836559
20
-46.502287083363811
10
36.559421698836601
20
-33.602287083363798
42
0.41421356237310686
10
36.009421698836597
20
-33.052287083363794
10
23.109421698836606
20
-33.052287083363744
42
0.41421356237309503
10
22.559421698836609
20
-33.602287083363741
10
22.559421698836559
20
-46.50228708336374
42
0.41421356237309037
10
23.109421698836556
20
-47.052287083363744
0
LWPOLYLINE
5
147
100
AcDbEntity
8
0
100
AcDbPolyline
90
8
70
1
43
0.0
10
289.80942169883662
20
-33.052287083364803
42
0.41421356237313289
10
289.2594216988366
20
-33.602287083364793
10
289.2594216988366
20
-46.502287083364791
42
0.41421356237311868
10
289.80942169883656
20
-47.052287083364803
10
302.70942169883659
20
-47.052287083364831
42
0.41421356237312812
10
303.2594216988366
20
-46.502287083364848
10
303.25942169883666
20
-33.602287083364843
42
0.41421356237313056
10
302.70942169883665
20
-33.052287083364838
0
LWPOLYLINE
5
148
100
AcDbEntity
8
0
100
AcDbPolyline
90
8
70
1
43
0.0
10
102.6844216988365
20
-66.102287083364061
42
0.41421356237307611
10
103.2344216988365
20
-65.552287083364064
10
103.23442169883656
20
-52.652287083364072
42
0.41421356237309975
10
102.68442169883656
20
-52.102287083364061
10
89.784421698836553
20
-52.102287083364011
42
0.41421356237308082
10
89.234421698836542
20
-52.652287083364008
10
89.234421698836499
20
-65.552287083364021
42
0.41421356237307611
10
89.784421698836496
20
-66.102287083364018
0
LWPOLYLINE
5
149
100
AcDbEntity
8
0
100
AcDbPolyline
90
8
70
1
43
0.0
10
289.80942169883633
20
-109.25228708336485
42
0.41421356237313289
10
289.25942169883632
20
-109.80228708336483
10
289.25942169883632
20
-122.70228708336481
42
0.41421356237305718
10
289.80942169883633
20
-123.25228708336479
10
302.70942169883631
20
-123.25228708336485
42
0.41421356237311396
10
303.25942169883638
20
-122.70228708336487
10
303.25942169883638
20
-109.80228708336486
42
0.41421356237313289
10
302.70942169883637
20
-109.25228708336488
0
LWPOLYLINE
5
150
100
AcDbEntity
8
0
100
AcDbPolyline
90
8
70
1
43
0.0
10
223.13442169883658
20
-52.102287083364516
42
0.41421356237311396
10
222.58442169883659
20
-52.652287083364527
10
222.58442169883654
20
-65.552287083364547
42
0.41421356237313289
10
223.13442169883655
20
-66.10228708336453
10
236.03442169883652
20
-66.102287083364587
42
0.41421356237313761
10
236.58442169883654
20
-65.55228708336459
10
236.58442169883656
20
-52.652287083364591
42
0.41421356237312812
10
236.03442169883658
20
-52.102287083364587
0
LWPOLYLINE
5
151
100
AcDbEntity
8
0
100
AcDbPolyline
90
8
70
1
43
0.0
10
289.80942169883639
20
-90.202287083364823
42
0.41421356237314239
10
289.25942169883638
20
-90.75228708336482
10
289.25942169883638
20
-103.65228708336481
42
0.41421356237309503
10
289.80942169883639
20
-104.20228708336479
10
302.70942169883631
20
-104.20228708336487
42
0.41421356237313289
10
303.25942169883638
20
-103.65228708336485
10
303.25942169883643
20
-90.752287083364848
42
0.41421356237313289
10
302.70942169883642
20
-90.202287083364865
0
LWPOLYLINE
5
152
100
AcDbEntity
8
0
100
AcDbPolyline
90
8
70
1
43
0.0
10
193.17192169883634
20
-104.20228708336444
42
0.41421356237311396
10
193.72192169883641
20
-103.65228708336443
10
193.72192169883641
20
-90.752287083364422
42
0.41421356237305718
10
193.1719216988364
20
-90.202287083364453
10
180.27192169883642
20
-90.202287083364382
42
0.41421356237314239
10
179.72192169883641
20
-90.752287083364379
10
179.72192169883638
20
-103.65228708336437
42
0.41421356237309503
10
180.27192169883637
20
-104.20228708336437
0
LWPOLYLINE
5
153
100
AcDbEntity
8
0
100
AcDbPolyline
90
8
70
1
43
0.0
10
104.07192169883642
20
-90.20228708336407
42
0.4142135623730856
10
103.52192169883644
20
-90.752287083364081
10
103.52192169883638
20
-103.65228708336406
42
0.4142135623730856
10
104.07192169883638
20
-104.20228708336407
10
116.97192169883637
20
-104.20228708336413
42
0.4142135623730856
10
117.52192169883637
20
-103.65228708336414
10
117.52192169883642
20
-90.752287083364138
42
0.41421356237301937
10
116.97192169883643
20
-90.202287083364126
0
LWPOLYLINE
5
154
100
AcDbEntity
8
0
100
AcDbPolyline
90
8
70
1
43
0.0
10
74.109421698836556
20
-47.05228708336395
42
0.41421356237309503
10
74.659421698836567
20
-46.502287083363953
10
74.659421698836596
20
-33.60228708336394
42
0.41421356237307849
10
74.109421698836599
20
-33.052287083363943
10
61.209421698836614
20
-33.052287083363879
42
0.41421356237310686
10
60.659421698836617
20
-33.602287083363883
10
60.659421698836567
20
-46.502287083363896
42
0.41421356237308082
10
61.209421698836579
20
-47.052287083363893
0
LWPOLYLINE
5
155
100
AcDbEntity
8
0
100
AcDbPolyline
90
8
70
1
43
0.0
10
55.059421698836559
20
-47.052287083363865
42
0.41421356237309975
10
55.609421698836563
20
-46.502287083363868
10
55.609421698836606
20
-33.602287083363869
42
0.4142135623730856
10
55.059421698836609
20
-33.052287083363872
10
42.159421698836603
20
-33.052287083363808
42
0.41421356237310686
10
41.609421698836606
20
-33.602287083363812
10
41.609421698836556
20
-46.502287083363818
42
0.41421356237308082
10
42.159421698836567
20
-47.052287083363815
0
LWPOLYLINE
5
156
100
AcDbEntity
8
0
100
AcDbPolyline
90
8
70
1
43
0.0
10
99.309421698836644
20
-33.052287083364035
42
0.41421356237309503
10
98.759421698836647
20
-33.602287083364047
10
98.759421698836604
20
-46.502287083364052
42
0.41421356237307144
10
99.309421698836587
20
-47.052287083364035
10
112.20942169883658
20
-47.052287083364106
42
0.4142135623730856
10
112.7594216988366
20
-46.502287083364102
10
112.75942169883662
20
-33.602287083364089
42
0.41421356237308082
10
112.20942169883662
20
-33.052287083364092
0
LWPOLYLINE
5
157
100
AcDbEntity
8
0
100
AcDbPolyline
90
8
70
1
43
0.0
10
121.7344216988365
20
-66.102287083364146
42
0.41421356237308082
10
122.2844216988365
20
-65.552287083364135
10
122.28442169883652
20
-52.652287083364129
42
0.41421356237307611
10
121.73442169883656
20
-52.102287083364132
10
108.83442169883654
20
-52.102287083364097
42
0.41421356237310453
10
108.28442169883652
20
-52.652287083364094
10
108.28442169883647
20
-65.552287083364078
42
0.41421356237309503
10
108.83442169883649
20
-66.102287083364104
0
LWPOLYLINE
5
158
100
AcDbEntity
8
0
100
AcDbPolyline
90
8
70
1
43
0.0
10
69.346921698836439
20
-85.15228708336393
42
0.41421356237307611
10
69.896921698836422
20
-84.602287083363933
10
69.896921698836479
20
-71.702287083363942
42
0.41421356237307611
10
69.346921698836482
20
-71.152287083363944
10
56.446921698836483
20
-71.152287083363873
42
0.41421356237309975
10
55.896921698836479
20
-71.702287083363885
10
55.896921698836444
20
-84.60228708336389
42
0.41421356237307611
10
56.446921698836441
20
-85.152287083363859
0
LWPOLYLINE
5
159
100
AcDbEntity
8
0
100
AcDbPolyline
90
8
70
1
43
0.0
10
127.88442169883655
20
-52.102287083364175
42
0.41421356237309037
10
127.33442169883656
20
-52.652287083364165
10
127.33442169883651
20
-65.552287083364163
42
0.41421356237311396
10
127.8844216988365
20
-66.10228708336416
10
140.78442169883652
20
-66.102287083364217
42
0.41421356237309037
10
141.33442169883654
20
-65.552287083364206
10
141.33442169883654
20
-52.652287083364214
42
0.41421356237307144
10
140.78442169883655
20
-52.102287083364203
0
LWPOLYLINE
5
160
100
AcDbEntity
8
0
100
AcDbPolyline
90
8
70
1
43
0.0
10
150.30942169883627
20
-123.25228708336424
42
0.41421356237307611
10
150.85942169883629
20
-122.70228708336424
10
150.85942169883634
20
-109.80228708336426
42
0.4142135623730856
10
150.30942169883636
20
-109.25228708336427
10
125.50317169883638
20
-109.25228708336418
42
0.41421356237312346
10
124.95317169883636
20
-109.80228708336415
10
124.95317169883631
20
-122.70228708336415
42
0.41421356237309503
10
125.5031716988363
20
-123.25228708336417
0
LWPOLYLINE
5
161
100
AcDbEntity
8
0
100
AcDbPolyline
90
8
70
1
43
0.0
10
221.74692169883642
20
-85.152287083364541
42
0.41421356237312346
10
222.29692169883646
20
-84.60228708336453
10
222.29692169883648
20
-71.702287083364524
42
0.41421356237303358
10
221.7469216988365
20
-71.152287083364541
10
208.8469216988365
20
-71.152287083364484
42
0.41421356237313289
10
208.29692169883651
20
-71.702287083364482
10
208.29692169883646
20
-84.602287083364473
42
0.41421356237309503
10
208.84692169883647
20
-85.152287083364456
0
LWPOLYLINE
5
162
100
AcDbEntity
8
0
100
AcDbPolyline
90
8
70
1
43
0.0
10
257.46567169883633
20
-104.20228708336468
42
0.41421356237311396
10
258.0156716988364
20
-103.65228708336467
10
258.0156716988364
20
-90.752287083364692
42
0.41421356237305718
10
257.46567169883639
20
-90.202287083364695
10
244.56567169883641
20
-90.202287083364624
42
0.41421356237314239
10
244.0156716988364
20
-90.752287083364621
10
244.01567169883637
20
-103.65228708336461
42
0.41421356237309503
10
244.56567169883638
20
-104.20228708336461
0
LWPOLYLINE
5
163
100
AcDbEntity
8
0
100
AcDbPolyline
90
8
70
1
43
0.0
10
151.69692169883649
20
-71.152287083364257
42
0.4142135623730856
10
151.14692169883651
20
-71.702287083364254
10
151.14692169883645
20
-84.602287083364246
42
0.41421356237307611
10
151.69692169883643
20
-85.152287083364243
10
164.59692169883638
20
-85.152287083364342
42
0.41421356237314239
10
165.14692169883645
20
-84.602287083364317
10
165.14692169883648
20
-71.702287083364297
42
0.4142135623730856
10
164.5969216988365
20
-71.1522870833643
0
CIRCLE
5
164
100
AcDbEntity
8
0
100
AcDbCircle
10
39.084421696972377
20
-128.64984702817588
30
1.5543122344752192e-14
40
1.0999999999999988
210
2.5548794163870697e-32
220
1.1102230246251565e-16
230
1
0
CIRCLE
5
165
100
AcDbEntity
8
0
100
AcDbCircle
10
39.084421699048221
20
-27.669173853210314
30
1.9428902930940239e-15
40
1.0999999999999988
210
2.5548794163870478e-32
220
1.1102230246251565e-16
230
1
0
CIRCLE
5
166
100
AcDbEntity
8
0
100
AcDbCircle
10
153.38417521604154
20
-27.669173853260961
30
3.0531133177191805e-15
40
1.0999999999999945
210
-2.3755012412442722e-32
220
1.1102230246251565e-16
230
1
0
LWPOLYLINE
5
167
100
AcDbEntity
8
0
100
AcDbPolyline
90
8
70
1
43
0.0
10
4.0594216988366059
20
-33.052287082006416
10
16.959421698836607
20
-33.052287083363716
42
-0.41421356237309037
10
17.509421698836608
20
-33.602287083363713
10
17.509421698836558
20
-46.502287083363711
42
-0.4142135623730927
10
16.959421698836557
20
-47.052287083363723
10
4.0594216988365588
20
-47.052287083363673
42
-0.4142135623730856
10
3.5094216988365643
20
-46.502287083363676
10
3.5094216988366012
20
-33.602287082006413
42
-0.41421356237309176
0
LWPOLYLINE
5
168
100
AcDbEntity
8
0
100
AcDbPolyline
90
8
70
1
43
0.0
10
233.70342169883634
20
-123.25228708336459
10
218.37192169883636
20
-123.25228708336451
42
-0.4142135623730856
10
217.82192169883632
20
-122.70228708336452
10
217.82192169883629
20
-109.80228708336448
42
-0.41421356237309503
10
218.37192169883625
20
-109.25228708336451
10
233.70342169883634
20
-109.25228708336456
42
-0.41421356237311396
10
234.25342169883635
20
-109.8022870833646
10
234.25342169883638
20
-122.7022870833646
42
-0.41421356237307611
0
LWPOLYLINE
5
169
100
AcDbEntity
8
0
100
AcDbPolyline
90
79
70
1
43
0.0
10
185.81942169883632
20
-124.6886346065687
42
0.41421356237310542
10
186.81942169883632
20
-125.68863460656868
10
196.8594216988364
20
-125.68863460656871
42
0.41421356237301177
10
197.35942169883634
20
-125.18863460656874
10
197.3594216988364
20
-123.79930075693466
42
0.39278753501245733
10
196.84992169883643
20
-123.25079392014955
42
-0.39278753501252961
10
196.34042169883634
20
-122.70228708336441
10
196.34042169883642
20
-107.8022870833644
42
-0.41421356237310453
10
196.89042169883638
20
-107.25228708336442
10
203.95942169883642
20
-107.25228708336448
42
-0.41421356237309503
10
204.50942169883638
20
-107.80228708336445
10
204.50942169883638
20
-108.7022870833645
42
0.41421356237311396
10
205.05942169883636
20
-109.25228708336449
10
209.89092169883634
20
-109.25228708336449
42
-0.41421356237305718
10
210.44092169883635
20
-109.80228708336449
10
210.44092169883635
20
-122.7022870833645
42
-0.4142135623730856
10
209.89092169883634
20
-123.25228708336446
10
205.05942169883633
20
-123.25228708336446
42
0.41421356237309503
10
204.50942169883632
20
-123.80228708336448
10
204.50942169883638
20
-125.18863460656874
42
0.41421356237310542
10
205.00942169883641
20
-125.68863460656877
10
262.10555719310941
20
-125.68863460656891
42
-0.26855890584472719
10
262.97271792173592
20
-126.19060622311274
10
265.34377286847581
20
-130.31905713781717
42
0.51506045740031847
10
270.02507756360569
20
-130.3190571378172
10
272.39613251034586
20
-126.19060622311281
42
-0.26855890584472247
10
273.26329323897232
20
-125.68863460656901
10
304.65406499276003
20
-125.68863460656928
42
0.41421356237308982
10
305.65406499276003
20
-124.68863460656928
10
305.65406499276031
20
-31.669173851954895
42
0.41421356237310025
10
304.65406499276025
20
-30.669173851954863
10
273.26553179017412
20
-30.669173851954778
42
-0.26945705346998861
10
272.39670745851191
20
-30.164294322862283
10
270.01710101625889
20
-25.988623757231977
42
0.51205126868037587
10
265.35175011276186
20
-25.988622795613153
10
262.97214298177767
20
-30.164294343149621
42
-0.26945704720854086
10
262.10331866167667
20
-30.669173851954735
10
158.96528188569459
20
-30.669173851954032
42
-0.2694570925978878
10
158.09645748178588
20
-30.164294196085301
10
155.7168553434268
20
-25.988629766405808
42
0.51205302453576573
10
151.05149508865631
20
-25.988629766405779
10
148.67189295029394
20
-30.164294196069228
42
-0.26945709260281403
10
147.80306854637612
20
-30.669173851953918
10
44.665528354559484
20
-30.669173851953516
42
-0.26945708692815423
10
43.796703961119469
20
-30.164294214454994
10
41.4171011989893
20
-25.98862889543922
42
0.51205297549820561
10
36.751741205389287
20
-25.988630274769609
10
34.372139431158566
20
-30.164294185355779
42
-0.26945709590925115
10
33.503315021135684
20
-30.669173851953477
10
2.1139252160410038
20
-30.669173851953481
42
0.41421356237309459
10
1.1139252160410047
20
-31.669173851953474
10
1.1139252160406523
20
-124.68863460656812
42
0.41421356237308915
10
2.113925216040649
20
-125.68863460656809
10
33.505553674041025
20
-125.68863460656821
42
-0.26855890584471709
10
34.372714402667484
20
-126.19060622311198
10
36.743769349407529
20
-130.31905713781629
42
0.51506059687413108
10
41.425074780625259
20
-130.31905610576663
10
43.796128995224286
20
-126.19060624330228
42
-0.26855891208532828
10
44.663289735446426
20
-125.68863460656826
10
77.196921698836348
20
-125.68863460656834
42
0.41421356237307422
10
78.196921698836363
20
-124.68863460656837
10
78.196921698836363
20
-107.95228708336396
42
-0.41421356237307144
10
78.746921698836331
20
-107.40228708336396
10
89.909421698836411
20
-107.40228708336402
42
-0.41421356237310453
10
90.459421698836366
20
-107.95228708336397
10
90.459421698836294
20
-124.68863460656837
42
0.41421356237310025
10
91.459421698836266
20
-125.6886346065684
10
147.80530719310934
20
-125.68863460656856
42
-0.2685589058447248
10
148.6724679217358
20
-126.19060622311237
10
151.0435228684758
20
-130.31905713781671
42
0.51506124520666186
10
155.72483172133013
20
-130.31905130836788
10
158.09588253263749
20
-126.19060633714608
42
-0.26855894109142631
10
158.96304332675587
20
-125.6886346065686
10
177.00242169883632
20
-125.68863460656868
42
0.41421356237310542
10
178.00242169883632
20
-124.68863460656866
10
178.00242169883634
20
-107.95228708336433
42
-0.41421356237309503
10
178.55242169883633
20
-107.40228708336437
10
185.26942169883637
20
-107.4022870833644
42
-0.41421356237309503
10
185.81942169883635
20
-107.9522870833644
0
CIRCLE
5
170
100
AcDbEntity
8
0
100
AcDbCircle
10
267.68442521604084
20
-128.64963460792634
30
1.1102230246251565e-14
40
1.0999999999999945
210
2.5548794163870779e-32
220
1.1102230246251565e-16
230
1
0
CIRCLE
5
171
100
AcDbEntity
8
0
100
AcDbCircle
10
153.38417521604075
20
-128.64963460792583
30
1.1102230246251565e-14
40
1.0999999999999945
210
2.5548794163870779e-32
220
1.1102230246251565e-16
230
1
0
CIRCLE
5
172
100
AcDbEntity
8
0
100
AcDbCircle
10
29.653171698836552
20
-72.152286095126343
30
6.6613381477509392e-15
40
1.1000000000000003
210
4.870663763818829e-32
220
1.2490009027033011e-16
230
1
0
CIRCLE
5
173
100
AcDbEntity
8
0
100
AcDbCircle
10
261.4469216988366
20
-52.802287095126687
30
4.9960036108132044e-15
40
1.1000000000000003
210
4.870663763818829e-32
220
1.2490009027033011e-16
230
1
0
CIRCLE
5
174
100
AcDbEntity
8
0
100
AcDbCircle
10
263.0156716988364
20
-91.202287095126479
30
8.8817841970012523e-15
40
1.1000000000000003
210
4.870663763818829e-32
220
1.2490009027033011e-16
230
1
0
ENDSEC
0
SECTION
2
OBJECTS
0
DICTIONARY
5
C
100
AcDbDictionary
3
ACAD_GROUP
350
D
3
ACAD_MLINESTYLE
350
17
0
DICTIONARY
5
D
100
AcDbDictionary
0
DICTIONARY
5
1A
330
C
100
AcDbDictionary
0
DICTIONARY
5
17
100
AcDbDictionary
0
ENDSEC
0
EOF
