0
SECTION
2
HEADER
9
$INSUNITS
70
4
9
$ACADVER
1
AC1014
9
$HANDSEED
5
FFFF
0
ENDSEC
0
SECTION
2
TABLES
0
TABLE
2
VPORT
5
8
100
AcDbSymbolTable
0
ENDTAB
0
TABLE
2
LTYPE
5
5
100
AcDbSymbolTable
0
LTYPE
5
14
100
AcDbSymbolTableRecord
100
AcDbLinetypeTableRecord
2
BYBLOCK
70
0
0
LTYPE
5
15
100
AcDbSymbolTableRecord
100
AcDbLinetypeTableRecord
2
BYLAYER
70
0
0
LTYPE
5
16
100
AcDbSymbolTableRecord
100
AcDbLinetypeTableRecord
2
DASHED
70
0
3
Dashed __ __ __ __ __ __ __ __ __ __ __ __ __ _
72
65
73
2
40
0.75
49
0.5
74
0
49
-0.25
74
0
0
ENDTAB
0
TABLE
2
LAYER
5
2
100
AcDbSymbolTable
70
2
0
LAYER
5
50
100
AcDbSymbolTableRecord
100
AcDbLayerTableRecord
2
0
70
0
62
7
6
CONTINUOUS
0
ENDTAB
0
TABLE
2
STYLE
5
3
100
AcDbSymbolTable
70
1
0
STYLE
5
11
100
AcDbSymbolTableRecord
100
AcDbTextStyleTableRecord
2
STANDARD
70
0
0
ENDTAB
0
TABLE
2
VIEW
5
6
100
AcDbSymbolTable
70
0
0
ENDTAB
0
TABLE
2
UCS
5
7
100
AcDbSymbolTable
70
0
0
ENDTAB
0
TABLE
2
APPID
5
9
100
AcDbSymbolTable
70
2
0
APPID
5
12
100
AcDbSymbolTableRecord
100
AcDbRegAppTableRecord
2
ACAD
70
0
0
ENDTAB
0
TABLE
2
DIMSTYLE
5
A
100
AcDbSymbolTable
70
1
0
ENDTAB
0
TABLE
2
BLOCK_RECORD
5
1
100
AcDbSymbolTable
70
1
0
BLOCK_RECORD
5
1F
100
AcDbSymbolTableRecord
100
AcDbBlockTableRecord
2
*MODEL_SPACE
0
BLOCK_RECORD
5
1B
100
AcDbSymbolTableRecord
100
AcDbBlockTableRecord
2
*PAPER_SPACE
0
ENDTAB
0
ENDSEC
0
SECTION
2
BLOCKS
0
BLOCK
5
20
100
AcDbEntity
100
AcDbBlockBegin
2
*MODEL_SPACE
0
ENDBLK
5
21
100
AcDbEntity
100
AcDbBlockEnd
0
BLOCK
5
1C
100
AcDbEntity
100
AcDbBlockBegin
2
*PAPER_SPACE
0
ENDBLK
5
1D
100
AcDbEntity
100
AcDbBlockEnd
0
ENDSEC
0
SECTION
2
ENTITIES
0
LWPOLYLINE
5
100
100
AcDbEntity
8
0
100
AcDbPolyline
90
8
70
1
43
0.0
10
-289.25942169883672
20
-33.602287083363706
42
0.41421356237313289
10
-289.80942169883673
20
-33.052287083363709
10
-302.70942169883676
20
-33.052287083363709
42
0.41421356237313289
10
-303.25942169883672
20
-33.60228708336372
10
-303.25942169883677
20
-46.502287083363711
42
0.41421356237313761
10
-302.70942169883676
20
-47.052287083363701
10
-289.80942169883679
20
-47.052287083363701
42
0.41421356237313761
10
-289.25942169883677
20
-46.502287083363704
0
LWPOLYLINE
5
101
100
AcDbEntity
8
0
100
AcDbPolyline
90
8
70
1
43
0.0
10
-245.55942169883673
20
-33.052287083363687
10
-232.65942169883675
20
-33.052287083363673
42
-0.41421356237313289
10
-232.10942169883677
20
-33.60228708336367
10
-232.1094216988368
20
-46.502287083363683
42
-0.41421356237313289
10
-232.65942169883681
20
-47.052287083363673
10
-245.55942169883676
20
-47.05228708336368
42
-0.41421356237313289
10
-246.10942169883674
20
-46.502287083363683
10
-246.10942169883671
20
-33.602287083363684
42
-0.41421356237312812
0
LWPOLYLINE
5
102
100
AcDbEntity
8
0
100
AcDbPolyline
90
79
70
1
43
0.0
10
-178.00242169883677
20
-124.68863460656794
42
0.41421356237307422
10
-177.00242169883677
20
-125.68863460656797
10
-158.96304332675629
20
-125.68863460656794
42
-0.26855894109143047
10
-158.09588253263792
20
-126.19060633714543
10
-155.72483172133434
20
-130.31905130836992
42
0.51506124520666374
10
-151.04352286847626
20
-130.31905713781609
10
-148.67246792173626
20
-126.19060622311179
42
-0.26855890584472247
10
-147.80530719310977
20
-125.68863460656799
10
-91.459421698836735
20
-125.68863460656802
42
0.41421356237309503
10
-90.459421698836735
20
-124.68863460656799
10
-90.459421698836749
20
-107.95228708336356
42
-0.41421356237311396
10
-89.909421698836795
20
-107.4022870833636
10
-78.746921698836729
20
-107.40228708336363
42
-0.41421356237309503
10
-78.196921698836746
20
-107.95228708336361
10
-78.196921698836789
20
-124.688634606568
42
0.41421356237309503
10
-77.196921698836803
20
-125.688634606568
10
-44.663289735446874
20
-125.68863460656799
42
-0.26855891208533872
10
-43.796128995224713
20
-126.19060624330204
10
-41.425074780633857
20
-130.31905610577221
42
0.51506059687412675
10
-36.743769349407998
20
-130.31905713781606
10
-34.372714402667953
20
-126.1906062231118
42
-0.26855890584472603
10
-33.505553674041472
20
-125.688634606568
10
-2.1139252160410926
20
-125.68863460656803
42
0.41421356237309342
10
-1.1139252160411017
20
-124.68863460656804
10
-1.1139252160411266
20
-31.669173851953367
42
0.41421356237309653
10
-2.1139252160411237
20
-30.669173851953367
10
-33.503315021135812
20
-30.669173851953264
42
-0.26945709590924832
10
-34.372139431158672
20
-30.164294185355566
10
-36.751741205389393
20
-25.988630274769381
42
0.51205297549820505
10
-41.417101198989393
20
-25.988628895438978
10
-43.796703961119583
20
-30.164294214454749
42
-0.26945708692815312
10
-44.665528354559598
20
-30.669173851953268
10
-147.80306854637627
20
-30.669173851953321
42
-0.26945709260281475
10
-148.67189295029408
20
-30.164294196068631
10
-151.05149508857548
20
-25.988629766346847
42
0.51205302453576607
10
-155.71685534342691
20
-25.988629766405168
10
-158.09645748178599
20
-30.164294196084672
42
-0.26945709259788542
10
-158.96528188569471
20
-30.669173851953389
10
-262.10331866167672
20
-30.669173851953737
42
-0.2694570472085368
10
-262.97214298177772
20
-30.164294343148647
10
-265.35175011276198
20
-25.988622795612152
42
0.51205126868037421
10
-270.01710101625901
20
-25.988623757230947
10
-272.39670745851197
20
-30.164294322861245
42
-0.26945705346998966
10
-273.26553179017424
20
-30.669173851953744
10
-304.65406499276037
20
-30.669173851953737
42
0.41421356237307161
10
-305.65406499276042
20
-31.66917385195374
10
-305.65406499276048
20
-124.6886346065682
42
0.41421356237306384
10
-304.65406499276048
20
-125.68863460656817
10
-273.26329323897278
20
-125.68863460656794
42
-0.26855890584471825
10
-272.39613251034632
20
-126.19060622311173
10
-270.0250775636062
20
-130.31905713781617
42
0.51506045740031692
10
-265.34377286847632
20
-130.31905713781615
10
-262.97271792173638
20
-126.19060622311176
42
-0.26855890584473541
10
-262.10555719310992
20
-125.68863460656793
10
-205.00942169883686
20
-125.68863460656794
42
0.4142135623730846
10
-204.50942169883683
20
-125.18863460656797
10
-204.50942169883686
20
-123.80228708336368
42
0.41421356237312346
10
-205.0594216988369
20
-123.25228708336367
10
-209.89092169883676
20
-123.2522870833637
42
-0.41421356237310453
10
-210.4409216988368
20
-122.70228708336369
10
-210.44092169883675
20
-109.80228708336369
42
-0.41421356237309503
10
-209.89092169883679
20
-109.25228708336371
10
-205.18442169883673
20
-109.2522870833637
42
0.4142135623730856
10
-204.63442169883677
20
-108.7022870833637
10
-204.63442169883672
20
-107.80228708336369
42
-0.41421356237311396
10
-204.08442169883674
20
-107.25228708336375
10
-196.89067169883728
20
-107.25228708336371
42
-0.41421356237309503
10
-196.3406716988373
20
-107.80228708336369
10
-196.3406716988373
20
-122.70529189764046
42
-0.39272177318739954
10
-196.85004669883708
20
-123.25378949050204
42
0.39272177318735507
10
-197.35942169883685
20
-123.80228708336367
10
-197.35942169883685
20
-125.18863460656794
42
0.41421356237314705
10
-196.85942169883685
20
-125.68863460656797
10
-186.81942169883681
20
-125.68863460656794
42
0.414213562373069
10
-185.81942169883678
20
-124.68863460656797
10
-185.81942169883675
20
-107.95228708336369
42
-0.41421356237309503
10
-185.26942169883677
20
-107.40228708336372
10
-178.55242169883672
20
-107.40228708336372
42
-0.41421356237312346
10
-178.00242169883674
20
-107.95228708336366
0
CIRCLE
5
103
100
AcDbEntity
8
0
100
AcDbCircle
10
-153.38417521604123
20
-128.64963460656793
30
-4.9890647169092972e-14
40
1.0999999999999945
210
-1.4468227766215335e-32
220
-4.0245584642661925e-16
230
1
0
LWPOLYLINE
5
104
100
AcDbEntity
8
0
100
AcDbPolyline
90
24
70
1
43
0.0
10
-30.115671698836735
20
-104.20228708200636
42
0.41421356237308637
10
-30.415671698836739
20
-104.50228708200638
10
-30.415671698836732
20
-105.58328708336362
42
-0.41421356237308637
10
-30.715671698836733
20
-105.88328708336363
10
-37.553671698836709
20
-105.88328708336384
42
-0.41421356237309742
10
-38.103671698836678
20
-105.33328708336387
10
-38.103671698836749
20
-87.552287082006345
42
-0.41421356237311241
10
-37.803671698836737
20
-87.252287082006319
10
-30.403671698836764
20
-87.252287082006347
42
-0.41421356237310375
10
-30.103671698836763
20
-87.552287082006345
10
-30.103671698836774
20
-89.902287083363603
42
0.41421356237310802
10
-29.803671698836766
20
-90.202287083363629
10
-15.027671698836809
20
-90.202287083363601
42
0.41421356237308854
10
-14.727671698836804
20
-89.902287083363603
10
-14.727671698836813
20
-87.552287082006387
42
-0.41421356237309076
10
-14.427671698836805
20
-87.252287082006376
10
-7.0276716988366772
20
-87.25228708200639
42
-0.41421356237309503
10
-6.7276716988366765
20
-87.552287082006387
10
-6.7276716988367715
20
-105.33328708336357
42
-0.41421356237310214
10
-7.2776716988367287
20
-105.88328708336356
10
-14.115671698836751
20
-105.88328708336361
42
-0.41421356237312978
10
-14.415671698836746
20
-105.58328708336362
10
-14.415671698836741
20
-104.50228708200639
42
0.41421356237310375
10
-14.715671698836738
20
-104.20228708200639
0
LWPOLYLINE
5
105
100
AcDbEntity
8
0
100
AcDbPolyline
90
8
70
1
43
0.0
10
-218.37192169883679
20
-123.25228708336374
10
-233.70342169883682
20
-123.25228708336368
42
-0.41421356237313289
10
-234.2534216988368
20
-122.70228708336369
10
-234.25342169883677
20
-109.80228708336372
42
-0.41421356237312346
10
-233.70342169883673
20
-109.2522870833637
10
-218.37192169883667
20
-109.25228708336371
42
-0.41421356237309503
10
-217.82192169883672
20
-109.80228708336368
10
-217.82192169883672
20
-122.70228708336369
42
-0.41421356237309503
0
CIRCLE
5
106
100
AcDbEntity
8
0
100
AcDbCircle
10
-267.68442521811659
20
-27.669173851953364
30
-1.1587952819525071e-14
40
1.0999999999999945
210
-2.2171947543765192e-32
220
-4.0245584642661925e-16
230
1
0
CIRCLE
5
107
100
AcDbEntity
8
0
100
AcDbCircle
10
-153.38417521604165
20
-27.669173851903096
30
-1.1032841307212493e-14
40
1.0999999999999945
210
-2.2171947543765192e-32
220
-4.0245584642661925e-16
230
1
0
LWPOLYLINE
5
108
100
AcDbEntity
8
0
100
AcDbPolyline
90
8
70
1
43
0.0
10
-60.371921698836744
20
-103.65228708336362
42
0.41421356237307611
10
-59.821921698836746
20
-104.20228708336361
10
-46.921921698836748
20
-104.20228708336361
42
0.41421356237307611
10
-46.371921698836751
20
-103.65228708336362
10
-46.371921698836751
20
-90.752287083363626
42
0.41421356237309975
10
-46.921921698836748
20
-90.202287083363601
10
-59.821921698836746
20
-90.202287083363601
42
0.41421356237309503
10
-60.371921698836744
20
-90.752287083363626
0
LWPOLYLINE
5
109
100
AcDbEntity
8
0
100
AcDbPolyline
90
8
70
1
43
0.0
10
-289.25942169883672
20
-71.702287083363728
42
0.41421356237313761
10
-289.80942169883673
20
-71.152287083363717
10
-302.70942169883671
20
-71.152287083363731
42
0.41421356237309503
10
-303.25942169883672
20
-71.702287083363714
10
-303.25942169883672
20
-84.602287083363706
42
0.4142135623730856
10
-302.70942169883671
20
-85.152287083363746
10
-289.80942169883673
20
-85.152287083363717
42
0.41421356237307611
10
-289.25942169883672
20
-84.602287083363748
0
LWPOLYLINE
5
110
100
AcDbEntity
8
0
100
AcDbPolyline
90
8
70
1
43
0.0
10
-265.15942169883681
20
-122.70228708336369
42
0.41421356237310453
10
-264.6094216988368
20
-123.2522870833637
10
-251.70942169883685
20
-123.2522870833637
42
0.41421356237310453
10
-251.15942169883684
20
-122.7022870833637
10
-251.15942169883678
20
-109.80228708336372
42
0.41421356237314239
10
-251.70942169883676
20
-109.25228708336374
10
-264.60942169883674
20
-109.25228708336371
42
0.41421356237312346
10
-265.1594216988367
20
-109.80228708336372
0
LWPOLYLINE
5
111
100
AcDbEntity
8
0
100
AcDbPolyline
90
8
70
1
43
0.0
10
-289.25942169883672
20
-90.75228708336374
42
0.41421356237314239
10
-289.80942169883673
20
-90.202287083363728
10
-302.70942169883671
20
-90.202287083363728
42
0.4142135623730856
10
-303.25942169883672
20
-90.752287083363754
10
-303.25942169883677
20
-103.65228708336375
42
0.41421356237311396
10
-302.70942169883676
20
-104.2022870833637
10
-289.80942169883679
20
-104.20228708336374
42
0.41421356237306667
10
-289.25942169883677
20
-103.65228708336373
0
LWPOLYLINE
5
112
100
AcDbEntity
8
0
100
AcDbPolyline
90
8
70
1
43
0.0
10
-270.20942169883671
20
-90.752287083363711
42
0.41421356237314239
10
-270.75942169883672
20
-90.2022870833637
10
-283.6594216988367
20
-90.202287083363728
42
0.41421356237307611
10
-284.20942169883676
20
-90.75228708336374
10
-284.20942169883676
20
-103.65228708336375
42
0.41421356237311396
10
-283.65942169883675
20
-104.20228708336373
10
-270.75942169883677
20
-104.2022870833637
42
0.41421356237309503
10
-270.20942169883676
20
-103.65228708336373
0
LWPOLYLINE
5
113
100
AcDbEntity
8
0
100
AcDbPolyline
90
8
70
1
43
0.0
10
-270.20942169883676
20
-109.80228708336371
42
0.41421356237312346
10
-270.75942169883672
20
-109.25228708336374
10
-283.65942169883675
20
-109.25228708336374
42
0.41421356237311396
10
-284.20942169883676
20
-109.80228708336375
10
-284.20942169883682
20
-122.70228708336373
42
0.4142135623730856
10
-283.65942169883675
20
-123.25228708336375
10
-270.75942169883677
20
-123.2522870833637
42
0.41421356237309503
10
-270.20942169883676
20
-122.7022870833637
0
LWPOLYLINE
5
114
100
AcDbEntity
8
0
100
AcDbPolyline
90
8
70
1
43
0.0
10
-5.8906716988367416
20
-109.80228708336358
42
0.4142135623730927
10
-6.4406716988367414
20
-109.2522870833636
10
-21.721921698836738
20
-109.25228708336356
42
0.41421356237307611
10
-22.271921698836763
20
-109.80228708336358
10
-22.271921698836735
20
-122.70228708336359
42
0.41421356237309742
10
-21.721921698836741
20
-123.2522870833636
10
-6.4406716988367405
20
-123.25228708336357
42
0.41421356237309037
10
-5.8906716988367522
20
-122.70228708336359
0
LWPOLYLINE
5
115
100
AcDbEntity
8
0
100
AcDbPolyline
90
8
70
1
43
0.0
10
-193.72192169883675
20
-103.65228708336369
42
0.41421356237311396
10
-193.17192169883674
20
-104.20228708336373
10
-180.27192169883679
20
-104.20228708336367
42
0.41421356237310453
10
-179.72192169883675
20
-103.65228708336367
10
-179.72192169883672
20
-90.752287083363669
42
0.41421356237314239
10
-180.27192169883674
20
-90.202287083363686
10
-193.17192169883668
20
-90.202287083363672
42
0.41421356237311396
10
-193.72192169883672
20
-90.752287083363669
0
LWPOLYLINE
5
116
100
AcDbEntity
8
0
100
AcDbPolyline
90
8
70
1
43
0.0
10
-103.52192169883676
20
-90.752287083363626
42
0.4142135623730856
10
-104.07192169883675
20
-90.202287083363643
10
-116.97192169883675
20
-90.202287083363643
42
0.41421356237302881
10
-117.52192169883676
20
-90.752287083363669
10
-117.52192169883674
20
-103.65228708336366
42
0.4142135623730856
10
-116.97192169883675
20
-104.20228708336364
10
-104.07192169883675
20
-104.20228708336364
42
0.41421356237309503
10
-103.52192169883676
20
-103.65228708336363
0
LWPOLYLINE
5
117
100
AcDbEntity
8
0
100
AcDbPolyline
90
8
70
1
43
0.0
10
-8.2719216988367386
20
-52.652287083363561
42
0.4142135623730791
10
-8.8219216988367357
20
-52.102287083363564
10
-21.721921698836731
20
-52.102287083363585
42
0.41421356237310214
10
-22.271921698836735
20
-52.652287083363582
10
-22.271921698836739
20
-65.552287083363566
42
0.41421356237309975
10
-21.721921698836741
20
-66.102287083363564
10
-8.8219216988367393
20
-66.102287083363564
42
0.41421356237310986
10
-8.2719216988367421
20
-65.552287083363566
0
LWPOLYLINE
5
118
100
AcDbEntity
8
0
100
AcDbPolyline
90
8
70
1
43
0.0
10
-98.759421698836746
20
-33.602287083363606
42
0.41421356237308082
10
-99.309421698836758
20
-33.052287083363602
10
-112.20942169883674
20
-33.052287083363616
42
0.41421356237309503
10
-112.75942169883675
20
-33.60228708336362
10
-112.75942169883676
20
-46.502287083363626
42
0.4142135623730856
10
-112.20942169883676
20
-47.052287083363623
10
-99.309421698836772
20
-47.052287083363623
42
0.41421356237307611
10
-98.759421698836789
20
-46.502287083363612
0
LWPOLYLINE
5
119
100
AcDbEntity
8
0
100
AcDbPolyline
90
8
70
1
43
0.0
10
-55.609421698836741
20
-46.502287083363598
42
0.41421356237307611
10
-55.059421698836744
20
-47.052287083363595
10
-42.159421698836738
20
-47.052287083363581
42
0.41421356237307611
10
-41.609421698836741
20
-46.502287083363584
10
-41.609421698836741
20
-33.602287083363578
42
0.41421356237310453
10
-42.159421698836738
20
-33.052287083363574
10
-55.059421698836744
20
-33.052287083363588
42
0.41421356237308321
10
-55.609421698836741
20
-33.602287083363592
0
LWPOLYLINE
5
120
100
AcDbEntity
8
0
100
AcDbPolyline
90
8
70
1
43
0.0
10
-227.34692169883672
20
-71.702287083363686
42
0.41421356237313761
10
-227.89692169883671
20
-71.152287083363689
10
-240.79692169883671
20
-71.152287083363689
42
0.41421356237310919
10
-241.34692169883675
20
-71.702287083363686
10
-241.34692169883675
20
-84.602287083363706
42
0.41421356237313289
10
-240.79692169883674
20
-85.152287083363717
10
-227.89692169883676
20
-85.15228708336366
42
0.41421356237309503
10
-227.34692169883675
20
-84.602287083363677
0
LWPOLYLINE
5
121
100
AcDbEntity
8
0
100
AcDbPolyline
90
8
70
1
43
0.0
10
-217.82192169883672
20
-90.752287083363683
42
0.41421356237313289
10
-218.37192169883673
20
-90.202287083363686
10
-231.27192169883671
20
-90.202287083363643
42
0.41421356237310453
10
-231.82192169883675
20
-90.752287083363697
10
-231.82192169883677
20
-103.65228708336372
42
0.41421356237313289
10
-231.27192169883676
20
-104.20228708336367
10
-218.37192169883679
20
-104.2022870833637
42
0.41421356237312346
10
-217.82192169883677
20
-103.65228708336369
0
LWPOLYLINE
5
122
100
AcDbEntity
8
0
100
AcDbPolyline
90
8
70
1
43
0.0
10
-289.25942169883677
20
-52.652287083363717
42
0.41421356237311396
10
-289.80942169883679
20
-52.102287083363677
10
-302.70942169883676
20
-52.10228708336372
42
0.41421356237313289
10
-303.25942169883677
20
-52.652287083363717
10
-303.25942169883672
20
-65.552287083363709
42
0.41421356237313289
10
-302.70942169883676
20
-66.102287083363706
10
-289.80942169883673
20
-66.10228708336372
42
0.41421356237313289
10
-289.25942169883672
20
-65.552287083363723
0
LWPOLYLINE
5
123
100
AcDbEntity
8
0
100
AcDbPolyline
90
8
70
1
43
0.0
10
-103.23442169883675
20
-65.552287083363609
42
0.41421356237307611
10
-102.68442169883676
20
-66.102287083363606
10
-89.784421698836752
20
-66.102287083363635
42
0.41421356237308082
10
-89.234421698836741
20
-65.552287083363609
10
-89.234421698836741
20
-52.652287083363618
42
0.41421356237305251
10
-89.784421698836724
20
-52.102287083363599
10
-102.68442169883676
20
-52.102287083363606
42
0.41421356237308082
10
-103.23442169883675
20
-52.652287083363618
0
LWPOLYLINE
5
124
100
AcDbEntity
8
0
100
AcDbPolyline
90
8
70
1
43
0.0
10
-122.28442169883675
20
-65.552287083363638
42
0.41421356237309503
10
-121.73442169883674
20
-66.102287083363635
10
-108.83442169883674
20
-66.102287083363635
42
0.41421356237308082
10
-108.28442169883672
20
-65.552287083363638
10
-108.28442169883674
20
-52.652287083363625
42
0.41421356237307144
10
-108.83442169883674
20
-52.102287083363635
10
-121.73442169883674
20
-52.102287083363628
42
0.41421356237309975
10
-122.28442169883672
20
-52.652287083363632
0
LWPOLYLINE
5
125
100
AcDbEntity
8
0
100
AcDbPolyline
90
8
70
1
43
0.0
10
-150.85942169883674
20
-46.502287083363633
42
0.41421356237307144
10
-150.30942169883676
20
-47.052287083363638
10
-137.40942169883678
20
-47.052287083363638
42
0.41421356237311868
10
-136.85942169883677
20
-46.502287083363633
10
-136.85942169883677
20
-33.602287083363635
42
0.41421356237307849
10
-137.40942169883675
20
-33.05228708336363
10
-150.30942169883673
20
-33.052287083363638
42
0.41421356237310214
10
-150.85942169883671
20
-33.602287083363642
0
LWPOLYLINE
5
126
100
AcDbEntity
8
0
100
AcDbPolyline
90
8
70
1
43
0.0
10
-36.559421698836729
20
-46.502287083363576
42
0.41421356237309975
10
-36.009421698836732
20
-47.052287083363581
10
-23.109421698836737
20
-47.052287083363574
42
0.41421356237310453
10
-22.559421698836729
20
-46.502287083363569
10
-22.559421698836736
20
-33.602287083363571
42
0.41421356237309037
10
-23.109421698836737
20
-33.052287083363566
10
-36.009421698836732
20
-33.052287083363574
42
0.41421356237310686
10
-36.559421698836736
20
-33.602287083363585
0
LWPOLYLINE
5
127
100
AcDbEntity
8
0
100
AcDbPolyline
90
8
70
1
43
0.0
10
-69.896921698836735
20
-84.602287083363606
42
0.41421356237307611
10
-69.346921698836738
20
-85.152287083363603
10
-56.446921698836753
20
-85.152287083363603
42
0.41421356237307611
10
-55.896921698836756
20
-84.602287083363606
10
-55.896921698836756
20
-71.702287083363601
42
0.41421356237310453
10
-56.446921698836753
20
-71.152287083363603
10
-69.346921698836738
20
-71.152287083363618
42
0.41421356237307611
10
-69.896921698836735
20
-71.702287083363615
0
LWPOLYLINE
5
128
100
AcDbEntity
8
0
100
AcDbPolyline
90
8
70
1
43
0.0
10
-65.134421698836732
20
-65.552287083363595
42
0.41421356237307611
10
-64.584421698836735
20
-66.102287083363592
10
-51.684421698836744
20
-66.10228708336362
42
0.41421356237309503
10
-51.134421698836732
20
-65.552287083363595
10
-51.134421698836746
20
-52.652287083363589
42
0.41421356237309975
10
-51.684421698836751
20
-52.102287083363578
10
-64.584421698836735
20
-52.102287083363592
42
0.41421356237308082
10
-65.134421698836732
20
-52.652287083363596
0
LWPOLYLINE
5
129
100
AcDbEntity
8
0
100
AcDbPolyline
90
8
70
1
43
0.0
10
-24.65317169883674
20
-84.602287083363606
42
0.41421356237308793
10
-24.103171698836743
20
-85.152287083363589
10
-6.4406716988367476
20
-85.152287083363589
42
0.41421356237308204
10
-5.8906716988367407
20
-84.602287083363606
10
-5.8906716988367371
20
-71.702287083363572
42
0.41421356237310153
10
-6.4406716988367396
20
-71.152287083363589
10
-24.103171698836739
20
-71.152287083363589
42
0.4142135623730856
10
-24.65317169883674
20
-71.702287083363586
0
LWPOLYLINE
5
130
100
AcDbEntity
8
0
100
AcDbPolyline
90
8
70
1
43
0.0
10
-222.58442169883679
20
-52.652287083363667
42
0.41421356237311396
10
-223.13442169883677
20
-52.102287083363635
10
-236.03442169883678
20
-52.102287083363677
42
0.41421356237313761
10
-236.58442169883676
20
-52.652287083363689
10
-236.58442169883674
20
-65.552287083363694
42
0.41421356237313761
10
-236.03442169883675
20
-66.102287083363677
10
-223.13442169883675
20
-66.102287083363663
42
0.41421356237312812
10
-222.58442169883676
20
-65.55228708336368
0
LWPOLYLINE
5
131
100
AcDbEntity
8
0
100
AcDbPolyline
90
8
70
1
43
0.0
10
-74.659421698836738
20
-46.502287083363605
42
0.41421356237307611
10
-74.109421698836741
20
-47.052287083363602
10
-61.209421698836749
20
-47.052287083363602
42
0.4142135623730856
10
-60.659421698836752
20
-46.502287083363584
10
-60.659421698836752
20
-33.602287083363585
42
0.41421356237310453
10
-61.209421698836749
20
-33.052287083363581
10
-74.109421698836741
20
-33.052287083363588
42
0.41421356237308793
10
-74.659421698836738
20
-33.602287083363592
0
LWPOLYLINE
5
132
100
AcDbEntity
8
0
100
AcDbPolyline
90
8
70
1
43
0.0
10
-289.25942169883677
20
-109.80228708336375
42
0.41421356237312346
10
-289.80942169883679
20
-109.25228708336377
10
-302.70942169883676
20
-109.25228708336374
42
0.41421356237311396
10
-303.25942169883677
20
-109.80228708336372
10
-303.25942169883683
20
-122.7022870833637
42
0.41421356237311396
10
-302.70942169883676
20
-123.25228708336375
10
-289.80942169883684
20
-123.25228708336371
42
0.41421356237311396
10
-289.25942169883677
20
-122.70228708336373
0
LWPOLYLINE
5
133
100
AcDbEntity
8
0
100
AcDbPolyline
90
8
70
1
43
0.0
10
-78.871921698836744
20
-90.202287083363615
42
0.4142135623730856
10
-79.421921698836726
20
-90.752287083363612
10
-79.421921698836741
20
-103.65228708336366
42
0.41421356237307611
10
-78.871921698836744
20
-104.20228708336364
10
-65.971921698836752
20
-104.20228708336364
42
0.41421356237310453
10
-65.421921698836755
20
-103.6522870833636
10
-65.421921698836755
20
-90.752287083363612
42
0.41421356237313289
10
-65.971921698836752
20
-90.202287083363615
0
LWPOLYLINE
5
134
100
AcDbEntity
8
0
100
AcDbPolyline
90
8
70
1
43
0.0
10
-213.05942169883676
20
-33.602287083363656
42
0.41421356237313056
10
-213.60942169883674
20
-33.052287083363666
10
-226.50942169883675
20
-33.052287083363673
42
0.41421356237312812
10
-227.05942169883673
20
-33.602287083363677
10
-227.05942169883679
20
-46.502287083363669
42
0.41421356237313289
10
-226.50942169883677
20
-47.052287083363652
10
-213.6094216988368
20
-47.052287083363652
42
0.41421356237313289
10
-213.05942169883679
20
-46.502287083363669
0
LWPOLYLINE
5
135
100
AcDbEntity
8
0
100
AcDbPolyline
90
8
70
1
43
0.0
10
-107.99692169883673
20
-84.602287083363649
42
0.41421356237309503
10
-107.44692169883675
20
-85.152287083363603
10
-94.546921698836726
20
-85.152287083363632
42
0.4142135623730856
10
-93.996921698836729
20
-84.60228708336362
10
-93.996921698836758
20
-71.702287083363615
42
0.41421356237308082
10
-94.546921698836726
20
-71.152287083363618
10
-107.44692169883676
20
-71.152287083363632
42
0.41421356237309975
10
-107.99692169883677
20
-71.702287083363629
0
LWPOLYLINE
5
136
100
AcDbEntity
8
0
100
AcDbPolyline
90
8
70
1
43
0.0
10
-127.04692169883673
20
-84.60228708336362
42
0.4142135623730856
10
-126.49692169883673
20
-85.152287083363646
10
-113.59692169883672
20
-85.15228708336366
42
0.41421356237310453
10
-113.04692169883671
20
-84.602287083363649
10
-113.04692169883674
20
-71.702287083363615
42
0.41421356237309037
10
-113.59692169883674
20
-71.152287083363632
10
-126.49692169883673
20
-71.152287083363646
42
0.41421356237309037
10
-127.04692169883674
20
-71.702287083363643
0
LWPOLYLINE
5
137
100
AcDbEntity
8
0
100
AcDbPolyline
90
8
70
1
43
0.0
10
-74.946921698836761
20
-71.702287083363615
42
0.41421356237310453
10
-75.496921698836758
20
-71.152287083363618
10
-88.396921698836735
20
-71.152287083363618
42
0.4142135623730856
10
-88.946921698836718
20
-71.702287083363615
10
-88.946921698836704
20
-84.60228708336362
42
0.41421356237309503
10
-88.396921698836692
20
-85.152287083363603
10
-75.496921698836758
20
-85.152287083363632
42
0.41421356237307611
10
-74.946921698836761
20
-84.602287083363649
0
LWPOLYLINE
5
138
100
AcDbEntity
8
0
100
AcDbPolyline
90
8
70
1
43
0.0
10
-79.709421698836749
20
-33.602287083363599
42
0.41421356237310686
10
-80.259421698836761
20
-33.052287083363609
10
-93.159421698836724
20
-33.052287083363602
42
0.41421356237309503
10
-93.709421698836735
20
-33.602287083363606
10
-93.709421698836749
20
-46.502287083363612
42
0.41421356237309037
10
-93.159421698836724
20
-47.052287083363623
10
-80.259421698836746
20
-47.052287083363602
42
0.41421356237307144
10
-79.709421698836749
20
-46.502287083363598
0
LWPOLYLINE
5
139
100
AcDbEntity
8
0
100
AcDbPolyline
90
8
70
1
43
0.0
10
-70.184421698836744
20
-52.652287083363596
42
0.41421356237309037
10
-70.734421698836741
20
-52.102287083363606
10
-83.634421698836746
20
-52.102287083363606
42
0.41421356237307611
10
-84.184421698836744
20
-52.652287083363618
10
-84.184421698836744
20
-65.552287083363609
42
0.41421356237309037
10
-83.634421698836746
20
-66.102287083363606
10
-70.734421698836741
20
-66.102287083363606
42
0.41421356237307144
10
-70.184421698836744
20
-65.552287083363609
0
LWPOLYLINE
5
140
100
AcDbEntity
8
0
100
AcDbPolyline
90
8
70
1
43
0.0
10
-132.09692169883675
20
-71.702287083363643
42
0.4142135623730856
10
-132.64692169883674
20
-71.15228708336366
10
-145.54692169883674
20
-71.15228708336366
42
0.41421356237310453
10
-146.09692169883675
20
-71.702287083363657
10
-146.09692169883672
20
-84.602287083363649
42
0.41421356237309503
10
-145.54692169883674
20
-85.15228708336366
10
-132.64692169883671
20
-85.152287083363646
42
0.41421356237307611
10
-132.09692169883672
20
-84.602287083363649
0
LWPOLYLINE
5
141
100
AcDbEntity
8
0
100
AcDbPolyline
90
8
70
1
43
0.0
10
-98.471921698836752
20
-103.65228708336363
42
0.41421356237311396
10
-97.921921698836755
20
-104.20228708336364
10
-85.021921698836735
20
-104.20228708336366
42
0.41421356237310453
10
-84.471921698836752
20
-103.65228708336362
10
-84.471921698836752
20
-90.752287083363626
42
0.41421356237310453
10
-85.021921698836721
20
-90.202287083363629
10
-97.921921698836755
20
-90.202287083363629
42
0.4142135623730856
10
-98.471921698836766
20
-90.752287083363655
0
LWPOLYLINE
5
142
100
AcDbEntity
8
0
100
AcDbPolyline
90
8
70
1
43
0.0
10
-151.14692169883676
20
-71.702287083363657
42
0.41421356237308082
10
-151.69692169883672
20
-71.152287083363632
10
-164.5969216988367
20
-71.15228708336366
42
0.41421356237309975
10
-165.14692169883671
20
-71.702287083363657
10
-165.14692169883674
20
-84.602287083363663
42
0.4142135623730856
10
-164.5969216988367
20
-85.152287083363674
10
-151.69692169883672
20
-85.15228708336366
42
0.41421356237307611
10
-151.14692169883674
20
-84.602287083363677
0
LWPOLYLINE
5
143
100
AcDbEntity
8
0
100
AcDbPolyline
90
8
70
1
43
0.0
10
-258.01567169883674
20
-103.65228708336372
42
0.41421356237313289
10
-257.46567169883679
20
-104.2022870833637
10
-244.56567169883681
20
-104.2022870833637
42
0.41421356237310453
10
-244.01567169883677
20
-103.65228708336372
10
-244.01567169883674
20
-90.752287083363683
42
0.41421356237314239
10
-244.56567169883672
20
-90.2022870833637
10
-257.46567169883667
20
-90.2022870833637
42
0.41421356237311396
10
-258.01567169883674
20
-90.752287083363697
0
LWPOLYLINE
5
144
100
AcDbEntity
8
0
100
AcDbPolyline
90
8
70
1
43
0.0
10
-222.29692169883674
20
-84.602287083363706
42
0.41421356237313289
10
-221.74692169883673
20
-85.152287083363689
10
-208.84692169883678
20
-85.152287083363674
42
0.41421356237311396
10
-208.29692169883674
20
-84.602287083363677
10
-208.29692169883674
20
-71.702287083363686
42
0.41421356237313761
10
-208.84692169883675
20
-71.152287083363689
10
-221.7469216988367
20
-71.152287083363689
42
0.41421356237310453
10
-222.29692169883674
20
-71.702287083363672
0
LWPOLYLINE
5
145
100
AcDbEntity
8
0
100
AcDbPolyline
90
8
70
1
43
0.0
10
-150.85942169883674
20
-122.70228708336364
42
0.41421356237309503
10
-150.30942169883673
20
-123.25228708336365
10
-125.50317169883675
20
-123.25228708336363
42
0.41421356237307611
10
-124.95317169883675
20
-122.70228708336363
10
-124.95317169883677
20
-109.80228708336367
42
0.41421356237312346
10
-125.50317169883677
20
-109.25228708336368
10
-150.30942169883676
20
-109.25228708336368
42
0.41421356237307611
10
-150.85942169883674
20
-109.80228708336368
0
LWPOLYLINE
5
146
100
AcDbEntity
8
0
100
AcDbPolyline
90
8
70
1
43
0.0
10
-127.33442169883675
20
-52.652287083363632
42
0.41421356237309975
10
-127.88442169883677
20
-52.102287083363649
10
-140.78442169883675
20
-52.102287083363649
42
0.41421356237306667
10
-141.33442169883674
20
-52.652287083363632
10
-141.33442169883676
20
-65.552287083363638
42
0.41421356237305251
10
-140.78442169883678
20
-66.102287083363635
10
-127.88442169883675
20
-66.102287083363635
42
0.41421356237307144
10
-127.33442169883675
20
-65.552287083363638
0
LWPOLYLINE
5
147
100
AcDbEntity
8
0
100
AcDbPolyline
90
8
70
1
43
0.0
10
-36.846921698836738
20
-71.702287083363601
42
0.41421356237309975
10
-37.396921698836742
20
-71.152287083363589
10
-50.296921698836748
20
-71.152287083363603
42
0.41421356237307611
10
-50.846921698836745
20
-71.702287083363601
10
-50.846921698836745
20
-84.60228708336362
42
0.4142135623730856
10
-50.296921698836748
20
-85.152287083363632
10
-37.396921698836756
20
-85.152287083363632
42
0.41421356237310214
10
-36.846921698836745
20
-84.602287083363606
0
LWPOLYLINE
5
148
100
AcDbEntity
8
0
100
AcDbPolyline
90
8
70
1
43
0.0
10
-32.084421698836735
20
-52.652287083363589
42
0.41421356237307377
10
-32.634421698836732
20
-52.102287083363585
10
-45.534421698836731
20
-52.102287083363592
42
0.41421356237306667
10
-46.084421698836728
20
-52.652287083363582
10
-46.084421698836735
20
-65.552287083363595
42
0.41421356237309037
10
-45.534421698836745
20
-66.102287083363592
10
-32.634421698836746
20
-66.102287083363592
42
0.4142135623730856
10
-32.084421698836749
20
-65.552287083363595
0
LWPOLYLINE
5
149
100
AcDbEntity
8
0
100
AcDbPolyline
90
8
70
1
43
0.0
10
-29.703171698836748
20
-109.80228708336362
42
0.41421356237310919
10
-30.253171698836749
20
-109.25228708336361
10
-45.534421698836724
20
-109.25228708336363
42
0.41421356237307144
10
-46.084421698836742
20
-109.80228708336362
10
-46.084421698836742
20
-122.70228708336361
42
0.41421356237310453
10
-45.534421698836745
20
-123.25228708336363
10
-30.253171698836741
20
-123.2522870833636
42
0.41421356237307144
10
-29.70317169883673
20
-122.7022870833636
0
LWPOLYLINE
5
150
100
AcDbEntity
8
0
100
AcDbPolyline
90
8
70
1
43
0.0
10
-69.896921698836735
20
-122.70228708336361
42
0.41421356237310453
10
-69.346921698836738
20
-123.25228708336363
10
-54.065671698836752
20
-123.2522870833636
42
0.41421356237309037
10
-53.515671698836769
20
-122.7022870833636
10
-53.515671698836734
20
-109.80228708336364
42
0.41421356237309975
10
-54.065671698836731
20
-109.25228708336363
10
-69.346921698836738
20
-109.25228708336364
42
0.41421356237306195
10
-69.896921698836721
20
-109.80228708336362
0
LWPOLYLINE
5
151
100
AcDbEntity
8
0
100
AcDbPolyline
90
8
70
1
43
0.0
10
-255.63442169883672
20
-65.552287083363694
42
0.41421356237313761
10
-255.08442169883671
20
-66.102287083363692
10
-242.18442169883673
20
-66.102287083363706
42
0.41421356237309503
10
-241.63442169883669
20
-65.552287083363694
10
-241.63442169883677
20
-52.652287083363689
42
0.41421356237309503
10
-242.18442169883679
20
-52.102287083363656
10
-255.08442169883676
20
-52.102287083363699
42
0.41421356237312812
10
-255.63442169883675
20
-52.652287083363689
0
LWPOLYLINE
5
152
100
AcDbEntity
8
0
100
AcDbPolyline
90
16
70
1
43
0.0
10
-283.80942169883684
20
-33.052287083363709
10
-251.55942169883673
20
-33.05228708336368
42
-0.41421356237309503
10
-251.00942169883677
20
-33.602287083363642
10
-251.0094216988368
20
-49.639287083363726
42
-0.41421356237301699
10
-251.50942169883677
20
-50.139287083363719
10
-259.38442169883689
20
-50.139287083363691
42
-0.41421356237309503
10
-259.6844216988369
20
-49.839287083363679
10
-259.6844216988369
20
-47.352287082006427
42
0.41421356237301699
10
-259.98442169883685
20
-47.052287082006458
10
-275.63442169883689
20
-47.052287082006444
42
0.41421356237308637
10
-275.9344216988369
20
-47.352287082006441
10
-275.93442169883696
20
-49.839287083363722
42
-0.41421356237309503
10
-276.23442169883697
20
-50.139287083363726
10
-283.8594216988368
20
-50.139287083363712
42
-0.41421356237309503
10
-284.3594216988368
20
-49.639287083363698
10
-284.3594216988368
20
-33.602287083363663
42
-0.41421356237308793
0
LWPOLYLINE
5
153
100
AcDbEntity
8
0
100
AcDbPolyline
90
8
70
1
43
0.0
10
-160.67192169883674
20
-90.752287083363655
42
0.41421356237310453
10
-161.22192169883675
20
-90.202287083363629
10
-174.12192169883667
20
-90.202287083363643
42
0.41421356237309503
10
-174.67192169883671
20
-90.752287083363683
10
-174.67192169883674
20
-103.65228708336367
42
0.41421356237313289
10
-174.12192169883673
20
-104.20228708336367
10
-161.22192169883681
20
-104.20228708336366
42
0.41421356237305718
10
-160.6719216988368
20
-103.65228708336366
0
LWPOLYLINE
5
154
100
AcDbEntity
8
0
100
AcDbPolyline
90
8
70
1
43
0.0
10
-155.62192169883676
20
-103.65228708336369
42
0.4142135623730856
10
-155.07192169883675
20
-104.20228708336367
10
-142.17192169883674
20
-104.20228708336367
42
0.41421356237310453
10
-141.62192169883673
20
-103.65228708336366
10
-141.62192169883673
20
-90.752287083363655
42
0.41421356237311396
10
-142.17192169883671
20
-90.202287083363672
10
-155.07192169883675
20
-90.202287083363672
42
0.41421356237307611
10
-155.62192169883676
20
-90.752287083363669
0
LWPOLYLINE
5
155
100
AcDbEntity
8
0
100
AcDbPolyline
90
8
70
1
43
0.0
10
-117.80942169883674
20
-33.60228708336362
42
0.41421356237307849
10
-118.35942169883674
20
-33.052287083363623
10
-131.25942169883675
20
-33.052287083363623
42
0.41421356237309503
10
-131.80942169883676
20
-33.602287083363635
10
-131.80942169883676
20
-46.502287083363626
42
0.4142135623730856
10
-131.25942169883677
20
-47.052287083363638
10
-118.35942169883677
20
-47.052287083363623
42
0.41421356237311868
10
-117.80942169883676
20
-46.502287083363612
0
LWPOLYLINE
5
156
100
AcDbEntity
8
0
100
AcDbPolyline
90
8
70
1
43
0.0
10
-146.38442169883672
20
-52.652287083363646
42
0.41421356237309975
10
-146.93442169883673
20
-52.102287083363656
10
-159.83442169883674
20
-52.102287083363649
42
0.41421356237302881
10
-160.38442169883672
20
-52.652287083363653
10
-160.38442169883672
20
-65.552287083363652
42
0.41421356237308082
10
-159.83442169883676
20
-66.102287083363663
10
-146.93442169883673
20
-66.102287083363635
42
0.41421356237307144
10
-146.38442169883672
20
-65.552287083363652
0
LWPOLYLINE
5
157
100
AcDbEntity
8
0
100
AcDbPolyline
90
8
70
1
43
0.0
10
-189.24692169883673
20
-71.702287083363672
42
0.41421356237313761
10
-189.79692169883674
20
-71.15228708336366
10
-202.69692169883669
20
-71.152287083363674
42
0.41421356237310919
10
-203.24692169883673
20
-71.702287083363672
10
-203.24692169883673
20
-84.602287083363677
42
0.41421356237311396
10
-202.69692169883672
20
-85.152287083363717
10
-189.79692169883677
20
-85.152287083363689
42
0.41421356237312346
10
-189.24692169883673
20
-84.602287083363677
0
LWPOLYLINE
5
158
100
AcDbEntity
8
0
100
AcDbPolyline
90
8
70
1
43
0.0
10
-174.95942169883674
20
-33.602287083363642
42
0.41421356237313289
10
-175.50942169883672
20
-33.052287083363645
10
-188.40942169883675
20
-33.052287083363652
42
0.41421356237313289
10
-188.95942169883676
20
-33.602287083363656
10
-188.95942169883679
20
-46.502287083363647
42
0.41421356237313289
10
-188.40942169883678
20
-47.052287083363638
10
-175.50942169883677
20
-47.052287083363638
42
0.41421356237313289
10
-174.95942169883676
20
-46.502287083363647
0
LWPOLYLINE
5
159
100
AcDbEntity
8
0
100
AcDbPolyline
90
8
70
1
43
0.0
10
-170.19692169883672
20
-71.702287083363657
42
0.41421356237313289
10
-170.74692169883673
20
-71.15228708336366
10
-183.64692169883668
20
-71.15228708336366
42
0.41421356237310919
10
-184.19692169883672
20
-71.702287083363657
10
-184.19692169883672
20
-84.602287083363706
42
0.41421356237313289
10
-183.64692169883671
20
-85.152287083363689
10
-170.74692169883676
20
-85.15228708336366
42
0.41421356237311396
10
-170.19692169883672
20
-84.602287083363663
0
LWPOLYLINE
5
160
100
AcDbEntity
8
0
100
AcDbPolyline
90
8
70
1
43
0.0
10
-217.53442169883672
20
-65.552287083363666
42
0.41421356237313761
10
-216.98442169883674
20
-66.102287083363677
10
-204.08442169883674
20
-66.102287083363677
42
0.4142135623730856
10
-203.5344216988367
20
-65.552287083363666
10
-203.53442169883678
20
-52.652287083363667
42
0.41421356237311396
10
-204.08442169883676
20
-52.102287083363635
10
-216.98442169883677
20
-52.10228708336367
42
0.41421356237312812
10
-217.53442169883675
20
-52.652287083363667
0
LWPOLYLINE
5
161
100
AcDbEntity
8
0
100
AcDbPolyline
90
8
70
1
43
0.0
10
-198.48442169883671
20
-65.552287083363666
42
0.41421356237313761
10
-197.93442169883673
20
-66.102287083363677
10
-185.03442169883672
20
-66.102287083363663
42
0.41421356237308082
10
-184.48442169883668
20
-65.552287083363666
10
-184.48442169883677
20
-52.652287083363653
42
0.41421356237311396
10
-185.03442169883675
20
-52.102287083363635
10
-197.93442169883676
20
-52.102287083363656
42
0.41421356237313761
10
-198.48442169883674
20
-52.652287083363667
0
LWPOLYLINE
5
162
100
AcDbEntity
8
0
100
AcDbPolyline
90
8
70
1
43
0.0
10
-279.49692169883713
20
-65.352287090459612
42
0.41421356237309503
10
-278.94692169883712
20
-65.902287090459609
10
-265.99692169883662
20
-65.902287090459453
42
0.41421356237309503
10
-265.44692169883672
20
-65.352287090459455
10
-265.4469216988366
20
-52.652287083363703
42
0.41421356237317075
10
-265.99692169883673
20
-52.102287083363692
10
-278.94692169883717
20
-52.102287083363706
42
0.41421356237309503
10
-279.49692169883713
20
-52.652287083363703
0
LWPOLYLINE
5
163
100
AcDbEntity
8
0
100
AcDbPolyline
90
8
70
1
43
0.0
10
-212.77192169883676
20
-103.65228708336372
42
0.41421356237313289
10
-212.22192169883675
20
-104.2022870833637
10
-199.3219216988368
20
-104.20228708336369
42
0.41421356237312346
10
-198.77192169883676
20
-103.65228708336366
10
-198.77192169883674
20
-90.752287083363669
42
0.41421356237312346
10
-199.32192169883675
20
-90.2022870833637
10
-212.2219216988367
20
-90.202287083363686
42
0.41421356237312346
10
-212.77192169883674
20
-90.752287083363697
0
LWPOLYLINE
5
164
100
AcDbEntity
8
0
100
AcDbPolyline
90
8
70
1
43
0.0
10
-122.57192169883675
20
-90.752287083363612
42
0.41421356237311396
10
-123.12192169883674
20
-90.202287083363615
10
-136.02192169883674
20
-90.202287083363629
42
0.41421356237309503
10
-136.57192169883677
20
-90.752287083363669
10
-136.57192169883675
20
-103.65228708336367
42
0.41421356237311396
10
-136.02192169883674
20
-104.20228708336361
10
-123.12192169883674
20
-104.20228708336366
42
0.41421356237309503
10
-122.57192169883673
20
-103.65228708336362
0
LWPOLYLINE
5
165
100
AcDbEntity
8
0
100
AcDbPolyline
90
8
70
1
43
0.0
10
-169.90942169883678
20
-46.50228708336364
42
0.41421356237313761
10
-169.35942169883677
20
-47.052287083363645
10
-156.45942169883676
20
-47.052287083363638
42
0.41421356237311396
10
-155.90942169883675
20
-46.50228708336364
10
-155.90942169883672
20
-33.602287083363635
42
0.41421356237309037
10
-156.45942169883674
20
-33.052287083363638
10
-169.35942169883674
20
-33.052287083363645
42
0.41421356237313522
10
-169.90942169883675
20
-33.602287083363649
0
LWPOLYLINE
5
166
100
AcDbEntity
8
0
100
AcDbPolyline
90
8
70
1
43
0.0
10
-165.43442169883676
20
-52.652287083363646
42
0.41421356237311396
10
-165.98442169883674
20
-52.102287083363606
10
-178.88442169883677
20
-52.102287083363663
42
0.41421356237312812
10
-179.43442169883679
20
-52.652287083363653
10
-179.43442169883673
20
-65.552287083363652
42
0.41421356237313761
10
-178.88442169883675
20
-66.102287083363635
10
-165.98442169883671
20
-66.102287083363649
42
0.41421356237313761
10
-165.43442169883673
20
-65.552287083363638
0
LWPOLYLINE
5
167
100
AcDbEntity
8
0
100
AcDbPolyline
90
8
70
1
43
0.0
10
-194.00942169883675
20
-33.602287083363649
42
0.41421356237313056
10
-194.55942169883673
20
-33.052287083363659
10
-207.45942169883674
20
-33.052287083363659
42
0.41421356237313289
10
-208.00942169883672
20
-33.602287083363663
10
-208.00942169883677
20
-46.502287083363655
42
0.41421356237313761
10
-207.45942169883676
20
-47.052287083363652
10
-194.55942169883679
20
-47.052287083363652
42
0.41421356237313289
10
-194.00942169883677
20
-46.502287083363669
0
CIRCLE
5
168
100
AcDbEntity
8
0
100
AcDbCircle
10
-39.084421696972839
20
-128.64984702681841
30
-5.2111093218343285e-14
40
1.0999999999999988
210
-1.1386739855195864e-32
220
-4.024558464266193e-16
230
1
0
CIRCLE
5
169
100
AcDbEntity
8
0
100
AcDbCircle
10
-39.084421699048328
20
-27.669173851852836
30
-1.1032841307212493e-14
40
1.0999999999999988
210
-2.0631203588255508e-32
220
-4.024558464266193e-16
230
1
0
LWPOLYLINE
5
170
100
AcDbEntity
8
0
100
AcDbPolyline
90
8
70
1
43
0.0
10
-3.5094216988367326
20
-33.602287083363564
42
0.41421356237308737
10
-4.0594216988367338
20
-33.052287083363566
10
-16.959421698836735
20
-33.052287083363566
42
0.4142135623730856
10
-17.509421698836739
20
-33.602287083363571
10
-17.509421698836732
20
-46.502287083363569
42
0.41421356237310569
10
-16.959421698836739
20
-47.052287083363559
10
-4.0594216988367373
20
-47.052287083363566
42
0.4142135623731048
10
-3.5094216988367388
20
-46.502287083363569
0
CIRCLE
5
171
100
AcDbEntity
8
0
100
AcDbCircle
10
-267.68442521604135
20
-128.64963460656807
30
-5.2111093218343285e-14
40
1.0999999999999945
210
-1.4468227766215335e-32
220
-4.0245584642661925e-16
230
1
0
LWPOLYLINE
5
172
100
AcDbEntity
8
0
100
AcDbPolyline
90
24
70
1
43
0.0
10
-249.91517169883673
20
-86.852287083363649
10
-256.70317169883737
20
-86.852287083363748
42
-0.41421356237309503
10
-257.30317169883739
20
-86.252287083363768
10
-257.30317169883739
20
-85.752287082006461
42
0.41421356237309503
10
-257.90317169883735
20
-85.152287082006467
10
-272.70317169883742
20
-85.152287082006453
42
0.41421356237309503
10
-273.30317169883745
20
-85.752287082006461
10
-273.30317169883733
20
-86.252287083363726
42
-0.41421356237308637
10
-273.90317169883735
20
-86.852287083363706
10
-280.66677169883621
20
-86.852287083363734
42
-0.41421356237310453
10
-281.21677169883623
20
-86.302287083363723
10
-281.21677169883645
20
-68.802287090459672
42
-0.41421356237310375
10
-280.61677169883643
20
-68.202287090459663
10
-274.04692169883674
20
-68.202287090459564
42
-0.41421356237309503
10
-273.44692169883677
20
-68.802287090459544
10
-273.44692169883677
20
-70.55228708200643
42
0.4142135623731254
10
-272.84692169883681
20
-71.15228708200641
10
-257.96517169883668
20
-71.152287083363703
42
0.41421356237312978
10
-257.36517169883672
20
-70.552287082006472
10
-257.36517169883666
20
-68.802287082006444
42
-0.41421356237310375
10
-256.76517169883675
20
-68.20228708200645
10
-249.96517169883671
20
-68.202287082006464
42
-0.41421356237309503
10
-249.36517169883672
20
-68.802287082006444
10
-249.36517169883678
20
-86.302287083363751
42
-0.4142135623730856
0
CIRCLE
5
173
100
AcDbEntity
8
0
100
AcDbCircle
10
-29.653171698836832
20
-72.152286092909634
30
-2.8796409701214998e-14
40
1.1000000000000003
210
-4.4847124359304345e-32
220
-4.163336342344337e-16
230
1
0
CIRCLE
5
174
100
AcDbEntity
8
0
100
AcDbCircle
10
-263.01567169883748
20
-91.202287092908975
30
-3.5457747848965937e-14
40
1.1000000000000003
210
-4.4847124359304345e-32
220
-4.163336342344337e-16
230
1
0
CIRCLE
5
175
100
AcDbEntity
8
0
100
AcDbCircle
10
-261.44692169883746
20
-52.802287092909125
30
-2.1024848528838902e-14
40
1.1000000000000003
210
-4.4847124359304345e-32
220
-4.163336342344337e-16
230
1
0
ENDSEC
0
SECTION
2
OBJECTS
0
DICTIONARY
5
C
100
AcDbDictionary
3
ACAD_GROUP
350
D
3
ACAD_MLINESTYLE
350
17
0
DICTIONARY
5
D
100
AcDbDictionary
0
DICTIONARY
5
1A
330
C
100
AcDbDictionary
0
DICTIONARY
5
17
100
AcDbDictionary
0
ENDSEC
0
EOF
