0
SECTION
2
HEADER
9
$INSUNITS
70
4
9
$ACADVER
1
AC1014
9
$HANDSEED
5
FFFF
0
ENDSEC
0
SECTION
2
TABLES
0
TABLE
2
VPORT
5
8
100
AcDbSymbolTable
0
ENDTAB
0
TABLE
2
LTYPE
5
5
100
AcDbSymbolTable
0
LTYPE
5
14
100
AcDbSymbolTableRecord
100
AcDbLinetypeTableRecord
2
BYBLOCK
70
0
0
LTYPE
5
15
100
AcDbSymbolTableRecord
100
AcDbLinetypeTableRecord
2
BYLAYER
70
0
0
LTYPE
5
16
100
AcDbSymbolTableRecord
100
AcDbLinetypeTableRecord
2
DASHED
70
0
3
Dashed __ __ __ __ __ __ __ __ __ __ __ __ __ _
72
65
73
2
40
0.75
49
0.5
74
0
49
-0.25
74
0
0
ENDTAB
0
TABLE
2
LAYER
5
2
100
AcDbSymbolTable
70
2
0
LAYER
5
50
100
AcDbSymbolTableRecord
100
AcDbLayerTableRecord
2
0
70
0
62
7
6
CONTINUOUS
0
ENDTAB
0
TABLE
2
STYLE
5
3
100
AcDbSymbolTable
70
1
0
STYLE
5
11
100
AcDbSymbolTableRecord
100
AcDbTextStyleTableRecord
2
STANDARD
70
0
0
ENDTAB
0
TABLE
2
VIEW
5
6
100
AcDbSymbolTable
70
0
0
ENDTAB
0
TABLE
2
UCS
5
7
100
AcDbSymbolTable
70
0
0
ENDTAB
0
TABLE
2
APPID
5
9
100
AcDbSymbolTable
70
2
0
APPID
5
12
100
AcDbSymbolTableRecord
100
AcDbRegAppTableRecord
2
ACAD
70
0
0
ENDTAB
0
TABLE
2
DIMSTYLE
5
A
100
AcDbSymbolTable
70
1
0
ENDTAB
0
TABLE
2
BLOCK_RECORD
5
1
100
AcDbSymbolTable
70
1
0
BLOCK_RECORD
5
1F
100
AcDbSymbolTableRecord
100
AcDbBlockTableRecord
2
*MODEL_SPACE
0
BLOCK_RECORD
5
1B
100
AcDbSymbolTableRecord
100
AcDbBlockTableRecord
2
*PAPER_SPACE
0
ENDTAB
0
ENDSEC
0
SECTION
2
BLOCKS
0
BLOCK
5
20
100
AcDbEntity
100
AcDbBlockBegin
2
*MODEL_SPACE
0
ENDBLK
5
21
100
AcDbEntity
100
AcDbBlockEnd
0
BLOCK
5
1C
100
AcDbEntity
100
AcDbBlockBegin
2
*PAPER_SPACE
0
ENDBLK
5
1D
100
AcDbEntity
100
AcDbBlockEnd
0
ENDSEC
0
SECTION
2
ENTITIES
0
LWPOLYLINE
5
100
100
AcDbEntity
8
0
100
AcDbPolyline
90
24
70
1
43
0.0
10
-280.61324095592636
20
-76.847300667910261
42
0.41421356237306384
10
-280.11324095592147
20
-76.347300667915192
10
-280.11324095589509
20
-73.679308964357162
10
-280.11324095583109
20
-67.17931066893857
42
-0.41421356237310547
10
-279.61324095582609
20
-66.679310668943501
10
-272.61324095582614
20
-66.67931066901248
42
-0.41421356237308982
10
-272.11324095583103
20
-67.179310669017426
10
-272.11324095592636
20
-76.847300659291605
10
-262.44524995851737
20
-76.847300659386889
42
-0.41421356237308982
10
-261.94524995852225
20
-77.347300659391834
10
-261.94524995859132
20
-84.347300659391848
42
-0.41421356237309503
10
-262.44524995859626
20
-84.847300659386917
10
-271.6132409560052
20
-84.847302676248006
42
0.41421356237303258
10
-272.11324095601015
20
-85.347300659291648
10
-272.11324095604533
20
-88.919310657982734
42
-0.41421356237310542
10
-272.61324095605028
20
-89.419310657977817
10
-279.61324095605022
20
-89.419310657908696
42
-0.4142135623730846
10
-280.11324095604533
20
-88.919310657903765
10
-280.11324095601015
20
-85.347300667915192
42
0.41421356237310542
10
-280.6132409560052
20
-84.847300667910275
10
-284.18524995863976
20
-84.847300667875061
42
-0.4142135623730846
10
-284.68524995863481
20
-84.34730066787013
10
-284.68524995856581
20
-77.34730066787013
42
-0.41421356237310542
10
-284.18524995856092
20
-76.847300667875061
0
LWPOLYLINE
5
101
100
AcDbEntity
8
0
100
AcDbPolyline
90
8
70
1
43
0.0
10
-37.225715952634616
20
-108.73931048871115
10
-37.225715952425233
20
-87.49931051337974
42
-0.41421356237310025
10
-36.725715952420295
20
-86.999310513384657
10
-29.725715952420259
20
-86.999310513453707
42
-0.41421356237310025
10
-29.22571595242519
20
-87.499310513458624
10
-29.225715952634587
20
-108.73931048878998
42
-0.41421356237309764
10
-29.725715952639518
20
-109.23931048878507
10
-36.725715952639476
20
-109.23931048871614
42
-0.41421356237309503
0
LWPOLYLINE
5
102
100
AcDbEntity
8
0
100
AcDbPolyline
90
34
70
1
43
0.0
10
-90.581499008896742
20
-125.05918134465307
42
0.41421328906712895
10
-89.581499942011945
20
-124.05918134466336
10
-89.581499941844271
20
-107.04930050918688
42
-0.41421356237309503
10
-88.581499941834423
20
-106.04930050919674
10
-77.787249941820747
20
-106.04930050930312
42
-0.41421356237309764
10
-76.787249941830595
20
-107.04930050931297
10
-76.78724994199824
20
-124.05916753990412
42
0.41421383567910869
10
-75.787249008883052
20
-125.05916753991356
10
-48.915063058514491
20
-125.05914246506848
10
-1.106507432812478
20
-125.05913444001078
42
0.41420454443249471
10
-0.85649993291755389
20
-124.80912963726873
10
-0.85650500028611765
20
-8.2463021283703419
42
0.4141977609484786
10
-1.1064990111761008
20
-7.9962996301543239
10
-303.40650749979915
20
-7.9962952983593896
42
0.4142215703401177
10
-303.65649949937119
20
-8.2462891333191255
10
-303.65651493226
20
-124.80928710976521
42
0.41421058546319994
10
-303.40649997473241
20
-125.05929960788129
10
-211.90830063290286
20
-125.05929455653551
10
-204.88149900922298
20
-125.0592879997201
42
0.41421328906709776
10
-203.88149994233817
20
-124.05928799973039
10
-203.88149994217045
20
-107.04930057606629
42
-0.41421356237308982
10
-202.88149994216064
20
-106.04930057607615
10
-196.8814999421607
20
-106.04930057613527
42
-0.41421356237310025
10
-195.88149994217051
20
-107.04930057614513
10
-195.88149994233817
20
-124.05927866855869
42
0.41421383567911391
10
-194.88149900922295
20
-125.05927866856808
10
-185.86324900916875
20
-125.05927025350201
42
0.41421328906709776
10
-184.86324994228394
20
-124.0592702535123
10
-184.86324994211623
20
-107.04930056539382
42
-0.41421356237308982
10
-183.86324994210639
20
-106.04930056540368
10
-177.86324994210645
20
-106.0493005654628
42
-0.41421356237310025
10
-176.86324994211628
20
-107.04930056547268
10
-176.86324994228391
20
-124.0592609223406
42
0.41421383567911391
10
-175.86324900916873
20
-125.05926092234999
0
CIRCLE
5
103
100
AcDbEntity
8
0
100
AcDbCircle
10
-300.21149993854516
20
-116.53430062110152
30
-5.5511151231257827e-15
40
0.85089999999999266
210
4.5397428505815675e-25
220
-4.1633363423764369e-17
230
1
0
CIRCLE
5
104
100
AcDbEntity
8
0
100
AcDbCircle
10
-290.05149993851626
20
-116.53430061539996
30
-5.5511151231257827e-15
40
0.85089999999999266
210
4.5397428505815675e-25
220
-4.1633363423764369e-17
230
1
0
CIRCLE
5
105
100
AcDbEntity
8
0
100
AcDbCircle
10
-281.16149993849081
20
-116.53430061041118
30
-5.5511151231257827e-15
40
0.85089999999999266
210
4.5397428505815675e-25
220
-4.1633363423764369e-17
230
1
0
CIRCLE
5
106
100
AcDbEntity
8
0
100
AcDbCircle
10
-271.0014999384619
20
-116.5343006047097
30
-5.5511151231257827e-15
40
0.85089999999999266
210
4.5397428505815675e-25
220
-4.1633363423764369e-17
230
1
0
CIRCLE
5
107
100
AcDbEntity
8
0
100
AcDbCircle
10
-262.11149993843645
20
-116.53430059972094
30
-5.5511151231257827e-15
40
0.85089999999999266
210
4.5397428505815675e-25
220
-4.1633363423764369e-17
230
1
0
CIRCLE
5
108
100
AcDbEntity
8
0
100
AcDbCircle
10
-251.95149993840755
20
-116.53430059401941
30
-5.5511151231257827e-15
40
0.85089999999999266
210
4.5397428505815675e-25
220
-4.1633363423764369e-17
230
1
0
CIRCLE
5
109
100
AcDbEntity
8
0
100
AcDbCircle
10
-231.15524993834813
20
-116.53430058234919
30
-5.5511151231257827e-15
40
0.85090000000000154
210
4.5397428505815776e-25
220
-4.163336342376379e-17
230
1
0
CIRCLE
5
110
100
AcDbEntity
8
0
100
AcDbCircle
10
-218.6139999383123
20
-116.53430057531139
30
-5.5511151231257827e-15
40
0.85090000000000154
210
4.5397428505815776e-25
220
-4.163336342376379e-17
230
1
0
CIRCLE
5
111
100
AcDbEntity
8
0
100
AcDbCircle
10
-207.34274993828021
20
-116.53430056898631
30
-5.5511151231257827e-15
40
0.85090000000000154
210
4.5397428505815776e-25
220
-4.163336342376379e-17
230
1
0
CIRCLE
5
112
100
AcDbEntity
8
0
100
AcDbCircle
10
-147.8114999381103
20
-116.53430053557915
30
-5.5511151231257827e-15
40
0.85090000000000043
210
4.5397428505815757e-25
220
-4.1633363423763863e-17
230
1
0
CIRCLE
5
113
100
AcDbEntity
8
0
100
AcDbCircle
10
-137.65149993808129
20
-116.53430052987764
30
-5.5511151231257827e-15
40
0.85090000000000154
210
4.5397428505815776e-25
220
-4.163336342376379e-17
230
1
0
CIRCLE
5
114
100
AcDbEntity
8
0
100
AcDbCircle
10
-135.90524993807631
20
-116.53430052889772
30
-5.5511151231257827e-15
40
0.85090000000000154
210
4.5397428505815776e-25
220
-4.163336342376379e-17
230
1
0
CIRCLE
5
115
100
AcDbEntity
8
0
100
AcDbCircle
10
-125.74524993804731
20
-116.53430052319621
30
-5.5511151231257827e-15
40
0.85090000000000154
210
4.5397428505815776e-25
220
-4.163336342376379e-17
230
1
0
CIRCLE
5
116
100
AcDbEntity
8
0
100
AcDbCircle
10
-66.848999937879185
20
-116.53430049014538
30
-5.5511151231257827e-15
40
0.85089999999999266
210
4.5397428505815675e-25
220
-4.1633363423764369e-17
230
1
0
CIRCLE
5
117
100
AcDbEntity
8
0
100
AcDbCircle
10
-54.30774993784339
20
-116.5343004831076
30
-5.5511151231257827e-15
40
0.85089999999999266
210
4.5397428505815675e-25
220
-4.1633363423764369e-17
230
1
0
CIRCLE
5
118
100
AcDbEntity
8
0
100
AcDbCircle
10
-43.036499937811222
20
-116.53430047678253
30
-5.5511151231257827e-15
40
0.85089999999999266
210
4.5397428505815675e-25
220
-4.1633363423764369e-17
230
1
0
CIRCLE
5
119
100
AcDbEntity
8
0
100
AcDbCircle
10
-30.495249937775412
20
-116.53430046974475
30
-5.5511151231257827e-15
40
0.85089999999999266
210
4.5397428505815675e-25
220
-4.1633363423764369e-17
230
1
0
CIRCLE
5
120
100
AcDbEntity
8
0
100
AcDbCircle
10
-19.223999937743244
20
-116.53430046341967
30
-5.5511151231257827e-15
40
0.85089999999999266
210
4.5397428505815675e-25
220
-4.1633363423764369e-17
230
1
0
CIRCLE
5
121
100
AcDbEntity
8
0
100
AcDbCircle
10
-6.6827499377074489
20
-116.53430045638189
30
-5.5511151231257827e-15
40
0.85089999999999266
210
4.5397428505815675e-25
220
-4.1633363423764369e-17
230
1
0
LWPOLYLINE
5
122
100
AcDbEntity
8
0
100
AcDbPolyline
90
2
70
1
43
0.0
10
-16.525245379467105
20
-98.27374438367417
42
1.4800600934783759
10
-16.52522051747053
20
-96.694866601808954
42
1.4800600934854327
0
CIRCLE
5
123
100
AcDbEntity
8
0
100
AcDbCircle
10
-26.367715948498926
20
-97.484310498264222
30
-4.9960036108132044e-15
40
0.85089999999999266
210
4.5397428505815675e-25
220
-4.1633363423764369e-17
230
1
0
CIRCLE
5
124
100
AcDbEntity
8
0
100
AcDbCircle
10
-28.113999948503931
20
-97.484300499244199
30
-4.9960036108132044e-15
40
0.85089999999999266
210
4.5397428505815675e-25
220
-4.1633363423764369e-17
230
1
0
CIRCLE
5
125
100
AcDbEntity
8
0
100
AcDbCircle
10
-38.273999948532918
20
-97.484300504945679
30
-4.9960036108132044e-15
40
0.85089999999999266
210
4.5397428505815675e-25
220
-4.1633363423764369e-17
230
1
0
CIRCLE
5
126
100
AcDbEntity
8
0
100
AcDbCircle
10
-47.163999948558299
20
-97.484300509934457
30
-4.9960036108132044e-15
40
0.85089999999999266
210
4.5397428505815675e-25
220
-4.1633363423764369e-17
230
1
0
CIRCLE
5
127
100
AcDbEntity
8
0
100
AcDbCircle
10
-57.323999948587307
20
-97.484300515635965
30
-4.9960036108132044e-15
40
0.85089999999999266
210
4.5397428505815675e-25
220
-4.1633363423764369e-17
230
1
0
CIRCLE
5
128
100
AcDbEntity
8
0
100
AcDbCircle
10
-66.213999948612681
20
-97.484300520624771
30
-4.9960036108132044e-15
40
0.85089999999999266
210
4.5397428505815675e-25
220
-4.1633363423764369e-17
230
1
0
CIRCLE
5
129
100
AcDbEntity
8
0
100
AcDbCircle
10
-76.373999948641682
20
-97.484300526326251
30
-4.9960036108132044e-15
40
0.85090000000000154
210
4.5397428505815776e-25
220
-4.163336342376379e-17
230
1
0
CIRCLE
5
130
100
AcDbEntity
8
0
100
AcDbCircle
10
-85.263999948667049
20
-97.484300531315057
30
-4.9960036108132044e-15
40
0.85090000000000154
210
4.5397428505815776e-25
220
-4.163336342376379e-17
230
1
0
CIRCLE
5
131
100
AcDbEntity
8
0
100
AcDbCircle
10
-95.42399994869605
20
-97.484300537016566
30
-4.9960036108132044e-15
40
0.85090000000000154
210
4.5397428505815776e-25
220
-4.163336342376379e-17
230
1
0
CIRCLE
5
132
100
AcDbEntity
8
0
100
AcDbCircle
10
-104.31399894872141
20
-97.484300542005343
30
-4.9960036108132044e-15
40
0.85090000000000154
210
4.5397428505815776e-25
220
-4.163336342376379e-17
230
1
0
CIRCLE
5
133
100
AcDbEntity
8
0
100
AcDbCircle
10
-114.47399894875042
20
-97.484300547706852
30
-4.9960036108132044e-15
40
0.85090000000000154
210
4.5397428505815776e-25
220
-4.163336342376379e-17
230
1
0
CIRCLE
5
134
100
AcDbEntity
8
0
100
AcDbCircle
10
-123.36400094877577
20
-97.484300552695643
30
-4.9960036108132044e-15
40
0.85090000000000154
210
4.5397428505815776e-25
220
-4.163336342376379e-17
230
1
0
CIRCLE
5
135
100
AcDbEntity
8
0
100
AcDbCircle
10
-133.52400094880477
20
-97.484300558397123
30
-4.9960036108132044e-15
40
0.85090000000000154
210
4.5397428505815776e-25
220
-4.163336342376379e-17
230
1
0
CIRCLE
5
136
100
AcDbEntity
8
0
100
AcDbCircle
10
-142.41399994883014
20
-97.484300563385943
30
-4.9960036108132044e-15
40
0.85090000000000043
210
4.5397428505815757e-25
220
-4.1633363423763863e-17
230
1
0
CIRCLE
5
137
100
AcDbEntity
8
0
100
AcDbCircle
10
-152.57399994885915
20
-97.484300569087438
30
-4.9960036108132044e-15
40
0.85090000000000043
210
4.5397428505815757e-25
220
-4.1633363423763863e-17
230
1
0
CIRCLE
5
138
100
AcDbEntity
8
0
100
AcDbCircle
10
-161.46399994888452
20
-97.484300574076201
30
-4.9960036108132044e-15
40
0.85090000000000154
210
4.5397428505815776e-25
220
-4.163336342376379e-17
230
1
0
CIRCLE
5
139
100
AcDbEntity
8
0
100
AcDbCircle
10
-171.62399994891354
20
-97.484300579777724
30
-4.9960036108132044e-15
40
0.85090000000000154
210
4.5397428505815776e-25
220
-4.163336342376379e-17
230
1
0
CIRCLE
5
140
100
AcDbEntity
8
0
100
AcDbCircle
10
-180.51399994893893
20
-97.484300584766515
30
-4.9960036108132044e-15
40
0.85090000000000154
210
4.5397428505815776e-25
220
-4.163336342376379e-17
230
1
0
CIRCLE
5
141
100
AcDbEntity
8
0
100
AcDbCircle
10
-190.67399994896792
20
-97.484300590468024
30
-4.9960036108132044e-15
40
0.85090000000000154
210
4.5397428505815776e-25
220
-4.163336342376379e-17
230
1
0
CIRCLE
5
142
100
AcDbEntity
8
0
100
AcDbCircle
10
-199.56399894899329
20
-97.484300595456816
30
-4.9960036108132044e-15
40
0.85090000000000154
210
4.5397428505815776e-25
220
-4.163336342376379e-17
230
1
0
CIRCLE
5
143
100
AcDbEntity
8
0
100
AcDbCircle
10
-209.72399894902227
20
-97.484300601158338
30
-4.9960036108132044e-15
40
0.85090000000000154
210
4.5397428505815776e-25
220
-4.163336342376379e-17
230
1
0
CIRCLE
5
144
100
AcDbEntity
8
0
100
AcDbCircle
10
-218.61399994904761
20
-97.484301606147113
30
-4.9960036108132044e-15
40
0.85090000000000154
210
4.5397428505815776e-25
220
-4.163336342376379e-17
230
1
0
CIRCLE
5
145
100
AcDbEntity
8
0
100
AcDbCircle
10
-228.77399994907663
20
-97.48430161184865
30
-4.9960036108132044e-15
40
0.85090000000000154
210
4.5397428505815776e-25
220
-4.163336342376379e-17
230
1
0
CIRCLE
5
146
100
AcDbEntity
8
0
100
AcDbCircle
10
-244.80774994912238
20
-97.484300620846255
30
-4.9960036108132044e-15
40
0.85089999999999266
210
4.5397428505815675e-25
220
-4.1633363423764369e-17
230
1
0
CIRCLE
5
147
100
AcDbEntity
8
0
100
AcDbCircle
10
-254.96774994915143
20
-97.484300626547764
30
-4.9960036108132044e-15
40
0.85089999999999266
210
4.5397428505815675e-25
220
-4.1633363423764369e-17
230
1
0
CIRCLE
5
148
100
AcDbEntity
8
0
100
AcDbCircle
10
-271.00149994919718
20
-97.484300635545395
30
-4.9960036108132044e-15
40
0.85089999999999266
210
4.5397428505815675e-25
220
-4.1633363423764369e-17
230
1
0
CIRCLE
5
149
100
AcDbEntity
8
0
100
AcDbCircle
10
-281.16149994922614
20
-97.484300641246932
30
-4.9960036108132044e-15
40
0.85089999999999266
210
4.5397428505815675e-25
220
-4.1633363423764369e-17
230
1
0
CIRCLE
5
150
100
AcDbEntity
8
0
100
AcDbCircle
10
-300.21149994928055
20
-97.484300651937218
30
-4.9960036108132044e-15
40
0.85089999999999266
210
4.5397428505815675e-25
220
-4.1633363423764369e-17
230
1
0
CIRCLE
5
151
100
AcDbEntity
8
0
100
AcDbCircle
10
-259.09524095989855
20
-78.434310659699676
30
-3.8857805861880479e-15
40
0.85089999999999266
210
4.5397428505815675e-25
220
-4.1633363423764369e-17
230
1
0
CIRCLE
5
152
100
AcDbEntity
8
0
100
AcDbCircle
10
-247.1889999598645
20
-78.434300653018283
30
-3.8857805861880479e-15
40
0.85089999999999266
210
4.5397428505815675e-25
220
-4.1633363423764369e-17
230
1
0
CIRCLE
5
153
100
AcDbEntity
8
0
100
AcDbCircle
10
-257.34899995989349
20
-78.43430065871982
30
-3.8857805861880479e-15
40
0.85089999999999266
210
4.5397428505815675e-25
220
-4.1633363423764369e-17
230
1
0
CIRCLE
5
154
100
AcDbEntity
8
0
100
AcDbCircle
10
-238.29899995983914
20
-78.43429964802948
30
-3.8857805861880479e-15
40
0.85089999999999266
210
4.5397428505815675e-25
220
-4.1633363423764369e-17
230
1
0
CIRCLE
5
155
100
AcDbEntity
8
0
100
AcDbCircle
10
-228.13899995981018
20
-78.434299642327986
30
-3.8857805861880479e-15
40
0.85090000000000154
210
4.5397428505815776e-25
220
-4.163336342376379e-17
230
1
0
CIRCLE
5
156
100
AcDbEntity
8
0
100
AcDbCircle
10
-219.24899995978478
20
-78.434299637339194
30
-3.8857805861880479e-15
40
0.85090000000000154
210
4.5397428505815776e-25
220
-4.163336342376379e-17
230
1
0
CIRCLE
5
157
100
AcDbEntity
8
0
100
AcDbCircle
10
-209.08899995975582
20
-78.434299631637685
30
-3.8857805861880479e-15
40
0.85090000000000154
210
4.5397428505815776e-25
220
-4.163336342376379e-17
230
1
0
CIRCLE
5
158
100
AcDbEntity
8
0
100
AcDbCircle
10
-200.19899995973037
20
-78.434300626648877
30
-3.8857805861880479e-15
40
0.85090000000000154
210
4.5397428505815776e-25
220
-4.163336342376379e-17
230
1
0
CIRCLE
5
159
100
AcDbEntity
8
0
100
AcDbCircle
10
-190.03899995970141
20
-78.434300620947383
30
-3.8857805861880479e-15
40
0.85090000000000154
210
4.5397428505815776e-25
220
-4.163336342376379e-17
230
1
0
CIRCLE
5
160
100
AcDbEntity
8
0
100
AcDbCircle
10
-181.14899995967602
20
-78.434300615958605
30
-3.8857805861880479e-15
40
0.85090000000000154
210
4.5397428505815776e-25
220
-4.163336342376379e-17
230
1
0
CIRCLE
5
161
100
AcDbEntity
8
0
100
AcDbCircle
10
-170.98899995964703
20
-78.434300610257111
30
-3.8857805861880479e-15
40
0.85090000000000154
210
4.5397428505815776e-25
220
-4.163336342376379e-17
230
1
0
CIRCLE
5
162
100
AcDbEntity
8
0
100
AcDbCircle
10
-162.09899995962164
20
-78.434300605268305
30
-3.8857805861880479e-15
40
0.85090000000000154
210
4.5397428505815776e-25
220
-4.163336342376379e-17
230
1
0
CIRCLE
5
163
100
AcDbEntity
8
0
100
AcDbCircle
10
-151.93899995959268
20
-78.434300599566811
30
-3.8857805861880479e-15
40
0.85090000000000043
210
4.5397428505815757e-25
220
-4.1633363423763863e-17
230
1
0
CIRCLE
5
164
100
AcDbEntity
8
0
100
AcDbCircle
10
-143.04899995956728
20
-78.434300594578019
30
-3.8857805861880479e-15
40
0.85090000000000043
210
4.5397428505815757e-25
220
-4.1633363423763863e-17
230
1
0
CIRCLE
5
165
100
AcDbEntity
8
0
100
AcDbCircle
10
-132.8889999595383
20
-78.434300588876539
30
-3.8857805861880479e-15
40
0.85090000000000154
210
4.5397428505815776e-25
220
-4.163336342376379e-17
230
1
0
CIRCLE
5
166
100
AcDbEntity
8
0
100
AcDbCircle
10
-123.99899995951294
20
-78.434299583887721
30
-3.8857805861880479e-15
40
0.85090000000000154
210
4.5397428505815776e-25
220
-4.163336342376379e-17
230
1
0
CIRCLE
5
167
100
AcDbEntity
8
0
100
AcDbCircle
10
-113.83899995948391
20
-78.434299578186227
30
-3.8857805861880479e-15
40
0.85090000000000154
210
4.5397428505815776e-25
220
-4.163336342376379e-17
230
1
0
CIRCLE
5
168
100
AcDbEntity
8
0
100
AcDbCircle
10
-104.94899895945852
20
-78.434300573197433
30
-3.8857805861880479e-15
40
0.85090000000000154
210
4.5397428505815776e-25
220
-4.163336342376379e-17
230
1
0
CIRCLE
5
169
100
AcDbEntity
8
0
100
AcDbCircle
10
-94.788998959429534
20
-78.434300567495953
30
-3.8857805861880479e-15
40
0.85090000000000154
210
4.5397428505815776e-25
220
-4.163336342376379e-17
230
1
0
CIRCLE
5
170
100
AcDbEntity
8
0
100
AcDbCircle
10
-85.898999959404165
20
-78.434300562507161
30
-3.8857805861880479e-15
40
0.85090000000000154
210
4.5397428505815776e-25
220
-4.163336342376379e-17
230
1
0
CIRCLE
5
171
100
AcDbEntity
8
0
100
AcDbCircle
10
-75.738999959375178
20
-78.434300556805681
30
-3.8857805861880479e-15
40
0.85090000000000154
210
4.5397428505815776e-25
220
-4.163336342376379e-17
230
1
0
CIRCLE
5
172
100
AcDbEntity
8
0
100
AcDbCircle
10
-66.848999959349797
20
-78.434300551816861
30
-3.8857805861880479e-15
40
0.85089999999999266
210
4.5397428505815675e-25
220
-4.1633363423764369e-17
230
1
0
CIRCLE
5
173
100
AcDbEntity
8
0
100
AcDbCircle
10
-56.688999959320803
20
-78.434300546115352
30
-3.8857805861880479e-15
40
0.85089999999999266
210
4.5397428505815675e-25
220
-4.1633363423764369e-17
230
1
0
CIRCLE
5
174
100
AcDbEntity
8
0
100
AcDbCircle
10
-47.798999959295408
20
-78.434300541126561
30
-3.8857805861880479e-15
40
0.85089999999999266
210
4.5397428505815675e-25
220
-4.1633363423764369e-17
230
1
0
CIRCLE
5
175
100
AcDbEntity
8
0
100
AcDbCircle
10
-37.638999959266421
20
-78.434300535425081
30
-3.8857805861880479e-15
40
0.85089999999999266
210
4.5397428505815675e-25
220
-4.1633363423764369e-17
230
1
0
CIRCLE
5
176
100
AcDbEntity
8
0
100
AcDbCircle
10
-21.605249959220664
20
-78.434299526427395
30
-3.8857805861880479e-15
40
0.85089999999999266
210
4.5397428505815675e-25
220
-4.1633363423764369e-17
230
1
0
CIRCLE
5
177
100
AcDbEntity
8
0
100
AcDbCircle
10
-6.6827499591780617
20
-78.434299518053336
30
-3.8857805861880479e-15
40
0.85089999999999266
210
4.5397428505815675e-25
220
-4.1633363423764369e-17
230
1
0
CIRCLE
5
178
100
AcDbEntity
8
0
100
AcDbCircle
10
-9.0639999699201539
20
-59.384300550225369
30
-3.3306690738754696e-15
40
0.85089999999999266
210
4.5397428505815675e-25
220
-4.1633363423764369e-17
230
1
0
CIRCLE
5
179
100
AcDbEntity
8
0
100
AcDbCircle
10
-19.223999969949162
20
-59.384300555926856
30
-3.3306690738754696e-15
40
0.85089999999999266
210
4.5397428505815675e-25
220
-4.1633363423764369e-17
230
1
0
CIRCLE
5
180
100
AcDbEntity
8
0
100
AcDbCircle
10
-32.876499969988132
20
-59.384300563588226
30
-3.3306690738754696e-15
40
0.85089999999999266
210
4.5397428505815675e-25
220
-4.1633363423764369e-17
230
1
0
CIRCLE
5
181
100
AcDbEntity
8
0
100
AcDbCircle
10
-43.03649997001714
20
-59.384300569289735
30
-3.3306690738754696e-15
40
0.85089999999999266
210
4.5397428505815675e-25
220
-4.1633363423764369e-17
230
1
0
CIRCLE
5
182
100
AcDbEntity
8
0
100
AcDbCircle
10
-51.926499970042499
20
-59.384300574278519
30
-3.3306690738754696e-15
40
0.85089999999999266
210
4.5397428505815675e-25
220
-4.1633363423764369e-17
230
1
0
CIRCLE
5
183
100
AcDbEntity
8
0
100
AcDbCircle
10
-62.086499970071507
20
-59.384300579980014
30
-3.3306690738754696e-15
40
0.85089999999999266
210
4.5397428505815675e-25
220
-4.1633363423764369e-17
230
1
0
CIRCLE
5
184
100
AcDbEntity
8
0
100
AcDbCircle
10
-70.976499970096867
20
-59.384300584968827
30
-3.3306690738754696e-15
40
0.85089999999999266
210
4.5397428505815675e-25
220
-4.1633363423764369e-17
230
1
0
CIRCLE
5
185
100
AcDbEntity
8
0
100
AcDbCircle
10
-81.13649997012584
20
-59.384300590670335
30
-3.3306690738754696e-15
40
0.85090000000000154
210
4.5397428505815776e-25
220
-4.163336342376379e-17
230
1
0
CIRCLE
5
186
100
AcDbEntity
8
0
100
AcDbCircle
10
-90.026499970151264
20
-59.384300595659106
30
-3.3306690738754696e-15
40
0.85090000000000154
210
4.5397428505815776e-25
220
-4.163336342376379e-17
230
1
0
CIRCLE
5
187
100
AcDbEntity
8
0
100
AcDbCircle
10
-100.18649997018024
20
-59.3843006013606
30
-3.3306690738754696e-15
40
0.85090000000000154
210
4.5397428505815776e-25
220
-4.163336342376379e-17
230
1
0
CIRCLE
5
188
100
AcDbEntity
8
0
100
AcDbCircle
10
-109.07649997020559
20
-59.384300606349399
30
-3.3306690738754696e-15
40
0.85090000000000154
210
4.5397428505815776e-25
220
-4.163336342376379e-17
230
1
0
CIRCLE
5
189
100
AcDbEntity
8
0
100
AcDbCircle
10
-119.23649997023462
20
-59.384300612050886
30
-3.3306690738754696e-15
40
0.85090000000000154
210
4.5397428505815776e-25
220
-4.163336342376379e-17
230
1
0
CIRCLE
5
190
100
AcDbEntity
8
0
100
AcDbCircle
10
-128.12649997026
20
-59.384300617039685
30
-3.3306690738754696e-15
40
0.85090000000000154
210
4.5397428505815776e-25
220
-4.163336342376379e-17
230
1
0
CIRCLE
5
191
100
AcDbEntity
8
0
100
AcDbCircle
10
-138.28649997028899
20
-59.384300622741208
30
-3.3306690738754696e-15
40
0.85090000000000154
210
4.5397428505815776e-25
220
-4.163336342376379e-17
230
1
0
CIRCLE
5
192
100
AcDbEntity
8
0
100
AcDbCircle
10
-147.17649997031435
20
-59.384300627729999
30
-3.3306690738754696e-15
40
0.85090000000000043
210
4.5397428505815757e-25
220
-4.1633363423763863e-17
230
1
0
CIRCLE
5
193
100
AcDbEntity
8
0
100
AcDbCircle
10
-157.33649997034337
20
-59.384300633431486
30
-3.3306690738754696e-15
40
0.85090000000000043
210
4.5397428505815757e-25
220
-4.1633363423763863e-17
230
1
0
CIRCLE
5
194
100
AcDbEntity
8
0
100
AcDbCircle
10
-166.22649997036874
20
-59.384300638420271
30
-3.3306690738754696e-15
40
0.85090000000000154
210
4.5397428505815776e-25
220
-4.163336342376379e-17
230
1
0
CIRCLE
5
195
100
AcDbEntity
8
0
100
AcDbCircle
10
-176.38649997039775
20
-59.384300644121765
30
-3.3306690738754696e-15
40
0.85090000000000154
210
4.5397428505815776e-25
220
-4.163336342376379e-17
230
1
0
CIRCLE
5
196
100
AcDbEntity
8
0
100
AcDbCircle
10
-185.27649997042312
20
-59.384300649110585
30
-3.3306690738754696e-15
40
0.85090000000000154
210
4.5397428505815776e-25
220
-4.163336342376379e-17
230
1
0
CIRCLE
5
197
100
AcDbEntity
8
0
100
AcDbCircle
10
-195.4364999704521
20
-59.384300654812066
30
-3.3306690738754696e-15
40
0.85090000000000154
210
4.5397428505815776e-25
220
-4.163336342376379e-17
230
1
0
CIRCLE
5
198
100
AcDbEntity
8
0
100
AcDbCircle
10
-204.32649997047747
20
-59.384300659800864
30
-3.3306690738754696e-15
40
0.85090000000000154
210
4.5397428505815776e-25
220
-4.163336342376379e-17
230
1
0
CIRCLE
5
199
100
AcDbEntity
8
0
100
AcDbCircle
10
-214.48649997050649
20
-59.38430066550238
30
-3.3306690738754696e-15
40
0.85090000000000154
210
4.5397428505815776e-25
220
-4.163336342376379e-17
230
1
0
CIRCLE
5
200
100
AcDbEntity
8
0
100
AcDbCircle
10
-223.37649997053188
20
-59.384300670491129
30
-3.3306690738754696e-15
40
0.85090000000000154
210
4.5397428505815776e-25
220
-4.163336342376379e-17
230
1
0
CIRCLE
5
201
100
AcDbEntity
8
0
100
AcDbCircle
10
-233.53649997056081
20
-59.384300676192638
30
-3.3306690738754696e-15
40
0.85089999999999266
210
4.5397428505815675e-25
220
-4.1633363423764369e-17
230
1
0
CIRCLE
5
202
100
AcDbEntity
8
0
100
AcDbCircle
10
-242.42649997058621
20
-59.384300681181472
30
-3.3306690738754696e-15
40
0.85089999999999266
210
4.5397428505815675e-25
220
-4.1633363423764369e-17
230
1
0
CIRCLE
5
203
100
AcDbEntity
8
0
100
AcDbCircle
10
-252.58649997061519
20
-59.384300686882916
30
-3.3306690738754696e-15
40
0.85089999999999266
210
4.5397428505815675e-25
220
-4.1633363423764369e-17
230
1
0
CIRCLE
5
204
100
AcDbEntity
8
0
100
AcDbCircle
10
-290.05149997072226
20
-59.384300707907173
30
-3.3306690738754696e-15
40
0.85089999999999266
210
4.5397428505815675e-25
220
-4.1633363423764369e-17
230
1
0
CIRCLE
5
205
100
AcDbEntity
8
0
100
AcDbCircle
10
-300.21149997075111
20
-59.384300713608695
30
-3.3306690738754696e-15
40
0.85089999999999266
210
4.5397428505815675e-25
220
-4.1633363423764369e-17
230
1
0
CIRCLE
5
206
100
AcDbEntity
8
0
100
AcDbCircle
10
-300.21149998148638
20
-40.33430074444442
30
-2.2204460492503131e-15
40
0.85089999999999266
210
4.5397428505815675e-25
220
-4.1633363423764369e-17
230
1
0
CIRCLE
5
207
100
AcDbEntity
8
0
100
AcDbCircle
10
-290.05149998145748
20
-40.334300738742918
30
-2.2204460492503131e-15
40
0.85089999999999266
210
4.5397428505815675e-25
220
-4.1633363423764369e-17
230
1
0
LWPOLYLINE
5
208
100
AcDbEntity
8
0
100
AcDbPolyline
90
2
70
1
43
0.0
10
-271.31900841425488
20
-39.544857989139501
42
1.4800156373843871
10
-271.31898354847385
20
-41.123753467318892
42
1.4800156372465241
0
LWPOLYLINE
5
209
100
AcDbEntity
8
0
100
AcDbPolyline
90
2
70
1
43
0.0
10
-261.79398254973836
20
-39.544861603396896
42
1.480033823703665
10
-261.79400741293676
20
-41.123749842380811
42
1.4800338235671595
0
CIRCLE
5
210
100
AcDbEntity
8
0
100
AcDbCircle
10
-243.06149998132329
20
-40.334300712373548
30
-2.2204460492503131e-15
40
0.85089999999999266
210
4.5397428505815675e-25
220
-4.1633363423764369e-17
230
1
0
CIRCLE
5
211
100
AcDbEntity
8
0
100
AcDbCircle
10
-232.90149998129434
20
-40.334300706672039
30
-2.2204460492503131e-15
40
0.85089999999999266
210
4.5397428505815675e-25
220
-4.1633363423764369e-17
230
1
0
CIRCLE
5
212
100
AcDbEntity
8
0
100
AcDbCircle
10
-224.01149998126894
20
-40.334300701683254
30
-2.2204460492503131e-15
40
0.85090000000000154
210
4.5397428505815776e-25
220
-4.163336342376379e-17
230
1
0
CIRCLE
5
213
100
AcDbEntity
8
0
100
AcDbCircle
10
-213.85149998123995
20
-40.334300695981753
30
-2.2204460492503131e-15
40
0.85090000000000154
210
4.5397428505815776e-25
220
-4.163336342376379e-17
230
1
0
CIRCLE
5
214
100
AcDbEntity
8
0
100
AcDbCircle
10
-204.96149998121456
20
-40.334300690992968
30
-2.2204460492503131e-15
40
0.85090000000000154
210
4.5397428505815776e-25
220
-4.163336342376379e-17
230
1
0
CIRCLE
5
215
100
AcDbEntity
8
0
100
AcDbCircle
10
-194.80149998118551
20
-40.33430068529146
30
-2.2204460492503131e-15
40
0.85090000000000154
210
4.5397428505815776e-25
220
-4.163336342376379e-17
230
1
0
CIRCLE
5
216
100
AcDbEntity
8
0
100
AcDbCircle
10
-185.9115009811602
20
-40.334300680302668
30
-2.2204460492503131e-15
40
0.85090000000000154
210
4.5397428505815776e-25
220
-4.163336342376379e-17
230
1
0
CIRCLE
5
217
100
AcDbEntity
8
0
100
AcDbCircle
10
-175.75150098113119
20
-40.334300674601174
30
-2.2204460492503131e-15
40
0.85090000000000154
210
4.5397428505815776e-25
220
-4.163336342376379e-17
230
1
0
CIRCLE
5
218
100
AcDbEntity
8
0
100
AcDbCircle
10
-166.86149898110583
20
-40.334300669612361
30
-2.2204460492503131e-15
40
0.85090000000000154
210
4.5397428505815776e-25
220
-4.163336342376379e-17
230
1
0
CIRCLE
5
219
100
AcDbEntity
8
0
100
AcDbCircle
10
-156.70149898107687
20
-40.334300663910874
30
-2.2204460492503131e-15
40
0.85090000000000043
210
4.5397428505815757e-25
220
-4.1633363423763863e-17
230
1
0
CIRCLE
5
220
100
AcDbEntity
8
0
100
AcDbCircle
10
-147.81149998105153
20
-40.334300658922075
30
-2.2204460492503131e-15
40
0.85090000000000043
210
4.5397428505815757e-25
220
-4.1633363423763863e-17
230
1
0
CIRCLE
5
221
100
AcDbEntity
8
0
100
AcDbCircle
10
-137.65149998102254
20
-40.334300653220588
30
-2.2204460492503131e-15
40
0.85090000000000154
210
4.5397428505815776e-25
220
-4.163336342376379e-17
230
1
0
CIRCLE
5
222
100
AcDbEntity
8
0
100
AcDbCircle
10
-128.76149998099714
20
-40.334300648231775
30
-2.2204460492503131e-15
40
0.85090000000000154
210
4.5397428505815776e-25
220
-4.163336342376379e-17
230
1
0
CIRCLE
5
223
100
AcDbEntity
8
0
100
AcDbCircle
10
-118.60149998096813
20
-40.334300642530295
30
-2.2204460492503131e-15
40
0.85090000000000154
210
4.5397428505815776e-25
220
-4.163336342376379e-17
230
1
0
CIRCLE
5
224
100
AcDbEntity
8
0
100
AcDbCircle
10
-109.71149998094276
20
-40.334300637541496
30
-2.2204460492503131e-15
40
0.85090000000000154
210
4.5397428505815776e-25
220
-4.163336342376379e-17
230
1
0
CIRCLE
5
225
100
AcDbEntity
8
0
100
AcDbCircle
10
-99.551499980913746
20
-40.334300631839994
30
-2.2204460492503131e-15
40
0.85090000000000154
210
4.5397428505815776e-25
220
-4.163336342376379e-17
230
1
0
CIRCLE
5
226
100
AcDbEntity
8
0
100
AcDbCircle
10
-90.661499980888351
20
-40.334300626851196
30
-2.2204460492503131e-15
40
0.85090000000000154
210
4.5397428505815776e-25
220
-4.163336342376379e-17
230
1
0
CIRCLE
5
227
100
AcDbEntity
8
0
100
AcDbCircle
10
-80.501499980859364
20
-40.334300621149708
30
-2.2204460492503131e-15
40
0.85090000000000154
210
4.5397428505815776e-25
220
-4.163336342376379e-17
230
1
0
CIRCLE
5
228
100
AcDbEntity
8
0
100
AcDbCircle
10
-71.611500980834009
20
-40.334300616160903
30
-2.2204460492503131e-15
40
0.85090000000000154
210
4.5397428505815776e-25
220
-4.163336342376379e-17
230
1
0
CIRCLE
5
229
100
AcDbEntity
8
0
100
AcDbCircle
10
-61.451500980804987
20
-40.334300610459415
30
-2.2204460492503131e-15
40
0.85089999999999266
210
4.5397428505815675e-25
220
-4.1633363423764369e-17
230
1
0
CIRCLE
5
230
100
AcDbEntity
8
0
100
AcDbCircle
10
-52.561498980779639
20
-40.334300605470617
30
-2.2204460492503131e-15
40
0.85089999999999266
210
4.5397428505815675e-25
220
-4.1633363423764369e-17
230
1
0
CIRCLE
5
231
100
AcDbEntity
8
0
100
AcDbCircle
10
-42.401498980750631
20
-40.334300599769115
30
-2.2204460492503131e-15
40
0.85089999999999266
210
4.5397428505815675e-25
220
-4.1633363423764369e-17
230
1
0
CIRCLE
5
232
100
AcDbEntity
8
0
100
AcDbCircle
10
-33.511499980725247
20
-40.334300594780302
30
-2.2204460492503131e-15
40
0.85089999999999266
210
4.5397428505815675e-25
220
-4.1633363423764369e-17
230
1
0
CIRCLE
5
233
100
AcDbEntity
8
0
100
AcDbCircle
10
-23.351499980696254
20
-40.334300589078836
30
-2.2204460492503131e-15
40
0.85089999999999266
210
4.5397428505815675e-25
220
-4.1633363423764369e-17
230
1
0
CIRCLE
5
234
100
AcDbEntity
8
0
100
AcDbCircle
10
-14.461499980670876
20
-40.33430058409003
30
-2.2204460492503131e-15
40
0.85089999999999266
210
4.5397428505815675e-25
220
-4.1633363423764369e-17
230
1
0
CIRCLE
5
235
100
AcDbEntity
8
0
100
AcDbCircle
10
-4.3014999806418679
20
-40.334300578388529
30
-2.2204460492503131e-15
40
0.85089999999999266
210
4.5397428505815675e-25
220
-4.1633363423764369e-17
230
1
0
CIRCLE
5
236
100
AcDbEntity
8
0
100
AcDbCircle
10
-4.3014999940610048
20
-16.521800616933213
30
-1.6653345369377348e-15
40
0.85089999999999266
210
4.5397428505815675e-25
220
-4.1633363423764369e-17
230
1
0
CIRCLE
5
237
100
AcDbEntity
8
0
100
AcDbCircle
10
-14.461499994090012
20
-16.521800622634711
30
-1.6653345369377348e-15
40
0.85089999999999266
210
4.5397428505815675e-25
220
-4.1633363423764369e-17
230
1
0
CIRCLE
5
238
100
AcDbEntity
8
0
100
AcDbCircle
10
-32.876499994142577
20
-16.521800632968656
30
-1.6653345369377348e-15
40
0.85089999999999266
210
4.5397428505815675e-25
220
-4.1633363423764369e-17
230
1
0
CIRCLE
5
239
100
AcDbEntity
8
0
100
AcDbCircle
10
-43.036499994171564
20
-16.52180063867014
30
-1.6653345369377348e-15
40
0.85089999999999266
210
4.5397428505815675e-25
220
-4.1633363423764369e-17
230
1
0
CIRCLE
5
240
100
AcDbEntity
8
0
100
AcDbCircle
10
-51.926499994196959
20
-16.521800643658942
30
-1.6653345369377348e-15
40
0.85089999999999266
210
4.5397428505815675e-25
220
-4.1633363423764369e-17
230
1
0
CIRCLE
5
241
100
AcDbEntity
8
0
100
AcDbCircle
10
-62.086499994225932
20
-16.521800649360443
30
-1.6653345369377348e-15
40
0.85089999999999266
210
4.5397428505815675e-25
220
-4.1633363423764369e-17
230
1
0
CIRCLE
5
242
100
AcDbEntity
8
0
100
AcDbCircle
10
-70.976499994251327
20
-16.521800654349242
30
-1.6653345369377348e-15
40
0.85089999999999266
210
4.5397428505815675e-25
220
-4.1633363423764369e-17
230
1
0
CIRCLE
5
243
100
AcDbEntity
8
0
100
AcDbCircle
10
-81.136499994280314
20
-16.521800660050722
30
-1.6653345369377348e-15
40
0.85090000000000154
210
4.5397428505815776e-25
220
-4.163336342376379e-17
230
1
0
CIRCLE
5
244
100
AcDbEntity
8
0
100
AcDbCircle
10
-90.026499994305709
20
-16.521800665039535
30
-1.6653345369377348e-15
40
0.85090000000000154
210
4.5397428505815776e-25
220
-4.163336342376379e-17
230
1
0
CIRCLE
5
245
100
AcDbEntity
8
0
100
AcDbCircle
10
-100.18649999433467
20
-16.521800670741019
30
-1.6653345369377348e-15
40
0.85090000000000154
210
4.5397428505815776e-25
220
-4.163336342376379e-17
230
1
0
CIRCLE
5
246
100
AcDbEntity
8
0
100
AcDbCircle
10
-118.60149999438725
20
-16.521800681074964
30
-1.6653345369377348e-15
40
0.85090000000000154
210
4.5397428505815776e-25
220
-4.163336342376379e-17
230
1
0
CIRCLE
5
247
100
AcDbEntity
8
0
100
AcDbCircle
10
-128.76149999441625
20
-16.521800686776473
30
-1.6653345369377348e-15
40
0.85090000000000154
210
4.5397428505815776e-25
220
-4.163336342376379e-17
230
1
0
CIRCLE
5
248
100
AcDbEntity
8
0
100
AcDbCircle
10
-137.65149999444165
20
-16.521800691765268
30
-1.6653345369377348e-15
40
0.85090000000000154
210
4.5397428505815776e-25
220
-4.163336342376379e-17
230
1
0
CIRCLE
5
249
100
AcDbEntity
8
0
100
AcDbCircle
10
-147.81149999447067
20
-16.521800697466748
30
-1.6653345369377348e-15
40
0.85090000000000043
210
4.5397428505815757e-25
220
-4.1633363423763863e-17
230
1
0
CIRCLE
5
250
100
AcDbEntity
8
0
100
AcDbCircle
10
-156.70149999449598
20
-16.521800702455554
30
-1.6653345369377348e-15
40
0.85090000000000043
210
4.5397428505815757e-25
220
-4.1633363423763863e-17
230
1
0
CIRCLE
5
251
100
AcDbEntity
8
0
100
AcDbCircle
10
-166.86149999452499
20
-16.521800708157045
30
-1.6653345369377348e-15
40
0.85090000000000154
210
4.5397428505815776e-25
220
-4.163336342376379e-17
230
1
0
CIRCLE
5
252
100
AcDbEntity
8
0
100
AcDbCircle
10
-175.75149999455039
20
-16.521800713145829
30
-1.6653345369377348e-15
40
0.85090000000000154
210
4.5397428505815776e-25
220
-4.163336342376379e-17
230
1
0
CIRCLE
5
253
100
AcDbEntity
8
0
100
AcDbCircle
10
-185.9114999945794
20
-16.52180071884732
30
-1.6653345369377348e-15
40
0.85090000000000154
210
4.5397428505815776e-25
220
-4.163336342376379e-17
230
1
0
CIRCLE
5
254
100
AcDbEntity
8
0
100
AcDbCircle
10
-204.32649999463197
20
-16.521800729181287
30
-1.6653345369377348e-15
40
0.85090000000000154
210
4.5397428505815776e-25
220
-4.163336342376379e-17
230
1
0
CIRCLE
5
255
100
AcDbEntity
8
0
100
AcDbCircle
10
-214.4864999946609
20
-16.521800734882788
30
-1.6653345369377348e-15
40
0.85090000000000154
210
4.5397428505815776e-25
220
-4.163336342376379e-17
230
1
0
CIRCLE
5
256
100
AcDbEntity
8
0
100
AcDbCircle
10
-223.37649999468636
20
-16.521800739871566
30
-1.6653345369377348e-15
40
0.85090000000000154
210
4.5397428505815776e-25
220
-4.163336342376379e-17
230
1
0
CIRCLE
5
257
100
AcDbEntity
8
0
100
AcDbCircle
10
-233.53649999471529
20
-16.521800745573046
30
-1.6653345369377348e-15
40
0.85089999999999266
210
4.5397428505815675e-25
220
-4.1633363423764369e-17
230
1
0
CIRCLE
5
258
100
AcDbEntity
8
0
100
AcDbCircle
10
-242.42649999474068
20
-16.521800750561859
30
-1.6653345369377348e-15
40
0.85089999999999266
210
4.5397428505815675e-25
220
-4.1633363423764369e-17
230
1
0
CIRCLE
5
259
100
AcDbEntity
8
0
100
AcDbCircle
10
-252.58649999476972
20
-16.52180075626336
30
-1.6653345369377348e-15
40
0.85089999999999266
210
4.5397428505815675e-25
220
-4.1633363423764369e-17
230
1
0
CIRCLE
5
260
100
AcDbEntity
8
0
100
AcDbCircle
10
-261.47649999479506
20
-16.521800761252162
30
-1.6653345369377348e-15
40
0.85089999999999266
210
4.5397428505815675e-25
220
-4.1633363423764369e-17
230
1
0
CIRCLE
5
261
100
AcDbEntity
8
0
100
AcDbCircle
10
-271.63649999482408
20
-16.521800766953664
30
-1.6653345369377348e-15
40
0.85089999999999266
210
4.5397428505815675e-25
220
-4.1633363423764369e-17
230
1
0
CIRCLE
5
262
100
AcDbEntity
8
0
100
AcDbCircle
10
-290.05149999487668
20
-16.521800777287584
30
-1.6653345369377348e-15
40
0.85089999999999266
210
4.5397428505815675e-25
220
-4.1633363423764369e-17
230
1
0
CIRCLE
5
263
100
AcDbEntity
8
0
100
AcDbCircle
10
-300.21149999490558
20
-16.521800782989082
30
-1.6653345369377348e-15
40
0.85089999999999266
210
4.5397428505815675e-25
220
-4.1633363423764369e-17
230
1
0
CIRCLE
5
264
100
AcDbEntity
8
0
100
AcDbCircle
10
-295.13149999489121
20
-16.521800780138346
30
-1.6653345369377348e-15
40
1.3749999999999933
210
4.5491050709197916e-25
220
-4.1633363422268676e-17
230
1
0
CIRCLE
5
265
100
AcDbEntity
8
0
100
AcDbCircle
10
-266.55649999480954
20
-16.521800764102917
30
-1.6653345369377348e-15
40
1.3749999999999933
210
4.5491050709197916e-25
220
-4.1633363422268676e-17
230
1
0
CIRCLE
5
266
100
AcDbEntity
8
0
100
AcDbCircle
10
-247.50649999475519
20
-16.521800753412602
30
-1.6653345369377348e-15
40
1.3749999999999933
210
4.5491050709197916e-25
220
-4.1633363422268676e-17
230
1
0
CIRCLE
5
267
100
AcDbEntity
8
0
100
AcDbCircle
10
-228.45649999470081
20
-16.521800742722316
30
-1.6653345369377348e-15
40
1.3750000000000022
210
4.549105070919798e-25
220
-4.1633363422268319e-17
230
1
0
CIRCLE
5
268
100
AcDbEntity
8
0
100
AcDbCircle
10
-209.40649999464648
20
-16.521800732032041
30
-1.6653345369377348e-15
40
1.3750000000000022
210
4.549105070919798e-25
220
-4.1633363422268319e-17
230
1
0
CIRCLE
5
269
100
AcDbEntity
8
0
100
AcDbCircle
10
-180.83149999456487
20
-16.521800715996584
30
-1.6653345369377348e-15
40
1.3750000000000022
210
4.549105070919798e-25
220
-4.1633363422268319e-17
230
1
0
CIRCLE
5
270
100
AcDbEntity
8
0
100
AcDbCircle
10
-161.78149999451051
20
-16.521800705306305
30
-1.6653345369377348e-15
40
1.375
210
4.5491050709197962e-25
220
-4.1633363422268405e-17
230
1
0
CIRCLE
5
271
100
AcDbEntity
8
0
100
AcDbCircle
10
-142.7314999944561
20
-16.521800694616019
30
-1.6653345369377348e-15
40
1.375
210
4.5491050709197962e-25
220
-4.1633363422268405e-17
230
1
0
CIRCLE
5
272
100
AcDbEntity
8
0
100
AcDbCircle
10
-123.68149999440172
20
-16.521800683925719
30
-1.6653345369377348e-15
40
1.3750000000000022
210
4.549105070919798e-25
220
-4.1633363422268319e-17
230
1
0
CIRCLE
5
273
100
AcDbEntity
8
0
100
AcDbCircle
10
-95.10649999432016
20
-16.521800667890275
30
-1.6653345369377348e-15
40
1.3750000000000022
210
4.549105070919798e-25
220
-4.1633363422268319e-17
230
1
0
CIRCLE
5
274
100
AcDbEntity
8
0
100
AcDbCircle
10
-76.056499994265792
20
-16.521800657199975
30
-1.6653345369377348e-15
40
1.3750000000000022
210
4.549105070919798e-25
220
-4.1633363422268319e-17
230
1
0
CIRCLE
5
275
100
AcDbEntity
8
0
100
AcDbCircle
10
-57.006499994211424
20
-16.521800646509682
30
-1.6653345369377348e-15
40
1.3749999999999933
210
4.5491050709197916e-25
220
-4.1633363422268676e-17
230
1
0
CIRCLE
5
276
100
AcDbEntity
8
0
100
AcDbCircle
10
-37.956499994157042
20
-16.521800635819396
30
-1.6653345369377348e-15
40
1.3749999999999933
210
4.5491050709197916e-25
220
-4.1633363422268676e-17
230
1
0
CIRCLE
5
277
100
AcDbEntity
8
0
100
AcDbCircle
10
-9.3814999940754902
20
-16.521800619783967
30
-1.6653345369377348e-15
40
1.3749999999999933
210
4.5491050709197916e-25
220
-4.1633363422268676e-17
230
1
0
CIRCLE
5
278
100
AcDbEntity
8
0
100
AcDbCircle
10
-13.756484987626436
20
-27.98790060367919
30
-1.6653345369377348e-15
40
4.0000000000000053
210
4.5197307593940422e-25
220
-4.1633363426674489e-17
230
1
0
CIRCLE
5
279
100
AcDbEntity
8
0
100
AcDbCircle
10
-9.3814999806563542
20
-40.33430058123929
30
-2.2204460492503131e-15
40
1.3749999999999933
210
4.5491050709197916e-25
220
-4.1633363422268676e-17
230
1
0
CIRCLE
5
280
100
AcDbEntity
8
0
100
AcDbCircle
10
-28.431499980710726
20
-40.334300591929583
30
-2.2204460492503131e-15
40
1.3749999999999933
210
4.5491050709197916e-25
220
-4.1633363422268676e-17
230
1
0
CIRCLE
5
281
100
AcDbEntity
8
0
100
AcDbCircle
10
-47.481498980765117
20
-40.334300602619862
30
-2.2204460492503131e-15
40
1.3749999999999933
210
4.5491050709197916e-25
220
-4.1633363422268676e-17
230
1
0
CIRCLE
5
282
100
AcDbEntity
8
0
100
AcDbCircle
10
-66.531500980819501
20
-40.334300613310162
30
-2.2204460492503131e-15
40
1.3749999999999933
210
4.5491050709197916e-25
220
-4.1633363422268676e-17
230
1
0
CIRCLE
5
283
100
AcDbEntity
8
0
100
AcDbCircle
10
-85.581499980873843
20
-40.334300624000463
30
-2.2204460492503131e-15
40
1.3750000000000022
210
4.549105070919798e-25
220
-4.1633363422268319e-17
230
1
0
CIRCLE
5
284
100
AcDbEntity
8
0
100
AcDbCircle
10
-104.63149998092823
20
-40.334300634690749
30
-2.2204460492503131e-15
40
1.3750000000000022
210
4.549105070919798e-25
220
-4.1633363422268319e-17
230
1
0
CIRCLE
5
285
100
AcDbEntity
8
0
100
AcDbCircle
10
-123.68149998098258
20
-40.334300645381049
30
-2.2204460492503131e-15
40
1.3750000000000022
210
4.549105070919798e-25
220
-4.1633363422268319e-17
230
1
0
CIRCLE
5
286
100
AcDbEntity
8
0
100
AcDbCircle
10
-142.73149998103699
20
-40.334300656071335
30
-2.2204460492503131e-15
40
1.375
210
4.5491050709197962e-25
220
-4.1633363422268405e-17
230
1
0
CIRCLE
5
287
100
AcDbEntity
8
0
100
AcDbCircle
10
-161.78149898109132
20
-40.334300666761621
30
-2.2204460492503131e-15
40
1.375
210
4.5491050709197962e-25
220
-4.1633363422268405e-17
230
1
0
CIRCLE
5
288
100
AcDbEntity
8
0
100
AcDbCircle
10
-180.83150098114572
20
-40.334300677451928
30
-2.2204460492503131e-15
40
1.3750000000000022
210
4.549105070919798e-25
220
-4.1633363422268319e-17
230
1
0
CIRCLE
5
289
100
AcDbEntity
8
0
100
AcDbCircle
10
-199.88149998120011
20
-40.334300688142207
30
-2.2204460492503131e-15
40
1.3750000000000022
210
4.549105070919798e-25
220
-4.1633363422268319e-17
230
1
0
CIRCLE
5
290
100
AcDbEntity
8
0
100
AcDbCircle
10
-218.93149998125452
20
-40.334300698832507
30
-2.2204460492503131e-15
40
1.3750000000000022
210
4.549105070919798e-25
220
-4.1633363422268319e-17
230
1
0
CIRCLE
5
291
100
AcDbEntity
8
0
100
AcDbCircle
10
-237.98149998130881
20
-40.334300709522793
30
-2.2204460492503131e-15
40
1.3749999999999933
210
4.5491050709197916e-25
220
-4.1633363422268676e-17
230
1
0
CIRCLE
5
292
100
AcDbEntity
8
0
100
AcDbCircle
10
-266.55649098139043
20
-40.334310725558225
30
-2.2204460492503131e-15
40
1.3749999999999933
210
4.5491050709197916e-25
220
-4.1633363422268676e-17
230
1
0
CIRCLE
5
293
100
AcDbEntity
8
0
100
AcDbCircle
10
-295.13149998147196
20
-40.334300741593665
30
-2.2204460492503131e-15
40
1.3749999999999933
210
4.5491050709197916e-25
220
-4.1633363422268676e-17
230
1
0
CIRCLE
5
294
100
AcDbEntity
8
0
100
AcDbCircle
10
-295.13149997073674
20
-59.384300710757927
30
-3.3306690738754696e-15
40
1.3749999999999933
210
4.5491050709197916e-25
220
-4.1633363422268676e-17
230
1
0
CIRCLE
5
295
100
AcDbEntity
8
0
100
AcDbCircle
10
-268.62024996529328
20
-68.909300680462721
30
-3.3306690738754696e-15
40
0.85089999999999266
210
4.5397428505815675e-25
220
-4.1633363423764369e-17
230
1
0
CIRCLE
5
296
100
AcDbEntity
8
0
100
AcDbCircle
10
-247.50649997060071
20
-59.384300684032198
30
-3.3306690738754696e-15
40
1.3749999999999933
210
4.5491050709197916e-25
220
-4.1633363422268676e-17
230
1
0
CIRCLE
5
297
100
AcDbEntity
8
0
100
AcDbCircle
10
-228.45649997054636
20
-59.384300673341919
30
-3.3306690738754696e-15
40
1.3750000000000022
210
4.549105070919798e-25
220
-4.1633363422268319e-17
230
1
0
CIRCLE
5
298
100
AcDbEntity
8
0
100
AcDbCircle
10
-209.40649997049201
20
-59.384300662651619
30
-3.3306690738754696e-15
40
1.3750000000000022
210
4.549105070919798e-25
220
-4.1633363422268319e-17
230
1
0
CIRCLE
5
299
100
AcDbEntity
8
0
100
AcDbCircle
10
-190.35649997043762
20
-59.384300651961325
30
-3.3306690738754696e-15
40
1.3750000000000022
210
4.549105070919798e-25
220
-4.1633363422268319e-17
230
1
0
CIRCLE
5
300
100
AcDbEntity
8
0
100
AcDbCircle
10
-171.30649997038321
20
-59.384300641271032
30
-3.3306690738754696e-15
40
1.3750000000000022
210
4.549105070919798e-25
220
-4.1633363422268319e-17
230
1
0
CIRCLE
5
301
100
AcDbEntity
8
0
100
AcDbCircle
10
-152.25649997032883
20
-59.384300630580725
30
-3.3306690738754696e-15
40
1.3750000000000007
210
4.5491050709197971e-25
220
-4.1633363422268393e-17
230
1
0
CIRCLE
5
302
100
AcDbEntity
8
0
100
AcDbCircle
10
-133.20649997027448
20
-59.384300619890439
30
-3.3306690738754696e-15
40
1.375
210
4.5491050709197962e-25
220
-4.1633363422268405e-17
230
1
0
CIRCLE
5
303
100
AcDbEntity
8
0
100
AcDbCircle
10
-114.15649997022008
20
-59.384300609200139
30
-3.3306690738754696e-15
40
1.3750000000000022
210
4.549105070919798e-25
220
-4.1633363422268319e-17
230
1
0
CIRCLE
5
304
100
AcDbEntity
8
0
100
AcDbCircle
10
-95.106499970165714
20
-59.38430059850986
30
-3.3306690738754696e-15
40
1.3750000000000022
210
4.549105070919798e-25
220
-4.1633363422268319e-17
230
1
0
CIRCLE
5
305
100
AcDbEntity
8
0
100
AcDbCircle
10
-76.056499970111375
20
-59.384300587819574
30
-3.3306690738754696e-15
40
1.3750000000000022
210
4.549105070919798e-25
220
-4.1633363422268319e-17
230
1
0
CIRCLE
5
306
100
AcDbEntity
8
0
100
AcDbCircle
10
-57.006499970056986
20
-59.384300577129281
30
-3.3306690738754696e-15
40
1.3749999999999933
210
4.5491050709197916e-25
220
-4.1633363422268676e-17
230
1
0
CIRCLE
5
307
100
AcDbEntity
8
0
100
AcDbCircle
10
-37.956499970002618
20
-59.384300566438988
30
-3.3306690738754696e-15
40
1.3749999999999933
210
4.5491050709197916e-25
220
-4.1633363422268676e-17
230
1
0
CIRCLE
5
308
100
AcDbEntity
8
0
100
AcDbCircle
10
-14.14399996993464
20
-59.38430055307613
30
-3.3306690738754696e-15
40
1.3749999999999933
210
4.5491050709197916e-25
220
-4.1633363422268676e-17
230
1
0
CIRCLE
5
309
100
AcDbEntity
8
0
100
AcDbCircle
10
-42.718999959280886
20
-78.434300538275821
30
-3.8857805861880479e-15
40
1.3749999999999933
210
4.5491050709197916e-25
220
-4.1633363422268676e-17
230
1
0
CIRCLE
5
310
100
AcDbEntity
8
0
100
AcDbCircle
10
-61.768999959335289
20
-78.434300548966121
30
-3.8857805861880479e-15
40
1.3749999999999933
210
4.5491050709197916e-25
220
-4.1633363422268676e-17
230
1
0
CIRCLE
5
311
100
AcDbEntity
8
0
100
AcDbCircle
10
-80.818999959389672
20
-78.434300559656421
30
-3.8857805861880479e-15
40
1.3750000000000022
210
4.549105070919798e-25
220
-4.1633363422268319e-17
230
1
0
CIRCLE
5
312
100
AcDbEntity
8
0
100
AcDbCircle
10
-99.868998959444042
20
-78.434300570346679
30
-3.8857805861880479e-15
40
1.3750000000000022
210
4.549105070919798e-25
220
-4.1633363422268319e-17
230
1
0
CIRCLE
5
313
100
AcDbEntity
8
0
100
AcDbCircle
10
-118.91899995949841
20
-78.434299581036996
30
-3.8857805861880479e-15
40
1.3750000000000022
210
4.549105070919798e-25
220
-4.1633363422268319e-17
230
1
0
CIRCLE
5
314
100
AcDbEntity
8
0
100
AcDbCircle
10
-137.96899995955278
20
-78.434300591727293
30
-3.8857805861880479e-15
40
1.375
210
4.5491050709197962e-25
220
-4.1633363422268405e-17
230
1
0
CIRCLE
5
315
100
AcDbEntity
8
0
100
AcDbCircle
10
-157.01899995960719
20
-78.434300602417579
30
-3.8857805861880479e-15
40
1.375
210
4.5491050709197962e-25
220
-4.1633363422268405e-17
230
1
0
CIRCLE
5
316
100
AcDbEntity
8
0
100
AcDbCircle
10
-176.06899995966154
20
-78.434300613107865
30
-3.8857805861880479e-15
40
1.3750000000000022
210
4.549105070919798e-25
220
-4.1633363422268319e-17
230
1
0
CIRCLE
5
317
100
AcDbEntity
8
0
100
AcDbCircle
10
-195.11899995971589
20
-78.43430062379818
30
-3.8857805861880479e-15
40
1.3750000000000022
210
4.549105070919798e-25
220
-4.1633363422268319e-17
230
1
0
CIRCLE
5
318
100
AcDbEntity
8
0
100
AcDbCircle
10
-214.16899995977033
20
-78.43429963448844
30
-3.8857805861880479e-15
40
1.3750000000000022
210
4.549105070919798e-25
220
-4.1633363422268319e-17
230
1
0
CIRCLE
5
319
100
AcDbEntity
8
0
100
AcDbCircle
10
-233.21899995982471
20
-78.434299645178754
30
-3.8857805861880479e-15
40
1.3749999999999933
210
4.5491050709197916e-25
220
-4.1633363422268676e-17
230
1
0
CIRCLE
5
320
100
AcDbEntity
8
0
100
AcDbCircle
10
-295.13149996000146
20
-78.434300679922217
30
-3.8857805861880479e-15
40
1.3749999999999933
210
4.5491050709197916e-25
220
-4.1633363422268676e-17
230
1
0
CIRCLE
5
321
100
AcDbEntity
8
0
100
AcDbCircle
10
-290.05149995998687
20
-78.434300677071462
30
-3.8857805861880479e-15
40
0.85089999999999266
210
4.5397428505815675e-25
220
-4.1633363423764369e-17
230
1
0
CIRCLE
5
322
100
AcDbEntity
8
0
100
AcDbCircle
10
-300.21149996001577
20
-78.434300682772957
30
-3.8857805861880479e-15
40
0.85089999999999266
210
4.5397428505815675e-25
220
-4.1633363423764369e-17
230
1
0
CIRCLE
5
323
100
AcDbEntity
8
0
100
AcDbCircle
10
-295.13149994926601
20
-97.48430064908645
30
-4.9960036108132044e-15
40
1.3749999999999933
210
4.5491050709197916e-25
220
-4.1633363422268676e-17
230
1
0
CIRCLE
5
324
100
AcDbEntity
8
0
100
AcDbCircle
10
-276.08149994921166
20
-97.484300638396206
30
-4.9960036108132044e-15
40
1.3749999999999933
210
4.5491050709197916e-25
220
-4.1633363422268676e-17
230
1
0
CIRCLE
5
325
100
AcDbEntity
8
0
100
AcDbCircle
10
-249.88774994913686
20
-97.484300623697038
30
-4.9960036108132044e-15
40
1.3749999999999933
210
4.5491050709197916e-25
220
-4.1633363422268676e-17
230
1
0
CIRCLE
5
326
100
AcDbEntity
8
0
100
AcDbCircle
10
-223.69399994906217
20
-97.484301608997882
30
-4.9960036108132044e-15
40
1.3750000000000022
210
4.549105070919798e-25
220
-4.1633363422268319e-17
230
1
0
CIRCLE
5
327
100
AcDbEntity
8
0
100
AcDbCircle
10
-204.64399894900779
20
-97.484300598307556
30
-4.9960036108132044e-15
40
1.3750000000000022
210
4.549105070919798e-25
220
-4.1633363422268319e-17
230
1
0
CIRCLE
5
328
100
AcDbEntity
8
0
100
AcDbCircle
10
-185.59399994895341
20
-97.484300587617241
30
-4.9960036108132044e-15
40
1.3750000000000022
210
4.549105070919798e-25
220
-4.1633363422268319e-17
230
1
0
CIRCLE
5
329
100
AcDbEntity
8
0
100
AcDbCircle
10
-166.54399994889903
20
-97.484300576926984
30
-4.9960036108132044e-15
40
1.375
210
4.5491050709197962e-25
220
-4.1633363422268405e-17
230
1
0
CIRCLE
5
330
100
AcDbEntity
8
0
100
AcDbCircle
10
-147.49399994884467
20
-97.484300566236698
30
-4.9960036108132044e-15
40
1.3750000000000007
210
4.5491050709197971e-25
220
-4.1633363422268393e-17
230
1
0
CIRCLE
5
331
100
AcDbEntity
8
0
100
AcDbCircle
10
-128.44400094879029
20
-97.484300555546369
30
-4.9960036108132044e-15
40
1.3750000000000022
210
4.549105070919798e-25
220
-4.1633363422268319e-17
230
1
0
CIRCLE
5
332
100
AcDbEntity
8
0
100
AcDbCircle
10
-109.39399894873591
20
-97.484300544856112
30
-4.9960036108132044e-15
40
1.3750000000000022
210
4.549105070919798e-25
220
-4.1633363422268319e-17
230
1
0
CIRCLE
5
333
100
AcDbEntity
8
0
100
AcDbCircle
10
-90.343999948681528
20
-97.484300534165811
30
-4.9960036108132044e-15
40
1.3750000000000022
210
4.549105070919798e-25
220
-4.1633363422268319e-17
230
1
0
CIRCLE
5
334
100
AcDbEntity
8
0
100
AcDbCircle
10
-71.293999948627189
20
-97.484300523475497
30
-4.9960036108132044e-15
40
1.3750000000000022
210
4.549105070919798e-25
220
-4.1633363422268319e-17
230
1
0
CIRCLE
5
335
100
AcDbEntity
8
0
100
AcDbCircle
10
-52.243999948572785
20
-97.484300512785211
30
-4.9960036108132044e-15
40
1.3749999999999933
210
4.5491050709197916e-25
220
-4.1633363422268676e-17
230
1
0
CIRCLE
5
336
100
AcDbEntity
8
0
100
AcDbCircle
10
-21.287715948484419
20
-97.484310495413467
30
-4.9960036108132044e-15
40
1.3749999999999933
210
4.5491050709197916e-25
220
-4.1633363422268676e-17
230
1
0
LWPOLYLINE
5
337
100
AcDbEntity
8
0
100
AcDbPolyline
90
4
70
1
43
0.0
10
-14.14399993771519
20
-115.15930046056889
10
-11.762749937708421
20
-115.15930045923263
42
-0.99999999999999989
10
-11.762749937735506
20
-117.90930045923264
10
-14.143999937742276
20
-117.90930046056891
42
-0.99999999999999989
0
LWPOLYLINE
5
338
100
AcDbEntity
8
0
100
AcDbPolyline
90
4
70
1
43
0.0
10
-37.956499937783164
20
-115.15930047393175
10
-35.575249937776377
20
-115.1593004725955
42
-0.99999999999999989
10
-35.57524993780347
20
-117.90930047259552
10
-37.956499937810257
20
-117.90930047393176
42
-0.99999999999999989
0
LWPOLYLINE
5
339
100
AcDbEntity
8
0
100
AcDbPolyline
90
4
70
1
43
0.0
10
-61.768999937851142
20
-115.15930048729462
10
-59.387749937844355
20
-115.15930048595835
42
-0.99999999999999989
10
-59.387749937871448
20
-117.90930048595838
10
-61.768999937878235
20
-117.90930048729462
42
-0.99999999999999989
0
CIRCLE
5
340
100
AcDbEntity
8
0
100
AcDbCircle
10
-130.8252499380618
20
-116.53430052604692
30
-5.5511151231257827e-15
40
1.3750000000000022
210
4.549105070919798e-25
220
-4.1633363422268319e-17
230
1
0
CIRCLE
5
341
100
AcDbEntity
8
0
100
AcDbCircle
10
-142.73149993809579
20
-116.53430053272842
30
-5.5511151231257827e-15
40
1.375
210
4.5491050709197962e-25
220
-4.1633363422268405e-17
230
1
0
LWPOLYLINE
5
342
100
AcDbEntity
8
0
100
AcDbPolyline
90
4
70
1
43
0.0
10
-226.0752499383201
20
-115.15930057949839
10
-223.69399993831331
20
-115.15930057816215
42
-0.99999999999999989
10
-223.69399993834037
20
-117.90930057816217
10
-226.07524993834716
20
-117.90930057949842
42
-0.99999999999999989
0
CIRCLE
5
343
100
AcDbEntity
8
0
100
AcDbCircle
10
-257.03149993842197
20
-116.5343005968702
30
-5.5511151231257827e-15
40
1.3749999999999933
210
4.5491050709197916e-25
220
-4.1633363422268676e-17
230
1
0
CIRCLE
5
344
100
AcDbEntity
8
0
100
AcDbCircle
10
-276.08149993847638
20
-116.53430060756048
30
-5.5511151231257827e-15
40
1.3749999999999933
210
4.5491050709197916e-25
220
-4.1633363422268676e-17
230
1
0
CIRCLE
5
345
100
AcDbEntity
8
0
100
AcDbCircle
10
-295.13149993853074
20
-116.5343006182507
30
-5.5511151231257827e-15
40
1.3749999999999933
210
4.5491050709197916e-25
220
-4.1633363422268676e-17
230
1
0
CIRCLE
5
346
100
AcDbEntity
8
0
100
AcDbCircle
10
-24.85964430338165
20
-116.53429707357415
30
-5.5511151231257827e-15
40
2.5000000000000009
210
4.4551072740386556e-25
220
-4.1633363423443364e-17
230
1
0
CIRCLE
5
347
100
AcDbEntity
8
0
100
AcDbCircle
10
-21.277503620930943
20
-27.987898667550787
30
-1.6653345369377348e-15
40
2.5000000000000009
210
4.4551072740386556e-25
220
-4.1633363423443364e-17
230
1
0
CIRCLE
5
348
100
AcDbEntity
8
0
100
AcDbCircle
10
-264.17525362092778
20
-27.98785839110479
30
-1.6653345369377348e-15
40
2.5000000000000009
210
4.4551072740386556e-25
220
-4.1633363423443364e-17
230
1
0
CIRCLE
5
349
100
AcDbEntity
8
0
100
AcDbCircle
10
-241.55339530178222
20
-116.53426114209628
30
-5.5511151231257827e-15
40
2.5000000000000009
210
4.4551072740386556e-25
220
-4.1633363423443364e-17
230
1
0
CIRCLE
5
350
100
AcDbEntity
8
0
100
AcDbCircle
10
-290.75648498841707
20
-27.987899759123337
30
-1.6653345369377348e-15
40
4.0000000000000053
210
4.5197307593940422e-25
220
-4.1633363426674489e-17
230
1
0
LWPOLYLINE
5
351
100
AcDbEntity
8
0
100
AcDbPolyline
90
4
70
1
43
0.0
10
-16.525249960132086
20
-76.784299523576649
10
-11.762749960118501
20
-76.784299520904085
42
-0.99999999999999989
10
-11.762749958266628
20
-80.084299520904082
10
-16.525249958280227
20
-80.084299523576618
42
-0.99999999999999989
0
CIRCLE
5
352
100
AcDbEntity
8
0
100
AcDbCircle
10
-290.05149994925159
20
-97.484300646235752
30
-4.9960036108132044e-15
40
0.85089999999999266
210
4.5397428505815675e-25
220
-4.1633363423764369e-17
230
1
0
LWPOLYLINE
5
353
100
AcDbEntity
8
0
100
AcDbPolyline
90
8
70
1
43
0.0
10
-13.349715952566433
20
-108.73931048894642
10
-13.349715952357151
20
-87.499310499981249
42
-0.41421356237310025
10
-12.849715952352215
20
-86.999310499986166
10
-5.8497159348752863
20
-86.999310500055145
42
-0.41421356237308982
10
-5.3497159348802148
20
-87.499310500060062
10
-5.3497159350895451
20
-108.7393104890252
42
-0.41421356237310802
10
-5.8497159350944772
20
-109.23931048902031
10
-12.849715952571344
20
-109.23931048895135
42
-0.41421356237309243
0
LWPOLYLINE
5
354
100
AcDbEntity
8
0
100
AcDbPolyline
90
8
70
1
43
0.0
10
-248.23724095576245
20
-67.179310669252729
10
-248.23724095597723
20
-88.919310644584215
42
-0.41421356237309503
10
-248.73724095598217
20
-89.419310644579298
10
-255.73724096472048
20
-89.419310644510148
42
-0.4142135623730846
10
-256.23724096471557
20
-88.919310644505231
10
-256.23724096450127
20
-67.179310669173887
42
-0.41421356237310025
10
-255.73724096449635
20
-66.679310669178818
10
-248.73724095575795
20
-66.679310669247371
42
-0.41421356237308982
0
LWPOLYLINE
5
355
100
AcDbEntity
8
0
100
AcDbPolyline
90
8
70
1
43
0.0
10
-258.61849098547276
20
-51.589310705457379
10
-258.61849098525806
20
-29.849310730125829
42
-0.41421356237309764
10
-258.11849098525317
20
-29.349310730130767
10
-251.11849096777627
20
-29.349310730199889
42
-0.41421356237308982
10
-250.61849096778118
20
-29.849310730204827
10
-250.61849096799548
20
-51.589310705536242
42
-0.41421356237309503
10
-251.11849096800043
20
-52.089310705531304
10
-258.11849098547731
20
-52.089310705462708
42
-0.41421356237308982
0
LWPOLYLINE
5
356
100
AcDbEntity
8
0
100
AcDbPolyline
90
17
70
1
43
0.0
10
-274.49449098554925
20
-52.471300697915595
42
0.41421356237310542
10
-273.99449098555419
20
-52.971300697920526
10
-262.44524997197237
20
-52.971300698034334
42
-0.41421356237308982
10
-261.94524997197732
20
-53.471300698039272
10
-261.94524997205497
20
-61.353290694424928
42
-0.41421356237310025
10
-262.44524997205991
20
-61.853290694419996
10
-284.18524997210335
20
-61.853290694205739
42
-0.41421356237308982
10
-284.6852499720984
20
-61.353290694200801
10
-284.68524997201206
20
-52.589310718834298
42
-0.41421356237310025
10
-284.18524997200711
20
-52.089310718839229
10
-282.99449098554555
20
-52.089310718850953
42
0.41421356237306384
10
-282.49449098554061
20
-51.589310718855884
10
-282.49449098532631
20
-29.849310743524345
42
-0.41421356237310025
10
-281.99449098532136
20
-29.349310743529276
10
-274.99449098532136
20
-29.349310743598398
42
-0.41421356237308982
10
-274.49449098532631
20
-29.849310743603333
10
-274.49449098554544
20
-52.08931071893474
0
ENDSEC
0
SECTION
2
OBJECTS
0
DICTIONARY
5
C
100
AcDbDictionary
3
ACAD_GROUP
350
D
3
ACAD_MLINESTYLE
350
17
0
DICTIONARY
5
D
100
AcDbDictionary
0
DICTIONARY
5
1A
330
C
100
AcDbDictionary
0
DICTIONARY
5
17
100
AcDbDictionary
0
ENDSEC
0
EOF
