0
SECTION
2
HEADER
9
$INSUNITS
70
4
9
$ACADVER
1
AC1014
9
$HANDSEED
5
FFFF
0
ENDSEC
0
SECTION
2
TABLES
0
TABLE
2
VPORT
5
8
100
AcDbSymbolTable
0
ENDTAB
0
TABLE
2
LTYPE
5
5
100
AcDbSymbolTable
0
LTYPE
5
14
100
AcDbSymbolTableRecord
100
AcDbLinetypeTableRecord
2
BYBLOCK
70
0
0
LTYPE
5
15
100
AcDbSymbolTableRecord
100
AcDbLinetypeTableRecord
2
BYLAYER
70
0
0
LTYPE
5
16
100
AcDbSymbolTableRecord
100
AcDbLinetypeTableRecord
2
DASHED
70
0
3
Dashed __ __ __ __ __ __ __ __ __ __ __ __ __ _
72
65
73
2
40
0.75
49
0.5
74
0
49
-0.25
74
0
0
ENDTAB
0
TABLE
2
LAYER
5
2
100
AcDbSymbolTable
70
2
0
LAYER
5
50
100
AcDbSymbolTableRecord
100
AcDbLayerTableRecord
2
0
70
0
62
7
6
CONTINUOUS
0
ENDTAB
0
TABLE
2
STYLE
5
3
100
AcDbSymbolTable
70
1
0
STYLE
5
11
100
AcDbSymbolTableRecord
100
AcDbTextStyleTableRecord
2
STANDARD
70
0
0
ENDTAB
0
TABLE
2
VIEW
5
6
100
AcDbSymbolTable
70
0
0
ENDTAB
0
TABLE
2
UCS
5
7
100
AcDbSymbolTable
70
0
0
ENDTAB
0
TABLE
2
APPID
5
9
100
AcDbSymbolTable
70
2
0
APPID
5
12
100
AcDbSymbolTableRecord
100
AcDbRegAppTableRecord
2
ACAD
70
0
0
ENDTAB
0
TABLE
2
DIMSTYLE
5
A
100
AcDbSymbolTable
70
1
0
ENDTAB
0
TABLE
2
BLOCK_RECORD
5
1
100
AcDbSymbolTable
70
1
0
BLOCK_RECORD
5
1F
100
AcDbSymbolTableRecord
100
AcDbBlockTableRecord
2
*MODEL_SPACE
0
BLOCK_RECORD
5
1B
100
AcDbSymbolTableRecord
100
AcDbBlockTableRecord
2
*PAPER_SPACE
0
ENDTAB
0
ENDSEC
0
SECTION
2
BLOCKS
0
BLOCK
5
20
100
AcDbEntity
100
AcDbBlockBegin
2
*MODEL_SPACE
0
ENDBLK
5
21
100
AcDbEntity
100
AcDbBlockEnd
0
BLOCK
5
1C
100
AcDbEntity
100
AcDbBlockBegin
2
*PAPER_SPACE
0
ENDBLK
5
1D
100
AcDbEntity
100
AcDbBlockEnd
0
ENDSEC
0
SECTION
2
ENTITIES
0
LWPOLYLINE
5
100
100
AcDbEntity
8
0
100
AcDbPolyline
90
40
70
1
43
0.0
10
-28.987750001623908
20
-104.73429387544152
42
0.41421356237313406
10
-29.287750001623905
20
-105.03429387544152
10
-29.287750001623884
20
-106.8742938766562
42
-0.41421356237309503
10
-29.587750001623874
20
-107.17429387665619
10
-36.425750001623882
20
-107.17429387665592
42
-0.41421356237309742
10
-36.975750001623844
20
-106.62429387665597
10
-36.975750001623936
20
-104.78429387367947
42
0.41421356237310375
10
-37.275750001623919
20
-104.48429387367949
10
-40.325750001623902
20
-104.48429387367955
42
-0.41421356237310375
10
-40.625750001623913
20
-104.18429387367956
10
-40.625750001623928
20
-90.784293873679559
42
-0.4142135623731818
10
-40.325750001623916
20
-90.484293873679533
10
-37.275750001623905
20
-90.484293873679903
42
0.414213562373069
10
-36.975750001623886
20
-90.184293873679891
10
-36.975750001623908
20
-87.83429387367957
42
-0.41421356237306473
10
-36.675750001623896
20
-87.534293873679559
10
-29.275750001623919
20
-87.53429387367953
42
-0.41421356237306034
10
-28.975750001623911
20
-87.834293873679542
10
-28.975750001623926
20
-90.18429387367982
42
0.41421356237309936
10
-28.675750001623928
20
-90.484293873679775
10
-13.899750001623946
20
-90.484293873679619
42
0.414213562373069
10
-13.599750001623949
20
-90.184293873679621
10
-13.599750001623946
20
-87.834293873679542
42
-0.41421356237309287
10
-13.299750001623936
20
-87.53429387367953
10
-5.8997500016239215
20
-87.534293873679516
42
-0.41421356237308099
10
-5.5997500016239243
20
-87.834293873679528
10
-5.5997500016239723
20
-90.184293873679479
42
0.41421356237308748
10
-5.2997500016239325
20
-90.484293873679491
10
-4.5497500016239538
20
-90.484293873679519
42
-0.41421356237309559
10
-4.2497500016239362
20
-90.78429387367953
10
-4.2497500016239549
20
-104.18429387367948
42
-0.41421356237312323
10
-4.54975000162396
20
-104.48429387367949
10
-5.2997500016239041
20
-104.48429387367945
42
0.41421356237308965
10
-5.5997500016239101
20
-104.78429387367946
10
-5.5997500016239368
20
-106.62429387665594
42
-0.41421356237311929
10
-6.1497500016238904
20
-107.17429387665588
10
-12.987750001623892
20
-107.17429387665597
42
-0.41421356237308421
10
-13.287750001623893
20
-106.874293876656
10
-13.287750001623964
20
-105.03429387544145
42
0.41421356237311241
10
-13.587750001623924
20
-104.73429387544151
0
LWPOLYLINE
5
101
100
AcDbEntity
8
0
100
AcDbPolyline
90
8
70
1
43
0.0
10
-45.74400000162413
20
-104.48429387503673
10
-58.744000001624137
20
-104.48429387503673
42
-0.41421356237307944
10
-59.244000001624144
20
-103.98429387503674
10
-59.244000001624144
20
-90.984293875036727
42
-0.41421356237311585
10
-58.744000001624158
20
-90.484293875036713
10
-45.744000001624144
20
-90.484293875036713
42
-0.41421356237307944
10
-45.244000001624144
20
-90.984293875036698
10
-45.244000001624144
20
-103.9842938750367
42
-0.41421356237311585
0
LWPOLYLINE
5
102
100
AcDbEntity
8
0
100
AcDbPolyline
90
48
70
1
43
0.0
10
-255.63725000162393
20
-68.454293873679788
10
-248.83725000162389
20
-68.454293873679802
42
-0.41421356237310802
10
-248.23725000162395
20
-69.054293873679782
10
-248.23725000162386
20
-70.834293875037616
42
0.41421356237312101
10
-247.63725000162395
20
-71.434293875037596
10
-245.76900000162453
20
-71.434293875037724
42
-0.41421356237304774
10
-245.21900000162452
20
-71.984293875037707
10
-245.21900000162452
20
-84.684293883489431
42
-0.41421356237317075
10
-245.76900000162459
20
-85.234293883489471
10
-247.63725000162398
20
-85.234293883489443
42
0.41421356237312978
10
-248.23725000162395
20
-85.834293883489394
10
-248.23725000162398
20
-87.284293876251425
42
-0.41421356237310375
10
-248.83725000162394
20
-87.884293876251419
10
-255.57525000162468
20
-87.884293876251462
42
-0.4142135623731818
10
-256.17525000162465
20
-87.284293876251482
10
-256.17525000162448
20
-86.034293875036894
42
0.41421356237307771
10
-256.7752500016245
20
-85.434293875036914
10
-271.57525000162468
20
-85.434293873679877
42
0.41421356237306034
10
-272.17525000162459
20
-86.034293875036838
10
-272.17525000162459
20
-87.284293876251681
42
-0.414213562373069
10
-272.77525000162461
20
-87.884293876251505
10
-280.09985000162351
20
-87.884293876251732
42
-0.41421356237312978
10
-280.69985000162336
20
-87.284293876251752
10
-280.69985000162336
20
-85.19729388348928
42
0.4142135623730856
10
-281.24985000162337
20
-84.647293883489269
10
-283.39985000162403
20
-84.647293883489297
42
-0.4142135623730856
10
-283.94985000162416
20
-84.097293883489286
10
-283.9498500016241
20
-77.597293883489243
42
-0.41421356237313761
10
-283.39985000162403
20
-77.047293883489246
10
-281.29985000162355
20
-77.047293883489218
42
0.41421356237306195
10
-280.7498500016236
20
-76.49729388348922
10
-280.74985000162383
20
-62.534293873679836
42
-0.41421356237319906
10
-280.24985000162377
20
-62.034293873679829
10
-279.04985000162384
20
-62.034293873679793
42
0.4142135623731254
10
-278.44985000162382
20
-61.434293873679849
10
-278.44985000162382
20
-61.234293872809729
42
0.41421356237310802
10
-279.04985000162384
20
-60.634293872809756
10
-283.34985000162396
20
-60.634293872809799
42
-0.41421356237303869
10
-283.94985000162387
20
-60.034293872809783
10
-283.94985000162387
20
-52.984293872809772
42
-0.41421356237311241
10
-283.34985000162396
20
-52.384293872809778
10
-264.81900000162443
20
-52.384293875036896
42
-0.41421356237309503
10
-264.26900000162442
20
-52.934293875036893
10
-264.26900000162442
20
-70.634293874632277
42
0.41421356237315654
10
-263.71900000162435
20
-71.18429387463226
10
-256.83725000162389
20
-71.18429387463226
42
0.41421356237300833
10
-256.23725000162392
20
-70.584293874632266
10
-256.23725000162392
20
-69.054293873679768
42
-0.41421356237309503
0
LWPOLYLINE
5
103
100
AcDbEntity
8
0
100
AcDbPolyline
90
30
70
1
43
0.0
10
-250.38150000162398
20
-50.334293876656233
10
-258.25650000162415
20
-50.33429387665619
42
-0.41421356237308637
10
-258.55650000162416
20
-50.034293876656186
10
-258.55650000162422
20
-47.884293875441642
42
0.41421356237315576
10
-258.85650000162417
20
-47.584293875441681
10
-274.7565000016242
20
-47.584293874084587
42
0.41421356237311241
10
-275.05650000162427
20
-47.884293875441735
10
-275.05650000162427
20
-50.034293876656108
42
-0.41421356237309503
10
-275.35650000162428
20
-50.334293876656119
10
-282.731500001624
20
-50.334293876656247
42
-0.41421356237303258
10
-283.231500001624
20
-49.83429387665624
10
-283.23150000162406
20
-33.884293875037002
42
-0.39673913819975282
10
-282.71449546625485
20
-33.335284495049997
42
0.39673913819973078
10
-282.24449134319195
20
-32.836185058698099
10
-282.2444913431919
20
-30.884293875037073
42
-0.41421356237309503
10
-281.69449134319188
20
-30.334293875037073
10
-275.29449134319191
20
-30.334293875037073
42
-0.41421356237309503
10
-274.7444913431919
20
-30.88429387503707
10
-274.7444913431919
20
-32.834293875036892
42
0.41421356237305079
10
-274.2444913431919
20
-33.334293875036892
10
-258.86849134319186
20
-33.334293875036877
42
0.41421356237308204
10
-258.36849134319186
20
-32.83429387503687
10
-258.36849134319186
20
-30.899308616207094
42
-0.41421356237309503
10
-257.81849134319191
20
-30.34930861620709
10
-251.41849134319187
20
-30.34930861620709
42
-0.41421356237309503
10
-250.86849134319186
20
-30.899308616207087
10
-250.86849134319183
20
-32.83618609958517
42
0.39673435755357511
10
-250.39849546625473
20
-33.335285040276538
42
-0.39673435755362396
10
-249.88150000162398
20
-33.88429387503691
10
-249.88150000162403
20
-49.834293876656233
42
-0.41421356237312623
0
LWPOLYLINE
5
104
100
AcDbEntity
8
0
100
AcDbPolyline
90
8
70
1
43
0.0
10
-5.312750001623904
20
-85.434293875036701
10
-23.025250001624148
20
-85.434293875036701
42
-0.41421356237307422
10
-23.525250001624158
20
-84.934293875036687
10
-23.525250001624162
20
-71.934293875036687
42
-0.41421356237310281
10
-23.025250001624158
20
-71.434293875036673
10
-5.3127500016238915
20
-71.434293875036701
42
-0.41421356237312285
10
-4.7627500016239042
20
-71.984293875036713
10
-4.7627500016238784
20
-84.884293875036732
42
-0.41421356237309093
0
LWPOLYLINE
5
105
100
AcDbEntity
8
0
100
AcDbPolyline
90
8
70
1
43
0.0
10
-235.45650000162425
20
-23.021793875036856
10
-235.45650000162428
20
-10.021793875036844
42
-0.41421356237313273
10
-234.95650000162428
20
-9.5217938750368418
10
-221.95650000162428
20
-9.5217938750368489
42
-0.41421356237306123
10
-221.45650000162431
20
-10.021793875036833
10
-221.45650000162422
20
-23.021793875036842
42
-0.41421356237310542
10
-221.95650000162425
20
-23.521793875036863
10
-234.95650000162425
20
-23.521793875036838
42
-0.41421356237312101
0
LWPOLYLINE
5
106
100
AcDbEntity
8
0
100
AcDbPolyline
90
8
70
1
43
0.0
10
-149.2315000016242
20
-9.5217938750367601
10
-136.23150000162423
20
-9.5217938750367477
42
-0.41421356237310414
10
-135.7315000016242
20
-10.021793875036753
10
-135.7315000016242
20
-23.02179387503676
42
-0.41421356237307161
10
-136.2315000016242
20
-23.521793875036767
10
-149.2315000016242
20
-23.521793875036771
42
-0.41421356237306123
10
-149.73150000162417
20
-23.021793875036771
10
-149.7315000016242
20
-10.021793875036764
42
-0.41421356237305862
0
LWPOLYLINE
5
107
100
AcDbEntity
8
0
100
AcDbPolyline
90
8
70
1
43
0.0
10
-63.506500001624218
20
-9.5217938750366855
10
-50.506500001624218
20
-9.5217938750366731
42
-0.41421356237309631
10
-50.006500001624225
20
-10.021793875036673
10
-50.006500001624218
20
-23.021793875036678
42
-0.41421356237308204
10
-50.506500001624204
20
-23.521793875036682
10
-63.506500001624211
20
-23.521793875036693
42
-0.41421356237309764
10
-64.006500001624204
20
-23.021793875036689
10
-64.006500001624218
20
-10.02179387503668
42
-0.41421356237309243
0
LWPOLYLINE
5
108
100
AcDbEntity
8
0
100
AcDbPolyline
90
8
70
1
43
0.0
10
-82.556500001624215
20
-9.5217938750366962
10
-69.556500001624229
20
-9.5217938750366926
42
-0.41421356237309503
10
-69.056500001624215
20
-10.021793875036691
10
-69.056500001624215
20
-23.0217938750367
42
-0.41421356237308982
10
-69.556500001624201
20
-23.521793875036696
10
-82.556500001624201
20
-23.5217938750367
42
-0.41421356237312884
10
-83.056500001624215
20
-23.021793875036707
10
-83.056500001624229
20
-10.021793875036698
42
-0.41421356237309115
0
LWPOLYLINE
5
109
100
AcDbEntity
8
0
100
AcDbPolyline
90
8
70
1
43
0.0
10
-168.78150000162424
20
-23.021793875036792
10
-168.78150000162429
20
-10.02179387503678
42
-0.41421356237313667
10
-168.28150000162427
20
-9.5217938750367619
10
-155.28150000162424
20
-9.5217938750367654
42
-0.41421356237310414
10
-154.78150000162421
20
-10.021793875036771
10
-154.78150000162421
20
-23.021793875036778
42
-0.41421356237310542
10
-155.28150000162424
20
-23.521793875036789
10
-168.28150000162424
20
-23.521793875036799
42
-0.41421356237301177
0
LWPOLYLINE
5
110
100
AcDbEntity
8
0
100
AcDbPolyline
90
8
70
1
43
0.0
10
-254.00650000162429
20
-9.5217938750368614
10
-241.00650000162429
20
-9.5217938750368685
42
-0.4142135623730599
10
-240.50650000162432
20
-10.021793875036851
10
-240.50650000162423
20
-23.021793875036863
42
-0.41421356237310281
10
-241.00650000162426
20
-23.521793875036884
10
-254.00650000162426
20
-23.521793875036856
42
-0.41421356237312362
10
-254.50650000162426
20
-23.02179387503687
10
-254.50650000162429
20
-10.021793875036861
42
-0.41421356237313273
0
LWPOLYLINE
5
111
100
AcDbEntity
8
0
100
AcDbPolyline
90
8
70
1
43
0.0
10
-215.90650000162429
20
-9.5217938750368081
10
-202.90650000162429
20
-9.5217938750368063
42
-0.41421356237307549
10
-202.40650000162424
20
-10.021793875036815
10
-202.40650000162424
20
-23.021793875036821
42
-0.41421356237314444
10
-202.90650000162427
20
-23.521793875036828
10
-215.90650000162427
20
-23.521793875036849
42
-0.41421356237301699
10
-216.40650000162427
20
-23.021793875036831
10
-216.40650000162427
20
-10.021793875036826
42
-0.41421356237311452
0
LWPOLYLINE
5
112
100
AcDbEntity
8
0
100
AcDbPolyline
90
8
70
1
43
0.0
10
-130.18150000162419
20
-9.5217938750367423
10
-117.18150000162424
20
-9.521793875036737
42
-0.414213562373069
10
-116.68150000162422
20
-10.021793875036735
10
-116.6815000016242
20
-23.021793875036742
42
-0.41421356237308982
10
-117.18150000162422
20
-23.521793875036749
10
-130.18150000162419
20
-23.521793875036753
42
-0.41421356237306123
10
-130.68150000162416
20
-23.021793875036749
10
-130.68150000162419
20
-10.021793875036746
42
-0.41421356237305862
0
LWPOLYLINE
5
113
100
AcDbEntity
8
0
100
AcDbPolyline
90
8
70
1
43
0.0
10
-44.456500001624221
20
-9.5217938750366642
10
-31.456500001624221
20
-9.52179387503665
42
-0.41421356237308982
10
-30.956500001624217
20
-10.021793875036654
10
-30.956500001624214
20
-23.021793875036664
42
-0.41421356237309503
10
-31.45650000162421
20
-23.521793875036661
10
-44.456500001624207
20
-23.521793875036671
42
-0.41421356237309503
10
-44.956500001624207
20
-23.021793875036671
10
-44.956500001624214
20
-10.021793875036662
42
-0.41421356237309631
0
LWPOLYLINE
5
114
100
AcDbEntity
8
0
100
AcDbPolyline
90
8
70
1
43
0.0
10
-101.60650000162421
20
-9.5217938750367139
10
-88.606500001624227
20
-9.5217938750367104
42
-0.414213562373069
10
-88.106500001624198
20
-10.021793875036709
10
-88.106500001624184
20
-23.021793875036714
42
-0.41421356237308982
10
-88.606500001624198
20
-23.521793875036721
10
-101.6065000016242
20
-23.521793875036728
42
-0.41421356237306123
10
-102.10650000162418
20
-23.021793875036725
10
-102.1065000016242
20
-10.021793875036719
42
-0.41421356237305729
0
LWPOLYLINE
5
115
100
AcDbEntity
8
0
100
AcDbPolyline
90
8
70
1
43
0.0
10
-187.83150000162422
20
-23.02179387503681
10
-187.83150000162425
20
-10.021793875036799
42
-0.41421356237313273
10
-187.33150000162425
20
-9.5217938750367974
10
-174.33150000162428
20
-9.5217938750367779
42
-0.41421356237307683
10
-173.83150000162425
20
-10.021793875036789
10
-173.83150000162425
20
-23.021793875036796
42
-0.41421356237314444
10
-174.33150000162425
20
-23.521793875036803
10
-187.33150000162419
20
-23.521793875036799
42
-0.41421356237312623
0
LWPOLYLINE
5
116
100
AcDbEntity
8
0
100
AcDbPolyline
90
8
70
1
43
0.0
10
-273.05650000162427
20
-9.5217938750368614
10
-260.05650000162427
20
-9.5217938750368596
42
-0.41421356237307549
10
-259.55650000162422
20
-10.021793875036868
10
-259.55650000162422
20
-23.021793875036881
42
-0.41421356237314189
10
-260.05650000162422
20
-23.521793875036884
10
-273.05650000162422
20
-23.521793875036899
42
-0.41421356237301438
10
-273.55650000162422
20
-23.021793875036888
10
-273.55650000162427
20
-10.021793875036879
42
-0.41421356237313667
0
LWPOLYLINE
5
117
100
AcDbEntity
8
0
100
AcDbPolyline
90
8
70
1
43
0.0
10
-302.13150000162415
20
-103.984293875037
10
-302.13150000162415
20
-90.984293875036983
42
-0.41421356237311585
10
-301.6315000016242
20
-90.484293875036954
10
-288.6315000016242
20
-90.484293875036911
42
-0.4142135623730846
10
-288.13150000162415
20
-90.98429387503694
10
-288.13150000162409
20
-103.98429387503697
42
-0.41421356237310542
10
-288.63150000162409
20
-104.48429387503697
10
-301.63150000162415
20
-104.48429387503701
42
-0.41421356237313667
0
CIRCLE
5
118
100
AcDbEntity
8
0
100
AcDbCircle
10
-290.75648557710258
20
-27.987894122415735
30
-1.1652300369836138e-15
40
2.8000000000000123
210
4.4979504655026758e-25
220
-4.1633363423443401e-17
230
1
0
CIRCLE
5
119
100
AcDbEntity
8
0
100
AcDbCircle
10
-13.756485577102573
20
-27.9878940939426
30
-1.1652301600267299e-15
40
2.800000000000006
210
4.4979504655026731e-25
220
-4.1633363423443401e-17
230
1
0
CIRCLE
5
120
100
AcDbEntity
8
0
100
AcDbCircle
10
-295.13148557710269
20
-4.3238870885801841
30
-1.8001782985276435e-16
40
1.0999999999999948
210
4.4979505139260526e-25
220
-4.1633363423443401e-17
230
1
0
CIRCLE
5
121
100
AcDbEntity
8
0
100
AcDbCircle
10
-152.25648557710261
20
-4.3238870885800509
30
-1.8001789395926182e-16
40
1.0999999999999948
210
4.4979505139260526e-25
220
-4.1633363423443401e-17
230
1
0
CIRCLE
5
122
100
AcDbEntity
8
0
100
AcDbCircle
10
-266.55648557710253
20
-128.73170066920414
30
-5.3595335585316623e-15
40
1.0999999999999948
210
4.4979505139260526e-25
220
-4.1633363423443401e-17
230
1
0
CIRCLE
5
123
100
AcDbEntity
8
0
100
AcDbCircle
10
-9.3812990271024255
20
-4.3238870872656614
30
-1.8001795858274718e-16
40
1.1000000000000036
210
4.4979505139260516e-25
220
-4.1633363423443401e-17
230
1
0
CIRCLE
5
124
100
AcDbEntity
8
0
100
AcDbCircle
10
-37.957299027102323
20
-128.73170067051817
30
-5.359533661412251e-15
40
1.1000000000000036
210
4.4979505139260516e-25
220
-4.1633363423443401e-17
230
1
0
CIRCLE
5
125
100
AcDbEntity
8
0
100
AcDbCircle
10
-264.17524999786576
20
-27.987894084603862
30
-1.1652300468063836e-15
40
1.1500000000000004
210
4.4979505139260526e-25
220
-4.1633363423443413e-17
230
1
0
CIRCLE
5
126
100
AcDbEntity
8
0
100
AcDbCircle
10
-241.55337500162415
20
-116.53429368996647
30
-4.8517144919774393e-15
40
1.1500000000000004
210
4.4979505139260526e-25
220
-4.1633363423443413e-17
230
1
0
CIRCLE
5
127
100
AcDbEntity
8
0
100
AcDbCircle
10
-24.859625001624121
20
-116.53429368996628
30
-4.8517145891711613e-15
40
1.1500000000000004
210
4.4979505139260526e-25
220
-4.1633363423443413e-17
230
1
0
CIRCLE
5
128
100
AcDbEntity
8
0
100
AcDbCircle
10
-21.277499997865711
20
-27.987893898760987
30
-1.1652301491699844e-15
40
1.1500000000000004
210
4.4979505139260526e-25
220
-4.1633363423443413e-17
230
1
0
LWPOLYLINE
5
129
100
AcDbEntity
8
0
100
AcDbPolyline
90
8
70
1
43
0.0
10
-149.23150000162411
20
-109.53429387503687
10
-124.32525000162413
20
-109.53429387503681
42
-0.4142135623730534
10
-123.82525000162411
20
-110.03429387503681
10
-123.82525000162411
20
-123.03429387503681
42
-0.41421356237307422
10
-124.32525000162413
20
-123.53429387503681
10
-149.23150000162411
20
-123.53429387503689
42
-0.41421356237304302
10
-149.73150000162411
20
-123.03429387503687
10
-149.73150000162411
20
-110.03429387503687
42
-0.41421356237307422
0
LWPOLYLINE
5
130
100
AcDbEntity
8
0
100
AcDbPolyline
90
8
70
1
43
0.0
10
-20.644000001624129
20
-109.53429387503675
10
-5.2627500016241235
20
-109.53429387503668
42
-0.4142135623730937
10
-4.7627500016241164
20
-110.0342938750367
10
-4.7627500016241058
20
-123.03429387503668
42
-0.41421356237307355
10
-5.2627500016241111
20
-123.53429387503668
10
-20.644000001624114
20
-123.53429387503678
42
-0.41421356237307944
10
-21.144000001624121
20
-123.03429387503672
10
-21.144000001624121
20
-110.03429387503674
42
-0.41421356237305601
0
LWPOLYLINE
5
131
100
AcDbEntity
8
0
100
AcDbPolyline
90
8
70
1
43
0.0
10
-217.19400000162415
20
-123.53429387503692
10
-232.57525000162414
20
-123.53429387503689
42
-0.41421356237309503
10
-233.07525000162414
20
-123.03429387503689
10
-233.07525000162414
20
-110.03429387503689
42
-0.41421356237313667
10
-232.57525000162414
20
-109.53429387503689
10
-217.19400000162415
20
-109.53429387503689
42
-0.4142135623730534
10
-216.69400000162412
20
-110.03429387503694
10
-216.69400000162415
20
-123.03429387503695
42
-0.41421356237311585
0
LWPOLYLINE
5
132
100
AcDbEntity
8
0
100
AcDbPolyline
90
8
70
1
43
0.0
10
-44.456500001624129
20
-109.53429387503677
10
-29.075250001624127
20
-109.53429387503672
42
-0.41421356237309764
10
-28.575250001624116
20
-110.03429387503672
10
-28.57525000162412
20
-123.03429387503671
42
-0.41421356237308721
10
-29.075250001624116
20
-123.53429387503672
10
-44.456500001624107
20
-123.53429387503679
42
-0.41421356237312101
10
-44.956500001624129
20
-123.03429387503675
10
-44.9565000016241
20
-110.03429387503675
42
-0.41421356237310542
0
LWPOLYLINE
5
133
100
AcDbEntity
8
0
100
AcDbPolyline
90
8
70
1
43
0.0
10
-68.269000001624121
20
-109.53429387503681
10
-52.887750001624134
20
-109.53429387503675
42
-0.41421356237307944
10
-52.387750001624127
20
-110.03429387503674
10
-52.387750001624127
20
-123.03429387503672
42
-0.41421356237310542
10
-52.887750001624113
20
-123.53429387503674
10
-68.269000001624107
20
-123.53429387503681
42
-0.41421356237306384
10
-68.769000001624121
20
-123.03429387503682
10
-68.769000001624093
20
-110.03429387503679
42
-0.41421356237310542
0
LWPOLYLINE
5
134
100
AcDbEntity
8
0
100
AcDbPolyline
90
8
70
1
43
0.0
10
-282.58150000162419
20
-90.484293875036911
10
-269.58150000162419
20
-90.484293875036911
42
-0.4142135623730846
10
-269.08150000162419
20
-90.984293875036911
10
-269.08150000162414
20
-103.98429387503691
42
-0.41421356237314705
10
-269.58150000162414
20
-104.48429387503694
10
-282.58150000162414
20
-104.48429387503694
42
-0.4142135623730846
10
-283.08150000162419
20
-103.98429387503695
10
-283.08150000162419
20
-90.98429387503694
42
-0.41421356237314705
0
LWPOLYLINE
5
135
100
AcDbEntity
8
0
100
AcDbPolyline
90
8
70
1
43
0.0
10
-197.64400000162414
20
-90.98429387503684
42
0.4142135623730846
10
-198.14400000162414
20
-90.484293875036855
10
-211.14400000162416
20
-90.484293875036855
42
0.41421356237314705
10
-211.64400000162414
20
-90.984293875036869
10
-211.64400000162414
20
-103.98429387503688
42
0.4142135623730846
10
-211.14400000162414
20
-104.48429387503688
10
-198.14400000162411
20
-104.48429387503687
42
0.41421356237314705
10
-197.64400000162414
20
-103.98429387503684
0
LWPOLYLINE
5
136
100
AcDbEntity
8
0
100
AcDbPolyline
90
8
70
1
43
0.0
10
-256.38775000162417
20
-90.484293875036883
10
-243.38775000162417
20
-90.484293875036883
42
-0.41421356237313667
10
-242.88775000162417
20
-90.984293875036883
10
-242.88775000162411
20
-103.9842938750369
42
-0.41421356237309503
10
-243.38775000162414
20
-104.48429387503693
10
-256.38775000162417
20
-104.48429387503693
42
-0.41421356237309503
10
-256.88775000162417
20
-103.98429387503691
10
-256.88775000162417
20
-90.984293875036926
42
-0.41421356237312623
0
LWPOLYLINE
5
137
100
AcDbEntity
8
0
100
AcDbPolyline
90
8
70
1
43
0.0
10
-230.19400000162418
20
-90.484293875036869
10
-217.19400000162415
20
-90.484293875036826
42
-0.41421356237310542
10
-216.69400000162415
20
-90.984293875036855
10
-216.69400000162412
20
-103.98429387503685
42
-0.41421356237310542
10
-217.19400000162412
20
-104.48429387503688
10
-230.19400000162415
20
-104.48429387503693
42
-0.41421356237310542
10
-230.69400000162415
20
-103.9842938750369
10
-230.69400000162418
20
-90.984293875036883
42
-0.41421356237310542
0
LWPOLYLINE
5
138
100
AcDbEntity
8
0
100
AcDbPolyline
90
8
70
1
43
0.0
10
-301.63150000162409
20
-109.53429387503697
10
-288.63150000162409
20
-109.53429387503695
42
-0.41421356237309503
10
-288.13150000162409
20
-110.03429387503695
10
-288.13150000162409
20
-123.03429387503695
42
-0.41421356237313667
10
-288.63150000162409
20
-123.53429387503695
10
-301.63150000162409
20
-123.53429387503695
42
-0.4142135623730846
10
-302.13150000162409
20
-123.03429387503697
10
-302.13150000162409
20
-110.03429387503698
42
-0.41421356237310542
0
LWPOLYLINE
5
139
100
AcDbEntity
8
0
100
AcDbPolyline
90
8
70
1
43
0.0
10
-263.53150000162418
20
-109.53429387503692
10
-250.53150000162415
20
-109.53429387503691
42
-0.41421356237309503
10
-250.03150000162412
20
-110.03429387503692
10
-250.03150000162412
20
-123.03429387503691
42
-0.41421356237313667
10
-250.53150000162415
20
-123.53429387503692
10
-263.53150000162418
20
-123.53429387503692
42
-0.4142135623730846
10
-264.03150000162418
20
-123.03429387503692
10
-264.03150000162412
20
-110.03429387503694
42
-0.41421356237310542
0
LWPOLYLINE
5
140
100
AcDbEntity
8
0
100
AcDbPolyline
90
8
70
1
43
0.0
10
-282.58150000162414
20
-109.53429387503695
10
-269.58150000162414
20
-109.53429387503692
42
-0.41421356237313667
10
-269.08150000162414
20
-110.03429387503694
10
-269.08150000162414
20
-123.03429387503692
42
-0.41421356237309503
10
-269.58150000162414
20
-123.53429387503694
10
-282.58150000162414
20
-123.53429387503697
42
-0.41421356237310542
10
-283.08150000162419
20
-123.03429387503695
10
-283.08150000162419
20
-110.03429387503695
42
-0.4142135623730846
0
LWPOLYLINE
5
141
100
AcDbEntity
8
0
100
AcDbPolyline
90
8
70
1
43
0.0
10
-16.381500001624204
20
-23.021793875036639
10
-16.381500001624218
20
-10.02179387503663
42
-0.41421356237309243
10
-15.881500001624218
20
-9.5217938750366358
10
-2.8815000016242176
20
-9.5217938750366233
42
-0.41421356237309537
10
-2.3815000016242167
20
-10.021793875036625
10
-2.3815000016242047
20
-23.021793875036632
42
-0.4142135623730957
10
-2.8815000016242043
20
-23.521793875036629
10
-15.881500001624204
20
-23.521793875036639
42
-0.41421356237309631
0
LWPOLYLINE
5
142
100
AcDbEntity
8
0
100
AcDbPolyline
90
8
70
1
43
0.0
10
-302.1315000016242
20
-23.021793875036913
10
-302.1315000016242
20
-10.021793875036902
42
-0.41421356237313273
10
-301.6315000016242
20
-9.5217938750368951
10
-288.6315000016242
20
-9.5217938750368596
42
-0.41421356237302609
10
-288.1315000016242
20
-10.021793875036892
10
-288.13150000162415
20
-23.021793875036902
42
-0.41421356237313145
10
-288.63150000162415
20
-23.521793875036906
10
-301.6315000016242
20
-23.521793875036909
42
-0.41421356237304818
0
LWPOLYLINE
5
143
100
AcDbEntity
8
0
100
AcDbPolyline
90
8
70
1
43
0.0
10
-16.381500001624183
20
-46.83429387503665
10
-16.381500001624197
20
-33.834293875036643
42
-0.41421356237308854
10
-15.881500001624197
20
-33.334293875036643
10
-2.8815000016241954
20
-33.334293875036636
42
-0.41421356237309598
10
-2.3815000016241967
20
-33.834293875036636
10
-2.3815000016241807
20
-46.834293875036643
42
-0.41421356237309176
10
-2.8815000016241821
20
-47.334293875036629
10
-15.881500001624183
20
-47.334293875036636
42
-0.41421356237309764
0
LWPOLYLINE
5
144
100
AcDbEntity
8
0
100
AcDbPolyline
90
8
70
1
43
0.0
10
-34.931500001624201
20
-33.334293875036664
10
-21.931500001624194
20
-33.33429387503665
42
-0.41421356237309503
10
-21.431500001624197
20
-33.83429387503665
10
-21.431500001624183
20
-46.83429387503665
42
-0.41421356237309243
10
-21.931500001624187
20
-47.33429387503665
10
-34.931500001624187
20
-47.334293875036657
42
-0.41421356237309764
10
-35.431500001624187
20
-46.834293875036664
10
-35.431500001624194
20
-33.834293875036664
42
-0.41421356237309503
0
LWPOLYLINE
5
145
100
AcDbEntity
8
0
100
AcDbPolyline
90
8
70
1
43
0.0
10
-53.981500001624205
20
-33.334293875036678
10
-40.981500001624198
20
-33.334293875036664
42
-0.41421356237309764
10
-40.481500001624198
20
-33.834293875036671
10
-40.481500001624184
20
-46.834293875036678
42
-0.41421356237310025
10
-40.981500001624184
20
-47.334293875036664
10
-53.981500001624184
20
-47.334293875036686
42
-0.41421356237310542
10
-54.481500001624184
20
-46.834293875036686
10
-54.481500001624198
20
-33.834293875036678
42
-0.41421356237309764
0
LWPOLYLINE
5
146
100
AcDbEntity
8
0
100
AcDbPolyline
90
8
70
1
43
0.0
10
-111.1315000016242
20
-33.334293875036735
10
-98.131500001624204
20
-33.334293875036735
42
-0.41421356237310542
10
-97.63150000162419
20
-33.834293875036721
10
-97.63150000162419
20
-46.834293875036728
42
-0.41421356237309503
10
-98.131500001624204
20
-47.334293875036728
10
-111.1315000016242
20
-47.334293875036728
42
-0.41421356237310542
10
-111.6315000016242
20
-46.834293875036735
10
-111.6315000016242
20
-33.834293875036735
42
-0.41421356237309243
0
LWPOLYLINE
5
147
100
AcDbEntity
8
0
100
AcDbPolyline
90
8
70
1
43
0.0
10
-116.6815000016242
20
-33.834293875036742
42
0.41421356237310542
10
-117.18150000162422
20
-33.334293875036749
10
-130.18150000162419
20
-33.334293875036742
42
0.41421356237309243
10
-130.68150000162422
20
-33.834293875036749
10
-130.68150000162419
20
-46.834293875036757
42
0.41421356237310542
10
-130.18150000162419
20
-47.334293875036749
10
-117.18150000162422
20
-47.334293875036749
42
0.41421356237309503
10
-116.68150000162419
20
-46.834293875036749
0
LWPOLYLINE
5
148
100
AcDbEntity
8
0
100
AcDbPolyline
90
8
70
1
43
0.0
10
-73.031500001624195
20
-33.3342938750367
10
-60.031500001624202
20
-33.334293875036693
42
-0.41421356237309503
10
-59.531500001624202
20
-33.834293875036686
10
-59.531500001624181
20
-46.834293875036693
42
-0.41421356237308982
10
-60.031500001624181
20
-47.334293875036686
10
-73.031500001624181
20
-47.3342938750367
42
-0.41421356237310542
10
-73.531500001624181
20
-46.834293875036707
10
-73.531500001624181
20
-33.834293875036693
42
-0.41421356237309764
0
LWPOLYLINE
5
149
100
AcDbEntity
8
0
100
AcDbPolyline
90
8
70
1
43
0.0
10
-168.28150000162421
20
-33.334293875036785
10
-155.28150000162424
20
-33.334293875036778
42
-0.41421356237310025
10
-154.78150000162424
20
-33.834293875036778
10
-154.78150000162424
20
-46.834293875036785
42
-0.41421356237307422
10
-155.28150000162421
20
-47.334293875036778
10
-168.28150000162421
20
-47.334293875036764
42
-0.41421356237307422
10
-168.78150000162421
20
-46.834293875036792
10
-168.78150000162421
20
-33.834293875036785
42
-0.41421356237313145
0
LWPOLYLINE
5
150
100
AcDbEntity
8
0
100
AcDbPolyline
90
8
70
1
43
0.0
10
-187.33150000162419
20
-33.334293875036792
10
-174.33150000162419
20
-33.334293875036799
42
-0.41421356237304563
10
-173.83150000162419
20
-33.834293875036792
10
-173.83150000162416
20
-46.834293875036799
42
-0.41421356237312101
10
-174.33150000162419
20
-47.334293875036799
10
-187.33150000162419
20
-47.334293875036835
42
-0.4142135623730222
10
-187.83150000162419
20
-46.834293875036806
10
-187.83150000162419
20
-33.834293875036806
42
-0.41421356237310025
0
LWPOLYLINE
5
151
100
AcDbEntity
8
0
100
AcDbPolyline
90
8
70
1
43
0.0
10
-149.7315000016242
20
-46.834293875036778
10
-149.7315000016242
20
-33.834293875036764
42
-0.41421356237309243
10
-149.2315000016242
20
-33.334293875036764
10
-136.23150000162423
20
-33.334293875036764
42
-0.41421356237310025
10
-135.73150000162423
20
-33.834293875036757
10
-135.73150000162423
20
-46.834293875036764
42
-0.41421356237307422
10
-136.2315000016242
20
-47.334293875036764
10
-149.2315000016242
20
-47.334293875036764
42
-0.41421356237310542
0
LWPOLYLINE
5
152
100
AcDbEntity
8
0
100
AcDbPolyline
90
8
70
1
43
0.0
10
-206.38150000162423
20
-33.334293875036821
10
-193.3815000016242
20
-33.334293875036821
42
-0.41421356237304563
10
-192.8815000016242
20
-33.834293875036813
10
-192.88150000162418
20
-46.834293875036821
42
-0.41421356237312101
10
-193.3815000016242
20
-47.334293875036821
10
-206.38150000162423
20
-47.334293875036799
42
-0.41421356237307422
10
-206.88150000162423
20
-46.834293875036828
10
-206.88150000162423
20
-33.834293875036821
42
-0.41421356237313145
0
LWPOLYLINE
5
153
100
AcDbEntity
8
0
100
AcDbPolyline
90
8
70
1
43
0.0
10
-92.081500001624192
20
-33.334293875036707
10
-79.081500001624192
20
-33.334293875036707
42
-0.41421356237308982
10
-78.581500001624192
20
-33.834293875036707
10
-78.581500001624178
20
-46.834293875036714
42
-0.41421356237308982
10
-79.081500001624178
20
-47.3342938750367
10
-92.081500001624192
20
-47.334293875036707
42
-0.41421356237310542
10
-92.581500001624192
20
-46.834293875036721
10
-92.581500001624192
20
-33.834293875036714
42
-0.41421356237309243
0
LWPOLYLINE
5
154
100
AcDbEntity
8
0
100
AcDbPolyline
90
8
70
1
43
0.0
10
-225.43150000162422
20
-33.334293875036835
10
-212.43150000162419
20
-33.334293875036856
42
-0.41421356237307683
10
-211.93150000162419
20
-33.834293875036828
10
-211.93150000162419
20
-46.834293875036835
42
-0.41421356237313145
10
-212.43150000162419
20
-47.334293875036835
10
-225.43150000162422
20
-47.33429387503687
42
-0.4142135623730222
10
-225.93150000162422
20
-46.834293875036849
10
-225.93150000162422
20
-33.834293875036835
42
-0.41421356237310025
0
LWPOLYLINE
5
155
100
AcDbEntity
8
0
100
AcDbPolyline
90
8
70
1
43
0.0
10
-301.6315000016242
20
-33.334293875036906
10
-288.63150000162415
20
-33.334293875036927
42
-0.41421356237307683
10
-288.13150000162415
20
-33.834293875036899
10
-288.13150000162415
20
-46.834293875036906
42
-0.41421356237313145
10
-288.63150000162415
20
-47.334293875036906
10
-301.6315000016242
20
-47.334293875036941
42
-0.4142135623730222
10
-302.1315000016242
20
-46.83429387503692
10
-302.1315000016242
20
-33.834293875036906
42
-0.41421356237310025
0
LWPOLYLINE
5
156
100
AcDbEntity
8
0
100
AcDbPolyline
90
8
70
1
43
0.0
10
-20.644000001624182
20
-52.384293875036661
10
-7.6440000016241783
20
-52.384293875036654
42
-0.41421356237309631
10
-7.1440000016241791
20
-52.884293875036654
10
-7.1440000016241694
20
-65.884293875036661
42
-0.41421356237308854
10
-7.6440000016241649
20
-66.384293875036647
10
-20.644000001624168
20
-66.384293875036647
42
-0.41421356237310025
10
-21.144000001624171
20
-65.884293875036661
10
-21.144000001624178
20
-52.884293875036654
42
-0.41421356237308982
0
LWPOLYLINE
5
157
100
AcDbEntity
8
0
100
AcDbPolyline
90
8
70
1
43
0.0
10
-244.48150000162423
20
-33.334293875036856
10
-231.4815000016242
20
-33.33429387503687
42
-0.41421356237307683
10
-230.9815000016242
20
-33.834293875036849
10
-230.9815000016242
20
-46.834293875036856
42
-0.41421356237313145
10
-231.4815000016242
20
-47.334293875036849
10
-244.48150000162423
20
-47.334293875036892
42
-0.4142135623730222
10
-244.98150000162423
20
-46.834293875036863
10
-244.98150000162417
20
-33.834293875036856
42
-0.41421356237310025
0
LWPOLYLINE
5
158
100
AcDbEntity
8
0
100
AcDbPolyline
90
8
70
1
43
0.0
10
-44.456500001624178
20
-52.38429387503669
10
-31.456500001624185
20
-52.384293875036683
42
-0.41421356237310025
10
-30.956500001624182
20
-52.884293875036676
10
-30.956500001624171
20
-65.884293875036676
42
-0.41421356237308982
10
-31.456500001624171
20
-66.384293875036661
10
-44.456500001624164
20
-66.38429387503669
42
-0.41421356237309503
10
-44.956500001624164
20
-65.88429387503669
10
-44.956500001624178
20
-52.884293875036683
42
-0.41421356237310025
0
LWPOLYLINE
5
159
100
AcDbEntity
8
0
100
AcDbPolyline
90
8
70
1
43
0.0
10
-196.85650000162423
20
-52.384293875036825
10
-183.85650000162423
20
-52.384293875036789
42
-0.4142135623730222
10
-183.3565000016242
20
-52.884293875036818
10
-183.35650000162417
20
-65.884293875036818
42
-0.41421356237312623
10
-183.85650000162417
20
-66.384293875036818
10
-196.85650000162417
20
-66.38429387503686
42
-0.4142135623730222
10
-197.3565000016242
20
-65.884293875036832
10
-197.35650000162423
20
-52.884293875036825
42
-0.41421356237313145
0
LWPOLYLINE
5
160
100
AcDbEntity
8
0
100
AcDbPolyline
90
8
70
1
43
0.0
10
-120.65650000162418
20
-52.384293875036754
10
-107.65650000162418
20
-52.384293875036732
42
-0.41421356237310542
10
-107.1565000016242
20
-52.884293875036747
10
-107.15650000162418
20
-65.884293875036747
42
-0.414213562373069
10
-107.65650000162418
20
-66.384293875036747
10
-120.65650000162418
20
-66.384293875036761
42
-0.41421356237308982
10
-121.15650000162418
20
-65.884293875036761
10
-121.15650000162418
20
-52.884293875036754
42
-0.41421356237309503
0
LWPOLYLINE
5
161
100
AcDbEntity
8
0
100
AcDbPolyline
90
8
70
1
43
0.0
10
-139.70650000162416
20
-52.384293875036775
10
-126.70650000162418
20
-52.384293875036775
42
-0.41421356237310542
10
-126.20650000162416
20
-52.884293875036761
10
-126.20650000162416
20
-65.884293875036775
42
-0.41421356237308982
10
-126.70650000162418
20
-66.384293875036761
10
-139.70650000162414
20
-66.384293875036775
42
-0.41421356237310025
10
-140.20650000162416
20
-65.884293875036775
10
-140.20650000162416
20
-52.884293875036768
42
-0.41421356237307422
0
LWPOLYLINE
5
162
100
AcDbEntity
8
0
100
AcDbPolyline
90
8
70
1
43
0.0
10
-101.60650000162418
20
-52.384293875036732
10
-88.60650000162417
20
-52.384293875036718
42
-0.41421356237310542
10
-88.106500001624184
20
-52.884293875036725
10
-88.10650000162417
20
-65.884293875036732
42
-0.414213562373069
10
-88.60650000162417
20
-66.384293875036732
10
-101.60650000162417
20
-66.384293875036747
42
-0.41421356237310025
10
-102.10650000162417
20
-65.884293875036747
10
-102.10650000162417
20
-52.884293875036732
42
-0.41421356237307422
0
LWPOLYLINE
5
163
100
AcDbEntity
8
0
100
AcDbPolyline
90
8
70
1
43
0.0
10
-82.556500001624187
20
-52.384293875036725
10
-69.556500001624187
20
-52.384293875036711
42
-0.41421356237308982
10
-69.056500001624187
20
-52.884293875036704
10
-69.056500001624173
20
-65.884293875036718
42
-0.41421356237308982
10
-69.556500001624173
20
-66.384293875036704
10
-82.556500001624187
20
-66.384293875036718
42
-0.41421356237308982
10
-83.056500001624187
20
-65.884293875036718
10
-83.056500001624173
20
-52.884293875036718
42
-0.41421356237309503
0
LWPOLYLINE
5
164
100
AcDbEntity
8
0
100
AcDbPolyline
90
8
70
1
43
0.0
10
-158.75650000162418
20
-52.384293875036796
10
-145.7565000016242
20
-52.384293875036789
42
-0.41421356237310542
10
-145.25650000162418
20
-52.884293875036775
10
-145.25650000162418
20
-65.884293875036789
42
-0.41421356237308982
10
-145.7565000016242
20
-66.384293875036789
10
-158.75650000162415
20
-66.384293875036789
42
-0.41421356237310025
10
-159.25650000162418
20
-65.884293875036789
10
-159.25650000162418
20
-52.884293875036789
42
-0.41421356237307422
0
LWPOLYLINE
5
165
100
AcDbEntity
8
0
100
AcDbPolyline
90
8
70
1
43
0.0
10
-63.506500001624183
20
-52.384293875036711
10
-50.50650000162419
20
-52.38429387503669
42
-0.41421356237310542
10
-50.00650000162419
20
-52.88429387503669
10
-50.006500001624168
20
-65.88429387503669
42
-0.41421356237308982
10
-50.506500001624168
20
-66.38429387503669
10
-63.506500001624168
20
-66.384293875036704
42
-0.41421356237309503
10
-64.006500001624161
20
-65.884293875036704
10
-64.006500001624175
20
-52.884293875036697
42
-0.41421356237308982
0
LWPOLYLINE
5
166
100
AcDbEntity
8
0
100
AcDbPolyline
90
8
70
1
43
0.0
10
-164.30650000162419
20
-52.884293875036796
42
0.4142135623730222
10
-164.80650000162422
20
-52.384293875036775
10
-177.80650000162416
20
-52.384293875036803
42
0.41421356237312101
10
-178.30650000162416
20
-52.884293875036803
10
-178.30650000162416
20
-65.884293875036818
42
0.41421356237307422
10
-177.80650000162413
20
-66.384293875036803
10
-164.80650000162416
20
-66.384293875036803
42
0.41421356237312623
10
-164.30650000162419
20
-65.884293875036803
0
LWPOLYLINE
5
167
100
AcDbEntity
8
0
100
AcDbPolyline
90
8
70
1
43
0.0
10
-215.90650000162424
20
-52.384293875036846
10
-202.90650000162424
20
-52.384293875036803
42
-0.4142135623730222
10
-202.40650000162421
20
-52.884293875036832
10
-202.40650000162418
20
-65.884293875036832
42
-0.41421356237312623
10
-202.90650000162418
20
-66.384293875036832
10
-215.90650000162418
20
-66.384293875036875
42
-0.4142135623730222
10
-216.40650000162421
20
-65.884293875036846
10
-216.40650000162424
20
-52.884293875036839
42
-0.41421356237313145
0
LWPOLYLINE
5
168
100
AcDbEntity
8
0
100
AcDbPolyline
90
8
70
1
43
0.0
10
-49.219000001624167
20
-71.434293875036701
10
-36.219000001624167
20
-71.434293875036701
42
-0.41421356237310025
10
-35.71900000162416
20
-71.934293875036687
10
-35.71900000162416
20
-84.934293875036687
42
-0.41421356237311585
10
-36.219000001624153
20
-85.434293875036715
10
-49.219000001624153
20
-85.434293875036715
42
-0.41421356237307944
10
-49.719000001624153
20
-84.93429387503673
10
-49.719000001624167
20
-71.934293875036715
42
-0.41421356237310542
0
LWPOLYLINE
5
169
100
AcDbEntity
8
0
100
AcDbPolyline
90
8
70
1
43
0.0
10
-302.13150000162415
20
-65.884293875036931
10
-302.1315000016242
20
-52.884293875036917
42
-0.41421356237311585
10
-301.6315000016242
20
-52.384293875036924
10
-288.63150000162415
20
-52.384293875036938
42
-0.41421356237307422
10
-288.13150000162415
20
-52.88429387503691
10
-288.13150000162409
20
-65.884293875036917
42
-0.41421356237312101
10
-288.63150000162415
20
-66.384293875036917
10
-301.63150000162415
20
-66.384293875036903
42
-0.41421356237307422
0
LWPOLYLINE
5
170
100
AcDbEntity
8
0
100
AcDbPolyline
90
8
70
1
43
0.0
10
-254.0065000016242
20
-52.384293875036875
10
-241.0065000016242
20
-52.384293875036896
42
-0.41421356237307422
10
-240.5065000016242
20
-52.884293875036867
10
-240.50650000162415
20
-65.884293875036875
42
-0.41421356237311585
10
-241.00650000162418
20
-66.384293875036875
10
-254.00650000162418
20
-66.38429387503686
42
-0.41421356237307422
10
-254.5065000016242
20
-65.884293875036889
10
-254.50650000162426
20
-52.884293875036875
42
-0.41421356237312101
0
LWPOLYLINE
5
171
100
AcDbEntity
8
0
100
AcDbPolyline
90
8
70
1
43
0.0
10
-68.269000001624164
20
-71.434293875036715
10
-55.269000001624171
20
-71.434293875036701
42
-0.41421356237310542
10
-54.769000001624171
20
-71.934293875036701
10
-54.76900000162415
20
-84.934293875036701
42
-0.4142135623730846
10
-55.26900000162415
20
-85.43429387503673
10
-68.269000001624136
20
-85.434293875036758
42
-0.41421356237310025
10
-68.76900000162415
20
-84.934293875036744
10
-68.769000001624164
20
-71.93429387503673
42
-0.41421356237310542
0
LWPOLYLINE
5
172
100
AcDbEntity
8
0
100
AcDbPolyline
90
8
70
1
43
0.0
10
-234.95650000162419
20
-52.38429387503686
10
-221.95650000162419
20
-52.384293875036875
42
-0.41421356237307422
10
-221.45650000162419
20
-52.884293875036846
10
-221.45650000162414
20
-65.88429387503686
42
-0.41421356237311585
10
-221.95650000162416
20
-66.38429387503686
10
-234.95650000162416
20
-66.384293875036832
42
-0.41421356237307422
10
-235.45650000162419
20
-65.88429387503686
10
-235.45650000162425
20
-52.88429387503686
42
-0.41421356237312101
0
LWPOLYLINE
5
173
100
AcDbEntity
8
0
100
AcDbPolyline
90
8
70
1
43
0.0
10
-87.319000001624175
20
-71.43429387503673
10
-74.319000001624161
20
-71.434293875036715
42
-0.41421356237308982
10
-73.819000001624175
20
-71.934293875036715
10
-73.819000001624161
20
-84.934293875036701
42
-0.41421356237310025
10
-74.319000001624161
20
-85.434293875036758
10
-87.319000001624147
20
-85.434293875036772
42
-0.41421356237306384
10
-87.819000001624175
20
-84.934293875036758
10
-87.819000001624161
20
-71.934293875036744
42
-0.4142135623730846
0
LWPOLYLINE
5
174
100
AcDbEntity
8
0
100
AcDbPolyline
90
8
70
1
43
0.0
10
-111.91900000162417
20
-71.934293875036758
42
0.41421356237310542
10
-112.41900000162417
20
-71.434293875036758
10
-125.41900000162416
20
-71.434293875036758
42
0.4142135623730846
10
-125.91900000162418
20
-71.934293875036786
10
-125.91900000162417
20
-84.934293875036801
42
0.4142135623730534
10
-125.41900000162416
20
-85.434293875036801
10
-112.41900000162417
20
-85.434293875036786
42
0.41421356237310542
10
-111.91900000162414
20
-84.934293875036758
0
LWPOLYLINE
5
175
100
AcDbEntity
8
0
100
AcDbPolyline
90
8
70
1
43
0.0
10
-182.56900000162418
20
-71.434293875036815
10
-169.56900000162418
20
-71.434293875036843
42
-0.41421356237307422
10
-169.06900000162415
20
-71.934293875036815
10
-169.06900000162415
20
-84.934293875036815
42
-0.41421356237310542
10
-169.56900000162418
20
-85.434293875036843
10
-182.56900000162418
20
-85.434293875036872
42
-0.41421356237310542
10
-183.06900000162418
20
-84.934293875036843
10
-183.0690000016242
20
-71.934293875036829
42
-0.41421356237313145
0
LWPOLYLINE
5
176
100
AcDbEntity
8
0
100
AcDbPolyline
90
8
70
1
43
0.0
10
-201.61900000162416
20
-71.434293875036829
10
-188.61900000162416
20
-71.434293875036801
42
-0.4142135623730222
10
-188.11900000162413
20
-71.934293875036829
10
-188.11900000162416
20
-84.934293875036829
42
-0.41421356237311585
10
-188.61900000162416
20
-85.434293875036857
10
-201.61900000162416
20
-85.434293875036872
42
-0.41421356237309503
10
-202.11900000162416
20
-84.934293875036872
10
-202.11900000162416
20
-71.934293875036857
42
-0.41421356237314189
0
LWPOLYLINE
5
177
100
AcDbEntity
8
0
100
AcDbPolyline
90
8
70
1
43
0.0
10
-220.66900000162417
20
-71.434293875036843
10
-207.66900000162417
20
-71.434293875036815
42
-0.4142135623730222
10
-207.16900000162414
20
-71.934293875036843
10
-207.16900000162411
20
-84.934293875036843
42
-0.41421356237309503
10
-207.66900000162417
20
-85.434293875036872
10
-220.66900000162417
20
-85.4342938750369
42
-0.41421356237313667
10
-221.16900000162417
20
-84.934293875036886
10
-221.16900000162417
20
-71.934293875036872
42
-0.41421356237314189
0
LWPOLYLINE
5
178
100
AcDbEntity
8
0
100
AcDbPolyline
90
8
70
1
43
0.0
10
-163.51900000162416
20
-71.434293875036801
10
-150.51900000162416
20
-71.434293875036801
42
-0.41421356237310542
10
-150.01900000162414
20
-71.934293875036786
10
-150.01900000162414
20
-84.934293875036801
42
-0.41421356237310542
10
-150.51900000162416
20
-85.434293875036815
10
-163.51900000162416
20
-85.434293875036815
42
-0.4142135623730846
10
-164.01900000162416
20
-84.934293875036829
10
-164.01900000162419
20
-71.934293875036815
42
-0.41421356237313145
0
LWPOLYLINE
5
179
100
AcDbEntity
8
0
100
AcDbPolyline
90
8
70
1
43
0.0
10
-92.869000001624158
20
-71.93429387503673
42
0.41421356237310542
10
-93.369000001624158
20
-71.434293875036744
10
-106.36900000162416
20
-71.434293875036744
42
0.41421356237310542
10
-106.86900000162419
20
-71.934293875036758
10
-106.86900000162417
20
-84.934293875036786
42
0.41421356237309503
10
-106.36900000162416
20
-85.434293875036786
10
-93.369000001624158
20
-85.434293875036772
42
0.4142135623730846
10
-92.86900000162413
20
-84.934293875036744
0
LWPOLYLINE
5
180
100
AcDbEntity
8
0
100
AcDbPolyline
90
8
70
1
43
0.0
10
-144.46900000162418
20
-71.434293875036786
10
-131.46900000162418
20
-71.434293875036786
42
-0.41421356237310542
10
-130.96900000162418
20
-71.934293875036772
10
-130.96900000162418
20
-84.934293875036786
42
-0.4142135623730846
10
-131.46900000162418
20
-85.434293875036801
10
-144.46900000162418
20
-85.434293875036815
42
-0.41421356237307422
10
-144.96900000162418
20
-84.934293875036815
10
-144.96900000162415
20
-71.934293875036801
42
-0.4142135623730846
0
LWPOLYLINE
5
181
100
AcDbEntity
8
0
100
AcDbPolyline
90
8
70
1
43
0.0
10
-239.71900000162418
20
-71.434293875036872
10
-226.71900000162418
20
-71.434293875036843
42
-0.4142135623730222
10
-226.21900000162415
20
-71.934293875036857
10
-226.21900000162418
20
-84.934293875036872
42
-0.41421356237311585
10
-226.71900000162418
20
-85.4342938750369
10
-239.71900000162418
20
-85.434293875036914
42
-0.41421356237309503
10
-240.21900000162418
20
-84.9342938750369
10
-240.21900000162418
20
-71.934293875036886
42
-0.41421356237314189
0
LWPOLYLINE
5
182
100
AcDbEntity
8
0
100
AcDbPolyline
90
8
70
1
43
0.0
10
-301.63150000162415
20
-71.434293875036929
10
-288.63150000162415
20
-71.434293875036886
42
-0.4142135623730222
10
-288.13150000162415
20
-71.934293875036914
10
-288.13150000162409
20
-84.934293875036929
42
-0.41421356237309503
10
-288.63150000162415
20
-85.434293875036943
10
-301.63150000162415
20
-85.434293875036957
42
-0.41421356237313667
10
-302.13150000162415
20
-84.934293875036957
10
-302.13150000162415
20
-71.934293875036943
42
-0.41421356237314189
0
LWPOLYLINE
5
183
100
AcDbEntity
8
0
100
AcDbPolyline
90
8
70
1
43
0.0
10
-192.09400000162418
20
-90.484293875036826
10
-179.09400000162418
20
-90.484293875036812
42
-0.41421356237313667
10
-178.59400000162418
20
-90.984293875036826
10
-178.5940000016241
20
-103.98429387503683
42
-0.41421356237309503
10
-179.09400000162412
20
-104.48429387503685
10
-192.09400000162415
20
-104.48429387503687
42
-0.41421356237313667
10
-192.59400000162415
20
-103.98429387503685
10
-192.59400000162424
20
-90.984293875036855
42
-0.41421356237309503
0
LWPOLYLINE
5
184
100
AcDbEntity
8
0
100
AcDbPolyline
90
8
70
1
43
0.0
10
-153.99400000162413
20
-90.484293875036798
10
-140.99400000162413
20
-90.484293875036769
42
-0.41421356237307422
10
-140.49400000162413
20
-90.984293875036784
10
-140.49400000162413
20
-103.9842938750368
42
-0.41421356237306384
10
-140.99400000162413
20
-104.48429387503681
10
-153.99400000162413
20
-104.48429387503683
42
-0.41421356237307422
10
-154.49400000162416
20
-103.98429387503683
10
-154.49400000162416
20
-90.984293875036826
42
-0.41421356237306384
0
LWPOLYLINE
5
185
100
AcDbEntity
8
0
100
AcDbPolyline
90
8
70
1
43
0.0
10
-134.94400000162415
20
-90.484293875036769
10
-121.94400000162416
20
-90.484293875036755
42
-0.4142135623730534
10
-121.44400000162415
20
-90.984293875036769
10
-121.44400000162415
20
-103.98429387503677
42
-0.4142135623730846
10
-121.94400000162416
20
-104.4842938750368
10
-134.94400000162415
20
-104.48429387503681
42
-0.41421356237307422
10
-135.44400000162415
20
-103.98429387503681
10
-135.44400000162415
20
-90.984293875036798
42
-0.41421356237310542
0
LWPOLYLINE
5
186
100
AcDbEntity
8
0
100
AcDbPolyline
90
8
70
1
43
0.0
10
-96.844000001624138
20
-90.484293875036741
10
-83.844000001624138
20
-90.484293875036727
42
-0.4142135623730534
10
-83.344000001624124
20
-90.984293875036727
10
-83.344000001624124
20
-103.98429387503674
42
-0.4142135623730846
10
-83.844000001624138
20
-104.48429387503677
10
-96.844000001624138
20
-104.48429387503678
42
-0.4142135623730534
10
-97.344000001624153
20
-103.98429387503677
10
-97.344000001624153
20
-90.984293875036769
42
-0.4142135623730846
0
LWPOLYLINE
5
187
100
AcDbEntity
8
0
100
AcDbPolyline
90
8
70
1
43
0.0
10
-77.794000001624141
20
-90.484293875036727
10
-64.794000001624156
20
-90.484293875036713
42
-0.41421356237309503
10
-64.294000001624141
20
-90.984293875036713
10
-64.294000001624141
20
-103.98429387503671
42
-0.41421356237307944
10
-64.794000001624127
20
-104.48429387503674
10
-77.794000001624127
20
-104.48429387503677
42
-0.41421356237310025
10
-78.294000001624141
20
-103.98429387503676
10
-78.294000001624156
20
-90.984293875036741
42
-0.4142135623730846
0
LWPOLYLINE
5
188
100
AcDbEntity
8
0
100
AcDbPolyline
90
8
70
1
43
0.0
10
-173.04400000162417
20
-90.484293875036812
10
-160.0440000016242
20
-90.484293875036812
42
-0.4142135623730846
10
-159.54400000162417
20
-90.984293875036798
10
-159.54400000162411
20
-103.98429387503681
42
-0.41421356237310542
10
-160.04400000162411
20
-104.48429387503683
10
-173.04400000162414
20
-104.48429387503685
42
-0.41421356237309503
10
-173.54400000162414
20
-103.98429387503684
10
-173.54400000162414
20
-90.98429387503684
42
-0.41421356237311585
0
LWPOLYLINE
5
189
100
AcDbEntity
8
0
100
AcDbPolyline
90
8
70
1
43
0.0
10
-115.89400000162414
20
-90.484293875036755
10
-102.89400000162415
20
-90.484293875036741
42
-0.41421356237307422
10
-102.39400000162414
20
-90.984293875036741
10
-102.39400000162414
20
-103.98429387503676
42
-0.41421356237306384
10
-102.89400000162415
20
-104.48429387503678
10
-115.89400000162414
20
-104.4842938750368
42
-0.41421356237309503
10
-116.39400000162414
20
-103.9842938750368
10
-116.39400000162414
20
-90.984293875036784
42
-0.4142135623730846
0
LWPOLYLINE
5
190
100
AcDbEntity
8
0
100
AcDbPolyline
90
70
70
1
43
0.0
10
-203.93150000162396
20
-109.53429387503688
42
0.41421356237307611
10
-203.38150000162392
20
-108.98429387503681
10
-203.38150000162392
20
-107.58429387422744
42
-0.4142135623730383
10
-202.83150000162402
20
-107.03429387422747
10
-195.76250000162389
20
-107.03429387422743
42
-0.41421356237305718
10
-195.21250000162388
20
-107.58429387422743
10
-195.21250000162445
20
-125.05929387503681
42
0.4142135623730846
10
-194.21250000162448
20
-126.05929387503686
10
-185.69150000162395
20
-126.05929387503686
42
0.41421356237308982
10
-184.69150000162392
20
-125.05929387503686
10
-184.69150000162387
20
-107.7342938742274
42
-0.41421356237313289
10
-184.14150000162385
20
-107.18429387422744
10
-177.42450000162387
20
-107.18429387422742
42
-0.41421356237312346
10
-176.87450000162389
20
-107.73429387422736
10
-176.87450000162397
20
-125.05929387503686
42
0.41421356237308982
10
-175.87450000162397
20
-126.05929387503686
10
-90.331500001623908
20
-126.05929387503677
42
0.41421356237310542
10
-89.331500001623908
20
-125.05929387503677
10
-89.331500001623908
20
-107.73429387422725
42
-0.41421356237311396
10
-88.78150000162394
20
-107.18429387422729
10
-77.619000001623874
20
-107.18429387422729
42
-0.41421356237309503
10
-77.069000001623905
20
-107.73429387422725
10
-77.069000001623905
20
-125.05929387503677
42
0.41421356237309764
10
-76.06900000162392
20
-126.05929387503676
10
-43.351289381987563
20
-126.0592938750367
42
-0.26935266418579601
10
-42.482657867545612
20
-126.56383520661089
10
-40.287303766314302
20
-130.41270067050058
42
0.51162832760067856
10
-35.627294287915831
20
-130.41270067053591
10
-33.431940186579546
20
-126.56383520659773
42
-0.26935266418173187
10
-32.563308672145112
20
-126.05929387503672
10
-0.856500001624112
20
-126.05929387503667
42
0.4142135623730952
10
0.14349999837588501
20
-125.05929387503669
10
0.14349999837578092
20
-7.9962938827470786
42
0.41421356237309453
10
-0.85650000162421647
20
-6.9962938827470804
10
-3.9873086721452045
20
-6.9962938827470831
42
-0.26935266418173115
10
-4.8559401865796445
20
-6.491752551186071
10
-7.0512942879159564
20
-2.6428870872479386
42
0.51162832760068022
10
-11.711303766314389
20
-2.642887087283273
10
-13.906657867545686
20
-6.4917525511729117
42
-0.26935266418579573
10
-14.775289381987637
20
-6.9962938827470929
10
-146.86249522289503
20
-6.9962938827472136
42
-0.26935266418173187
10
-147.73112673732948
20
-6.4917525511861989
10
-149.92648083791607
20
-2.6428870885622926
42
0.511628327600676
10
-154.58649031631461
20
-2.6428870885975506
10
-156.78184441679622
20
-6.4917525511730458
42
-0.2693526641857954
10
-157.65047593123819
20
-6.9962938827472252
10
-289.73749522289506
20
-6.9962938827473566
42
-0.26935266418173687
10
-290.60612673732953
20
-6.4917525511863206
10
-292.80148083791613
20
-2.6428870885624272
42
0.51162832760067467
10
-297.46149031631467
20
-2.642887088597667
10
-299.65684441679628
20
-6.49175255117318
42
-0.26935266418579562
10
-300.52547593123825
20
-6.9962938827473611
10
-303.65650000162424
20
-6.9962938827473629
42
0.41421356237310542
10
-304.65650000162429
20
-7.996293882747362
10
-304.65650000162418
20
-125.05929387503697
42
0.41421356237305862
10
-303.65650000162418
20
-126.05929387503696
10
-271.95047593123815
20
-126.05929387503691
42
-0.26935266418579601
10
-271.08184441679617
20
-126.5638352066111
10
-268.88649031631445
20
-130.41270066918662
42
0.51162832760067645
10
-264.22648083791603
20
-130.41270066922183
10
-262.03112673732937
20
-126.56383520659794
42
-0.26935266418173426
10
-261.1624952228949
20
-126.05929387503693
10
-204.2565000016242
20
-126.05929387503687
42
0.41421356237308982
10
-203.2565000016242
20
-125.05929387503686
10
-203.25650000162423
20
-124.53429387503688
42
0.41421356237308982
10
-204.2565000016242
20
-123.53429387503688
10
-208.76275000162411
20
-123.53429387503688
42
-0.41421356237313667
10
-209.26275000162411
20
-123.03429387503687
10
-209.26275000162411
20
-110.03429387503688
42
-0.41421356237309503
10
-208.76275000162411
20
-109.53429387503688
0
ENDSEC
0
SECTION
2
OBJECTS
0
DICTIONARY
5
C
100
AcDbDictionary
3
ACAD_GROUP
350
D
3
ACAD_MLINESTYLE
350
17
0
DICTIONARY
5
D
100
AcDbDictionary
0
DICTIONARY
5
1A
330
C
100
AcDbDictionary
0
DICTIONARY
5
17
100
AcDbDictionary
0
ENDSEC
0
EOF
