0
SECTION
2
HEADER
9
$INSUNITS
70
4
9
$ACADVER
1
AC1014
9
$HANDSEED
5
FFFF
0
ENDSEC
0
SECTION
2
TABLES
0
TABLE
2
VPORT
5
8
100
AcDbSymbolTable
0
ENDTAB
0
TABLE
2
LTYPE
5
5
100
AcDbSymbolTable
0
LTYPE
5
14
100
AcDbSymbolTableRecord
100
AcDbLinetypeTableRecord
2
BYBLOCK
70
0
0
LTYPE
5
15
100
AcDbSymbolTableRecord
100
AcDbLinetypeTableRecord
2
BYLAYER
70
0
0
LTYPE
5
16
100
AcDbSymbolTableRecord
100
AcDbLinetypeTableRecord
2
DASHED
70
0
3
Dashed __ __ __ __ __ __ __ __ __ __ __ __ __ _
72
65
73
2
40
0.75
49
0.5
74
0
49
-0.25
74
0
0
ENDTAB
0
TABLE
2
LAYER
5
2
100
AcDbSymbolTable
70
2
0
LAYER
5
50
100
AcDbSymbolTableRecord
100
AcDbLayerTableRecord
2
0
70
0
62
7
6
CONTINUOUS
0
ENDTAB
0
TABLE
2
STYLE
5
3
100
AcDbSymbolTable
70
1
0
STYLE
5
11
100
AcDbSymbolTableRecord
100
AcDbTextStyleTableRecord
2
STANDARD
70
0
0
ENDTAB
0
TABLE
2
VIEW
5
6
100
AcDbSymbolTable
70
0
0
ENDTAB
0
TABLE
2
UCS
5
7
100
AcDbSymbolTable
70
0
0
ENDTAB
0
TABLE
2
APPID
5
9
100
AcDbSymbolTable
70
2
0
APPID
5
12
100
AcDbSymbolTableRecord
100
AcDbRegAppTableRecord
2
ACAD
70
0
0
ENDTAB
0
TABLE
2
DIMSTYLE
5
A
100
AcDbSymbolTable
70
1
0
ENDTAB
0
TABLE
2
BLOCK_RECORD
5
1
100
AcDbSymbolTable
70
1
0
BLOCK_RECORD
5
1F
100
AcDbSymbolTableRecord
100
AcDbBlockTableRecord
2
*MODEL_SPACE
0
BLOCK_RECORD
5
1B
100
AcDbSymbolTableRecord
100
AcDbBlockTableRecord
2
*PAPER_SPACE
0
ENDTAB
0
ENDSEC
0
SECTION
2
BLOCKS
0
BLOCK
5
20
100
AcDbEntity
100
AcDbBlockBegin
2
*MODEL_SPACE
0
ENDBLK
5
21
100
AcDbEntity
100
AcDbBlockEnd
0
BLOCK
5
1C
100
AcDbEntity
100
AcDbBlockBegin
2
*PAPER_SPACE
0
ENDBLK
5
1D
100
AcDbEntity
100
AcDbBlockEnd
0
ENDSEC
0
SECTION
2
ENTITIES
0
CIRCLE
5
100
100
AcDbEntity
8
0
100
AcDbCircle
10
-24.859624790070782
20
-116.53429572800522
30
4.6629367034256575e-14
40
2.3000000000000016
210
-3.2540265538722992e-19
220
3.7470027081099009e-16
230
1
0
LWPOLYLINE
5
101
100
AcDbEntity
8
0
100
AcDbPolyline
90
8
70
1
43
0.0
10
-20.144000490391903
20
-110.03429381982141
10
-5.7627504903919169
20
-110.03429383510974
42
-0.41421356237308332
10
-5.2627504909234579
20
-110.53429383564125
10
-5.2627505036803175
20
-122.53429383563487
42
-0.41421356237309309
10
-5.7627505042118612
20
-123.03429383510334
10
-20.144000504211846
20
-123.03429381981502
42
-0.41421356237308204
10
-20.644000503680303
20
-122.53429381928349
10
-20.644000490923435
20
-110.53429381928987
42
-0.41421356237310802
0
LWPOLYLINE
5
102
100
AcDbEntity
8
0
100
AcDbPolyline
90
8
70
1
43
0.0
10
-43.95650049039191
20
-110.03429379450699
10
-29.57525049039188
20
-110.03429380979533
42
-0.4142135623730846
10
-29.075250490923423
20
-110.53429381032684
10
-29.075250503680266
20
-122.53429381032103
42
-0.41421356237309503
10
-29.575250504211816
20
-123.03429380978949
10
-43.956500504211853
20
-123.03429379450115
42
-0.41421356237309503
10
-44.45650050368031
20
-122.53429379396962
10
-44.45650049092346
20
-110.53429379397545
42
-0.41421356237309503
0
LWPOLYLINE
5
103
100
AcDbEntity
8
0
100
AcDbPolyline
90
8
70
1
43
0.0
10
-67.769000490391889
20
-110.03429376919257
10
-53.387818049085382
20
-110.03429378448087
42
-0.4142135623730846
10
-52.887818049616925
20
-110.53429378501237
10
-52.887818062373753
20
-122.53429378500714
42
-0.41421356237309503
10
-53.387818062905303
20
-123.03429378447561
10
-67.769000504211832
20
-123.03429376918731
42
-0.41421356237309503
10
-68.269000503680289
20
-122.5342937686558
10
-68.269000490923432
20
-110.53429376866106
42
-0.41421356237310542
0
CIRCLE
5
104
100
AcDbEntity
8
0
100
AcDbCircle
10
-241.55337579007082
20
-116.53429728781282
30
4.6629367034256575e-14
40
2.3000000000000016
210
-3.2540264246253285e-19
220
3.7470027081099009e-16
230
1
0
LWPOLYLINE
5
105
100
AcDbEntity
8
0
100
AcDbPolyline
90
8
70
1
43
0.0
10
-288.63150040991809
20
-34.334293534399769
42
0.41421356237310542
10
-289.1315004093866
20
-33.834293533868234
10
-301.1315004093866
20
-33.83429352111137
42
0.41421356237309243
10
-301.63150040991815
20
-34.334293520579841
10
-301.631500422675
20
-46.334293520579863
42
0.4142135623730846
10
-301.1315004232066
20
-46.834293521111377
10
-289.13150042320655
20
-46.834293533868248
42
0.41421356237308982
10
-288.631500422675
20
-46.334293534399784
0
LWPOLYLINE
5
106
100
AcDbEntity
8
0
100
AcDbPolyline
90
8
70
1
43
0.0
10
-5.2627504504207678
20
-72.434293835641284
42
0.41421356237309631
10
-5.7627504498892312
20
-71.934293835109756
10
-22.525250449889281
20
-71.934293817290012
42
0.41421356237308982
10
-23.02525045042082
20
-72.434293816758455
10
-23.025250463177688
20
-84.43429181675198
42
0.41421356237309764
10
-22.525250463709227
20
-84.934291817283523
10
-5.7627504637091684
20
-84.934291835103295
42
0.41421356237310347
10
-5.2627504631776336
20
-84.434291835634809
0
LWPOLYLINE
5
107
100
AcDbEntity
8
0
100
AcDbPolyline
90
8
70
1
43
0.0
10
-36.219000450420822
20
-72.43429380273254
42
0.41421356237309243
10
-36.719000449889286
20
-71.934293802201012
10
-48.719000449889279
20
-71.934293789444141
42
0.41421356237310025
10
-49.219000450420808
20
-72.434293788912612
10
-49.219000463177672
20
-84.434293788906814
42
0.41421356237309503
10
-48.719000463709214
20
-84.934293789438357
10
-36.719000463709229
20
-84.934293802195242
42
0.41421356237310542
10
-36.219000463177686
20
-84.434293802726756
0
LWPOLYLINE
5
108
100
AcDbEntity
8
0
100
AcDbPolyline
90
8
70
1
43
0.0
10
-31.956500443454402
20
-65.884293807263305
42
0.41421356237308982
10
-31.456500442922867
20
-65.384293807794847
10
-31.456500430165995
20
-53.384293807790129
42
0.41421356237310025
10
-31.956500429634463
20
-52.884293807258594
10
-43.95650042963446
20
-52.88429379450173
42
0.41421356237310025
10
-44.456500430165995
20
-53.384293793970201
10
-44.456500442922874
20
-65.384293793974905
42
0.41421356237310025
10
-43.956500443454409
20
-65.884293794506448
0
LWPOLYLINE
5
109
100
AcDbEntity
8
0
100
AcDbPolyline
90
8
70
1
43
0.0
10
-198.14399947067204
20
-91.484293630594578
42
0.41421356237309503
10
-198.64399947014053
20
-90.98429363006305
10
-210.64399947014053
20
-90.984293617306164
42
0.4142135623730846
10
-211.14399947067204
20
-91.484293616774636
10
-211.1439994834289
20
-103.48429361677246
42
0.41421356237310542
10
-210.64399948396041
20
-103.984293617304
10
-198.6439994839605
20
-103.98429363006089
42
0.41421356237309503
10
-198.14399948342896
20
-103.4842936305924
0
LWPOLYLINE
5
110
100
AcDbEntity
8
0
100
AcDbPolyline
90
8
70
1
43
0.0
10
-288.63150043016947
20
-53.384293534399781
42
0.41421356237310025
10
-289.13150042963798
20
-52.884293533868252
10
-301.13150042963787
20
-52.884293521111417
42
0.41421356237307944
10
-301.63150043016941
20
-53.384293520579867
10
-301.63150044292632
20
-65.384293520579874
42
0.41421356237310542
10
-301.13150044345781
20
-65.884293521111402
10
-289.13150044345781
20
-65.884293533868259
42
0.41421356237308982
10
-288.63150044292627
20
-65.384293534399788
0
LWPOLYLINE
5
111
100
AcDbEntity
8
0
100
AcDbPolyline
90
8
70
1
43
0.0
10
-217.19400049092343
20
-110.53429361034301
42
0.41421356237309503
10
-217.69400049039191
20
-110.03429360981147
10
-232.07525049039185
20
-110.03429359452318
42
0.41421356237307422
10
-232.57525049092337
20
-110.53429359399162
10
-232.57525050368019
20
-122.53429359399018
42
0.41421356237310542
10
-232.07525050421171
20
-123.0342935945217
10
-217.6940005042118
20
-123.03429360981001
42
0.41421356237307422
10
-217.19400050368026
20
-122.53429361034156
0
LWPOLYLINE
5
112
100
AcDbEntity
8
0
100
AcDbPolyline
90
8
70
1
43
0.0
10
-55.269000450420819
20
-72.434293782481035
42
0.41421356237309503
10
-55.769000449889276
20
-71.934293781949506
10
-67.76900044988929
20
-71.934293769192635
42
0.41421356237310025
10
-68.269000450420819
20
-72.434293768661092
10
-68.26900046317769
20
-84.434293768655735
42
0.41421356237309503
10
-67.769000463709233
20
-84.934293769187292
10
-55.769000463709219
20
-84.934293781944177
42
0.41421356237309503
10
-55.26900046317769
20
-84.434293782475706
0
LWPOLYLINE
5
113
100
AcDbEntity
8
0
100
AcDbPolyline
90
8
70
1
43
0.0
10
-8.1440004434607225
20
-65.884293832577711
42
0.41421356237309309
10
-7.6440004429291868
20
-65.384293833109254
10
-7.6440004301723175
20
-53.384293833104309
42
0.41421356237308982
10
-8.1440004296407782
20
-52.884293832572766
10
-20.144000429638112
20
-52.88429381981593
42
0.41421356237308204
10
-20.64400043016964
20
-53.384293819284366
10
-20.644000442926519
20
-65.384293819289326
42
0.41421356237309503
10
-20.144000443458058
20
-65.884293819820854
0
LWPOLYLINE
5
114
100
AcDbEntity
8
0
100
AcDbPolyline
90
8
70
1
43
0.0
10
-288.63150045042073
20
-72.434293534399842
42
0.4142135623730846
10
-289.13150044988919
20
-71.934293533868299
10
-301.13150044988919
20
-71.934293521111442
42
0.41421356237307422
10
-301.63150045042073
20
-72.434293520579885
10
-301.63150046317753
20
-84.434293520579899
42
0.41421356237307422
10
-301.13150046370907
20
-84.934293521111442
10
-289.13150046370913
20
-84.934293533868299
42
0.41421356237307422
10
-288.63150046317759
20
-84.434293534399842
0
LWPOLYLINE
5
115
100
AcDbEntity
8
0
100
AcDbPolyline
90
8
70
1
43
0.0
10
-74.319000450420788
20
-72.434293762229501
42
0.41421356237309503
10
-74.819000449889245
20
-71.934293761697973
10
-86.819000449889288
20
-71.934293748941116
42
0.41421356237307422
10
-87.319000450420816
20
-72.434293748409559
10
-87.319000463177701
20
-84.434293748404642
42
0.41421356237310542
10
-86.819000463709202
20
-84.93429374893617
10
-74.819000463709187
20
-84.934293761693041
42
0.41421356237310542
10
-74.319000463177659
20
-84.434293762224556
0
LWPOLYLINE
5
116
100
AcDbEntity
8
0
100
AcDbPolyline
90
8
70
1
43
0.0
10
-288.63150047067211
20
-91.484293534399796
42
0.41421356237310542
10
-289.13150047014057
20
-90.984293533868254
10
-301.13150047014057
20
-90.984293521111383
42
0.4142135623730846
10
-301.63150047067211
20
-91.484293520579854
10
-301.63150048342891
20
-103.48429352057988
42
0.41421356237309503
10
-301.13150048396045
20
-103.9842935211114
10
-289.13150048396045
20
-103.98429353386828
42
0.4142135623730846
10
-288.63150048342891
20
-103.48429353439981
0
LWPOLYLINE
5
117
100
AcDbEntity
8
0
100
AcDbPolyline
90
8
70
1
43
0.0
10
-93.36899945042083
20
-72.434293741977996
42
0.41421356237309503
10
-93.868999449889287
20
-71.934293741446453
10
-105.8689994498893
20
-71.934293728689568
42
0.41421356237307944
10
-106.36899945042083
20
-72.434293728158025
10
-106.36899946317772
20
-84.434293728153534
42
0.41421356237309503
10
-105.86899946370923
20
-84.934293728685063
10
-93.868999463709244
20
-84.934293741441934
42
0.4142135623730846
10
-93.368999463177715
20
-84.434293741973477
0
LWPOLYLINE
5
118
100
AcDbEntity
8
0
100
AcDbPolyline
90
8
70
1
43
0.0
10
-301.63150050378658
20
-122.63429352057989
42
0.41421356237309503
10
-301.23150050421185
20
-123.03429352100511
10
-289.03150050421181
20
-123.03429353397456
42
0.41421356237308204
10
-288.63150050378658
20
-122.63429353439982
10
-288.6315004908169
20
-110.43429353439976
42
0.41421356237310802
10
-289.03150049039169
20
-110.03429353397456
10
-301.23150049039185
20
-110.03429352100504
42
0.41421356237309503
10
-301.63150049081707
20
-110.43429352057983
0
LWPOLYLINE
5
119
100
AcDbEntity
8
0
100
AcDbPolyline
90
8
70
1
43
0.0
10
-112.41900045042084
20
-72.434293721726434
42
0.41421356237308982
10
-112.9190004498893
20
-71.934293721194905
10
-124.91900044988931
20
-71.934293708438034
42
0.41421356237307944
10
-125.41900045042082
20
-72.434293707906491
10
-125.41900046317771
20
-84.434291707902403
42
0.4142135623730846
10
-124.91900046370924
20
-84.934291708433932
10
-112.91900046370924
20
-84.934291721190817
42
0.4142135623730846
10
-112.41900046317772
20
-84.43429172172236
0
LWPOLYLINE
5
120
100
AcDbEntity
8
0
100
AcDbPolyline
90
8
70
1
43
0.0
10
-131.46900045042082
20
-72.434293701474928
42
0.41421356237310542
10
-131.96900044988931
20
-71.934293700943385
10
-143.96900044988931
20
-71.934293688186528
42
0.41421356237310025
10
-144.46900045042082
20
-72.434293687655014
10
-144.46900046317774
20
-84.434293687651405
42
0.41421356237309503
10
-143.96900046370922
20
-84.934293688182919
10
-131.96900046370925
20
-84.934293700939804
42
0.41421356237309503
10
-131.46900046317771
20
-84.434293701471319
0
LWPOLYLINE
5
121
100
AcDbEntity
8
0
100
AcDbPolyline
90
8
70
1
43
0.0
10
-121.94400147067206
20
-91.484293711598767
42
0.41421356237310542
10
-122.44400147014055
20
-90.98429371106721
10
-134.44400147014053
20
-90.984293698310381
42
0.41421356237307422
10
-134.94400147067208
20
-91.484293697778838
10
-134.94400148342896
20
-103.48429369777882
42
0.41421356237310542
10
-134.44400148396048
20
-103.98429369831034
10
-122.44400148396051
20
-103.98429371106722
42
0.41421356237307422
10
-121.94400148342896
20
-103.48429371159878
0
LWPOLYLINE
5
122
100
AcDbEntity
8
0
100
AcDbPolyline
90
8
70
1
43
0.0
10
-150.51900045042083
20
-72.434293681223409
42
0.41421356237310542
10
-151.01900044988929
20
-71.934293680691866
10
-163.01900044988926
20
-71.934293667935009
42
0.4142135623730846
10
-163.51900045042078
20
-72.434293667403466
10
-163.51900046317763
20
-84.434293667400283
42
0.4142135623730846
10
-163.01900046370918
20
-84.934293667931811
10
-151.01900046370923
20
-84.934293680688725
42
0.41421356237310542
10
-150.51900046317772
20
-84.434293681220225
0
LWPOLYLINE
5
123
100
AcDbEntity
8
0
100
AcDbPolyline
90
8
70
1
43
0.0
10
-117.18150040991817
20
-34.334293716659687
42
0.41421356237310542
10
-117.68150040938666
20
-33.834293716128144
10
-129.68150040938664
20
-33.834293703371287
42
0.4142135623730846
10
-130.18150040991819
20
-34.334293702839744
10
-130.18150042267507
20
-46.334293702843574
42
0.41421356237310542
10
-129.68150042320659
20
-46.834293703375131
10
-117.68150042320659
20
-46.834293716131981
42
0.4142135623730846
10
-117.18150042267507
20
-46.334293716663524
0
LWPOLYLINE
5
124
100
AcDbEntity
8
0
100
AcDbPolyline
90
8
70
1
43
0.0
10
-98.131500409918161
20
-34.334293736910659
42
0.41421356237309503
10
-98.631500409386632
20
-33.834293736379124
10
-110.63150040938666
20
-33.83429372362226
42
0.41421356237308982
10
-111.13150040991819
20
-34.334293723090724
10
-111.13150042267505
20
-46.334293723095101
42
0.41421356237310542
10
-110.63150042320656
20
-46.834293723626658
10
-98.631500423206575
20
-46.834293736383501
42
0.41421356237307944
10
-98.13150042267506
20
-46.33429373691505
0
LWPOLYLINE
5
125
100
AcDbEntity
8
0
100
AcDbPolyline
90
8
70
1
43
0.0
10
-136.2315004099182
20
-34.334293696408537
42
0.41421356237309503
10
-136.73150040938668
20
-33.834293695877001
10
-148.73150040938668
20
-33.834293683120137
42
0.41421356237308721
10
-149.23150040991823
20
-34.334293682588601
10
-149.23150042267511
20
-46.334293682592069
42
0.41421356237310542
10
-148.73150042320663
20
-46.834293683123597
10
-136.73150042320663
20
-46.834293695880461
42
0.4142135623730846
10
-136.23150042267508
20
-46.334293696411997
0
LWPOLYLINE
5
126
100
AcDbEntity
8
0
100
AcDbPolyline
90
8
70
1
43
0.0
10
-40.981499409918172
20
-34.33429379766401
42
0.41421356237309503
10
-41.481499409386629
20
-33.834293797132474
10
-53.481499409386629
20
-33.83429378437561
42
0.41421356237309243
10
-53.981499409918172
20
-34.334293783844068
10
-53.98149942267505
20
-46.334293783849688
42
0.41421356237309503
10
-53.481499423206593
20
-46.834293784381238
10
-41.481499423206586
20
-46.834293797138088
42
0.41421356237309503
10
-40.98149942267505
20
-46.334293797669631
0
LWPOLYLINE
5
127
100
AcDbEntity
8
0
100
AcDbPolyline
90
8
70
1
43
0.0
10
-155.28149940988857
20
-34.334293676098518
42
0.41421356237310542
10
-155.78149940935705
20
-33.834293675566983
10
-167.78149940935705
20
-33.834293662810126
42
0.41421356237309243
10
-168.28149940988857
20
-34.334293662278597
10
-168.28149942264545
20
-46.334293662340542
42
0.4142135623730846
10
-167.781499423177
20
-46.834293662872071
10
-155.781499423177
20
-46.834293675628956
42
0.41421356237310025
10
-155.28149942264545
20
-46.33429367616047
0
LWPOLYLINE
5
128
100
AcDbEntity
8
0
100
AcDbPolyline
90
8
70
1
43
0.0
10
-60.031501409918199
20
-34.334293777412896
42
0.41421356237309243
10
-60.531501409386657
20
-33.834293776881367
10
-72.531501409386664
20
-33.834293764124503
42
0.41421356237310025
10
-73.031501409918192
20
-34.334293763592974
10
-73.031501422675063
20
-46.334293763598168
42
0.41421356237309503
10
-72.531501423206606
20
-46.834293764129704
10
-60.531501423206599
20
-46.834293776886575
42
0.41421356237310025
10
-60.031501422675063
20
-46.334293777418111
0
LWPOLYLINE
5
129
100
AcDbEntity
8
0
100
AcDbPolyline
90
8
70
1
43
0.0
10
-21.931500409918176
20
-34.334293817915082
42
0.41421356237309764
10
-22.43150040938664
20
-33.834293817383539
10
-34.431500409386658
20
-33.834293804626682
42
0.41421356237309503
10
-34.931500409918193
20
-34.334293804095147
10
-34.931500422675057
20
-46.334293804101208
42
0.41421356237309503
10
-34.4315004232066
20
-46.834293804632743
10
-22.431500423206579
20
-46.834293817389614
42
0.41421356237309503
10
-21.931500422675043
20
-46.334293817921157
0
LWPOLYLINE
5
130
100
AcDbEntity
8
0
100
AcDbPolyline
90
8
70
1
43
0.0
10
-174.33150140991813
20
-34.334293655906215
42
0.41421356237310281
10
-174.83150140938662
20
-33.83429365537468
10
-186.83150140938665
20
-33.83429364261783
42
0.41421356237308982
10
-187.33150140991819
20
-34.334293642086294
10
-187.33150142267505
20
-46.334293642089001
42
0.4142135623730846
10
-186.83150142320659
20
-46.834293642620544
10
-174.8315014232065
20
-46.834293655377401
42
0.4142135623730846
10
-174.33150142267496
20
-46.334293655908937
0
LWPOLYLINE
5
131
100
AcDbEntity
8
0
100
AcDbPolyline
90
4
70
1
43
0.0
10
-92.081500409386649
20
-33.83429374334186
10
-79.081500409386649
20
-33.834293757161802
10
-79.081500423206592
20
-46.834293757166577
10
-92.081500423206606
20
-46.834293743346642
0
LWPOLYLINE
5
132
100
AcDbEntity
8
0
100
AcDbPolyline
90
8
70
1
43
0.0
10
-2.8815004099181984
20
-34.334293838166182
42
0.41421356237309764
10
-3.3815004093866641
20
-33.834293837634647
10
-15.381500409386664
20
-33.834293824877776
42
0.41421356237309631
10
-15.8815004099182
20
-34.33429382434624
10
-15.881500422675067
20
-46.334293824352748
42
0.41421356237309631
10
-15.381500423206607
20
-46.834293824884277
10
-3.3815004232066039
20
-46.834293837641148
42
0.41421356237310381
10
-2.8815004226750678
20
-46.33429383817267
0
LWPOLYLINE
5
133
100
AcDbEntity
8
0
100
AcDbPolyline
90
8
70
1
43
0.0
10
-193.38150040991817
20
-34.334293635655285
42
0.4142135623730846
10
-193.8815004093866
20
-33.83429363512375
10
-205.88150040938666
20
-33.834293622366872
42
0.41421356237308721
10
-206.38150040991817
20
-34.334293621835336
10
-206.38150042267506
20
-46.334293621837475
42
0.4142135623730846
10
-205.8815004232066
20
-46.834293622369017
10
-193.88150042320655
20
-46.834293635125881
42
0.41421356237308982
10
-193.381500422675
20
-46.334293635657417
0
LWPOLYLINE
5
134
100
AcDbEntity
8
0
100
AcDbPolyline
90
8
70
1
43
0.0
10
-212.4315004099181
20
-34.33429361540415
42
0.41421356237310281
10
-212.93150040938659
20
-33.834293614872621
10
-224.93150040938662
20
-33.83429360211575
42
0.41421356237308721
10
-225.43150040991816
20
-34.334293601584214
10
-225.43150042267499
20
-46.334293601585955
42
0.4142135623730846
10
-224.93150042320653
20
-46.834293602117484
10
-212.9315004232065
20
-46.834293614874348
42
0.41421356237308982
10
-212.43150042267499
20
-46.334293615405883
0
LWPOLYLINE
5
135
100
AcDbEntity
8
0
100
AcDbPolyline
90
8
70
1
43
0.0
10
-231.98150042320651
20
-46.834293594622835
42
0.4142135623730846
10
-231.481500422675
20
-46.334293595154378
10
-231.48150040991817
20
-34.334293595153007
42
0.41421356237308204
10
-231.9815004093866
20
-33.834293594621478
10
-243.9815004093866
20
-33.834293581864607
42
0.41421356237308721
10
-244.48150040991811
20
-34.334293581333071
10
-244.48150042267497
20
-46.334293581334414
42
0.4142135623730846
10
-243.98150042320651
20
-46.834293581865964
0
LWPOLYLINE
5
136
100
AcDbEntity
8
0
100
AcDbPolyline
90
8
70
1
43
0.0
10
-183.85650043017435
20
-53.384293645791061
42
0.4142135623730846
10
-184.35650042964281
20
-52.884293645259525
10
-196.35650042964275
20
-52.884293632502661
42
0.41421356237308982
10
-196.85650043017432
20
-53.384293631971133
10
-196.85650044293115
20
-65.384293631962692
42
0.41421356237310542
10
-196.35650044346266
20
-65.884293632494234
10
-184.35650044346275
20
-65.884293645251091
42
0.4142135623730846
10
-183.85650044293118
20
-65.384293645782634
0
LWPOLYLINE
5
137
100
AcDbEntity
8
0
100
AcDbPolyline
90
8
70
1
43
0.0
10
-164.80650043016942
20
-53.384293666032463
42
0.41421356237310542
10
-165.30650042963794
20
-52.88429366550092
10
-177.30650042963791
20
-52.884293652744077
42
0.4142135623730846
10
-177.80650043016948
20
-53.384293652212534
10
-177.80650044292628
20
-65.384293652214211
42
0.41421356237310542
10
-177.30650044345779
20
-65.884293652745754
10
-165.30650044345782
20
-65.884293665502611
42
0.41421356237308982
10
-164.80650044292628
20
-65.384293666034154
0
LWPOLYLINE
5
138
100
AcDbEntity
8
0
100
AcDbPolyline
90
8
70
1
43
0.0
10
-126.70650043016951
20
-53.384293706534635
42
0.41421356237310542
10
-127.206500429638
20
-52.884293706003092
10
-139.20650042963803
20
-52.884293693246235
42
0.4142135623730846
10
-139.70650043016954
20
-53.384293692714692
10
-139.7065004429264
20
-65.384293692717264
42
0.41421356237309503
10
-139.20650044345794
20
-65.884293693248807
10
-127.20650044345791
20
-65.884293706005678
42
0.41421356237308982
10
-126.7065004429264
20
-65.384293706537207
0
LWPOLYLINE
5
139
100
AcDbEntity
8
0
100
AcDbPolyline
90
8
70
1
43
0.0
10
-145.75650043010043
20
-53.38429368628379
42
0.41421356237309503
10
-146.25650042956889
20
-52.884293685752255
10
-158.25650042956894
20
-52.884293672995412
42
0.4142135623730846
10
-158.75650043010046
20
-53.384293672463869
10
-158.75650044285737
20
-65.384293672465745
42
0.41421356237309503
10
-158.25650044338889
20
-65.884293672997273
10
-146.25650044338886
20
-65.884293685754145
42
0.4142135623730846
10
-145.75650044285732
20
-65.384293686285687
0
LWPOLYLINE
5
140
100
AcDbEntity
8
0
100
AcDbPolyline
90
7
70
1
43
0.0
10
-217.19400047067211
20
-91.484293610343016
42
0.41421356237309503
10
-217.69400047014059
20
-90.984293609811488
10
-230.19400047014057
20
-90.984293596523074
10
-230.19400048342897
20
-103.48429559652152
42
0.41421356237312623
10
-229.69400048396042
20
-103.98429559705303
10
-217.69400048396051
20
-103.98429560980992
42
0.41421356237307422
10
-217.19400048342894
20
-103.48429561034146
0
LWPOLYLINE
5
141
100
AcDbEntity
8
0
100
AcDbPolyline
90
8
70
1
43
0.0
10
-107.65650043017206
20
-53.384293726785792
42
0.41421356237310542
10
-108.15650042964054
20
-52.884293726254256
10
-120.15650042964056
20
-52.884293713497392
42
0.41421356237308982
10
-120.65650043017209
20
-53.384293712965857
10
-120.65650044292896
20
-65.384293712968798
42
0.41421356237309503
10
-120.15650044346049
20
-65.884293713500341
10
-108.15650044346049
20
-65.884293726257212
42
0.4142135623730846
10
-107.65650044292896
20
-65.384293726788755
0
LWPOLYLINE
5
142
100
AcDbEntity
8
0
100
AcDbPolyline
90
8
70
1
43
0.0
10
-243.38775047067207
20
-91.484293582497202
42
0.41421356237310542
10
-243.88775047014059
20
-90.984293581965659
10
-255.88775047014053
20
-90.984293569208759
42
0.4142135623730846
10
-256.38775047067207
20
-91.484293568677231
10
-256.38775048342893
20
-103.48429356867619
42
0.41421356237309503
10
-255.88775048396045
20
-103.98429356920772
10
-243.88775048396045
20
-103.98429358196461
42
0.4142135623730846
10
-243.38775048342893
20
-103.48429358249615
0
LWPOLYLINE
5
143
100
AcDbEntity
8
0
100
AcDbPolyline
90
8
70
1
43
0.0
10
-89.106500443460007
20
-65.884293746508732
42
0.4142135623730846
10
-88.606500442928478
20
-65.38429374704026
10
-88.606500430171593
20
-53.384293747036864
42
0.41421356237310542
10
-89.106500429640079
20
-52.884293746505328
10
-101.10650042964004
20
-52.88429373374845
42
0.41421356237308982
10
-101.60650043017158
20
-53.384293733216914
10
-101.60650044292849
20
-65.384293733220332
42
0.41421356237309503
10
-101.10650044346002
20
-65.884293733751861
0
LWPOLYLINE
5
144
100
AcDbEntity
8
0
100
AcDbPolyline
90
8
70
1
43
0.0
10
-250.53150049092338
20
-110.53429357490285
42
0.41421356237310542
10
-251.03150049039186
20
-110.03429357437129
10
-263.03150049039186
20
-110.0342935616144
42
0.4142135623730846
10
-263.53150049092341
20
-110.53429356108288
10
-263.53150050368021
20
-122.53429356108212
42
0.41421356237309503
10
-263.03150050421175
20
-123.03429356161367
10
-251.03150050421181
20
-123.03429357437054
42
0.41421356237307422
10
-250.53150050368029
20
-122.53429357490208
0
LWPOLYLINE
5
145
100
AcDbEntity
8
0
100
AcDbPolyline
90
8
70
1
43
0.0
10
-269.58150047067204
20
-91.484293554651344
42
0.41421356237310542
10
-270.08150047014055
20
-90.984293554119802
10
-282.0815004701405
20
-90.984293541362888
42
0.41421356237310542
10
-282.58150047067204
20
-91.484293540831402
10
-282.5815004834289
20
-103.48429354083108
42
0.41421356237309503
10
-282.08150048396038
20
-103.9842935413626
10
-270.08150048396044
20
-103.98429355411949
42
0.4142135623730846
10
-269.5815004834289
20
-103.48429355465102
0
LWPOLYLINE
5
146
100
AcDbEntity
8
0
100
AcDbPolyline
90
8
70
1
43
0.0
10
-179.09400047067211
20
-91.484293650846084
42
0.41421356237309503
10
-179.5940004701406
20
-90.984293650314555
10
-191.59400047014057
20
-90.98429363755767
42
0.41421356237310542
10
-192.09400047067209
20
-91.48429363702617
10
-192.09400048342894
20
-103.48429363702364
42
0.41421356237310542
10
-191.59400048396043
20
-103.98429363755518
10
-179.59400048396049
20
-103.98429365031207
42
0.41421356237310542
10
-179.09400048342894
20
-103.48429365084357
0
LWPOLYLINE
5
147
100
AcDbEntity
8
0
100
AcDbPolyline
90
8
70
1
43
0.0
10
-160.04400047067219
20
-91.484293671097618
42
0.41421356237309503
10
-160.54400047014067
20
-90.984293670566089
10
-172.54400047014059
20
-90.984293657809189
42
0.41421356237310542
10
-173.04400047067213
20
-91.484293657277703
10
-173.04400048342899
20
-103.48429365727483
42
0.41421356237309503
10
-172.5440004839605
20
-103.98429365780636
10
-160.54400048396053
20
-103.98429367056323
42
0.41421356237310542
10
-160.04400048342902
20
-103.48429367109473
0
LWPOLYLINE
5
148
100
AcDbEntity
8
0
100
AcDbPolyline
90
8
70
1
43
0.0
10
-226.71900045042088
20
-72.434293600217302
42
0.41421356237310542
10
-227.21900044988934
20
-71.934293599685759
10
-239.21900044988931
20
-71.934293586928902
42
0.414213562373069
10
-239.71900045042082
20
-72.434293586397331
10
-239.71900046317768
20
-84.434291586395886
42
0.41421356237307422
10
-239.21900046370922
20
-84.934291586927429
10
-227.21900046370922
20
-84.934291599684286
42
0.41421356237309503
10
-226.71900046317771
20
-84.434291600215801
0
LWPOLYLINE
5
149
100
AcDbEntity
8
0
100
AcDbPolyline
90
8
70
1
43
0.0
10
-169.56900045042076
20
-72.434293660971889
42
0.41421356237310542
10
-170.06900044988924
20
-71.934293660440346
10
-182.06900044988924
20
-71.934293647683475
42
0.41421356237308982
10
-182.56900045042076
20
-72.434293647151947
10
-182.56900046317759
20
-84.434293647149303
42
0.4142135623730846
10
-182.06900046370916
20
-84.934293647680818
10
-170.06900046370916
20
-84.934293660437717
42
0.4142135623730846
10
-169.56900046317764
20
-84.434293660969246
0
LWPOLYLINE
5
150
100
AcDbEntity
8
0
100
AcDbPolyline
90
8
70
1
43
0.0
10
-188.6190004504208
20
-72.434293640720341
42
0.41421356237310542
10
-189.11900044988928
20
-71.934293640188812
10
-201.1190004498892
20
-71.934293627431941
42
0.41421356237308982
10
-201.61900045042074
20
-72.434293626900413
10
-201.61900046317757
20
-84.434293626898054
42
0.4142135623730846
10
-201.11900046370914
20
-84.934293627429582
10
-189.11900046370917
20
-84.934293640186496
42
0.41421356237309503
10
-188.61900046317766
20
-84.43429364071801
0
LWPOLYLINE
5
151
100
AcDbEntity
8
0
100
AcDbPolyline
90
8
70
1
43
0.0
10
-207.66900045042078
20
-72.434293620468821
42
0.4142135623730846
10
-208.16900044988924
20
-71.934293619937279
10
-220.16900044988927
20
-71.934293607180408
42
0.4142135623730846
10
-220.66900045042078
20
-72.434293606648865
10
-220.66900046317761
20
-84.434291606646923
42
0.4142135623730846
10
-220.16900046370918
20
-84.934291607178466
10
-208.16900046370918
20
-84.934291619935308
42
0.4142135623730846
10
-207.66900046317767
20
-84.434291620466837
0
LWPOLYLINE
5
152
100
AcDbEntity
8
0
100
AcDbPolyline
90
8
70
1
43
0.0
10
-141.49400048396052
20
-103.98429369081425
42
0.41421356237309503
10
-140.99400048342898
20
-103.48429369134577
10
-140.99400047067209
20
-91.484293691349109
42
0.41421356237311585
10
-141.49400047014058
20
-90.984293690817623
10
-153.49400047014055
20
-90.984293678060737
42
0.41421356237309503
10
-153.99400047067212
20
-91.484293677529223
10
-153.99400048342901
20
-103.48429367752587
42
0.41421356237310542
10
-153.49400048396049
20
-103.98429367805738
0
LWPOLYLINE
5
153
100
AcDbEntity
8
0
100
AcDbPolyline
90
8
70
1
43
0.0
10
-102.89399947067213
20
-91.484293731852219
42
0.41421356237310542
10
-103.39399947014061
20
-90.984293731320662
10
-115.39399947014061
20
-90.984293718563777
42
0.41421356237309503
10
-115.89399947067216
20
-91.484293718032262
10
-115.89399948342904
20
-103.48429371802808
42
0.41421356237310542
10
-115.39399948396054
20
-103.98429371855961
10
-103.39399948396057
20
-103.9842937313165
42
0.41421356237309503
10
-102.89399948342903
20
-103.48429373184801
0
LWPOLYLINE
5
154
100
AcDbEntity
8
0
100
AcDbPolyline
90
8
70
1
43
0.0
10
-83.8440004706721
20
-91.484293752103724
42
0.41421356237310542
10
-84.344000470140585
20
-90.984293751572181
10
-96.344000470140571
20
-90.984293738815296
42
0.41421356237309503
10
-96.844000470672128
20
-91.484293738283782
10
-96.844000483429014
20
-103.48429373827905
42
0.41421356237310542
10
-96.344000483960514
20
-103.98429373881058
10
-84.344000483960542
20
-103.98429375156746
42
0.4142135623730846
10
-83.844000483428985
20
-103.48429375209901
0
LWPOLYLINE
5
155
100
AcDbEntity
8
0
100
AcDbPolyline
90
8
70
1
43
0.0
10
-45.74400047067212
20
-91.484293792606778
42
0.4142135623730846
10
-46.244000470140577
20
-90.984293792075249
10
-58.244000470140577
20
-90.984293779318364
42
0.41421356237310542
10
-58.744000470672113
20
-91.484293778786849
10
-58.744000483428962
20
-103.48429377878128
42
0.41421356237309503
10
-58.244000483960505
20
-103.98429377931282
10
-46.244000483960512
20
-103.98429379206974
42
0.41421356237310542
10
-45.744000483428977
20
-103.48429379260125
0
LWPOLYLINE
5
156
100
AcDbEntity
8
0
100
AcDbPolyline
90
8
70
1
43
0.0
10
-65.294000483960545
20
-103.98429377181863
42
0.41421356237310542
10
-64.794000483429016
20
-103.48429377235014
10
-64.794000470672145
20
-91.484293772355244
42
0.4142135623730846
10
-65.294000470140617
20
-90.984293771823715
10
-77.294000470140602
20
-90.984293759066873
42
0.4142135623730846
10
-77.794000470672145
20
-91.484293758535316
10
-77.794000483429002
20
-103.48429375853021
42
0.41421356237309503
10
-77.294000483960545
20
-103.98429375906174
0
LWPOLYLINE
5
157
100
AcDbEntity
8
0
100
AcDbPolyline
90
8
70
1
43
0.0
10
-269.58150049092342
20
-110.53429355465133
42
0.41421356237310542
10
-270.08150049039187
20
-110.03429355411978
10
-282.08150049039182
20
-110.03429354136289
42
0.41421356237309503
10
-282.58150049092336
20
-110.53429354083137
10
-282.58150050368022
20
-122.53429354083097
42
0.41421356237309503
10
-282.0815005042117
20
-123.03429354136253
10
-270.08150050421176
20
-123.03429355411939
42
0.4142135623730846
10
-269.58150050368022
20
-122.53429355465093
0
LWPOLYLINE
5
158
100
AcDbEntity
8
0
100
AcDbPolyline
90
8
70
1
43
0.0
10
-50.506500430169481
20
-53.38429378753905
42
0.41421356237309503
10
-51.006500429637939
20
-52.884293787007515
10
-63.006500429637939
20
-52.884293774250651
42
0.41421356237308982
10
-63.506500430169474
20
-53.384293773719101
10
-63.506500442926345
20
-65.384293773723371
42
0.41421356237310025
10
-63.006500443457874
20
-65.884293774254928
10
-51.006500443457895
20
-65.884293787011785
42
0.41421356237310542
10
-50.506500442926352
20
-65.384293787543314
0
LWPOLYLINE
5
159
100
AcDbEntity
8
0
100
AcDbPolyline
90
8
70
1
43
0.0
10
-69.55650043016081
20
-53.384293767287886
42
0.41421356237309503
10
-70.056500429629267
20
-52.884293766756343
10
-82.056500429629295
20
-52.884293753999508
42
0.41421356237307944
10
-82.556500430160824
20
-53.384293753467958
10
-82.556500442917681
20
-65.384293753471837
42
0.41421356237310542
10
-82.056500443449195
20
-65.884293754003394
10
-70.05650044344921
20
-65.884293766760237
42
0.41421356237309503
10
-69.556500442917667
20
-65.38429376729178
0
LWPOLYLINE
5
160
100
AcDbEntity
8
0
100
AcDbPolyline
90
8
70
1
43
0.0
10
-221.95650043016803
20
-53.384293605276497
42
0.41421356237310542
10
-222.45650042963655
20
-52.884293604744961
10
-234.45650042963649
20
-52.884293591988097
42
0.41421356237307944
10
-234.95650043016806
20
-53.384293591456554
10
-234.95650044292489
20
-65.384293591459638
42
0.41421356237310542
10
-234.45650044345641
20
-65.884293591991181
10
-222.45650044345643
20
-65.884293604748038
42
0.41421356237307944
10
-221.95650044292489
20
-65.384293605279581
0
LWPOLYLINE
5
161
100
AcDbEntity
8
0
100
AcDbPolyline
90
8
70
1
43
0.0
10
-215.40650042964069
20
-52.88429361224707
10
-203.40650042964072
20
-52.88429362500392
42
-0.41421356237310542
10
-202.90650043017223
20
-53.38429362553547
10
-202.90650044292909
20
-65.384293625531114
42
-0.41421356237307944
10
-203.40650044346063
20
-65.884293624999557
10
-215.40650044346057
20
-65.884293612242701
42
-0.41421356237310542
10
-215.90650044292912
20
-65.384293611711158
10
-215.9065004301722
20
-53.38429361171552
42
-0.41421356237307944
0
LWPOLYLINE
5
162
100
AcDbEntity
8
0
100
AcDbPolyline
90
8
70
1
43
0.0
10
-288.63150002961515
20
-10.521794045984144
10
-288.63150002961538
20
-22.521793432774619
42
-0.41421356237308721
10
-289.13150002961538
20
-23.021793432774604
10
-301.13150002961532
20
-23.021793432774452
42
-0.41421356237310025
10
-301.63150002961532
20
-22.521793432774437
10
-301.6315000296151
20
-10.521794045983972
42
-0.4142135623730937
10
-301.1315000296151
20
-10.021794045983974
10
-289.13150002961515
20
-10.02179404598413
42
-0.41421356237310025
0
LWPOLYLINE
5
163
100
AcDbEntity
8
0
100
AcDbPolyline
90
8
70
1
43
0.0
10
-241.50650002961527
20
-23.021793616738151
10
-253.50650002961532
20
-23.021793616737988
42
-0.41421356237310025
10
-254.00650002961532
20
-22.52179361673797
10
-254.00650002961515
20
-10.521794045984617
42
-0.41421356237308721
10
-253.50650002961515
20
-10.021794045984629
10
-241.5065000296151
20
-10.021794045984787
42
-0.41421356237309892
10
-241.0065000296151
20
-10.5217940459848
10
-241.00650002961527
20
-22.521793616738151
42
-0.41421356237308982
0
LWPOLYLINE
5
164
100
AcDbEntity
8
0
100
AcDbPolyline
90
8
70
1
43
0.0
10
-187.33150002961531
20
-22.521793800701808
10
-187.33150002961511
20
-10.521794045985542
42
-0.41421356237309243
10
-186.83150002961511
20
-10.021794045985546
10
-174.83150002961506
20
-10.021794045985697
42
-0.41421356237310153
10
-174.33150002961503
20
-10.521794045985715
10
-174.33150002961523
20
-22.521793800701985
42
-0.41421356237308721
10
-174.83150002961523
20
-23.021793800701971
10
-186.83150002961531
20
-23.021793800701783
42
-0.41421356237309764
0
LWPOLYLINE
5
165
100
AcDbEntity
8
0
100
AcDbPolyline
90
8
70
1
43
0.0
10
-149.23150002961529
20
-22.52179380070233
10
-149.23150002961512
20
-10.521794045986059
42
-0.41421356237308982
10
-148.73150002961512
20
-10.021794045986068
10
-136.73150002961512
20
-10.021794045986221
42
-0.41421356237308982
10
-136.23150002961515
20
-10.521794045986237
10
-136.23150002961529
20
-22.521793800702508
42
-0.41421356237309503
10
-136.73150002961529
20
-23.021793800702504
10
-148.73150002961526
20
-23.021793800702362
42
-0.41421356237308982
0
LWPOLYLINE
5
166
100
AcDbEntity
8
0
100
AcDbPolyline
90
8
70
1
43
0.0
10
-101.60650002961529
20
-22.52179398466577
10
-101.60650002961512
20
-10.521794045986715
42
-0.41421356237309243
10
-101.10650002961512
20
-10.021794045986718
10
-89.10650002961512
20
-10.021794045986873
42
-0.41421356237309115
10
-88.606500029615134
20
-10.521794045986892
10
-88.606500029615276
20
-22.521793984665948
42
-0.41421356237309243
10
-89.10650002961529
20
-23.021793984665941
10
-101.10650002961528
20
-23.021793984665806
42
-0.41421356237308982
0
LWPOLYLINE
5
167
100
AcDbEntity
8
0
100
AcDbPolyline
90
8
70
1
43
0.0
10
-63.506500029615232
20
-22.521793984666289
10
-63.506500029615083
20
-10.521794045987235
42
-0.41421356237309243
10
-63.006500029615083
20
-10.021794045987241
10
-51.00650002961509
20
-10.021794045987406
42
-0.41421356237310153
10
-50.506500029615097
20
-10.521794045987416
10
-50.506500029615253
20
-22.521793984666473
42
-0.41421356237310542
10
-51.006500029615282
20
-23.021793984666459
10
-63.006500029615268
20
-23.021793984666289
42
-0.4142135623730846
0
LWPOLYLINE
5
168
100
AcDbEntity
8
0
100
AcDbPolyline
90
8
70
1
43
0.0
10
-15.381500029607256
20
-10.021794045987892
10
-3.3815000296228592
20
-10.021794045988059
42
-0.41421356237309404
10
-2.8815000296228699
20
-10.521794045988068
10
-2.8815000296230391
20
-22.521794045988077
42
-0.41421356237309731
10
-3.3815000296230502
20
-23.021794045988067
10
-15.381500029607428
20
-23.021794045987907
42
-0.41421356237309764
10
-15.881500029607425
20
-22.5217940459879
10
-15.881500029607263
20
-10.521794045987889
42
-0.41421356237309115
0
LWPOLYLINE
5
169
100
AcDbEntity
8
0
100
AcDbPolyline
90
8
70
1
43
0.0
10
-43.956500029615093
20
-10.021794045987505
10
-31.956500029615079
20
-10.021794045987667
42
-0.41421356237309892
10
-31.456500029615086
20
-10.521794045987676
10
-31.456500029615256
20
-22.521793984666733
42
-0.41421356237309764
10
-31.95650002961527
20
-23.021793984666729
10
-43.956500029615256
20
-23.021793984666559
42
-0.41421356237309503
10
-44.456500029615249
20
-22.521793984666552
10
-44.456500029615086
20
-10.521794045987496
42
-0.41421356237308982
0
LWPOLYLINE
5
170
100
AcDbEntity
8
0
100
AcDbPolyline
90
8
70
1
43
0.0
10
-82.556500029615279
20
-22.521793984666033
10
-82.556500029615108
20
-10.521794045986979
42
-0.4142135623730937
10
-82.056500029615108
20
-10.021794045986979
10
-70.056500029615094
20
-10.021794045987146
42
-0.41421356237310025
10
-69.556500029615094
20
-10.521794045987154
10
-69.556500029615265
20
-22.521793984666203
42
-0.41421356237309764
10
-70.056500029615279
20
-23.0217939846662
10
-82.05650002961525
20
-23.021793984666061
42
-0.41421356237309764
0
LWPOLYLINE
5
171
100
AcDbEntity
8
0
100
AcDbPolyline
90
8
70
1
43
0.0
10
-129.68150002961511
20
-10.021794045986322
10
-117.68150002961512
20
-10.021794045986482
42
-0.41421356237308982
10
-117.18150002961514
20
-10.5217940459865
10
-117.18150002961528
20
-22.521793800702774
42
-0.41421356237309503
10
-117.68150002961528
20
-23.021793800702778
10
-129.68150002961525
20
-23.021793800702611
42
-0.41421356237308982
10
-130.18150002961528
20
-22.521793800702596
10
-130.18150002961511
20
-10.521794045986322
42
-0.41421356237310025
0
LWPOLYLINE
5
172
100
AcDbEntity
8
0
100
AcDbPolyline
90
8
70
1
43
0.0
10
-168.2815000296153
20
-22.521793800702071
10
-168.28150002961513
20
-10.5217940459858
42
-0.41421356237309243
10
-167.78150002961513
20
-10.021794045985803
10
-155.7815000296151
20
-10.02179404598596
42
-0.41421356237307944
10
-155.28150002961513
20
-10.521794045985974
10
-155.28150002961527
20
-22.521793800702248
42
-0.41421356237308982
10
-155.7815000296153
20
-23.021793800702241
10
-167.78150002961536
20
-23.021793800702053
42
-0.41421356237307944
0
LWPOLYLINE
5
173
100
AcDbEntity
8
0
100
AcDbPolyline
90
8
70
1
43
0.0
10
-222.45650002961526
20
-23.021793616738407
10
-234.45650002961531
20
-23.021793616738254
42
-0.41421356237310025
10
-234.95650002961531
20
-22.521793616738236
10
-234.95650002961514
20
-10.521794045984883
42
-0.41421356237309115
10
-234.45650002961514
20
-10.021794045984889
10
-222.45650002961509
20
-10.021794045985049
42
-0.41421356237309764
10
-221.95650002961509
20
-10.521794045985061
10
-221.95650002961526
20
-22.521793616738421
42
-0.41421356237309243
0
LWPOLYLINE
5
174
100
AcDbEntity
8
0
100
AcDbPolyline
90
8
70
1
43
0.0
10
-260.55650002961528
20
-23.021793616737884
10
-272.55650002961534
20
-23.021793616737732
42
-0.41421356237310025
10
-273.05650002961534
20
-22.521793616737718
10
-273.05650002961517
20
-10.521794045984356
42
-0.41421356237308854
10
-272.55650002961517
20
-10.021794045984366
10
-260.55650002961511
20
-10.021794045984523
42
-0.41421356237309764
10
-260.05650002961511
20
-10.521794045984533
10
-260.05650002961528
20
-22.521793616737895
42
-0.41421356237308982
0
LWPOLYLINE
5
175
100
AcDbEntity
8
0
100
AcDbPolyline
90
8
70
1
43
0.0
10
-215.40650002961513
20
-10.021794045985148
10
-203.40650002961507
20
-10.021794045985306
42
-0.41421356237310025
10
-202.90650002961507
20
-10.521794045985322
10
-202.90650002961524
20
-22.521793616738677
42
-0.41421356237309243
10
-203.40650002961524
20
-23.021793616738677
10
-215.4065000296153
20
-23.021793616738513
42
-0.41421356237310025
10
-215.9065000296153
20
-22.521793616738499
10
-215.90650002961513
20
-10.521794045985144
42
-0.41421356237308982
0
CIRCLE
5
176
100
AcDbEntity
8
0
100
AcDbCircle
10
-21.277499427446529
20
-27.987896699805169
30
1.1102230246251565e-14
40
2.3000000000000016
210
-3.2540264246253285e-19
220
3.7470027081099009e-16
230
1
0
LWPOLYLINE
5
177
100
AcDbEntity
8
0
100
AcDbPolyline
90
8
70
1
43
0.0
10
-6.749750488479842
20
-108.23544478450609
42
0.41421356237309848
10
-4.7497504863536975
20
-106.23544478663221
10
-4.7497504685462353
20
-89.484293836186652
42
0.41421356237309115
10
-5.7497504674831612
20
-88.484293835123566
10
-39.126000467482903
20
-88.484293799642217
42
0.4142135623730937
10
-40.126000468545975
20
-89.484293798579131
10
-40.126000486353433
20
-106.23544474902475
42
0.41421356237309115
10
-38.126000488479583
20
-108.23544475115088
0
LWPOLYLINE
5
178
100
AcDbEntity
8
0
100
AcDbPolyline
90
14
70
1
43
0.0
10
-280.58150140666481
20
-31.273934988892861
10
-268.47524942957301
20
-31.273935001762485
42
0.41421356268444598
10
-266.4752494274469
20
-29.273935001762524
10
-266.4752494274469
20
-27.987898448234674
42
-0.99999999999999989
10
-261.87524942744687
20
-27.987898448234738
10
-261.87524942744687
20
-29.273935010904758
42
0.41421356206173887
10
-259.87524942957305
20
-31.2739350109048
10
-252.53149940666478
20
-31.273935018711612
42
-0.41421356237310414
10
-250.53149940879086
20
-33.273935020837754
10
-250.53149942533372
20
-48.835293574902849
42
-0.41421356237309764
10
-252.53149942745989
20
-50.835293572776706
10
-280.58150142745995
20
-50.835293542957629
42
-0.41421356237308721
10
-282.58150142533373
20
-48.835293540831501
10
-282.58150140879087
20
-33.273934986766733
42
-0.41421356237308787
0
LWPOLYLINE
5
179
100
AcDbEntity
8
0
100
AcDbPolyline
90
20
70
1
43
0.0
10
-264.01661684101134
20
-54.884293560566888
10
-264.016616850579
20
-63.884293560566917
42
0.41421356237310414
10
-262.01661685270517
20
-65.88429356269306
10
-256.00650044345775
20
-65.88429356908226
42
0.41421356237309503
10
-254.00650044133164
20
-63.884293571208417
10
-254.00650043016935
20
-53.38429357120841
42
-0.41421356237309503
10
-253.50650042963781
20
-52.884293571739931
10
-241.5065004296379
20
-52.884293584496504
42
-0.41421356237310542
10
-241.00650043016938
20
-53.384293585028047
10
-241.00650044292624
20
-65.384293585028047
42
-0.4142135623730846
10
-241.50650044345778
20
-65.884293584496504
10
-243.76900044345768
20
-65.884293582091303
42
0.41421356237310802
10
-245.76900044558383
20
-67.884293579965174
10
-245.76900046471911
20
-85.884293579965487
42
-0.41421356237308982
10
-247.76900046684528
20
-87.884293577839287
10
-282.37138405759833
20
-87.884293541054475
42
-0.41421356237309503
10
-284.37138405547216
20
-85.884293538928333
10
-284.37138402251696
20
-54.884293538928326
42
-0.41421356237309764
10
-282.37138402039085
20
-52.884293541054461
10
-266.01661683888517
20
-52.88429355844076
42
-0.41421356237308721
0
CIRCLE
5
180
100
AcDbEntity
8
0
100
AcDbCircle
10
-13.756485617627796
20
-27.98789411288638
30
1.1657341758564144e-14
40
3.2500000000000018
210
-3.2540264297638689e-19
220
3.8857805861915046e-16
230
1
0
CIRCLE
5
181
100
AcDbEntity
8
0
100
AcDbCircle
10
-290.75648561762773
20
-27.987893846869714
30
1.0547118733938987e-14
40
3.2499999999999956
210
-3.2540264297638689e-19
220
3.8857805861915046e-16
230
1
0
LWPOLYLINE
5
182
100
AcDbEntity
8
0
100
AcDbPolyline
90
44
70
1
43
0.0
10
-194.76275050503577
20
-123.80930560485837
42
0.41421356237310025
10
-192.76275050716191
20
-125.80930560698451
10
-187.7627505071618
20
-125.80930561229988
42
0.41421356237309503
10
-185.76275050503568
20
-123.80930561442599
10
-185.76275048905603
20
-108.77774564375314
42
-0.41421356237309503
10
-183.76275048692989
20
-106.77774564587929
10
-177.76275048692983
20
-106.77774565225774
42
-0.41421356237309503
10
-175.762750489056
20
-108.77774565438388
10
-175.76275050503565
20
-123.80930828085272
42
0.41421356237309764
10
-173.7627505071618
20
-125.80930828297886
10
-151.23150050716183
20
-125.80930830693106
42
0.41421356237309764
10
-149.23150050503568
20
-123.8093083090572
10
-149.23150049145488
20
-111.03429368259205
42
-0.41421356237310025
10
-148.2315004903918
20
-110.03429368365511
10
-125.32525049039187
20
-110.0342937080061
42
-0.41421356237310025
10
-124.32525049145494
20
-111.03429370906917
10
-124.32525050503573
20
-123.80929763794495
42
0.41421356237310281
10
-122.32525050716188
20
-125.80929764007111
10
-91.887250507162165
20
-125.80929767242895
42
0.41421356237309764
10
-89.887250505036022
20
-123.80929767455511
10
-89.887250487993313
20
-107.77774574567573
42
-0.41421356237309503
10
-88.887250486930242
20
-106.77774574673882
10
-76.887250486930228
20
-106.77774575949564
42
-0.41421356237309503
10
-75.887250487993313
20
-107.77774576055873
10
-75.887250505035837
20
-123.80912866279168
42
0.4142135623730937
10
-73.887250507162008
20
-125.80912866491784
10
-1.106513842326553
20
-125.80912874228991
42
0.41421356237310786
10
-0.10651384126347002
20
-124.80912874335301
10
-0.10651371734846926
20
-8.2462921812226497
42
0.41421356237310358
10
-1.1065137162854173
20
-7.2462921801595588
10
-303.4065101917181
20
-7.246291858797874
42
0.4142135623731048
10
-304.40651019278118
20
-8.2462918577348727
10
-304.40651031668801
20
-124.80929994651648
42
0.41421356237303258
10
-303.4065103177511
20
-125.80929994757946
10
-210.76275050716202
20
-125.80930004607268
42
0.41421356237311846
10
-208.76275050503574
20
-123.80930004819885
10
-208.76275049092342
20
-110.53429361930604
42
-0.41421356237309503
10
-208.26275049039191
20
-110.03429361983756
10
-205.76275049039191
20
-110.03429362249523
42
0.41421356237308982
10
-204.76275048932879
20
-109.03429362355834
10
-204.76275048905606
20
-108.77774562355478
42
-0.41421356237310025
10
-202.76275048692992
20
-106.77774562568091
10
-196.76275048692992
20
-106.77774563205935
42
-0.41421356237309503
10
-194.76275048905609
20
-108.77774563418549
0
ENDSEC
0
SECTION
2
OBJECTS
0
DICTIONARY
5
C
100
AcDbDictionary
3
ACAD_GROUP
350
D
3
ACAD_MLINESTYLE
350
17
0
DICTIONARY
5
D
100
AcDbDictionary
0
DICTIONARY
5
1A
330
C
100
AcDbDictionary
0
DICTIONARY
5
17
100
AcDbDictionary
0
ENDSEC
0
EOF
