0
SECTION
2
HEADER
9
$INSUNITS
70
4
9
$ACADVER
1
AC1014
9
$HANDSEED
5
FFFF
0
ENDSEC
0
SECTION
2
TABLES
0
TABLE
2
VPORT
5
8
100
AcDbSymbolTable
0
ENDTAB
0
TABLE
2
LTYPE
5
5
100
AcDbSymbolTable
0
LTYPE
5
14
100
AcDbSymbolTableRecord
100
AcDbLinetypeTableRecord
2
BYBLOCK
70
0
0
LTYPE
5
15
100
AcDbSymbolTableRecord
100
AcDbLinetypeTableRecord
2
BYLAYER
70
0
0
LTYPE
5
16
100
AcDbSymbolTableRecord
100
AcDbLinetypeTableRecord
2
DASHED
70
0
3
Dashed __ __ __ __ __ __ __ __ __ __ __ __ __ _
72
65
73
2
40
0.75
49
0.5
74
0
49
-0.25
74
0
0
ENDTAB
0
TABLE
2
LAYER
5
2
100
AcDbSymbolTable
70
2
0
LAYER
5
50
100
AcDbSymbolTableRecord
100
AcDbLayerTableRecord
2
0
70
0
62
7
6
CONTINUOUS
0
ENDTAB
0
TABLE
2
STYLE
5
3
100
AcDbSymbolTable
70
1
0
STYLE
5
11
100
AcDbSymbolTableRecord
100
AcDbTextStyleTableRecord
2
STANDARD
70
0
0
ENDTAB
0
TABLE
2
VIEW
5
6
100
AcDbSymbolTable
70
0
0
ENDTAB
0
TABLE
2
UCS
5
7
100
AcDbSymbolTable
70
0
0
ENDTAB
0
TABLE
2
APPID
5
9
100
AcDbSymbolTable
70
2
0
APPID
5
12
100
AcDbSymbolTableRecord
100
AcDbRegAppTableRecord
2
ACAD
70
0
0
ENDTAB
0
TABLE
2
DIMSTYLE
5
A
100
AcDbSymbolTable
70
1
0
ENDTAB
0
TABLE
2
BLOCK_RECORD
5
1
100
AcDbSymbolTable
70
1
0
BLOCK_RECORD
5
1F
100
AcDbSymbolTableRecord
100
AcDbBlockTableRecord
2
*MODEL_SPACE
0
BLOCK_RECORD
5
1B
100
AcDbSymbolTableRecord
100
AcDbBlockTableRecord
2
*PAPER_SPACE
0
ENDTAB
0
ENDSEC
0
SECTION
2
BLOCKS
0
BLOCK
5
20
100
AcDbEntity
100
AcDbBlockBegin
2
*MODEL_SPACE
0
ENDBLK
5
21
100
AcDbEntity
100
AcDbBlockEnd
0
BLOCK
5
1C
100
AcDbEntity
100
AcDbBlockBegin
2
*PAPER_SPACE
0
ENDBLK
5
1D
100
AcDbEntity
100
AcDbBlockEnd
0
ENDSEC
0
SECTION
2
ENTITIES
0
LWPOLYLINE
5
100
100
AcDbEntity
8
0
100
AcDbPolyline
90
48
70
1
43
0.0
10
-265.63382910644856
20
-62.596954712869753
10
-258.83382910644855
20
-62.59695471286971
42
-0.41421356237313839
10
-258.23382910644858
20
-63.196954712869754
10
-258.23382910644852
20
-64.97695471422756
42
0.41421356237309076
10
-257.63382910644862
20
-65.57695471422754
10
-255.76557910644922
20
-65.576954714227654
42
-0.41421356237311396
10
-255.21557910644913
20
-66.126954714227651
10
-255.21557910644913
20
-78.826954722679346
42
-0.41421356237315182
10
-255.76557910644922
20
-79.376954722679415
10
-257.63382910644856
20
-79.376954722679343
42
0.414213562373069
10
-258.23382910644858
20
-79.976954722679281
10
-258.23382910644852
20
-81.426954715441354
42
-0.414213562373069
10
-258.83382910644849
20
-82.02695471544132
10
-265.57182910644929
20
-82.026954715441406
42
-0.41421356237320778
10
-266.1718291064492
20
-81.42695471544144
10
-266.17182910644914
20
-80.176954714226838
42
0.41421356237311241
10
-266.7718291064491
20
-79.576954712869792
10
-281.57182910644929
20
-79.576954714226929
42
0.41421356237308637
10
-282.1718291064492
20
-80.176954714226824
10
-282.1718291064492
20
-81.426954715441695
42
-0.41421356237305174
10
-282.77182910644922
20
-82.026954715441448
10
-290.09642910644806
20
-82.026954715441775
42
-0.41421356237312101
10
-290.69642910644791
20
-81.426954715441781
10
-290.69642910644797
20
-79.339954722679337
42
0.41421356237307144
10
-291.24642910644803
20
-78.789954722679312
10
-293.39642910644864
20
-78.789954722679298
42
-0.41421356237315182
10
-293.94642910644876
20
-78.239954722679329
10
-293.9464291064487
20
-71.739954722679272
42
-0.41421356237316598
10
-293.39642910644864
20
-71.189954722679261
10
-291.2964291064481
20
-71.189954722679261
42
0.41421356237305251
10
-290.7464291064482
20
-70.639954722679278
10
-290.74642910644843
20
-56.676954712869893
42
-0.41421356237325629
10
-290.24642910644837
20
-56.1769547128699
10
-289.04642910644844
20
-56.176954712869851
42
0.4142135623731254
10
-288.44642910644842
20
-55.576954712869913
10
-288.44642910644842
20
-55.376954711999787
42
0.41421356237312978
10
-289.04642910644844
20
-54.776954711999799
10
-293.34642910644857
20
-54.776954711999856
42
-0.414213562373004
10
-293.94642910644853
20
-54.176954711999876
10
-293.94642910644859
20
-47.126954711999844
42
-0.41421356237302998
10
-293.34642910644868
20
-46.526954711999828
10
-274.81557910644915
20
-46.526954714226861
42
-0.41421356237310453
10
-274.2655791064492
20
-47.076954714226879
10
-274.26557910644902
20
-64.776954713822278
42
0.41421356237315182
10
-273.71557910644901
20
-65.326954713822261
10
-266.83382910644855
20
-65.326954713822232
42
0.4142135623730257
10
-266.23382910644852
20
-64.726954713822252
10
-266.23382910644852
20
-63.19695471286974
42
-0.41421356237305601
0
LWPOLYLINE
5
101
100
AcDbEntity
8
0
100
AcDbPolyline
90
8
70
1
43
0.0
10
-30.640579106448573
20
-103.6769547142258
10
-15.259329106448568
20
-103.67695471422572
42
-0.41421356237309503
10
-14.759329106448558
20
-104.17695471422573
10
-14.759329106448504
20
-117.17695471422572
42
-0.41421356237307161
10
-15.259329106448508
20
-117.67695471422572
10
-30.640579106448502
20
-117.67695471422587
42
-0.41421356237309243
10
-31.140579106448513
20
-117.17695471422581
10
-31.140579106448598
20
-104.17695471422583
42
-0.41421356237309503
0
LWPOLYLINE
5
102
100
AcDbEntity
8
0
100
AcDbPolyline
90
8
70
1
43
0.0
10
-55.740579106448578
20
-98.626954714225946
10
-68.740579106448592
20
-98.626954714225974
42
-0.41421356237310542
10
-69.240579106448607
20
-98.126954714225974
10
-69.240579106448649
20
-85.12695471422596
42
-0.41421356237312101
10
-68.740579106448649
20
-84.626954714225974
10
-55.740579106448664
20
-84.626954714225917
42
-0.41421356237311063
10
-55.240579106448635
20
-85.126954714225917
10
-55.240579106448592
20
-98.126954714225931
42
-0.41421356237310542
0
LWPOLYLINE
5
103
100
AcDbEntity
8
0
100
AcDbPolyline
90
30
70
1
43
0.0
10
-260.37807910644864
20
-44.47695471584619
10
-268.25307910644881
20
-44.476954715846169
42
-0.41421356237308637
10
-268.55307910644882
20
-44.176954715846165
10
-268.55307910644882
20
-42.026954714631614
42
0.41421356237311241
10
-268.85307910644877
20
-41.726954714631653
10
-284.75307910644881
20
-41.726954713274623
42
0.41421356237308637
10
-285.05307910644882
20
-42.026954714631792
10
-285.05307910644893
20
-44.176954715846136
42
-0.41421356237311241
10
-285.35307910644894
20
-44.476954715846162
10
-292.72807910644872
20
-44.476954715846333
42
-0.41421356237303258
10
-293.22807910644872
20
-43.976954715846325
10
-293.22807910644877
20
-28.026954714227095
42
-0.3967391381997552
10
-292.71107457107962
20
-27.477945334240083
42
0.39673913819975132
10
-292.24107044801661
20
-26.978845897888185
10
-292.24107044801656
20
-25.026954714227159
42
-0.41421356237309742
10
-291.69107044801655
20
-24.476954714227155
10
-285.29107044801657
20
-24.476954714227126
42
-0.4142135623730927
10
-284.74107044801656
20
-25.02695471422712
10
-284.74107044801656
20
-26.976954714226942
42
0.41421356237304563
10
-284.24107044801656
20
-27.476954714226935
10
-268.86507044801652
20
-27.476954714226874
42
0.41421356237305079
10
-268.36507044801652
20
-26.976954714226871
10
-268.36507044801658
20
-25.041969455397094
42
-0.41421356237309975
10
-267.81507044801657
20
-24.491969455397083
10
-261.41507044801654
20
-24.491969455397058
42
-0.4142135623730927
10
-260.86507044801658
20
-25.041969455397052
10
-260.86507044801647
20
-26.978846938775149
42
0.39673435755359954
10
-260.39507457107936
20
-27.477945879466503
42
-0.39673435755358477
10
-259.87807910644869
20
-28.026954714226871
10
-259.87807910644869
20
-43.97695471584619
42
-0.41421356237310542
0
LWPOLYLINE
5
104
100
AcDbEntity
8
0
100
AcDbPolyline
90
8
70
1
43
0.0
10
-15.309329106448432
20
-79.576954714225721
10
-33.021829106448678
20
-79.576954714225806
42
-0.41421356237309764
10
-33.521829106448692
20
-79.076954714225806
10
-33.521829106448735
20
-66.076954714225792
42
-0.41421356237309243
10
-33.021829106448742
20
-65.576954714225792
10
-15.309329106448475
20
-65.576954714225778
42
-0.41421356237311163
10
-14.759329106448487
20
-66.126954714225775
10
-14.759329106448435
20
-79.026954714225781
42
-0.41421356237307611
0
LWPOLYLINE
5
105
100
AcDbEntity
8
0
100
AcDbPolyline
90
8
70
1
43
0.0
10
-245.45307910644902
20
-17.164454714226768
10
-245.45307910644908
20
-4.1644547142267641
42
-0.4142135623731435
10
-244.95307910644908
20
-3.6644547142267578
10
-231.95307910644908
20
-3.6644547142266832
42
-0.41421356237303875
10
-231.45307910644908
20
-4.164454714226701
10
-231.453079106449
20
-17.1644547142267
42
-0.41421356237310542
10
-231.953079106449
20
-17.664454714226729
10
-244.95307910644902
20
-17.664454714226739
42
-0.4142135623730937
0
LWPOLYLINE
5
106
100
AcDbEntity
8
0
100
AcDbPolyline
90
8
70
1
43
0.0
10
-159.228079106449
20
-3.6644547142263635
10
-146.228079106449
20
-3.6644547142263044
42
-0.4142135623731048
10
-145.728079106449
20
-4.1644547142263102
10
-145.72807910644894
20
-17.164454714226309
42
-0.41421356237307944
10
-146.22807910644897
20
-17.664454714226327
10
-159.22807910644894
20
-17.664454714226384
42
-0.4142135623730625
10
-159.72807910644894
20
-17.164454714226377
10
-159.728079106449
20
-4.1644547142263688
42
-0.41421356237305795
0
LWPOLYLINE
5
107
100
AcDbEntity
8
0
100
AcDbPolyline
90
8
70
1
43
0.0
10
-73.503079106449022
20
-3.664454714225982
10
-60.503079106449029
20
-3.6644547142259229
42
-0.41421356237309437
10
-60.003079106449029
20
-4.1644547142259203
10
-60.003079106448965
20
-17.164454714225922
42
-0.41421356237310414
10
-60.503079106448958
20
-17.664454714225929
10
-73.503079106448965
20
-17.664454714225986
42
-0.41421356237309503
10
-74.003079106448965
20
-17.164454714225986
10
-74.003079106449022
20
-4.1644547142259825
42
-0.41421356237309631
0
LWPOLYLINE
5
108
100
AcDbEntity
8
0
100
AcDbPolyline
90
8
70
1
43
0.0
10
-92.553079106449019
20
-3.6644547142260593
10
-79.553079106449033
20
-3.66445471422601
42
-0.41421356237308915
10
-79.053079106449019
20
-4.1644547142260073
10
-79.053079106448962
20
-17.164454714226004
42
-0.41421356237308593
10
-79.553079106448962
20
-17.664454714226014
10
-92.553079106448962
20
-17.664454714226071
42
-0.41421356237313017
10
-93.053079106448976
20
-17.164454714226075
10
-93.053079106449019
20
-4.1644547142260668
42
-0.41421356237309437
0
LWPOLYLINE
5
109
100
AcDbEntity
8
0
100
AcDbPolyline
90
8
70
1
43
0.0
10
-178.77807910644904
20
-17.164454714226459
10
-178.77807910644907
20
-4.1644547142264576
42
-0.41421356237310575
10
-178.27807910644907
20
-3.6644547142264363
10
-165.27807910644898
20
-3.6644547142263963
42
-0.41421356237308138
10
-164.77807910644898
20
-4.1644547142263804
10
-164.77807910644896
20
-17.164454714226395
42
-0.41421356237308593
10
-165.27807910644898
20
-17.664454714226409
10
-178.27807910644901
20
-17.664454714226459
42
-0.41421356237307033
0
LWPOLYLINE
5
110
100
AcDbEntity
8
0
100
AcDbPolyline
90
8
70
1
43
0.0
10
-264.00307910644915
20
-3.6644547142268458
10
-251.00307910644909
20
-3.6644547142267712
42
-0.41421356237303908
10
-250.50307910644909
20
-4.1644547142267898
10
-250.50307910644901
20
-17.164454714226789
42
-0.41421356237311063
10
-251.00307910644901
20
-17.664454714226821
10
-264.00307910644904
20
-17.664454714226864
42
-0.41421356237309503
10
-264.50307910644904
20
-17.164454714226856
10
-264.50307910644909
20
-4.1644547142268484
42
-0.41421356237312201
0
LWPOLYLINE
5
111
100
AcDbEntity
8
0
100
AcDbPolyline
90
8
70
1
43
0.0
10
-225.9030791064491
20
-3.664454714226653
10
-212.90307910644913
20
-3.6644547142266064
42
-0.41421356237307522
10
-212.40307910644907
20
-4.1644547142266148
10
-212.40307910644901
20
-17.164454714226615
42
-0.41421356237314444
10
-212.90307910644901
20
-17.664454714226622
10
-225.90307910644901
20
-17.664454714226675
42
-0.41421356237306511
10
-226.40307910644907
20
-17.164454714226682
10
-226.4030791064491
20
-4.1644547142266752
42
-0.41421356237310641
0
LWPOLYLINE
5
112
100
AcDbEntity
8
0
100
AcDbPolyline
90
8
70
1
43
0.0
10
-140.17807910644899
20
-3.6644547142262756
10
-127.17807910644902
20
-3.6644547142262258
42
-0.41421356237306933
10
-126.67807910644902
20
-4.164454714226224
10
-126.67807910644895
20
-17.16445471422622
42
-0.41421356237309503
10
-127.17807910644896
20
-17.664454714226238
10
-140.17807910644893
20
-17.664454714226284
42
-0.4142135623730599
10
-140.67807910644893
20
-17.164454714226284
10
-140.67807910644899
20
-4.1644547142262862
42
-0.41421356237305862
0
LWPOLYLINE
5
113
100
AcDbEntity
8
0
100
AcDbPolyline
90
8
70
1
43
0.0
10
-54.453079106449024
20
-3.6644547142258874
10
-41.453079106449024
20
-3.664454714225827
42
-0.41421356237309698
10
-40.953079106449024
20
-4.1644547142258288
10
-40.953079106448975
20
-17.16445471422583
42
-0.41421356237310025
10
-41.453079106448968
20
-17.664454714225837
10
-54.453079106448961
20
-17.664454714225904
42
-0.41421356237309764
10
-54.953079106448961
20
-17.164454714225901
10
-54.953079106449024
20
-4.1644547142258919
42
-0.41421356237308948
0
LWPOLYLINE
5
114
100
AcDbEntity
8
0
100
AcDbPolyline
90
8
70
1
43
0.0
10
-111.60307910644902
20
-3.6644547142261485
10
-98.603079106449002
20
-3.6644547142260944
42
-0.41421356237306933
10
-98.103079106449002
20
-4.1644547142260926
10
-98.103079106448945
20
-17.164454714226089
42
-0.41421356237309892
10
-98.603079106448945
20
-17.66445471422611
10
-111.60307910644896
20
-17.664454714226164
42
-0.4142135623730599
10
-112.10307910644894
20
-17.164454714226164
10
-112.103079106449
20
-4.1644547142261557
42
-0.41421356237305862
0
LWPOLYLINE
5
115
100
AcDbEntity
8
0
100
AcDbPolyline
90
8
70
1
43
0.0
10
-197.82807910644897
20
-17.164454714226551
10
-197.82807910644905
20
-4.1644547142265465
42
-0.41421356237314477
10
-197.32807910644905
20
-3.6644547142265385
10
-184.32807910644911
20
-3.6644547142264754
42
-0.41421356237307583
10
-183.82807910644908
20
-4.1644547142264852
10
-183.828079106449
20
-17.164454714226476
42
-0.41421356237315354
10
-184.328079106449
20
-17.664454714226501
10
-197.32807910644902
20
-17.664454714226526
42
-0.41421356237309892
0
LWPOLYLINE
5
116
100
AcDbEntity
8
0
100
AcDbPolyline
90
8
70
1
43
0.0
10
-283.05307910644905
20
-3.6644547142269164
10
-270.0530791064491
20
-3.6644547142268635
42
-0.41421356237307583
10
-269.55307910644905
20
-4.1644547142268733
10
-269.55307910644899
20
-17.164454714226881
42
-0.41421356237314316
10
-270.05307910644899
20
-17.664454714226881
10
-283.05307910644899
20
-17.664454714226942
42
-0.41421356237306639
10
-283.55307910644905
20
-17.164454714226945
10
-283.55307910644905
20
-4.1644547142269346
42
-0.41421356237310447
0
LWPOLYLINE
5
117
100
AcDbEntity
8
0
100
AcDbPolyline
90
8
70
1
43
0.0
10
-312.12807910644864
20
-98.126954714227125
10
-312.12807910644875
20
-85.126954714227097
42
-0.41421356237307422
10
-311.62807910644869
20
-84.626954714227111
10
-298.62807910644869
20
-84.626954714226997
42
-0.4142135623730846
10
-298.12807910644864
20
-85.126954714227026
10
-298.12807910644858
20
-98.126954714227026
42
-0.4142135623730534
10
-298.62807910644858
20
-98.62695471422704
10
-311.62807910644864
20
-98.626954714227125
42
-0.41421356237311585
0
CIRCLE
5
118
100
AcDbEntity
8
0
100
AcDbCircle
10
-300.75306468192736
20
-22.130554961605846
30
-1.9428902930940239e-14
40
2.8000000000000109
210
9.3626668566832965e-32
220
-8.7430063189231087e-16
230
1
0
CIRCLE
5
119
100
AcDbEntity
8
0
100
AcDbCircle
10
-23.753064681927309
20
-22.130554933131709
30
-1.8873791418627661e-14
40
2.8000000000000043
210
-1.8988683852265598e-32
220
-8.6042284408449652e-16
230
1
0
CIRCLE
5
120
100
AcDbEntity
8
0
100
AcDbCircle
10
-305.12806468192753
20
1.5334520722296801
30
1.1102230246251565e-15
40
1.0999999999999941
210
3.031512272404833e-32
220
-8.6042284408449652e-16
230
1
0
CIRCLE
5
121
100
AcDbEntity
8
0
100
AcDbCircle
10
-162.25306468192741
20
1.5334520722303313
30
1.1102230246251565e-15
40
1.0999999999999941
210
3.031512272404833e-32
220
-8.6042284408449652e-16
230
1
0
CIRCLE
5
122
100
AcDbEntity
8
0
100
AcDbCircle
10
-276.55306468192691
20
-122.87436150839414
30
-1.0658141036401503e-13
40
1.0999999999999941
210
3.031512272404833e-32
220
-8.6042284408449652e-16
230
1
0
CIRCLE
5
123
100
AcDbEntity
8
0
100
AcDbCircle
10
-19.377878131927254
20
1.5334520735452397
30
5.5511151231257827e-16
40
1.100000000000003
210
-1.1759629700489066e-31
220
-8.6042284408449642e-16
230
1
0
CIRCLE
5
124
100
AcDbEntity
8
0
100
AcDbCircle
10
-47.953878131926693
20
-122.87436150970737
30
-1.0880185641326534e-13
40
1.100000000000003
210
-1.1759629700489066e-31
220
-8.6042284408449642e-16
230
1
0
CIRCLE
5
125
100
AcDbEntity
8
0
100
AcDbCircle
10
-274.17182910269054
20
-22.130554923793881
30
-1.9984014443252818e-14
40
1.1499999999999997
210
-1.8988683930350152e-32
220
-8.6042284408449642e-16
230
1
0
CIRCLE
5
126
100
AcDbEntity
8
0
100
AcDbCircle
10
-251.54995410644858
20
-110.67695452915636
30
-9.7699626167013776e-14
40
1.1499999999999997
210
-1.8988683930350152e-32
220
-8.6042284408449642e-16
230
1
0
CIRCLE
5
127
100
AcDbEntity
8
0
100
AcDbCircle
10
-34.856204106448544
20
-110.67695452915537
30
-9.5479180117763462e-14
40
1.1499999999999997
210
-1.8988683930350152e-32
220
-8.6042284408449642e-16
230
1
0
CIRCLE
5
128
100
AcDbEntity
8
0
100
AcDbCircle
10
-31.27407910269045
20
-22.130554737950114
30
-1.9428902930940239e-14
40
1.1499999999999997
210
-1.8988683930350152e-32
220
-8.6042284408449642e-16
230
1
0
LWPOLYLINE
5
129
100
AcDbEntity
8
0
100
AcDbPolyline
90
8
70
1
43
0.0
10
-159.22807910644852
20
-103.67695471422641
10
-134.32182910644855
20
-103.67695471422628
42
-0.41421356237306384
10
-133.82182910644855
20
-104.1769547142263
10
-133.82182910644849
20
-117.17695471422628
42
-0.41421356237307422
10
-134.32182910644852
20
-117.67695471422628
10
-159.22807910644849
20
-117.67695471422647
42
-0.4142135623730534
10
-159.72807910644849
20
-117.17695471422645
10
-159.7280791064486
20
-104.17695471422645
42
-0.41421356237307422
0
LWPOLYLINE
5
130
100
AcDbEntity
8
0
100
AcDbPolyline
90
8
70
1
43
0.0
10
-227.1905791064485
20
-117.67695471422672
10
-242.57182910644843
20
-117.67695471422682
42
-0.41421356237310542
10
-243.07182910644843
20
-117.1769547142268
10
-243.07182910644855
20
-104.17695471422681
42
-0.4142135623730846
10
-242.57182910644849
20
-103.6769547142268
10
-227.19057910644858
20
-103.67695471422675
42
-0.4142135623730534
10
-226.69057910644852
20
-104.17695471422678
10
-226.69057910644855
20
-117.1769547142268
42
-0.4142135623730534
0
LWPOLYLINE
5
131
100
AcDbEntity
8
0
100
AcDbPolyline
90
8
70
1
43
0.0
10
-78.26557910644857
20
-103.67695471422606
10
-62.884329106448575
20
-103.67695471422596
42
-0.41421356237310025
10
-62.384329106448568
20
-104.17695471422597
10
-62.384329106448519
20
-117.17695471422594
42
-0.41421356237310025
10
-62.884329106448511
20
-117.67695471422596
10
-78.265579106448499
20
-117.67695471422613
42
-0.4142135623730846
10
-78.765579106448513
20
-117.17695471422608
10
-78.765579106448598
20
-104.17695471422607
42
-0.41421356237309503
0
LWPOLYLINE
5
132
100
AcDbEntity
8
0
100
AcDbPolyline
90
8
70
1
43
0.0
10
-292.57807910644874
20
-84.626954714226997
10
-279.57807910644874
20
-84.626954714226926
42
-0.41421356237310542
10
-279.07807910644874
20
-85.126954714226954
10
-279.07807910644868
20
-98.126954714226926
42
-0.41421356237312623
10
-279.57807910644868
20
-98.626954714226969
10
-292.57807910644863
20
-98.626954714226997
42
-0.4142135623730846
10
-293.07807910644863
20
-98.126954714227011
10
-293.07807910644874
20
-85.126954714227011
42
-0.4142135623730846
0
LWPOLYLINE
5
133
100
AcDbEntity
8
0
100
AcDbPolyline
90
8
70
1
43
0.0
10
-207.64057910644868
20
-85.126954714226613
42
0.4142135623730846
10
-208.14057910644868
20
-84.626954714226628
10
-221.14057910644868
20
-84.626954714226642
42
0.41421356237310542
10
-221.64057910644871
20
-85.126954714226684
10
-221.6405791064486
20
-98.126954714226656
42
0.4142135623730846
10
-221.1405791064486
20
-98.62695471422667
10
-208.14057910644863
20
-98.626954714226628
42
0.4142135623730846
10
-207.64057910644857
20
-98.126954714226628
0
LWPOLYLINE
5
134
100
AcDbEntity
8
0
100
AcDbPolyline
90
8
70
1
43
0.0
10
-266.38432910644872
20
-84.626954714226883
10
-253.38432910644869
20
-84.626954714226841
42
-0.4142135623730846
10
-252.88432910644869
20
-85.126954714226827
10
-252.88432910644858
20
-98.126954714226841
42
-0.4142135623730846
10
-253.3843291064486
20
-98.626954714226841
10
-266.38432910644866
20
-98.626954714226912
42
-0.41421356237310542
10
-266.88432910644866
20
-98.126954714226883
10
-266.88432910644872
20
-85.126954714226869
42
-0.41421356237309503
0
LWPOLYLINE
5
135
100
AcDbEntity
8
0
100
AcDbPolyline
90
8
70
1
43
0.0
10
-240.19057910644869
20
-84.626954714226741
10
-227.19057910644869
20
-84.626954714226684
42
-0.41421356237310542
10
-226.69057910644869
20
-85.126954714226713
10
-226.69057910644867
20
-98.126954714226713
42
-0.41421356237310542
10
-227.19057910644864
20
-98.626954714226713
10
-240.19057910644861
20
-98.62695471422677
42
-0.41421356237310542
10
-240.69057910644861
20
-98.126954714226741
10
-240.69057910644864
20
-85.12695471422677
42
-0.41421356237312623
0
LWPOLYLINE
5
136
100
AcDbEntity
8
0
100
AcDbPolyline
90
8
70
1
43
0.0
10
-311.62807910644852
20
-103.67695471422708
10
-298.62807910644847
20
-103.67695471422701
42
-0.41421356237310542
10
-298.12807910644847
20
-104.17695471422704
10
-298.12807910644835
20
-117.17695471422702
42
-0.4142135623730846
10
-298.62807910644841
20
-117.67695471422704
10
-311.62807910644847
20
-117.67695471422714
42
-0.41421356237310542
10
-312.12807910644847
20
-117.17695471422712
10
-312.12807910644858
20
-104.17695471422712
42
-0.4142135623730846
0
LWPOLYLINE
5
137
100
AcDbEntity
8
0
100
AcDbPolyline
90
8
70
1
43
0.0
10
-273.52807910644856
20
-103.67695471422691
10
-260.5280791064485
20
-103.67695471422687
42
-0.41421356237310542
10
-260.0280791064485
20
-104.17695471422689
10
-260.02807910644839
20
-117.17695471422685
42
-0.41421356237310542
10
-260.52807910644844
20
-117.67695471422689
10
-273.5280791064485
20
-117.67695471422697
42
-0.41421356237310542
10
-274.0280791064485
20
-117.17695471422694
10
-274.02807910644862
20
-104.17695471422695
42
-0.4142135623730846
0
LWPOLYLINE
5
138
100
AcDbEntity
8
0
100
AcDbPolyline
90
8
70
1
43
0.0
10
-292.57807910644857
20
-103.67695471422699
10
-279.57807910644851
20
-103.67695471422699
42
-0.4142135623730846
10
-279.07807910644851
20
-104.17695471422698
10
-279.07807910644851
20
-117.17695471422694
42
-0.41421356237312623
10
-279.57807910644846
20
-117.67695471422698
10
-292.57807910644851
20
-117.67695471422701
42
-0.4142135623730846
10
-293.07807910644851
20
-117.17695471422702
10
-293.07807910644863
20
-104.17695471422704
42
-0.41421356237310542
0
LWPOLYLINE
5
139
100
AcDbEntity
8
0
100
AcDbPolyline
90
8
70
1
43
0.0
10
-26.378079106448958
20
-17.164454714225759
10
-26.378079106449022
20
-4.164454714225756
42
-0.41421356237309437
10
-25.878079106449029
20
-3.6644547142257551
10
-12.878079106449025
20
-3.6644547142256947
42
-0.41421356237309503
10
-12.378079106449022
20
-4.1644547142256929
10
-12.378079106448961
20
-17.164454714225702
42
-0.41421356237309631
10
-12.878079106448958
20
-17.664454714225702
10
-25.878079106448961
20
-17.664454714225762
42
-0.41421356237309764
0
LWPOLYLINE
5
140
100
AcDbEntity
8
0
100
AcDbPolyline
90
8
70
1
43
0.0
10
-312.12807910644898
20
-17.16445471422707
10
-312.12807910644904
20
-4.1644547142270643
42
-0.41421356237310281
10
-311.62807910644904
20
-3.6644547142270536
10
-298.62807910644904
20
-3.6644547142269697
42
-0.41421356237302509
10
-298.12807910644904
20
-4.1644547142269994
10
-298.12807910644898
20
-17.164454714226999
42
-0.41421356237310802
10
-298.62807910644898
20
-17.66445471422702
10
-311.62807910644892
20
-17.664454714227094
42
-0.41421356237304169
0
LWPOLYLINE
5
141
100
AcDbEntity
8
0
100
AcDbPolyline
90
8
70
1
43
0.0
10
-26.378079106448851
20
-40.976954714225769
10
-26.378079106448912
20
-27.976954714225766
42
-0.41421356237310542
10
-25.878079106448926
20
-27.476954714225762
10
-12.878079106448915
20
-27.476954714225702
42
-0.4142135623730937
10
-12.378079106448913
20
-27.976954714225695
10
-12.378079106448856
20
-40.976954714225691
42
-0.41421356237310414
10
-12.878079106448851
20
-41.476954714225712
10
-25.878079106448855
20
-41.476954714225762
42
-0.41421356237309243
0
LWPOLYLINE
5
142
100
AcDbEntity
8
0
100
AcDbPolyline
90
8
70
1
43
0.0
10
-44.928079106448919
20
-27.476954714225851
10
-31.928079106448916
20
-27.476954714225791
42
-0.41421356237308982
10
-31.428079106448919
20
-27.97695471422578
10
-31.428079106448848
20
-40.976954714225769
42
-0.41421356237310281
10
-31.928079106448848
20
-41.476954714225791
10
-44.928079106448855
20
-41.476954714225855
42
-0.41421356237309503
10
-45.428079106448855
20
-40.976954714225855
10
-45.428079106448905
20
-27.976954714225855
42
-0.41421356237309243
0
LWPOLYLINE
5
143
100
AcDbEntity
8
0
100
AcDbPolyline
90
8
70
1
43
0.0
10
-63.978079106448924
20
-27.47695471422594
10
-50.978079106448916
20
-27.476954714225876
42
-0.41421356237309503
10
-50.478079106448916
20
-27.976954714225872
10
-50.478079106448853
20
-40.976954714225869
42
-0.41421356237309503
10
-50.978079106448853
20
-41.476954714225869
10
-63.97807910644886
20
-41.476954714225933
42
-0.41421356237310542
10
-64.47807910644886
20
-40.976954714225933
10
-64.478079106448916
20
-27.976954714225933
42
-0.4142135623730846
0
LWPOLYLINE
5
144
100
AcDbEntity
8
0
100
AcDbPolyline
90
8
70
1
43
0.0
10
-121.12807910644892
20
-27.476954714226206
10
-108.12807910644892
20
-27.476954714226139
42
-0.41421356237310542
10
-107.62807910644892
20
-27.976954714226132
10
-107.62807910644888
20
-40.976954714226125
42
-0.41421356237308982
10
-108.12807910644887
20
-41.476954714226153
10
-121.12807910644887
20
-41.47695471422621
42
-0.4142135623730846
10
-121.62807910644888
20
-40.976954714226196
10
-121.62807910644892
20
-27.976954714226203
42
-0.41421356237309503
0
LWPOLYLINE
5
145
100
AcDbEntity
8
0
100
AcDbPolyline
90
8
70
1
43
0.0
10
-126.67807910644893
20
-27.976954714226217
42
0.41421356237310542
10
-127.17807910644893
20
-27.476954714226231
10
-140.17807910644891
20
-27.47695471422627
42
0.41421356237310025
10
-140.67807910644891
20
-27.976954714226288
10
-140.67807910644885
20
-40.976954714226288
42
0.4142135623730846
10
-140.17807910644882
20
-41.476954714226267
10
-127.17807910644888
20
-41.476954714226231
42
0.41421356237307944
10
-126.67807910644888
20
-40.976954714226217
0
LWPOLYLINE
5
146
100
AcDbEntity
8
0
100
AcDbPolyline
90
8
70
1
43
0.0
10
-83.028079106448928
20
-27.476954714226025
10
-70.028079106448914
20
-27.476954714225958
42
-0.41421356237309764
10
-69.528079106448914
20
-27.976954714225961
10
-69.528079106448857
20
-40.976954714225961
42
-0.41421356237309503
10
-70.028079106448857
20
-41.476954714225954
10
-83.028079106448871
20
-41.476954714226011
42
-0.4142135623730846
10
-83.528079106448843
20
-40.976954714226025
10
-83.528079106448899
20
-27.976954714226014
42
-0.41421356237308204
0
LWPOLYLINE
5
147
100
AcDbEntity
8
0
100
AcDbPolyline
90
8
70
1
43
0.0
10
-178.27807910644884
20
-27.476954714226466
10
-165.27807910644893
20
-27.476954714226387
42
-0.41421356237302998
10
-164.77807910644896
20
-27.976954714226391
10
-164.77807910644884
20
-40.976954714226387
42
-0.41421356237312101
10
-165.2780791064489
20
-41.476954714226395
10
-178.27807910644879
20
-41.476954714226473
42
-0.4142135623730222
10
-178.77807910644879
20
-40.976954714226451
10
-178.7780791064489
20
-27.976954714226451
42
-0.41421356237313928
0
LWPOLYLINE
5
148
100
AcDbEntity
8
0
100
AcDbPolyline
90
8
70
1
43
0.0
10
-197.32807910644885
20
-27.476954714226537
10
-184.32807910644891
20
-27.47695471422649
42
-0.414213562373004
10
-183.82807910644897
20
-27.976954714226487
10
-183.8280791064488
20
-40.97695471422648
42
-0.41421356237311585
10
-184.32807910644883
20
-41.47695471422648
10
-197.3280791064488
20
-41.476954714226572
42
-0.4142135623730222
10
-197.8280791064488
20
-40.976954714226544
10
-197.82807910644891
20
-27.976954714226547
42
-0.41421356237314966
0
LWPOLYLINE
5
149
100
AcDbEntity
8
0
100
AcDbPolyline
90
8
70
1
43
0.0
10
-159.72807910644886
20
-40.976954714226359
10
-159.72807910644892
20
-27.97695471422637
42
-0.41421356237309503
10
-159.22807910644892
20
-27.476954714226359
10
-146.22807910644892
20
-27.476954714226316
42
-0.41421356237308721
10
-145.72807910644892
20
-27.976954714226313
10
-145.72807910644886
20
-40.976954714226309
42
-0.41421356237310025
10
-146.22807910644889
20
-41.476954714226309
10
-159.22807910644883
20
-41.476954714226366
42
-0.4142135623730846
0
LWPOLYLINE
5
150
100
AcDbEntity
8
0
100
AcDbPolyline
90
8
70
1
43
0.0
10
-216.37807910644887
20
-27.476954714226636
10
-203.37807910644892
20
-27.476954714226565
42
-0.41421356237300916
10
-202.87807910644898
20
-27.976954714226569
10
-202.87807910644881
20
-40.976954714226572
42
-0.41421356237312623
10
-203.37807910644884
20
-41.476954714226579
10
-216.37807910644881
20
-41.476954714226643
42
-0.4142135623730222
10
-216.87807910644881
20
-40.976954714226615
10
-216.87807910644892
20
-27.976954714226629
42
-0.41421356237313928
0
LWPOLYLINE
5
151
100
AcDbEntity
8
0
100
AcDbPolyline
90
8
70
1
43
0.0
10
-102.07807910644891
20
-27.476954714226103
10
-89.078079106448911
20
-27.476954714226054
42
-0.41421356237310802
10
-88.578079106448911
20
-27.976954714226046
10
-88.578079106448826
20
-40.976954714226054
42
-0.4142135623730846
10
-89.07807910644884
20
-41.476954714226046
10
-102.07807910644885
20
-41.476954714226139
42
-0.4142135623730846
10
-102.57807910644887
20
-40.976954714226125
10
-102.57807910644893
20
-27.97695471422611
42
-0.41421356237310025
0
LWPOLYLINE
5
152
100
AcDbEntity
8
0
100
AcDbPolyline
90
8
70
1
43
0.0
10
-235.42807910644888
20
-27.476954714226714
10
-222.42807910644885
20
-27.476954714226661
42
-0.414213562373004
10
-221.92807910644891
20
-27.976954714226654
10
-221.92807910644873
20
-40.976954714226643
42
-0.41421356237313667
10
-222.42807910644876
20
-41.476954714226665
10
-235.42807910644882
20
-41.476954714226729
42
-0.4142135623730222
10
-235.92807910644882
20
-40.976954714226707
10
-235.92807910644893
20
-27.976954714226714
42
-0.41421356237314444
0
LWPOLYLINE
5
153
100
AcDbEntity
8
0
100
AcDbPolyline
90
8
70
1
43
0.0
10
-311.62807910644887
20
-27.476954714227062
10
-298.62807910644881
20
-27.476954714227006
42
-0.414213562373004
10
-298.12807910644887
20
-27.976954714226999
10
-298.12807910644869
20
-40.976954714227006
42
-0.41421356237312101
10
-298.62807910644875
20
-41.476954714227006
10
-311.62807910644881
20
-41.476954714227084
42
-0.4142135623730222
10
-312.12807910644881
20
-40.976954714227062
10
-312.12807910644892
20
-27.976954714227055
42
-0.41421356237313667
0
LWPOLYLINE
5
154
100
AcDbEntity
8
0
100
AcDbPolyline
90
8
70
1
43
0.0
10
-30.640579106448826
20
-46.526954714225788
10
-17.640579106448829
20
-46.526954714225717
42
-0.4142135623730937
10
-17.140579106448829
20
-47.026954714225717
10
-17.140579106448765
20
-60.02695471422571
42
-0.41421356237309631
10
-17.640579106448765
20
-60.52695471422571
10
-30.640579106448769
20
-60.526954714225774
42
-0.41421356237309503
10
-31.140579106448772
20
-60.026954714225774
10
-31.140579106448818
20
-47.026954714225781
42
-0.41421356237309764
0
LWPOLYLINE
5
155
100
AcDbEntity
8
0
100
AcDbPolyline
90
8
70
1
43
0.0
10
-254.47807910644889
20
-27.476954714226807
10
-241.47807910644886
20
-27.47695471422675
42
-0.414213562373004
10
-240.97807910644892
20
-27.976954714226743
10
-240.97807910644875
20
-40.976954714226736
42
-0.41421356237312623
10
-241.47807910644877
20
-41.476954714226736
10
-254.47807910644883
20
-41.476954714226821
42
-0.4142135623730222
10
-254.97807910644883
20
-40.976954714226792
10
-254.97807910644894
20
-27.976954714226807
42
-0.41421356237314189
0
LWPOLYLINE
5
156
100
AcDbEntity
8
0
100
AcDbPolyline
90
8
70
1
43
0.0
10
-54.453079106448826
20
-46.526954714225887
10
-41.453079106448826
20
-46.526954714225823
42
-0.41421356237309503
10
-40.953079106448833
20
-47.026954714225823
10
-40.953079106448776
20
-60.026954714225823
42
-0.41421356237310542
10
-41.453079106448776
20
-60.526954714225816
10
-54.453079106448769
20
-60.526954714225873
42
-0.41421356237310542
10
-54.953079106448762
20
-60.026954714225873
10
-54.953079106448826
20
-47.026954714225873
42
-0.41421356237308982
0
LWPOLYLINE
5
157
100
AcDbEntity
8
0
100
AcDbPolyline
90
8
70
1
43
0.0
10
-206.85307910644889
20
-46.526954714226598
10
-193.85307910644889
20
-46.526954714226498
42
-0.41421356237306384
10
-193.35307910644883
20
-47.02695471422652
10
-193.35307910644877
20
-60.026954714226534
42
-0.41421356237311585
10
-193.85307910644883
20
-60.526954714226527
10
-206.8530791064488
20
-60.526954714226619
42
-0.4142135623730222
10
-207.3530791064488
20
-60.026954714226591
10
-207.35307910644889
20
-47.026954714226584
42
-0.41421356237312101
0
LWPOLYLINE
5
158
100
AcDbEntity
8
0
100
AcDbPolyline
90
8
70
1
43
0.0
10
-130.65307910644884
20
-46.526954714226221
10
-117.65307910644884
20
-46.526954714226179
42
-0.41421356237307422
10
-117.15307910644883
20
-47.026954714226186
10
-117.15307910644879
20
-60.026954714226179
42
-0.41421356237310025
10
-117.65307910644879
20
-60.526954714226193
10
-130.65307910644876
20
-60.526954714226235
42
-0.414213562373069
10
-131.15307910644879
20
-60.026954714226235
10
-131.15307910644884
20
-47.02695471422625
42
-0.41421356237310542
0
LWPOLYLINE
5
159
100
AcDbEntity
8
0
100
AcDbPolyline
90
8
70
1
43
0.0
10
-149.70307910644883
20
-46.526954714226321
10
-136.70307910644883
20
-46.526954714226264
42
-0.41421356237310542
10
-136.20307910644883
20
-47.026954714226257
10
-136.2030791064488
20
-60.026954714226264
42
-0.41421356237307944
10
-136.70307910644877
20
-60.526954714226271
10
-149.70307910644877
20
-60.526954714226306
42
-0.41421356237310542
10
-150.20307910644877
20
-60.026954714226321
10
-150.2030791064488
20
-47.026954714226321
42
-0.41421356237307422
0
LWPOLYLINE
5
160
100
AcDbEntity
8
0
100
AcDbPolyline
90
8
70
1
43
0.0
10
-111.60307910644883
20
-46.526954714226136
10
-98.603079106448845
20
-46.526954714226093
42
-0.414213562373069
10
-98.103079106448817
20
-47.026954714226086
10
-98.103079106448774
20
-60.026954714226093
42
-0.41421356237309503
10
-98.603079106448774
20
-60.526954714226093
10
-111.60307910644877
20
-60.52695471422615
42
-0.41421356237308982
10
-112.10307910644879
20
-60.02695471422615
10
-112.10307910644885
20
-47.02695471422615
42
-0.41421356237307944
0
LWPOLYLINE
5
161
100
AcDbEntity
8
0
100
AcDbPolyline
90
8
70
1
43
0.0
10
-92.553079106448848
20
-46.526954714226065
10
-79.553079106448834
20
-46.526954714226001
42
-0.41421356237309503
10
-79.053079106448834
20
-47.026954714226001
10
-79.053079106448777
20
-60.026954714226008
42
-0.41421356237308982
10
-79.553079106448777
20
-60.526954714225994
10
-92.553079106448763
20
-60.526954714226058
42
-0.414213562373069
10
-93.053079106448791
20
-60.026954714226058
10
-93.053079106448834
20
-47.026954714226051
42
-0.41421356237309503
0
LWPOLYLINE
5
162
100
AcDbEntity
8
0
100
AcDbPolyline
90
8
70
1
43
0.0
10
-168.75307910644887
20
-46.52695471422642
10
-155.75307910644884
20
-46.526954714226356
42
-0.41421356237310542
10
-155.25307910644884
20
-47.026954714226349
10
-155.25307910644878
20
-60.026954714226342
42
-0.41421356237307422
10
-155.75307910644878
20
-60.526954714226349
10
-168.75307910644878
20
-60.526954714226434
42
-0.4142135623730222
10
-169.25307910644878
20
-60.026954714226406
10
-169.25307910644887
20
-47.026954714226406
42
-0.41421356237312101
0
LWPOLYLINE
5
163
100
AcDbEntity
8
0
100
AcDbPolyline
90
8
70
1
43
0.0
10
-73.503079106448837
20
-46.526954714225973
10
-60.50307910644883
20
-46.526954714225909
42
-0.41421356237309503
10
-60.003079106448837
20
-47.026954714225909
10
-60.003079106448773
20
-60.026954714225916
42
-0.41421356237310025
10
-60.503079106448766
20
-60.526954714225909
10
-73.503079106448766
20
-60.526954714225965
42
-0.41421356237309503
10
-74.003079106448766
20
-60.026954714225973
10
-74.003079106448823
20
-47.026954714225965
42
-0.41421356237310025
0
LWPOLYLINE
5
164
100
AcDbEntity
8
0
100
AcDbPolyline
90
8
70
1
43
0.0
10
-174.30307910644882
20
-47.026954714226434
42
0.4142135623730222
10
-174.80307910644882
20
-46.526954714226406
10
-187.80307910644879
20
-46.526954714226498
42
0.41421356237312101
10
-188.30307910644882
20
-47.026954714226498
10
-188.30307910644879
20
-60.026954714226505
42
0.4142135623730222
10
-187.80307910644879
20
-60.526954714226513
10
-174.80307910644882
20
-60.526954714226441
42
0.41421356237312101
10
-174.30307910644876
20
-60.026954714226434
0
LWPOLYLINE
5
165
100
AcDbEntity
8
0
100
AcDbPolyline
90
8
70
1
43
0.0
10
-225.9030791064489
20
-46.526954714226669
10
-212.9030791064489
20
-46.526954714226598
42
-0.41421356237306384
10
-212.40307910644884
20
-47.026954714226619
10
-212.40307910644879
20
-60.026954714226605
42
-0.41421356237313667
10
-212.90307910644884
20
-60.526954714226626
10
-225.90307910644881
20
-60.52695471422669
42
-0.4142135623730222
10
-226.40307910644881
20
-60.026954714226662
10
-226.4030791064489
20
-47.026954714226683
42
-0.41421356237313667
0
LWPOLYLINE
5
166
100
AcDbEntity
8
0
100
AcDbPolyline
90
8
70
1
43
0.0
10
-59.215579106448729
20
-65.576954714225892
10
-46.215579106448743
20
-65.576954714225849
42
-0.41421356237310542
10
-45.715579106448743
20
-66.076954714225849
10
-45.715579106448672
20
-79.076954714225863
42
-0.4142135623730846
10
-46.215579106448672
20
-79.576954714225835
10
-59.215579106448679
20
-79.576954714225934
42
-0.41421356237311585
10
-59.715579106448693
20
-79.07695471422592
10
-59.71557910644875
20
-66.076954714225906
42
-0.41421356237310025
0
LWPOLYLINE
5
167
100
AcDbEntity
8
0
100
AcDbPolyline
90
8
70
1
43
0.0
10
-312.12807910644875
20
-60.02695471422706
10
-312.12807910644881
20
-47.026954714227067
42
-0.41421356237312101
10
-311.62807910644881
20
-46.526954714227067
10
-298.62807910644881
20
-46.526954714226989
42
-0.4142135623730222
10
-298.12807910644881
20
-47.02695471422701
10
-298.12807910644869
20
-60.02695471422701
42
-0.41421356237311585
10
-298.62807910644875
20
-60.52695471422701
10
-311.62807910644881
20
-60.526954714227053
42
-0.4142135623730222
0
LWPOLYLINE
5
168
100
AcDbEntity
8
0
100
AcDbPolyline
90
8
70
1
43
0.0
10
-264.00307910644892
20
-46.526954714226832
10
-251.00307910644887
20
-46.526954714226754
42
-0.4142135623730222
10
-250.50307910644887
20
-47.026954714226783
10
-250.50307910644875
20
-60.026954714226775
42
-0.41421356237312623
10
-251.00307910644881
20
-60.52695471422679
10
-264.00307910644881
20
-60.526954714226868
42
-0.4142135623730222
10
-264.50307910644887
20
-60.026954714226839
10
-264.50307910644887
20
-47.026954714226846
42
-0.4142135623730846
0
LWPOLYLINE
5
169
100
AcDbEntity
8
0
100
AcDbPolyline
90
8
70
1
43
0.0
10
-78.265579106448726
20
-65.576954714225991
10
-65.26557910644874
20
-65.576954714225934
42
-0.41421356237308982
10
-64.76557910644874
20
-66.076954714225934
10
-64.765579106448698
20
-79.076954714225948
42
-0.41421356237307944
10
-65.265579106448698
20
-79.57695471422592
10
-78.265579106448669
20
-79.576954714226019
42
-0.41421356237311585
10
-78.765579106448683
20
-79.076954714226005
10
-78.76557910644874
20
-66.076954714226005
42
-0.41421356237310542
0
LWPOLYLINE
5
170
100
AcDbEntity
8
0
100
AcDbPolyline
90
8
70
1
43
0.0
10
-244.95307910644891
20
-46.526954714226754
10
-231.95307910644885
20
-46.526954714226683
42
-0.4142135623730222
10
-231.45307910644885
20
-47.026954714226711
10
-231.45307910644874
20
-60.02695471422669
42
-0.41421356237313667
10
-231.9530791064488
20
-60.526954714226719
10
-244.95307910644883
20
-60.526954714226775
42
-0.4142135623730222
10
-245.45307910644883
20
-60.026954714226754
10
-245.45307910644883
20
-47.026954714226754
42
-0.4142135623730846
0
LWPOLYLINE
5
171
100
AcDbEntity
8
0
100
AcDbPolyline
90
8
70
1
43
0.0
10
-97.315579106448752
20
-65.576954714226076
10
-84.315579106448752
20
-65.576954714226019
42
-0.41421356237307422
10
-83.815579106448737
20
-66.076954714226019
10
-83.815579106448695
20
-79.076954714226034
42
-0.41421356237310025
10
-84.315579106448695
20
-79.576954714226019
10
-97.315579106448695
20
-79.576954714226119
42
-0.41421356237309503
10
-97.815579106448709
20
-79.076954714226105
10
-97.815579106448766
20
-66.076954714226076
42
-0.41421356237307422
0
LWPOLYLINE
5
172
100
AcDbEntity
8
0
100
AcDbPolyline
90
8
70
1
43
0.0
10
-121.91557910644875
20
-66.07695471422619
42
0.41421356237308982
10
-122.41557910644875
20
-65.57695471422619
10
-135.41557910644875
20
-65.576954714226247
42
0.4142135623730846
10
-135.91557910644875
20
-66.076954714226261
10
-135.91557910644869
20
-79.076954714226247
42
0.41421356237309503
10
-135.41557910644869
20
-79.576954714226247
10
-122.4155791064487
20
-79.576954714226218
42
0.41421356237307944
10
-121.91557910644869
20
-79.076954714226204
0
LWPOLYLINE
5
173
100
AcDbEntity
8
0
100
AcDbPolyline
90
8
70
1
43
0.0
10
-192.56557910644881
20
-65.576954714226517
10
-179.56557910644875
20
-65.576954714226446
42
-0.4142135623730222
10
-179.06557910644875
20
-66.07695471422646
10
-179.06557910644864
20
-79.076954714226474
42
-0.41421356237312623
10
-179.56557910644869
20
-79.576954714226474
10
-192.56557910644872
20
-79.576954714226517
42
-0.41421356237312623
10
-193.06557910644872
20
-79.076954714226531
10
-193.06557910644881
20
-66.076954714226503
42
-0.41421356237312101
0
LWPOLYLINE
5
174
100
AcDbEntity
8
0
100
AcDbPolyline
90
8
70
1
43
0.0
10
-211.61557910644873
20
-65.576954714226602
10
-198.61557910644876
20
-65.576954714226503
42
-0.4142135623730222
10
-198.11557910644876
20
-66.076954714226531
10
-198.11557910644865
20
-79.076954714226559
42
-0.41421356237312623
10
-198.61557910644871
20
-79.576954714226559
10
-211.61557910644865
20
-79.576954714226602
42
-0.41421356237312623
10
-212.11557910644868
20
-79.076954714226616
10
-212.11557910644876
20
-66.076954714226602
42
-0.41421356237312101
0
LWPOLYLINE
5
175
100
AcDbEntity
8
0
100
AcDbPolyline
90
8
70
1
43
0.0
10
-230.66557910644875
20
-65.576954714226702
10
-217.66557910644877
20
-65.576954714226602
42
-0.4142135623730222
10
-217.16557910644877
20
-66.076954714226616
10
-217.16557910644866
20
-79.076954714226616
42
-0.41421356237314705
10
-217.66557910644872
20
-79.576954714226659
10
-230.66557910644866
20
-79.576954714226687
42
-0.41421356237312623
10
-231.16557910644869
20
-79.076954714226702
10
-231.16557910644875
20
-66.076954714226687
42
-0.41421356237312101
0
LWPOLYLINE
5
176
100
AcDbEntity
8
0
100
AcDbPolyline
90
8
70
1
43
0.0
10
-173.5155791064488
20
-65.576954714226432
10
-160.51557910644871
20
-65.576954714226403
42
-0.41421356237307422
10
-160.01557910644868
20
-66.076954714226375
10
-160.01557910644863
20
-79.076954714226389
42
-0.41421356237312623
10
-160.51557910644868
20
-79.576954714226389
10
-173.51557910644871
20
-79.576954714226403
42
-0.41421356237312623
10
-174.01557910644871
20
-79.076954714226417
10
-174.0155791064488
20
-66.076954714226432
42
-0.41421356237313145
0
LWPOLYLINE
5
177
100
AcDbEntity
8
0
100
AcDbPolyline
90
8
70
1
43
0.0
10
-102.86557910644873
20
-66.076954714226105
42
0.41421356237310542
10
-103.36557910644873
20
-65.576954714226119
10
-116.36557910644875
20
-65.576954714226162
42
0.41421356237309503
10
-116.86557910644876
20
-66.076954714226176
10
-116.86557910644871
20
-79.076954714226162
42
0.41421356237307422
10
-116.36557910644869
20
-79.576954714226162
10
-103.36557910644869
20
-79.576954714226133
42
0.41421356237307422
10
-102.86557910644868
20
-79.076954714226119
0
LWPOLYLINE
5
178
100
AcDbEntity
8
0
100
AcDbPolyline
90
8
70
1
43
0.0
10
-154.46557910644876
20
-65.57695471422636
10
-141.46557910644876
20
-65.576954714226275
42
-0.41421356237308982
10
-140.96557910644876
20
-66.076954714226275
10
-140.9655791064487
20
-79.076954714226289
42
-0.41421356237307944
10
-141.4655791064487
20
-79.576954714226304
10
-154.4655791064487
20
-79.576954714226346
42
-0.41421356237309503
10
-154.9655791064487
20
-79.076954714226332
10
-154.96557910644873
20
-66.076954714226346
42
-0.41421356237307422
0
LWPOLYLINE
5
179
100
AcDbEntity
8
0
100
AcDbPolyline
90
8
70
1
43
0.0
10
-249.71557910644876
20
-65.576954714226787
10
-236.71557910644879
20
-65.576954714226687
42
-0.4142135623730222
10
-236.21557910644879
20
-66.076954714226716
10
-236.21557910644867
20
-79.076954714226716
42
-0.41421356237311585
10
-236.71557910644873
20
-79.576954714226702
10
-249.71557910644867
20
-79.576954714226787
42
-0.41421356237312623
10
-250.2155791064487
20
-79.076954714226787
10
-250.21557910644876
20
-66.076954714226773
42
-0.41421356237312101
0
LWPOLYLINE
5
180
100
AcDbEntity
8
0
100
AcDbPolyline
90
8
70
1
43
0.0
10
-311.62807910644869
20
-65.576954714227057
10
-298.62807910644875
20
-65.576954714226986
42
-0.4142135623730222
10
-298.12807910644875
20
-66.076954714227
10
-298.12807910644864
20
-79.076954714227
42
-0.41421356237311585
10
-298.62807910644869
20
-79.576954714227
10
-311.62807910644864
20
-79.576954714227043
42
-0.41421356237312101
10
-312.12807910644864
20
-79.076954714227071
10
-312.12807910644875
20
-66.076954714227057
42
-0.41421356237312101
0
LWPOLYLINE
5
181
100
AcDbEntity
8
0
100
AcDbPolyline
90
8
70
1
43
0.0
10
-202.09057910644873
20
-84.626954714226599
10
-189.09057910644867
20
-84.626954714226514
42
-0.4142135623730846
10
-188.59057910644867
20
-85.126954714226514
10
-188.59057910644856
20
-98.126954714226542
42
-0.41421356237307422
10
-189.09057910644862
20
-98.626954714226528
10
-202.09057910644867
20
-98.626954714226628
42
-0.41421356237310542
10
-202.59057910644867
20
-98.126954714226599
10
-202.5905791064487
20
-85.126954714226599
42
-0.41421356237310542
0
LWPOLYLINE
5
182
100
AcDbEntity
8
0
100
AcDbPolyline
90
8
70
1
43
0.0
10
-163.99057910644865
20
-84.626954714226414
10
-150.99057910644865
20
-84.626954714226329
42
-0.4142135623730534
10
-150.49057910644865
20
-85.126954714226329
10
-150.49057910644859
20
-98.126954714226343
42
-0.41421356237307422
10
-150.99057910644859
20
-98.626954714226343
10
-163.99057910644865
20
-98.626954714226457
42
-0.41421356237310542
10
-164.49057910644865
20
-98.126954714226429
10
-164.49057910644859
20
-85.126954714226429
42
-0.41421356237310542
0
LWPOLYLINE
5
183
100
AcDbEntity
8
0
100
AcDbPolyline
90
8
70
1
43
0.0
10
-144.94057910644867
20
-84.626954714226329
10
-131.94057910644867
20
-84.62695471422623
42
-0.41421356237307422
10
-131.44057910644867
20
-85.126954714226244
10
-131.44057910644861
20
-98.126954714226258
42
-0.41421356237309503
10
-131.94057910644861
20
-98.626954714226258
10
-144.94057910644861
20
-98.626954714226343
42
-0.4142135623730534
10
-145.44057910644861
20
-98.126954714226343
10
-145.44057910644867
20
-85.126954714226329
42
-0.41421356237307422
0
LWPOLYLINE
5
184
100
AcDbEntity
8
0
100
AcDbPolyline
90
8
70
1
43
0.0
10
-106.84057910644866
20
-84.626954714226144
10
-93.840579106448644
20
-84.626954714226088
42
-0.41421356237307422
10
-93.340579106448644
20
-85.126954714226102
10
-93.340579106448587
20
-98.126954714226116
42
-0.41421356237309503
10
-93.840579106448587
20
-98.626954714226116
10
-106.8405791064486
20
-98.626954714226173
42
-0.41421356237307422
10
-107.34057910644862
20
-98.126954714226159
10
-107.34057910644866
20
-85.126954714226144
42
-0.41421356237304302
0
LWPOLYLINE
5
185
100
AcDbEntity
8
0
100
AcDbPolyline
90
8
70
1
43
0.0
10
-87.790579106448661
20
-84.626954714226059
10
-74.790579106448661
20
-84.626954714226002
42
-0.4142135623730846
10
-74.290579106448632
20
-85.126954714226017
10
-74.29057910644859
20
-98.126954714226017
42
-0.41421356237310542
10
-74.790579106448604
20
-98.626954714226002
10
-87.79057910644859
20
-98.626954714226059
42
-0.41421356237306384
10
-88.290579106448618
20
-98.126954714226059
10
-88.290579106448632
20
-85.126954714226045
42
-0.4142135623730846
0
LWPOLYLINE
5
186
100
AcDbEntity
8
0
100
AcDbPolyline
90
8
70
1
43
0.0
10
-183.04057910644872
20
-84.6269547142265
10
-170.04057910644866
20
-84.6269547142264
42
-0.41421356237310542
10
-169.54057910644866
20
-85.126954714226429
10
-169.54057910644863
20
-98.126954714226429
42
-0.41421356237310542
10
-170.0405791064486
20
-98.626954714226429
10
-183.04057910644866
20
-98.626954714226514
42
-0.4142135623730846
10
-183.54057910644866
20
-98.126954714226514
10
-183.54057910644877
20
-85.126954714226514
42
-0.4142135623730846
0
LWPOLYLINE
5
187
100
AcDbEntity
8
0
100
AcDbPolyline
90
8
70
1
43
0.0
10
-125.89057910644866
20
-84.62695471422623
10
-112.89057910644866
20
-84.626954714226187
42
-0.4142135623730534
10
-112.39057910644866
20
-85.126954714226187
10
-112.3905791064486
20
-98.126954714226159
42
-0.41421356237309503
10
-112.8905791064486
20
-98.626954714226201
10
-125.8905791064486
20
-98.626954714226258
42
-0.41421356237307422
10
-126.3905791064486
20
-98.126954714226258
10
-126.39057910644866
20
-85.126954714226244
42
-0.41421356237309503
0
LWPOLYLINE
5
188
100
AcDbEntity
8
0
100
AcDbPolyline
90
70
70
1
43
0.0
10
-213.92807910644834
20
-103.67695471422665
42
0.41421356237309503
10
-213.37807910644827
20
-103.12695471422658
10
-213.3780791064483
20
-101.72695471341719
42
-0.4142135623730383
10
-212.82807910644837
20
-101.17695471341722
10
-205.75907910644838
20
-101.17695471341719
42
-0.41421356237309503
10
-205.20907910644831
20
-101.72695471341719
10
-205.2090791064488
20
-119.20195471422656
42
0.41421356237311585
10
-204.20907910644877
20
-120.20195471422656
10
-195.6880791064483
20
-120.20195471422659
42
0.41421356237308982
10
-194.68807910644827
20
-119.20195471422657
10
-194.68807910644824
20
-101.87695471341713
42
-0.41421356237312346
10
-194.13807910644823
20
-101.32695471341717
10
-187.42107910644833
20
-101.32695471341714
42
-0.41421356237320855
10
-186.87107910644826
20
-101.87695471341706
10
-186.87107910644826
20
-119.20195471422659
42
0.4142135623730846
10
-185.87107910644832
20
-120.2019547142265
10
-100.32807910644827
20
-120.2019547142261
42
0.41421356237310025
10
-99.328079106448257
20
-119.20195471422613
10
-99.328079106448371
20
-101.87695471341658
42
-0.41421356237310453
10
-98.778079106448402
20
-101.32695471341664
10
-87.615579106448337
20
-101.3269547134166
42
-0.41421356237307611
10
-87.065579106448354
20
-101.87695471341654
10
-87.065579106448297
20
-119.2019547142261
42
0.41421356237309503
10
-86.065579106448311
20
-120.2019547142261
10
-53.347868486811933
20
-120.20195471422585
42
-0.26935266418579362
10
-52.479236972369989
20
-120.70649604580005
10
-50.283882871138665
20
-124.55536150968976
42
0.51162832760068133
10
-45.623873392740194
20
-124.55536150972512
10
-43.428519291403958
20
-120.70649604578689
42
-0.2693526641817508
10
-42.559887776969482
20
-120.20195471422582
10
-10.853079106448495
20
-120.20195471422568
42
0.4142135623730937
10
-9.8530791064485044
20
-119.20195471422572
10
-9.8530791064490302
20
-2.1389547219361482
42
0.4142135623730962
10
-10.853079106449028
20
-1.1389547219361456
10
-13.983887776970018
20
-1.1389547219361624
42
-0.26935266418173104
10
-14.852519291404461
20
-0.63441339037515232
10
-17.047873392740787
20
3.2144520735629687
42
0.51162832760068078
10
-21.707882871139223
20
3.2144520735276179
10
-23.903236972370507
20
-0.63441339036202415
42
-0.26935266418579623
10
-24.771868486812455
20
-1.1389547219362108
10
-156.85907432771984
20
-1.1389547219368104
42
-0.26935266418173165
10
-157.72770584215428
20
-0.63441339037579647
10
-159.92305994274091
20
3.2144520722480974
42
0.51162832760067356
10
-164.58306942113938
20
3.2144520722128256
10
-166.77842352162105
20
-0.63441339036266309
42
-0.26935266418580145
10
-167.64705503606302
20
-1.138954721936863
10
-299.73407432771984
20
-1.1389547219374725
42
-0.26935266418175546
10
-300.60270584215436
20
-0.63441339037643829
10
-302.79805994274102
20
3.2144520722474459
42
0.51162832760067212
10
-307.4580694211395
20
3.2144520722121914
10
-309.65342352162116
20
-0.63441339036331468
42
-0.26935266418580173
10
-310.52205503606308
20
-1.1389547219375153
10
-313.65307910644907
20
-1.1389547219375278
42
0.41421356237310591
10
-314.65307910644913
20
-2.1389547219375284
10
-314.65307910644844
20
-119.20195471422714
42
0.41421356237307944
10
-313.65307910644844
20
-120.2019547142271
10
-281.94705503606247
20
-120.20195471422693
42
-0.26935266418579601
10
-281.07842352162049
20
-120.70649604580112
10
-278.88306942113888
20
-124.55536150837662
42
0.51162832760068022
10
-274.22305994274041
20
-124.55536150841183
10
-272.02770584215364
20
-120.70649604578793
42
-0.26935266418174664
10
-271.15907432771917
20
-120.20195471422687
10
-214.25307910644852
20
-120.20195471422667
42
0.41421356237308982
10
-213.25307910644852
20
-119.20195471422664
10
-213.25307910644852
20
-118.67695471422661
42
0.41421356237309503
10
-214.25307910644852
20
-117.67695471422667
10
-218.75932910644843
20
-117.67695471422671
42
-0.41421356237310542
10
-219.25932910644843
20
-117.1769547142267
10
-219.25932910644855
20
-104.1769547142267
42
-0.4142135623730846
10
-218.75932910644849
20
-103.6769547142267
0
LWPOLYLINE
5
189
100
AcDbEntity
8
0
100
AcDbPolyline
90
8
70
1
43
0.0
10
-54.45307910644857
20
-103.67695471422591
10
-39.071829106448568
20
-103.67695471422586
42
-0.41421356237312362
10
-38.571829106448554
20
-104.17695471422587
10
-38.571829106448511
20
-117.17695471422581
42
-0.41421356237311846
10
-39.071829106448504
20
-117.67695471422584
10
-54.453079106448506
20
-117.67695471422599
42
-0.41421356237311585
10
-54.953079106448527
20
-117.17695471422593
10
-54.953079106448598
20
-104.17695471422597
42
-0.41421356237311585
0
LWPOLYLINE
5
190
100
AcDbEntity
8
0
100
AcDbPolyline
90
4
70
1
43
0.0
10
-167.72807910644855
20
-114.17695471422655
10
-178.87107910644835
20
-114.17695471422662
42
-0.99999999999999989
10
-178.87107910644843
20
-107.17695471422664
10
-167.72807910644869
20
-107.1769547142266
42
-0.99999999999999989
0
LWPOLYLINE
5
191
100
AcDbEntity
8
0
100
AcDbPolyline
90
4
70
1
43
0.0
10
-125.82182910644855
20
-107.17695471422631
10
-107.32807910644829
20
-107.17695471422617
42
-0.99999999999999989
10
-107.32807910644824
20
-114.17695471422617
10
-125.82182910644852
20
-114.17695471422631
42
-0.99999999999999989
0
LWPOLYLINE
5
192
100
AcDbEntity
8
0
100
AcDbPolyline
90
4
70
1
43
0.0
10
-247.2713291064486
20
-86.126954714226812
10
-247.27132910644866
20
-97.126954714226969
42
-0.99999999999999989
10
-249.87132910644863
20
-97.126954714226926
10
-249.87132910644851
20
-86.126954714226883
42
-0.99999999999999989
0
LWPOLYLINE
5
193
100
AcDbEntity
8
0
100
AcDbPolyline
90
4
70
1
43
0.0
10
-34.153579106448831
20
-48.026954714225852
10
-34.153579106448781
20
-59.026954714225838
42
-0.99999999999999989
10
-36.753579106448775
20
-59.026954714225859
10
-36.753579106448825
20
-48.026954714225852
42
-0.99999999999999989
0
LWPOLYLINE
5
194
100
AcDbEntity
8
0
100
AcDbPolyline
90
40
70
1
43
0.0
10
-15.596329106448854
20
-84.326954712868499
42
0.41421356237310153
10
-15.296329106448818
20
-84.626954712868525
10
-14.546329106448834
20
-84.626954712868496
42
-0.4142135623730625
10
-14.246329106448812
20
-84.926954712868522
10
-14.246329106448837
20
-98.326954712868513
42
-0.41421356237311452
10
-14.54632910644885
20
-98.626954712868496
10
-15.296329106448798
20
-98.626954712868496
42
0.41421356237308854
10
-15.596329106448806
20
-98.926954712868493
10
-15.59632910644838
20
-100.76695471584495
42
-0.41421356237313522
10
-16.146329106448345
20
-101.31695471584494
10
-22.984329106448342
20
-101.316954715845
42
-0.41421356237308637
10
-23.284329106448347
20
-101.01695471584503
10
-23.284329106448425
20
-99.176954714630497
42
0.41421356237307771
10
-23.584329106448386
20
-98.8769547146306
10
-38.984329106448371
20
-98.87695471327342
42
0.41421356237312101
10
-39.284329106448354
20
-99.176954714630654
10
-39.28432910644834
20
-101.01695471584536
42
-0.41421356237309503
10
-39.58432910644833
20
-101.31695471584536
10
-46.422329106448331
20
-101.31695471584507
42
-0.41421356237311396
10
-46.972329106448299
20
-100.76695471584512
10
-46.972329106448811
20
-98.926954712868493
42
0.41421356237307771
10
-47.272329106448822
20
-98.626954712868482
10
-50.322329106448798
20
-98.626954712868539
42
-0.41421356237308637
10
-50.622329106448802
20
-98.326954712868528
10
-50.622329106448809
20
-84.926954712868508
42
-0.41421356237312978
10
-50.322329106448784
20
-84.62695471286851
10
-47.272329106448787
20
-84.626954712868908
42
0.414213562373069
10
-46.972329106448768
20
-84.326954712868883
10
-46.97232910644842
20
-81.976954712868746
42
-0.41421356237312101
10
-46.672329106448416
20
-81.676954712868678
10
-39.272329106448439
20
-81.67695471286865
42
-0.41421356237305601
10
-38.972329106448434
20
-81.976954712868661
10
-38.972329106448441
20
-84.32695471286894
42
0.41421356237306473
10
-38.672329106448437
20
-84.626954712868866
10
-23.896329106448462
20
-84.626954712868724
42
0.414213562373069
10
-23.596329106448465
20
-84.326954712868698
10
-23.596329106448479
20
-81.976954712868633
42
-0.41421356237310375
10
-23.296329106448461
20
-81.676954712868593
10
-15.896329106448444
20
-81.676954712868593
42
-0.41421356237307988
10
-15.596329106448446
20
-81.976954712868604
0
ENDSEC
0
SECTION
2
OBJECTS
0
DICTIONARY
5
C
100
AcDbDictionary
3
ACAD_GROUP
350
D
3
ACAD_MLINESTYLE
350
17
0
DICTIONARY
5
D
100
AcDbDictionary
0
DICTIONARY
5
1A
330
C
100
AcDbDictionary
0
DICTIONARY
5
17
100
AcDbDictionary
0
ENDSEC
0
EOF
