0
SECTION
2
HEADER
9
$INSUNITS
70
4
9
$ACADVER
1
AC1014
9
$HANDSEED
5
FFFF
0
ENDSEC
0
SECTION
2
TABLES
0
TABLE
2
VPORT
5
8
100
AcDbSymbolTable
0
ENDTAB
0
TABLE
2
LTYPE
5
5
100
AcDbSymbolTable
0
LTYPE
5
14
100
AcDbSymbolTableRecord
100
AcDbLinetypeTableRecord
2
BYBLOCK
70
0
0
LTYPE
5
15
100
AcDbSymbolTableRecord
100
AcDbLinetypeTableRecord
2
BYLAYER
70
0
0
LTYPE
5
16
100
AcDbSymbolTableRecord
100
AcDbLinetypeTableRecord
2
DASHED
70
0
3
Dashed __ __ __ __ __ __ __ __ __ __ __ __ __ _
72
65
73
2
40
0.75
49
0.5
74
0
49
-0.25
74
0
0
ENDTAB
0
TABLE
2
LAYER
5
2
100
AcDbSymbolTable
70
2
0
LAYER
5
50
100
AcDbSymbolTableRecord
100
AcDbLayerTableRecord
2
0
70
0
62
7
6
CONTINUOUS
0
ENDTAB
0
TABLE
2
STYLE
5
3
100
AcDbSymbolTable
70
1
0
STYLE
5
11
100
AcDbSymbolTableRecord
100
AcDbTextStyleTableRecord
2
STANDARD
70
0
0
ENDTAB
0
TABLE
2
VIEW
5
6
100
AcDbSymbolTable
70
0
0
ENDTAB
0
TABLE
2
UCS
5
7
100
AcDbSymbolTable
70
0
0
ENDTAB
0
TABLE
2
APPID
5
9
100
AcDbSymbolTable
70
2
0
APPID
5
12
100
AcDbSymbolTableRecord
100
AcDbRegAppTableRecord
2
ACAD
70
0
0
ENDTAB
0
TABLE
2
DIMSTYLE
5
A
100
AcDbSymbolTable
70
1
0
ENDTAB
0
TABLE
2
BLOCK_RECORD
5
1
100
AcDbSymbolTable
70
1
0
BLOCK_RECORD
5
1F
100
AcDbSymbolTableRecord
100
AcDbBlockTableRecord
2
*MODEL_SPACE
0
BLOCK_RECORD
5
1B
100
AcDbSymbolTableRecord
100
AcDbBlockTableRecord
2
*PAPER_SPACE
0
ENDTAB
0
ENDSEC
0
SECTION
2
BLOCKS
0
BLOCK
5
20
100
AcDbEntity
100
AcDbBlockBegin
2
*MODEL_SPACE
0
ENDBLK
5
21
100
AcDbEntity
100
AcDbBlockEnd
0
BLOCK
5
1C
100
AcDbEntity
100
AcDbBlockBegin
2
*PAPER_SPACE
0
ENDBLK
5
1D
100
AcDbEntity
100
AcDbBlockEnd
0
ENDSEC
0
SECTION
2
ENTITIES
0
LWPOLYLINE
5
100
100
AcDbEntity
8
0
100
AcDbPolyline
90
4
70
1
43
0.0
10
-34.153579319000301
20
-48.02695473363049
10
-34.153579319000315
20
-59.026954733630468
42
-0.99999999999999989
10
-36.753579319000316
20
-59.02695473363049
10
-36.753579319000302
20
-48.026954733630511
42
-0.99999999999999989
0
LWPOLYLINE
5
101
100
AcDbEntity
8
0
100
AcDbPolyline
90
4
70
1
43
0.0
10
-247.27132931900036
20
-86.126954733631166
10
-247.27132931900036
20
-97.12695473363118
42
-0.99999999999999989
10
-249.87132931900035
20
-97.126954733631209
10
-249.87132931900035
20
-86.126954733631266
42
-0.99999999999999989
0
LWPOLYLINE
5
102
100
AcDbEntity
8
0
100
AcDbPolyline
90
4
70
1
43
0.0
10
-291.31378465405692
20
-48.012310072690696
10
-291.31378465405692
20
-59.012310072690624
42
-0.99999999999999989
10
-293.91378465405688
20
-59.012310072690667
10
-293.91378465405688
20
-48.012310072690731
42
-0.99999999999999989
0
LWPOLYLINE
5
103
100
AcDbEntity
8
0
100
AcDbPolyline
90
4
70
1
43
0.0
10
-125.82182931900036
20
-107.17695473363077
10
-107.32807931900012
20
-107.17695473363065
42
-0.99999999999999989
10
-107.3280793190001
20
-114.17695473363065
10
-125.82182931900039
20
-114.17695473363075
42
-0.99999999999999989
0
LWPOLYLINE
5
104
100
AcDbEntity
8
0
100
AcDbPolyline
90
4
70
1
43
0.0
10
-167.72807931900036
20
-114.17695473363094
10
-178.8710793190003
20
-114.17695473363098
42
-0.99999999999999989
10
-178.8710793190003
20
-107.17695473363099
10
-167.72807931900036
20
-107.17695473363096
42
-0.99999999999999989
0
LWPOLYLINE
5
105
100
AcDbEntity
8
0
100
AcDbPolyline
90
8
70
1
43
0.0
10
-287.75078465405693
20
-46.51231007269061
10
-274.85093465805932
20
-46.512310072690582
42
-0.41421356237309975
10
-274.30093465805936
20
-47.062310072690551
10
-274.3009346580593
20
-59.962310072690585
42
-0.41421356237313289
10
-274.85093465805937
20
-60.512310072690568
10
-287.75078465405682
20
-60.512310072690639
42
-0.41421356237314239
10
-288.30078465405683
20
-59.962310072690592
10
-288.30078465405688
20
-47.062310072690593
42
-0.41421356237313761
0
LWPOLYLINE
5
106
100
AcDbEntity
8
0
100
AcDbPolyline
90
24
70
1
43
0.0
10
-258.21918465805953
20
-63.132310071333563
10
-258.21918465805959
20
-81.462310073904604
42
-0.41421356237310453
10
-258.76918465805954
20
-82.012310073904629
10
-265.63818465806014
20
-82.012310073904814
42
-0.41421356237310453
10
-266.18818465806015
20
-81.462310073904831
10
-266.18818465806021
20
-80.112310071333354
42
0.41421356237296264
10
-266.73818465806016
20
-79.562310071333386
10
-281.63818465806025
20
-79.562310071333442
42
0.41421356237312346
10
-282.18818465806032
20
-80.112310071333411
10
-282.18818465806032
20
-81.462310073905456
42
-0.41421356237312346
10
-282.73818465806033
20
-82.012310073905468
10
-289.60676030416539
20
-82.012310073905695
42
-0.41421356237310453
10
-290.15676030416535
20
-81.462310073905684
10
-290.15676030416535
20
-63.132310071333677
42
-0.41421356237307611
10
-289.60676030416539
20
-62.582310071333637
10
-282.73793465805926
20
-62.582310071333609
42
-0.41421356237311396
10
-282.18793465805925
20
-63.132310071333642
10
-282.18793465805925
20
-65.012310072285942
42
0.41421356237312812
10
-281.63793465805929
20
-65.562310072285896
10
-266.73818465805954
20
-65.562310072285868
42
0.41421356237313761
10
-266.18818465805953
20
-65.012310072285828
10
-266.18818465805953
20
-63.132310071333563
42
-0.41421356237310919
10
-265.63818465805957
20
-62.582310071333566
10
-258.76918465805954
20
-62.582310071333552
42
-0.41421356237313761
0
LWPOLYLINE
5
107
100
AcDbEntity
8
0
100
AcDbPolyline
90
24
70
1
43
0.0
10
-46.972329319000075
20
-100.76695473524966
10
-46.972329319000082
20
-81.976954732273299
42
-0.41421356237310375
10
-46.672329319000085
20
-81.676954732273273
10
-39.272329319000107
20
-81.676954732273245
42
-0.41421356237306034
10
-38.972329319000096
20
-81.976954732273256
10
-38.972329319000117
20
-84.326954732273535
42
0.41421356237309936
10
-38.67232931900012
20
-84.626954732273489
10
-23.896329319000142
20
-84.62695473227329
42
0.414213562373069
10
-23.596329319000144
20
-84.326954732273293
10
-23.596329319000141
20
-81.976954732273214
42
-0.41421356237309503
10
-23.296329319000129
20
-81.676954732273202
10
-15.89632931900011
20
-81.676954732273174
42
-0.41421356237307988
10
-15.596329319000116
20
-81.976954732273185
10
-15.596329319000155
20
-100.76695473524953
42
-0.41421356237313406
10
-16.14632931900012
20
-101.3169547352495
10
-22.984329319000125
20
-101.3169547352496
42
-0.41421356237308204
10
-23.284329319000122
20
-101.01695473524963
10
-23.284329319000186
20
-99.176954734035093
42
0.41421356237311241
10
-23.584329319000148
20
-98.876954734035138
10
-38.984329319000125
20
-98.876954732677959
42
0.41421356237313406
10
-39.284329319000129
20
-99.176954734035192
10
-39.284329319000108
20
-101.01695473524987
42
-0.41421356237309503
10
-39.584329319000105
20
-101.31695473524987
10
-46.422329319000113
20
-101.31695473524964
42
-0.41421356237310919
0
LWPOLYLINE
5
108
100
AcDbEntity
8
0
100
AcDbPolyline
90
8
70
1
43
0.0
10
-54.453079319000359
20
-103.67695473363048
10
-39.071829319000358
20
-103.67695473363037
42
-0.41421356237307161
10
-38.571829319000351
20
-104.17695473363038
10
-38.571829319000365
20
-117.17695473363035
42
-0.4142135623730846
10
-39.071829319000372
20
-117.67695473363034
10
-54.453079319000381
20
-117.67695473363048
42
-0.41421356237310025
10
-54.953079319000381
20
-117.17695473363044
10
-54.953079319000352
20
-104.17695473363047
42
-0.41421356237309503
0
LWPOLYLINE
5
109
100
AcDbEntity
8
0
100
AcDbPolyline
90
70
70
1
43
0.0
10
-213.9280793190002
20
-103.67695473363098
42
0.41421356237307611
10
-213.37807931900016
20
-103.12695473363091
10
-213.37807931900016
20
-101.72695473282154
42
-0.4142135623730383
10
-212.82807931900024
20
-101.17695473282157
10
-205.75907931900014
20
-101.17695473282151
42
-0.41421356237305718
10
-205.20907931900012
20
-101.7269547328215
10
-205.20907931900072
20
-119.20195473363086
42
0.41421356237312101
10
-204.20907931900075
20
-120.20195473363088
10
-195.68807931900022
20
-120.20195473363088
42
0.414213562373069
10
-194.6880793190002
20
-119.20195473363088
10
-194.68807931900011
20
-101.87695473282147
42
-0.41421356237312346
10
-194.13807931900007
20
-101.32695473282148
10
-187.42107931900009
20
-101.32695473282142
42
-0.41421356237310453
10
-186.87107931900013
20
-101.8769547328214
10
-186.87107931900022
20
-119.20195473363087
42
0.41421356237307422
10
-185.87107931900024
20
-120.20195473363088
10
-100.32807931900017
20
-120.20195473363054
42
0.41421356237309503
10
-99.328079319000167
20
-119.20195473363057
10
-99.328079319000153
20
-101.87695473282106
42
-0.41421356237312346
10
-98.778079319000199
20
-101.32695473282109
10
-87.615579319000119
20
-101.32695473282106
42
-0.41421356237312346
10
-87.065579319000136
20
-101.87695473282103
10
-87.065579319000165
20
-119.20195473363052
42
0.41421356237310025
10
-86.065579319000193
20
-120.20195473363053
10
-53.347868699363829
20
-120.20195473363037
42
-0.26935266418579362
10
-52.479237184921885
20
-120.70649606520456
10
-50.283883083690583
20
-124.55536152909424
42
0.51162832760067656
10
-45.623873605292111
20
-124.55536152912954
10
-43.428519503955812
20
-120.70649606519137
42
-0.26935266418173309
10
-42.559887989521378
20
-120.20195473363034
10
-10.853079319000379
20
-120.20195473363025
42
0.4142135623730937
10
-9.8530793190003862
20
-119.20195473363025
10
-9.8530793190002459
20
-2.1389547413409105
42
0.41421356237309875
10
-10.853079319000241
20
-1.1389547413409049
10
-13.983887989521229
20
-1.1389547413409171
42
-0.26935266418173071
10
-14.852519503955667
20
-0.63441340977990379
10
-17.047873605291972
20
3.2144520541582136
42
0.51162832760068078
10
-21.707883083690405
20
3.2144520541228667
10
-23.903237184921711
20
-0.63441340976676663
42
-0.26935266418579706
10
-24.771868699363662
20
-1.1389547413409513
10
-156.85907454027105
20
-1.1389547413414067
42
-0.26935266418173176
10
-157.72770605470549
20
-0.63441340978039262
10
-159.92306015529209
20
3.2144520528434972
42
0.51162832760067434
10
-164.58306963369057
20
3.2144520528082277
10
-166.77842373417224
20
-0.63441340976726335
42
-0.26935266418579634
10
-167.64705524861421
20
-1.1389547413414456
10
-299.73407454027108
20
-1.1389547413419123
42
-0.26935266418173665
10
-300.60270605470555
20
-0.63441340978087735
10
-302.79806015529215
20
3.2144520528430025
42
0.51162832760067301
10
-307.45806963369063
20
3.2144520528077507
10
-309.65342373417229
20
-0.6344134097677584
42
-0.26935266418579645
10
-310.52205524861427
20
-1.1389547413419412
10
-313.65307931900026
20
-1.1389547413419518
42
0.41421356237310591
10
-314.65307931900031
20
-2.1389547413419505
10
-314.65307931900043
20
-119.2019547336313
42
0.41421356237310542
10
-313.65307931900043
20
-120.20195473363128
10
-281.94705524861439
20
-120.20195473363117
42
-0.26935266418579601
10
-281.07842373417247
20
-120.70649606520536
10
-278.8830696336907
20
-124.55536152778086
42
0.51162832760067412
10
-274.22306015529233
20
-124.55536152781605
10
-272.02770605470562
20
-120.70649606519217
42
-0.26935266418173426
10
-271.15907454027115
20
-120.20195473363115
10
-214.25307931900048
20
-120.20195473363096
42
0.41421356237307422
10
-213.25307931900051
20
-119.20195473363094
10
-213.25307931900051
20
-118.67695473363096
42
0.41421356237307422
10
-214.25307931900048
20
-117.67695473363094
10
-218.75932931900039
20
-117.67695473363099
42
-0.41421356237310542
10
-219.25932931900039
20
-117.17695473363096
10
-219.25932931900036
20
-104.17695473363099
42
-0.41421356237313667
10
-218.75932931900036
20
-103.67695473363099
0
LWPOLYLINE
5
110
100
AcDbEntity
8
0
100
AcDbPolyline
90
8
70
1
43
0.0
10
-125.89057931900035
20
-84.626954733630697
10
-112.89057931900035
20
-84.62695473363064
42
-0.41421356237307422
10
-112.39057931900035
20
-85.126954733630654
10
-112.39057931900035
20
-98.12695473363064
42
-0.41421356237309503
10
-112.89057931900035
20
-98.62695473363064
10
-125.89057931900035
20
-98.626954733630697
42
-0.4142135623730534
10
-126.39057931900035
20
-98.126954733630697
10
-126.39057931900035
20
-85.126954733630697
42
-0.41421356237307422
0
LWPOLYLINE
5
111
100
AcDbEntity
8
0
100
AcDbPolyline
90
8
70
1
43
0.0
10
-183.04057931900036
20
-84.626954733630896
10
-170.04057931900036
20
-84.626954733630825
42
-0.41421356237310542
10
-169.54057931900036
20
-85.126954733630839
10
-169.5405793190003
20
-98.126954733630839
42
-0.4142135623730846
10
-170.04057931900036
20
-98.626954733630839
10
-183.04057931900036
20
-98.626954733630896
42
-0.41421356237313667
10
-183.54057931900036
20
-98.126954733630896
10
-183.54057931900036
20
-85.126954733630896
42
-0.41421356237309503
0
LWPOLYLINE
5
112
100
AcDbEntity
8
0
100
AcDbPolyline
90
8
70
1
43
0.0
10
-87.790579319000344
20
-84.626954733630555
10
-74.790579319000344
20
-84.626954733630527
42
-0.41421356237310542
10
-74.290579319000329
20
-85.126954733630527
10
-74.290579319000344
20
-98.126954733630512
42
-0.41421356237310542
10
-74.790579319000358
20
-98.626954733630498
10
-87.790579319000344
20
-98.626954733630555
42
-0.41421356237306384
10
-88.290579319000372
20
-98.126954733630555
10
-88.290579319000372
20
-85.126954733630555
42
-0.41421356237312623
0
LWPOLYLINE
5
113
100
AcDbEntity
8
0
100
AcDbPolyline
90
8
70
1
43
0.0
10
-106.84057931900035
20
-84.626954733630626
10
-93.840579319000341
20
-84.626954733630569
42
-0.41421356237307422
10
-93.340579319000341
20
-85.126954733630583
10
-93.340579319000341
20
-98.126954733630569
42
-0.41421356237309503
10
-93.840579319000341
20
-98.626954733630583
10
-106.84057931900035
20
-98.626954733630626
42
-0.41421356237307422
10
-107.34057931900037
20
-98.126954733630626
10
-107.34057931900037
20
-85.12695473363064
42
-0.41421356237309503
0
LWPOLYLINE
5
114
100
AcDbEntity
8
0
100
AcDbPolyline
90
8
70
1
43
0.0
10
-144.94057931900036
20
-84.626954733630754
10
-131.94057931900036
20
-84.626954733630711
42
-0.41421356237307422
10
-131.44057931900036
20
-85.126954733630726
10
-131.44057931900036
20
-98.126954733630711
42
-0.41421356237309503
10
-131.94057931900036
20
-98.626954733630726
10
-144.94057931900036
20
-98.626954733630754
42
-0.41421356237307422
10
-145.44057931900036
20
-98.126954733630754
10
-145.44057931900036
20
-85.126954733630754
42
-0.4142135623730534
0
LWPOLYLINE
5
115
100
AcDbEntity
8
0
100
AcDbPolyline
90
8
70
1
43
0.0
10
-163.99057931900035
20
-84.626954733630825
10
-150.99057931900035
20
-84.626954733630782
42
-0.41421356237307422
10
-150.49057931900035
20
-85.126954733630797
10
-150.49057931900035
20
-98.126954733630768
42
-0.41421356237310542
10
-150.99057931900035
20
-98.626954733630782
10
-163.99057931900035
20
-98.626954733630825
42
-0.41421356237313667
10
-164.49057931900035
20
-98.126954733630811
10
-164.49057931900035
20
-85.126954733630825
42
-0.41421356237309503
0
LWPOLYLINE
5
116
100
AcDbEntity
8
0
100
AcDbPolyline
90
8
70
1
43
0.0
10
-202.09057931900037
20
-84.626954733630953
10
-189.09057931900037
20
-84.626954733630896
42
-0.41421356237310542
10
-188.59057931900037
20
-85.126954733630924
10
-188.59057931900031
20
-98.12695473363091
42
-0.4142135623730846
10
-189.09057931900037
20
-98.62695473363091
10
-202.09057931900037
20
-98.626954733630953
42
-0.41421356237309503
10
-202.59057931900037
20
-98.126954733630939
10
-202.59057931900037
20
-85.126954733630967
42
-0.41421356237314705
0
LWPOLYLINE
5
117
100
AcDbEntity
8
0
100
AcDbPolyline
90
8
70
1
43
0.0
10
-311.62807931900028
20
-65.576954733631368
10
-298.62807931900028
20
-65.576954733631311
42
-0.4142135623730222
10
-298.12807931900028
20
-66.076954733631339
10
-298.12807931900034
20
-79.076954733631311
42
-0.41421356237313667
10
-298.62807931900034
20
-79.576954733631325
10
-311.62807931900034
20
-79.576954733631339
42
-0.41421356237312101
10
-312.12807931900034
20
-79.076954733631368
10
-312.12807931900034
20
-66.076954733631382
42
-0.41421356237313667
0
LWPOLYLINE
5
118
100
AcDbEntity
8
0
100
AcDbPolyline
90
8
70
1
43
0.0
10
-249.71557931900034
20
-65.576954733631169
10
-236.71557931900031
20
-65.576954733631084
42
-0.4142135623730222
10
-236.21557931900031
20
-66.076954733631112
10
-236.21557931900037
20
-79.076954733631084
42
-0.41421356237313667
10
-236.71557931900037
20
-79.576954733631112
10
-249.71557931900037
20
-79.57695473363114
42
-0.41421356237312101
10
-250.21557931900037
20
-79.076954733631155
10
-250.21557931900034
20
-66.076954733631169
42
-0.41421356237313667
0
LWPOLYLINE
5
119
100
AcDbEntity
8
0
100
AcDbPolyline
90
8
70
1
43
0.0
10
-154.46557931900034
20
-65.576954733630828
10
-141.46557931900034
20
-65.576954733630799
42
-0.41421356237310542
10
-140.96557931900034
20
-66.076954733630785
10
-140.96557931900034
20
-79.076954733630771
42
-0.41421356237307944
10
-141.46557931900037
20
-79.576954733630785
10
-154.46557931900034
20
-79.576954733630828
42
-0.41421356237309503
10
-154.96557931900037
20
-79.076954733630814
10
-154.96557931900031
20
-66.076954733630828
42
-0.41421356237307944
0
LWPOLYLINE
5
120
100
AcDbEntity
8
0
100
AcDbPolyline
90
8
70
1
43
0.0
10
-102.86557931900032
20
-66.076954733630643
42
0.41421356237308982
10
-103.36557931900032
20
-65.576954733630657
10
-116.36557931900032
20
-65.5769547336307
42
0.41421356237310025
10
-116.86557931900033
20
-66.076954733630714
10
-116.86557931900035
20
-79.076954733630686
42
0.41421356237307422
10
-116.36557931900035
20
-79.576954733630686
10
-103.36557931900033
20
-79.576954733630643
42
0.41421356237307944
10
-102.86557931900033
20
-79.076954733630629
0
LWPOLYLINE
5
121
100
AcDbEntity
8
0
100
AcDbPolyline
90
8
70
1
43
0.0
10
-173.51557931900032
20
-65.576954733630899
10
-160.51557931900032
20
-65.576954733630885
42
-0.41421356237307422
10
-160.01557931900032
20
-66.076954733630856
10
-160.01557931900032
20
-79.076954733630842
42
-0.41421356237312623
10
-160.51557931900032
20
-79.576954733630842
10
-173.51557931900032
20
-79.576954733630885
42
-0.41421356237315227
10
-174.01557931900038
20
-79.076954733630885
10
-174.01557931900038
20
-66.076954733630913
42
-0.41421356237312623
0
LWPOLYLINE
5
122
100
AcDbEntity
8
0
100
AcDbPolyline
90
8
70
1
43
0.0
10
-230.66557931900033
20
-65.576954733631084
10
-217.6655793190003
20
-65.576954733631027
42
-0.4142135623730222
10
-217.1655793190003
20
-66.076954733631055
10
-217.16557931900036
20
-79.076954733631041
42
-0.41421356237313667
10
-217.66557931900036
20
-79.576954733631055
10
-230.66557931900036
20
-79.576954733631055
42
-0.41421356237312101
10
-231.16557931900036
20
-79.076954733631084
10
-231.16557931900033
20
-66.076954733631098
42
-0.41421356237313667
0
LWPOLYLINE
5
123
100
AcDbEntity
8
0
100
AcDbPolyline
90
8
70
1
43
0.0
10
-211.61557931900032
20
-65.576954733631027
10
-198.61557931900029
20
-65.576954733630956
42
-0.4142135623730222
10
-198.11557931900029
20
-66.076954733630984
10
-198.11557931900035
20
-79.07695473363097
42
-0.41421356237313667
10
-198.61557931900035
20
-79.576954733630984
10
-211.61557931900035
20
-79.576954733630998
42
-0.41421356237312101
10
-212.11557931900035
20
-79.076954733631013
10
-212.11557931900032
20
-66.076954733631027
42
-0.41421356237313667
0
LWPOLYLINE
5
124
100
AcDbEntity
8
0
100
AcDbPolyline
90
8
70
1
43
0.0
10
-192.56557931900034
20
-65.576954733630956
10
-179.56557931900034
20
-65.576954733630942
42
-0.41421356237307422
10
-179.06557931900034
20
-66.076954733630913
10
-179.06557931900034
20
-79.076954733630899
42
-0.41421356237312623
10
-179.56557931900036
20
-79.576954733630913
10
-192.56557931900036
20
-79.576954733630956
42
-0.41421356237313145
10
-193.06557931900039
20
-79.076954733630956
10
-193.06557931900034
20
-66.07695473363097
42
-0.41421356237313667
0
LWPOLYLINE
5
125
100
AcDbEntity
8
0
100
AcDbPolyline
90
8
70
1
43
0.0
10
-121.91557931900033
20
-66.076954733630714
42
0.41421356237308982
10
-122.41557931900033
20
-65.576954733630714
10
-135.41557931900033
20
-65.576954733630757
42
0.41421356237308982
10
-135.91557931900033
20
-66.076954733630785
10
-135.91557931900036
20
-79.076954733630743
42
0.41421356237309503
10
-135.41557931900033
20
-79.576954733630757
10
-122.41557931900034
20
-79.576954733630714
42
0.41421356237307944
10
-121.91557931900034
20
-79.0769547336307
0
LWPOLYLINE
5
126
100
AcDbEntity
8
0
100
AcDbPolyline
90
8
70
1
43
0.0
10
-97.315579319000335
20
-65.576954733630629
10
-84.315579319000321
20
-65.576954733630572
42
-0.41421356237310542
10
-83.815579319000335
20
-66.076954733630586
10
-83.815579319000335
20
-79.076954733630572
42
-0.41421356237309503
10
-84.315579319000335
20
-79.576954733630586
10
-97.315579319000349
20
-79.576954733630629
42
-0.41421356237309503
10
-97.815579319000364
20
-79.076954733630615
10
-97.815579319000321
20
-66.076954733630643
42
-0.41421356237307944
0
LWPOLYLINE
5
127
100
AcDbEntity
8
0
100
AcDbPolyline
90
8
70
1
43
0.0
10
-244.95307931900032
20
-46.526954733631172
10
-231.95307931900032
20
-46.526954733631108
42
-0.4142135623730222
10
-231.45307931900032
20
-47.026954733631136
10
-231.45307931900027
20
-60.026954733631101
42
-0.41421356237312623
10
-231.95307931900032
20
-60.526954733631115
10
-244.95307931900032
20
-60.526954733631122
42
-0.41421356237307422
10
-245.45307931900032
20
-60.02695473363115
10
-245.45307931900032
20
-47.026954733631179
42
-0.41421356237313667
0
LWPOLYLINE
5
128
100
AcDbEntity
8
0
100
AcDbPolyline
90
8
70
1
43
0.0
10
-78.265579319000324
20
-65.576954733630572
10
-65.265579319000324
20
-65.576954733630529
42
-0.41421356237309503
10
-64.765579319000338
20
-66.076954733630529
10
-64.765579319000338
20
-79.076954733630501
42
-0.41421356237310025
10
-65.265579319000324
20
-79.576954733630515
10
-78.265579319000324
20
-79.576954733630544
42
-0.41421356237311063
10
-78.765579319000324
20
-79.076954733630544
10
-78.765579319000324
20
-66.076954733630572
42
-0.41421356237310542
0
LWPOLYLINE
5
129
100
AcDbEntity
8
0
100
AcDbPolyline
90
8
70
1
43
0.0
10
-264.00307931900034
20
-46.526954733631236
10
-251.00307931900034
20
-46.526954733631172
42
-0.4142135623730222
10
-250.50307931900034
20
-47.0269547336312
10
-250.50307931900028
20
-60.026954733631172
42
-0.41421356237312623
10
-251.00307931900034
20
-60.526954733631172
10
-264.00307931900034
20
-60.526954733631186
42
-0.41421356237307422
10
-264.50307931900034
20
-60.026954733631214
10
-264.50307931900034
20
-47.026954733631229
42
-0.41421356237312623
0
LWPOLYLINE
5
130
100
AcDbEntity
8
0
100
AcDbPolyline
90
8
70
1
43
0.0
10
-312.12807931900034
20
-60.026954733631385
10
-312.12807931900034
20
-47.026954733631413
42
-0.41421356237313667
10
-311.62807931900028
20
-46.526954733631399
10
-298.62807931900028
20
-46.526954733631342
42
-0.4142135623730222
10
-298.12807931900028
20
-47.026954733631364
10
-298.12807931900022
20
-60.026954733631328
42
-0.41421356237312623
10
-298.62807931900028
20
-60.526954733631342
10
-311.62807931900028
20
-60.526954733631356
42
-0.41421356237307422
0
LWPOLYLINE
5
131
100
AcDbEntity
8
0
100
AcDbPolyline
90
8
70
1
43
0.0
10
-59.215579319000327
20
-65.576954733630501
10
-46.215579319000319
20
-65.576954733630458
42
-0.41421356237309503
10
-45.715579319000319
20
-66.076954733630458
10
-45.715579319000341
20
-79.07695473363043
42
-0.41421356237310025
10
-46.215579319000341
20
-79.576954733630444
10
-59.215579319000341
20
-79.576954733630487
42
-0.41421356237310025
10
-59.715579319000334
20
-79.076954733630501
10
-59.715579319000327
20
-66.076954733630515
42
-0.41421356237311585
0
LWPOLYLINE
5
132
100
AcDbEntity
8
0
100
AcDbPolyline
90
8
70
1
43
0.0
10
-225.90307931900037
20
-46.526954733631101
10
-212.90307931900034
20
-46.526954733631094
42
-0.41421356237307422
10
-212.40307931900034
20
-47.026954733631065
10
-212.40307931900034
20
-60.026954733631044
42
-0.41421356237312623
10
-212.90307931900034
20
-60.526954733631044
10
-225.90307931900037
20
-60.526954733631101
42
-0.4142135623730222
10
-226.40307931900037
20
-60.026954733631079
10
-226.4030793190004
20
-47.026954733631108
42
-0.41421356237312623
0
LWPOLYLINE
5
133
100
AcDbEntity
8
0
100
AcDbPolyline
90
8
70
1
43
0.0
10
-174.30307931900032
20
-47.02695473363093
42
0.41421356237307422
10
-174.80307931900032
20
-46.526954733630959
10
-187.80307931900029
20
-46.526954733630966
42
0.41421356237313667
10
-188.30307931900029
20
-47.026954733630987
10
-188.30307931900029
20
-60.026954733630944
42
0.41421356237307422
10
-187.80307931900029
20
-60.526954733630944
10
-174.80307931900032
20
-60.526954733630909
42
0.41421356237313667
10
-174.30307931900032
20
-60.026954733630902
0
LWPOLYLINE
5
134
100
AcDbEntity
8
0
100
AcDbPolyline
90
8
70
1
43
0.0
10
-73.503079319000307
20
-46.526954733630589
10
-60.5030793190003
20
-46.526954733630539
42
-0.41421356237311063
10
-60.003079319000292
20
-47.026954733630539
10
-60.003079319000314
20
-60.026954733630511
42
-0.41421356237310542
10
-60.503079319000307
20
-60.526954733630511
10
-73.503079319000307
20
-60.526954733630554
42
-0.41421356237310025
10
-74.003079319000321
20
-60.026954733630554
10
-74.003079319000292
20
-47.026954733630575
42
-0.41421356237308982
0
LWPOLYLINE
5
135
100
AcDbEntity
8
0
100
AcDbPolyline
90
8
70
1
43
0.0
10
-168.75307931900028
20
-46.526954733630916
10
-155.75307931900031
20
-46.526954733630873
42
-0.41421356237307944
10
-155.25307931900031
20
-47.026954733630866
10
-155.25307931900034
20
-60.026954733630845
42
-0.414213562373069
10
-155.75307931900034
20
-60.526954733630845
10
-168.75307931900034
20
-60.526954733630909
42
-0.4142135623730222
10
-169.25307931900034
20
-60.026954733630888
10
-169.25307931900028
20
-47.026954733630916
42
-0.41421356237313667
0
LWPOLYLINE
5
136
100
AcDbEntity
8
0
100
AcDbPolyline
90
8
70
1
43
0.0
10
-92.553079319000318
20
-46.526954733630646
10
-79.553079319000304
20
-46.526954733630603
42
-0.41421356237309503
10
-79.053079319000304
20
-47.026954733630603
10
-79.053079319000318
20
-60.026954733630582
42
-0.41421356237308982
10
-79.553079319000318
20
-60.526954733630575
10
-92.553079319000332
20
-60.526954733630625
42
-0.41421356237310542
10
-93.053079319000318
20
-60.026954733630618
10
-93.053079319000304
20
-47.026954733630646
42
-0.41421356237310025
0
LWPOLYLINE
5
137
100
AcDbEntity
8
0
100
AcDbPolyline
90
8
70
1
43
0.0
10
-111.6030793190003
20
-46.52695473363071
10
-98.603079319000315
20
-46.526954733630674
42
-0.41421356237310025
10
-98.103079319000301
20
-47.026954733630674
10
-98.103079319000301
20
-60.026954733630632
42
-0.41421356237310025
10
-98.603079319000315
20
-60.526954733630653
10
-111.60307931900033
20
-60.526954733630674
42
-0.41421356237310542
10
-112.10307931900033
20
-60.026954733630689
10
-112.1030793190003
20
-47.026954733630717
42
-0.41421356237307944
0
LWPOLYLINE
5
138
100
AcDbEntity
8
0
100
AcDbPolyline
90
8
70
1
43
0.0
10
-149.7030793190003
20
-46.526954733630845
10
-136.7030793190003
20
-46.526954733630802
42
-0.41421356237308982
10
-136.2030793190003
20
-47.026954733630795
10
-136.20307931900032
20
-60.026954733630774
42
-0.414213562373069
10
-136.70307931900032
20
-60.526954733630774
10
-149.70307931900032
20
-60.526954733630816
42
-0.41421356237308982
10
-150.20307931900032
20
-60.026954733630824
10
-150.2030793190003
20
-47.026954733630845
42
-0.414213562373069
0
LWPOLYLINE
5
139
100
AcDbEntity
8
0
100
AcDbPolyline
90
8
70
1
43
0.0
10
-130.65307931900031
20
-46.526954733630774
10
-117.65307931900031
20
-46.526954733630731
42
-0.41421356237310542
10
-117.15307931900031
20
-47.026954733630731
10
-117.15307931900031
20
-60.026954733630703
42
-0.41421356237310025
10
-117.65307931900033
20
-60.526954733630717
10
-130.65307931900031
20
-60.526954733630745
42
-0.41421356237310025
10
-131.15307931900031
20
-60.026954733630753
10
-131.15307931900031
20
-47.026954733630774
42
-0.41421356237308982
0
LWPOLYLINE
5
140
100
AcDbEntity
8
0
100
AcDbPolyline
90
8
70
1
43
0.0
10
-206.85307931900036
20
-46.526954733631037
10
-193.85307931900033
20
-46.52695473363103
42
-0.41421356237307422
10
-193.35307931900033
20
-47.026954733631001
10
-193.35307931900033
20
-60.026954733630973
42
-0.41421356237313667
10
-193.85307931900033
20
-60.52695473363098
10
-206.85307931900036
20
-60.526954733631044
42
-0.4142135623730222
10
-207.35307931900036
20
-60.026954733631015
10
-207.35307931900039
20
-47.026954733631037
42
-0.41421356237311585
0
LWPOLYLINE
5
141
100
AcDbEntity
8
0
100
AcDbPolyline
90
8
70
1
43
0.0
10
-54.453079319000288
20
-46.526954733630518
10
-41.453079319000288
20
-46.526954733630468
42
-0.41421356237310025
10
-40.953079319000302
20
-47.026954733630468
10
-40.953079319000317
20
-60.02695473363044
42
-0.41421356237310542
10
-41.453079319000317
20
-60.52695473363044
10
-54.453079319000317
20
-60.526954733630483
42
-0.41421356237308982
10
-54.953079319000302
20
-60.026954733630483
10
-54.953079319000288
20
-47.026954733630518
42
-0.41421356237310025
0
LWPOLYLINE
5
142
100
AcDbEntity
8
0
100
AcDbPolyline
90
8
70
1
43
0.0
10
-254.4780793190003
20
-27.476954733631246
10
-241.4780793190003
20
-27.476954733631217
42
-0.41421356237307683
10
-240.9780793190003
20
-27.976954733631196
10
-240.9780793190003
20
-40.976954733631167
42
-0.41421356237313145
10
-241.4780793190003
20
-41.476954733631175
10
-254.4780793190003
20
-41.476954733631231
42
-0.4142135623730222
10
-254.9780793190003
20
-40.97695473363121
10
-254.97807931900027
20
-27.976954733631242
42
-0.41421356237310281
0
LWPOLYLINE
5
143
100
AcDbEntity
8
0
100
AcDbPolyline
90
8
70
1
43
0.0
10
-30.640579319000302
20
-46.526954733630433
10
-17.640579319000299
20
-46.52695473363039
42
-0.41421356237309503
10
-17.140579319000299
20
-47.02695473363039
10
-17.140579319000317
20
-60.026954733630369
42
-0.41421356237308854
10
-17.64057931900031
20
-60.526954733630362
10
-30.640579319000313
20
-60.52695473363039
42
-0.41421356237309764
10
-31.140579319000313
20
-60.026954733630404
10
-31.140579319000302
20
-47.026954733630433
42
-0.41421356237309764
0
LWPOLYLINE
5
144
100
AcDbEntity
8
0
100
AcDbPolyline
90
8
70
1
43
0.0
10
-311.62807931900028
20
-27.47695473363143
10
-298.62807931900028
20
-27.476954733631413
42
-0.41421356237307683
10
-298.12807931900022
20
-27.976954733631388
10
-298.12807931900022
20
-40.976954733631374
42
-0.41421356237313667
10
-298.62807931900028
20
-41.476954733631374
10
-311.62807931900028
20
-41.476954733631437
42
-0.4142135623730222
10
-312.12807931900028
20
-40.976954733631416
10
-312.12807931900028
20
-27.976954733631437
42
-0.41421356237310281
0
LWPOLYLINE
5
145
100
AcDbEntity
8
0
100
AcDbPolyline
90
8
70
1
43
0.0
10
-235.42807931900029
20
-27.476954733631167
10
-222.42807931900029
20
-27.476954733631143
42
-0.41421356237308204
10
-221.92807931900029
20
-27.976954733631128
10
-221.92807931900029
20
-40.976954733631104
42
-0.41421356237313667
10
-222.42807931900029
20
-41.476954733631111
10
-235.42807931900029
20
-41.476954733631175
42
-0.4142135623730222
10
-235.92807931900029
20
-40.976954733631146
10
-235.92807931900026
20
-27.976954733631171
42
-0.41421356237310281
0
LWPOLYLINE
5
146
100
AcDbEntity
8
0
100
AcDbPolyline
90
8
70
1
43
0.0
10
-102.07807931900028
20
-27.476954733630706
10
-89.078079319000267
20
-27.47695473363067
42
-0.41421356237310802
10
-88.578079319000267
20
-27.976954733630667
10
-88.578079319000295
20
-40.976954733630642
42
-0.41421356237310542
10
-89.078079319000295
20
-41.476954733630642
10
-102.07807931900028
20
-41.476954733630684
42
-0.41421356237310025
10
-102.5780793190003
20
-40.976954733630684
10
-102.5780793190003
20
-27.976954733630709
42
-0.41421356237309503
0
LWPOLYLINE
5
147
100
AcDbEntity
8
0
100
AcDbPolyline
90
8
70
1
43
0.0
10
-216.37807931900031
20
-27.476954733631111
10
-203.37807931900031
20
-27.476954733631068
42
-0.41421356237304563
10
-202.87807931900031
20
-27.976954733631061
10
-202.87807931900028
20
-40.976954733631032
42
-0.41421356237312623
10
-203.37807931900031
20
-41.47695473363104
10
-216.37807931900031
20
-41.476954733631061
42
-0.41421356237307422
10
-216.87807931900034
20
-40.976954733631089
10
-216.87807931900034
20
-27.976954733631111
42
-0.41421356237313406
0
LWPOLYLINE
5
148
100
AcDbEntity
8
0
100
AcDbPolyline
90
8
70
1
43
0.0
10
-159.7280793190003
20
-40.976954733630883
10
-159.7280793190003
20
-27.976954733630905
42
-0.41421356237309503
10
-159.22807931900027
20
-27.476954733630897
10
-146.2280793190003
20
-27.476954733630855
42
-0.4142135623730846
10
-145.7280793190003
20
-27.976954733630862
10
-145.7280793190003
20
-40.976954733630834
42
-0.41421356237310025
10
-146.2280793190003
20
-41.476954733630848
10
-159.22807931900027
20
-41.476954733630897
42
-0.41421356237310025
0
LWPOLYLINE
5
149
100
AcDbEntity
8
0
100
AcDbPolyline
90
8
70
1
43
0.0
10
-197.32807931900027
20
-27.476954733631036
10
-184.3280793190003
20
-27.47695473363099
42
-0.41421356237305079
10
-183.8280793190003
20
-27.976954733630993
10
-183.82807931900027
20
-40.976954733630969
42
-0.41421356237312101
10
-184.3280793190003
20
-41.476954733630976
10
-197.32807931900027
20
-41.47695473363104
42
-0.4142135623730222
10
-197.82807931900027
20
-40.976954733631018
10
-197.82807931900024
20
-27.97695473363104
42
-0.41421356237310281
0
LWPOLYLINE
5
150
100
AcDbEntity
8
0
100
AcDbPolyline
90
8
70
1
43
0.0
10
-178.27807931900028
20
-27.476954733630979
10
-165.27807931900028
20
-27.476954733630933
42
-0.41421356237304563
10
-164.77807931900028
20
-27.976954733630926
10
-164.77807931900031
20
-40.976954733630905
42
-0.41421356237313667
10
-165.27807931900031
20
-41.476954733630919
10
-178.27807931900031
20
-41.476954733630926
42
-0.4142135623730534
10
-178.77807931900031
20
-40.976954733630954
10
-178.77807931900031
20
-27.976954733630976
42
-0.41421356237313406
0
LWPOLYLINE
5
151
100
AcDbEntity
8
0
100
AcDbPolyline
90
8
70
1
43
0.0
10
-83.02807931900027
20
-27.476954733630649
10
-70.028079319000284
20
-27.476954733630595
42
-0.41421356237309243
10
-69.528079319000284
20
-27.976954733630599
10
-69.528079319000298
20
-40.976954733630571
42
-0.41421356237310542
10
-70.028079319000298
20
-41.476954733630571
10
-83.028079319000312
20
-41.476954733630635
42
-0.41421356237309503
10
-83.528079319000284
20
-40.97695473363062
10
-83.528079319000284
20
-27.976954733630649
42
-0.41421356237309503
0
LWPOLYLINE
5
152
100
AcDbEntity
8
0
100
AcDbPolyline
90
8
70
1
43
0.0
10
-126.67807931900029
20
-27.976954733630798
42
0.41421356237310802
10
-127.17807931900029
20
-27.476954733630805
10
-140.17807931900026
20
-27.476954733630837
42
0.41421356237309503
10
-140.67807931900029
20
-27.976954733630844
10
-140.67807931900029
20
-40.976954733630819
42
0.41421356237310542
10
-140.17807931900029
20
-41.476954733630819
10
-127.17807931900032
20
-41.476954733630784
42
0.41421356237307944
10
-126.6780793190003
20
-40.976954733630762
0
LWPOLYLINE
5
153
100
AcDbEntity
8
0
100
AcDbPolyline
90
8
70
1
43
0.0
10
-121.12807931900029
20
-27.476954733630784
10
-108.12807931900028
20
-27.476954733630741
42
-0.41421356237310542
10
-107.62807931900028
20
-27.976954733630734
10
-107.62807931900029
20
-40.976954733630706
42
-0.41421356237307422
10
-108.12807931900031
20
-41.476954733630713
10
-121.12807931900031
20
-41.476954733630755
42
-0.41421356237310542
10
-121.62807931900031
20
-40.976954733630748
10
-121.62807931900031
20
-27.97695473363078
42
-0.41421356237309503
0
LWPOLYLINE
5
154
100
AcDbEntity
8
0
100
AcDbPolyline
90
8
70
1
43
0.0
10
-63.978079319000273
20
-27.476954733630585
10
-50.978079319000273
20
-27.476954733630528
42
-0.41421356237309764
10
-50.478079319000273
20
-27.976954733630532
10
-50.478079319000287
20
-40.976954733630507
42
-0.41421356237309503
10
-50.978079319000287
20
-41.476954733630507
10
-63.978079319000294
20
-41.476954733630549
42
-0.41421356237310542
10
-64.478079319000287
20
-40.976954733630549
10
-64.478079319000273
20
-27.976954733630578
42
-0.41421356237309764
0
LWPOLYLINE
5
155
100
AcDbEntity
8
0
100
AcDbPolyline
90
8
70
1
43
0.0
10
-44.928079319000283
20
-27.476954733630517
10
-31.928079319000279
20
-27.476954733630468
42
-0.41421356237309764
10
-31.428079319000275
20
-27.976954733630464
10
-31.428079319000286
20
-40.97695473363045
42
-0.41421356237309764
10
-31.92807931900029
20
-41.476954733630443
10
-44.92807931900029
20
-41.476954733630492
42
-0.41421356237309503
10
-45.42807931900029
20
-40.976954733630492
10
-45.428079319000275
20
-27.976954733630514
42
-0.41421356237310025
0
LWPOLYLINE
5
156
100
AcDbEntity
8
0
100
AcDbPolyline
90
8
70
1
43
0.0
10
-26.378079319000285
20
-40.976954733630421
10
-26.378079319000278
20
-27.976954733630443
42
-0.41421356237309243
10
-25.878079319000275
20
-27.476954733630446
10
-12.878079319000275
20
-27.476954733630407
42
-0.41421356237309631
10
-12.378079319000276
20
-27.9769547336304
10
-12.378079319000289
20
-40.976954733630379
42
-0.41421356237309631
10
-12.878079319000289
20
-41.476954733630372
10
-25.878079319000289
20
-41.476954733630421
42
-0.41421356237309503
0
LWPOLYLINE
5
157
100
AcDbEntity
8
0
100
AcDbPolyline
90
8
70
1
43
0.0
10
-312.12807931900028
20
-17.164454733631462
10
-312.12807931900022
20
-4.1644547336314819
42
-0.41421356237313439
10
-311.62807931900022
20
-3.664454733631473
10
-298.62807931900022
20
-3.6644547336314384
42
-0.41421356237304624
10
-298.12807931900022
20
-4.164454733631433
10
-298.12807931900022
20
-17.164454733631413
42
-0.41421356237313145
10
-298.62807931900028
20
-17.66445473363142
10
-311.62807931900028
20
-17.664454733631455
42
-0.41421356237304563
0
LWPOLYLINE
5
158
100
AcDbEntity
8
0
100
AcDbPolyline
90
8
70
1
43
0.0
10
-26.37807931900026
20
-17.164454733630471
10
-26.37807931900025
20
-4.1644547336304916
42
-0.4142135623730937
10
-25.87807931900025
20
-3.6644547336304907
10
-12.878079319000248
20
-3.6644547336304463
42
-0.41421356237309537
10
-12.378079319000248
20
-4.1644547336304427
10
-12.378079319000266
20
-17.164454733630421
42
-0.41421356237309503
10
-12.878079319000264
20
-17.664454733630421
10
-25.878079319000264
20
-17.664454733630464
42
-0.41421356237309243
0
LWPOLYLINE
5
159
100
AcDbEntity
8
0
100
AcDbPolyline
90
8
70
1
43
0.0
10
-292.57807931900038
20
-103.67695473363125
10
-279.57807931900038
20
-103.67695473363121
42
-0.41421356237313667
10
-279.07807931900038
20
-104.17695473363122
10
-279.07807931900044
20
-117.17695473363116
42
-0.41421356237311585
10
-279.57807931900044
20
-117.67695473363119
10
-292.57807931900044
20
-117.67695473363122
42
-0.41421356237313667
10
-293.07807931900044
20
-117.17695473363122
10
-293.07807931900038
20
-104.17695473363125
42
-0.41421356237310542
0
LWPOLYLINE
5
160
100
AcDbEntity
8
0
100
AcDbPolyline
90
8
70
1
43
0.0
10
-273.52807931900037
20
-103.67695473363116
10
-260.52807931900037
20
-103.67695473363113
42
-0.41421356237313667
10
-260.02807931900037
20
-104.17695473363113
10
-260.02807931900043
20
-117.17695473363111
42
-0.41421356237310542
10
-260.52807931900043
20
-117.67695473363112
10
-273.52807931900043
20
-117.67695473363116
42
-0.41421356237313667
10
-274.02807931900043
20
-117.17695473363115
10
-274.02807931900037
20
-104.17695473363119
42
-0.41421356237311585
0
LWPOLYLINE
5
161
100
AcDbEntity
8
0
100
AcDbPolyline
90
8
70
1
43
0.0
10
-311.62807931900034
20
-103.67695473363131
10
-298.62807931900034
20
-103.67695473363126
42
-0.41421356237309503
10
-298.12807931900034
20
-104.17695473363126
10
-298.12807931900034
20
-117.17695473363123
42
-0.4142135623730846
10
-298.62807931900034
20
-117.67695473363125
10
-311.62807931900039
20
-117.67695473363131
42
-0.41421356237313667
10
-312.12807931900039
20
-117.17695473363129
10
-312.12807931900034
20
-104.17695473363132
42
-0.41421356237310542
0
LWPOLYLINE
5
162
100
AcDbEntity
8
0
100
AcDbPolyline
90
8
70
1
43
0.0
10
-240.19057931900036
20
-84.626954733631095
10
-227.19057931900036
20
-84.626954733631038
42
-0.41421356237309503
10
-226.69057931900034
20
-85.126954733631038
10
-226.69057931900034
20
-98.126954733631038
42
-0.41421356237313667
10
-227.19057931900036
20
-98.626954733631038
10
-240.19057931900036
20
-98.626954733631067
42
-0.4142135623730846
10
-240.69057931900036
20
-98.126954733631081
10
-240.69057931900034
20
-85.126954733631095
42
-0.41421356237310542
0
LWPOLYLINE
5
163
100
AcDbEntity
8
0
100
AcDbPolyline
90
8
70
1
43
0.0
10
-266.38432931900036
20
-84.62695473363118
10
-253.38432931900036
20
-84.626954733631109
42
-0.41421356237310542
10
-252.88432931900036
20
-85.126954733631123
10
-252.88432931900033
20
-98.126954733631123
42
-0.4142135623730846
10
-253.38432931900036
20
-98.626954733631123
10
-266.38432931900036
20
-98.62695473363118
42
-0.41421356237313667
10
-266.88432931900036
20
-98.12695473363118
10
-266.88432931900036
20
-85.12695473363118
42
-0.41421356237309503
0
LWPOLYLINE
5
164
100
AcDbEntity
8
0
100
AcDbPolyline
90
8
70
1
43
0.0
10
-207.64057931900032
20
-85.126954733630981
42
0.41421356237313667
10
-208.14057931900035
20
-84.626954733630981
10
-221.14057931900035
20
-84.62695473363101
42
0.41421356237310542
10
-221.64057931900035
20
-85.126954733631024
10
-221.64057931900035
20
-98.12695473363101
42
0.4142135623730846
10
-221.14057931900035
20
-98.626954733631038
10
-208.14057931900035
20
-98.626954733630981
42
0.41421356237309503
10
-207.64057931900032
20
-98.126954733630981
0
LWPOLYLINE
5
165
100
AcDbEntity
8
0
100
AcDbPolyline
90
8
70
1
43
0.0
10
-292.57807931900038
20
-84.626954733631266
10
-279.57807931900038
20
-84.626954733631237
42
-0.41421356237313667
10
-279.07807931900038
20
-85.126954733631237
10
-279.07807931900038
20
-98.126954733631209
42
-0.41421356237310542
10
-279.57807931900038
20
-98.626954733631237
10
-292.57807931900038
20
-98.626954733631251
42
-0.4142135623730846
10
-293.07807931900038
20
-98.126954733631266
10
-293.07807931900038
20
-85.126954733631266
42
-0.41421356237310542
0
LWPOLYLINE
5
166
100
AcDbEntity
8
0
100
AcDbPolyline
90
8
70
1
43
0.0
10
-78.265579319000352
20
-103.67695473363055
10
-62.884329319000365
20
-103.67695473363045
42
-0.41421356237307944
10
-62.384329319000358
20
-104.17695473363045
10
-62.384329319000372
20
-117.17695473363042
42
-0.41421356237310542
10
-62.884329319000386
20
-117.67695473363041
10
-78.265579319000381
20
-117.67695473363055
42
-0.41421356237307422
10
-78.765579319000381
20
-117.17695473363054
10
-78.765579319000352
20
-104.17695473363054
42
-0.41421356237309503
0
LWPOLYLINE
5
167
100
AcDbEntity
8
0
100
AcDbPolyline
90
8
70
1
43
0.0
10
-227.19057931900042
20
-117.67695473363104
10
-242.57182931900041
20
-117.67695473363106
42
-0.41421356237310542
10
-243.07182931900041
20
-117.17695473363105
10
-243.07182931900036
20
-104.17695473363108
42
-0.41421356237313667
10
-242.57182931900036
20
-103.67695473363106
10
-227.19057931900039
20
-103.67695473363102
42
-0.4142135623730534
10
-226.69057931900034
20
-104.17695473363108
10
-226.69057931900042
20
-117.17695473363106
42
-0.41421356237307422
0
LWPOLYLINE
5
168
100
AcDbEntity
8
0
100
AcDbPolyline
90
8
70
1
43
0.0
10
-159.22807931900036
20
-103.67695473363082
10
-134.32182931900036
20
-103.67695473363069
42
-0.41421356237307422
10
-133.82182931900036
20
-104.17695473363069
10
-133.82182931900039
20
-117.17695473363067
42
-0.4142135623730534
10
-134.32182931900039
20
-117.67695473363068
10
-159.22807931900036
20
-117.67695473363084
42
-0.4142135623730222
10
-159.72807931900039
20
-117.17695473363081
10
-159.72807931900036
20
-104.17695473363082
42
-0.41421356237309503
0
CIRCLE
5
169
100
AcDbEntity
8
0
100
AcDbCircle
10
-31.274079315241771
20
-22.130554757354815
30
9.1424787118230667e-15
40
1.1499999999999979
210
-2.9688835200963645e-16
220
8.3266726846886632e-16
230
1
0
CIRCLE
5
170
100
AcDbEntity
8
0
100
AcDbCircle
10
-34.856204319000369
20
-110.67695454855993
30
8.1808676368188312e-14
40
1.1499999999999979
210
-2.9688835200963645e-16
220
8.3266726846886632e-16
230
1
0
CIRCLE
5
171
100
AcDbEntity
8
0
100
AcDbCircle
10
-251.54995431900039
20
-110.67695454856066
30
1.7474826041629492e-14
40
1.1499999999999979
210
-2.9688835200963645e-16
220
8.3266726846886632e-16
230
1
0
CIRCLE
5
172
100
AcDbEntity
8
0
100
AcDbCircle
10
-274.17182931524184
20
-22.130554943198302
30
-6.297103383834353e-14
40
1.1499999999999979
210
-2.9688835200963645e-16
220
8.3266726846886632e-16
230
1
0
CIRCLE
5
173
100
AcDbEntity
8
0
100
AcDbCircle
10
-47.953878344478596
20
-122.87436152911181
30
8.8076511062475378e-14
40
1.1000000000000012
210
-2.9688835200963645e-16
220
8.3266726846886632e-16
230
1
0
CIRCLE
5
174
100
AcDbEntity
8
0
100
AcDbCircle
10
-19.377878344478447
20
1.5334520541404881
30
-7.0299217057909531e-15
40
1.1000000000000012
210
-2.9688835200963645e-16
220
8.3266726846886632e-16
230
1
0
CIRCLE
5
175
100
AcDbEntity
8
0
100
AcDbCircle
10
-276.55306489447878
20
-122.87436152779836
30
2.0208075295957863e-14
40
1.0999999999999923
210
-2.9688835200963645e-16
220
8.3266726846886642e-16
230
1
0
CIRCLE
5
176
100
AcDbEntity
8
0
100
AcDbCircle
10
-162.25306489447863
20
1.5334520528257372
30
-4.9447900375769771e-14
40
1.0999999999999923
210
-2.9688835200963645e-16
220
8.3266726846886642e-16
230
1
0
CIRCLE
5
177
100
AcDbEntity
8
0
100
AcDbCircle
10
-305.12806489447871
20
1.5334520528252433
30
-9.1865823670142481e-14
40
1.0999999999999923
210
-2.9688835200963645e-16
220
8.3266726846886642e-16
230
1
0
CIRCLE
5
178
100
AcDbEntity
8
0
100
AcDbCircle
10
-23.753064894478641
20
-22.130554952536411
30
1.1375380446737203e-14
40
2.7999999999999998
210
-2.9688835200963645e-16
220
8.3266726846886642e-16
230
1
0
CIRCLE
5
179
100
AcDbEntity
8
0
100
AcDbCircle
10
-300.75306489447871
20
-22.130554981010246
30
-7.0862693032983955e-14
40
2.8000000000000065
210
-2.9688835200963645e-16
220
8.3266726846886642e-16
230
1
0
LWPOLYLINE
5
180
100
AcDbEntity
8
0
100
AcDbPolyline
90
8
70
1
43
0.0
10
-312.12807931900039
20
-98.126954733631365
10
-312.12807931900039
20
-85.126954733631365
42
-0.41421356237309503
10
-311.62807931900039
20
-84.626954733631351
10
-298.62807931900034
20
-84.62695473363128
42
-0.4142135623730846
10
-298.12807931900034
20
-85.126954733631308
10
-298.12807931900039
20
-98.126954733631322
42
-0.4142135623730534
10
-298.62807931900034
20
-98.626954733631308
10
-311.62807931900039
20
-98.626954733631379
42
-0.41421356237309503
0
LWPOLYLINE
5
181
100
AcDbEntity
8
0
100
AcDbPolyline
90
8
70
1
43
0.0
10
-283.05307931900029
20
-3.6644547336313664
10
-270.05307931900029
20
-3.6644547336313287
42
-0.41421356237307583
10
-269.55307931900023
20
-4.1644547336313389
10
-269.55307931900029
20
-17.164454733631324
42
-0.41421356237314189
10
-270.05307931900029
20
-17.664454733631327
10
-283.05307931900029
20
-17.664454733631377
42
-0.41421356237301177
10
-283.55307931900035
20
-17.16445473363137
10
-283.55307931900029
20
-4.1644547336313842
42
-0.414213562373135
0
LWPOLYLINE
5
182
100
AcDbEntity
8
0
100
AcDbPolyline
90
8
70
1
43
0.0
10
-197.82807931900032
20
-17.164454733631072
10
-197.82807931900027
20
-4.1644547336310911
42
-0.41421356237313273
10
-197.32807931900027
20
-3.6644547336310866
10
-184.3280793190003
20
-3.6644547336310307
42
-0.41421356237307616
10
-183.82807931900027
20
-4.1644547336310413
10
-183.82807931900032
20
-17.164454733631022
42
-0.41421356237314316
10
-184.32807931900032
20
-17.664454733631029
10
-197.32807931900027
20
-17.664454733631061
42
-0.41421356237312623
0
LWPOLYLINE
5
183
100
AcDbEntity
8
0
100
AcDbPolyline
90
8
70
1
43
0.0
10
-111.60307931900023
20
-3.664454733630786
10
-98.60307931900023
20
-3.6644547336307447
42
-0.41421356237307
10
-98.103079319000216
20
-4.1644547336307447
10
-98.103079319000244
20
-17.164454733630727
42
-0.41421356237308982
10
-98.603079319000244
20
-17.664454733630734
10
-111.60307931900024
20
-17.664454733630773
42
-0.4142135623730599
10
-112.10307931900024
20
-17.164454733630773
10
-112.10307931900022
20
-4.1644547336307935
42
-0.41421356237305895
0
LWPOLYLINE
5
184
100
AcDbEntity
8
0
100
AcDbPolyline
90
8
70
1
43
0.0
10
-54.453079319000253
20
-3.6644547336305893
10
-41.453079319000253
20
-3.6644547336305431
42
-0.4142135623731022
10
-40.953079319000246
20
-4.1644547336305449
10
-40.953079319000267
20
-17.164454733630528
42
-0.41421356237309631
10
-41.453079319000267
20
-17.664454733630528
10
-54.45307931900026
20
-17.664454733630571
42
-0.41421356237310936
10
-54.953079319000267
20
-17.164454733630578
10
-54.953079319000253
20
-4.1644547336305937
42
-0.41421356237309825
0
LWPOLYLINE
5
185
100
AcDbEntity
8
0
100
AcDbPolyline
90
8
70
1
43
0.0
10
-140.1780793190002
20
-3.6644547336308846
10
-127.17807931900025
20
-3.6644547336308437
42
-0.41421356237307
10
-126.67807931900023
20
-4.1644547336308433
10
-126.67807931900026
20
-17.164454733630823
42
-0.41421356237309243
10
-127.17807931900026
20
-17.664454733630834
10
-140.17807931900023
20
-17.664454733630876
42
-0.4142135623730599
10
-140.67807931900023
20
-17.164454733630873
10
-140.67807931900023
20
-4.1644547336308912
42
-0.41421356237305762
0
LWPOLYLINE
5
186
100
AcDbEntity
8
0
100
AcDbPolyline
90
8
70
1
43
0.0
10
-225.90307931900031
20
-3.6644547336311688
10
-212.90307931900031
20
-3.6644547336311302
42
-0.41421356237307583
10
-212.40307931900026
20
-4.1644547336311399
10
-212.40307931900034
20
-17.164454733631121
42
-0.41421356237314316
10
-212.90307931900034
20
-17.664454733631128
10
-225.90307931900037
20
-17.664454733631182
42
-0.41421356237301571
10
-226.40307931900037
20
-17.164454733631167
10
-226.40307931900028
20
-4.1644547336311888
42
-0.41421356237311585
0
LWPOLYLINE
5
187
100
AcDbEntity
8
0
100
AcDbPolyline
90
8
70
1
43
0.0
10
-264.00307931900034
20
-3.6644547336313176
10
-251.00307931900031
20
-3.6644547336312892
42
-0.4142135623730599
10
-250.50307931900034
20
-4.1644547336312723
10
-250.50307931900034
20
-17.16445473363126
42
-0.41421356237310281
10
-251.00307931900034
20
-17.664454733631278
10
-264.00307931900034
20
-17.664454733631295
42
-0.41421356237312756
10
-264.50307931900034
20
-17.164454733631306
10
-264.50307931900034
20
-4.164454733631322
42
-0.41421356237313306
0
LWPOLYLINE
5
188
100
AcDbEntity
8
0
100
AcDbPolyline
90
8
70
1
43
0.0
10
-178.77807931900034
20
-17.164454733631004
10
-178.77807931900031
20
-4.1644547336310218
42
-0.414213562373137
10
-178.27807931900028
20
-3.6644547336310023
10
-165.27807931900026
20
-3.6644547336309445
42
-0.41421356237304657
10
-164.7780793190002
20
-4.1644547336309756
10
-164.77807931900026
20
-17.164454733630954
42
-0.41421356237308332
10
-165.27807931900028
20
-17.664454733630969
10
-178.27807931900031
20
-17.664454733631011
42
-0.41421356237301049
0
LWPOLYLINE
5
189
100
AcDbEntity
8
0
100
AcDbPolyline
90
8
70
1
43
0.0
10
-92.553079319000233
20
-3.6644547336307203
10
-79.553079319000247
20
-3.6644547336306816
42
-0.41421356237308887
10
-79.053079319000247
20
-4.1644547336306781
10
-79.053079319000275
20
-17.164454733630659
42
-0.41421356237308854
10
-79.553079319000261
20
-17.664454733630656
10
-92.553079319000275
20
-17.664454733630702
42
-0.41421356237311974
10
-93.053079319000261
20
-17.164454733630706
10
-93.053079319000247
20
-4.1644547336307269
42
-0.41421356237309437
0
LWPOLYLINE
5
190
100
AcDbEntity
8
0
100
AcDbPolyline
90
8
70
1
43
0.0
10
-73.50307931900025
20
-3.6644547336306617
10
-60.50307931900025
20
-3.6644547336306106
42
-0.41421356237309209
10
-60.003079319000257
20
-4.1644547336306124
10
-60.003079319000278
20
-17.164454733630592
42
-0.41421356237309892
10
-60.503079319000278
20
-17.664454733630599
10
-73.503079319000278
20
-17.664454733630642
42
-0.41421356237308982
10
-74.003079319000264
20
-17.164454733630642
10
-74.00307931900025
20
-4.1644547336306603
42
-0.41421356237309764
0
LWPOLYLINE
5
191
100
AcDbEntity
8
0
100
AcDbPolyline
90
8
70
1
43
0.0
10
-159.22807931900022
20
-3.6644547336309503
10
-146.22807931900024
20
-3.6644547336309037
42
-0.41421356237310447
10
-145.72807931900022
20
-4.164454733630909
10
-145.72807931900024
20
-17.16445473363089
42
-0.41421356237307161
10
-146.22807931900024
20
-17.664454733630897
10
-159.22807931900024
20
-17.664454733630937
42
-0.4142135623730599
10
-159.72807931900024
20
-17.164454733630937
10
-159.72807931900024
20
-4.1644547336309579
42
-0.41421356237305829
0
LWPOLYLINE
5
192
100
AcDbEntity
8
0
100
AcDbPolyline
90
8
70
1
43
0.0
10
-245.45307931900032
20
-17.164454733631239
10
-245.4530793190003
20
-4.1644547336312554
42
-0.41421356237313273
10
-244.9530793190003
20
-3.664454733631251
10
-231.9530793190003
20
-3.6644547336312234
42
-0.41421356237306023
10
-231.45307931900032
20
-4.1644547336312066
10
-231.45307931900032
20
-17.164454733631189
42
-0.41421356237308721
10
-231.95307931900035
20
-17.66445473363121
10
-244.9530793190003
20
-17.664454733631231
42
-0.41421356237312623
0
LWPOLYLINE
5
193
100
AcDbEntity
8
0
100
AcDbPolyline
90
8
70
1
43
0.0
10
-15.309329319000089
20
-79.576954733630359
10
-33.021829319000332
20
-79.576954733630402
42
-0.41421356237310025
10
-33.521829319000339
20
-79.076954733630402
10
-33.521829319000318
20
-66.07695473363043
42
-0.41421356237310802
10
-33.021829319000318
20
-65.576954733630416
10
-15.309329319000046
20
-65.576954733630387
42
-0.41421356237312101
10
-14.759329319000063
20
-66.126954733630399
10
-14.759329319000088
20
-79.02695473363039
42
-0.4142135623730927
0
LWPOLYLINE
5
194
100
AcDbEntity
8
0
100
AcDbPolyline
90
30
70
1
43
0.0
10
-260.37807931900011
20
-44.476954735250594
10
-268.25307931900028
20
-44.476954735250573
42
-0.41421356237305174
10
-268.55307931900023
20
-44.176954735250568
10
-268.55307931900029
20
-42.026954734036025
42
0.41421356237315576
10
-268.85307931900024
20
-41.726954734036063
10
-284.75307931900028
20
-41.726954732679012
42
0.41421356237310375
10
-285.05307931900035
20
-42.02695473403616
10
-285.05307931900035
20
-44.176954735250533
42
-0.41421356237308637
10
-285.35307931900036
20
-44.47695473525053
10
-292.72807931900013
20
-44.476954735250686
42
-0.41421356237301177
10
-293.22807931900007
20
-43.976954735250679
10
-293.22807931900013
20
-28.026954733631477
42
-0.39673913819974821
10
-292.71107478363098
20
-27.477945353644479
42
0.39673913819972823
10
-292.24107066056803
20
-26.978845917292581
10
-292.24107066056797
20
-25.026954733631559
42
-0.41421356237309503
10
-291.69107066056802
20
-24.476954733631562
10
-285.29107066056798
20
-24.476954733631541
42
-0.41421356237309503
10
-284.74107066056797
20
-25.026954733631538
10
-284.74107066056797
20
-26.976954733631349
42
0.41421356237304563
10
-284.24107066056797
20
-27.476954733631342
10
-268.86507066056799
20
-27.476954733631295
42
0.41421356237307683
10
-268.36507066056794
20
-26.976954733631295
10
-268.36507066056799
20
-25.041969474801519
42
-0.41421356237309742
10
-267.81507066056798
20
-24.491969474801518
10
-261.41507066056795
20
-24.491969474801497
42
-0.41421356237309503
10
-260.86507066056799
20
-25.041969474801494
10
-260.86507066056794
20
-26.978846958179574
42
0.39673435755359709
10
-260.39507478363083
20
-27.477945898870928
42
-0.39673435755362452
10
-259.87807931900011
20
-28.026954733631303
10
-259.87807931900011
20
-43.976954735250587
42
-0.41421356237307422
0
LWPOLYLINE
5
195
100
AcDbEntity
8
0
100
AcDbPolyline
90
8
70
1
43
0.0
10
-55.740579319000361
20
-98.626954733630456
10
-68.740579319000375
20
-98.62695473363047
42
-0.41421356237307944
10
-69.240579319000375
20
-98.126954733630484
10
-69.240579319000346
20
-85.126954733630527
42
-0.41421356237313145
10
-68.740579319000346
20
-84.626954733630498
10
-55.740579319000346
20
-84.626954733630441
42
-0.41421356237310025
10
-55.240579319000332
20
-85.126954733630456
10
-55.240579319000332
20
-98.126954733630441
42
-0.41421356237310542
0
LWPOLYLINE
5
196
100
AcDbEntity
8
0
100
AcDbPolyline
90
8
70
1
43
0.0
10
-30.640579319000363
20
-103.6769547336304
10
-15.259329319000358
20
-103.67695473363028
42
-0.41421356237309631
10
-14.759329319000351
20
-104.17695473363028
10
-14.759329319000367
20
-117.17695473363025
42
-0.41421356237309503
10
-15.259329319000374
20
-117.67695473363027
10
-30.640579319000381
20
-117.67695473363037
42
-0.41421356237307422
10
-31.140579319000381
20
-117.17695473363035
10
-31.140579319000366
20
-104.17695473363038
42
-0.41421356237308204
0
ENDSEC
0
SECTION
2
OBJECTS
0
DICTIONARY
5
C
100
AcDbDictionary
3
ACAD_GROUP
350
D
3
ACAD_MLINESTYLE
350
17
0
DICTIONARY
5
D
100
AcDbDictionary
0
DICTIONARY
5
1A
330
C
100
AcDbDictionary
0
DICTIONARY
5
17
100
AcDbDictionary
0
ENDSEC
0
EOF
