0
SECTION
2
HEADER
9
$INSUNITS
70
4
9
$ACADVER
1
AC1014
9
$HANDSEED
5
FFFF
0
ENDSEC
0
SECTION
2
TABLES
0
TABLE
2
VPORT
5
8
100
AcDbSymbolTable
0
ENDTAB
0
TABLE
2
LTYPE
5
5
100
AcDbSymbolTable
0
LTYPE
5
14
100
AcDbSymbolTableRecord
100
AcDbLinetypeTableRecord
2
BYBLOCK
70
0
0
LTYPE
5
15
100
AcDbSymbolTableRecord
100
AcDbLinetypeTableRecord
2
BYLAYER
70
0
0
LTYPE
5
16
100
AcDbSymbolTableRecord
100
AcDbLinetypeTableRecord
2
DASHED
70
0
3
Dashed __ __ __ __ __ __ __ __ __ __ __ __ __ _
72
65
73
2
40
0.75
49
0.5
74
0
49
-0.25
74
0
0
ENDTAB
0
TABLE
2
LAYER
5
2
100
AcDbSymbolTable
70
2
0
LAYER
5
50
100
AcDbSymbolTableRecord
100
AcDbLayerTableRecord
2
0
70
0
62
7
6
CONTINUOUS
0
ENDTAB
0
TABLE
2
STYLE
5
3
100
AcDbSymbolTable
70
1
0
STYLE
5
11
100
AcDbSymbolTableRecord
100
AcDbTextStyleTableRecord
2
STANDARD
70
0
0
ENDTAB
0
TABLE
2
VIEW
5
6
100
AcDbSymbolTable
70
0
0
ENDTAB
0
TABLE
2
UCS
5
7
100
AcDbSymbolTable
70
0
0
ENDTAB
0
TABLE
2
APPID
5
9
100
AcDbSymbolTable
70
2
0
APPID
5
12
100
AcDbSymbolTableRecord
100
AcDbRegAppTableRecord
2
ACAD
70
0
0
ENDTAB
0
TABLE
2
DIMSTYLE
5
A
100
AcDbSymbolTable
70
1
0
ENDTAB
0
TABLE
2
BLOCK_RECORD
5
1
100
AcDbSymbolTable
70
1
0
BLOCK_RECORD
5
1F
100
AcDbSymbolTableRecord
100
AcDbBlockTableRecord
2
*MODEL_SPACE
0
BLOCK_RECORD
5
1B
100
AcDbSymbolTableRecord
100
AcDbBlockTableRecord
2
*PAPER_SPACE
0
ENDTAB
0
ENDSEC
0
SECTION
2
BLOCKS
0
BLOCK
5
20
100
AcDbEntity
100
AcDbBlockBegin
2
*MODEL_SPACE
0
ENDBLK
5
21
100
AcDbEntity
100
AcDbBlockEnd
0
BLOCK
5
1C
100
AcDbEntity
100
AcDbBlockBegin
2
*PAPER_SPACE
0
ENDBLK
5
1D
100
AcDbEntity
100
AcDbBlockEnd
0
ENDSEC
0
SECTION
2
ENTITIES
0
CIRCLE
5
100
100
AcDbEntity
8
0
100
AcDbCircle
10
181.20549569546273
20
-115.13616834002448
30
-1.2670420268534599e-13
40
1.5000000000000213
210
1.8667949685174321e-32
220
-1.124100812432971e-15
230
1
0
LWPOLYLINE
5
101
100
AcDbEntity
8
0
100
AcDbPolyline
90
18
70
1
43
0.0
10
251.48424356697001
20
-32.998339250463914
10
283.73424356697006
20
-32.998339250463964
42
-0.41421356237312346
10
284.28424356697008
20
-33.548339250463911
10
284.28424356697008
20
-49.585339250463946
42
-0.4142135623730846
10
283.78424356697008
20
-50.085339250463946
10
276.15924356697025
20
-50.085339250463974
42
-0.41421356237308637
10
275.85924356697024
20
-49.785339250463977
10
275.85924356697018
20
-47.298339249106689
42
0.41421356237312101
10
275.55924356697011
20
-46.998339249106692
10
270.64186350364406
20
-46.998339265954066
10
264.53386150364406
20
-46.998339265954087
10
259.90924356697013
20
-46.998339249106699
42
0.41421356237304302
10
259.60924356697018
20
-47.298339249106689
10
259.60924356697018
20
-49.785339250463913
42
-0.41421356237309503
10
259.30924356697017
20
-50.085339250463932
10
251.43424356697005
20
-50.08533925046401
42
-0.41421356237299095
10
250.93424356697003
20
-49.585339250463967
10
250.93424356697005
20
-33.54833925046389
42
-0.41421356237307611
0
LWPOLYLINE
5
102
100
AcDbEntity
8
0
100
AcDbPolyline
90
80
70
1
43
0.0
10
285.92924356697017
20
-104.54126966905318
10
285.92924356697006
20
-32.615226035901316
42
0.41421356237308393
10
284.52924356697008
20
-31.215226035901296
10
250.73383110788114
20
-31.215226035901154
42
0.41421356210946642
10
249.73383110788114
20
-32.215226035001329
10
249.73383110572112
20
-34.615229811731744
42
-0.41421356237307849
10
249.18383110522615
20
-35.165229811236749
10
247.78383110828997
20
-35.165229809976758
42
-0.41421356237309503
10
247.23383110878498
20
-34.615229809481761
10
247.23383111094492
20
-32.215226036801326
42
0.41421356263668985
10
246.23383111094489
20
-31.215226035901338
10
193.70983110788114
20
-31.215226035901225
42
0.41421356210946642
10
192.70983110788112
20
-32.215226035001365
10
192.70983110572109
20
-34.615229811731815
42
-0.41421356237307611
10
192.15983110522615
20
-35.16522981123682
10
190.75983110828997
20
-35.165229809976829
42
-0.41421356237309503
10
190.20983110878495
20
-34.615229809481832
10
190.20983111094492
20
-32.215226036801347
42
0.41421356263665865
10
189.20983111094489
20
-31.215226035901331
10
98.409153060634665
20
-31.215226035901345
42
0.4142135623730937
10
97.409153060634679
20
-32.215226035901416
10
97.409153060634637
20
-34.615229767721736
42
-0.41421356237309503
10
96.85915306063464
20
-35.16522976772174
10
95.459153063698437
20
-35.165229767721733
42
-0.41421356237309742
10
94.90915306369844
20
-34.615229767721736
10
94.90915306369844
20
-32.215226035901416
42
0.41421356237309631
10
93.909153063698454
20
-31.215226035901416
10
22.209243794452451
20
-31.215226035901335
42
0.41421356237309892
10
21.209243794452448
20
-32.215226035901367
10
21.209243794452483
20
-34.615283725123234
42
-0.4142135623730927
10
20.65924379445249
20
-35.165283725123246
10
19.25924379445248
20
-35.16528372512326
42
-0.4142135623730927
10
18.709243794452476
20
-34.61528372512327
10
18.709243794452437
20
-32.215226035901345
42
0.41421356237308982
10
17.709243794452444
20
-31.21522603590136
10
3.0387470841744291
20
-31.21522603590136
42
0.41421356237309459
10
1.6387470841744212
20
-32.615226035901365
10
1.638747084174397
20
-104.54126966905294
42
0.41421356237310153
10
3.0387470841744095
20
-105.94126966905296
10
28.814632351419938
20
-105.94126966905272
42
-0.41421356237309415
10
30.214632351419954
20
-107.34126966905271
10
30.214632351420082
20
-123.63468679051563
42
0.4142135623730922
10
31.614632351420099
20
-125.03468679051562
10
48.665243612313347
20
-125.03468679051559
42
0.41421356237310802
10
49.665243612313333
20
-124.03468679051556
10
49.665243612313326
20
-121.73468781016156
42
-0.41421356237307611
10
50.215243612313301
20
-121.18468781016159
10
51.615243612313293
20
-121.18468781016155
42
-0.41421356237310453
10
52.165243612313304
20
-121.73468781016155
10
52.165243612313347
20
-124.03468679051559
42
0.4142135623730846
10
53.165243612313361
20
-125.03468679051556
10
81.212743566970119
20
-125.03468679051558
42
0.41421356237311063
10
82.21274356697009
20
-124.03468679051555
10
82.212743566970033
20
-108.34833926731123
42
-0.41421356237309503
10
83.212743566970047
20
-107.34833926731122
10
90.013243566970047
20
-107.34833926731122
42
-0.41421356237309503
10
91.013243566970047
20
-108.34833926731122
10
91.013243566970047
20
-124.03468679051569
42
0.41421356237307944
10
92.013243566970075
20
-125.03468679051571
10
195.51349356697057
20
-125.03468679051556
42
0.41421356237307944
10
196.51349356697054
20
-124.03468679051556
10
196.51349356697057
20
-107.74833926731131
42
-0.41421356237309503
10
197.06349356697058
20
-107.1983392673113
10
204.81324356697002
20
-107.19833926731135
42
-0.4142135623730846
10
205.31324356697002
20
-107.69833926731135
10
205.3132435669701
20
-124.03468679051596
42
0.41421356237306384
10
206.31324356697007
20
-125.03468679051596
10
234.40324352162665
20
-125.03468679051582
42
0.4142135623730846
10
235.40324352162668
20
-124.03468679051585
10
235.40324352162673
20
-121.73468781016167
42
-0.41421356237310453
10
235.95324352162675
20
-121.18468781016165
10
237.35324352162675
20
-121.18468781016169
42
-0.41421356237307611
10
237.90324352162671
20
-121.73468781016169
10
237.90324352162668
20
-124.03468679051582
42
0.41421356237307422
10
238.90324352162668
20
-125.03468679051582
10
255.95385478251987
20
-125.03468679051576
42
0.41421356237308021
10
257.35385478251987
20
-123.63468679051576
10
257.35385478252005
20
-107.34126966905291
42
-0.4142135623730876
10
258.75385478252008
20
-105.94126966905293
10
284.52924356697019
20
-105.9412696690532
42
0.41421356237309132
0
CIRCLE
5
103
100
AcDbEntity
8
0
100
AcDbCircle
10
237.84361856697004
20
-90.348339267311317
30
-1.0005885009434223e-13
40
3.5999999999999943
210
-1.9383094778123357e-33
220
-1.1102230246251565e-15
230
1
0
LWPOLYLINE
5
104
100
AcDbEntity
8
0
100
AcDbPolyline
90
24
70
1
43
0.0
10
41.128493566969766
20
-104.14833926595485
10
5.8524935669698142
20
-104.14833926595483
42
-0.41421356237308204
10
5.3024935669698383
20
-103.59833926595483
10
5.302493566969825
20
-90.698339265954331
42
-0.41421356237311335
10
5.852493566969839
20
-90.148339265954306
10
6.1024935669699678
20
-90.148339265954291
42
0.41421356237311102
10
6.6524935669699943
20
-89.598339265954294
10
6.6524935669699818
20
-87.748339265953987
42
-0.41421356237308499
10
7.2024935669699772
20
-87.198339265954004
10
14.102493566970097
20
-87.198339265953976
42
-0.4142135623730856
10
14.652493566970096
20
-87.748339265953945
10
14.652493566970101
20
-89.598339265954635
42
0.41421356237310569
10
15.202493566970086
20
-90.148339265954661
10
29.478493566970055
20
-90.148339267311215
42
0.41421356237311163
10
30.028493566970084
20
-89.598339265955147
10
30.028493566970074
20
-87.748339265953931
42
-0.4142135623730856
10
30.578493566970071
20
-87.198339265953962
10
37.478493566970037
20
-87.198339265953962
42
-0.4142135623730856
10
38.028493566970042
20
-87.748339265953931
10
38.028493566970027
20
-89.598339265954664
42
0.41421356237314705
10
38.578493566970096
20
-90.148339265954689
10
41.128493566969695
20
-90.148339265954377
42
-0.41421356237313289
10
41.678493566969763
20
-90.698339265954374
10
41.678493566969792
20
-103.59833926595482
42
-0.41421356237310919
0
LWPOLYLINE
5
105
100
AcDbEntity
8
0
100
AcDbPolyline
90
8
70
1
43
0.0
10
46.296743566970051
20
-103.59833926731122
42
0.41421356237307611
10
46.846743566970048
20
-104.14833926731121
10
59.746743566970046
20
-104.14833926731121
42
0.41421356237307611
10
60.296743566970044
20
-103.59833926731122
10
60.296743566970044
20
-90.698339267311226
42
0.41421356237307611
10
59.746743566970046
20
-90.148339267311215
10
46.846743566970055
20
-90.148339267311258
42
0.41421356237309037
10
46.296743566970051
20
-90.698339267311212
0
LWPOLYLINE
5
106
100
AcDbEntity
8
0
100
AcDbPolyline
90
8
70
1
43
0.0
10
150.78424356697005
20
-109.74833926731121
10
150.78424356697005
20
-122.6483392673112
42
-0.4142135623730856
10
150.23424356697004
20
-123.19833926731116
10
137.33424356697006
20
-123.1983392673112
42
-0.4142135623730856
10
136.78424356697005
20
-122.64833926731117
10
136.78424356697008
20
-109.74833926731117
42
-0.4142135623730856
10
137.33424356697009
20
-109.19833926731118
10
150.23424356697004
20
-109.19833926731117
42
-0.41421356237307611
0
LWPOLYLINE
5
107
100
AcDbEntity
8
0
100
AcDbPolyline
90
8
70
1
43
0.0
10
242.10924356697006
20
-109.19833926731121
10
255.00924356697004
20
-109.19833926731117
42
-0.41421356237311396
10
255.55924356697005
20
-109.74833926731121
10
255.55924356697005
20
-122.64833926731117
42
-0.41421356237310453
10
255.00924356697004
20
-123.19833926731118
10
242.10924356697006
20
-123.19833926731118
42
-0.41421356237313289
10
241.55924356697005
20
-122.64833926731117
10
241.55924356697005
20
-109.7483392673112
42
-0.4142135623730383
0
LWPOLYLINE
5
108
100
AcDbEntity
8
0
100
AcDbPolyline
90
8
70
1
43
0.0
10
56.371743566970054
20
-109.19833926731118
10
69.271743566970045
20
-109.19833926731118
42
-0.41421356237309975
10
69.821743566970042
20
-109.74833926731121
10
69.821743566970042
20
-122.64833926731117
42
-0.41421356237305251
10
69.271743566970059
20
-123.19833926731116
10
56.371743566970061
20
-123.19833926731118
42
-0.41421356237309503
10
55.821743566970056
20
-122.64833926731117
10
55.821743566970085
20
-109.7483392673112
42
-0.41421356237309975
0
LWPOLYLINE
5
109
100
AcDbEntity
8
0
100
AcDbPolyline
90
8
70
1
43
0.0
10
218.29674356697006
20
-109.19833926731118
10
231.19674356697004
20
-109.19833926731123
42
-0.41421356237311396
10
231.74674356697008
20
-109.74833926731122
10
231.74674356697005
20
-122.6483392673112
42
-0.4142135623730856
10
231.19674356697007
20
-123.19833926731116
10
218.29674356697006
20
-123.1983392673112
42
-0.41421356237311396
10
217.74674356697005
20
-122.64833926731116
10
217.74674356697005
20
-109.7483392673112
42
-0.41421356237309503
0
LWPOLYLINE
5
110
100
AcDbEntity
8
0
100
AcDbPolyline
90
8
70
1
43
0.0
10
32.559243566970046
20
-109.19833926731121
10
45.459243566970031
20
-109.19833926731118
42
-0.41421356237309503
10
46.009243566970042
20
-109.74833926731121
10
46.009243566970014
20
-122.6483392673112
42
-0.4142135623730856
10
45.459243566970059
20
-123.19833926731118
10
32.559243566970046
20
-123.19833926731121
42
-0.41421356237307611
10
32.009243566970056
20
-122.64833926731117
10
32.009243566970056
20
-109.7483392673112
42
-0.41421356237308082
0
LWPOLYLINE
5
111
100
AcDbEntity
8
0
100
AcDbPolyline
90
8
70
1
43
0.0
10
244.49049356697006
20
-90.148339267311201
10
257.39049356697001
20
-90.148339267311201
42
-0.41421356237310453
10
257.94049356697008
20
-90.698339267311212
10
257.94049356697002
20
-103.5983392673112
42
-0.41421356237310453
10
257.39049356697006
20
-104.1483392673112
10
244.49049356697009
20
-104.1483392673112
42
-0.41421356237312346
10
243.94049356697008
20
-103.59833926731119
10
243.94049356697008
20
-90.698339267311184
42
-0.4142135623730856
0
LWPOLYLINE
5
112
100
AcDbEntity
8
0
100
AcDbPolyline
90
8
70
1
43
0.0
10
270.68424356697005
20
-90.148339267311215
10
283.58424356697003
20
-90.148339267311201
42
-0.41421356237311396
10
284.1342435669701
20
-90.698339267311198
10
284.1342435669701
20
-103.59833926731119
42
-0.41421356237300988
10
283.58424356697009
20
-104.14833926731117
10
270.68424356697005
20
-104.1483392673112
42
-0.41421356237311396
10
270.13424356697004
20
-103.5983392673112
10
270.13424356697004
20
-90.698339267311198
42
-0.4142135623730856
0
LWPOLYLINE
5
113
100
AcDbEntity
8
0
100
AcDbPolyline
90
8
70
1
43
0.0
10
232.0342435669701
20
-46.448339267311304
10
232.03424356697008
20
-33.548339267311299
42
-0.41421356237313761
10
232.58424356697006
20
-32.998339267311309
10
245.48424356697006
20
-32.998339267311309
42
-0.41421356237311163
10
246.03424356697002
20
-33.548339267311306
10
246.03424356697005
20
-46.448339267311312
42
-0.41421356237313761
10
245.48424356697006
20
-46.998339267311302
10
232.58424356697009
20
-46.998339267311302
42
-0.41421356237313289
0
LWPOLYLINE
5
114
100
AcDbEntity
8
0
100
AcDbPolyline
90
8
70
1
43
0.0
10
79.634243566970056
20
-46.448339267311198
10
79.634243566970042
20
-33.548339267311206
42
-0.41421356237310686
10
80.184243566970054
20
-32.998339267311209
10
93.084243566970031
20
-32.998339267311216
42
-0.4142135623730927
10
93.634243566970028
20
-33.548339267311206
10
93.634243566970028
20
-46.448339267311205
42
-0.41421356237310919
10
93.084243566970031
20
-46.998339267311231
10
80.184243566970054
20
-46.998339267311195
42
-0.41421356237309503
0
LWPOLYLINE
5
115
100
AcDbEntity
8
0
100
AcDbPolyline
90
8
70
1
43
0.0
10
74.584243566970045
20
-33.548339267311192
10
74.584243566970045
20
-46.448339267311205
42
-0.41421356237307611
10
74.034243566970048
20
-46.998339267311202
10
61.134243566970056
20
-46.998339267311181
42
-0.41421356237307611
10
60.584243566970059
20
-46.448339267311184
10
60.584243566970059
20
-33.548339267311192
42
-0.41421356237310214
10
61.134243566970056
20
-32.998339267311188
10
74.034243566970034
20
-32.998339267311195
42
-0.41421356237307849
0
LWPOLYLINE
5
116
100
AcDbEntity
8
0
100
AcDbPolyline
90
8
70
1
43
0.0
10
55.534243566970048
20
-33.548339267311192
10
55.534243566970062
20
-46.448339267311184
42
-0.41421356237310919
10
54.984243566970044
20
-46.998339267311195
10
42.084243566970045
20
-46.998339267311181
42
-0.41421356237307611
10
41.534243566970048
20
-46.448339267311184
10
41.534243566970048
20
-33.548339267311185
42
-0.41421356237310214
10
42.084243566970045
20
-32.998339267311174
10
54.984243566970051
20
-32.998339267311195
42
-0.4142135623730856
0
LWPOLYLINE
5
117
100
AcDbEntity
8
0
100
AcDbPolyline
90
8
70
1
43
0.0
10
94.471743566970034
20
-71.098339267311218
10
107.37174356697004
20
-71.098339267311246
42
-0.41421356237309975
10
107.92174356697006
20
-71.648339267311229
10
107.92174356697005
20
-84.548339267311235
42
-0.41421356237310453
10
107.37174356697004
20
-85.098339267311218
10
94.471743566970034
20
-85.098339267311204
42
-0.41421356237307611
10
93.921743566970036
20
-84.548339267311206
10
93.921743566970065
20
-71.648339267311215
42
-0.41421356237309503
0
LWPOLYLINE
5
118
100
AcDbEntity
8
0
100
AcDbPolyline
90
8
70
1
43
0.0
10
89.709243566970031
20
-52.048339267311192
10
102.60924356697004
20
-52.048339267311206
42
-0.41421356237309975
10
103.15924356697005
20
-52.598339267311218
10
103.15924356697005
20
-65.498339267311223
42
-0.41421356237307611
10
102.60924356697005
20
-66.048339267311206
10
89.709243566970045
20
-66.048339267311206
42
-0.41421356237307611
10
89.159243566970048
20
-65.498339267311209
10
89.159243566970048
20
-52.598339267311225
42
-0.41421356237306195
0
LWPOLYLINE
5
119
100
AcDbEntity
8
0
100
AcDbPolyline
90
8
70
1
43
0.0
10
3.9842435669700365
20
-32.998339265953909
10
16.884243566970035
20
-32.998339267311167
42
-0.4142135623730962
10
17.434243566970039
20
-33.548339267311164
10
17.434243566970039
20
-46.448339267311169
42
-0.41421356237309387
10
16.884243566970035
20
-46.998339267311174
10
3.9842435669700382
20
-46.998339267311167
42
-0.41421356237308737
10
3.4342435669700406
20
-46.448339267311169
10
3.4342435669700415
20
-33.548339265953913
42
-0.41421356237309859
0
LWPOLYLINE
5
120
100
AcDbEntity
8
0
100
AcDbPolyline
90
8
70
1
43
0.0
10
193.09674356697005
20
-104.14833926731129
42
0.41421356237313289
10
193.64674356697009
20
-103.59833926731127
10
193.64674356697003
20
-90.698339267311297
42
0.41421356237305718
10
193.09674356697002
20
-90.1483392673113
10
180.19674356697004
20
-90.1483392673113
42
0.41421356237313289
10
179.64674356697003
20
-90.698339267311283
10
179.64674356697006
20
-103.59833926731127
42
0.41421356237309503
10
180.19674356697007
20
-104.14833926731131
0
LWPOLYLINE
5
121
100
AcDbEntity
8
0
100
AcDbPolyline
90
8
70
1
43
0.0
10
103.99674356697005
20
-90.148339267311258
42
0.41421356237309503
10
103.44674356697006
20
-90.698339267311241
10
103.44674356697006
20
-103.59833926731122
42
0.4142135623730856
10
103.99674356697005
20
-104.14833926731123
10
116.89674356697004
20
-104.14833926731126
42
0.4142135623730856
10
117.44674356697004
20
-103.59833926731126
10
117.44674356697006
20
-90.698339267311283
42
0.41421356237305718
10
116.89674356697004
20
-90.148339267311258
0
LWPOLYLINE
5
122
100
AcDbEntity
8
0
100
AcDbPolyline
90
8
70
1
43
0.0
10
8.7467435669700375
20
-52.04833926731115
42
0.4142135623730791
10
8.196743566970035
20
-52.598339267311147
10
8.1967435669700421
20
-65.498339267311138
42
0.41421356237310214
10
8.7467435669700357
20
-66.048339267311164
10
21.646743566970041
20
-66.048339267311164
42
0.41421356237307611
10
22.196743566970039
20
-65.498339267311181
10
22.196743566970035
20
-52.598339267311161
42
0.41421356237309975
10
21.646743566970038
20
-52.048339267311164
0
LWPOLYLINE
5
123
100
AcDbEntity
8
0
100
AcDbPolyline
90
8
70
1
43
0.0
10
227.82174356697001
20
-71.098339267311289
42
0.41421356237313289
10
227.27174356697003
20
-71.648339267311286
10
227.27174356697003
20
-84.548339267311292
42
0.41421356237309503
10
227.82174356697001
20
-85.098339267311303
10
240.72174356697005
20
-85.098339267311346
42
0.41421356237314239
10
241.27174356697009
20
-84.54833926731132
10
241.27174356697003
20
-71.648339267311286
42
0.41421356237300988
10
240.72174356697008
20
-71.098339267311317
0
LWPOLYLINE
5
124
100
AcDbEntity
8
0
100
AcDbPolyline
90
8
70
1
43
0.0
10
218.29674356697001
20
-90.148339267311343
42
0.41421356237314239
10
217.74674356697005
20
-90.69833926731134
10
217.74674356697005
20
-103.5983392673113
42
0.41421356237305718
10
218.29674356697006
20
-104.14833926731133
10
231.19674356697007
20
-104.14833926731133
42
0.41421356237313289
10
231.74674356697011
20
-103.5983392673113
10
231.74674356697005
20
-90.69833926731134
42
0.41421356237309503
10
231.19674356697007
20
-90.1483392673113
0
LWPOLYLINE
5
125
100
AcDbEntity
8
0
100
AcDbPolyline
90
8
70
1
43
0.0
10
121.65924356697005
20
-66.048339267311235
42
0.4142135623730856
10
122.20924356697004
20
-65.498339267311209
10
122.20924356697003
20
-52.598339267311218
42
0.41421356237309975
10
121.65924356697005
20
-52.048339267311235
10
108.75924356697004
20
-52.048339267311235
42
0.41421356237307144
10
108.20924356697004
20
-52.598339267311225
10
108.20924356697003
20
-65.498339267311223
42
0.41421356237309503
10
108.75924356697004
20
-66.048339267311235
0
LWPOLYLINE
5
126
100
AcDbEntity
8
0
100
AcDbPolyline
90
8
70
1
43
0.0
10
69.271743566970045
20
-85.098339267311204
42
0.41421356237307611
10
69.821743566970042
20
-84.548339267311206
10
69.821743566970042
20
-71.648339267311187
42
0.41421356237307611
10
69.271743566970059
20
-71.098339267311218
10
56.371743566970061
20
-71.098339267311161
42
0.41421356237310453
10
55.821743566970063
20
-71.648339267311187
10
55.821743566970056
20
-84.548339267311206
42
0.41421356237307611
10
56.371743566970054
20
-85.098339267311204
0
LWPOLYLINE
5
127
100
AcDbEntity
8
0
100
AcDbPolyline
90
8
70
1
43
0.0
10
64.509243566970042
20
-66.048339267311178
42
0.41421356237307611
10
65.059243566970054
20
-65.498339267311181
10
65.059243566970054
20
-52.598339267311189
42
0.41421356237307611
10
64.509243566970042
20
-52.048339267311185
10
51.609243566970051
20
-52.048339267311178
42
0.41421356237309503
10
51.059243566970054
20
-52.598339267311175
10
51.059243566970039
20
-65.498339267311181
42
0.41421356237309037
10
51.609243566970051
20
-66.048339267311192
0
LWPOLYLINE
5
128
100
AcDbEntity
8
0
100
AcDbPolyline
90
8
70
1
43
0.0
10
24.027993566970054
20
-85.098339267311189
42
0.41421356237308793
10
24.577993566970036
20
-84.548339267311192
10
24.57799356697004
20
-71.648339267311158
42
0.41421356237308793
10
24.027993566970032
20
-71.098339267311189
10
6.3654935669700388
20
-71.098339267311161
42
0.41421356237312046
10
5.8154935669700372
20
-71.648339267311187
10
5.8154935669700407
20
-84.548339267311192
42
0.41421356237308793
10
6.3654935669700352
20
-85.098339267311204
0
LWPOLYLINE
5
129
100
AcDbEntity
8
0
100
AcDbPolyline
90
8
70
1
43
0.0
10
223.05924356697008
20
-52.048339267311249
42
0.41421356237310919
10
222.5092435669701
20
-52.598339267311268
10
222.50924356697004
20
-65.498339267311266
42
0.41421356237315182
10
223.05924356697008
20
-66.048339267311292
10
235.95924356697003
20
-66.048339267311263
42
0.41421356237312812
10
236.50924356697007
20
-65.49833926731128
10
236.50924356697007
20
-52.598339267311289
42
0.41421356237312812
10
235.95924356697009
20
-52.048339267311292
0
LWPOLYLINE
5
130
100
AcDbEntity
8
0
100
AcDbPolyline
90
8
70
1
43
0.0
10
79.346743566970048
20
-90.698339267311241
42
0.4142135623730856
10
78.796743566970051
20
-90.148339267311229
10
65.896743566970045
20
-90.148339267311229
42
0.41421356237313289
10
65.346743566970048
20
-90.698339267311226
10
65.346743566970048
20
-103.59833926731122
42
0.41421356237307611
10
65.896743566970045
20
-104.14833926731121
10
78.796743566970051
20
-104.14833926731121
42
0.41421356237305718
10
79.346743566970048
20
-103.59833926731126
0
LWPOLYLINE
5
131
100
AcDbEntity
8
0
100
AcDbPolyline
90
8
70
1
43
0.0
10
126.42174356697004
20
-85.098339267311246
42
0.41421356237307611
10
126.97174356697003
20
-84.548339267311249
10
126.97174356697005
20
-71.648339267311243
42
0.41421356237309037
10
126.42174356697005
20
-71.098339267311246
10
113.52174356697003
20
-71.098339267311232
42
0.41421356237313761
10
112.97174356697005
20
-71.648339267311229
10
112.97174356697001
20
-84.548339267311249
42
0.4142135623730856
10
113.52174356697003
20
-85.098339267311218
0
LWPOLYLINE
5
132
100
AcDbEntity
8
0
100
AcDbPolyline
90
8
70
1
43
0.0
10
75.421743566970065
20
-71.098339267311204
42
0.41421356237310919
10
74.871743566970054
20
-71.648339267311187
10
74.871743566970054
20
-84.548339267311206
42
0.41421356237307611
10
75.421743566970051
20
-85.098339267311246
10
88.321743566969985
20
-85.098339267311204
42
0.41421356237307611
10
88.871743566970011
20
-84.548339267311235
10
88.871743566970025
20
-71.648339267311215
42
0.4142135623730856
10
88.321743566970028
20
-71.098339267311232
0
LWPOLYLINE
5
133
100
AcDbEntity
8
0
100
AcDbPolyline
90
8
70
1
43
0.0
10
70.659243566970048
20
-52.048339267311199
42
0.41421356237309037
10
70.109243566970051
20
-52.598339267311196
10
70.109243566970051
20
-65.498339267311195
42
0.41421356237307611
10
70.659243566970048
20
-66.048339267311192
10
83.559243566970039
20
-66.048339267311192
42
0.4142135623730856
10
84.109243566970036
20
-65.498339267311195
10
84.109243566970065
20
-52.598339267311196
42
0.41421356237306667
10
83.559243566970039
20
-52.048339267311206
0
LWPOLYLINE
5
134
100
AcDbEntity
8
0
100
AcDbPolyline
90
8
70
1
43
0.0
10
132.57174356697004
20
-71.098339267311246
42
0.4142135623730856
10
132.02174356697003
20
-71.648339267311243
10
132.02174356697003
20
-84.548339267311249
42
0.41421356237307611
10
132.57174356697001
20
-85.098339267311218
10
145.47174356697002
20
-85.098339267311218
42
0.4142135623730856
10
146.02174356697003
20
-84.548339267311263
10
146.02174356697006
20
-71.648339267311243
42
0.41421356237309975
10
145.47174356697005
20
-71.09833926731126
0
LWPOLYLINE
5
135
100
AcDbEntity
8
0
100
AcDbPolyline
90
8
70
1
43
0.0
10
97.846743566970048
20
-104.1483392673112
42
0.4142135623730856
10
98.396743566970045
20
-103.59833926731122
10
98.396743566970059
20
-90.698339267311269
42
0.41421356237307611
10
97.846743566970048
20
-90.148339267311258
10
84.946743566970028
20
-90.148339267311272
42
0.41421356237309503
10
84.396743566970045
20
-90.698339267311241
10
84.396743566970045
20
-103.59833926731122
42
0.4142135623730856
10
84.946743566970042
20
-104.14833926731121
0
LWPOLYLINE
5
136
100
AcDbEntity
8
0
100
AcDbPolyline
90
8
70
1
43
0.0
10
151.62174356697003
20
-71.098339267311246
42
0.41421356237309037
10
151.07174356697004
20
-71.648339267311243
10
151.07174356697004
20
-84.548339267311249
42
0.41421356237307611
10
151.62174356697003
20
-85.09833926731126
10
164.52174356697
20
-85.098339267311317
42
0.41421356237312346
10
165.07174356697004
20
-84.548339267311277
10
165.07174356697004
20
-71.648339267311243
42
0.4142135623730856
10
164.52174356697003
20
-71.09833926731126
0
LWPOLYLINE
5
137
100
AcDbEntity
8
0
100
AcDbPolyline
90
8
70
1
43
0.0
10
221.67174356697004
20
-85.098339267311331
42
0.41421356237311396
10
222.22174356697002
20
-84.54833926731132
10
222.22174356697002
20
-71.648339267311272
42
0.41421356237301465
10
221.67174356697006
20
-71.098339267311303
10
208.77174356697003
20
-71.098339267311289
42
0.41421356237313289
10
208.22174356697005
20
-71.648339267311272
10
208.22174356697005
20
-84.548339267311292
42
0.41421356237305718
10
208.77174356697003
20
-85.098339267311275
0
LWPOLYLINE
5
138
100
AcDbEntity
8
0
100
AcDbPolyline
90
8
70
1
43
0.0
10
127.80924356697005
20
-52.048339267311256
42
0.41421356237307611
10
127.25924356697006
20
-52.598339267311253
10
127.25924356697004
20
-65.498339267311223
42
0.41421356237306667
10
127.80924356697005
20
-66.048339267311235
10
140.70924356697009
20
-66.048339267311249
42
0.41421356237305718
10
141.25924356697004
20
-65.498339267311238
10
141.25924356697004
20
-52.598339267311232
42
0.4142135623730856
10
140.70924356697006
20
-52.048339267311249
0
LWPOLYLINE
5
139
100
AcDbEntity
8
0
100
AcDbPolyline
90
8
70
1
43
0.0
10
37.321743566970042
20
-71.098339267311161
42
0.41421356237310686
10
36.771743566970038
20
-71.648339267311172
10
36.771743566970045
20
-84.548339267311206
42
0.41421356237307849
10
37.321743566970042
20
-85.098339267311204
10
50.221743566970048
20
-85.098339267311204
42
0.41421356237307611
10
50.771743566970045
20
-84.548339267311206
10
50.771743566970059
20
-71.648339267311172
42
0.41421356237307611
10
50.221743566970062
20
-71.098339267311175
0
LWPOLYLINE
5
140
100
AcDbEntity
8
0
100
AcDbPolyline
90
8
70
1
43
0.0
10
32.559243566970032
20
-52.048339267311157
42
0.41421356237307611
10
32.009243566970028
20
-52.598339267311161
10
32.009243566970049
20
-65.498339267311152
42
0.41421356237309742
10
32.559243566970039
20
-66.048339267311164
10
45.459243566970066
20
-66.048339267311178
42
0.41421356237309503
10
46.009243566970042
20
-65.498339267311181
10
46.009243566970042
20
-52.598339267311175
42
0.41421356237306667
10
45.459243566970045
20
-52.048339267311185
0
LWPOLYLINE
5
141
100
AcDbEntity
8
0
100
AcDbPolyline
90
8
70
1
43
0.0
10
255.00924356697001
20
-66.048339267311292
42
0.41421356237313289
10
255.55924356697003
20
-65.498339267311295
10
255.55924356697005
20
-52.598339267311296
42
0.41421356237311396
10
255.0092435669701
20
-52.04833926731132
10
242.10924356697009
20
-52.04833926731127
42
0.41421356237308082
10
241.55924356697011
20
-52.598339267311275
10
241.55924356697
20
-65.49833926731128
42
0.41421356237308082
10
242.10924356697004
20
-66.048339267311306
0
LWPOLYLINE
5
142
100
AcDbEntity
8
0
100
AcDbPolyline
90
8
70
1
43
0.0
10
161.14674356697006
20
-90.148339267311286
42
0.41421356237310453
10
160.59674356697008
20
-90.698339267311283
10
160.59674356697005
20
-103.59833926731127
42
0.41421356237311396
10
161.14674356697009
20
-104.14833926731127
10
174.04674356697004
20
-104.14833926731129
42
0.41421356237311396
10
174.59674356697005
20
-103.5983392673113
10
174.59674356697002
20
-90.698339267311326
42
0.41421356237313289
10
174.04674356697001
20
-90.148339267311272
0
LWPOLYLINE
5
143
100
AcDbEntity
8
0
100
AcDbPolyline
90
8
70
1
43
0.0
10
154.99674356697005
20
-104.14833926731123
42
0.4142135623730856
10
155.54674356697004
20
-103.59833926731126
10
155.54674356697006
20
-90.698339267311283
42
0.4142135623730856
10
154.99674356697005
20
-90.148339267311272
10
142.09674356697002
20
-90.148339267311272
42
0.41421356237310453
10
141.54674356697004
20
-90.698339267311269
10
141.54674356697004
20
-103.59833926731126
42
0.4142135623730856
10
142.09674356697005
20
-104.14833926731127
0
LWPOLYLINE
5
144
100
AcDbEntity
8
0
100
AcDbPolyline
90
8
70
1
43
0.0
10
146.85924356697004
20
-52.048339267311235
42
0.41421356237309037
10
146.30924356697003
20
-52.598339267311225
10
146.30924356697003
20
-65.498339267311238
42
0.41421356237309975
10
146.85924356697004
20
-66.048339267311235
10
159.75924356697004
20
-66.048339267311263
42
0.41421356237309037
10
160.30924356697005
20
-65.498339267311238
10
160.30924356697003
20
-52.598339267311246
42
0.41421356237305718
10
159.75924356697004
20
-52.048339267311263
0
LWPOLYLINE
5
145
100
AcDbEntity
8
0
100
AcDbPolyline
90
8
70
1
43
0.0
10
189.72174356697002
20
-71.098339267311275
42
0.41421356237313289
10
189.17174356697004
20
-71.648339267311258
10
189.17174356697004
20
-84.54833926731132
42
0.41421356237305718
10
189.72174356697002
20
-85.098339267311303
10
202.62174356697003
20
-85.098339267311317
42
0.41421356237312346
10
203.17174356697001
20
-84.54833926731132
10
203.17174356697001
20
-71.648339267311258
42
0.41421356237302881
10
202.62174356697003
20
-71.098339267311289
0
LWPOLYLINE
5
146
100
AcDbEntity
8
0
100
AcDbPolyline
90
8
70
1
43
0.0
10
170.67174356697001
20
-71.09833926731126
42
0.41421356237313761
10
170.12174356697003
20
-71.648339267311258
10
170.12174356697003
20
-84.548339267311292
42
0.41421356237305718
10
170.67174356697001
20
-85.098339267311275
10
183.57174356697001
20
-85.098339267311331
42
0.41421356237312346
10
184.12174356697
20
-84.548339267311292
10
184.12174356697
20
-71.648339267311258
42
0.41421356237303358
10
183.57174356697001
20
-71.098339267311275
0
LWPOLYLINE
5
147
100
AcDbEntity
8
0
100
AcDbPolyline
90
8
70
1
43
0.0
10
216.90924356697002
20
-66.048339267311249
42
0.41421356237313289
10
217.45924356697003
20
-65.498339267311266
10
217.45924356697006
20
-52.59833926731126
42
0.41421356237313289
10
216.90924356697008
20
-52.04833926731127
10
204.00924356697007
20
-52.048339267311249
42
0.41421356237311396
10
203.45924356697009
20
-52.59833926731126
10
203.45924356697
20
-65.498339267311266
42
0.41421356237309503
10
204.00924356697004
20
-66.048339267311292
0
LWPOLYLINE
5
148
100
AcDbEntity
8
0
100
AcDbPolyline
90
8
70
1
43
0.0
10
197.85924356697001
20
-66.048339267311249
42
0.41421356237313289
10
198.40924356697002
20
-65.498339267311266
10
198.40924356697005
20
-52.598339267311268
42
0.41421356237312812
10
197.85924356697006
20
-52.048339267311277
10
184.95924356697006
20
-52.048339267311235
42
0.41421356237311868
10
184.40924356697008
20
-52.59833926731126
10
184.40924356696999
20
-65.498339267311238
42
0.41421356237309503
10
184.95924356697003
20
-66.048339267311263
0
LWPOLYLINE
5
149
100
AcDbEntity
8
0
100
AcDbPolyline
90
8
70
1
43
0.0
10
212.14674356697006
20
-104.14833926731133
42
0.41421356237313289
10
212.6967435669701
20
-103.5983392673113
10
212.69674356697004
20
-90.698339267311326
42
0.41421356237305718
10
212.14674356697003
20
-90.1483392673113
10
199.24674356697005
20
-90.148339267311314
42
0.41421356237313289
10
198.69674356697004
20
-90.698339267311297
10
198.69674356697007
20
-103.59833926731129
42
0.41421356237309503
10
199.24674356697008
20
-104.14833926731131
0
LWPOLYLINE
5
150
100
AcDbEntity
8
0
100
AcDbPolyline
90
8
70
1
43
0.0
10
123.04674356697005
20
-90.148339267311258
42
0.41421356237315182
10
122.49674356697005
20
-90.698339267311241
10
122.49674356697003
20
-103.59833926731122
42
0.41421356237307611
10
123.04674356697005
20
-104.14833926731126
10
135.94674356697004
20
-104.14833926731123
42
0.4142135623730856
10
136.49674356697003
20
-103.59833926731126
10
136.49674356697008
20
-90.698339267311269
42
0.41421356237306667
10
135.94674356697004
20
-90.148339267311258
0
LWPOLYLINE
5
151
100
AcDbEntity
8
0
100
AcDbPolyline
90
8
70
1
43
0.0
10
165.90924356697005
20
-52.048339267311221
42
0.41421356237310919
10
165.35924356697006
20
-52.598339267311246
10
165.35924356697001
20
-65.498339267311238
42
0.41421356237312812
10
165.90924356697002
20
-66.048339267311249
10
178.80924356697005
20
-66.048339267311235
42
0.41421356237313761
10
179.35924356697004
20
-65.498339267311252
10
179.35924356697006
20
-52.59833926731126
42
0.41421356237313289
10
178.80924356697008
20
-52.048339267311263
0
CIRCLE
5
152
100
AcDbEntity
8
0
100
AcDbCircle
10
27.279725801738905
20
-51.871707563472491
30
-5.8980598183211441e-14
40
3.600000000000001
210
3.3105706098632606e-34
220
-1.124100812432971e-15
230
1
0
LWPOLYLINE
5
153
100
AcDbEntity
8
0
100
AcDbPolyline
90
8
70
1
43
0.0
10
36.484243566970044
20
-33.548339267311178
10
36.484243566970029
20
-46.448339267311184
42
-0.4142135623730856
10
35.934243566970032
20
-46.998339267311181
10
23.034243566970037
20
-46.998339267311174
42
-0.41421356237308082
10
22.484243566970029
20
-46.448339267311177
10
22.484243566970036
20
-33.548339267311171
42
-0.4142135623730927
10
23.034243566970044
20
-32.998339267311174
10
35.934243566970039
20
-32.998339267311174
42
-0.41421356237309975
0
LWPOLYLINE
5
154
100
AcDbEntity
8
0
100
AcDbPolyline
90
8
70
1
43
0.0
10
212.98424356697009
20
-46.448339267311283
10
212.98424356697006
20
-33.548339267311292
42
-0.41421356237314239
10
213.53424356697005
20
-32.998339267311287
10
226.43424356697005
20
-32.998339267311302
42
-0.41421356237312812
10
226.98424356697004
20
-33.548339267311292
10
226.98424356697006
20
-46.448339267311297
42
-0.41421356237312812
10
226.43424356697008
20
-46.998339267311273
10
213.53424356697008
20
-46.998339267311302
42
-0.41421356237314239
0
LWPOLYLINE
5
155
100
AcDbEntity
8
0
100
AcDbPolyline
90
8
70
1
43
0.0
10
193.93424356697008
20
-46.448339267311269
10
193.93424356697005
20
-33.548339267311277
42
-0.41421356237313994
10
194.48424356697004
20
-32.998339267311273
10
207.38424356697004
20
-32.998339267311273
42
-0.41421356237313522
10
207.93424356697003
20
-33.548339267311277
10
207.93424356697003
20
-46.448339267311269
42
-0.41421356237314239
10
207.38424356697007
20
-46.998339267311266
10
194.48424356697006
20
-46.99833926731128
42
-0.41421356237314239
0
LWPOLYLINE
5
156
100
AcDbEntity
8
0
100
AcDbPolyline
90
8
70
1
43
0.0
10
174.88424356697007
20
-46.448339267311269
10
174.88424356697004
20
-33.548339267311263
42
-0.41421356237313994
10
175.43424356697003
20
-32.998339267311266
10
188.33424356697006
20
-32.998339267311266
42
-0.41421356237313056
10
188.88424356697004
20
-33.548339267311263
10
188.8842435669701
20
-46.448339267311255
42
-0.41421356237313761
10
188.33424356697009
20
-46.998339267311245
10
175.43424356697005
20
-46.998339267311266
42
-0.41421356237313289
0
LWPOLYLINE
5
157
100
AcDbEntity
8
0
100
AcDbPolyline
90
8
70
1
43
0.0
10
155.83424356697006
20
-46.448339267311248
10
155.83424356697003
20
-33.548339267311256
42
-0.41421356237309742
10
156.38424356697004
20
-32.998339267311259
10
169.28424356697005
20
-32.998339267311259
42
-0.41421356237313056
10
169.83424356697003
20
-33.548339267311256
10
169.83424356697009
20
-46.448339267311248
42
-0.41421356237314239
10
169.28424356697008
20
-46.998339267311245
10
156.38424356697004
20
-46.998339267311252
42
-0.41421356237311868
0
LWPOLYLINE
5
158
100
AcDbEntity
8
0
100
AcDbPolyline
90
8
70
1
43
0.0
10
136.78424356697008
20
-46.448339267311248
10
136.78424356697008
20
-33.548339267311249
42
-0.41421356237308321
10
137.33424356697006
20
-32.998339267311245
10
150.23424356697004
20
-32.998339267311245
42
-0.41421356237310453
10
150.78424356697002
20
-33.548339267311242
10
150.78424356697005
20
-46.448339267311241
42
-0.4142135623730856
10
150.23424356697004
20
-46.998339267311252
10
137.33424356697009
20
-46.998339267311231
42
-0.41421356237310453
0
LWPOLYLINE
5
159
100
AcDbEntity
8
0
100
AcDbPolyline
90
8
70
1
43
0.0
10
117.73424356697006
20
-46.448339267311233
10
117.73424356697006
20
-33.548339267311235
42
-0.4142135623730856
10
118.28424356697005
20
-32.998339267311238
10
131.18424356697005
20
-32.998339267311245
42
-0.41421356237309037
10
131.73424356697006
20
-33.548339267311235
10
131.73424356697006
20
-46.448339267311233
42
-0.41421356237309037
10
131.18424356697008
20
-46.998339267311245
10
118.28424356697006
20
-46.998339267311231
42
-0.41421356237311396
0
LWPOLYLINE
5
160
100
AcDbEntity
8
0
100
AcDbPolyline
90
8
70
1
43
0.0
10
98.684243566970082
20
-46.448339267311226
10
98.684243566970054
20
-33.548339267311221
42
-0.41421356237308321
10
99.234243566970051
20
-32.998339267311209
10
112.13424356697004
20
-32.998339267311223
42
-0.4142135623730927
10
112.68424356697004
20
-33.548339267311221
10
112.68424356697004
20
-46.448339267311226
42
-0.41421356237309503
10
112.13424356697006
20
-46.998339267311245
10
99.234243566970093
20
-46.998339267311231
42
-0.41421356237307144
0
LWPOLYLINE
5
161
100
AcDbEntity
8
0
100
AcDbPolyline
90
48
70
1
43
0.0
10
282.30259356696871
20
-84.311339275763814
42
0.41421356237309503
10
281.7525935669687
20
-84.861339275763811
10
281.7525935669687
20
-86.998339268526337
42
-0.41421356237309503
10
281.20259356696869
20
-87.548339268526334
10
273.77799356697068
20
-87.548339268526107
42
-0.41421356237309503
10
273.22799356697067
20
-86.998339268526109
10
273.22799356697067
20
-85.648339265954093
42
0.41421356237305718
10
272.67799356697071
20
-85.098339265954081
10
257.77799356697068
20
-85.098339265954081
42
0.41421356237310453
10
257.22799356697067
20
-85.648339265954093
10
257.22799356697067
20
-86.998339268525569
42
-0.41421356237309503
10
256.67799356697066
20
-87.548339268525567
10
249.83999356697001
20
-87.548339268525353
42
-0.41421356237309503
10
249.28999356697003
20
-86.998339268525356
10
249.28999356697003
20
-85.44833927576407
42
0.41421356237310453
10
248.73999356696999
20
-84.898339275764101
10
246.82174356696979
20
-84.89833927576413
42
-0.41421356237311396
10
246.27174356696975
20
-84.348339275764133
10
246.27174356696972
20
-71.648339267312309
42
-0.4142135623730856
10
246.8217435669697
20
-71.098339267312284
10
248.73999356697004
20
-71.098339267312156
42
0.41421356237305718
10
249.28999356697
20
-70.548339267312144
10
249.28999356697003
20
-68.668339265954344
42
-0.41421356237309037
10
249.83999356697001
20
-68.118339265954347
10
256.73999356697004
20
-68.118339265954347
42
-0.41421356237309503
10
257.28999356697
20
-68.668339265954344
10
257.28999356696983
20
-70.298339266906609
42
0.41421356237312812
10
257.83999356697001
20
-70.848339266906606
10
264.77174356696969
20
-70.848339266906621
42
0.41421356237312812
10
265.3217435669697
20
-70.298339266906623
10
265.3217435669697
20
-52.598339267311303
42
-0.41421356237309503
10
265.87174356696971
20
-52.048339267311306
10
283.73459356696986
20
-52.048339267311327
42
-0.41421356237309975
10
284.28459356696987
20
-52.598339267311331
10
284.28459356696982
20
-59.748339265084326
42
-0.41421356237309503
10
283.73459356696981
20
-60.298339265084323
10
280.05259356696979
20
-60.298339265084294
42
0.41421356237313289
10
279.50259356696984
20
-60.848339265084292
10
279.50259356696984
20
-61.14833926595437
42
0.41421356237313289
10
280.05259356696979
20
-61.698339265954367
10
281.25259356696984
20
-61.698339265954388
42
-0.41421356237309975
10
281.80259356696985
20
-62.248339265954399
10
281.80259356696956
20
-76.161339275763765
42
0.41421356237312346
10
282.35259356696957
20
-76.711339275763791
10
283.73459356696975
20
-76.711339275763791
42
-0.41421356237309975
10
284.28459356696976
20
-77.261339275763788
10
284.2845935669697
20
-83.761339275763817
42
-0.41421356237309503
10
283.73459356696975
20
-84.311339275763814
0
ENDSEC
0
SECTION
2
OBJECTS
0
DICTIONARY
5
C
100
AcDbDictionary
3
ACAD_GROUP
350
D
3
ACAD_MLINESTYLE
350
17
0
DICTIONARY
5
D
100
AcDbDictionary
0
DICTIONARY
5
1A
330
C
100
AcDbDictionary
0
DICTIONARY
5
17
100
AcDbDictionary
0
ENDSEC
0
EOF
