0
SECTION
2
HEADER
9
$INSUNITS
70
4
9
$ACADVER
1
AC1014
9
$HANDSEED
5
FFFF
0
ENDSEC
0
SECTION
2
TABLES
0
TABLE
2
VPORT
5
8
100
AcDbSymbolTable
0
ENDTAB
0
TABLE
2
LTYPE
5
5
100
AcDbSymbolTable
0
LTYPE
5
14
100
AcDbSymbolTableRecord
100
AcDbLinetypeTableRecord
2
BYBLOCK
70
0
0
LTYPE
5
15
100
AcDbSymbolTableRecord
100
AcDbLinetypeTableRecord
2
BYLAYER
70
0
0
LTYPE
5
16
100
AcDbSymbolTableRecord
100
AcDbLinetypeTableRecord
2
DASHED
70
0
3
Dashed __ __ __ __ __ __ __ __ __ __ __ __ __ _
72
65
73
2
40
0.75
49
0.5
74
0
49
-0.25
74
0
0
ENDTAB
0
TABLE
2
LAYER
5
2
100
AcDbSymbolTable
70
2
0
LAYER
5
50
100
AcDbSymbolTableRecord
100
AcDbLayerTableRecord
2
0
70
0
62
7
6
CONTINUOUS
0
ENDTAB
0
TABLE
2
STYLE
5
3
100
AcDbSymbolTable
70
1
0
STYLE
5
11
100
AcDbSymbolTableRecord
100
AcDbTextStyleTableRecord
2
STANDARD
70
0
0
ENDTAB
0
TABLE
2
VIEW
5
6
100
AcDbSymbolTable
70
0
0
ENDTAB
0
TABLE
2
UCS
5
7
100
AcDbSymbolTable
70
0
0
ENDTAB
0
TABLE
2
APPID
5
9
100
AcDbSymbolTable
70
2
0
APPID
5
12
100
AcDbSymbolTableRecord
100
AcDbRegAppTableRecord
2
ACAD
70
0
0
ENDTAB
0
TABLE
2
DIMSTYLE
5
A
100
AcDbSymbolTable
70
1
0
ENDTAB
0
TABLE
2
BLOCK_RECORD
5
1
100
AcDbSymbolTable
70
1
0
BLOCK_RECORD
5
1F
100
AcDbSymbolTableRecord
100
AcDbBlockTableRecord
2
*MODEL_SPACE
0
BLOCK_RECORD
5
1B
100
AcDbSymbolTableRecord
100
AcDbBlockTableRecord
2
*PAPER_SPACE
0
ENDTAB
0
ENDSEC
0
SECTION
2
BLOCKS
0
BLOCK
5
20
100
AcDbEntity
100
AcDbBlockBegin
2
*MODEL_SPACE
0
ENDBLK
5
21
100
AcDbEntity
100
AcDbBlockEnd
0
BLOCK
5
1C
100
AcDbEntity
100
AcDbBlockBegin
2
*PAPER_SPACE
0
ENDBLK
5
1D
100
AcDbEntity
100
AcDbBlockEnd
0
ENDSEC
0
SECTION
2
ENTITIES
0
LWPOLYLINE
5
100
100
AcDbEntity
8
0
100
AcDbPolyline
90
8
70
1
43
0.0
10
35.233246504855309
20
-78.0725533888005
10
35.233246817012841
20
-71.073027128778691
42
-0.41421356605737225
10
36.733246901671052
20
-69.573027194568539
10
50.733246901671009
20
-69.573027818925809
42
-0.41421355912057445
10
52.233246817012827
20
-71.073027886926795
10
52.233246504855316
20
-78.072554148054195
42
-0.41421355868881615
10
50.7332464557227
20
-79.572554080053209
10
36.733246437959927
20
-79.572553455695939
42
-0.41421356237309764
0
LWPOLYLINE
5
101
100
AcDbEntity
8
0
100
AcDbPolyline
90
8
70
1
43
0.0
10
128.43324681701282
20
-71.073031285214256
42
0.41421355912057789
10
126.933246901671
20
-69.573031217213256
10
112.93324690167097
20
-69.573030592856
42
0.41421356605736703
10
111.43324683477557
20
-71.073030527066138
10
111.43324650485526
20
-78.072556788193523
42
0.41421356562561573
10
112.93324645572262
20
-79.572556855088934
10
126.93324645572264
20
-79.572557478340642
42
0.41421355868882304
10
128.43324652261805
20
-78.072557546341642
0
LWPOLYLINE
5
102
100
AcDbEntity
8
0
100
AcDbPolyline
90
8
70
1
43
0.0
10
160.55830290214948
20
-88.623004292763156
10
174.55830290214948
20
-88.62300492005204
42
-0.41421356444796581
10
176.05830284881171
20
-90.12300498401585
10
176.05830253665425
20
-97.122531229448583
42
-0.41421356559282735
10
174.55830245620115
20
-98.622531165484745
10
160.55830245620112
20
-98.622530541127489
42
-0.41421356029821382
10
159.05830253665425
20
-97.122530471300465
10
159.05830284588018
20
-90.123004225867703
42
-0.4142135591533524
0
SPLINE
5
103
100
AcDbEntity
8
0
100
AcDbSpline
70
0
71
3
72
12
73
8
74
0
42
0.000000001
43
0.0000000001
44
0.0000000001
40
0
40
0
40
0
40
0
40
0.05859667100804139
40
0.05859667100804139
40
0.10837056327310879
40
0.10837056327310879
40
0.15814445553817311
40
0.15814445553817311
40
0.15814445553817311
40
0.15814445553817311
10
233.48554952644466
20
-87.867330963663193
30
6.6613381477509392e-14
10
233.38862757597178
20
-88.036909593400168
30
6.3282712403633923e-14
10
233.2595097749163
20
-88.185935946858251
30
6.4392935428259079e-14
10
232.97461216447502
20
-88.408026534606407
30
6.3282712403633923e-14
10
232.82773868562634
20
-88.48761812545672
30
6.5503158452884236e-14
10
232.51393270733723
20
-88.595480389682706
30
6.5503158452884236e-14
10
232.34916347942504
20
-88.623007497347999
30
6.5503158452884236e-14
10
232.18325050520818
20
-88.623007489948776
30
6.2172489379008766e-14
0
ARC
5
104
100
AcDbEntity
8
0
100
AcDbCircle
10
237.82654604091474
20
-90.348409209377877
30
6.7723604502134536e-14
40
5.0000000000000036
210
1.1255852252615107e-17
220
7.6082586399351341e-16
230
1
100
AcDbArc
50
29.749938495709259
51
150.25005639385591
0
SPLINE
5
105
100
AcDbEntity
8
0
100
AcDbSpline
70
0
71
3
72
12
73
8
74
0
42
0.000000001
43
0.0000000001
44
0.0000000001
40
0
40
0
40
0
40
0
40
0.058596671008039836
40
0.058596671008039836
40
0.10837056327310526
40
0.10837056327310526
40
0.15814445553817003
40
0.15814445553817003
40
0.15814445553817003
40
0.15814445553817003
10
243.46984173051655
20
-88.623007993296341
30
6.4392935428259079e-14
10
243.27451949382308
20
-88.623007984585556
30
6.4392935428259079e-14
10
243.08106464587266
20
-88.584857199811154
30
6.4392935428259079e-14
10
242.7468751058222
20
-88.447714103294061
30
6.5503158452884236e-14
10
242.60489282740647
20
-88.359693237932134
30
6.5503158452884236e-14
10
242.35553145733849
20
-88.140770038677687
30
6.4392935428259079e-14
10
242.24987137803618
20
-88.011376886752984
30
6.5503158452884236e-14
10
242.16754277668187
20
-87.867331350853618
30
6.5503158452884236e-14
0
LINE
5
106
100
AcDbEntity
8
0
100
AcDbLine
10
243.46984173051655
20
-88.623007993296341
30
6.4392935428259079e-14
11
257.90205287350534
21
-88.623008636928915
31
6.4354542576318176e-14
0
ARC
5
107
100
AcDbEntity
8
0
100
AcDbCircle
10
257.9020528066099
20
-90.123008636928944
30
6.6613381477509392e-14
40
1.5000000000000231
210
2.6602537155620517e-18
220
7.494005415033421e-16
230
1
100
AcDbArc
50
-2.5613209387547816e-06
51
89.999997444782466
0
LINE
5
108
100
AcDbEntity
8
0
100
AcDbLine
10
259.4020528066099
20
-90.12300870382434
30
6.6609391147067498e-14
11
259.40205249445256
21
-97.122534949257044
31
7.0776717819853729e-14
0
ARC
5
109
100
AcDbEntity
8
0
100
AcDbCircle
10
257.90205249445239
20
-97.122534882361634
30
7.2164496600635175e-14
40
1.5000000000000049
210
2.6602537155744724e-18
220
7.494005415033417e-16
230
1
100
AcDbArc
50
269.99999744478248
51
359.99999743867909
0
LINE
5
110
100
AcDbEntity
8
0
100
AcDbLine
10
257.90205242755695
20
-98.622534882361634
30
7.3288597413068146e-14
11
217.70830249017257
21
-98.622533089843003
31
7.2271420812115087e-14
0
ARC
5
111
100
AcDbEntity
8
0
100
AcDbCircle
10
217.70830255706798
20
-97.122533089843074
30
6.9944050551384862e-14
40
1.5000000000000231
210
2.6602528883960335e-18
220
7.494005415033422e-16
230
1
100
AcDbArc
50
179.99999743867906
51
269.99999744478356
0
LINE
5
112
100
AcDbEntity
8
0
100
AcDbLine
10
216.20830255706795
20
-97.122533022947636
30
6.9948040880585985e-14
11
216.20830286922543
21
-90.123006777514846
31
6.7862382380212694e-14
0
ARC
5
113
100
AcDbEntity
8
0
100
AcDbCircle
10
217.70830286922543
20
-90.123006844410298
30
6.5503158452884236e-14
40
1.5000000000000049
210
2.6602528883954545e-18
220
7.4940054150334703e-16
230
1
100
AcDbArc
50
89.99999744478356
51
179.99999743867906
0
LINE
5
114
100
AcDbEntity
8
0
100
AcDbLine
10
217.70830293612084
20
-88.623006844410298
30
6.4379057640451252e-14
11
232.18325050520818
21
-88.623007489948776
31
6.2172489379008766e-14
0
SPLINE
5
115
100
AcDbEntity
8
0
100
AcDbSpline
70
0
71
3
72
12
73
8
74
0
42
0.000000001
43
0.0000000001
44
0.0000000001
40
0
40
0
40
0
40
0
40
0.058596671008039072
40
0.058596671008039072
40
0.11365373042697301
40
0.11365373042697301
40
0.16871078984590701
40
0.16871078984590701
40
0.16871078984590701
40
0.16871078984590701
10
22.737586299196014
20
-49.674550609053767
30
3.6637359812630166e-14
10
22.65274727769485
20
-49.850485587320357
30
3.6637359812630166e-14
10
22.534355350012429
20
-50.008167583864243
30
3.6637359812630166e-14
10
22.252569426239013
20
-50.261388454178672
30
3.6637359812630166e-14
10
22.094703905520557
20
-50.357968804394915
30
3.6637359812630166e-14
10
21.751971443492629
20
-50.489338533697996
30
3.6637359812630166e-14
10
21.569996486133881
20
-50.523019412158703
30
3.8857805861880479e-14
10
21.386472954737435
20
-50.523019403974118
30
3.6637359812630166e-14
0
ARC
5
116
100
AcDbEntity
8
0
100
AcDbCircle
10
27.241297224406541
20
-51.846321292652597
30
3.6637359812630166e-14
40
5.0000000000000009
210
7.8587475874102968e-18
220
7.5115625124991002e-16
230
1
100
AcDbArc
50
25.744198605013345
51
154.25579628455299
0
SPLINE
5
117
100
AcDbEntity
8
0
100
AcDbSpline
70
0
71
3
72
12
73
8
74
0
42
0.000000001
43
0.0000000001
44
0.0000000001
40
0
40
0
40
0
40
0
40
0.058596671008039107
40
0.058596671008039107
40
0.11365373042697315
40
0.11365373042697315
40
0.16871078984590696
40
0.16871078984590696
40
0.16871078984590696
40
0.16871078984590696
10
33.096121612106081
20
-50.523019926188695
30
3.5527136788005009e-14
10
32.900799375412618
20
-50.52301991747791
30
3.6637359812630166e-14
10
32.707344527462197
20
-50.48486913270348
30
3.5527136788005009e-14
10
32.356862932190865
20
-50.341040180904137
30
3.6637359812630166e-14
10
32.201299399006125
20
-50.240794114534005
30
3.6637359812630166e-14
10
31.93410189053823
20
-49.989141501248476
30
3.7747582837255322e-14
10
31.824722533628798
20
-49.839858404543982
30
3.5527136788005009e-14
10
31.745008343325743
20
-49.674551010757284
30
3.6637359812630166e-14
0
LINE
5
118
100
AcDbEntity
8
0
100
AcDbLine
10
33.096121612106081
20
-50.523019926188695
30
3.5527136788005009e-14
11
45.970687672306063
21
-50.523020501460643
31
3.6603110639249785e-14
0
ARC
5
119
100
AcDbEntity
8
0
100
AcDbCircle
10
45.970687587647852
20
-52.023020500355059
30
3.8857805861880479e-14
40
1.5000000000000049
210
2.6602534407387208e-18
220
7.4940054150138138e-16
230
1
100
AcDbArc
50
-2.5613209387547816e-06
51
89.999996766294544
0
LINE
5
120
100
AcDbEntity
8
0
100
AcDbLine
10
47.470687587647859
20
-52.02302056835606
30
3.8853815532679356e-14
11
47.470687293233937
21
-59.022976632086937
31
4.3021142204224816e-14
0
ARC
5
121
100
AcDbEntity
8
0
100
AcDbCircle
10
45.970687275471192
20
-59.022976564085958
30
4.4408920985006262e-14
40
1.5000000000000044
210
2.6602531131001842e-18
220
7.4940054153484408e-16
230
1
100
AcDbArc
50
269.99999812327064
51
359.99999743867909
0
LINE
5
122
100
AcDbEntity
8
0
100
AcDbLine
10
45.970687226338534
20
-60.522976564085965
30
4.5533021797439233e-14
11
30.470687208575768
21
-60.522975872833243
31
4.3339931367089128e-14
0
LINE
5
123
100
AcDbEntity
8
0
100
AcDbLine
10
30.470687208575768
20
-60.522975872833243
30
4.3339931367089128e-14
11
30.470686923137016
21
-60.523019809102351
31
4.5519177361553716e-14
0
LINE
5
124
100
AcDbEntity
8
0
100
AcDbLine
10
30.470686923137016
20
-60.523019809102351
30
4.5519177361553716e-14
11
8.1581872263973167
21
-60.523018815138528
31
4.3358054075401358e-14
0
ARC
5
125
100
AcDbEntity
8
0
100
AcDbCircle
10
8.1581872755299756
20
-59.023018814032952
30
4.3298697960381105e-14
40
1.5000000000000038
210
2.6602525545543219e-18
220
7.3552275369748845e-16
230
1
100
AcDbArc
50
179.99999758516347
51
269.99999812327064
0
LINE
5
126
100
AcDbEntity
8
0
100
AcDbLine
10
6.6581872755299729
20
-59.023018748243096
30
4.3302688290822999e-14
11
6.6581876054713582
21
-52.023018748243111
31
3.7886360715333467e-14
0
ARC
5
127
100
AcDbEntity
8
0
100
AcDbCircle
10
8.1581875877086141
20
-52.023018814032952
30
3.8857805861880479e-14
40
1.500000000000006
210
2.6602518804466283e-18
220
7.3552275366402202e-16
230
1
100
AcDbArc
50
89.999996766295226
51
179.99999758516347
0
LINE
5
128
100
AcDbEntity
8
0
100
AcDbLine
10
8.1581876723668074
20
-50.523018814032952
30
3.775452173115923e-14
11
21.386472954737435
21
-50.523019403974118
31
3.6637359812630166e-14
0
LWPOLYLINE
5
129
100
AcDbEntity
8
0
100
AcDbPolyline
90
8
70
1
43
0.0
10
179.60830290214943
20
-88.623005142334975
10
193.60830290214949
20
-88.623005769623902
42
-0.4142135644479728
10
195.10830284881177
20
-90.123005833587712
10
195.10830253665426
20
-97.122532079020431
42
-0.41421356559283079
10
193.60830245620116
20
-98.622532015056606
10
179.6083024562011
20
-98.622531390699351
42
-0.41421356029821382
10
178.10830253665426
20
-97.122531320872341
10
178.10830284588008
20
-90.123005075439551
42
-0.4142135591533454
0
LWPOLYLINE
5
130
100
AcDbEntity
8
0
100
AcDbPolyline
90
8
70
1
43
0.0
10
103.40830290214954
20
-88.6230017440475
10
117.4083029021495
20
-88.623002371336398
42
-0.41421356444797625
10
118.90830284881179
20
-90.123002435300236
10
118.90830253665428
20
-97.122528680732955
42
-0.41421356559283773
10
117.40830245620114
20
-98.622528616769159
10
103.40830245620117
20
-98.622527992411904
42
-0.41421356029822082
10
101.9083025366543
20
-97.122527922584851
10
101.90830284588016
20
-90.123001677152104
42
-0.4142135591533524
0
LWPOLYLINE
5
131
100
AcDbEntity
8
0
100
AcDbPolyline
90
8
70
1
43
0.0
10
84.358302902149532
20
-88.623000894475666
10
98.358302902149518
20
-88.623001521764564
42
-0.41421356444796581
10
99.858302848811803
20
-90.12300158572836
10
99.858302536654278
20
-97.122527831161165
42
-0.41421356559282735
10
98.35830245620113
20
-98.622527767197298
10
84.358302456201187
20
-98.622527142840056
42
-0.41421356029821732
10
82.858302536654307
20
-97.122527073013046
10
82.858302845880175
20
-90.123000827580242
42
-0.4142135591533454
0
LWPOLYLINE
5
132
100
AcDbEntity
8
0
100
AcDbPolyline
90
8
70
1
43
0.0
10
198.65830290214942
20
-88.623005991906837
10
212.65830290214944
20
-88.623006619195763
42
-0.41421356444796581
10
214.1583028488117
20
-90.123006683159574
10
214.15830253665422
20
-97.122532928592292
42
-0.41421356559283429
10
212.65830245620111
20
-98.622532864628482
10
198.65830245620103
20
-98.62253224027117
42
-0.41421356029821732
10
197.15830253665419
20
-97.122532170444146
10
197.15830284588006
20
-90.123005925011455
42
-0.4142135591533524
0
LWPOLYLINE
5
133
100
AcDbEntity
8
0
100
AcDbPolyline
90
8
70
1
43
0.0
10
122.45830290214951
20
-88.62300259361939
10
136.45830290214948
20
-88.623003220908288
42
-0.4142135644479728
10
137.9583028488118
20
-90.123003284872112
10
137.95830253665426
20
-97.122529530304845
42
-0.41421356559283429
10
136.4583024562011
20
-98.622529466340993
10
122.4583024562012
20
-98.622528841983751
42
-0.41421356029822776
10
120.95830253665429
20
-97.122528772156699
10
120.9583028458802
20
-90.123002526723923
42
-0.41421355915334196
0
LWPOLYLINE
5
134
100
AcDbEntity
8
0
100
AcDbPolyline
90
8
70
1
43
0.0
10
61.758302835254142
20
-90.122999886584637
10
61.758302536654341
20
-97.122526132017384
42
-0.41421356559283951
10
60.258302456201193
20
-98.622526068053574
10
46.258302456201235
20
-98.622525443696304
42
-0.41421356029821904
10
44.758302536654362
20
-97.12252537386928
10
44.758302848811866
20
-90.122999128436533
42
-0.41421355915335933
10
46.258302902149595
20
-88.622999198263557
10
60.258302902149566
20
-88.622999836178579
42
-0.41421356444795898
0
LWPOLYLINE
5
135
100
AcDbEntity
8
0
100
AcDbPolyline
90
8
70
1
43
0.0
10
65.308302902149563
20
-88.623000044903847
10
79.308302902149549
20
-88.623000672192688
42
-0.41421356444796581
10
80.80830284881182
20
-90.123000736156499
10
80.808302536654324
20
-97.122526981589274
42
-0.41421356559283429
10
79.308302456201176
20
-98.622526917625436
10
65.308302456201218
20
-98.62252629326818
42
-0.41421356029822254
10
63.808302536654352
20
-97.122526223441128
10
63.808302845880249
20
-90.122999978008394
42
-0.41421355915334884
0
LWPOLYLINE
5
136
100
AcDbEntity
8
0
100
AcDbPolyline
90
8
70
1
43
0.0
10
141.50830290214952
20
-88.623003443191223
10
155.5083029021495
20
-88.623004070480135
42
-0.41421356444796925
10
157.00830284881178
20
-90.12300413444396
10
157.00830253665427
20
-97.122530379876721
42
-0.41421356559283429
10
155.50830245620111
20
-98.622530315912883
10
141.50830245620116
20
-98.622529691555613
42
-0.41421356029822426
10
140.0083025366543
20
-97.12252962172856
10
140.00830284588017
20
-90.123003376295827
42
-0.4142135591533524
0
LWPOLYLINE
5
137
100
AcDbEntity
8
0
100
AcDbPolyline
90
8
70
1
43
0.0
10
168.58324652261803
20
-78.072559336909094
10
168.58324681701276
20
-71.073033075781723
42
-0.41421356605737403
10
170.08324690167098
20
-69.573033141571571
10
184.08324690167098
20
-69.573033765928869
42
-0.4142135591205709
10
185.58324681701276
20
-71.073033833929856
10
185.58324650485525
20
-78.072560095057213
42
-0.41421355868882476
10
184.08324645572259
20
-79.572560027056213
10
170.08324645572256
20
-79.572559384936142
42
-0.41421356562561062
0
LWPOLYLINE
5
138
100
AcDbEntity
8
0
100
AcDbPolyline
90
8
70
1
43
0.0
10
165.32068767230601
20
-50.523025824106412
10
179.32068767230604
20
-50.523026447358113
42
-0.4142135591205709
10
180.8206875876478
20
-52.023026515359099
10
180.82068727547107
20
-59.02298257908997
42
-0.41421355868881782
10
179.32068722633844
20
-60.522982511088969
10
165.32068722633849
20
-60.522981886731692
42
-0.41421356562561573
10
163.8206872754711
20
-59.022981820941858
10
163.82068758875337
20
-52.023025757210959
42
-0.41421356605737059
0
LWPOLYLINE
5
139
100
AcDbEntity
8
0
100
AcDbPolyline
90
8
70
1
43
0.0
10
73.333246522618069
20
-78.0725550890498
10
73.333246817012835
20
-71.073028827922414
42
-0.41421356605737403
10
74.83324690167106
20
-69.573028893712248
10
88.833246901671032
20
-69.573029518069546
42
-0.41421355912056923
10
90.333246817012821
20
-71.073029586070561
10
90.333246504855325
20
-78.072555847197947
42
-0.41421355868882304
10
88.833246455722644
20
-79.572555779196932
10
74.833246455722701
20
-79.572555137076904
42
-0.41421356562561928
0
LWPOLYLINE
5
140
100
AcDbEntity
8
0
100
AcDbPolyline
90
8
70
1
43
0.0
10
54.283246522618086
20
-78.072554239477952
10
54.283246817012838
20
-71.073027978350567
42
-0.41421356605736881
10
55.783246901671035
20
-69.573028044140401
10
69.783246901671021
20
-69.573028668497685
42
-0.41421355912057267
10
71.283246817012824
20
-71.073028736498685
10
71.283246504855313
20
-78.072554997626042
42
-0.41421355868881782
10
69.78324645572269
20
-79.572554929625056
10
55.783246455722697
20
-79.572554287505028
42
-0.41421356562561584
0
LWPOLYLINE
5
141
100
AcDbEntity
8
0
100
AcDbPolyline
90
8
70
1
43
0.0
10
89.120687672306076
20
-50.523022425818951
10
103.12068767230602
20
-50.523023049070652
42
-0.41421355912057789
10
104.62068758764785
20
-52.023023117071652
10
104.62068727547117
20
-59.022979180802501
42
-0.41421355868882476
10
103.1206872263385
20
-60.522979112801508
10
89.120687226338546
20
-60.522978488444238
42
-0.41421356562561573
10
87.620687275471184
20
-59.02297842265439
10
87.620687588753441
20
-52.023022358923534
42
-0.41421356605737059
0
LWPOLYLINE
5
142
100
AcDbEntity
8
0
100
AcDbPolyline
90
8
70
1
43
0.0
10
184.37068767230599
20
-50.523026673678253
10
198.37068767230596
20
-50.523027296929968
42
-0.4142135591205709
10
199.87068758764775
20
-52.023027364930954
10
199.87068727547103
20
-59.022983428661817
42
-0.41421355868882132
10
198.37068722633842
20
-60.522983360660831
10
184.3706872263385
20
-60.522982736303533
42
-0.41421356562561573
10
182.87068727547111
20
-59.022982670513706
10
182.87068758875338
20
-52.023026606782814
42
-0.41421356605736537
0
LWPOLYLINE
5
143
100
AcDbEntity
8
0
100
AcDbPolyline
90
8
70
1
43
0.0
10
187.63324652261809
20
-78.07256018648097
10
187.63324681701278
20
-71.07303392535357
42
-0.41421356605737403
10
189.13324690167099
20
-69.573033991143404
10
203.13324690167099
20
-69.573034615500717
42
-0.4142135591205709
10
204.63324681701278
20
-71.073034683501703
10
204.63324650485521
20
-78.072560944629089
42
-0.41421355868882653
10
203.13324645572254
20
-79.572560876628103
10
189.1332464557226
20
-79.572560234507975
42
-0.41421356562560885
0
LWPOLYLINE
5
144
100
AcDbEntity
8
0
100
AcDbPolyline
90
8
70
1
43
0.0
10
203.420687672306
20
-50.523027523250114
10
217.42068767230597
20
-50.523028146501829
42
-0.4142135591205709
10
218.92068758764776
20
-52.023028214502816
10
218.92068727547104
20
-59.022984278233707
42
-0.41421355868881615
10
217.42068722633843
20
-60.522984210232693
10
203.4206872263384
20
-60.522983585875409
42
-0.4142135656256174
10
201.92068727547107
20
-59.022983520085567
10
201.92068758875334
20
-52.023027456354704
42
-0.41421356605737225
0
LWPOLYLINE
5
145
100
AcDbEntity
8
0
100
AcDbPolyline
90
8
70
1
43
0.0
10
92.383246522618023
20
-78.072555938621647
10
92.38324681701279
20
-71.073029677494276
42
-0.41421356605736881
10
93.883246901670987
20
-69.573029743284124
10
107.883246901671
20
-69.573030367641394
42
-0.41421355912057267
10
109.38324681701282
20
-71.07303043564238
10
109.38324650485532
20
-78.072556696769752
42
-0.41421355868882653
10
107.88324645572266
20
-79.57255662876878
10
93.883246455722599
20
-79.572555986648766
42
-0.41421356562560541
0
LWPOLYLINE
5
146
100
AcDbEntity
8
0
100
AcDbPolyline
90
8
70
1
43
0.0
10
70.070687672306065
20
-50.523021576247082
10
84.070687672306036
20
-50.52302219949879
42
-0.41421355912057611
10
85.570687587647853
20
-52.023022267499783
10
85.570687275471172
20
-59.022978331230661
42
-0.41421355868881782
10
84.070687226338521
20
-60.52297826322966
10
70.070687226338521
20
-60.522977638872391
42
-0.41421356562561218
10
68.570687275471187
20
-59.022977573082542
10
68.570687588753415
20
-52.023021509351672
42
-0.41421356605737225
0
LWPOLYLINE
5
147
100
AcDbEntity
8
0
100
AcDbPolyline
90
8
70
1
43
0.0
10
51.020687672306082
20
-50.523020726675234
10
65.020687672306025
20
-50.523021349926935
42
-0.41421355912057611
10
66.520687587647856
20
-52.023021417927929
10
66.52068727547119
20
-59.022977481658799
42
-0.41421355868882476
10
65.020687226338524
20
-60.522977413657806
10
51.020687226338566
20
-60.522976789300529
42
-0.41421356562561396
10
49.520687275471218
20
-59.022976723510681
10
49.520687588753461
20
-52.023020659779803
42
-0.41421356605736881
0
LWPOLYLINE
5
148
100
AcDbEntity
8
0
100
AcDbPolyline
90
8
70
1
43
0.0
10
108.17068767230606
20
-50.523023275390813
10
122.170687672306
20
-50.523023898642492
42
-0.41421355912058133
10
123.67068758764785
20
-52.0230239666435
10
123.67068727547115
20
-59.022980030374406
42
-0.41421355868881959
10
122.17068722633849
20
-60.522979962373391
10
108.17068722633854
20
-60.522979338016121
42
-0.41421356562561917
10
106.67068727547117
20
-59.022979272226273
10
106.67068758875342
20
-52.023023208495388
42
-0.41421356605736881
0
LWPOLYLINE
5
149
100
AcDbEntity
8
0
100
AcDbPolyline
90
8
70
1
43
0.0
10
206.68324652261799
20
-78.072561036052832
10
206.68324681701273
20
-71.073034774925446
42
-0.41421356605737059
10
208.18324690167091
20
-69.573034840715295
10
222.18324690167097
20
-69.573035465072593
42
-0.4142135591205709
10
223.68324681701273
20
-71.073035533073579
10
223.68324650485522
20
-78.072561794200951
42
-0.4142135586888282
10
222.18324645572255
20
-79.572561726199964
10
208.18324645572247
20
-79.572561084079851
42
-0.41421356562561062
0
LWPOLYLINE
5
150
100
AcDbEntity
8
0
100
AcDbPolyline
90
8
70
1
43
0.0
10
225.73324652261778
20
-78.072561885624665
10
225.73324686874687
20
-71.073035624497308
42
-0.41421355516731806
10
227.23324690167084
20
-69.573035694324304
10
241.23324690167073
20
-69.573036318681588
42
-0.41421356843402113
10
242.73324686874687
20
-71.073036382645427
10
242.73324655658928
20
-78.072562643772798
42
-0.41421356957887384
10
241.23324645572237
20
-79.57256257980896
10
227.23324645572245
20
-79.572561989423264
42
-0.41421355631218248
0
LWPOLYLINE
5
151
100
AcDbEntity
8
0
100
AcDbPolyline
90
8
70
1
43
0.0
10
222.47068767230587
20
-50.523028372821976
10
236.4706876723057
20
-50.523029000110839
42
-0.41421356843401247
10
237.97068763938185
20
-52.023029064074677
10
237.97068732720518
20
-59.022985127805534
42
-0.41421356957887906
10
236.47068722633827
20
-60.522985063841723
10
222.47068722633838
20
-60.52298443948446
42
-0.41421355631217416
10
220.9706873272053
20
-59.022984369657422
10
220.97068763645038
20
-52.023028305926545
42
-0.41421355516731628
0
LWPOLYLINE
5
152
100
AcDbEntity
8
0
100
AcDbPolyline
90
8
70
1
43
0.0
10
256.6894965217831
20
-78.069174080263508
10
256.68949680606778
20
-71.073037005051575
42
-0.41421356721367653
10
258.18949690068496
20
-69.573037074878584
10
272.1894969006849
20
-69.573037699235854
42
-0.41421355638764817
10
273.68949680606767
20
-71.073037763199693
10
273.68949649406125
20
-78.069174838411641
42
-0.41421355753251521
10
272.1894964548876
20
-79.569174774447802
10
258.18949645488772
20
-79.569174122368807
42
-0.41421356835853529
0
LWPOLYLINE
5
153
100
AcDbEntity
8
0
100
AcDbPolyline
90
8
70
1
43
0.0
10
29.302052456317863
20
-98.622998439134918
10
15.302052456317947
20
-98.622997817709233
42
-0.41421356029822815
10
13.802052536771045
20
-97.122997747882195
10
13.802052848949685
20
-90.122997747882295
42
-0.41421355915335062
10
15.302052902287372
20
-88.62299781770929
10
29.302052902287361
20
-88.622998442066574
42
-0.41421356444797447
10
30.802052848949664
20
-90.122998506030399
10
30.802052533839436
20
-97.122998506030328
42
-0.41421356559283867
0
LWPOLYLINE
5
154
100
AcDbEntity
8
0
100
AcDbPolyline
90
20
70
1
43
0.0
10
165.0332464557226
20
-79.572559178589927
10
131.98324645572256
20
-79.572557703555248
42
-0.4142135656256018
10
130.48324650485529
20
-78.072557637765399
10
130.48324681701277
20
-71.073031375532423
42
-0.41421356237309681
10
131.98324688390818
20
-69.573031442427848
10
138.22068641903445
20
-69.573031720598607
42
0.41421356237309503
10
139.72068648592989
20
-68.073031787494045
10
139.72068675574369
20
-62.0229807450498
42
0.41421356237308637
10
138.2206868226391
20
-60.522980678154369
10
127.22068722633853
20
-60.522980187587969
42
-0.4142135656256174
10
125.72068727547116
20
-59.022980121798113
10
125.72068758764786
20
-52.023024058067257
42
-0.41421356605736881
10
127.22068767230607
20
-50.523024123857105
10
160.270687672306
20
-50.523025597786251
42
-0.41421355912057611
10
161.77068758764779
20
-52.02302566578723
10
161.77068687186647
20
-68.073032770856742
42
0.41421356237309853
10
163.27068680497098
20
-69.57303283775218
10
165.03324690167102
20
-69.573032916356993
42
-0.4142135591205709
10
166.53324681701278
20
-71.07303298435798
10
166.53324650596085
20
-78.07255924548538
42
-0.41421355868882476
0
LWPOLYLINE
5
155
100
AcDbEntity
8
0
100
AcDbPolyline
90
64
70
1
43
0.0
10
25.734470683085448
20
-86.573012491533788
10
10.539496143640292
20
-86.573011813884307
42
-0.41421356562561606
10
9.0394961927729138
20
-85.073011748094473
10
9.0394963889228421
20
-81.073025960617343
42
0.41421355912057578
10
7.5394964558182478
20
-79.573025892616357
10
3.1314176239725864
20
-79.573025696029504
42
0.41421357542677123
10
1.6314175570771636
20
-81.073025695986146
10
1.631417555821584
20
-104.43132012179623
42
0.41421356238156776
10
3.1314175564018387
20
-105.9313201218396
10
46.270804239599798
20
-105.93132012183943
42
-0.41421356237309681
10
47.770804239599805
20
-107.43132012183943
10
47.770804239599812
20
-118.63018923457642
42
0.41421356237310197
10
49.270804239599826
20
-120.13018923457649
10
52.783065890708933
20
-120.13018923457619
42
0.41421356237310375
10
54.283065890708997
20
-118.63018923457642
10
54.28306589070894
20
-108.43795301490442
42
-0.41421356237310025
10
55.78306589070894
20
-106.93795301490438
10
69.782815989637911
20
-106.93795301490437
42
-0.41421356237309503
10
71.282815989637925
20
-108.43795301490434
10
71.282815989637925
20
-121.75641492324098
42
0.41421356237634854
10
72.782815989654623
20
-123.25641492324101
10
133.74556576804801
20
-123.25641492778325
42
0.41421355074493937
10
135.2455657680313
20
-121.75641498209792
10
135.24556626746681
20
-109.17295315008774
42
-0.41421356237309503
10
136.74556632700157
20
-107.67295320962249
10
150.74581632700148
20
-107.67295376529007
42
-0.41421356237309853
10
152.24581626746675
20
-109.17295382482484
10
152.24581576170638
20
-121.91577236943958
42
0.41421357400123693
10
153.74581576172307
20
-123.41577242897435
10
214.70828649580955
20
-123.41577242829645
42
0.41421356236985196
10
216.20828649579289
20
-121.91577242829641
10
216.20828649579281
20
-107.51830146725403
42
-0.41421356237309503
10
217.70828649579278
20
-106.01830146725403
10
231.70827759787113
20
-106.01830146725405
42
-0.41421356237309503
10
233.2082775978711
20
-107.51830146725403
10
233.2082775978711
20
-118.63026898547814
42
0.41421356237312279
10
234.7082775978711
20
-120.13026898547812
10
238.52077648510163
20
-120.13026898547812
42
0.41421356237311241
10
240.02077648510163
20
-118.63026898547812
10
240.02077648510166
20
-105.65343049547629
42
-0.41421356237309853
10
241.52077648510169
20
-104.15343049547627
10
283.15267589061898
20
-104.15343049547621
42
0.41421446475096674
10
284.65267589061182
20
-102.65342587411155
10
284.65266809443978
20
-100.12294863393439
42
0.41421264837090782
10
283.15266815398155
20
-98.62295325529908
10
270.09581593010313
20
-98.622952737074812
42
-0.41421356237309503
10
268.59581598963791
20
-97.122952677540084
10
268.59581626746672
20
-90.122952677540056
42
-0.41421356237309159
10
270.09581632700144
20
-88.622952737074812
10
283.15262798308515
20
-88.622953255297503
42
0.41421447637585213
10
284.65262804261278
20
-87.122948633932836
10
284.65249201892215
20
-42.972453863362801
42
0.414212659994462
10
283.15249201893607
20
-41.472458484727483
10
3.1314283885334859
20
-41.472458483483578
42
0.41421356236595114
10
1.6314283885267167
20
-42.972458483421022
10
1.6314283872203927
20
-68.073025695986601
42
0.41421354931941778
10
3.131428320905564
20
-69.573025696029987
10
19.776996901808936
20
-69.573026438371542
42
-0.4142135591205709
10
21.276996817150721
20
-71.073026506372543
10
21.276996700028977
20
-73.699254214806714
42
0.41421357543523801
10
22.776996700028977
20
-75.199254281702139
10
25.734470749980837
20
-75.199254281702125
42
-0.41421356237309503
10
27.234470749980837
20
-76.699254281702139
10
27.234470749980872
20
-85.073012491533831
42
-0.41421357543523718
0
LWPOLYLINE
5
156
100
AcDbEntity
8
0
100
AcDbPolyline
90
8
70
1
43
0.0
10
255.92995107654576
20
-60.519954909116038
10
241.53785197953044
20
-60.519954267272311
42
-0.41421356237309503
10
240.03785204642588
20
-59.019954200376894
10
240.03785235860454
20
-52.01995420037693
42
-0.41421356237309681
10
241.53785242549998
20
-50.519954267272347
10
255.9299515225153
20
-50.519954909116066
42
-0.41421356237309337
10
257.42995145561986
20
-52.019954976011469
10
257.4299511434412
20
-59.019954976011476
42
-0.41421356237309681
0
LWPOLYLINE
5
157
100
AcDbEntity
8
0
100
AcDbPolyline
90
8
70
1
43
0.0
10
263.83318730289307
20
-59.022555705104203
10
263.83318761505052
20
-52.02303021746323
42
-0.41421356050199143
10
265.33318767171073
20
-50.52303028370595
10
279.33318767171079
20
-50.523030908063234
42
-0.41421356449908708
10
280.83318761505052
20
-52.023030975611348
10
280.83318730289307
20
-59.022556463905048
42
-0.41421356424419864
10
279.3331872257624
20
-60.522556396356919
10
265.33318723599763
20
-60.52255577199962
42
-0.41421356237309503
0
ENDSEC
0
SECTION
2
OBJECTS
0
DICTIONARY
5
C
100
AcDbDictionary
3
ACAD_GROUP
350
D
3
ACAD_MLINESTYLE
350
17
0
DICTIONARY
5
D
100
AcDbDictionary
0
DICTIONARY
5
1A
330
C
100
AcDbDictionary
0
DICTIONARY
5
17
100
AcDbDictionary
0
ENDSEC
0
EOF
