0
SECTION
2
HEADER
9
$INSUNITS
70
4
9
$ACADVER
1
AC1014
9
$HANDSEED
5
FFFF
0
ENDSEC
0
SECTION
2
TABLES
0
TABLE
2
VPORT
5
8
100
AcDbSymbolTable
0
ENDTAB
0
TABLE
2
LTYPE
5
5
100
AcDbSymbolTable
0
LTYPE
5
14
100
AcDbSymbolTableRecord
100
AcDbLinetypeTableRecord
2
BYBLOCK
70
0
0
LTYPE
5
15
100
AcDbSymbolTableRecord
100
AcDbLinetypeTableRecord
2
BYLAYER
70
0
0
LTYPE
5
16
100
AcDbSymbolTableRecord
100
AcDbLinetypeTableRecord
2
DASHED
70
0
3
Dashed __ __ __ __ __ __ __ __ __ __ __ __ __ _
72
65
73
2
40
0.75
49
0.5
74
0
49
-0.25
74
0
0
ENDTAB
0
TABLE
2
LAYER
5
2
100
AcDbSymbolTable
70
2
0
LAYER
5
50
100
AcDbSymbolTableRecord
100
AcDbLayerTableRecord
2
0
70
0
62
7
6
CONTINUOUS
0
ENDTAB
0
TABLE
2
STYLE
5
3
100
AcDbSymbolTable
70
1
0
STYLE
5
11
100
AcDbSymbolTableRecord
100
AcDbTextStyleTableRecord
2
STANDARD
70
0
0
ENDTAB
0
TABLE
2
VIEW
5
6
100
AcDbSymbolTable
70
0
0
ENDTAB
0
TABLE
2
UCS
5
7
100
AcDbSymbolTable
70
0
0
ENDTAB
0
TABLE
2
APPID
5
9
100
AcDbSymbolTable
70
2
0
APPID
5
12
100
AcDbSymbolTableRecord
100
AcDbRegAppTableRecord
2
ACAD
70
0
0
ENDTAB
0
TABLE
2
DIMSTYLE
5
A
100
AcDbSymbolTable
70
1
0
ENDTAB
0
TABLE
2
BLOCK_RECORD
5
1
100
AcDbSymbolTable
70
1
0
BLOCK_RECORD
5
1F
100
AcDbSymbolTableRecord
100
AcDbBlockTableRecord
2
*MODEL_SPACE
0
BLOCK_RECORD
5
1B
100
AcDbSymbolTableRecord
100
AcDbBlockTableRecord
2
*PAPER_SPACE
0
ENDTAB
0
ENDSEC
0
SECTION
2
BLOCKS
0
BLOCK
5
20
100
AcDbEntity
100
AcDbBlockBegin
2
*MODEL_SPACE
0
ENDBLK
5
21
100
AcDbEntity
100
AcDbBlockEnd
0
BLOCK
5
1C
100
AcDbEntity
100
AcDbBlockBegin
2
*PAPER_SPACE
0
ENDBLK
5
1D
100
AcDbEntity
100
AcDbBlockEnd
0
ENDSEC
0
SECTION
2
ENTITIES
0
CIRCLE
5
100
100
AcDbEntity
8
0
100
AcDbCircle
10
181.20549569546279
20
-115.13616834025433
30
-1.2871648191747909e-13
40
3.9999999999999862
210
-1.4732334148990281e-31
220
-1.1102230246251565e-15
230
1
0
LWPOLYLINE
5
101
100
AcDbEntity
8
0
100
AcDbPolyline
90
8
70
1
43
0.0
10
265.31935027849079
20
-65.498339267311167
10
265.31935027849067
20
-52.598339267311189
42
-0.41421356237309975
10
265.86935027849063
20
-52.048339267311185
10
278.76935027849061
20
-52.048339267311057
42
-0.41421356237309503
10
279.31935027849062
20
-52.598339267311054
10
279.31935027849073
20
-65.498339267311039
42
-0.41421356237309503
10
278.76935027849078
20
-66.048339267311036
10
265.8693502784908
20
-66.04833926731115
42
-0.4142135623730856
0
LWPOLYLINE
5
102
100
AcDbEntity
8
0
100
AcDbPolyline
90
8
70
1
43
0.0
10
255.55924356697
20
-52.598339267311296
10
255.55924356697008
20
-65.498339267311252
42
-0.41421356237309975
10
255.0092435669701
20
-66.048339267311263
10
242.10924356697006
20
-66.048339267311306
42
-0.4142135623730856
10
241.55924356697
20
-65.498339267311295
10
241.55924356697005
20
-52.598339267311296
42
-0.41421356237309037
10
242.10924356697009
20
-52.04833926731127
10
255.00924356696996
20
-52.048339267311263
42
-0.41421356237309503
0
LWPOLYLINE
5
103
100
AcDbEntity
8
0
100
AcDbPolyline
90
128
70
1
43
0.0
10
285.92924356697011
20
-51.74833926731101
42
0.41421356237309132
10
284.52924356697008
20
-50.348339267311026
10
277.62804738662226
20
-50.348339267311076
42
-0.13165249758739569
10
276.92804738662227
20
-50.160774832609292
10
275.41272613835406
20
-49.285903702012902
42
0.13165249758742986
10
274.71272613835401
20
-49.098339267311118
10
260.46298387716121
20
-49.098339267311239
42
0.13165249758740458
10
259.76298387716116
20
-49.28590370201303
10
258.24766262889301
20
-50.160774832609448
42
-0.13165249758740372
10
257.54766262889297
20
-50.348339267311253
10
252.33424356697009
20
-50.34833926731131
42
-0.41421356237309503
10
250.93424356697005
20
-48.948339267311304
10
250.93424356697005
20
-37.968667262619505
42
0.41421356237308299
10
249.53424356697002
20
-36.568667262619485
10
247.43424356697008
20
-36.56866726261952
42
0.41421356237309043
10
246.03424356697008
20
-37.968667262619512
10
246.03424356697005
20
-46.448339267311304
42
-0.41421356237314239
10
245.48424356697006
20
-46.998339267311302
10
232.58424356697009
20
-46.998339267311302
42
-0.41421356237313761
10
232.0342435669701
20
-46.448339267311297
10
232.03424356697008
20
-32.615226035901195
42
0.41421356237308571
10
230.63424356697004
20
-31.215226035901161
10
209.33424356697006
20
-31.21522603590121
42
0.41421356237309043
10
207.93424356697005
20
-32.615226035901202
10
207.93424356697003
20
-46.448339267311269
42
-0.41421356237314239
10
207.38424356697007
20
-46.998339267311266
10
194.48424356697006
20
-46.99833926731128
42
-0.41421356237313761
10
193.93424356697008
20
-46.448339267311276
10
193.93424356697005
20
-37.968667262620016
42
0.41421356237308393
10
192.53424356697002
20
-36.568667262619989
10
190.28424356697008
20
-36.568667262620018
42
0.41421356237308393
10
188.8842435669701
20
-37.968667262620023
10
188.8842435669701
20
-46.448339267311269
42
-0.41421356237313289
10
188.33424356697009
20
-46.998339267311245
10
175.43424356697005
20
-46.998339267311266
42
-0.41421356237313761
10
174.88424356697007
20
-46.448339267311255
10
174.88424356697004
20
-32.615226035901266
42
0.41421356237308482
10
173.48424356697001
20
-31.215226035901239
10
114.08424356697009
20
-31.215226035901331
42
0.41421356237308571
10
112.68424356697008
20
-32.615226035901316
10
112.68424356697005
20
-46.448339267311226
42
-0.4142135623730856
10
112.13424356697006
20
-46.998339267311238
10
99.234243566970065
20
-46.998339267311231
42
-0.41421356237307611
10
98.684243566970082
20
-46.448339267311212
10
98.684243566970054
20
-37.968667262620841
42
0.41421356237308571
10
97.284243566970048
20
-36.568667262620842
10
95.034243566970076
20
-36.568667262620856
42
0.41421356237308571
10
93.634243566970071
20
-37.968667262620855
10
93.634243566970028
20
-46.448339267311212
42
-0.41421356237310453
10
93.084243566970031
20
-46.998339267311231
10
80.184243566970082
20
-46.998339267311202
42
-0.41421356237308082
10
79.634243566970056
20
-46.448339267311226
10
79.634243566970056
20
-32.615226035901351
42
0.4142135623730997
10
78.234243566970051
20
-31.215226035901338
10
37.884243566970035
20
-31.215226035901338
42
0.4142135623730932
10
36.484243566970036
20
-32.61522603590133
10
36.484243566970029
20
-46.448339267311177
42
-0.41421356237309037
10
35.934243566970032
20
-46.998339267311181
10
23.034243566970037
20
-46.998339267311167
42
-0.41421356237308082
10
22.484243566970029
20
-46.448339267311169
10
22.48424356697004
20
-37.968667262621494
42
0.41421356237309503
10
21.084243566970031
20
-36.568667262621503
10
18.834243566970024
20
-36.568667262621524
42
0.41421356237309132
10
17.434243566970032
20
-37.968667262621516
10
17.434243566970032
20
-46.448339267311155
42
-0.4142135623730927
10
16.884243566970031
20
-46.998339267311167
10
3.0387470841744224
20
-46.998339267311167
42
0.41421356237309481
10
1.6387470841744178
20
-48.398339267311158
10
1.638747084174411
20
-85.79833006807624
42
0.41421356237310164
10
3.0387470841744246
20
-87.19833006807626
10
40.678921698837186
20
-87.19833006807589
42
-0.41421356237309764
10
41.678921698837186
20
-88.198330068075876
10
41.678921698837222
20
-107.79833926731121
42
0.41421356237308571
10
43.078921698837185
20
-109.19833926731121
10
45.459243566970031
20
-109.19833926731118
42
-0.41421356237309975
10
46.009243566970042
20
-109.7483392673112
10
46.009243566970028
20
-118.22801127200091
42
0.41421356237308948
10
47.409243566970019
20
-119.62801127200092
10
54.421743566970065
20
-119.62801127200088
42
0.4142135623730932
10
55.821743566970042
20
-118.22801127200087
10
55.821743566970071
20
-109.7483392673112
42
-0.41421356237311396
10
56.371743566970054
20
-109.19833926731117
10
69.271743566970045
20
-109.19833926731117
42
-0.41421356237310453
10
69.821743566970042
20
-109.7483392673112
10
69.821743566970056
20
-123.63468679051557
42
0.41421356237308948
10
71.221743566970048
20
-125.03468679051559
10
81.212743566970119
20
-125.03468679051558
42
0.4142135623730846
10
82.21274356697009
20
-124.03468679051555
10
82.212743566970033
20
-108.34833926731123
42
-0.41421356237310025
10
83.212743566970047
20
-107.3483392673112
10
90.013243566970047
20
-107.3483392673112
42
-0.41421356237309503
10
91.013243566970047
20
-108.3483392673112
10
91.013243566970047
20
-122.64789253374866
42
0.41421356237310025
10
92.013243566970033
20
-123.64789253374867
10
135.78424356697008
20
-123.6478925337483
42
0.41421356237309503
10
136.78424356697008
20
-122.64789253374832
10
136.78424356697005
20
-109.74833926731117
42
-0.4142135623730856
10
137.33424356697009
20
-109.19833926731117
10
150.23424356697004
20
-109.19833926731117
42
-0.4142135623730856
10
150.78424356697005
20
-109.7483392673112
10
150.78424356697005
20
-122.64789253374821
42
0.41421356237309503
10
151.78424356697005
20
-123.64789253374821
10
195.51349356697048
20
-123.64789253374778
42
0.41421356237307422
10
196.51349356697045
20
-122.64789253374779
10
196.51349356697057
20
-107.74833926731128
42
-0.4142135623730856
10
197.06349356697058
20
-107.1983392673113
10
204.81324356697002
20
-107.19833926731135
42
-0.4142135623730846
10
205.31324356697002
20
-107.69833926731135
10
205.3132435669701
20
-124.03468679051596
42
0.41421356237307422
10
206.3132435669701
20
-125.03468679051596
10
216.34674356697002
20
-125.03468679051592
42
0.41421356237309503
10
217.74674356697003
20
-123.63468679051591
10
217.74674356697005
20
-109.7483392673112
42
-0.4142135623730383
10
218.29674356697006
20
-109.19833926731117
10
231.19674356697004
20
-109.19833926731118
42
-0.41421356237312346
10
231.74674356697008
20
-109.74833926731121
10
231.74674356697008
20
-118.22801127199929
42
0.41421356237308021
10
233.14674356697003
20
-119.62801127199926
10
240.15924356697008
20
-119.62801127199926
42
0.41421356237309132
10
241.55924356697005
20
-118.22801127199924
10
241.55924356697005
20
-109.7483392673112
42
-0.41421356237304774
10
242.10924356697006
20
-109.19833926731121
10
255.95385478252007
20
-109.19833926731118
42
0.4142135623730876
10
257.35385478252005
20
-107.79833926731121
10
257.35385478252005
20
-106.49126966905291
42
-0.41421356237310453
10
257.90385478252006
20
-105.9412696690529
10
284.52924356697019
20
-105.94126966905318
42
0.41421356237309132
10
285.92924356697017
20
-104.54126966905318
0
LWPOLYLINE
5
104
100
AcDbEntity
8
0
100
AcDbPolyline
90
8
70
1
43
0.0
10
281.90713449057989
20
-68.298339267311007
10
281.90713449058012
20
-87.052287093341207
42
-0.41421356237309503
10
281.35713449058011
20
-87.602287093341204
10
246.82192169883734
20
-87.602287093341587
42
-0.41421356237309503
10
246.27192169883733
20
-87.05228709334159
10
246.27192169883705
20
-68.298339267311334
42
-0.41421356237310453
10
246.82192169883706
20
-67.748339267311323
10
281.35713449057988
20
-67.748339267311025
42
-0.41421356237309037
0
LWPOLYLINE
5
105
100
AcDbEntity
8
0
100
AcDbPolyline
90
8
70
1
43
0.0
10
8.1967435669700404
20
-65.498339267311152
10
8.1967435669700333
20
-52.598339267311154
42
-0.41421356237308382
10
8.7467435669700357
20
-52.04833926731115
10
21.646743566970038
20
-52.048339267311178
42
-0.41421356237309975
10
22.196743566970035
20
-52.598339267311161
10
22.196743566970039
20
-65.498339267311181
42
-0.41421356237308082
10
21.646743566970041
20
-66.048339267311164
10
8.7467435669700357
20
-66.04833926731115
42
-0.41421356237309803
0
CIRCLE
5
106
100
AcDbEntity
8
0
100
AcDbCircle
10
27.279725801738905
20
-51.871707563472491
30
-5.8217319853781646e-14
40
3.600000000000001
210
3.3105706098632606e-34
220
-1.124100812432971e-15
230
1
0
LWPOLYLINE
5
107
100
AcDbEntity
8
0
100
AcDbPolyline
90
8
70
1
43
0.0
10
32.009243566970049
20
-65.498339267311167
10
32.009243566970028
20
-52.598339267311175
42
-0.41421356237308082
10
32.559243566970032
20
-52.048339267311157
10
45.459243566970045
20
-52.048339267311157
42
-0.41421356237306667
10
46.009243566970042
20
-52.598339267311175
10
46.009243566970056
20
-65.498339267311181
42
-0.4142135623730856
10
45.459243566970066
20
-66.048339267311192
10
32.559243566970039
20
-66.048339267311178
42
-0.41421356237309975
0
LWPOLYLINE
5
108
100
AcDbEntity
8
0
100
AcDbPolyline
90
8
70
1
43
0.0
10
51.059243566970039
20
-65.498339267311195
10
51.059243566970054
20
-52.598339267311175
42
-0.41421356237309503
10
51.609243566970051
20
-52.048339267311178
10
64.509243566970042
20
-52.048339267311192
42
-0.41421356237307611
10
65.059243566970054
20
-52.598339267311189
10
65.059243566970054
20
-65.498339267311195
42
-0.41421356237307144
10
64.509243566970042
20
-66.048339267311192
10
51.609243566970051
20
-66.048339267311192
42
-0.4142135623730856
0
LWPOLYLINE
5
109
100
AcDbEntity
8
0
100
AcDbPolyline
90
8
70
1
43
0.0
10
70.109243566970051
20
-65.498339267311195
10
70.109243566970051
20
-52.598339267311204
42
-0.41421356237309503
10
70.659243566970048
20
-52.048339267311199
10
83.559243566970039
20
-52.048339267311199
42
-0.41421356237306667
10
84.109243566970065
20
-52.598339267311196
10
84.109243566970036
20
-65.498339267311195
42
-0.41421356237309975
10
83.559243566970039
20
-66.048339267311206
10
70.659243566970048
20
-66.048339267311192
42
-0.41421356237307611
0
LWPOLYLINE
5
110
100
AcDbEntity
8
0
100
AcDbPolyline
90
8
70
1
43
0.0
10
89.159243566970048
20
-65.498339267311223
10
89.159243566970048
20
-52.598339267311225
42
-0.41421356237306195
10
89.709243566970031
20
-52.048339267311199
10
102.60924356697004
20
-52.048339267311206
42
-0.41421356237309975
10
103.15924356697005
20
-52.598339267311218
10
103.15924356697003
20
-65.498339267311223
42
-0.4142135623730856
10
102.60924356697005
20
-66.048339267311221
10
89.709243566970045
20
-66.048339267311206
42
-0.41421356237307611
0
LWPOLYLINE
5
111
100
AcDbEntity
8
0
100
AcDbPolyline
90
8
70
1
43
0.0
10
108.20924356697003
20
-65.498339267311223
10
108.20924356697004
20
-52.598339267311246
42
-0.41421356237308082
10
108.75924356697004
20
-52.048339267311235
10
121.65924356697005
20
-52.048339267311228
42
-0.41421356237309975
10
122.20924356697003
20
-52.598339267311218
10
122.20924356697004
20
-65.498339267311238
42
-0.41421356237307611
10
121.65924356697005
20
-66.048339267311235
10
108.75924356697004
20
-66.048339267311235
42
-0.41421356237309037
0
LWPOLYLINE
5
112
100
AcDbEntity
8
0
100
AcDbPolyline
90
8
70
1
43
0.0
10
127.25924356697006
20
-65.498339267311238
10
127.25924356697006
20
-52.598339267311246
42
-0.41421356237307144
10
127.80924356697005
20
-52.048339267311256
10
140.70924356697006
20
-52.048339267311256
42
-0.4142135623730856
10
141.25924356697004
20
-52.598339267311232
10
141.25924356697004
20
-65.498339267311238
42
-0.41421356237305718
10
140.70924356697009
20
-66.048339267311249
10
127.80924356697007
20
-66.048339267311221
42
-0.41421356237307144
0
LWPOLYLINE
5
113
100
AcDbEntity
8
0
100
AcDbPolyline
90
8
70
1
43
0.0
10
146.30924356697003
20
-65.498339267311252
10
146.30924356697003
20
-52.59833926731126
42
-0.41421356237310919
10
146.85924356697004
20
-52.048339267311235
10
159.75924356697004
20
-52.048339267311249
42
-0.41421356237305718
10
160.30924356697003
20
-52.598339267311246
10
160.30924356697003
20
-65.498339267311238
42
-0.41421356237310453
10
159.75924356697004
20
-66.048339267311263
10
146.85924356697004
20
-66.048339267311235
42
-0.41421356237309037
0
LWPOLYLINE
5
114
100
AcDbEntity
8
0
100
AcDbPolyline
90
8
70
1
43
0.0
10
165.35924356697001
20
-65.498339267311252
10
165.35924356697006
20
-52.598339267311246
42
-0.41421356237310919
10
165.90924356697005
20
-52.048339267311221
10
178.80924356697008
20
-52.048339267311263
42
-0.41421356237313289
10
179.35924356697006
20
-52.59833926731126
10
179.35924356697004
20
-65.498339267311252
42
-0.41421356237313761
10
178.80924356697005
20
-66.048339267311249
10
165.90924356697002
20
-66.048339267311249
42
-0.41421356237313289
0
LWPOLYLINE
5
115
100
AcDbEntity
8
0
100
AcDbPolyline
90
8
70
1
43
0.0
10
184.40924356696999
20
-65.498339267311266
10
184.4092435669701
20
-52.59833926731126
42
-0.41421356237311868
10
184.95924356697006
20
-52.048339267311235
10
197.85924356697006
20
-52.048339267311277
42
-0.41421356237312812
10
198.40924356697005
20
-52.598339267311268
10
198.40924356697002
20
-65.498339267311266
42
-0.41421356237313761
10
197.85924356697001
20
-66.048339267311263
10
184.95924356697006
20
-66.048339267311277
42
-0.4142135623730856
0
LWPOLYLINE
5
116
100
AcDbEntity
8
0
100
AcDbPolyline
90
8
70
1
43
0.0
10
203.45924356697
20
-65.49833926731128
10
203.45924356697012
20
-52.59833926731126
42
-0.41421356237311868
10
204.00924356697007
20
-52.048339267311235
10
216.90924356697008
20
-52.048339267311263
42
-0.41421356237313289
10
217.45924356697006
20
-52.59833926731126
10
217.45924356697003
20
-65.498339267311266
42
-0.41421356237313761
10
216.90924356697002
20
-66.048339267311263
10
204.00924356697007
20
-66.048339267311292
42
-0.4142135623730856
0
LWPOLYLINE
5
117
100
AcDbEntity
8
0
100
AcDbPolyline
90
8
70
1
43
0.0
10
117.73424356697006
20
-46.448339267311233
10
117.73424356697006
20
-33.548339267311235
42
-0.4142135623730856
10
118.28424356697005
20
-32.998339267311238
10
131.18424356697005
20
-32.998339267311245
42
-0.41421356237309037
10
131.73424356697006
20
-33.548339267311235
10
131.73424356697006
20
-46.448339267311233
42
-0.41421356237309037
10
131.18424356697008
20
-46.998339267311245
10
118.28424356697006
20
-46.998339267311231
42
-0.41421356237311396
0
LWPOLYLINE
5
118
100
AcDbEntity
8
0
100
AcDbPolyline
90
8
70
1
43
0.0
10
136.78424356697008
20
-46.448339267311248
10
136.78424356697008
20
-33.548339267311249
42
-0.41421356237308321
10
137.33424356697006
20
-32.998339267311245
10
150.23424356697004
20
-32.998339267311245
42
-0.41421356237310453
10
150.78424356697002
20
-33.548339267311242
10
150.78424356697005
20
-46.448339267311241
42
-0.4142135623730856
10
150.23424356697004
20
-46.998339267311252
10
137.33424356697009
20
-46.998339267311231
42
-0.41421356237310453
0
LWPOLYLINE
5
119
100
AcDbEntity
8
0
100
AcDbPolyline
90
8
70
1
43
0.0
10
155.83424356697006
20
-46.448339267311248
10
155.83424356697003
20
-33.548339267311256
42
-0.41421356237309742
10
156.38424356697004
20
-32.998339267311259
10
169.28424356697005
20
-32.998339267311259
42
-0.41421356237313056
10
169.83424356697003
20
-33.548339267311256
10
169.83424356697009
20
-46.448339267311248
42
-0.41421356237314239
10
169.28424356697008
20
-46.998339267311245
10
156.38424356697004
20
-46.998339267311252
42
-0.41421356237311868
0
LWPOLYLINE
5
120
100
AcDbEntity
8
0
100
AcDbPolyline
90
8
70
1
43
0.0
10
212.98424356697009
20
-46.448339267311283
10
212.98424356697006
20
-33.548339267311292
42
-0.41421356237314239
10
213.53424356697005
20
-32.998339267311287
10
226.43424356697005
20
-32.998339267311302
42
-0.41421356237312812
10
226.98424356697004
20
-33.548339267311292
10
226.98424356697006
20
-46.448339267311297
42
-0.41421356237312812
10
226.43424356697008
20
-46.998339267311273
10
213.53424356697008
20
-46.998339267311302
42
-0.41421356237314239
0
LWPOLYLINE
5
121
100
AcDbEntity
8
0
100
AcDbPolyline
90
8
70
1
43
0.0
10
55.534243566970048
20
-33.548339267311192
10
55.534243566970062
20
-46.448339267311184
42
-0.41421356237310919
10
54.984243566970044
20
-46.998339267311195
10
42.084243566970045
20
-46.998339267311174
42
-0.41421356237307611
10
41.534243566970048
20
-46.448339267311177
10
41.534243566970048
20
-33.548339267311185
42
-0.41421356237310214
10
42.084243566970045
20
-32.998339267311174
10
54.984243566970051
20
-32.998339267311195
42
-0.4142135623730856
0
LWPOLYLINE
5
122
100
AcDbEntity
8
0
100
AcDbPolyline
90
8
70
1
43
0.0
10
74.584243566970045
20
-33.548339267311192
10
74.584243566970045
20
-46.448339267311205
42
-0.41421356237307611
10
74.034243566970048
20
-46.998339267311202
10
61.134243566970056
20
-46.998339267311174
42
-0.41421356237307611
10
60.584243566970059
20
-46.448339267311177
10
60.584243566970059
20
-33.548339267311192
42
-0.41421356237310214
10
61.134243566970056
20
-32.998339267311188
10
74.034243566970034
20
-32.998339267311195
42
-0.41421356237307849
0
CIRCLE
5
123
100
AcDbEntity
8
0
100
AcDbCircle
10
237.84361856697004
20
-90.348339267311317
30
-9.9850683277225016e-14
40
3.5999999999999943
210
-1.9383094778123357e-33
220
-1.1102230246251565e-15
230
1
0
LWPOLYLINE
5
124
100
AcDbEntity
8
0
100
AcDbPolyline
90
8
70
1
43
0.0
10
46.296743566970051
20
-103.59833926731122
42
0.41421356237307611
10
46.846743566970048
20
-104.14833926731121
10
59.746743566970046
20
-104.14833926731121
42
0.4142135623730856
10
60.296743566970044
20
-103.5983392673112
10
60.296743566970044
20
-90.698339267311212
42
0.4142135623730856
10
59.746743566970046
20
-90.148339267311201
10
46.846743566970055
20
-90.148339267311215
42
0.41421356237309503
10
46.296743566970051
20
-90.698339267311212
0
LWPOLYLINE
5
125
100
AcDbEntity
8
0
100
AcDbPolyline
90
8
70
1
43
0.0
10
244.49049356697006
20
-90.148339267311172
10
257.39049356697006
20
-90.148339267311201
42
-0.41421356237309503
10
257.94049356697008
20
-90.698339267311198
10
257.94049356697002
20
-103.59833926731119
42
-0.41421356237311396
10
257.39049356697006
20
-104.1483392673112
10
244.49049356697009
20
-104.1483392673112
42
-0.41421356237312346
10
243.94049356697008
20
-103.59833926731119
10
243.94049356697008
20
-90.698339267311184
42
-0.41421356237309503
0
LWPOLYLINE
5
126
100
AcDbEntity
8
0
100
AcDbPolyline
90
8
70
1
43
0.0
10
270.68424356697005
20
-90.148339267311201
10
283.58424356697003
20
-90.148339267311158
42
-0.4142135623730856
10
284.1342435669701
20
-90.698339267311184
10
284.1342435669701
20
-103.59833926731116
42
-0.41421356237301937
10
283.58424356697009
20
-104.14833926731117
10
270.68424356697005
20
-104.1483392673112
42
-0.41421356237311396
10
270.13424356697004
20
-103.5983392673112
10
270.13424356697004
20
-90.698339267311198
42
-0.41421356237309503
0
LWPOLYLINE
5
127
100
AcDbEntity
8
0
100
AcDbPolyline
90
8
70
1
43
0.0
10
94.471743566970034
20
-71.098339267311218
10
107.37174356697004
20
-71.098339267311246
42
-0.41421356237309975
10
107.92174356697006
20
-71.648339267311229
10
107.92174356697005
20
-84.548339267311206
42
-0.41421356237311396
10
107.37174356697004
20
-85.098339267311218
10
94.471743566970034
20
-85.098339267311204
42
-0.41421356237307611
10
93.921743566970036
20
-84.548339267311206
10
93.921743566970065
20
-71.648339267311229
42
-0.41421356237310453
0
LWPOLYLINE
5
128
100
AcDbEntity
8
0
100
AcDbPolyline
90
8
70
1
43
0.0
10
193.09674356697005
20
-104.14833926731129
42
0.41421356237313289
10
193.64674356697009
20
-103.59833926731127
10
193.64674356697003
20
-90.698339267311283
42
0.41421356237305718
10
193.09674356697002
20
-90.148339267311286
10
180.19674356697004
20
-90.148339267311286
42
0.41421356237314239
10
179.64674356697003
20
-90.698339267311283
10
179.64674356697006
20
-103.59833926731127
42
0.41421356237309503
10
180.19674356697007
20
-104.14833926731131
0
LWPOLYLINE
5
129
100
AcDbEntity
8
0
100
AcDbPolyline
90
8
70
1
43
0.0
10
103.99674356697005
20
-90.148339267311229
42
0.4142135623730856
10
103.44674356697004
20
-90.698339267311226
10
103.44674356697006
20
-103.59833926731122
42
0.4142135623730856
10
103.99674356697005
20
-104.14833926731121
10
116.89674356697004
20
-104.14833926731126
42
0.41421356237309503
10
117.44674356697004
20
-103.59833926731125
10
117.44674356697006
20
-90.698339267311269
42
0.41421356237302881
10
116.89674356697004
20
-90.148339267311229
0
LWPOLYLINE
5
130
100
AcDbEntity
8
0
100
AcDbPolyline
90
8
70
1
43
0.0
10
227.82174356697001
20
-71.098339267311303
42
0.41421356237313761
10
227.27174356697006
20
-71.648339267311286
10
227.27174356697003
20
-84.548339267311292
42
0.41421356237309503
10
227.82174356697001
20
-85.098339267311317
10
240.72174356697005
20
-85.098339267311346
42
0.41421356237314239
10
241.27174356697009
20
-84.54833926731132
10
241.27174356697003
20
-71.648339267311286
42
0.41421356237301465
10
240.72174356697008
20
-71.098339267311317
0
LWPOLYLINE
5
131
100
AcDbEntity
8
0
100
AcDbPolyline
90
8
70
1
43
0.0
10
218.29674356697001
20
-90.148339267311314
42
0.41421356237314239
10
217.74674356697005
20
-90.698339267311326
10
217.74674356697005
20
-103.5983392673113
42
0.41421356237305718
10
218.29674356697006
20
-104.14833926731133
10
231.19674356697007
20
-104.14833926731133
42
0.41421356237314239
10
231.74674356697011
20
-103.59833926731129
10
231.74674356697005
20
-90.698339267311326
42
0.41421356237311396
10
231.19674356697007
20
-90.148339267311286
0
LWPOLYLINE
5
132
100
AcDbEntity
8
0
100
AcDbPolyline
90
8
70
1
43
0.0
10
69.271743566970045
20
-85.098339267311204
42
0.41421356237307611
10
69.821743566970042
20
-84.548339267311206
10
69.821743566970042
20
-71.648339267311187
42
0.41421356237307611
10
69.271743566970059
20
-71.098339267311218
10
56.371743566970061
20
-71.098339267311161
42
0.41421356237310453
10
55.821743566970063
20
-71.648339267311187
10
55.821743566970056
20
-84.548339267311206
42
0.41421356237307611
10
56.371743566970054
20
-85.098339267311189
0
LWPOLYLINE
5
133
100
AcDbEntity
8
0
100
AcDbPolyline
90
8
70
1
43
0.0
10
24.027993566970054
20
-85.098339267311189
42
0.41421356237308793
10
24.577993566970036
20
-84.548339267311192
10
24.57799356697004
20
-71.648339267311158
42
0.41421356237308793
10
24.027993566970032
20
-71.098339267311189
10
6.3654935669700379
20
-71.098339267311161
42
0.41421356237312101
10
5.8154935669700354
20
-71.648339267311187
10
5.8154935669700389
20
-84.548339267311192
42
0.41421356237308737
10
6.3654935669700352
20
-85.098339267311189
0
LWPOLYLINE
5
134
100
AcDbEntity
8
0
100
AcDbPolyline
90
8
70
1
43
0.0
10
79.346743566970048
20
-90.698339267311226
42
0.41421356237307611
10
78.796743566970051
20
-90.148339267311229
10
65.896743566970045
20
-90.148339267311215
42
0.41421356237314239
10
65.346743566970048
20
-90.698339267311226
10
65.346743566970048
20
-103.59833926731122
42
0.41421356237307611
10
65.896743566970045
20
-104.1483392673112
10
78.796743566970051
20
-104.14833926731121
42
0.41421356237306667
10
79.346743566970048
20
-103.59833926731125
0
LWPOLYLINE
5
135
100
AcDbEntity
8
0
100
AcDbPolyline
90
8
70
1
43
0.0
10
126.42174356697004
20
-85.098339267311246
42
0.41421356237307611
10
126.97174356697003
20
-84.548339267311249
10
126.97174356697005
20
-71.648339267311243
42
0.41421356237309037
10
126.42174356697005
20
-71.098339267311246
10
113.52174356697003
20
-71.098339267311232
42
0.41421356237313761
10
112.97174356697005
20
-71.648339267311229
10
112.97174356697001
20
-84.548339267311249
42
0.4142135623730856
10
113.52174356697003
20
-85.098339267311218
0
LWPOLYLINE
5
136
100
AcDbEntity
8
0
100
AcDbPolyline
90
8
70
1
43
0.0
10
75.421743566970065
20
-71.098339267311204
42
0.41421356237310919
10
74.871743566970054
20
-71.648339267311187
10
74.871743566970054
20
-84.548339267311206
42
0.41421356237307611
10
75.421743566970051
20
-85.098339267311218
10
88.321743566969985
20
-85.098339267311204
42
0.4142135623730856
10
88.871743566970011
20
-84.548339267311206
10
88.871743566970025
20
-71.648339267311215
42
0.4142135623730856
10
88.321743566970028
20
-71.098339267311232
0
LWPOLYLINE
5
137
100
AcDbEntity
8
0
100
AcDbPolyline
90
8
70
1
43
0.0
10
132.57174356697004
20
-71.098339267311246
42
0.4142135623730856
10
132.02174356697003
20
-71.648339267311243
10
132.02174356697003
20
-84.548339267311249
42
0.41421356237307611
10
132.57174356697001
20
-85.098339267311218
10
145.47174356697002
20
-85.098339267311218
42
0.4142135623730856
10
146.02174356697003
20
-84.548339267311263
10
146.02174356697006
20
-71.648339267311258
42
0.41421356237310453
10
145.47174356697005
20
-71.09833926731126
0
LWPOLYLINE
5
138
100
AcDbEntity
8
0
100
AcDbPolyline
90
8
70
1
43
0.0
10
97.846743566970048
20
-104.1483392673112
42
0.4142135623730856
10
98.396743566970045
20
-103.59833926731122
10
98.396743566970059
20
-90.698339267311241
42
0.4142135623730856
10
97.846743566970048
20
-90.148339267311229
10
84.946743566970028
20
-90.148339267311258
42
0.41421356237309503
10
84.396743566970045
20
-90.698339267311241
10
84.396743566970045
20
-103.59833926731122
42
0.4142135623730856
10
84.946743566970042
20
-104.1483392673112
0
LWPOLYLINE
5
139
100
AcDbEntity
8
0
100
AcDbPolyline
90
8
70
1
43
0.0
10
151.62174356697003
20
-71.098339267311246
42
0.41421356237309037
10
151.07174356697004
20
-71.648339267311243
10
151.07174356697004
20
-84.548339267311249
42
0.41421356237307611
10
151.62174356697003
20
-85.098339267311275
10
164.52174356697
20
-85.098339267311317
42
0.41421356237312346
10
165.07174356697004
20
-84.548339267311277
10
165.07174356697004
20
-71.648339267311243
42
0.4142135623730856
10
164.52174356697003
20
-71.09833926731126
0
LWPOLYLINE
5
140
100
AcDbEntity
8
0
100
AcDbPolyline
90
8
70
1
43
0.0
10
221.67174356697004
20
-85.098339267311331
42
0.41421356237311396
10
222.22174356697002
20
-84.54833926731132
10
222.22174356697002
20
-71.648339267311272
42
0.41421356237301465
10
221.67174356697006
20
-71.098339267311303
10
208.77174356697003
20
-71.098339267311289
42
0.41421356237314239
10
208.22174356697005
20
-71.648339267311286
10
208.22174356697005
20
-84.548339267311292
42
0.41421356237305718
10
208.77174356697003
20
-85.098339267311303
0
LWPOLYLINE
5
141
100
AcDbEntity
8
0
100
AcDbPolyline
90
8
70
1
43
0.0
10
37.321743566970042
20
-71.098339267311161
42
0.41421356237310686
10
36.771743566970038
20
-71.648339267311172
10
36.771743566970045
20
-84.548339267311206
42
0.41421356237307849
10
37.321743566970042
20
-85.098339267311189
10
50.221743566970048
20
-85.098339267311204
42
0.4142135623730856
10
50.771743566970045
20
-84.548339267311192
10
50.771743566970059
20
-71.648339267311172
42
0.41421356237307611
10
50.221743566970062
20
-71.098339267311175
0
LWPOLYLINE
5
142
100
AcDbEntity
8
0
100
AcDbPolyline
90
8
70
1
43
0.0
10
161.14674356697006
20
-90.148339267311272
42
0.41421356237309503
10
160.59674356697005
20
-90.698339267311269
10
160.59674356697005
20
-103.59833926731127
42
0.41421356237311396
10
161.14674356697009
20
-104.14833926731127
10
174.04674356697004
20
-104.14833926731129
42
0.41421356237312346
10
174.59674356697005
20
-103.59833926731129
10
174.59674356697002
20
-90.698339267311297
42
0.41421356237311396
10
174.04674356697001
20
-90.148339267311258
0
LWPOLYLINE
5
143
100
AcDbEntity
8
0
100
AcDbPolyline
90
8
70
1
43
0.0
10
154.99674356697005
20
-104.14833926731123
42
0.4142135623730856
10
155.54674356697004
20
-103.59833926731126
10
155.54674356697006
20
-90.698339267311269
42
0.41421356237307611
10
154.99674356697005
20
-90.148339267311258
10
142.09674356697002
20
-90.148339267311258
42
0.41421356237310453
10
141.54674356697004
20
-90.698339267311269
10
141.54674356697004
20
-103.59833926731126
42
0.4142135623730856
10
142.09674356697005
20
-104.14833926731126
0
LWPOLYLINE
5
144
100
AcDbEntity
8
0
100
AcDbPolyline
90
8
70
1
43
0.0
10
189.72174356697002
20
-71.098339267311275
42
0.41421356237313289
10
189.17174356697004
20
-71.648339267311258
10
189.17174356697004
20
-84.54833926731132
42
0.41421356237305718
10
189.72174356697002
20
-85.098339267311317
10
202.62174356697003
20
-85.098339267311317
42
0.41421356237312346
10
203.17174356697001
20
-84.54833926731132
10
203.17174356697001
20
-71.648339267311258
42
0.41421356237302881
10
202.62174356697003
20
-71.098339267311289
0
LWPOLYLINE
5
145
100
AcDbEntity
8
0
100
AcDbPolyline
90
8
70
1
43
0.0
10
170.67174356697001
20
-71.09833926731126
42
0.41421356237313761
10
170.12174356697003
20
-71.648339267311258
10
170.12174356697003
20
-84.548339267311292
42
0.41421356237305718
10
170.67174356697001
20
-85.098339267311303
10
183.57174356697001
20
-85.098339267311331
42
0.41421356237312346
10
184.12174356697
20
-84.548339267311292
10
184.12174356697
20
-71.648339267311258
42
0.41421356237303358
10
183.57174356697001
20
-71.098339267311275
0
LWPOLYLINE
5
146
100
AcDbEntity
8
0
100
AcDbPolyline
90
8
70
1
43
0.0
10
212.14674356697006
20
-104.14833926731133
42
0.41421356237313289
10
212.6967435669701
20
-103.5983392673113
10
212.69674356697004
20
-90.698339267311297
42
0.41421356237305718
10
212.14674356697003
20
-90.148339267311286
10
199.24674356697005
20
-90.1483392673113
42
0.41421356237314239
10
198.69674356697004
20
-90.698339267311297
10
198.69674356697007
20
-103.59833926731129
42
0.41421356237309503
10
199.24674356697008
20
-104.14833926731131
0
LWPOLYLINE
5
147
100
AcDbEntity
8
0
100
AcDbPolyline
90
8
70
1
43
0.0
10
123.04674356697005
20
-90.148339267311229
42
0.41421356237315182
10
122.49674356697005
20
-90.698339267311226
10
122.49674356697003
20
-103.59833926731122
42
0.41421356237307611
10
123.04674356697005
20
-104.14833926731123
10
135.94674356697004
20
-104.14833926731123
42
0.41421356237309503
10
136.49674356697003
20
-103.59833926731125
10
136.49674356697008
20
-90.698339267311241
42
0.4142135623730856
10
135.94674356697004
20
-90.148339267311229
0
LWPOLYLINE
5
148
100
AcDbEntity
8
0
100
AcDbPolyline
90
8
70
1
43
0.0
10
222.5092435669701
20
-65.49833926731128
10
222.5092435669701
20
-52.598339267311275
42
-0.41421356237311396
10
223.05924356697008
20
-52.048339267311249
10
235.95924356697009
20
-52.048339267311299
42
-0.41421356237312812
10
236.50924356697007
20
-52.598339267311289
10
236.50924356697004
20
-65.49833926731128
42
-0.41421356237313761
10
235.95924356697003
20
-66.048339267311277
10
223.05924356697008
20
-66.048339267311235
42
-0.41421356237314705
0
ENDSEC
0
SECTION
2
OBJECTS
0
DICTIONARY
5
C
100
AcDbDictionary
3
ACAD_GROUP
350
D
3
ACAD_MLINESTYLE
350
17
0
DICTIONARY
5
D
100
AcDbDictionary
0
DICTIONARY
5
1A
330
C
100
AcDbDictionary
0
DICTIONARY
5
17
100
AcDbDictionary
0
ENDSEC
0
EOF
