0
SECTION
2
HEADER
9
$INSUNITS
70
4
9
$ACADVER
1
AC1014
9
$HANDSEED
5
FFFF
0
ENDSEC
0
SECTION
2
TABLES
0
TABLE
2
VPORT
5
8
100
AcDbSymbolTable
0
ENDTAB
0
TABLE
2
LTYPE
5
5
100
AcDbSymbolTable
0
LTYPE
5
14
100
AcDbSymbolTableRecord
100
AcDbLinetypeTableRecord
2
BYBLOCK
70
0
0
LTYPE
5
15
100
AcDbSymbolTableRecord
100
AcDbLinetypeTableRecord
2
BYLAYER
70
0
0
LTYPE
5
16
100
AcDbSymbolTableRecord
100
AcDbLinetypeTableRecord
2
DASHED
70
0
3
Dashed __ __ __ __ __ __ __ __ __ __ __ __ __ _
72
65
73
2
40
0.75
49
0.5
74
0
49
-0.25
74
0
0
ENDTAB
0
TABLE
2
LAYER
5
2
100
AcDbSymbolTable
70
2
0
LAYER
5
50
100
AcDbSymbolTableRecord
100
AcDbLayerTableRecord
2
0
70
0
62
7
6
CONTINUOUS
0
ENDTAB
0
TABLE
2
STYLE
5
3
100
AcDbSymbolTable
70
1
0
STYLE
5
11
100
AcDbSymbolTableRecord
100
AcDbTextStyleTableRecord
2
STANDARD
70
0
0
ENDTAB
0
TABLE
2
VIEW
5
6
100
AcDbSymbolTable
70
0
0
ENDTAB
0
TABLE
2
UCS
5
7
100
AcDbSymbolTable
70
0
0
ENDTAB
0
TABLE
2
APPID
5
9
100
AcDbSymbolTable
70
2
0
APPID
5
12
100
AcDbSymbolTableRecord
100
AcDbRegAppTableRecord
2
ACAD
70
0
0
ENDTAB
0
TABLE
2
DIMSTYLE
5
A
100
AcDbSymbolTable
70
1
0
ENDTAB
0
TABLE
2
BLOCK_RECORD
5
1
100
AcDbSymbolTable
70
1
0
BLOCK_RECORD
5
1F
100
AcDbSymbolTableRecord
100
AcDbBlockTableRecord
2
*MODEL_SPACE
0
BLOCK_RECORD
5
1B
100
AcDbSymbolTableRecord
100
AcDbBlockTableRecord
2
*PAPER_SPACE
0
ENDTAB
0
ENDSEC
0
SECTION
2
BLOCKS
0
BLOCK
5
20
100
AcDbEntity
100
AcDbBlockBegin
2
*MODEL_SPACE
0
ENDBLK
5
21
100
AcDbEntity
100
AcDbBlockEnd
0
BLOCK
5
1C
100
AcDbEntity
100
AcDbBlockBegin
2
*PAPER_SPACE
0
ENDBLK
5
1D
100
AcDbEntity
100
AcDbBlockEnd
0
ENDSEC
0
SECTION
2
ENTITIES
0
CIRCLE
5
100
100
AcDbEntity
8
0
100
AcDbCircle
10
181.20549569546279
20
-115.13616834040727
30
9.6589403142388619e-14
40
3.9999999999999853
210
-1.282393286112152e-26
220
8.326672684688675e-16
230
1
0
LWPOLYLINE
5
101
100
AcDbEntity
8
0
100
AcDbPolyline
90
8
70
1
43
0.0
10
257.26860348745004
20
-66.610395732618954
10
257.26860348766638
20
-88.557986025163558
42
-0.4142135623730222
10
256.76860348767138
20
-89.057986025168447
10
249.76860347893336
20
-89.057986025237668
42
-0.41421356237313667
10
249.26860347892838
20
-88.55798602524257
10
249.26860347871437
20
-66.81798604991107
42
-0.4142135623730378
10
249.76860347870937
20
-66.317986049906153
10
256.81373398945988
20
-66.317986049836833
42
-0.29369645961774932
0
LWPOLYLINE
5
102
100
AcDbEntity
8
0
100
AcDbPolyline
90
106
70
1
43
0.0
10
38.257078475381206
20
-87.637985894038309
42
0.41421356237309764
10
37.257078475371358
20
-86.637985894048143
10
31.257078475371294
20
-86.637985894107302
42
0.41421356237310025
10
30.257078475381171
20
-87.637985894117179
10
30.257078475544233
20
-104.18134076940908
42
-0.41421369069185482
10
29.257078037446476
20
-105.18134076941882
10
16.381078037378323
20
-105.1813351284715
42
-0.41421343405434163
10
15.381078475476119
20
-104.18133512848146
10
15.381078475308179
20
-87.137985880629969
42
0.41421356237308721
10
14.881078475303253
20
-86.63798588063483
10
3.3984793601339103
20
-86.637985894381956
42
-0.41421357510901191
10
2.3984793601240386
20
-85.637985850908663
10
2.3984816174344288
20
-33.713899063623508
42
-0.41421354544305977
10
3.3984816031049547
20
-32.713899107096786
10
14.51286247498512
20
-32.713898947833712
42
-0.4142135665700859
10
16.51286250364403
20
-34.713898947833606
10
16.512862503644111
20
-36.239862583996889
42
0.41421356244164664
10
17.112862503784577
20
-36.839862583996862
10
22.762861546930282
20
-36.839862582674215
42
0.41421356204533416
10
23.362861545818326
20
-36.23986258417667
10
23.362861547168706
20
-34.713898788970091
42
-0.4142135579168989
10
25.362861516890618
20
-32.713898792359132
10
90.712862474985272
20
-32.713897855929048
42
-0.41421356657010966
10
92.712862503644061
20
-34.713897855929005
10
92.71286250364399
20
-36.239862642732987
42
0.41421356237310802
10
93.312862503643998
20
-36.839862642733017
10
98.962861547453514
20
-36.83986264273301
42
0.41421356237309936
10
99.562861547453537
20
-36.239862642732994
10
99.562861547453494
20
-34.713897700454474
42
-0.41421355817609407
10
101.56286151879458
20
-32.713897700454446
10
185.98424401611834
20
-32.713902475969022
42
-0.41421356657010316
10
187.98424404477711
20
-34.713902475968979
10
187.98424404477703
20
-36.239867262772961
42
0.41421356237309503
10
188.58424404477705
20
-36.839867262772991
10
194.23424308858654
20
-36.839867262772984
42
0.41421356237308854
10
194.8342430885865
20
-36.239867262772975
10
194.8342371033593
20
-34.713902320494448
42
-0.414213558176104
10
196.83424305992756
20
-32.713896335267215
10
243.0587607726855
20
-32.713895672894978
42
-0.41421356657010577
10
245.05876080134439
20
-34.713895672894928
10
245.05876080134442
20
-36.28986264273307
42
0.4142135623730927
10
245.60876080134437
20
-36.839862642733031
10
250.64985349081425
20
-36.839862642732882
42
-0.41421356237021789
10
251.64985349081448
20
-37.839862642723183
10
251.64985349093217
20
-49.798339267477488
42
0.4142135623702099
10
252.19985349093218
20
-50.348339267472078
10
257.54766262887404
20
-50.348339267472035
42
0.1316524975874192
10
258.24766262887408
20
-50.160774832770258
10
260.1879838776768
20
-49.040529837459594
42
0.26794919216296315
10
260.46298387767683
20
-48.564215865928588
10
260.46298389381599
20
-32.437682963315744
42
-0.41421356239134788
10
261.46298389487913
20
-31.437682964316526
10
273.71272615711058
20
-31.437682977339534
42
-0.41421356237309503
10
274.71272615604749
20
-32.437682978402663
10
274.71272613890289
20
-48.564215865429802
42
0.26794919271598366
10
274.98772613890293
20
-49.040529838095956
10
276.92804738660334
20
-50.160774832770102
42
0.13165249758738853
10
277.62804738660333
20
-50.348339267471871
10
282.91961281885904
20
-50.348339267472191
42
-0.41421356266817344
10
283.91961281885864
20
-51.34833926847935
10
283.91961280478421
20
-65.317986050586967
10
283.91970273955383
20
-90.057986026064697
10
283.91970272530153
20
-102.40345042052738
42
-0.4142135620349528
10
282.91970272530148
20
-103.40345041937294
10
258.00385478299398
20
-103.4034504193727
42
0.4142135623730876
10
256.6038547828457
20
-104.80345041952098
10
256.60385478284547
20
-121.66567758498188
42
-0.41421357854283647
10
255.60385472763843
20
-122.66567758498186
10
242.07801293435267
20
-122.66567683826004
42
-0.41421354620330958
10
240.07801304476683
20
-120.66567683826003
10
240.07801304476681
20
-120.38030163020193
42
0.41421356237310025
10
239.07801304476678
20
-119.38030163020193
10
234.22800779961264
20
-119.38030163020194
42
0.41421356237309503
10
233.22800779961267
20
-120.38030163020194
10
233.2280077996127
20
-120.66578893630081
42
-0.41421357854286506
10
231.22800768919856
20
-122.66578893630083
10
205.91286241006225
20
-122.66578753872666
42
-0.41421354620044021
10
204.91286246526894
20
-121.6657875387362
10
204.91286246512141
20
-106.68797595672508
42
0.41421356237338641
10
203.9128624651114
20
-105.68797595673404
10
197.91286246511137
20
-105.68797595679405
42
0.41421356237280366
10
196.91286246512138
20
-106.68797595680306
10
196.9128624652796
20
-122.66625055037247
42
-0.41421383567912951
10
195.91286153216436
20
-123.66625055038192
10
91.612861531837652
20
-123.66615322646696
42
-0.41421328906711335
10
90.612862464952798
20
-122.66615322647723
10
90.61286246479537
20
-106.68797588984506
42
0.414213562373069
10
89.612862464785451
20
-105.68797588985507
10
83.212743566789129
20
-105.68797588991035
42
0.41421356236984325
10
82.212743566798963
20
-106.68797588992804
10
82.212743566963994
20
-121.50644511877553
42
-0.41421383567913472
10
81.212742633848791
20
-122.50644511878497
10
56.340392986376642
20
-122.50642191001758
42
-0.41421328907000615
10
54.340394852607041
20
-120.50642191001843
10
54.340394852607055
20
-120.38022060979947
42
0.41421356237310281
10
53.340394852607041
20
-119.38022060979996
10
48.490395389804732
20
-119.38022060979948
42
0.41421356237309243
10
47.490395389804746
20
-120.38022060979948
10
47.490395389804718
20
-120.50642680988345
42
-0.4142138356762276
10
45.490393523574362
20
-122.50642680988257
10
32.007077528006185
20
-122.50641422839557
42
-0.41421328936645935
10
31.007078461121385
20
-121.50641422738386
10
31.007078472891951
20
-109.87798586841865
42
-0.4142135620737607
10
32.007078472881275
20
-108.87798586943164
10
37.257078475590561
20
-108.87798586937912
42
0.41421356237310675
10
38.257078475580713
20
-107.87798586936923
0
LWPOLYLINE
5
103
100
AcDbEntity
8
0
100
AcDbPolyline
90
8
70
1
43
0.0
10
280.59460349501478
20
-89.057986038567492
10
273.64460347900138
20
-89.057986038636173
42
-0.41421356237315748
10
273.14460347899637
20
-88.557986038641076
10
273.14460347878241
20
-66.867986049675793
42
-0.4142135623730856
10
273.69460347877697
20
-66.317986049670367
10
280.59460346287426
20
-66.317986049602354
42
-0.41421356194109948
10
281.14460346287962
20
-66.867986048785738
10
281.14460350864363
20
-88.507986024116562
42
-0.41421356280505278
0
CIRCLE
5
104
100
AcDbEntity
8
0
100
AcDbCircle
10
265.20658293267115
20
-78.073091139738636
30
6.4392935428259079e-14
40
1.3749999999999927
210
-6.5742365257656555e-27
220
8.326672684688675e-16
230
1
0
CIRCLE
5
105
100
AcDbEntity
8
0
100
AcDbCircle
10
270.28658293267068
20
-78.073093365275497
30
6.5503158452884236e-14
40
0.85090000000000998
210
6.350460545375399e-27
220
8.326672684688676e-16
230
1
0
LWPOLYLINE
5
106
100
AcDbEntity
8
0
100
AcDbPolyline
90
2
70
1
43
0.0
10
272.35035897005571
20
-39.183638539797123
42
1.480025739801726
10
272.35035827834685
20
-40.762529999017744
42
1.480025739801726
0
LWPOLYLINE
5
107
100
AcDbEntity
8
0
100
AcDbPolyline
90
2
70
1
43
0.0
10
262.8253589700567
20
-39.183634366915598
42
1.4800257398020118
10
262.82535827834772
20
-40.762525826136098
42
1.4800257398020118
0
CIRCLE
5
108
100
AcDbEntity
8
0
100
AcDbCircle
10
272.3503502784381
20
-59.023084269405601
30
4.8849813083506888e-14
40
1.3750000000000284
210
-6.5742365257660243e-27
220
8.3266726846886741e-16
230
1
0
CIRCLE
5
109
100
AcDbEntity
8
0
100
AcDbCircle
10
267.58785862420171
20
-39.973082182966635
30
3.3861802251067274e-14
40
1.9939000000000104
210
-6.5742365257654719e-27
220
8.326672684688675e-16
230
1
0
CIRCLE
5
110
100
AcDbEntity
8
0
100
AcDbCircle
10
277.43035027843757
20
-59.023086494942447
30
4.9960036108132044e-14
40
0.85090000000000998
210
6.350460545375399e-27
220
8.326672684688676e-16
230
1
0
CIRCLE
5
111
100
AcDbEntity
8
0
100
AcDbCircle
10
267.27035027843851
20
-59.023082043868776
30
5.1070259132757201e-14
40
0.85090000000000998
210
6.350460545375399e-27
220
8.326672684688676e-16
230
1
0
CIRCLE
5
112
100
AcDbEntity
8
0
100
AcDbCircle
10
248.53786246137335
20
-116.17297596740181
30
9.4368957093138306e-14
40
1.3749999999999927
210
-6.5742365257656555e-27
220
8.326672684688675e-16
230
1
0
CIRCLE
5
113
100
AcDbEntity
8
0
100
AcDbCircle
10
243.45786246135839
20
-116.17297596455185
30
9.6589403142388619e-14
40
0.85089999999997434
210
8.1795944972835334e-27
220
8.4654505627668196e-16
230
1
0
CIRCLE
5
114
100
AcDbEntity
8
0
100
AcDbCircle
10
27.258343738412883
20
-51.846344236774009
30
4.3853809472693683e-14
40
3.600000000000001
210
2.4724368206562243e-25
220
8.3266726846886908e-16
230
1
0
CIRCLE
5
115
100
AcDbEntity
8
0
100
AcDbCircle
10
252.98286246135837
20
-116.1729759746781
30
9.6589403142388619e-14
40
0.85089999999999211
210
-1.9469560599803886e-27
220
8.326672684688676e-16
230
1
0
CIRCLE
5
116
100
AcDbEntity
8
0
100
AcDbCircle
10
219.6453624612634
20
-116.17297595597006
30
9.8809849191638932e-14
40
0.85090000000000099
210
-1.1171422958190014e-26
220
8.4654505627668196e-16
230
1
0
CIRCLE
5
117
100
AcDbEntity
8
0
100
AcDbCircle
10
148.84286246106137
20
-116.17297591623809
30
9.6589403142388619e-14
40
0.85089999999999988
210
-1.1842427255072764e-26
220
8.326672684688675e-16
230
1
0
CIRCLE
5
118
100
AcDbEntity
8
0
100
AcDbCircle
10
138.68286246103236
20
-116.17297591053607
30
9.8809849191638932e-14
40
0.85090000000000099
210
-1.1171422958190014e-26
220
8.4654505627668196e-16
230
1
0
CIRCLE
5
119
100
AcDbEntity
8
0
100
AcDbCircle
10
67.88036246083027
20
-116.17297587080407
30
9.4368957093138306e-14
40
0.85089999999999211
210
-1.9469560599803886e-27
220
8.326672684688676e-16
230
1
0
CIRCLE
5
120
100
AcDbEntity
8
0
100
AcDbCircle
10
44.067862460762271
20
-116.17297585744109
30
9.8809849191638932e-14
40
0.85089999999999211
210
-1.9469560599803886e-27
220
8.326672684688676e-16
230
1
0
LWPOLYLINE
5
121
100
AcDbEntity
8
0
100
AcDbPolyline
90
2
70
1
43
0.0
10
17.55658304042155
20
-96.333541982467437
42
1.4800600934784127
10
17.556607902418186
20
-97.912419764332668
42
1.4800600934853494
0
CIRCLE
5
122
100
AcDbEntity
8
0
100
AcDbCircle
10
27.399078471449965
20
-97.122985878922762
30
8.1046280797636427e-14
40
0.85089999999999211
210
-1.9469560599803886e-27
220
8.326672684688676e-16
230
1
0
CIRCLE
5
123
100
AcDbEntity
8
0
100
AcDbCircle
10
29.145362471454966
20
-97.122975879902782
30
8.2156503822261584e-14
40
0.85089999999999211
210
-1.9469560599803886e-27
220
8.326672684688676e-16
230
1
0
CIRCLE
5
124
100
AcDbEntity
8
0
100
AcDbCircle
10
39.305362471483967
20
-97.122975885604262
30
8.1046280797636427e-14
40
0.85089999999999211
210
-1.9469560599803886e-27
220
8.326672684688676e-16
230
1
0
CIRCLE
5
125
100
AcDbEntity
8
0
100
AcDbCircle
10
48.19536247150937
20
-97.122975890592983
30
8.2156503822261584e-14
40
0.85089999999999211
210
-1.9469560599803886e-27
220
8.326672684688676e-16
230
1
0
CIRCLE
5
126
100
AcDbEntity
8
0
100
AcDbCircle
10
58.355362471538371
20
-97.122975896294562
30
8.1046280797636427e-14
40
0.85089999999999211
210
-1.9469560599803886e-27
220
8.326672684688676e-16
230
1
0
CIRCLE
5
127
100
AcDbEntity
8
0
100
AcDbCircle
10
67.245362471563766
20
-97.122975901283269
30
8.1046280797636427e-14
40
0.85089999999999211
210
-1.9469560599803886e-27
220
8.326672684688676e-16
230
1
0
CIRCLE
5
128
100
AcDbEntity
8
0
100
AcDbCircle
10
77.405362471592781
20
-97.122975906984763
30
7.9936057773011271e-14
40
0.85090000000000099
210
-1.1171422958190014e-26
220
8.4654505627668196e-16
230
1
0
CIRCLE
5
129
100
AcDbEntity
8
0
100
AcDbCircle
10
86.295362471618077
20
-97.122975911973583
30
8.2156503822261584e-14
40
0.85090000000000099
210
-1.1171422958190014e-26
220
8.4654505627668196e-16
230
1
0
CIRCLE
5
130
100
AcDbEntity
8
0
100
AcDbCircle
10
96.455362471647078
20
-97.122975917675035
30
8.2156503822261584e-14
40
0.85090000000000099
210
-1.1171422958190014e-26
220
8.4654505627668196e-16
230
1
0
CIRCLE
5
131
100
AcDbEntity
8
0
100
AcDbCircle
10
105.34536147167238
20
-97.122975922663869
30
8.1046280797636427e-14
40
0.85090000000000099
210
-1.1171422958190014e-26
220
8.4654505627668196e-16
230
1
0
CIRCLE
5
132
100
AcDbEntity
8
0
100
AcDbCircle
10
115.50536147170138
20
-97.122975928365364
30
7.9936057773011271e-14
40
0.85090000000000099
210
-1.1171422958190014e-26
220
8.4654505627668196e-16
230
1
0
CIRCLE
5
133
100
AcDbEntity
8
0
100
AcDbCircle
10
124.39536347172637
20
-97.122975933354084
30
8.3266726846886741e-14
40
0.85090000000000099
210
-1.1171422958190014e-26
220
8.4654505627668196e-16
230
1
0
CIRCLE
5
134
100
AcDbEntity
8
0
100
AcDbCircle
10
134.55536347175538
20
-97.122975939055536
30
8.1046280797636427e-14
40
0.85090000000000099
210
-1.1171422958190014e-26
220
8.4654505627668196e-16
230
1
0
CIRCLE
5
135
100
AcDbEntity
8
0
100
AcDbCircle
10
143.44536247178138
20
-97.122975944044455
30
8.2156503822261584e-14
40
0.85089999999999988
210
-1.1842427255072764e-26
220
8.326672684688675e-16
230
1
0
CIRCLE
5
136
100
AcDbEntity
8
0
100
AcDbCircle
10
153.60536247181037
20
-97.122975949745864
30
8.2156503822261584e-14
40
0.85089999999999988
210
-1.1842427255072764e-26
220
8.326672684688675e-16
230
1
0
CIRCLE
5
137
100
AcDbEntity
8
0
100
AcDbCircle
10
162.49536247183534
20
-97.122975954734699
30
8.1046280797636427e-14
40
0.85090000000000099
210
-1.1171422958190014e-26
220
8.4654505627668196e-16
230
1
0
CIRCLE
5
138
100
AcDbEntity
8
0
100
AcDbCircle
10
172.65536247186441
20
-97.12297596043615
30
8.1046280797636427e-14
40
0.85090000000000099
210
-1.1171422958190014e-26
220
8.4654505627668196e-16
230
1
0
CIRCLE
5
139
100
AcDbEntity
8
0
100
AcDbCircle
10
181.54536247189037
20
-97.12297596542497
30
8.3266726846886741e-14
40
0.85090000000000099
210
-1.1171422958190014e-26
220
8.4654505627668196e-16
230
1
0
CIRCLE
5
140
100
AcDbEntity
8
0
100
AcDbCircle
10
191.70536247191936
20
-97.122975971126465
30
8.2156503822261584e-14
40
0.85090000000000099
210
-1.1171422958190014e-26
220
8.4654505627668196e-16
230
1
0
CIRCLE
5
141
100
AcDbEntity
8
0
100
AcDbCircle
10
200.59536147194436
20
-97.122975976115185
30
8.2156503822261584e-14
40
0.85090000000000099
210
-1.1171422958190014e-26
220
8.4654505627668196e-16
230
1
0
CIRCLE
5
142
100
AcDbEntity
8
0
100
AcDbCircle
10
210.75536147197337
20
-97.122975981816765
30
8.1046280797636427e-14
40
0.85090000000000099
210
-1.1171422958190014e-26
220
8.4654505627668196e-16
230
1
0
CIRCLE
5
143
100
AcDbEntity
8
0
100
AcDbCircle
10
219.6453624719984
20
-97.122976986805455
30
8.1046280797636427e-14
40
0.85090000000000099
210
-1.1171422958190014e-26
220
8.4654505627668196e-16
230
1
0
CIRCLE
5
144
100
AcDbEntity
8
0
100
AcDbCircle
10
229.80536247202738
20
-97.122976992507063
30
8.1046280797636427e-14
40
0.85090000000000099
210
-1.1171422958190014e-26
220
8.4654505627668196e-16
230
1
0
CIRCLE
5
145
100
AcDbEntity
8
0
100
AcDbCircle
10
245.83911247207337
20
-97.122976001504654
30
8.1046280797636427e-14
40
0.85089999999999211
210
-1.9469560599803886e-27
220
8.326672684688676e-16
230
1
0
CIRCLE
5
146
100
AcDbEntity
8
0
100
AcDbCircle
10
255.99911247210241
20
-97.122976007206162
30
8.1046280797636427e-14
40
0.85089999999999211
210
-1.9469560599803886e-27
220
8.326672684688676e-16
230
1
0
CIRCLE
5
147
100
AcDbEntity
8
0
100
AcDbCircle
10
272.03286247214839
20
-97.122976016203765
30
8.2156503822261584e-14
40
0.85089999999999211
210
-1.9469560599803886e-27
220
8.326672684688676e-16
230
1
0
CIRCLE
5
148
100
AcDbEntity
8
0
100
AcDbCircle
10
282.19286247217735
20
-97.122976021905259
30
8.1046280797636427e-14
40
0.85089999999999211
210
-1.9469560599803886e-27
220
8.326672684688676e-16
230
1
0
CIRCLE
5
149
100
AcDbEntity
8
0
100
AcDbCircle
10
260.12660348284936
20
-78.07298604035806
30
6.5503158452884236e-14
40
0.85089999999999211
210
-1.9469560599803886e-27
220
8.326672684688676e-16
230
1
0
CIRCLE
5
150
100
AcDbEntity
8
0
100
AcDbCircle
10
248.22036248281537
20
-78.072976033676653
30
6.4392935428259079e-14
40
0.85089999999999211
210
-1.9469560599803886e-27
220
8.326672684688676e-16
230
1
0
CIRCLE
5
151
100
AcDbEntity
8
0
100
AcDbCircle
10
258.38036248284436
20
-78.072976039378176
30
6.5503158452884236e-14
40
0.85089999999999211
210
-1.9469560599803886e-27
220
8.326672684688676e-16
230
1
0
CIRCLE
5
152
100
AcDbEntity
8
0
100
AcDbCircle
10
239.33036248279038
20
-78.072975028687864
30
6.4392935428259079e-14
40
0.85089999999999211
210
-1.9469560599803886e-27
220
8.326672684688676e-16
230
1
0
CIRCLE
5
153
100
AcDbEntity
8
0
100
AcDbCircle
10
229.17036248276136
20
-78.07297502298637
30
6.3282712403633923e-14
40
0.85090000000000099
210
-1.1171422958190014e-26
220
8.4654505627668196e-16
230
1
0
CIRCLE
5
154
100
AcDbEntity
8
0
100
AcDbCircle
10
220.28036248273537
20
-78.072975017997564
30
6.5503158452884236e-14
40
0.85090000000000099
210
-1.1171422958190014e-26
220
8.4654505627668196e-16
230
1
0
CIRCLE
5
155
100
AcDbEntity
8
0
100
AcDbCircle
10
210.12036248270641
20
-78.072975012296055
30
6.5503158452884236e-14
40
0.85090000000000099
210
-1.1171422958190014e-26
220
8.4654505627668196e-16
230
1
0
CIRCLE
5
156
100
AcDbEntity
8
0
100
AcDbCircle
10
201.23036248268136
20
-78.072976007307261
30
6.5503158452884236e-14
40
0.85090000000000099
210
-1.1171422958190014e-26
220
8.4654505627668196e-16
230
1
0
CIRCLE
5
157
100
AcDbEntity
8
0
100
AcDbCircle
10
191.0703624826524
20
-78.072976001605767
30
6.5503158452884236e-14
40
0.85090000000000099
210
-1.1171422958190014e-26
220
8.4654505627668196e-16
230
1
0
CIRCLE
5
158
100
AcDbEntity
8
0
100
AcDbCircle
10
182.18036248262737
20
-78.07297599661706
30
6.6613381477509392e-14
40
0.85090000000000099
210
-1.1171422958190014e-26
220
8.4654505627668196e-16
230
1
0
CIRCLE
5
159
100
AcDbEntity
8
0
100
AcDbCircle
10
172.02036248259839
20
-78.072975990915566
30
6.7723604502134549e-14
40
0.85090000000000099
210
-1.1171422958190014e-26
220
8.4654505627668196e-16
230
1
0
CIRCLE
5
160
100
AcDbEntity
8
0
100
AcDbCircle
10
163.13036248257237
20
-78.072975985926774
30
6.4392935428259079e-14
40
0.85090000000000099
210
-1.1171422958190014e-26
220
8.4654505627668196e-16
230
1
0
CIRCLE
5
161
100
AcDbEntity
8
0
100
AcDbCircle
10
152.97036248254338
20
-78.072975980225266
30
6.5503158452884236e-14
40
0.85089999999999988
210
-1.1842427255072764e-26
220
8.326672684688675e-16
230
1
0
CIRCLE
5
162
100
AcDbEntity
8
0
100
AcDbCircle
10
144.08036248251838
20
-78.07297597523646
30
6.7723604502134549e-14
40
0.85089999999999988
210
-1.1842427255072764e-26
220
8.326672684688675e-16
230
1
0
CIRCLE
5
163
100
AcDbEntity
8
0
100
AcDbCircle
10
133.92036248248937
20
-78.07297596953498
30
6.6613381477509392e-14
40
0.85090000000000099
210
-1.1171422958190014e-26
220
8.4654505627668196e-16
230
1
0
CIRCLE
5
164
100
AcDbEntity
8
0
100
AcDbCircle
10
125.03036248246437
20
-78.072974964546162
30
6.4392935428259079e-14
40
0.85090000000000099
210
-1.1171422958190014e-26
220
8.4654505627668196e-16
230
1
0
CIRCLE
5
165
100
AcDbEntity
8
0
100
AcDbCircle
10
114.87036248243538
20
-78.072974958844782
30
6.4392935428259079e-14
40
0.85090000000000099
210
-1.1171422958190014e-26
220
8.4654505627668196e-16
230
1
0
CIRCLE
5
166
100
AcDbEntity
8
0
100
AcDbCircle
10
105.98036148240936
20
-78.072975953855945
30
6.6613381477509392e-14
40
0.85090000000000099
210
-1.1171422958190014e-26
220
8.4654505627668196e-16
230
1
0
CIRCLE
5
167
100
AcDbEntity
8
0
100
AcDbCircle
10
95.820361482380576
20
-78.072975948154465
30
6.7723604502134549e-14
40
0.85090000000000099
210
-1.1171422958190014e-26
220
8.4654505627668196e-16
230
1
0
CIRCLE
5
168
100
AcDbEntity
8
0
100
AcDbCircle
10
86.930362482355164
20
-78.072975943165645
30
6.5503158452884236e-14
40
0.85090000000000099
210
-1.1171422958190014e-26
220
8.4654505627668196e-16
230
1
0
CIRCLE
5
169
100
AcDbEntity
8
0
100
AcDbCircle
10
76.770362482326192
20
-78.072975937464165
30
6.6613381477509392e-14
40
0.85090000000000099
210
-1.1171422958190014e-26
220
8.4654505627668196e-16
230
1
0
CIRCLE
5
170
100
AcDbEntity
8
0
100
AcDbCircle
10
67.880362482300868
20
-78.072975932475345
30
6.4392935428259079e-14
40
0.85089999999999211
210
-1.9469560599803886e-27
220
8.326672684688676e-16
230
1
0
CIRCLE
5
171
100
AcDbEntity
8
0
100
AcDbCircle
10
57.720362482271881
20
-78.072975926773864
30
6.6613381477509392e-14
40
0.85089999999999211
210
-1.9469560599803886e-27
220
8.326672684688676e-16
230
1
0
CIRCLE
5
172
100
AcDbEntity
8
0
100
AcDbCircle
10
48.830362482246478
20
-78.072975921785044
30
6.5503158452884236e-14
40
0.85089999999999211
210
-1.9469560599803886e-27
220
8.326672684688676e-16
230
1
0
CIRCLE
5
173
100
AcDbEntity
8
0
100
AcDbCircle
10
38.670362482217463
20
-78.072975916083664
30
6.6613381477509392e-14
40
0.85089999999999211
210
-1.9469560599803886e-27
220
8.326672684688676e-16
230
1
0
CIRCLE
5
174
100
AcDbEntity
8
0
100
AcDbCircle
10
22.636612482171657
20
-78.072974907085964
30
6.4392935428259079e-14
40
0.85089999999999211
210
-1.9469560599803886e-27
220
8.326672684688676e-16
230
1
0
CIRCLE
5
175
100
AcDbEntity
8
0
100
AcDbCircle
10
7.714112482129087
20
-78.072974898711962
30
6.4392935428259079e-14
40
0.85089999999999211
210
-1.9469560599803886e-27
220
8.326672684688676e-16
230
1
0
CIRCLE
5
176
100
AcDbEntity
8
0
100
AcDbCircle
10
10.095362492871168
20
-59.022975930883952
30
4.9960036108132044e-14
40
0.85089999999999211
210
-1.9469560599803886e-27
220
8.326672684688676e-16
230
1
0
CIRCLE
5
177
100
AcDbEntity
8
0
100
AcDbCircle
10
20.255362492900169
20
-59.022975936585453
30
4.9960036108132044e-14
40
0.85089999999999211
210
-1.9469560599803886e-27
220
8.326672684688676e-16
230
1
0
CIRCLE
5
178
100
AcDbEntity
8
0
100
AcDbCircle
10
33.907862492939167
20
-59.022975944246774
30
4.8849813083506888e-14
40
0.85089999999999211
210
-1.9469560599803886e-27
220
8.326672684688676e-16
230
1
0
CIRCLE
5
179
100
AcDbEntity
8
0
100
AcDbCircle
10
44.067862492968175
20
-59.022975949948247
30
4.8849813083506888e-14
40
0.85089999999999211
210
-1.9469560599803886e-27
220
8.326672684688676e-16
230
1
0
CIRCLE
5
180
100
AcDbEntity
8
0
100
AcDbCircle
10
52.957862492993478
20
-59.022975954937067
30
4.8849813083506888e-14
40
0.85089999999999211
210
-1.9469560599803886e-27
220
8.326672684688676e-16
230
1
0
CIRCLE
5
181
100
AcDbEntity
8
0
100
AcDbCircle
10
63.117862493022578
20
-59.022975960638568
30
4.8849813083506888e-14
40
0.85089999999999211
210
-1.9469560599803886e-27
220
8.326672684688676e-16
230
1
0
CIRCLE
5
182
100
AcDbEntity
8
0
100
AcDbCircle
10
72.007862493047867
20
-59.02297596562736
30
4.9960036108132044e-14
40
0.85089999999999211
210
-1.9469560599803886e-27
220
8.326672684688676e-16
230
1
0
CIRCLE
5
183
100
AcDbEntity
8
0
100
AcDbCircle
10
82.167862493076882
20
-59.022975971328862
30
4.9960036108132044e-14
40
0.85090000000000099
210
-1.1171422958190014e-26
220
8.4654505627668196e-16
230
1
0
CIRCLE
5
184
100
AcDbEntity
8
0
100
AcDbCircle
10
91.057862493102277
20
-59.022975976317653
30
4.9960036108132044e-14
40
0.85090000000000099
210
-1.1171422958190014e-26
220
8.4654505627668196e-16
230
1
0
CIRCLE
5
185
100
AcDbEntity
8
0
100
AcDbCircle
10
101.21786249313138
20
-59.022975982019041
30
4.8849813083506888e-14
40
0.85090000000000099
210
-1.1171422958190014e-26
220
8.4654505627668196e-16
230
1
0
CIRCLE
5
186
100
AcDbEntity
8
0
100
AcDbCircle
10
110.10786249315638
20
-59.022975987007868
30
4.8849813083506888e-14
40
0.85090000000000099
210
-1.1171422958190014e-26
220
8.4654505627668196e-16
230
1
0
CIRCLE
5
187
100
AcDbEntity
8
0
100
AcDbCircle
10
120.26786249318536
20
-59.022975992709362
30
4.9960036108132044e-14
40
0.85090000000000099
210
-1.1171422958190014e-26
220
8.4654505627668196e-16
230
1
0
CIRCLE
5
188
100
AcDbEntity
8
0
100
AcDbCircle
10
129.15786249321138
20
-59.022975997698168
30
4.9960036108132044e-14
40
0.85090000000000099
210
-1.1171422958190014e-26
220
8.4654505627668196e-16
230
1
0
CIRCLE
5
189
100
AcDbEntity
8
0
100
AcDbCircle
10
139.31786249324037
20
-59.02297600339967
30
4.9960036108132044e-14
40
0.85090000000000099
210
-1.1171422958190014e-26
220
8.4654505627668196e-16
230
1
0
CIRCLE
5
190
100
AcDbEntity
8
0
100
AcDbCircle
10
148.20786249326537
20
-59.022976008388468
30
4.8849813083506888e-14
40
0.85089999999999988
210
-1.1842427255072764e-26
220
8.326672684688675e-16
230
1
0
CIRCLE
5
191
100
AcDbEntity
8
0
100
AcDbCircle
10
158.36786249329438
20
-59.022976014089963
30
4.8849813083506888e-14
40
0.85089999999999988
210
-1.1842427255072764e-26
220
8.326672684688675e-16
230
1
0
CIRCLE
5
192
100
AcDbEntity
8
0
100
AcDbCircle
10
167.25786249331941
20
-59.022976019078762
30
4.9960036108132044e-14
40
0.85090000000000099
210
-1.1171422958190014e-26
220
8.4654505627668196e-16
230
1
0
CIRCLE
5
193
100
AcDbEntity
8
0
100
AcDbCircle
10
177.41786249334837
20
-59.022976024780149
30
4.9960036108132044e-14
40
0.85090000000000099
210
-1.1171422958190014e-26
220
8.4654505627668196e-16
230
1
0
CIRCLE
5
194
100
AcDbEntity
8
0
100
AcDbCircle
10
186.30786249337436
20
-59.022976029768948
30
4.9960036108132044e-14
40
0.85090000000000099
210
-1.1171422958190014e-26
220
8.4654505627668196e-16
230
1
0
CIRCLE
5
195
100
AcDbEntity
8
0
100
AcDbCircle
10
196.46786249340337
20
-59.022976035470464
30
4.8849813083506888e-14
40
0.85090000000000099
210
-1.1171422958190014e-26
220
8.4654505627668196e-16
230
1
0
CIRCLE
5
196
100
AcDbEntity
8
0
100
AcDbCircle
10
205.35786249342837
20
-59.02297604045927
30
5.1070259132757201e-14
40
0.85090000000000099
210
-1.1171422958190014e-26
220
8.4654505627668196e-16
230
1
0
CIRCLE
5
197
100
AcDbEntity
8
0
100
AcDbCircle
10
215.51786249345736
20
-59.022976046160771
30
4.9960036108132044e-14
40
0.85090000000000099
210
-1.1171422958190014e-26
220
8.4654505627668196e-16
230
1
0
CIRCLE
5
198
100
AcDbEntity
8
0
100
AcDbCircle
10
224.40786249348338
20
-59.022976051149449
30
4.8849813083506888e-14
40
0.85090000000000099
210
-1.1171422958190014e-26
220
8.4654505627668196e-16
230
1
0
CIRCLE
5
199
100
AcDbEntity
8
0
100
AcDbCircle
10
234.56786249351137
20
-59.02297605685095
30
4.9960036108132044e-14
40
0.85089999999999211
210
-1.9469560599803886e-27
220
8.326672684688676e-16
230
1
0
CIRCLE
5
200
100
AcDbEntity
8
0
100
AcDbCircle
10
243.45786249353736
20
-59.022976061839849
30
4.8849813083506888e-14
40
0.85089999999999211
210
-1.9469560599803886e-27
220
8.326672684688676e-16
230
1
0
CIRCLE
5
201
100
AcDbEntity
8
0
100
AcDbCircle
10
253.61786249356638
20
-59.022976067541244
30
4.9960036108132044e-14
40
0.85089999999999211
210
-1.9469560599803886e-27
220
8.326672684688676e-16
230
1
0
CIRCLE
5
202
100
AcDbEntity
8
0
100
AcDbCircle
10
244.09286250427439
20
-39.97297609303196
30
3.3306690738754696e-14
40
0.85089999999999211
210
-1.9469560599803886e-27
220
8.326672684688676e-16
230
1
0
CIRCLE
5
203
100
AcDbEntity
8
0
100
AcDbCircle
10
233.93286250424538
20
-39.972976087330466
30
3.2751579226442118e-14
40
0.85089999999999211
210
-1.9469560599803886e-27
220
8.326672684688676e-16
230
1
0
CIRCLE
5
204
100
AcDbEntity
8
0
100
AcDbCircle
10
225.04286250422038
20
-39.972976082341674
30
3.219646771412954e-14
40
0.85090000000000099
210
-1.1171422958190014e-26
220
8.4654505627668196e-16
230
1
0
CIRCLE
5
205
100
AcDbEntity
8
0
100
AcDbCircle
10
214.88286250419137
20
-39.972976076640165
30
3.3861802251067274e-14
40
0.85090000000000099
210
-1.1171422958190014e-26
220
8.4654505627668196e-16
230
1
0
CIRCLE
5
206
100
AcDbEntity
8
0
100
AcDbCircle
10
205.99286250416537
20
-39.97297607165136
30
3.3861802251067274e-14
40
0.85090000000000099
210
-1.1171422958190014e-26
220
8.4654505627668196e-16
230
1
0
CIRCLE
5
207
100
AcDbEntity
8
0
100
AcDbCircle
10
195.83286250413636
20
-39.972976065949858
30
3.4416913763379853e-14
40
0.85090000000000099
210
-1.1171422958190014e-26
220
8.4654505627668196e-16
230
1
0
CIRCLE
5
208
100
AcDbEntity
8
0
100
AcDbCircle
10
186.94286350411136
20
-39.972976060961066
30
3.3861802251067274e-14
40
0.85090000000000099
210
-1.1171422958190014e-26
220
8.4654505627668196e-16
230
1
0
CIRCLE
5
209
100
AcDbEntity
8
0
100
AcDbCircle
10
176.78286350408234
20
-39.972976055259664
30
3.3306690738754696e-14
40
0.85090000000000099
210
-1.1171422958190014e-26
220
8.4654505627668196e-16
230
1
0
CIRCLE
5
210
100
AcDbEntity
8
0
100
AcDbCircle
10
167.89286150405638
20
-39.972976050270773
30
3.3861802251067274e-14
40
0.85090000000000099
210
-1.1171422958190014e-26
220
8.4654505627668196e-16
230
1
0
CIRCLE
5
211
100
AcDbEntity
8
0
100
AcDbCircle
10
157.73286150402737
20
-39.972976044569357
30
3.3861802251067274e-14
40
0.85089999999999988
210
-1.1842427255072764e-26
220
8.326672684688675e-16
230
1
0
CIRCLE
5
212
100
AcDbEntity
8
0
100
AcDbCircle
10
148.84286250400237
20
-39.972976039580566
30
3.3306690738754696e-14
40
0.85089999999999988
210
-1.1842427255072764e-26
220
8.326672684688675e-16
230
1
0
CIRCLE
5
213
100
AcDbEntity
8
0
100
AcDbCircle
10
138.68286250397338
20
-39.972976033879064
30
3.3306690738754696e-14
40
0.85090000000000099
210
-1.1171422958190014e-26
220
8.4654505627668196e-16
230
1
0
CIRCLE
5
214
100
AcDbEntity
8
0
100
AcDbCircle
10
129.79286250394838
20
-39.972976028890258
30
3.3861802251067274e-14
40
0.85090000000000099
210
-1.1171422958190014e-26
220
8.4654505627668196e-16
230
1
0
CIRCLE
5
215
100
AcDbEntity
8
0
100
AcDbCircle
10
119.63286250391937
20
-39.97297602318875
30
3.2751579226442118e-14
40
0.85090000000000099
210
-1.1171422958190014e-26
220
8.4654505627668196e-16
230
1
0
CIRCLE
5
216
100
AcDbEntity
8
0
100
AcDbCircle
10
110.74286250389338
20
-39.972976018199965
30
3.3861802251067274e-14
40
0.85090000000000099
210
-1.1171422958190014e-26
220
8.4654505627668196e-16
230
1
0
CIRCLE
5
217
100
AcDbEntity
8
0
100
AcDbCircle
10
100.58286250386476
20
-39.972976012498464
30
3.2751579226442118e-14
40
0.85090000000000099
210
-1.1171422958190014e-26
220
8.4654505627668196e-16
230
1
0
CIRCLE
5
218
100
AcDbEntity
8
0
100
AcDbCircle
10
91.692862503839351
20
-39.972976007509764
30
3.4416913763379853e-14
40
0.85090000000000099
210
-1.1171422958190014e-26
220
8.4654505627668196e-16
230
1
0
CIRCLE
5
219
100
AcDbEntity
8
0
100
AcDbCircle
10
81.532862503810406
20
-39.972976001808256
30
3.3306690738754696e-14
40
0.85090000000000099
210
-1.1171422958190014e-26
220
8.4654505627668196e-16
230
1
0
CIRCLE
5
220
100
AcDbEntity
8
0
100
AcDbCircle
10
72.642863503784966
20
-39.972975996819471
30
3.4416913763379853e-14
40
0.85090000000000099
210
-1.1171422958190014e-26
220
8.4654505627668196e-16
230
1
0
CIRCLE
5
221
100
AcDbEntity
8
0
100
AcDbCircle
10
62.482863503755979
20
-39.97297599111797
30
3.3306690738754696e-14
40
0.85089999999999211
210
-1.9469560599803886e-27
220
8.326672684688676e-16
230
1
0
CIRCLE
5
222
100
AcDbEntity
8
0
100
AcDbCircle
10
53.592861503730674
20
-39.972975986129157
30
3.3306690738754696e-14
40
0.85089999999999211
210
-1.9469560599803886e-27
220
8.326672684688676e-16
230
1
0
CIRCLE
5
223
100
AcDbEntity
8
0
100
AcDbCircle
10
43.43286150370168
20
-39.972975980427655
30
3.3861802251067274e-14
40
0.85089999999999211
210
-1.9469560599803886e-27
220
8.326672684688676e-16
230
1
0
CIRCLE
5
224
100
AcDbEntity
8
0
100
AcDbCircle
10
34.542862503676261
20
-39.972975975438857
30
3.3306690738754696e-14
40
0.85089999999999211
210
-1.9469560599803886e-27
220
8.326672684688676e-16
230
1
0
CIRCLE
5
225
100
AcDbEntity
8
0
100
AcDbCircle
10
24.382862503647264
20
-39.972975969737462
30
3.2751579226442118e-14
40
0.85089999999999211
210
-1.9469560599803886e-27
220
8.326672684688676e-16
230
1
0
CIRCLE
5
226
100
AcDbEntity
8
0
100
AcDbCircle
10
15.492862503621865
20
-39.972975964748656
30
3.2751579226442118e-14
40
0.85089999999999211
210
-1.9469560599803886e-27
220
8.326672684688676e-16
230
1
0
CIRCLE
5
227
100
AcDbEntity
8
0
100
AcDbCircle
10
5.3328625035928567
20
-39.972975959047155
30
3.3306690738754696e-14
40
0.85089999999999211
210
-1.9469560599803886e-27
220
8.326672684688676e-16
230
1
0
CIRCLE
5
228
100
AcDbEntity
8
0
100
AcDbCircle
10
10.412862503607345
20
-39.972975961897873
30
3.2751579226442118e-14
40
1.3749999999999902
210
-9.4190465542338128e-27
220
8.326672684688676e-16
230
1
0
CIRCLE
5
229
100
AcDbEntity
8
0
100
AcDbCircle
10
29.462862503661668
20
-39.972975972588159
30
3.2751579226442118e-14
40
1.3749999999999902
210
-9.4190465542338128e-27
220
8.326672684688676e-16
230
1
0
CIRCLE
5
230
100
AcDbEntity
8
0
100
AcDbCircle
10
48.512861503716074
20
-39.972975983278459
30
3.3306690738754696e-14
40
1.3749999999999902
210
-9.4190465542338128e-27
220
8.326672684688676e-16
230
1
0
CIRCLE
5
231
100
AcDbEntity
8
0
100
AcDbCircle
10
67.562863503770473
20
-39.972975993968667
30
3.3861802251067274e-14
40
1.3749999999999902
210
-9.4190465542338128e-27
220
8.326672684688676e-16
230
1
0
CIRCLE
5
232
100
AcDbEntity
8
0
100
AcDbCircle
10
86.612862503824871
20
-39.972976004658975
30
3.3306690738754696e-14
40
1.3749999999999998
210
-1.4063859564175133e-26
220
8.326672684688675e-16
230
1
0
CIRCLE
5
233
100
AcDbEntity
8
0
100
AcDbCircle
10
105.66286250387935
20
-39.972976015349268
30
3.3306690738754696e-14
40
1.3749999999999998
210
-1.4063859564175133e-26
220
8.326672684688675e-16
230
1
0
CIRCLE
5
234
100
AcDbEntity
8
0
100
AcDbCircle
10
124.71286250393337
20
-39.972976026039568
30
3.3861802251067274e-14
40
1.3749999999999998
210
-1.4063859564175133e-26
220
8.326672684688675e-16
230
1
0
CIRCLE
5
235
100
AcDbEntity
8
0
100
AcDbCircle
10
143.76286250398837
20
-39.972976036729762
30
3.2751579226442118e-14
40
1.3749999999999998
210
-1.4063859564175133e-26
220
8.326672684688675e-16
230
1
0
CIRCLE
5
236
100
AcDbEntity
8
0
100
AcDbCircle
10
162.81286150404236
20
-39.972976047420055
30
3.2751579226442118e-14
40
1.3749999999999998
210
-1.4063859564175133e-26
220
8.326672684688675e-16
230
1
0
CIRCLE
5
237
100
AcDbEntity
8
0
100
AcDbCircle
10
181.86286350409637
20
-39.972976058110362
30
3.3306690738754696e-14
40
1.3749999999999998
210
-1.4063859564175133e-26
220
8.326672684688675e-16
230
1
0
CIRCLE
5
238
100
AcDbEntity
8
0
100
AcDbCircle
10
200.91286250415138
20
-39.972976068800662
30
3.3861802251067274e-14
40
1.3749999999999998
210
-1.4063859564175133e-26
220
8.326672684688675e-16
230
1
0
CIRCLE
5
239
100
AcDbEntity
8
0
100
AcDbCircle
10
219.96286250420536
20
-39.97297607949087
30
3.2751579226442118e-14
40
1.3749999999999998
210
-1.4063859564175133e-26
220
8.326672684688675e-16
230
1
0
CIRCLE
5
240
100
AcDbEntity
8
0
100
AcDbCircle
10
239.01286250425937
20
-39.972976090181163
30
3.3306690738754696e-14
40
1.3749999999999902
210
-9.4190465542338128e-27
220
8.326672684688676e-16
230
1
0
CIRCLE
5
241
100
AcDbEntity
8
0
100
AcDbCircle
10
269.65161248824438
20
-68.547976061121062
30
5.6621374255882984e-14
40
0.85089999999999211
210
-1.9469560599803886e-27
220
8.326672684688676e-16
230
1
0
CIRCLE
5
242
100
AcDbEntity
8
0
100
AcDbCircle
10
248.53786249355136
20
-59.022976064690553
30
4.8849813083506888e-14
40
1.3749999999999902
210
-9.4190465542338128e-27
220
8.326672684688676e-16
230
1
0
CIRCLE
5
243
100
AcDbEntity
8
0
100
AcDbCircle
10
229.48786249349737
20
-59.022976054000267
30
5.1070259132757201e-14
40
1.3749999999999998
210
-1.4063859564175133e-26
220
8.326672684688675e-16
230
1
0
CIRCLE
5
244
100
AcDbEntity
8
0
100
AcDbCircle
10
210.43786249344336
20
-59.022976043310074
30
4.9960036108132044e-14
40
1.3749999999999998
210
-1.4063859564175133e-26
220
8.326672684688675e-16
230
1
0
CIRCLE
5
245
100
AcDbEntity
8
0
100
AcDbCircle
10
191.38786249338838
20
-59.022976032619752
30
4.8849813083506888e-14
40
1.3749999999999998
210
-1.4063859564175133e-26
220
8.326672684688675e-16
230
1
0
CIRCLE
5
246
100
AcDbEntity
8
0
100
AcDbCircle
10
172.33786249333437
20
-59.022976021929452
30
4.9960036108132044e-14
40
1.3749999999999998
210
-1.4063859564175133e-26
220
8.326672684688675e-16
230
1
0
CIRCLE
5
247
100
AcDbEntity
8
0
100
AcDbCircle
10
153.28786249327936
20
-59.022976011239159
30
4.9960036108132044e-14
40
1.3749999999999998
210
-1.4063859564175133e-26
220
8.326672684688675e-16
230
1
0
CIRCLE
5
248
100
AcDbEntity
8
0
100
AcDbCircle
10
134.23786249322538
20
-59.022976000548873
30
4.9960036108132044e-14
40
1.3749999999999998
210
-1.4063859564175133e-26
220
8.326672684688675e-16
230
1
0
CIRCLE
5
249
100
AcDbEntity
8
0
100
AcDbCircle
10
115.18786249317137
20
-59.022975989858651
30
4.9960036108132044e-14
40
1.3749999999999998
210
-1.4063859564175133e-26
220
8.326672684688675e-16
230
1
0
CIRCLE
5
250
100
AcDbEntity
8
0
100
AcDbCircle
10
96.137862493116671
20
-59.022975979168351
30
4.9960036108132044e-14
40
1.3749999999999998
210
-1.4063859564175133e-26
220
8.326672684688675e-16
230
1
0
CIRCLE
5
251
100
AcDbEntity
8
0
100
AcDbCircle
10
77.087862493062374
20
-59.02297596847805
30
4.8849813083506888e-14
40
1.3749999999999998
210
-1.4063859564175133e-26
220
8.326672684688675e-16
230
1
0
CIRCLE
5
252
100
AcDbEntity
8
0
100
AcDbCircle
10
58.037862493007978
20
-59.022975957787764
30
4.9960036108132044e-14
40
1.3749999999999902
210
-9.4190465542338128e-27
220
8.326672684688676e-16
230
1
0
CIRCLE
5
253
100
AcDbEntity
8
0
100
AcDbCircle
10
38.987862492953667
20
-59.022975947097571
30
4.8849813083506888e-14
40
1.3749999999999902
210
-9.4190465542338128e-27
220
8.326672684688676e-16
230
1
0
CIRCLE
5
254
100
AcDbEntity
8
0
100
AcDbCircle
10
15.175362492885665
20
-59.022975933734649
30
4.8849813083506888e-14
40
1.3749999999999902
210
-9.4190465542338128e-27
220
8.326672684688676e-16
230
1
0
CIRCLE
5
255
100
AcDbEntity
8
0
100
AcDbCircle
10
43.750362482231971
20
-78.072975918934361
30
6.3282712403633923e-14
40
1.3749999999999902
210
-9.4190465542338128e-27
220
8.326672684688676e-16
230
1
0
CIRCLE
5
256
100
AcDbEntity
8
0
100
AcDbCircle
10
62.800362482286268
20
-78.072975929624661
30
6.6613381477509392e-14
40
1.3749999999999902
210
-9.4190465542338128e-27
220
8.326672684688676e-16
230
1
0
CIRCLE
5
257
100
AcDbEntity
8
0
100
AcDbCircle
10
81.850362482340671
20
-78.072975940314976
30
6.4392935428259079e-14
40
1.3749999999999998
210
-1.4063859564175133e-26
220
8.326672684688675e-16
230
1
0
CIRCLE
5
258
100
AcDbEntity
8
0
100
AcDbCircle
10
100.90036148239537
20
-78.072975951005162
30
6.5503158452884236e-14
40
1.3749999999999998
210
-1.4063859564175133e-26
220
8.326672684688675e-16
230
1
0
CIRCLE
5
259
100
AcDbEntity
8
0
100
AcDbCircle
10
119.95036248244936
20
-78.072974961695479
30
6.5503158452884236e-14
40
1.3749999999999998
210
-1.4063859564175133e-26
220
8.326672684688675e-16
230
1
0
CIRCLE
5
260
100
AcDbEntity
8
0
100
AcDbCircle
10
139.00036248250336
20
-78.072975972385763
30
6.4392935428259079e-14
40
1.3749999999999998
210
-1.4063859564175133e-26
220
8.326672684688675e-16
230
1
0
CIRCLE
5
261
100
AcDbEntity
8
0
100
AcDbCircle
10
158.05036248255837
20
-78.072975983076077
30
6.4392935428259079e-14
40
1.3749999999999998
210
-1.4063859564175133e-26
220
8.326672684688675e-16
230
1
0
CIRCLE
5
262
100
AcDbEntity
8
0
100
AcDbCircle
10
177.10036248261241
20
-78.072975993766249
30
6.5503158452884236e-14
40
1.3749999999999998
210
-1.4063859564175133e-26
220
8.326672684688675e-16
230
1
0
CIRCLE
5
263
100
AcDbEntity
8
0
100
AcDbCircle
10
196.15036248266736
20
-78.072976004456564
30
6.7723604502134549e-14
40
1.3749999999999998
210
-1.4063859564175133e-26
220
8.326672684688675e-16
230
1
0
CIRCLE
5
264
100
AcDbEntity
8
0
100
AcDbCircle
10
215.20036248272137
20
-78.072975015146852
30
6.5503158452884236e-14
40
1.3749999999999998
210
-1.4063859564175133e-26
220
8.326672684688675e-16
230
1
0
CIRCLE
5
265
100
AcDbEntity
8
0
100
AcDbCircle
10
234.25036248277536
20
-78.072975025837167
30
6.7723604502134549e-14
40
1.3749999999999902
210
-9.4190465542338128e-27
220
8.326672684688676e-16
230
1
0
CIRCLE
5
266
100
AcDbEntity
8
0
100
AcDbCircle
10
277.11286247216236
20
-97.122976019054562
30
7.8825834748386114e-14
40
1.3749999999999902
210
-9.4190465542338128e-27
220
8.326672684688676e-16
230
1
0
CIRCLE
5
267
100
AcDbEntity
8
0
100
AcDbCircle
10
250.91911247208839
20
-97.122976004355351
30
8.2156503822261584e-14
40
1.3749999999999902
210
-9.4190465542338128e-27
220
8.326672684688676e-16
230
1
0
CIRCLE
5
268
100
AcDbEntity
8
0
100
AcDbCircle
10
224.72536247201336
20
-97.122976989656266
30
8.2156503822261584e-14
40
1.3749999999999998
210
-1.4063859564175133e-26
220
8.326672684688675e-16
230
1
0
CIRCLE
5
269
100
AcDbEntity
8
0
100
AcDbCircle
10
205.67536147195838
20
-97.12297597896594
30
8.2156503822261584e-14
40
1.3749999999999998
210
-1.4063859564175133e-26
220
8.326672684688675e-16
230
1
0
CIRCLE
5
270
100
AcDbEntity
8
0
100
AcDbCircle
10
186.6253624719044
20
-97.122975968275668
30
8.2156503822261584e-14
40
1.3749999999999998
210
-1.4063859564175133e-26
220
8.326672684688675e-16
230
1
0
CIRCLE
5
271
100
AcDbEntity
8
0
100
AcDbCircle
10
167.57536247185038
20
-97.122975957585354
30
7.9936057773011271e-14
40
1.3749999999999998
210
-1.4063859564175133e-26
220
8.326672684688675e-16
230
1
0
CIRCLE
5
272
100
AcDbEntity
8
0
100
AcDbCircle
10
148.52536247179538
20
-97.122975946895167
30
7.9936057773011271e-14
40
1.3749999999999998
210
-1.4063859564175133e-26
220
8.326672684688675e-16
230
1
0
CIRCLE
5
273
100
AcDbEntity
8
0
100
AcDbCircle
10
129.47536347174136
20
-97.122975936204853
30
8.1046280797636427e-14
40
1.3749999999999998
210
-1.4063859564175133e-26
220
8.326672684688675e-16
230
1
0
CIRCLE
5
274
100
AcDbEntity
8
0
100
AcDbCircle
10
110.42536147168735
20
-97.122975925514581
30
8.1046280797636427e-14
40
1.3749999999999998
210
-1.4063859564175133e-26
220
8.326672684688675e-16
230
1
0
CIRCLE
5
275
100
AcDbEntity
8
0
100
AcDbCircle
10
91.375362471632556
20
-97.122975914824281
30
8.2156503822261584e-14
40
1.3749999999999998
210
-1.4063859564175133e-26
220
8.326672684688675e-16
230
1
0
CIRCLE
5
276
100
AcDbEntity
8
0
100
AcDbCircle
10
72.325362471578273
20
-97.122975904134066
30
7.9936057773011271e-14
40
1.3749999999999998
210
-1.4063859564175133e-26
220
8.326672684688675e-16
230
1
0
CIRCLE
5
277
100
AcDbEntity
8
0
100
AcDbCircle
10
53.275362471523877
20
-97.122975893443751
30
8.1046280797636427e-14
40
1.3749999999999902
210
-9.4190465542338128e-27
220
8.326672684688676e-16
230
1
0
CIRCLE
5
278
100
AcDbEntity
8
0
100
AcDbCircle
10
22.319078471435464
20
-97.122985876072079
30
8.1046280797636427e-14
40
1.3749999999999902
210
-9.4190465542338128e-27
220
8.326672684688676e-16
230
1
0
CIRCLE
5
279
100
AcDbEntity
8
0
100
AcDbCircle
10
38.987862460747763
20
-116.17297585459006
30
9.8809849191638932e-14
40
1.375
210
-1.2650220822018787e-26
220
8.326672684688676e-16
230
1
0
CIRCLE
5
280
100
AcDbEntity
8
0
100
AcDbCircle
10
62.800362460815776
20
-116.17297586795308
30
9.6589403142388619e-14
40
1.375
210
-1.2650220822018787e-26
220
8.326672684688676e-16
230
1
0
CIRCLE
5
281
100
AcDbEntity
8
0
100
AcDbCircle
10
143.76286246104638
20
-116.17297591338706
30
9.4368957093138306e-14
40
1.3749999999999998
210
-1.4063859564175133e-26
220
8.326672684688675e-16
230
1
0
CIRCLE
5
282
100
AcDbEntity
8
0
100
AcDbCircle
10
224.72536246127839
20
-116.17297595882007
30
9.6589403142388619e-14
40
1.375
210
-1.2650220822018787e-26
220
8.326672684688676e-16
230
1
0
LWPOLYLINE
5
283
100
AcDbEntity
8
0
100
AcDbPolyline
90
4
70
1
43
0.0
10
12.794112483069567
20
-76.422974901562668
10
17.556612483083065
20
-76.422974904235261
42
-0.99999999999999989
10
17.556612481231262
20
-79.722974904235258
10
12.794112481217567
20
-79.722974901562665
42
-0.99999999999999989
0
CIRCLE
5
284
100
AcDbEntity
8
0
100
AcDbCircle
10
237.84361856727662
20
-90.348339267337366
30
7.5495165674510645e-14
40
3.5999999999999943
210
1.9275157616516461e-26
220
8.326672684688676e-16
230
1
0
CIRCLE
5
285
100
AcDbEntity
8
0
100
AcDbCircle
10
57.720362460801276
20
-116.17297586510227
30
9.6589403142388619e-14
40
0.85089999999999222
210
-3.42527646199559e-26
220
8.1878948066105315e-16
230
1
0
CIRCLE
5
286
100
AcDbEntity
8
0
100
AcDbCircle
10
33.907862460733249
20
-116.17297585173932
30
9.6589403142388619e-14
40
0.85089999999999222
210
-3.42527646199559e-26
220
8.1878948066105315e-16
230
1
0
CIRCLE
5
287
100
AcDbEntity
8
0
100
AcDbCircle
10
229.80536246129233
20
-116.1729759616709
30
9.6589403142388619e-14
40
0.85090000000000998
210
6.350460545375399e-27
220
8.326672684688676e-16
230
1
0
ENDSEC
0
SECTION
2
OBJECTS
0
DICTIONARY
5
C
100
AcDbDictionary
3
ACAD_GROUP
350
D
3
ACAD_MLINESTYLE
350
17
0
DICTIONARY
5
D
100
AcDbDictionary
0
DICTIONARY
5
1A
330
C
100
AcDbDictionary
0
DICTIONARY
5
17
100
AcDbDictionary
0
ENDSEC
0
EOF
